solid OpenSCAD_Model
  facet normal -0.707107 -0.707107 0
    outer loop
      vertex -75.935 -122.1 -17.6
      vertex -75.535 -122.5 -10
      vertex -75.935 -122.1 -10
    endloop
  endfacet
  facet normal -0.707107 -0.707107 0
    outer loop
      vertex -75.935 -122.1 -17.6
      vertex -75.535 -122.5 -17.6
      vertex -75.535 -122.5 -10
    endloop
  endfacet
  facet normal -0.707107 -0.707107 0
    outer loop
      vertex -75.535 -122.5 -17.6
      vertex -75.935 -122.1 -17.6
      vertex -75.735 -122.3 -17.8
    endloop
  endfacet
  facet normal 1 -0 0
    outer loop
      vertex -55.935 -122.1 -10
      vertex -55.935 -108.46 -17.6
      vertex -55.935 -108.46 -10
    endloop
  endfacet
  facet normal 1 0 0
    outer loop
      vertex -55.935 -108.46 -17.6
      vertex -55.935 -122.1 -10
      vertex -55.935 -122.1 -17.6
    endloop
  endfacet
  facet normal -0 0 1
    outer loop
      vertex -66.5818 -113.427 -10
      vertex -55.935 -122.1 -10
      vertex -55.935 -108.46 -10
    endloop
  endfacet
  facet normal 0 0 1
    outer loop
      vertex -66.4719 -112.969 -10
      vertex -55.935 -108.46 -10
      vertex -66.435 -112.5 -10
    endloop
  endfacet
  facet normal 0 0 1
    outer loop
      vertex -55.935 -108.46 -10
      vertex -66.4719 -112.031 -10
      vertex -66.435 -112.5 -10
    endloop
  endfacet
  facet normal 0 0 1
    outer loop
      vertex -55.935 -108.46 -10
      vertex -66.5818 -111.573 -10
      vertex -66.4719 -112.031 -10
    endloop
  endfacet
  facet normal 0 0 1
    outer loop
      vertex -55.935 -108.46 -10
      vertex -66.762 -111.138 -10
      vertex -66.5818 -111.573 -10
    endloop
  endfacet
  facet normal 0 0 1
    outer loop
      vertex -55.935 -108.46 -10
      vertex -67.0079 -110.737 -10
      vertex -66.762 -111.138 -10
    endloop
  endfacet
  facet normal 0 0 1
    outer loop
      vertex -55.935 -108.46 -10
      vertex -67.3137 -110.379 -10
      vertex -67.0079 -110.737 -10
    endloop
  endfacet
  facet normal 0 0 1
    outer loop
      vertex -55.935 -108.46 -10
      vertex -67.6716 -110.073 -10
      vertex -67.3137 -110.379 -10
    endloop
  endfacet
  facet normal 0 0 1
    outer loop
      vertex -55.935 -108.46 -10
      vertex -68.073 -109.827 -10
      vertex -67.6716 -110.073 -10
    endloop
  endfacet
  facet normal 0 0 1
    outer loop
      vertex -55.935 -108.46 -10
      vertex -68.5079 -109.647 -10
      vertex -68.073 -109.827 -10
    endloop
  endfacet
  facet normal 0 0 1
    outer loop
      vertex -55.935 -108.46 -10
      vertex -68.9657 -109.537 -10
      vertex -68.5079 -109.647 -10
    endloop
  endfacet
  facet normal 0 0 1
    outer loop
      vertex -55.935 -108.46 -10
      vertex -69.435 -109.5 -10
      vertex -68.9657 -109.537 -10
    endloop
  endfacet
  facet normal 0 0 1
    outer loop
      vertex -75.935 -108.46 -10
      vertex -72.435 -112.5 -10
      vertex -72.3981 -112.031 -10
    endloop
  endfacet
  facet normal 0 0 1
    outer loop
      vertex -75.935 -108.46 -10
      vertex -72.3981 -112.031 -10
      vertex -72.2882 -111.573 -10
    endloop
  endfacet
  facet normal -0 0 1
    outer loop
      vertex -75.935 -108.46 -10
      vertex -69.435 -109.5 -10
      vertex -55.935 -108.46 -10
    endloop
  endfacet
  facet normal 0 0 1
    outer loop
      vertex -75.935 -108.46 -10
      vertex -69.9043 -109.537 -10
      vertex -69.435 -109.5 -10
    endloop
  endfacet
  facet normal 0 0 1
    outer loop
      vertex -75.935 -108.46 -10
      vertex -70.3621 -109.647 -10
      vertex -69.9043 -109.537 -10
    endloop
  endfacet
  facet normal 0 0 1
    outer loop
      vertex -75.935 -108.46 -10
      vertex -70.797 -109.827 -10
      vertex -70.3621 -109.647 -10
    endloop
  endfacet
  facet normal 0 0 1
    outer loop
      vertex -75.935 -108.46 -10
      vertex -71.1984 -110.073 -10
      vertex -70.797 -109.827 -10
    endloop
  endfacet
  facet normal 0 0 1
    outer loop
      vertex -75.935 -108.46 -10
      vertex -71.5563 -110.379 -10
      vertex -71.1984 -110.073 -10
    endloop
  endfacet
  facet normal 0 0 1
    outer loop
      vertex -75.935 -108.46 -10
      vertex -71.8621 -110.737 -10
      vertex -71.5563 -110.379 -10
    endloop
  endfacet
  facet normal 0 0 1
    outer loop
      vertex -75.935 -108.46 -10
      vertex -72.108 -111.138 -10
      vertex -71.8621 -110.737 -10
    endloop
  endfacet
  facet normal 0 0 1
    outer loop
      vertex -75.935 -108.46 -10
      vertex -72.2882 -111.573 -10
      vertex -72.108 -111.138 -10
    endloop
  endfacet
  facet normal 0 0 1
    outer loop
      vertex -72.435 -112.5 -10
      vertex -75.935 -108.46 -10
      vertex -75.935 -122.1 -10
    endloop
  endfacet
  facet normal 0 0 1
    outer loop
      vertex -72.435 -112.5 -10
      vertex -75.935 -122.1 -10
      vertex -75.535 -122.5 -10
    endloop
  endfacet
  facet normal 0 0 1
    outer loop
      vertex -66.5818 -113.427 -10
      vertex -55.935 -108.46 -10
      vertex -66.4719 -112.969 -10
    endloop
  endfacet
  facet normal -0 0 1
    outer loop
      vertex -66.762 -113.862 -10
      vertex -55.935 -122.1 -10
      vertex -66.5818 -113.427 -10
    endloop
  endfacet
  facet normal 0 0 1
    outer loop
      vertex -55.935 -122.1 -10
      vertex -66.762 -113.862 -10
      vertex -56.335 -122.5 -10
    endloop
  endfacet
  facet normal -0 0 1
    outer loop
      vertex -67.0079 -114.263 -10
      vertex -56.335 -122.5 -10
      vertex -66.762 -113.862 -10
    endloop
  endfacet
  facet normal -0 0 1
    outer loop
      vertex -67.3137 -114.621 -10
      vertex -56.335 -122.5 -10
      vertex -67.0079 -114.263 -10
    endloop
  endfacet
  facet normal -0 0 1
    outer loop
      vertex -67.6716 -114.927 -10
      vertex -56.335 -122.5 -10
      vertex -67.3137 -114.621 -10
    endloop
  endfacet
  facet normal -0 0 1
    outer loop
      vertex -68.073 -115.173 -10
      vertex -56.335 -122.5 -10
      vertex -67.6716 -114.927 -10
    endloop
  endfacet
  facet normal -0 0 1
    outer loop
      vertex -68.5079 -115.353 -10
      vertex -56.335 -122.5 -10
      vertex -68.073 -115.173 -10
    endloop
  endfacet
  facet normal 0 0 1
    outer loop
      vertex -75.535 -122.5 -10
      vertex -68.5079 -115.353 -10
      vertex -68.9657 -115.463 -10
    endloop
  endfacet
  facet normal 0 0 1
    outer loop
      vertex -75.535 -122.5 -10
      vertex -68.9657 -115.463 -10
      vertex -69.435 -115.5 -10
    endloop
  endfacet
  facet normal 0 0 1
    outer loop
      vertex -75.535 -122.5 -10
      vertex -69.435 -115.5 -10
      vertex -69.9043 -115.463 -10
    endloop
  endfacet
  facet normal 0 0 1
    outer loop
      vertex -75.535 -122.5 -10
      vertex -69.9043 -115.463 -10
      vertex -70.3621 -115.353 -10
    endloop
  endfacet
  facet normal 0 0 1
    outer loop
      vertex -75.535 -122.5 -10
      vertex -70.3621 -115.353 -10
      vertex -70.797 -115.173 -10
    endloop
  endfacet
  facet normal 0 0 1
    outer loop
      vertex -68.5079 -115.353 -10
      vertex -75.535 -122.5 -10
      vertex -56.335 -122.5 -10
    endloop
  endfacet
  facet normal 0 0 1
    outer loop
      vertex -71.1984 -114.927 -10
      vertex -75.535 -122.5 -10
      vertex -70.797 -115.173 -10
    endloop
  endfacet
  facet normal 0 0 1
    outer loop
      vertex -71.5563 -114.621 -10
      vertex -75.535 -122.5 -10
      vertex -71.1984 -114.927 -10
    endloop
  endfacet
  facet normal 0 0 1
    outer loop
      vertex -71.8621 -114.263 -10
      vertex -75.535 -122.5 -10
      vertex -71.5563 -114.621 -10
    endloop
  endfacet
  facet normal 0 0 1
    outer loop
      vertex -72.108 -113.862 -10
      vertex -75.535 -122.5 -10
      vertex -71.8621 -114.263 -10
    endloop
  endfacet
  facet normal 0 0 1
    outer loop
      vertex -72.2882 -113.427 -10
      vertex -75.535 -122.5 -10
      vertex -72.108 -113.862 -10
    endloop
  endfacet
  facet normal 0 0 1
    outer loop
      vertex -72.3981 -112.969 -10
      vertex -75.535 -122.5 -10
      vertex -72.2882 -113.427 -10
    endloop
  endfacet
  facet normal 0 0 1
    outer loop
      vertex -75.535 -122.5 -10
      vertex -72.3981 -112.969 -10
      vertex -72.435 -112.5 -10
    endloop
  endfacet
  facet normal 0.707107 -0.707107 0
    outer loop
      vertex -56.335 -122.5 -17.6
      vertex -55.935 -122.1 -17.6
      vertex -55.935 -122.1 -10
    endloop
  endfacet
  facet normal 0.707107 -0.707107 0
    outer loop
      vertex -56.335 -122.5 -17.6
      vertex -55.935 -122.1 -10
      vertex -56.335 -122.5 -10
    endloop
  endfacet
  facet normal 0.707107 -0.707107 1.25117e-14
    outer loop
      vertex -55.935 -122.1 -17.6
      vertex -56.335 -122.5 -17.6
      vertex -56.135 -122.3 -17.8
    endloop
  endfacet
  facet normal 0 -1 0
    outer loop
      vertex -75.535 -122.5 -17.6
      vertex -56.335 -122.5 -10
      vertex -75.535 -122.5 -10
    endloop
  endfacet
  facet normal 0 -1 -0
    outer loop
      vertex -56.335 -122.5 -10
      vertex -75.535 -122.5 -17.6
      vertex -56.335 -122.5 -17.6
    endloop
  endfacet
  facet normal -1 0 0
    outer loop
      vertex -75.935 -104.46 -17.6
      vertex -75.935 -108.46 -10.99
      vertex -75.935 -104.46 -10.99
    endloop
  endfacet
  facet normal -1 0 0
    outer loop
      vertex -75.935 -122.1 -17.6
      vertex -75.935 -108.46 -10.99
      vertex -75.935 -104.46 -17.6
    endloop
  endfacet
  facet normal -1 0 0
    outer loop
      vertex -75.935 -122.1 -10
      vertex -75.935 -108.46 -10.99
      vertex -75.935 -122.1 -17.6
    endloop
  endfacet
  facet normal -1 0 0
    outer loop
      vertex -75.935 -108.46 -10.99
      vertex -75.935 -122.1 -10
      vertex -75.935 -108.46 -10
    endloop
  endfacet
  facet normal 0 -0.707107 -0.707107
    outer loop
      vertex -75.535 -122.1 -18
      vertex -75.535 -122.5 -17.6
      vertex -75.735 -122.3 -17.8
    endloop
  endfacet
  facet normal 0 -0.707107 -0.707107
    outer loop
      vertex -75.535 -122.5 -17.6
      vertex -75.535 -122.1 -18
      vertex -56.335 -122.5 -17.6
    endloop
  endfacet
  facet normal -0 -0.707107 -0.707107
    outer loop
      vertex -56.335 -122.1 -18
      vertex -56.335 -122.5 -17.6
      vertex -75.535 -122.1 -18
    endloop
  endfacet
  facet normal 0 -0.707107 -0.707107
    outer loop
      vertex -56.335 -122.5 -17.6
      vertex -56.335 -122.1 -18
      vertex -56.135 -122.3 -17.8
    endloop
  endfacet
  facet normal 0 0 -1
    outer loop
      vertex -56.335 -122.1 -18
      vertex -63.085 -114.7 -18
      vertex -56.785 -114.7 -18
    endloop
  endfacet
  facet normal 0 0 -1
    outer loop
      vertex -64.299 -113.313 -18
      vertex -63.085 -112.3 -18
      vertex -63.085 -114.7 -18
    endloop
  endfacet
  facet normal 0 0 -1
    outer loop
      vertex -63.085 -112.3 -18
      vertex -64.299 -113.313 -18
      vertex -64.235 -112.5 -18
    endloop
  endfacet
  facet normal 0 0 -1
    outer loop
      vertex -63.085 -114.7 -18
      vertex -64.4583 -113.977 -18
      vertex -64.299 -113.313 -18
    endloop
  endfacet
  facet normal 0 0 -1
    outer loop
      vertex -64.4583 -113.977 -18
      vertex -63.085 -114.7 -18
      vertex -56.335 -122.1 -18
    endloop
  endfacet
  facet normal 0 0 -1
    outer loop
      vertex -56.785 -114.7 -18
      vertex -56.335 -108.46 -18
      vertex -56.335 -122.1 -18
    endloop
  endfacet
  facet normal 0 0 -1
    outer loop
      vertex -56.785 -112.3 -18
      vertex -56.335 -108.46 -18
      vertex -56.785 -114.7 -18
    endloop
  endfacet
  facet normal 0 0 -1
    outer loop
      vertex -63.085 -112.3 -18
      vertex -56.335 -108.46 -18
      vertex -56.785 -112.3 -18
    endloop
  endfacet
  facet normal 0 0 -1
    outer loop
      vertex -64.299 -111.687 -18
      vertex -63.085 -112.3 -18
      vertex -64.235 -112.5 -18
    endloop
  endfacet
  facet normal 0 0 -1
    outer loop
      vertex -64.4895 -110.893 -18
      vertex -63.085 -112.3 -18
      vertex -64.299 -111.687 -18
    endloop
  endfacet
  facet normal 0 -0 -1
    outer loop
      vertex -64.265 -108.46 -18
      vertex -63.085 -112.3 -18
      vertex -64.4895 -110.893 -18
    endloop
  endfacet
  facet normal 0 0 -1
    outer loop
      vertex -63.085 -112.3 -18
      vertex -64.265 -108.46 -18
      vertex -56.335 -108.46 -18
    endloop
  endfacet
  facet normal 0 0 -1
    outer loop
      vertex -64.8018 -110.139 -18
      vertex -64.265 -108.46 -18
      vertex -64.4895 -110.893 -18
    endloop
  endfacet
  facet normal 0 0 -1
    outer loop
      vertex -65.2281 -109.444 -18
      vertex -64.265 -108.46 -18
      vertex -64.8018 -110.139 -18
    endloop
  endfacet
  facet normal 0 0 -1
    outer loop
      vertex -65.758 -108.823 -18
      vertex -64.265 -108.46 -18
      vertex -65.2281 -109.444 -18
    endloop
  endfacet
  facet normal 0 0 -1
    outer loop
      vertex -66.3785 -108.293 -18
      vertex -64.265 -108.46 -18
      vertex -65.758 -108.823 -18
    endloop
  endfacet
  facet normal 0 0 -1
    outer loop
      vertex -64.265 -108.46 -18
      vertex -66.3785 -108.293 -18
      vertex -64.265 -104.46 -18
    endloop
  endfacet
  facet normal 0 0 -1
    outer loop
      vertex -67.0742 -107.867 -18
      vertex -64.265 -104.46 -18
      vertex -66.3785 -108.293 -18
    endloop
  endfacet
  facet normal 0 0 -1
    outer loop
      vertex -67.8281 -107.555 -18
      vertex -64.265 -104.46 -18
      vertex -67.0742 -107.867 -18
    endloop
  endfacet
  facet normal 0 0 -1
    outer loop
      vertex -68.6215 -107.364 -18
      vertex -64.265 -104.46 -18
      vertex -67.8281 -107.555 -18
    endloop
  endfacet
  facet normal 0 0 -1
    outer loop
      vertex -69.435 -107.3 -18
      vertex -64.265 -104.46 -18
      vertex -68.6215 -107.364 -18
    endloop
  endfacet
  facet normal 0 0 -1
    outer loop
      vertex -73.975 -104.46 -18
      vertex -69.435 -107.3 -18
      vertex -70.2485 -107.364 -18
    endloop
  endfacet
  facet normal 0 0 -1
    outer loop
      vertex -73.975 -104.46 -18
      vertex -70.2485 -107.364 -18
      vertex -70.9117 -107.523 -18
    endloop
  endfacet
  facet normal 0 0 -1
    outer loop
      vertex -69.435 -107.3 -18
      vertex -73.975 -104.46 -18
      vertex -64.265 -104.46 -18
    endloop
  endfacet
  facet normal 0 0 -1
    outer loop
      vertex -56.335 -122.1 -18
      vertex -64.4895 -114.107 -18
      vertex -64.4583 -113.977 -18
    endloop
  endfacet
  facet normal 0 0 -1
    outer loop
      vertex -56.335 -122.1 -18
      vertex -64.8018 -114.861 -18
      vertex -64.4895 -114.107 -18
    endloop
  endfacet
  facet normal 0 0 -1
    outer loop
      vertex -56.335 -122.1 -18
      vertex -65.2281 -115.556 -18
      vertex -64.8018 -114.861 -18
    endloop
  endfacet
  facet normal 0 0 -1
    outer loop
      vertex -56.335 -122.1 -18
      vertex -65.758 -116.177 -18
      vertex -65.2281 -115.556 -18
    endloop
  endfacet
  facet normal 0 0 -1
    outer loop
      vertex -56.335 -122.1 -18
      vertex -66.3785 -116.707 -18
      vertex -65.758 -116.177 -18
    endloop
  endfacet
  facet normal 0 0 -1
    outer loop
      vertex -56.335 -122.1 -18
      vertex -67.0742 -117.133 -18
      vertex -66.3785 -116.707 -18
    endloop
  endfacet
  facet normal 0 0 -1
    outer loop
      vertex -56.335 -122.1 -18
      vertex -67.8281 -117.445 -18
      vertex -67.0742 -117.133 -18
    endloop
  endfacet
  facet normal 0 0 -1
    outer loop
      vertex -56.335 -122.1 -18
      vertex -68.6215 -117.636 -18
      vertex -67.8281 -117.445 -18
    endloop
  endfacet
  facet normal 0 0 -1
    outer loop
      vertex -75.535 -122.1 -18
      vertex -68.6215 -117.636 -18
      vertex -56.335 -122.1 -18
    endloop
  endfacet
  facet normal 0 0 -1
    outer loop
      vertex -68.6215 -117.636 -18
      vertex -75.535 -122.1 -18
      vertex -69.435 -117.7 -18
    endloop
  endfacet
  facet normal -0 0 -1
    outer loop
      vertex -69.435 -117.7 -18
      vertex -75.535 -122.1 -18
      vertex -70.2485 -117.636 -18
    endloop
  endfacet
  facet normal -0 0 -1
    outer loop
      vertex -74.571 -113.313 -18
      vertex -75.535 -122.1 -18
      vertex -74.635 -112.5 -18
    endloop
  endfacet
  facet normal -0 0 -1
    outer loop
      vertex -74.3805 -114.107 -18
      vertex -75.535 -122.1 -18
      vertex -74.571 -113.313 -18
    endloop
  endfacet
  facet normal -0 0 -1
    outer loop
      vertex -74.0682 -114.861 -18
      vertex -75.535 -122.1 -18
      vertex -74.3805 -114.107 -18
    endloop
  endfacet
  facet normal -0 0 -1
    outer loop
      vertex -73.6419 -115.556 -18
      vertex -75.535 -122.1 -18
      vertex -74.0682 -114.861 -18
    endloop
  endfacet
  facet normal -0 0 -1
    outer loop
      vertex -73.112 -116.177 -18
      vertex -75.535 -122.1 -18
      vertex -73.6419 -115.556 -18
    endloop
  endfacet
  facet normal -0 0 -1
    outer loop
      vertex -72.4915 -116.707 -18
      vertex -75.535 -122.1 -18
      vertex -73.112 -116.177 -18
    endloop
  endfacet
  facet normal -0 0 -1
    outer loop
      vertex -71.7958 -117.133 -18
      vertex -75.535 -122.1 -18
      vertex -72.4915 -116.707 -18
    endloop
  endfacet
  facet normal -0 0 -1
    outer loop
      vertex -71.0419 -117.445 -18
      vertex -75.535 -122.1 -18
      vertex -71.7958 -117.133 -18
    endloop
  endfacet
  facet normal -0 0 -1
    outer loop
      vertex -70.2485 -117.636 -18
      vertex -75.535 -122.1 -18
      vertex -71.0419 -117.445 -18
    endloop
  endfacet
  facet normal 0 0 -1
    outer loop
      vertex -71.0419 -107.555 -18
      vertex -73.975 -104.46 -18
      vertex -70.9117 -107.523 -18
    endloop
  endfacet
  facet normal 0 0 -1
    outer loop
      vertex -71.7958 -107.867 -18
      vertex -73.975 -104.46 -18
      vertex -71.0419 -107.555 -18
    endloop
  endfacet
  facet normal 0 0 -1
    outer loop
      vertex -72.4915 -108.293 -18
      vertex -73.975 -104.46 -18
      vertex -71.7958 -107.867 -18
    endloop
  endfacet
  facet normal 0 0 -1
    outer loop
      vertex -73.112 -108.823 -18
      vertex -73.975 -104.46 -18
      vertex -72.4915 -108.293 -18
    endloop
  endfacet
  facet normal 0 0 -1
    outer loop
      vertex -75.535 -104.46 -18
      vertex -73.112 -108.823 -18
      vertex -73.6419 -109.444 -18
    endloop
  endfacet
  facet normal 0 0 -1
    outer loop
      vertex -75.535 -104.46 -18
      vertex -73.6419 -109.444 -18
      vertex -74.0682 -110.139 -18
    endloop
  endfacet
  facet normal 0 0 -1
    outer loop
      vertex -75.535 -104.46 -18
      vertex -74.0682 -110.139 -18
      vertex -74.3805 -110.893 -18
    endloop
  endfacet
  facet normal 0 0 -1
    outer loop
      vertex -75.535 -104.46 -18
      vertex -74.3805 -110.893 -18
      vertex -74.571 -111.687 -18
    endloop
  endfacet
  facet normal 0 0 -1
    outer loop
      vertex -75.535 -104.46 -18
      vertex -74.635 -112.5 -18
      vertex -75.535 -122.1 -18
    endloop
  endfacet
  facet normal 0 0 -1
    outer loop
      vertex -74.635 -112.5 -18
      vertex -75.535 -104.46 -18
      vertex -74.571 -111.687 -18
    endloop
  endfacet
  facet normal 0 0 -1
    outer loop
      vertex -73.112 -108.823 -18
      vertex -75.535 -104.46 -18
      vertex -73.975 -104.46 -18
    endloop
  endfacet
  facet normal 0.707107 0 -0.707107
    outer loop
      vertex -55.935 -122.1 -17.6
      vertex -56.335 -108.46 -18
      vertex -55.935 -108.46 -17.6
    endloop
  endfacet
  facet normal 0.707107 0 -0.707107
    outer loop
      vertex -55.935 -122.1 -17.6
      vertex -56.335 -122.1 -18
      vertex -56.335 -108.46 -18
    endloop
  endfacet
  facet normal 0.707107 1.25117e-14 -0.707107
    outer loop
      vertex -56.335 -122.1 -18
      vertex -55.935 -122.1 -17.6
      vertex -56.135 -122.3 -17.8
    endloop
  endfacet
  facet normal -0.707107 0 -0.707107
    outer loop
      vertex -75.935 -122.1 -17.6
      vertex -75.535 -122.1 -18
      vertex -75.735 -122.3 -17.8
    endloop
  endfacet
  facet normal -0.707107 0 -0.707107
    outer loop
      vertex -75.535 -122.1 -18
      vertex -75.935 -122.1 -17.6
      vertex -75.535 -104.46 -18
    endloop
  endfacet
  facet normal -0.707107 0 -0.707107
    outer loop
      vertex -75.535 -104.46 -18
      vertex -75.935 -122.1 -17.6
      vertex -75.935 -104.46 -17.6
    endloop
  endfacet
  facet normal 0.890979 -0 0.454044
    outer loop
      vertex -61.5518 -116.5 -14.5253
      vertex -61.3103 -114.5 -14.9992
      vertex -61.5518 -114.5 -14.5253
    endloop
  endfacet
  facet normal 0.890979 0 0.454044
    outer loop
      vertex -61.3103 -114.5 -14.9992
      vertex -61.5518 -116.5 -14.5253
      vertex -61.3103 -116.5 -14.9992
    endloop
  endfacet
  facet normal 0.890979 -0 0.454044
    outer loop
      vertex -61.5518 -112.5 -14.5253
      vertex -61.3103 -108.46 -14.9992
      vertex -61.5518 -108.46 -14.5253
    endloop
  endfacet
  facet normal 0.890979 0 0.454044
    outer loop
      vertex -61.3103 -108.46 -14.9992
      vertex -61.5518 -112.5 -14.5253
      vertex -61.3103 -112.5 -14.9992
    endloop
  endfacet
  facet normal 0.987688 -0 0.156436
    outer loop
      vertex -61.635 -116.5 -14
      vertex -61.5518 -114.5 -14.5253
      vertex -61.635 -114.5 -14
    endloop
  endfacet
  facet normal 0.987688 0 0.156436
    outer loop
      vertex -61.5518 -114.5 -14.5253
      vertex -61.635 -116.5 -14
      vertex -61.5518 -116.5 -14.5253
    endloop
  endfacet
  facet normal 0.987688 -0 0.156436
    outer loop
      vertex -61.635 -112.5 -14
      vertex -61.5518 -108.46 -14.5253
      vertex -61.635 -108.46 -14
    endloop
  endfacet
  facet normal 0.987688 0 0.156436
    outer loop
      vertex -61.5518 -108.46 -14.5253
      vertex -61.635 -112.5 -14
      vertex -61.5518 -112.5 -14.5253
    endloop
  endfacet
  facet normal 0.707107 0 0.707107
    outer loop
      vertex -61.3103 -114.5 -14.9992
      vertex -60.9342 -116.5 -15.3753
      vertex -60.9342 -114.5 -15.3753
    endloop
  endfacet
  facet normal 0.707107 0 0.707107
    outer loop
      vertex -60.9342 -116.5 -15.3753
      vertex -61.3103 -114.5 -14.9992
      vertex -61.3103 -116.5 -14.9992
    endloop
  endfacet
  facet normal 0.707107 0 0.707107
    outer loop
      vertex -61.3103 -108.46 -14.9992
      vertex -60.9342 -112.5 -15.3753
      vertex -60.9342 -108.46 -15.3753
    endloop
  endfacet
  facet normal 0.707107 0 0.707107
    outer loop
      vertex -60.9342 -112.5 -15.3753
      vertex -61.3103 -108.46 -14.9992
      vertex -61.3103 -112.5 -14.9992
    endloop
  endfacet
  facet normal 0.156436 0 -0.987688
    outer loop
      vertex -60.4603 -116.5 -12.3832
      vertex -59.935 -114.5 -12.3
      vertex -59.935 -116.5 -12.3
    endloop
  endfacet
  facet normal 0.156436 0 -0.987688
    outer loop
      vertex -59.935 -114.5 -12.3
      vertex -60.4603 -116.5 -12.3832
      vertex -60.4603 -114.5 -12.3832
    endloop
  endfacet
  facet normal 0.156436 0 -0.987688
    outer loop
      vertex -60.4603 -112.5 -12.3832
      vertex -59.935 -108.46 -12.3
      vertex -59.935 -112.5 -12.3
    endloop
  endfacet
  facet normal 0.156436 0 -0.987688
    outer loop
      vertex -59.935 -108.46 -12.3
      vertex -60.4603 -112.5 -12.3832
      vertex -60.4603 -108.46 -12.3832
    endloop
  endfacet
  facet normal -0.454044 0 0.890979
    outer loop
      vertex -59.4097 -114.5 -15.6168
      vertex -58.9358 -116.5 -15.3753
      vertex -58.9358 -114.5 -15.3753
    endloop
  endfacet
  facet normal -0.454044 0 0.890979
    outer loop
      vertex -58.9358 -116.5 -15.3753
      vertex -59.4097 -114.5 -15.6168
      vertex -59.4097 -116.5 -15.6168
    endloop
  endfacet
  facet normal -0.454044 0 0.890979
    outer loop
      vertex -59.4097 -108.46 -15.6168
      vertex -58.9358 -112.5 -15.3753
      vertex -58.9358 -108.46 -15.3753
    endloop
  endfacet
  facet normal -0.454044 0 0.890979
    outer loop
      vertex -58.9358 -112.5 -15.3753
      vertex -59.4097 -108.46 -15.6168
      vertex -59.4097 -112.5 -15.6168
    endloop
  endfacet
  facet normal 0.454044 0 -0.890979
    outer loop
      vertex -60.9342 -116.5 -12.6247
      vertex -60.4603 -114.5 -12.3832
      vertex -60.4603 -116.5 -12.3832
    endloop
  endfacet
  facet normal 0.454044 0 -0.890979
    outer loop
      vertex -60.4603 -114.5 -12.3832
      vertex -60.9342 -116.5 -12.6247
      vertex -60.9342 -114.5 -12.6247
    endloop
  endfacet
  facet normal 0.454044 0 -0.890979
    outer loop
      vertex -60.9342 -112.5 -12.6247
      vertex -60.4603 -108.46 -12.3832
      vertex -60.4603 -112.5 -12.3832
    endloop
  endfacet
  facet normal 0.454044 0 -0.890979
    outer loop
      vertex -60.4603 -108.46 -12.3832
      vertex -60.9342 -112.5 -12.6247
      vertex -60.9342 -108.46 -12.6247
    endloop
  endfacet
  facet normal 0.707107 0 -0.707107
    outer loop
      vertex -61.3103 -116.5 -13.0008
      vertex -60.9342 -114.5 -12.6247
      vertex -60.9342 -116.5 -12.6247
    endloop
  endfacet
  facet normal 0.707107 0 -0.707107
    outer loop
      vertex -60.9342 -114.5 -12.6247
      vertex -61.3103 -116.5 -13.0008
      vertex -61.3103 -114.5 -13.0008
    endloop
  endfacet
  facet normal 0.707107 0 -0.707107
    outer loop
      vertex -61.3103 -112.5 -13.0008
      vertex -60.9342 -108.46 -12.6247
      vertex -60.9342 -112.5 -12.6247
    endloop
  endfacet
  facet normal 0.707107 0 -0.707107
    outer loop
      vertex -60.9342 -108.46 -12.6247
      vertex -61.3103 -112.5 -13.0008
      vertex -61.3103 -108.46 -13.0008
    endloop
  endfacet
  facet normal -0.156436 0 -0.987688
    outer loop
      vertex -59.935 -116.5 -12.3
      vertex -59.4097 -114.5 -12.3832
      vertex -59.4097 -116.5 -12.3832
    endloop
  endfacet
  facet normal -0.156436 0 -0.987688
    outer loop
      vertex -59.4097 -114.5 -12.3832
      vertex -59.935 -116.5 -12.3
      vertex -59.935 -114.5 -12.3
    endloop
  endfacet
  facet normal -0.156436 0 -0.987688
    outer loop
      vertex -59.935 -112.5 -12.3
      vertex -59.4097 -108.46 -12.3832
      vertex -59.4097 -112.5 -12.3832
    endloop
  endfacet
  facet normal -0.156436 0 -0.987688
    outer loop
      vertex -59.4097 -108.46 -12.3832
      vertex -59.935 -112.5 -12.3
      vertex -59.935 -108.46 -12.3
    endloop
  endfacet
  facet normal -0.890979 0 0.454044
    outer loop
      vertex -58.5597 -116.5 -14.9992
      vertex -58.3182 -114.5 -14.5253
      vertex -58.5597 -114.5 -14.9992
    endloop
  endfacet
  facet normal -0.890979 0 0.454044
    outer loop
      vertex -58.3182 -114.5 -14.5253
      vertex -58.5597 -116.5 -14.9992
      vertex -58.3182 -116.5 -14.5253
    endloop
  endfacet
  facet normal -0.890979 0 0.454044
    outer loop
      vertex -58.5597 -112.5 -14.9992
      vertex -58.3182 -108.46 -14.5253
      vertex -58.5597 -108.46 -14.9992
    endloop
  endfacet
  facet normal -0.890979 0 0.454044
    outer loop
      vertex -58.3182 -108.46 -14.5253
      vertex -58.5597 -112.5 -14.9992
      vertex -58.3182 -112.5 -14.5253
    endloop
  endfacet
  facet normal 0.987688 0 -0.156436
    outer loop
      vertex -61.5518 -116.5 -13.4747
      vertex -61.635 -114.5 -14
      vertex -61.5518 -114.5 -13.4747
    endloop
  endfacet
  facet normal 0.987688 0 -0.156436
    outer loop
      vertex -61.635 -114.5 -14
      vertex -61.5518 -116.5 -13.4747
      vertex -61.635 -116.5 -14
    endloop
  endfacet
  facet normal 0.987688 0 -0.156436
    outer loop
      vertex -61.5518 -112.5 -13.4747
      vertex -61.635 -108.46 -14
      vertex -61.5518 -108.46 -13.4747
    endloop
  endfacet
  facet normal 0.987688 0 -0.156436
    outer loop
      vertex -61.635 -108.46 -14
      vertex -61.5518 -112.5 -13.4747
      vertex -61.635 -112.5 -14
    endloop
  endfacet
  facet normal -0.987688 0 0.156436
    outer loop
      vertex -58.3182 -116.5 -14.5253
      vertex -58.235 -114.5 -14
      vertex -58.3182 -114.5 -14.5253
    endloop
  endfacet
  facet normal -0.987688 0 0.156436
    outer loop
      vertex -58.235 -114.5 -14
      vertex -58.3182 -116.5 -14.5253
      vertex -58.235 -116.5 -14
    endloop
  endfacet
  facet normal -0.987688 0 0.156436
    outer loop
      vertex -58.3182 -112.5 -14.5253
      vertex -58.235 -108.46 -14
      vertex -58.3182 -108.46 -14.5253
    endloop
  endfacet
  facet normal -0.987688 0 0.156436
    outer loop
      vertex -58.235 -108.46 -14
      vertex -58.3182 -112.5 -14.5253
      vertex -58.235 -112.5 -14
    endloop
  endfacet
  facet normal 0.890979 0 -0.454044
    outer loop
      vertex -61.3103 -116.5 -13.0008
      vertex -61.5518 -114.5 -13.4747
      vertex -61.3103 -114.5 -13.0008
    endloop
  endfacet
  facet normal 0.890979 0 -0.454044
    outer loop
      vertex -61.5518 -114.5 -13.4747
      vertex -61.3103 -116.5 -13.0008
      vertex -61.5518 -116.5 -13.4747
    endloop
  endfacet
  facet normal 0.890979 0 -0.454044
    outer loop
      vertex -61.3103 -112.5 -13.0008
      vertex -61.5518 -108.46 -13.4747
      vertex -61.3103 -108.46 -13.0008
    endloop
  endfacet
  facet normal 0.890979 0 -0.454044
    outer loop
      vertex -61.5518 -108.46 -13.4747
      vertex -61.3103 -112.5 -13.0008
      vertex -61.5518 -112.5 -13.4747
    endloop
  endfacet
  facet normal 0.156436 0 0.987688
    outer loop
      vertex -60.4603 -114.5 -15.6168
      vertex -59.935 -116.5 -15.7
      vertex -59.935 -114.5 -15.7
    endloop
  endfacet
  facet normal 0.156436 0 0.987688
    outer loop
      vertex -59.935 -116.5 -15.7
      vertex -60.4603 -114.5 -15.6168
      vertex -60.4603 -116.5 -15.6168
    endloop
  endfacet
  facet normal 0.156436 0 0.987688
    outer loop
      vertex -60.4603 -108.46 -15.6168
      vertex -59.935 -112.5 -15.7
      vertex -59.935 -108.46 -15.7
    endloop
  endfacet
  facet normal 0.156436 0 0.987688
    outer loop
      vertex -59.935 -112.5 -15.7
      vertex -60.4603 -108.46 -15.6168
      vertex -60.4603 -112.5 -15.6168
    endloop
  endfacet
  facet normal 0.454044 0 0.890979
    outer loop
      vertex -60.9342 -114.5 -15.3753
      vertex -60.4603 -116.5 -15.6168
      vertex -60.4603 -114.5 -15.6168
    endloop
  endfacet
  facet normal 0.454044 0 0.890979
    outer loop
      vertex -60.4603 -116.5 -15.6168
      vertex -60.9342 -114.5 -15.3753
      vertex -60.9342 -116.5 -15.3753
    endloop
  endfacet
  facet normal 0.454044 0 0.890979
    outer loop
      vertex -60.9342 -108.46 -15.3753
      vertex -60.4603 -112.5 -15.6168
      vertex -60.4603 -108.46 -15.6168
    endloop
  endfacet
  facet normal 0.454044 0 0.890979
    outer loop
      vertex -60.4603 -112.5 -15.6168
      vertex -60.9342 -108.46 -15.3753
      vertex -60.9342 -112.5 -15.3753
    endloop
  endfacet
  facet normal -0.890979 0 -0.454044
    outer loop
      vertex -58.3182 -116.5 -13.4747
      vertex -58.5597 -114.5 -13.0008
      vertex -58.3182 -114.5 -13.4747
    endloop
  endfacet
  facet normal -0.890979 -0 -0.454044
    outer loop
      vertex -58.5597 -114.5 -13.0008
      vertex -58.3182 -116.5 -13.4747
      vertex -58.5597 -116.5 -13.0008
    endloop
  endfacet
  facet normal -0.890979 0 -0.454044
    outer loop
      vertex -58.3182 -112.5 -13.4747
      vertex -58.5597 -108.46 -13.0008
      vertex -58.3182 -108.46 -13.4747
    endloop
  endfacet
  facet normal -0.890979 -0 -0.454044
    outer loop
      vertex -58.5597 -108.46 -13.0008
      vertex -58.3182 -112.5 -13.4747
      vertex -58.5597 -112.5 -13.0008
    endloop
  endfacet
  facet normal -0.156436 0 0.987688
    outer loop
      vertex -59.935 -114.5 -15.7
      vertex -59.4097 -116.5 -15.6168
      vertex -59.4097 -114.5 -15.6168
    endloop
  endfacet
  facet normal -0.156436 0 0.987688
    outer loop
      vertex -59.4097 -116.5 -15.6168
      vertex -59.935 -114.5 -15.7
      vertex -59.935 -116.5 -15.7
    endloop
  endfacet
  facet normal -0.156436 0 0.987688
    outer loop
      vertex -59.935 -108.46 -15.7
      vertex -59.4097 -112.5 -15.6168
      vertex -59.4097 -108.46 -15.6168
    endloop
  endfacet
  facet normal -0.156436 0 0.987688
    outer loop
      vertex -59.4097 -112.5 -15.6168
      vertex -59.935 -108.46 -15.7
      vertex -59.935 -112.5 -15.7
    endloop
  endfacet
  facet normal -0.707107 0 -0.707107
    outer loop
      vertex -58.5597 -116.5 -13.0008
      vertex -58.9358 -114.5 -12.6247
      vertex -58.5597 -114.5 -13.0008
    endloop
  endfacet
  facet normal -0.707107 -0 -0.707107
    outer loop
      vertex -58.9358 -114.5 -12.6247
      vertex -58.5597 -116.5 -13.0008
      vertex -58.9358 -116.5 -12.6247
    endloop
  endfacet
  facet normal -0.707107 0 -0.707107
    outer loop
      vertex -58.5597 -112.5 -13.0008
      vertex -58.9358 -108.46 -12.6247
      vertex -58.5597 -108.46 -13.0008
    endloop
  endfacet
  facet normal -0.707107 -0 -0.707107
    outer loop
      vertex -58.9358 -108.46 -12.6247
      vertex -58.5597 -112.5 -13.0008
      vertex -58.9358 -112.5 -12.6247
    endloop
  endfacet
  facet normal 0 1 0
    outer loop
      vertex -59.4097 -116.5 -12.3832
      vertex -60.4603 -116.5 -12.3832
      vertex -59.935 -116.5 -12.3
    endloop
  endfacet
  facet normal 0 1 0
    outer loop
      vertex -58.9358 -116.5 -12.6247
      vertex -60.4603 -116.5 -12.3832
      vertex -59.4097 -116.5 -12.3832
    endloop
  endfacet
  facet normal 0 1 0
    outer loop
      vertex -58.9358 -116.5 -12.6247
      vertex -60.9342 -116.5 -12.6247
      vertex -60.4603 -116.5 -12.3832
    endloop
  endfacet
  facet normal 0 1 0
    outer loop
      vertex -58.5597 -116.5 -13.0008
      vertex -60.9342 -116.5 -12.6247
      vertex -58.9358 -116.5 -12.6247
    endloop
  endfacet
  facet normal 0 1 0
    outer loop
      vertex -58.5597 -116.5 -13.0008
      vertex -61.3103 -116.5 -13.0008
      vertex -60.9342 -116.5 -12.6247
    endloop
  endfacet
  facet normal 0 1 0
    outer loop
      vertex -58.3182 -116.5 -13.4747
      vertex -61.3103 -116.5 -13.0008
      vertex -58.5597 -116.5 -13.0008
    endloop
  endfacet
  facet normal 0 1 0
    outer loop
      vertex -58.3182 -116.5 -13.4747
      vertex -61.5518 -116.5 -13.4747
      vertex -61.3103 -116.5 -13.0008
    endloop
  endfacet
  facet normal 0 1 0
    outer loop
      vertex -58.235 -116.5 -14
      vertex -61.5518 -116.5 -13.4747
      vertex -58.3182 -116.5 -13.4747
    endloop
  endfacet
  facet normal 0 1 0
    outer loop
      vertex -58.235 -116.5 -14
      vertex -61.635 -116.5 -14
      vertex -61.5518 -116.5 -13.4747
    endloop
  endfacet
  facet normal 0 1 -0
    outer loop
      vertex -58.3182 -116.5 -14.5253
      vertex -61.635 -116.5 -14
      vertex -58.235 -116.5 -14
    endloop
  endfacet
  facet normal 0 1 0
    outer loop
      vertex -58.3182 -116.5 -14.5253
      vertex -61.5518 -116.5 -14.5253
      vertex -61.635 -116.5 -14
    endloop
  endfacet
  facet normal 0 1 -0
    outer loop
      vertex -58.5597 -116.5 -14.9992
      vertex -61.5518 -116.5 -14.5253
      vertex -58.3182 -116.5 -14.5253
    endloop
  endfacet
  facet normal 0 1 0
    outer loop
      vertex -58.5597 -116.5 -14.9992
      vertex -61.3103 -116.5 -14.9992
      vertex -61.5518 -116.5 -14.5253
    endloop
  endfacet
  facet normal 0 1 -0
    outer loop
      vertex -58.9358 -116.5 -15.3753
      vertex -61.3103 -116.5 -14.9992
      vertex -58.5597 -116.5 -14.9992
    endloop
  endfacet
  facet normal 0 1 0
    outer loop
      vertex -58.9358 -116.5 -15.3753
      vertex -60.9342 -116.5 -15.3753
      vertex -61.3103 -116.5 -14.9992
    endloop
  endfacet
  facet normal 0 1 -0
    outer loop
      vertex -59.4097 -116.5 -15.6168
      vertex -60.9342 -116.5 -15.3753
      vertex -58.9358 -116.5 -15.3753
    endloop
  endfacet
  facet normal 0 1 0
    outer loop
      vertex -59.4097 -116.5 -15.6168
      vertex -60.4603 -116.5 -15.6168
      vertex -60.9342 -116.5 -15.3753
    endloop
  endfacet
  facet normal -0 1 0
    outer loop
      vertex -60.4603 -116.5 -15.6168
      vertex -59.4097 -116.5 -15.6168
      vertex -59.935 -116.5 -15.7
    endloop
  endfacet
  facet normal -0.707107 0 0.707107
    outer loop
      vertex -58.9358 -116.5 -15.3753
      vertex -58.5597 -114.5 -14.9992
      vertex -58.9358 -114.5 -15.3753
    endloop
  endfacet
  facet normal -0.707107 0 0.707107
    outer loop
      vertex -58.5597 -114.5 -14.9992
      vertex -58.9358 -116.5 -15.3753
      vertex -58.5597 -116.5 -14.9992
    endloop
  endfacet
  facet normal -0.707107 0 0.707107
    outer loop
      vertex -58.9358 -112.5 -15.3753
      vertex -58.5597 -108.46 -14.9992
      vertex -58.9358 -108.46 -15.3753
    endloop
  endfacet
  facet normal -0.707107 0 0.707107
    outer loop
      vertex -58.5597 -108.46 -14.9992
      vertex -58.9358 -112.5 -15.3753
      vertex -58.5597 -112.5 -14.9992
    endloop
  endfacet
  facet normal -0.987688 0 -0.156436
    outer loop
      vertex -58.235 -116.5 -14
      vertex -58.3182 -114.5 -13.4747
      vertex -58.235 -114.5 -14
    endloop
  endfacet
  facet normal -0.987688 -0 -0.156436
    outer loop
      vertex -58.3182 -114.5 -13.4747
      vertex -58.235 -116.5 -14
      vertex -58.3182 -116.5 -13.4747
    endloop
  endfacet
  facet normal -0.987688 0 -0.156436
    outer loop
      vertex -58.235 -112.5 -14
      vertex -58.3182 -108.46 -13.4747
      vertex -58.235 -108.46 -14
    endloop
  endfacet
  facet normal -0.987688 -0 -0.156436
    outer loop
      vertex -58.3182 -108.46 -13.4747
      vertex -58.235 -112.5 -14
      vertex -58.3182 -112.5 -13.4747
    endloop
  endfacet
  facet normal -0.454044 0 -0.890979
    outer loop
      vertex -59.4097 -116.5 -12.3832
      vertex -58.9358 -114.5 -12.6247
      vertex -58.9358 -116.5 -12.6247
    endloop
  endfacet
  facet normal -0.454044 0 -0.890979
    outer loop
      vertex -58.9358 -114.5 -12.6247
      vertex -59.4097 -116.5 -12.3832
      vertex -59.4097 -114.5 -12.3832
    endloop
  endfacet
  facet normal -0.454044 0 -0.890979
    outer loop
      vertex -59.4097 -112.5 -12.3832
      vertex -58.9358 -108.46 -12.6247
      vertex -58.9358 -112.5 -12.6247
    endloop
  endfacet
  facet normal -0.454044 0 -0.890979
    outer loop
      vertex -58.9358 -108.46 -12.6247
      vertex -59.4097 -112.5 -12.3832
      vertex -59.4097 -108.46 -12.3832
    endloop
  endfacet
  facet normal 1 -0 0
    outer loop
      vertex -62.885 -114.5 -11.05
      vertex -62.885 -112.5 -16.75
      vertex -62.885 -112.5 -11.05
    endloop
  endfacet
  facet normal 1 0 0
    outer loop
      vertex -62.885 -112.5 -16.75
      vertex -62.885 -114.5 -11.05
      vertex -62.885 -114.5 -16.75
    endloop
  endfacet
  facet normal 0 1 0
    outer loop
      vertex -56.985 -114.5 -11.05
      vertex -59.935 -114.5 -12.3
      vertex -62.885 -114.5 -11.05
    endloop
  endfacet
  facet normal 0 1 0
    outer loop
      vertex -56.985 -114.5 -11.05
      vertex -59.4097 -114.5 -12.3832
      vertex -59.935 -114.5 -12.3
    endloop
  endfacet
  facet normal 0 1 0
    outer loop
      vertex -56.985 -114.5 -11.05
      vertex -58.9358 -114.5 -12.6247
      vertex -59.4097 -114.5 -12.3832
    endloop
  endfacet
  facet normal 0 1 0
    outer loop
      vertex -56.985 -114.5 -11.05
      vertex -58.5597 -114.5 -13.0008
      vertex -58.9358 -114.5 -12.6247
    endloop
  endfacet
  facet normal 0 1 0
    outer loop
      vertex -56.985 -114.5 -11.05
      vertex -58.3182 -114.5 -13.4747
      vertex -58.5597 -114.5 -13.0008
    endloop
  endfacet
  facet normal 0 1 0
    outer loop
      vertex -56.985 -114.5 -11.05
      vertex -58.235 -114.5 -14
      vertex -58.3182 -114.5 -13.4747
    endloop
  endfacet
  facet normal 0 1 -0
    outer loop
      vertex -56.985 -114.5 -16.75
      vertex -58.235 -114.5 -14
      vertex -56.985 -114.5 -11.05
    endloop
  endfacet
  facet normal 0 1 0
    outer loop
      vertex -59.4097 -114.5 -15.6168
      vertex -56.985 -114.5 -16.75
      vertex -59.935 -114.5 -15.7
    endloop
  endfacet
  facet normal 0 1 0
    outer loop
      vertex -58.9358 -114.5 -15.3753
      vertex -56.985 -114.5 -16.75
      vertex -59.4097 -114.5 -15.6168
    endloop
  endfacet
  facet normal 0 1 0
    outer loop
      vertex -58.5597 -114.5 -14.9992
      vertex -56.985 -114.5 -16.75
      vertex -58.9358 -114.5 -15.3753
    endloop
  endfacet
  facet normal 0 1 0
    outer loop
      vertex -58.3182 -114.5 -14.5253
      vertex -56.985 -114.5 -16.75
      vertex -58.5597 -114.5 -14.9992
    endloop
  endfacet
  facet normal 0 1 0
    outer loop
      vertex -58.235 -114.5 -14
      vertex -56.985 -114.5 -16.75
      vertex -58.3182 -114.5 -14.5253
    endloop
  endfacet
  facet normal 0 1 -0
    outer loop
      vertex -60.4603 -114.5 -12.3832
      vertex -62.885 -114.5 -11.05
      vertex -59.935 -114.5 -12.3
    endloop
  endfacet
  facet normal 0 1 -0
    outer loop
      vertex -60.9342 -114.5 -12.6247
      vertex -62.885 -114.5 -11.05
      vertex -60.4603 -114.5 -12.3832
    endloop
  endfacet
  facet normal 0 1 -0
    outer loop
      vertex -61.3103 -114.5 -13.0008
      vertex -62.885 -114.5 -11.05
      vertex -60.9342 -114.5 -12.6247
    endloop
  endfacet
  facet normal 0 1 -0
    outer loop
      vertex -61.5518 -114.5 -13.4747
      vertex -62.885 -114.5 -11.05
      vertex -61.3103 -114.5 -13.0008
    endloop
  endfacet
  facet normal 0 1 -0
    outer loop
      vertex -61.635 -114.5 -14
      vertex -62.885 -114.5 -11.05
      vertex -61.5518 -114.5 -13.4747
    endloop
  endfacet
  facet normal 0 1 0
    outer loop
      vertex -62.885 -114.5 -16.75
      vertex -61.635 -114.5 -14
      vertex -61.5518 -114.5 -14.5253
    endloop
  endfacet
  facet normal 0 1 0
    outer loop
      vertex -62.885 -114.5 -16.75
      vertex -59.935 -114.5 -15.7
      vertex -56.985 -114.5 -16.75
    endloop
  endfacet
  facet normal 0 1 0
    outer loop
      vertex -61.635 -114.5 -14
      vertex -62.885 -114.5 -16.75
      vertex -62.885 -114.5 -11.05
    endloop
  endfacet
  facet normal 0 1 0
    outer loop
      vertex -61.3103 -114.5 -14.9992
      vertex -62.885 -114.5 -16.75
      vertex -61.5518 -114.5 -14.5253
    endloop
  endfacet
  facet normal 0 1 0
    outer loop
      vertex -60.9342 -114.5 -15.3753
      vertex -62.885 -114.5 -16.75
      vertex -61.3103 -114.5 -14.9992
    endloop
  endfacet
  facet normal 0 1 0
    outer loop
      vertex -60.4603 -114.5 -15.6168
      vertex -62.885 -114.5 -16.75
      vertex -60.9342 -114.5 -15.3753
    endloop
  endfacet
  facet normal 0 1 0
    outer loop
      vertex -59.935 -114.5 -15.7
      vertex -62.885 -114.5 -16.75
      vertex -60.4603 -114.5 -15.6168
    endloop
  endfacet
  facet normal 0 -1 0
    outer loop
      vertex -62.885 -112.5 -11.05
      vertex -59.935 -112.5 -12.3
      vertex -56.985 -112.5 -11.05
    endloop
  endfacet
  facet normal 0 -1 0
    outer loop
      vertex -62.885 -112.5 -11.05
      vertex -60.4603 -112.5 -12.3832
      vertex -59.935 -112.5 -12.3
    endloop
  endfacet
  facet normal 0 -1 0
    outer loop
      vertex -62.885 -112.5 -11.05
      vertex -60.9342 -112.5 -12.6247
      vertex -60.4603 -112.5 -12.3832
    endloop
  endfacet
  facet normal 0 -1 0
    outer loop
      vertex -62.885 -112.5 -11.05
      vertex -61.3103 -112.5 -13.0008
      vertex -60.9342 -112.5 -12.6247
    endloop
  endfacet
  facet normal 0 -1 0
    outer loop
      vertex -62.885 -112.5 -11.05
      vertex -61.5518 -112.5 -13.4747
      vertex -61.3103 -112.5 -13.0008
    endloop
  endfacet
  facet normal 0 -1 0
    outer loop
      vertex -62.885 -112.5 -11.05
      vertex -61.635 -112.5 -14
      vertex -61.5518 -112.5 -13.4747
    endloop
  endfacet
  facet normal 0 -1 0
    outer loop
      vertex -62.885 -112.5 -16.75
      vertex -61.635 -112.5 -14
      vertex -62.885 -112.5 -11.05
    endloop
  endfacet
  facet normal 0 -1 -0
    outer loop
      vertex -60.4603 -112.5 -15.6168
      vertex -62.885 -112.5 -16.75
      vertex -59.935 -112.5 -15.7
    endloop
  endfacet
  facet normal 0 -1 -0
    outer loop
      vertex -60.9342 -112.5 -15.3753
      vertex -62.885 -112.5 -16.75
      vertex -60.4603 -112.5 -15.6168
    endloop
  endfacet
  facet normal 0 -1 -0
    outer loop
      vertex -61.3103 -112.5 -14.9992
      vertex -62.885 -112.5 -16.75
      vertex -60.9342 -112.5 -15.3753
    endloop
  endfacet
  facet normal 0 -1 -0
    outer loop
      vertex -61.5518 -112.5 -14.5253
      vertex -62.885 -112.5 -16.75
      vertex -61.3103 -112.5 -14.9992
    endloop
  endfacet
  facet normal 0 -1 -0
    outer loop
      vertex -61.635 -112.5 -14
      vertex -62.885 -112.5 -16.75
      vertex -61.5518 -112.5 -14.5253
    endloop
  endfacet
  facet normal 0 -1 0
    outer loop
      vertex -59.4097 -112.5 -12.3832
      vertex -56.985 -112.5 -11.05
      vertex -59.935 -112.5 -12.3
    endloop
  endfacet
  facet normal 0 -1 0
    outer loop
      vertex -58.9358 -112.5 -12.6247
      vertex -56.985 -112.5 -11.05
      vertex -59.4097 -112.5 -12.3832
    endloop
  endfacet
  facet normal 0 -1 0
    outer loop
      vertex -58.5597 -112.5 -13.0008
      vertex -56.985 -112.5 -11.05
      vertex -58.9358 -112.5 -12.6247
    endloop
  endfacet
  facet normal 0 -1 0
    outer loop
      vertex -58.3182 -112.5 -13.4747
      vertex -56.985 -112.5 -11.05
      vertex -58.5597 -112.5 -13.0008
    endloop
  endfacet
  facet normal 0 -1 0
    outer loop
      vertex -58.235 -112.5 -14
      vertex -56.985 -112.5 -11.05
      vertex -58.3182 -112.5 -13.4747
    endloop
  endfacet
  facet normal 0 -1 0
    outer loop
      vertex -56.985 -112.5 -16.75
      vertex -58.235 -112.5 -14
      vertex -58.3182 -112.5 -14.5253
    endloop
  endfacet
  facet normal 0 -1 0
    outer loop
      vertex -56.985 -112.5 -16.75
      vertex -59.935 -112.5 -15.7
      vertex -62.885 -112.5 -16.75
    endloop
  endfacet
  facet normal 0 -1 0
    outer loop
      vertex -58.235 -112.5 -14
      vertex -56.985 -112.5 -16.75
      vertex -56.985 -112.5 -11.05
    endloop
  endfacet
  facet normal 0 -1 0
    outer loop
      vertex -58.5597 -112.5 -14.9992
      vertex -56.985 -112.5 -16.75
      vertex -58.3182 -112.5 -14.5253
    endloop
  endfacet
  facet normal 0 -1 0
    outer loop
      vertex -58.9358 -112.5 -15.3753
      vertex -56.985 -112.5 -16.75
      vertex -58.5597 -112.5 -14.9992
    endloop
  endfacet
  facet normal 0 -1 0
    outer loop
      vertex -59.4097 -112.5 -15.6168
      vertex -56.985 -112.5 -16.75
      vertex -58.9358 -112.5 -15.3753
    endloop
  endfacet
  facet normal 0 -1 0
    outer loop
      vertex -59.935 -112.5 -15.7
      vertex -56.985 -112.5 -16.75
      vertex -59.4097 -112.5 -15.6168
    endloop
  endfacet
  facet normal -1 0 0
    outer loop
      vertex -56.985 -114.5 -16.75
      vertex -56.985 -112.5 -11.05
      vertex -56.985 -112.5 -16.75
    endloop
  endfacet
  facet normal -1 -0 0
    outer loop
      vertex -56.985 -112.5 -11.05
      vertex -56.985 -114.5 -16.75
      vertex -56.985 -114.5 -11.05
    endloop
  endfacet
  facet normal 0 0 -1
    outer loop
      vertex -62.885 -114.5 -11.05
      vertex -56.985 -112.5 -11.05
      vertex -56.985 -114.5 -11.05
    endloop
  endfacet
  facet normal -0 0 -1
    outer loop
      vertex -56.985 -112.5 -11.05
      vertex -62.885 -114.5 -11.05
      vertex -62.885 -112.5 -11.05
    endloop
  endfacet
  facet normal 1 -0 0
    outer loop
      vertex -63.085 -114.7 -16.75
      vertex -63.085 -112.3 -18
      vertex -63.085 -112.3 -16.75
    endloop
  endfacet
  facet normal 1 0 0
    outer loop
      vertex -63.085 -112.3 -18
      vertex -63.085 -114.7 -16.75
      vertex -63.085 -114.7 -18
    endloop
  endfacet
  facet normal 0 1 -0
    outer loop
      vertex -56.785 -114.7 -18
      vertex -63.085 -114.7 -16.75
      vertex -56.785 -114.7 -16.75
    endloop
  endfacet
  facet normal 0 1 0
    outer loop
      vertex -63.085 -114.7 -16.75
      vertex -56.785 -114.7 -18
      vertex -63.085 -114.7 -18
    endloop
  endfacet
  facet normal 0 -1 0
    outer loop
      vertex -63.085 -112.3 -18
      vertex -56.785 -112.3 -16.75
      vertex -63.085 -112.3 -16.75
    endloop
  endfacet
  facet normal 0 -1 -0
    outer loop
      vertex -56.785 -112.3 -16.75
      vertex -63.085 -112.3 -18
      vertex -56.785 -112.3 -18
    endloop
  endfacet
  facet normal -1 0 0
    outer loop
      vertex -56.785 -114.7 -18
      vertex -56.785 -112.3 -16.75
      vertex -56.785 -112.3 -18
    endloop
  endfacet
  facet normal -1 -0 0
    outer loop
      vertex -56.785 -112.3 -16.75
      vertex -56.785 -114.7 -18
      vertex -56.785 -114.7 -16.75
    endloop
  endfacet
  facet normal 0 0 -1
    outer loop
      vertex -56.785 -114.7 -16.75
      vertex -56.985 -114.5 -16.75
      vertex -56.785 -112.3 -16.75
    endloop
  endfacet
  facet normal 0 0 -1
    outer loop
      vertex -56.785 -114.7 -16.75
      vertex -62.885 -114.5 -16.75
      vertex -56.985 -114.5 -16.75
    endloop
  endfacet
  facet normal -0 0 -1
    outer loop
      vertex -62.885 -114.5 -16.75
      vertex -63.085 -114.7 -16.75
      vertex -62.885 -112.5 -16.75
    endloop
  endfacet
  facet normal 0 0 -1
    outer loop
      vertex -63.085 -114.7 -16.75
      vertex -62.885 -114.5 -16.75
      vertex -56.785 -114.7 -16.75
    endloop
  endfacet
  facet normal 0 0 -1
    outer loop
      vertex -56.985 -112.5 -16.75
      vertex -56.785 -112.3 -16.75
      vertex -56.985 -114.5 -16.75
    endloop
  endfacet
  facet normal 0 0 -1
    outer loop
      vertex -62.885 -112.5 -16.75
      vertex -56.785 -112.3 -16.75
      vertex -56.985 -112.5 -16.75
    endloop
  endfacet
  facet normal 0 0 -1
    outer loop
      vertex -62.885 -112.5 -16.75
      vertex -63.085 -112.3 -16.75
      vertex -56.785 -112.3 -16.75
    endloop
  endfacet
  facet normal 0 0 -1
    outer loop
      vertex -63.085 -112.3 -16.75
      vertex -62.885 -112.5 -16.75
      vertex -63.085 -114.7 -16.75
    endloop
  endfacet
  facet normal 0 1 -0
    outer loop
      vertex -73.975 -104.46 -18
      vertex -75.935 -104.46 -10.99
      vertex -64.265 -104.46 -10.99
    endloop
  endfacet
  facet normal 0 1 0
    outer loop
      vertex -75.935 -104.46 -10.99
      vertex -73.975 -104.46 -18
      vertex -75.935 -104.46 -17.6
    endloop
  endfacet
  facet normal 0 1 0
    outer loop
      vertex -73.975 -104.46 -18
      vertex -64.265 -104.46 -10.99
      vertex -64.265 -104.46 -18
    endloop
  endfacet
  facet normal 0 1 0
    outer loop
      vertex -75.935 -104.46 -17.6
      vertex -73.975 -104.46 -18
      vertex -75.535 -104.46 -18
    endloop
  endfacet
  facet normal 1 -0 0
    outer loop
      vertex -64.265 -108.46 -10.99
      vertex -64.265 -104.46 -18
      vertex -64.265 -104.46 -10.99
    endloop
  endfacet
  facet normal 1 0 0
    outer loop
      vertex -64.265 -104.46 -18
      vertex -64.265 -108.46 -10.99
      vertex -64.265 -108.46 -18
    endloop
  endfacet
  facet normal 0 1 0
    outer loop
      vertex -55.935 -108.46 -10
      vertex -64.265 -108.46 -10.99
      vertex -75.935 -108.46 -10
    endloop
  endfacet
  facet normal 0 1 0
    outer loop
      vertex -55.935 -108.46 -10
      vertex -59.935 -108.46 -12.3
      vertex -64.265 -108.46 -10.99
    endloop
  endfacet
  facet normal 0 1 0
    outer loop
      vertex -55.935 -108.46 -10
      vertex -59.4097 -108.46 -12.3832
      vertex -59.935 -108.46 -12.3
    endloop
  endfacet
  facet normal 0 1 0
    outer loop
      vertex -55.935 -108.46 -10
      vertex -58.9358 -108.46 -12.6247
      vertex -59.4097 -108.46 -12.3832
    endloop
  endfacet
  facet normal 0 1 0
    outer loop
      vertex -55.935 -108.46 -10
      vertex -58.5597 -108.46 -13.0008
      vertex -58.9358 -108.46 -12.6247
    endloop
  endfacet
  facet normal 0 1 0
    outer loop
      vertex -55.935 -108.46 -10
      vertex -58.3182 -108.46 -13.4747
      vertex -58.5597 -108.46 -13.0008
    endloop
  endfacet
  facet normal 0 1 0
    outer loop
      vertex -55.935 -108.46 -10
      vertex -58.235 -108.46 -14
      vertex -58.3182 -108.46 -13.4747
    endloop
  endfacet
  facet normal 0 1 -0
    outer loop
      vertex -55.935 -108.46 -17.6
      vertex -58.235 -108.46 -14
      vertex -55.935 -108.46 -10
    endloop
  endfacet
  facet normal 0 1 0
    outer loop
      vertex -58.235 -108.46 -14
      vertex -55.935 -108.46 -17.6
      vertex -58.3182 -108.46 -14.5253
    endloop
  endfacet
  facet normal 0 1 0
    outer loop
      vertex -58.9358 -108.46 -15.3753
      vertex -56.335 -108.46 -18
      vertex -59.4097 -108.46 -15.6168
    endloop
  endfacet
  facet normal 0 1 -0
    outer loop
      vertex -56.335 -108.46 -18
      vertex -58.9358 -108.46 -15.3753
      vertex -55.935 -108.46 -17.6
    endloop
  endfacet
  facet normal 0 1 0
    outer loop
      vertex -58.5597 -108.46 -14.9992
      vertex -55.935 -108.46 -17.6
      vertex -58.9358 -108.46 -15.3753
    endloop
  endfacet
  facet normal 0 1 0
    outer loop
      vertex -58.3182 -108.46 -14.5253
      vertex -55.935 -108.46 -17.6
      vertex -58.5597 -108.46 -14.9992
    endloop
  endfacet
  facet normal 0 1 0
    outer loop
      vertex -75.935 -108.46 -10
      vertex -64.265 -108.46 -10.99
      vertex -75.935 -108.46 -10.99
    endloop
  endfacet
  facet normal 0 1 -0
    outer loop
      vertex -60.4603 -108.46 -12.3832
      vertex -64.265 -108.46 -10.99
      vertex -59.935 -108.46 -12.3
    endloop
  endfacet
  facet normal 0 1 -0
    outer loop
      vertex -60.9342 -108.46 -12.6247
      vertex -64.265 -108.46 -10.99
      vertex -60.4603 -108.46 -12.3832
    endloop
  endfacet
  facet normal 0 1 -0
    outer loop
      vertex -61.3103 -108.46 -13.0008
      vertex -64.265 -108.46 -10.99
      vertex -60.9342 -108.46 -12.6247
    endloop
  endfacet
  facet normal 0 1 -0
    outer loop
      vertex -61.5518 -108.46 -13.4747
      vertex -64.265 -108.46 -10.99
      vertex -61.3103 -108.46 -13.0008
    endloop
  endfacet
  facet normal 0 1 -0
    outer loop
      vertex -61.635 -108.46 -14
      vertex -64.265 -108.46 -10.99
      vertex -61.5518 -108.46 -13.4747
    endloop
  endfacet
  facet normal 0 1 0
    outer loop
      vertex -64.265 -108.46 -18
      vertex -61.635 -108.46 -14
      vertex -61.5518 -108.46 -14.5253
    endloop
  endfacet
  facet normal 0 1 0
    outer loop
      vertex -64.265 -108.46 -18
      vertex -61.5518 -108.46 -14.5253
      vertex -61.3103 -108.46 -14.9992
    endloop
  endfacet
  facet normal 0 1 0
    outer loop
      vertex -59.4097 -108.46 -15.6168
      vertex -56.335 -108.46 -18
      vertex -59.935 -108.46 -15.7
    endloop
  endfacet
  facet normal 0 1 0
    outer loop
      vertex -64.265 -108.46 -18
      vertex -59.935 -108.46 -15.7
      vertex -56.335 -108.46 -18
    endloop
  endfacet
  facet normal 0 1 0
    outer loop
      vertex -59.935 -108.46 -15.7
      vertex -64.265 -108.46 -18
      vertex -60.4603 -108.46 -15.6168
    endloop
  endfacet
  facet normal 0 1 0
    outer loop
      vertex -61.635 -108.46 -14
      vertex -64.265 -108.46 -18
      vertex -64.265 -108.46 -10.99
    endloop
  endfacet
  facet normal 0 1 0
    outer loop
      vertex -60.9342 -108.46 -15.3753
      vertex -64.265 -108.46 -18
      vertex -61.3103 -108.46 -14.9992
    endloop
  endfacet
  facet normal 0 1 0
    outer loop
      vertex -60.4603 -108.46 -15.6168
      vertex -64.265 -108.46 -18
      vertex -60.9342 -108.46 -15.3753
    endloop
  endfacet
  facet normal -0 0 1
    outer loop
      vertex -75.935 -104.46 -10.99
      vertex -64.265 -108.46 -10.99
      vertex -64.265 -104.46 -10.99
    endloop
  endfacet
  facet normal 0 0 1
    outer loop
      vertex -64.265 -108.46 -10.99
      vertex -75.935 -104.46 -10.99
      vertex -75.935 -108.46 -10.99
    endloop
  endfacet
  facet normal 0.0785969 0.996906 -0
    outer loop
      vertex -69.435 -115.5 -14.3
      vertex -69.9043 -115.463 -10
      vertex -69.435 -115.5 -10
    endloop
  endfacet
  facet normal 0.0785969 0.996906 0
    outer loop
      vertex -69.9043 -115.463 -10
      vertex -69.435 -115.5 -14.3
      vertex -69.9043 -115.463 -14.3
    endloop
  endfacet
  facet normal -0.972397 -0.233333 0
    outer loop
      vertex -66.4719 -112.031 -14.3
      vertex -66.5818 -111.573 -10
      vertex -66.5818 -111.573 -14.3
    endloop
  endfacet
  facet normal -0.972397 -0.233333 0
    outer loop
      vertex -66.5818 -111.573 -10
      vertex -66.4719 -112.031 -14.3
      vertex -66.4719 -112.031 -10
    endloop
  endfacet
  facet normal -0.23363 -0.972326 0
    outer loop
      vertex -68.9657 -109.537 -14.3
      vertex -68.5079 -109.647 -10
      vertex -68.9657 -109.537 -10
    endloop
  endfacet
  facet normal -0.23363 -0.972326 -0
    outer loop
      vertex -68.5079 -109.647 -10
      vertex -68.9657 -109.537 -14.3
      vertex -68.5079 -109.647 -14.3
    endloop
  endfacet
  facet normal 0.649846 -0.760066 0
    outer loop
      vertex -71.5563 -110.379 -14.3
      vertex -71.1984 -110.073 -10
      vertex -71.5563 -110.379 -10
    endloop
  endfacet
  facet normal 0.649846 -0.760066 0
    outer loop
      vertex -71.1984 -110.073 -10
      vertex -71.5563 -110.379 -14.3
      vertex -71.1984 -110.073 -14.3
    endloop
  endfacet
  facet normal -0.852482 0.522756 0
    outer loop
      vertex -67.0079 -114.263 -14.3
      vertex -66.762 -113.862 -10
      vertex -66.762 -113.862 -14.3
    endloop
  endfacet
  facet normal -0.852482 0.522756 0
    outer loop
      vertex -66.762 -113.862 -10
      vertex -67.0079 -114.263 -14.3
      vertex -67.0079 -114.263 -10
    endloop
  endfacet
  facet normal 0.382427 0.923986 -0
    outer loop
      vertex -70.3621 -115.353 -14.3
      vertex -70.797 -115.173 -10
      vertex -70.3621 -115.353 -10
    endloop
  endfacet
  facet normal 0.382427 0.923986 0
    outer loop
      vertex -70.797 -115.173 -10
      vertex -70.3621 -115.353 -14.3
      vertex -70.797 -115.173 -14.3
    endloop
  endfacet
  facet normal -0.996919 -0.0784356 0
    outer loop
      vertex -66.435 -112.5 -14.3
      vertex -66.4719 -112.031 -10
      vertex -66.4719 -112.031 -14.3
    endloop
  endfacet
  facet normal -0.996919 -0.0784356 0
    outer loop
      vertex -66.4719 -112.031 -10
      vertex -66.435 -112.5 -14.3
      vertex -66.435 -112.5 -10
    endloop
  endfacet
  facet normal -0.0785969 0.996906 0
    outer loop
      vertex -68.9657 -115.463 -14.3
      vertex -69.435 -115.5 -10
      vertex -68.9657 -115.463 -10
    endloop
  endfacet
  facet normal -0.0785969 0.996906 0
    outer loop
      vertex -69.435 -115.5 -10
      vertex -68.9657 -115.463 -14.3
      vertex -69.435 -115.5 -14.3
    endloop
  endfacet
  facet normal 0.760365 -0.649496 0
    outer loop
      vertex -71.8621 -110.737 -10
      vertex -71.5563 -110.379 -14.3
      vertex -71.5563 -110.379 -10
    endloop
  endfacet
  facet normal 0.760365 -0.649496 0
    outer loop
      vertex -71.5563 -110.379 -14.3
      vertex -71.8621 -110.737 -10
      vertex -71.8621 -110.737 -14.3
    endloop
  endfacet
  facet normal -0.649846 0.760066 0
    outer loop
      vertex -67.3137 -114.621 -14.3
      vertex -67.6716 -114.927 -10
      vertex -67.3137 -114.621 -10
    endloop
  endfacet
  facet normal -0.649846 0.760066 0
    outer loop
      vertex -67.6716 -114.927 -10
      vertex -67.3137 -114.621 -14.3
      vertex -67.6716 -114.927 -14.3
    endloop
  endfacet
  facet normal -0.923867 -0.382714 0
    outer loop
      vertex -66.5818 -111.573 -14.3
      vertex -66.762 -111.138 -10
      vertex -66.762 -111.138 -14.3
    endloop
  endfacet
  facet normal -0.923867 -0.382714 0
    outer loop
      vertex -66.762 -111.138 -10
      vertex -66.5818 -111.573 -14.3
      vertex -66.5818 -111.573 -10
    endloop
  endfacet
  facet normal -0.382427 -0.923986 0
    outer loop
      vertex -68.5079 -109.647 -14.3
      vertex -68.073 -109.827 -10
      vertex -68.5079 -109.647 -10
    endloop
  endfacet
  facet normal -0.382427 -0.923986 -0
    outer loop
      vertex -68.073 -109.827 -10
      vertex -68.5079 -109.647 -14.3
      vertex -68.073 -109.827 -14.3
    endloop
  endfacet
  facet normal 0.0785969 -0.996906 0
    outer loop
      vertex -69.9043 -109.537 -14.3
      vertex -69.435 -109.5 -10
      vertex -69.9043 -109.537 -10
    endloop
  endfacet
  facet normal 0.0785969 -0.996906 0
    outer loop
      vertex -69.435 -109.5 -10
      vertex -69.9043 -109.537 -14.3
      vertex -69.435 -109.5 -14.3
    endloop
  endfacet
  facet normal 0.522532 0.85262 -0
    outer loop
      vertex -70.797 -115.173 -14.3
      vertex -71.1984 -114.927 -10
      vertex -70.797 -115.173 -10
    endloop
  endfacet
  facet normal 0.522532 0.85262 0
    outer loop
      vertex -71.1984 -114.927 -10
      vertex -70.797 -115.173 -14.3
      vertex -71.1984 -114.927 -14.3
    endloop
  endfacet
  facet normal 0.923867 0.382714 0
    outer loop
      vertex -72.108 -113.862 -10
      vertex -72.2882 -113.427 -14.3
      vertex -72.2882 -113.427 -10
    endloop
  endfacet
  facet normal 0.923867 0.382714 0
    outer loop
      vertex -72.2882 -113.427 -14.3
      vertex -72.108 -113.862 -10
      vertex -72.108 -113.862 -14.3
    endloop
  endfacet
  facet normal 0.382427 -0.923986 0
    outer loop
      vertex -70.797 -109.827 -14.3
      vertex -70.3621 -109.647 -10
      vertex -70.797 -109.827 -10
    endloop
  endfacet
  facet normal 0.382427 -0.923986 0
    outer loop
      vertex -70.3621 -109.647 -10
      vertex -70.797 -109.827 -14.3
      vertex -70.3621 -109.647 -14.3
    endloop
  endfacet
  facet normal -0.923867 0.382714 0
    outer loop
      vertex -66.762 -113.862 -14.3
      vertex -66.5818 -113.427 -10
      vertex -66.5818 -113.427 -14.3
    endloop
  endfacet
  facet normal -0.923867 0.382714 0
    outer loop
      vertex -66.5818 -113.427 -10
      vertex -66.762 -113.862 -14.3
      vertex -66.762 -113.862 -10
    endloop
  endfacet
  facet normal -0.649846 -0.760066 0
    outer loop
      vertex -67.6716 -110.073 -14.3
      vertex -67.3137 -110.379 -10
      vertex -67.6716 -110.073 -10
    endloop
  endfacet
  facet normal -0.649846 -0.760066 -0
    outer loop
      vertex -67.3137 -110.379 -10
      vertex -67.6716 -110.073 -14.3
      vertex -67.3137 -110.379 -14.3
    endloop
  endfacet
  facet normal 0.972397 0.233333 0
    outer loop
      vertex -72.2882 -113.427 -10
      vertex -72.3981 -112.969 -14.3
      vertex -72.3981 -112.969 -10
    endloop
  endfacet
  facet normal 0.972397 0.233333 0
    outer loop
      vertex -72.3981 -112.969 -14.3
      vertex -72.2882 -113.427 -10
      vertex -72.2882 -113.427 -14.3
    endloop
  endfacet
  facet normal -0.996919 0.0784356 0
    outer loop
      vertex -66.4719 -112.969 -14.3
      vertex -66.435 -112.5 -10
      vertex -66.435 -112.5 -14.3
    endloop
  endfacet
  facet normal -0.996919 0.0784356 0
    outer loop
      vertex -66.435 -112.5 -10
      vertex -66.4719 -112.969 -14.3
      vertex -66.4719 -112.969 -10
    endloop
  endfacet
  facet normal 0.923867 -0.382714 0
    outer loop
      vertex -72.2882 -111.573 -10
      vertex -72.108 -111.138 -14.3
      vertex -72.108 -111.138 -10
    endloop
  endfacet
  facet normal 0.923867 -0.382714 0
    outer loop
      vertex -72.108 -111.138 -14.3
      vertex -72.2882 -111.573 -10
      vertex -72.2882 -111.573 -14.3
    endloop
  endfacet
  facet normal 0.649846 0.760066 -0
    outer loop
      vertex -71.1984 -114.927 -14.3
      vertex -71.5563 -114.621 -10
      vertex -71.1984 -114.927 -10
    endloop
  endfacet
  facet normal 0.649846 0.760066 0
    outer loop
      vertex -71.5563 -114.621 -10
      vertex -71.1984 -114.927 -14.3
      vertex -71.5563 -114.621 -14.3
    endloop
  endfacet
  facet normal -0.382427 0.923986 0
    outer loop
      vertex -68.073 -115.173 -14.3
      vertex -68.5079 -115.353 -10
      vertex -68.073 -115.173 -10
    endloop
  endfacet
  facet normal -0.382427 0.923986 0
    outer loop
      vertex -68.5079 -115.353 -10
      vertex -68.073 -115.173 -14.3
      vertex -68.5079 -115.353 -14.3
    endloop
  endfacet
  facet normal 0.996919 0.0784356 0
    outer loop
      vertex -72.3981 -112.969 -10
      vertex -72.435 -112.5 -14.3
      vertex -72.435 -112.5 -10
    endloop
  endfacet
  facet normal 0.996919 0.0784356 0
    outer loop
      vertex -72.435 -112.5 -14.3
      vertex -72.3981 -112.969 -10
      vertex -72.3981 -112.969 -14.3
    endloop
  endfacet
  facet normal -0.852482 -0.522756 0
    outer loop
      vertex -66.762 -111.138 -14.3
      vertex -67.0079 -110.737 -10
      vertex -67.0079 -110.737 -14.3
    endloop
  endfacet
  facet normal -0.852482 -0.522756 0
    outer loop
      vertex -67.0079 -110.737 -10
      vertex -66.762 -111.138 -14.3
      vertex -66.762 -111.138 -10
    endloop
  endfacet
  facet normal -0.522532 -0.85262 0
    outer loop
      vertex -68.073 -109.827 -14.3
      vertex -67.6716 -110.073 -10
      vertex -68.073 -109.827 -10
    endloop
  endfacet
  facet normal -0.522532 -0.85262 -0
    outer loop
      vertex -67.6716 -110.073 -10
      vertex -68.073 -109.827 -14.3
      vertex -67.6716 -110.073 -14.3
    endloop
  endfacet
  facet normal 0.23363 -0.972326 0
    outer loop
      vertex -70.3621 -109.647 -14.3
      vertex -69.9043 -109.537 -10
      vertex -70.3621 -109.647 -10
    endloop
  endfacet
  facet normal 0.23363 -0.972326 0
    outer loop
      vertex -69.9043 -109.537 -10
      vertex -70.3621 -109.647 -14.3
      vertex -69.9043 -109.537 -14.3
    endloop
  endfacet
  facet normal 0.23363 0.972326 -0
    outer loop
      vertex -69.9043 -115.463 -14.3
      vertex -70.3621 -115.353 -10
      vertex -69.9043 -115.463 -10
    endloop
  endfacet
  facet normal 0.23363 0.972326 0
    outer loop
      vertex -70.3621 -115.353 -10
      vertex -69.9043 -115.463 -14.3
      vertex -70.3621 -115.353 -14.3
    endloop
  endfacet
  facet normal 0.522532 -0.85262 0
    outer loop
      vertex -71.1984 -110.073 -14.3
      vertex -70.797 -109.827 -10
      vertex -71.1984 -110.073 -10
    endloop
  endfacet
  facet normal 0.522532 -0.85262 0
    outer loop
      vertex -70.797 -109.827 -10
      vertex -71.1984 -110.073 -14.3
      vertex -70.797 -109.827 -14.3
    endloop
  endfacet
  facet normal 0.852482 0.522756 0
    outer loop
      vertex -71.8621 -114.263 -10
      vertex -72.108 -113.862 -14.3
      vertex -72.108 -113.862 -10
    endloop
  endfacet
  facet normal 0.852482 0.522756 0
    outer loop
      vertex -72.108 -113.862 -14.3
      vertex -71.8621 -114.263 -10
      vertex -71.8621 -114.263 -14.3
    endloop
  endfacet
  facet normal 0.760365 0.649496 0
    outer loop
      vertex -71.5563 -114.621 -10
      vertex -71.8621 -114.263 -14.3
      vertex -71.8621 -114.263 -10
    endloop
  endfacet
  facet normal 0.760365 0.649496 0
    outer loop
      vertex -71.8621 -114.263 -14.3
      vertex -71.5563 -114.621 -10
      vertex -71.5563 -114.621 -14.3
    endloop
  endfacet
  facet normal -0.23363 0.972326 0
    outer loop
      vertex -68.5079 -115.353 -14.3
      vertex -68.9657 -115.463 -10
      vertex -68.5079 -115.353 -10
    endloop
  endfacet
  facet normal -0.23363 0.972326 0
    outer loop
      vertex -68.9657 -115.463 -10
      vertex -68.5079 -115.353 -14.3
      vertex -68.9657 -115.463 -14.3
    endloop
  endfacet
  facet normal -0.0785969 -0.996906 0
    outer loop
      vertex -69.435 -109.5 -14.3
      vertex -68.9657 -109.537 -10
      vertex -69.435 -109.5 -10
    endloop
  endfacet
  facet normal -0.0785969 -0.996906 -0
    outer loop
      vertex -68.9657 -109.537 -10
      vertex -69.435 -109.5 -14.3
      vertex -68.9657 -109.537 -14.3
    endloop
  endfacet
  facet normal -0.522532 0.85262 0
    outer loop
      vertex -67.6716 -114.927 -14.3
      vertex -68.073 -115.173 -10
      vertex -67.6716 -114.927 -10
    endloop
  endfacet
  facet normal -0.522532 0.85262 0
    outer loop
      vertex -68.073 -115.173 -10
      vertex -67.6716 -114.927 -14.3
      vertex -68.073 -115.173 -14.3
    endloop
  endfacet
  facet normal -0.972397 0.233333 0
    outer loop
      vertex -66.5818 -113.427 -14.3
      vertex -66.4719 -112.969 -10
      vertex -66.4719 -112.969 -14.3
    endloop
  endfacet
  facet normal -0.972397 0.233333 0
    outer loop
      vertex -66.4719 -112.969 -10
      vertex -66.5818 -113.427 -14.3
      vertex -66.5818 -113.427 -10
    endloop
  endfacet
  facet normal 0.996919 -0.0784356 0
    outer loop
      vertex -72.435 -112.5 -10
      vertex -72.3981 -112.031 -14.3
      vertex -72.3981 -112.031 -10
    endloop
  endfacet
  facet normal 0.996919 -0.0784356 0
    outer loop
      vertex -72.3981 -112.031 -14.3
      vertex -72.435 -112.5 -10
      vertex -72.435 -112.5 -14.3
    endloop
  endfacet
  facet normal 0.852482 -0.522756 0
    outer loop
      vertex -72.108 -111.138 -10
      vertex -71.8621 -110.737 -14.3
      vertex -71.8621 -110.737 -10
    endloop
  endfacet
  facet normal 0.852482 -0.522756 0
    outer loop
      vertex -71.8621 -110.737 -14.3
      vertex -72.108 -111.138 -10
      vertex -72.108 -111.138 -14.3
    endloop
  endfacet
  facet normal -0.760365 -0.649496 0
    outer loop
      vertex -67.0079 -110.737 -14.3
      vertex -67.3137 -110.379 -10
      vertex -67.3137 -110.379 -14.3
    endloop
  endfacet
  facet normal -0.760365 -0.649496 0
    outer loop
      vertex -67.3137 -110.379 -10
      vertex -67.0079 -110.737 -14.3
      vertex -67.0079 -110.737 -10
    endloop
  endfacet
  facet normal 0.972397 -0.233333 0
    outer loop
      vertex -72.3981 -112.031 -10
      vertex -72.2882 -111.573 -14.3
      vertex -72.2882 -111.573 -10
    endloop
  endfacet
  facet normal 0.972397 -0.233333 0
    outer loop
      vertex -72.2882 -111.573 -14.3
      vertex -72.3981 -112.031 -10
      vertex -72.3981 -112.031 -14.3
    endloop
  endfacet
  facet normal -0.760365 0.649496 0
    outer loop
      vertex -67.3137 -114.621 -14.3
      vertex -67.0079 -114.263 -10
      vertex -67.0079 -114.263 -14.3
    endloop
  endfacet
  facet normal -0.760365 0.649496 0
    outer loop
      vertex -67.0079 -114.263 -10
      vertex -67.3137 -114.621 -14.3
      vertex -67.3137 -114.621 -10
    endloop
  endfacet
  facet normal -0.649478 0.76038 0
    outer loop
      vertex -65.758 -116.177 -18
      vertex -66.3785 -116.707 -14.5
      vertex -65.758 -116.177 -14.5
    endloop
  endfacet
  facet normal -0.649478 0.76038 0
    outer loop
      vertex -66.3785 -116.707 -14.5
      vertex -65.758 -116.177 -18
      vertex -66.3785 -116.707 -18
    endloop
  endfacet
  facet normal 0.923887 0.382666 0
    outer loop
      vertex -74.0682 -114.861 -14.5
      vertex -74.3805 -114.107 -18
      vertex -74.3805 -114.107 -14.5
    endloop
  endfacet
  facet normal 0.923887 0.382666 0
    outer loop
      vertex -74.3805 -114.107 -18
      vertex -74.0682 -114.861 -14.5
      vertex -74.0682 -114.861 -18
    endloop
  endfacet
  facet normal 0.996916 -0.078478 0
    outer loop
      vertex -74.635 -112.5 -14.5
      vertex -74.571 -111.687 -18
      vertex -74.571 -111.687 -14.5
    endloop
  endfacet
  facet normal 0.996916 -0.078478 0
    outer loop
      vertex -74.571 -111.687 -18
      vertex -74.635 -112.5 -14.5
      vertex -74.635 -112.5 -18
    endloop
  endfacet
  facet normal -0.972404 -0.233303 0
    outer loop
      vertex -64.299 -111.687 -18
      vertex -64.4895 -110.893 -14.5
      vertex -64.4895 -110.893 -18
    endloop
  endfacet
  facet normal -0.972404 -0.233303 0
    outer loop
      vertex -64.4895 -110.893 -14.5
      vertex -64.299 -111.687 -18
      vertex -64.299 -111.687 -14.5
    endloop
  endfacet
  facet normal -0.23405 0.972225 0
    outer loop
      vertex -67.8281 -117.445 -18
      vertex -68.6215 -117.636 -14.5
      vertex -67.8281 -117.445 -14.5
    endloop
  endfacet
  facet normal -0.23405 0.972225 0
    outer loop
      vertex -68.6215 -117.636 -14.5
      vertex -67.8281 -117.445 -18
      vertex -68.6215 -117.636 -18
    endloop
  endfacet
  facet normal -0.760699 -0.649105 0
    outer loop
      vertex -65.2281 -109.444 -18
      vertex -65.758 -108.823 -14.5
      vertex -65.758 -108.823 -18
    endloop
  endfacet
  facet normal -0.760699 -0.649105 0
    outer loop
      vertex -65.758 -108.823 -14.5
      vertex -65.2281 -109.444 -18
      vertex -65.2281 -109.444 -14.5
    endloop
  endfacet
  facet normal -0.760699 0.649105 0
    outer loop
      vertex -65.758 -116.177 -18
      vertex -65.2281 -115.556 -14.5
      vertex -65.2281 -115.556 -18
    endloop
  endfacet
  facet normal -0.760699 0.649105 0
    outer loop
      vertex -65.2281 -115.556 -14.5
      vertex -65.758 -116.177 -18
      vertex -65.758 -116.177 -14.5
    endloop
  endfacet
  facet normal 0.649478 -0.76038 0
    outer loop
      vertex -73.112 -108.823 -18
      vertex -72.4915 -108.293 -14.5
      vertex -73.112 -108.823 -14.5
    endloop
  endfacet
  facet normal 0.649478 -0.76038 0
    outer loop
      vertex -72.4915 -108.293 -14.5
      vertex -73.112 -108.823 -18
      vertex -72.4915 -108.293 -18
    endloop
  endfacet
  facet normal -0.0784301 0.99692 0
    outer loop
      vertex -68.6215 -117.636 -18
      vertex -69.435 -117.7 -14.5
      vertex -68.6215 -117.636 -14.5
    endloop
  endfacet
  facet normal -0.0784301 0.99692 0
    outer loop
      vertex -69.435 -117.7 -14.5
      vertex -68.6215 -117.636 -18
      vertex -69.435 -117.7 -18
    endloop
  endfacet
  facet normal 0.996916 0.078478 0
    outer loop
      vertex -74.571 -113.313 -14.5
      vertex -74.635 -112.5 -18
      vertex -74.635 -112.5 -14.5
    endloop
  endfacet
  facet normal 0.996916 0.078478 0
    outer loop
      vertex -74.635 -112.5 -18
      vertex -74.571 -113.313 -14.5
      vertex -74.571 -113.313 -18
    endloop
  endfacet
  facet normal -0.382395 -0.923999 0
    outer loop
      vertex -67.8281 -107.555 -18
      vertex -67.0742 -107.867 -14.5
      vertex -67.8281 -107.555 -14.5
    endloop
  endfacet
  facet normal -0.382395 -0.923999 -0
    outer loop
      vertex -67.0742 -107.867 -14.5
      vertex -67.8281 -107.555 -18
      vertex -67.0742 -107.867 -18
    endloop
  endfacet
  facet normal -0.996916 -0.078478 0
    outer loop
      vertex -64.235 -112.5 -18
      vertex -64.299 -111.687 -14.5
      vertex -64.299 -111.687 -18
    endloop
  endfacet
  facet normal -0.996916 -0.078478 0
    outer loop
      vertex -64.299 -111.687 -14.5
      vertex -64.235 -112.5 -18
      vertex -64.235 -112.5 -14.5
    endloop
  endfacet
  facet normal 0.85242 0.522858 0
    outer loop
      vertex -73.6419 -115.556 -14.5
      vertex -74.0682 -114.861 -18
      vertex -74.0682 -114.861 -14.5
    endloop
  endfacet
  facet normal 0.85242 0.522858 0
    outer loop
      vertex -74.0682 -114.861 -18
      vertex -73.6419 -115.556 -14.5
      vertex -73.6419 -115.556 -18
    endloop
  endfacet
  facet normal 0.972404 0.233303 0
    outer loop
      vertex -74.3805 -114.107 -14.5
      vertex -74.571 -113.313 -18
      vertex -74.571 -113.313 -14.5
    endloop
  endfacet
  facet normal 0.972404 0.233303 0
    outer loop
      vertex -74.571 -113.313 -18
      vertex -74.3805 -114.107 -14.5
      vertex -74.3805 -114.107 -18
    endloop
  endfacet
  facet normal -0.522208 -0.852818 0
    outer loop
      vertex -67.0742 -107.867 -18
      vertex -66.3785 -108.293 -14.5
      vertex -67.0742 -107.867 -14.5
    endloop
  endfacet
  facet normal -0.522208 -0.852818 -0
    outer loop
      vertex -66.3785 -108.293 -14.5
      vertex -67.0742 -107.867 -18
      vertex -66.3785 -108.293 -18
    endloop
  endfacet
  facet normal 0.0784301 -0.99692 0
    outer loop
      vertex -70.2485 -107.364 -18
      vertex -69.435 -107.3 -14.5
      vertex -70.2485 -107.364 -14.5
    endloop
  endfacet
  facet normal 0.0784301 -0.99692 0
    outer loop
      vertex -69.435 -107.3 -14.5
      vertex -70.2485 -107.364 -18
      vertex -69.435 -107.3 -18
    endloop
  endfacet
  facet normal -0.923887 -0.382666 0
    outer loop
      vertex -64.4895 -110.893 -18
      vertex -64.8018 -110.139 -14.5
      vertex -64.8018 -110.139 -18
    endloop
  endfacet
  facet normal -0.923887 -0.382666 0
    outer loop
      vertex -64.8018 -110.139 -14.5
      vertex -64.4895 -110.893 -18
      vertex -64.4895 -110.893 -14.5
    endloop
  endfacet
  facet normal -0.85242 0.522858 0
    outer loop
      vertex -65.2281 -115.556 -18
      vertex -64.8018 -114.861 -14.5
      vertex -64.8018 -114.861 -18
    endloop
  endfacet
  facet normal -0.85242 0.522858 0
    outer loop
      vertex -64.8018 -114.861 -14.5
      vertex -65.2281 -115.556 -18
      vertex -65.2281 -115.556 -14.5
    endloop
  endfacet
  facet normal 0.382395 -0.923999 0
    outer loop
      vertex -71.7958 -107.867 -18
      vertex -71.0419 -107.555 -14.5
      vertex -71.7958 -107.867 -14.5
    endloop
  endfacet
  facet normal 0.382395 -0.923999 0
    outer loop
      vertex -71.0419 -107.555 -14.5
      vertex -71.7958 -107.867 -18
      vertex -71.0419 -107.555 -18
    endloop
  endfacet
  facet normal 0.522208 -0.852818 0
    outer loop
      vertex -72.4915 -108.293 -18
      vertex -71.7958 -107.867 -14.5
      vertex -72.4915 -108.293 -14.5
    endloop
  endfacet
  facet normal 0.522208 -0.852818 0
    outer loop
      vertex -71.7958 -107.867 -14.5
      vertex -72.4915 -108.293 -18
      vertex -71.7958 -107.867 -18
    endloop
  endfacet
  facet normal -0.23405 -0.972225 0
    outer loop
      vertex -68.6215 -107.364 -18
      vertex -67.8281 -107.555 -14.5
      vertex -68.6215 -107.364 -14.5
    endloop
  endfacet
  facet normal -0.23405 -0.972225 -0
    outer loop
      vertex -67.8281 -107.555 -14.5
      vertex -68.6215 -107.364 -18
      vertex -67.8281 -107.555 -18
    endloop
  endfacet
  facet normal 0.23405 0.972225 -0
    outer loop
      vertex -70.2485 -117.636 -18
      vertex -71.0419 -117.445 -14.5
      vertex -70.2485 -117.636 -14.5
    endloop
  endfacet
  facet normal 0.23405 0.972225 0
    outer loop
      vertex -71.0419 -117.445 -14.5
      vertex -70.2485 -117.636 -18
      vertex -71.0419 -117.445 -18
    endloop
  endfacet
  facet normal 0.649478 0.76038 -0
    outer loop
      vertex -72.4915 -116.707 -18
      vertex -73.112 -116.177 -14.5
      vertex -72.4915 -116.707 -14.5
    endloop
  endfacet
  facet normal 0.649478 0.76038 0
    outer loop
      vertex -73.112 -116.177 -14.5
      vertex -72.4915 -116.707 -18
      vertex -73.112 -116.177 -18
    endloop
  endfacet
  facet normal -0.85242 -0.522858 0
    outer loop
      vertex -64.8018 -110.139 -18
      vertex -65.2281 -109.444 -14.5
      vertex -65.2281 -109.444 -18
    endloop
  endfacet
  facet normal -0.85242 -0.522858 0
    outer loop
      vertex -65.2281 -109.444 -14.5
      vertex -64.8018 -110.139 -18
      vertex -64.8018 -110.139 -14.5
    endloop
  endfacet
  facet normal -0.649478 -0.76038 0
    outer loop
      vertex -66.3785 -108.293 -18
      vertex -65.758 -108.823 -14.5
      vertex -66.3785 -108.293 -14.5
    endloop
  endfacet
  facet normal -0.649478 -0.76038 -0
    outer loop
      vertex -65.758 -108.823 -14.5
      vertex -66.3785 -108.293 -18
      vertex -65.758 -108.823 -18
    endloop
  endfacet
  facet normal 0 0 -1
    outer loop
      vertex -64.299 -113.313 -14.5
      vertex -64.299 -111.687 -14.5
      vertex -64.235 -112.5 -14.5
    endloop
  endfacet
  facet normal 0 0 -1
    outer loop
      vertex -64.4895 -114.107 -14.5
      vertex -64.299 -111.687 -14.5
      vertex -64.299 -113.313 -14.5
    endloop
  endfacet
  facet normal 0 0 -1
    outer loop
      vertex -64.4895 -114.107 -14.5
      vertex -64.4895 -110.893 -14.5
      vertex -64.299 -111.687 -14.5
    endloop
  endfacet
  facet normal 0 0 -1
    outer loop
      vertex -64.8018 -114.861 -14.5
      vertex -64.4895 -110.893 -14.5
      vertex -64.4895 -114.107 -14.5
    endloop
  endfacet
  facet normal 0 0 -1
    outer loop
      vertex -64.8018 -114.861 -14.5
      vertex -64.8018 -110.139 -14.5
      vertex -64.4895 -110.893 -14.5
    endloop
  endfacet
  facet normal 0 0 -1
    outer loop
      vertex -65.2281 -115.556 -14.5
      vertex -64.8018 -110.139 -14.5
      vertex -64.8018 -114.861 -14.5
    endloop
  endfacet
  facet normal 0 0 -1
    outer loop
      vertex -65.2281 -115.556 -14.5
      vertex -65.2281 -109.444 -14.5
      vertex -64.8018 -110.139 -14.5
    endloop
  endfacet
  facet normal 0 0 -1
    outer loop
      vertex -65.758 -116.177 -14.5
      vertex -65.2281 -109.444 -14.5
      vertex -65.2281 -115.556 -14.5
    endloop
  endfacet
  facet normal 0 0 -1
    outer loop
      vertex -65.758 -116.177 -14.5
      vertex -65.758 -108.823 -14.5
      vertex -65.2281 -109.444 -14.5
    endloop
  endfacet
  facet normal 0 0 -1
    outer loop
      vertex -66.3785 -116.707 -14.5
      vertex -65.758 -108.823 -14.5
      vertex -65.758 -116.177 -14.5
    endloop
  endfacet
  facet normal 0 0 -1
    outer loop
      vertex -66.3785 -116.707 -14.5
      vertex -66.3785 -108.293 -14.5
      vertex -65.758 -108.823 -14.5
    endloop
  endfacet
  facet normal 0 0 -1
    outer loop
      vertex -67.0742 -117.133 -14.5
      vertex -66.3785 -108.293 -14.5
      vertex -66.3785 -116.707 -14.5
    endloop
  endfacet
  facet normal 0 0 -1
    outer loop
      vertex -67.0742 -117.133 -14.5
      vertex -67.0742 -107.867 -14.5
      vertex -66.3785 -108.293 -14.5
    endloop
  endfacet
  facet normal 0 0 -1
    outer loop
      vertex -67.8281 -117.445 -14.5
      vertex -67.0742 -107.867 -14.5
      vertex -67.0742 -117.133 -14.5
    endloop
  endfacet
  facet normal 0 0 -1
    outer loop
      vertex -67.8281 -117.445 -14.5
      vertex -67.8281 -107.555 -14.5
      vertex -67.0742 -107.867 -14.5
    endloop
  endfacet
  facet normal 0 0 -1
    outer loop
      vertex -68.6215 -117.636 -14.5
      vertex -67.8281 -107.555 -14.5
      vertex -67.8281 -117.445 -14.5
    endloop
  endfacet
  facet normal 0 0 -1
    outer loop
      vertex -68.6215 -117.636 -14.5
      vertex -68.6215 -107.364 -14.5
      vertex -67.8281 -107.555 -14.5
    endloop
  endfacet
  facet normal 0 0 -1
    outer loop
      vertex -69.435 -117.7 -14.5
      vertex -68.6215 -107.364 -14.5
      vertex -68.6215 -117.636 -14.5
    endloop
  endfacet
  facet normal 0 0 -1
    outer loop
      vertex -69.435 -117.7 -14.5
      vertex -69.435 -107.3 -14.5
      vertex -68.6215 -107.364 -14.5
    endloop
  endfacet
  facet normal 0 0 -1
    outer loop
      vertex -70.2485 -117.636 -14.5
      vertex -69.435 -107.3 -14.5
      vertex -69.435 -117.7 -14.5
    endloop
  endfacet
  facet normal 0 0 -1
    outer loop
      vertex -70.2485 -117.636 -14.5
      vertex -70.2485 -107.364 -14.5
      vertex -69.435 -107.3 -14.5
    endloop
  endfacet
  facet normal 0 0 -1
    outer loop
      vertex -71.0419 -117.445 -14.5
      vertex -70.2485 -107.364 -14.5
      vertex -70.2485 -117.636 -14.5
    endloop
  endfacet
  facet normal 0 0 -1
    outer loop
      vertex -71.0419 -117.445 -14.5
      vertex -71.0419 -107.555 -14.5
      vertex -70.2485 -107.364 -14.5
    endloop
  endfacet
  facet normal 0 0 -1
    outer loop
      vertex -71.7958 -117.133 -14.5
      vertex -71.0419 -107.555 -14.5
      vertex -71.0419 -117.445 -14.5
    endloop
  endfacet
  facet normal 0 0 -1
    outer loop
      vertex -71.7958 -117.133 -14.5
      vertex -71.7958 -107.867 -14.5
      vertex -71.0419 -107.555 -14.5
    endloop
  endfacet
  facet normal 0 0 -1
    outer loop
      vertex -72.4915 -116.707 -14.5
      vertex -71.7958 -107.867 -14.5
      vertex -71.7958 -117.133 -14.5
    endloop
  endfacet
  facet normal 0 0 -1
    outer loop
      vertex -72.4915 -116.707 -14.5
      vertex -72.4915 -108.293 -14.5
      vertex -71.7958 -107.867 -14.5
    endloop
  endfacet
  facet normal 0 0 -1
    outer loop
      vertex -73.112 -116.177 -14.5
      vertex -72.4915 -108.293 -14.5
      vertex -72.4915 -116.707 -14.5
    endloop
  endfacet
  facet normal 0 0 -1
    outer loop
      vertex -73.112 -116.177 -14.5
      vertex -73.112 -108.823 -14.5
      vertex -72.4915 -108.293 -14.5
    endloop
  endfacet
  facet normal 0 0 -1
    outer loop
      vertex -73.6419 -115.556 -14.5
      vertex -73.112 -108.823 -14.5
      vertex -73.112 -116.177 -14.5
    endloop
  endfacet
  facet normal 0 0 -1
    outer loop
      vertex -73.6419 -115.556 -14.5
      vertex -73.6419 -109.444 -14.5
      vertex -73.112 -108.823 -14.5
    endloop
  endfacet
  facet normal 0 0 -1
    outer loop
      vertex -74.0682 -114.861 -14.5
      vertex -73.6419 -109.444 -14.5
      vertex -73.6419 -115.556 -14.5
    endloop
  endfacet
  facet normal 0 0 -1
    outer loop
      vertex -74.0682 -114.861 -14.5
      vertex -74.0682 -110.139 -14.5
      vertex -73.6419 -109.444 -14.5
    endloop
  endfacet
  facet normal 0 0 -1
    outer loop
      vertex -74.3805 -114.107 -14.5
      vertex -74.0682 -110.139 -14.5
      vertex -74.0682 -114.861 -14.5
    endloop
  endfacet
  facet normal 0 0 -1
    outer loop
      vertex -74.3805 -114.107 -14.5
      vertex -74.3805 -110.893 -14.5
      vertex -74.0682 -110.139 -14.5
    endloop
  endfacet
  facet normal 0 0 -1
    outer loop
      vertex -74.571 -113.313 -14.5
      vertex -74.3805 -110.893 -14.5
      vertex -74.3805 -114.107 -14.5
    endloop
  endfacet
  facet normal 0 0 -1
    outer loop
      vertex -74.571 -113.313 -14.5
      vertex -74.571 -111.687 -14.5
      vertex -74.3805 -110.893 -14.5
    endloop
  endfacet
  facet normal 0 -0 -1
    outer loop
      vertex -74.571 -111.687 -14.5
      vertex -74.571 -113.313 -14.5
      vertex -74.635 -112.5 -14.5
    endloop
  endfacet
  facet normal 0.972404 -0.233303 0
    outer loop
      vertex -74.571 -111.687 -14.5
      vertex -74.3805 -110.893 -18
      vertex -74.3805 -110.893 -14.5
    endloop
  endfacet
  facet normal 0.972404 -0.233303 0
    outer loop
      vertex -74.3805 -110.893 -18
      vertex -74.571 -111.687 -14.5
      vertex -74.571 -111.687 -18
    endloop
  endfacet
  facet normal 0.760699 -0.649105 0
    outer loop
      vertex -73.6419 -109.444 -14.5
      vertex -73.112 -108.823 -18
      vertex -73.112 -108.823 -14.5
    endloop
  endfacet
  facet normal 0.760699 -0.649105 0
    outer loop
      vertex -73.112 -108.823 -18
      vertex -73.6419 -109.444 -14.5
      vertex -73.6419 -109.444 -18
    endloop
  endfacet
  facet normal 0.238673 -0.9711 0
    outer loop
      vertex -70.9117 -107.523 -18
      vertex -71.0419 -107.555 -14.5
      vertex -71.0419 -107.555 -18
    endloop
  endfacet
  facet normal 0.23405 -0.972225 -0.000182268
    outer loop
      vertex -71.0419 -107.555 -14.5
      vertex -70.9117 -107.523 -18
      vertex -70.2485 -107.364 -14.5
    endloop
  endfacet
  facet normal 0.23314 -0.972443 0
    outer loop
      vertex -70.2485 -107.364 -14.5
      vertex -70.9117 -107.523 -18
      vertex -70.2485 -107.364 -18
    endloop
  endfacet
  facet normal -0.382395 0.923999 0
    outer loop
      vertex -67.0742 -117.133 -14.5
      vertex -67.8281 -117.445 -18
      vertex -67.8281 -117.445 -14.5
    endloop
  endfacet
  facet normal -0.382395 0.923999 0
    outer loop
      vertex -67.8281 -117.445 -18
      vertex -67.0742 -117.133 -14.5
      vertex -67.0742 -117.133 -18
    endloop
  endfacet
  facet normal 0.760699 0.649105 0
    outer loop
      vertex -73.112 -116.177 -14.5
      vertex -73.6419 -115.556 -18
      vertex -73.6419 -115.556 -14.5
    endloop
  endfacet
  facet normal 0.760699 0.649105 0
    outer loop
      vertex -73.6419 -115.556 -18
      vertex -73.112 -116.177 -14.5
      vertex -73.112 -116.177 -18
    endloop
  endfacet
  facet normal -0.996916 0.078478 0
    outer loop
      vertex -64.299 -113.313 -18
      vertex -64.235 -112.5 -14.5
      vertex -64.235 -112.5 -18
    endloop
  endfacet
  facet normal -0.996916 0.078478 0
    outer loop
      vertex -64.235 -112.5 -14.5
      vertex -64.299 -113.313 -18
      vertex -64.299 -113.313 -14.5
    endloop
  endfacet
  facet normal 0.85242 -0.522858 0
    outer loop
      vertex -74.0682 -110.139 -14.5
      vertex -73.6419 -109.444 -18
      vertex -73.6419 -109.444 -14.5
    endloop
  endfacet
  facet normal 0.85242 -0.522858 0
    outer loop
      vertex -73.6419 -109.444 -18
      vertex -74.0682 -110.139 -14.5
      vertex -74.0682 -110.139 -18
    endloop
  endfacet
  facet normal -0.972407 0.23329 0
    outer loop
      vertex -64.4583 -113.977 -18
      vertex -64.299 -113.313 -14.5
      vertex -64.299 -113.313 -18
    endloop
  endfacet
  facet normal -0.972387 0.233373 0
    outer loop
      vertex -64.4895 -114.107 -14.5
      vertex -64.4583 -113.977 -18
      vertex -64.4895 -114.107 -18
    endloop
  endfacet
  facet normal -0.972404 0.233303 -2.72931e-06
    outer loop
      vertex -64.4583 -113.977 -18
      vertex -64.4895 -114.107 -14.5
      vertex -64.299 -113.313 -14.5
    endloop
  endfacet
  facet normal 0.522208 0.852818 0
    outer loop
      vertex -71.7958 -117.133 -14.5
      vertex -72.4915 -116.707 -18
      vertex -72.4915 -116.707 -14.5
    endloop
  endfacet
  facet normal 0.522208 0.852818 0
    outer loop
      vertex -72.4915 -116.707 -18
      vertex -71.7958 -117.133 -14.5
      vertex -71.7958 -117.133 -18
    endloop
  endfacet
  facet normal -0.923887 0.382666 0
    outer loop
      vertex -64.8018 -114.861 -18
      vertex -64.4895 -114.107 -14.5
      vertex -64.4895 -114.107 -18
    endloop
  endfacet
  facet normal -0.923887 0.382666 0
    outer loop
      vertex -64.4895 -114.107 -14.5
      vertex -64.8018 -114.861 -18
      vertex -64.8018 -114.861 -14.5
    endloop
  endfacet
  facet normal -0.0784301 -0.99692 0
    outer loop
      vertex -69.435 -107.3 -18
      vertex -68.6215 -107.364 -14.5
      vertex -69.435 -107.3 -14.5
    endloop
  endfacet
  facet normal -0.0784301 -0.99692 -0
    outer loop
      vertex -68.6215 -107.364 -14.5
      vertex -69.435 -107.3 -18
      vertex -68.6215 -107.364 -18
    endloop
  endfacet
  facet normal 0.382395 0.923999 -0
    outer loop
      vertex -71.0419 -117.445 -18
      vertex -71.7958 -117.133 -14.5
      vertex -71.0419 -117.445 -14.5
    endloop
  endfacet
  facet normal 0.382395 0.923999 0
    outer loop
      vertex -71.7958 -117.133 -14.5
      vertex -71.0419 -117.445 -18
      vertex -71.7958 -117.133 -18
    endloop
  endfacet
  facet normal 0.923887 -0.382666 0
    outer loop
      vertex -74.3805 -110.893 -14.5
      vertex -74.0682 -110.139 -18
      vertex -74.0682 -110.139 -14.5
    endloop
  endfacet
  facet normal 0.923887 -0.382666 0
    outer loop
      vertex -74.0682 -110.139 -18
      vertex -74.3805 -110.893 -14.5
      vertex -74.3805 -110.893 -18
    endloop
  endfacet
  facet normal 0.0784301 0.99692 0
    outer loop
      vertex -69.435 -117.7 -14.5
      vertex -70.2485 -117.636 -18
      vertex -70.2485 -117.636 -14.5
    endloop
  endfacet
  facet normal 0.0784301 0.99692 0
    outer loop
      vertex -70.2485 -117.636 -18
      vertex -69.435 -117.7 -14.5
      vertex -69.435 -117.7 -18
    endloop
  endfacet
  facet normal -0.522208 0.852818 0
    outer loop
      vertex -66.3785 -116.707 -18
      vertex -67.0742 -117.133 -14.5
      vertex -66.3785 -116.707 -14.5
    endloop
  endfacet
  facet normal -0.522208 0.852818 0
    outer loop
      vertex -67.0742 -117.133 -14.5
      vertex -66.3785 -116.707 -18
      vertex -67.0742 -117.133 -18
    endloop
  endfacet
  facet normal 0 0 1
    outer loop
      vertex -66.4719 -112.031 -14.3
      vertex -66.4719 -112.969 -14.3
      vertex -66.435 -112.5 -14.3
    endloop
  endfacet
  facet normal 0 0 1
    outer loop
      vertex -66.5818 -111.573 -14.3
      vertex -66.4719 -112.969 -14.3
      vertex -66.4719 -112.031 -14.3
    endloop
  endfacet
  facet normal 0 0 1
    outer loop
      vertex -66.5818 -111.573 -14.3
      vertex -66.5818 -113.427 -14.3
      vertex -66.4719 -112.969 -14.3
    endloop
  endfacet
  facet normal 0 0 1
    outer loop
      vertex -66.762 -111.138 -14.3
      vertex -66.5818 -113.427 -14.3
      vertex -66.5818 -111.573 -14.3
    endloop
  endfacet
  facet normal 0 0 1
    outer loop
      vertex -66.762 -111.138 -14.3
      vertex -66.762 -113.862 -14.3
      vertex -66.5818 -113.427 -14.3
    endloop
  endfacet
  facet normal 0 0 1
    outer loop
      vertex -67.0079 -110.737 -14.3
      vertex -66.762 -113.862 -14.3
      vertex -66.762 -111.138 -14.3
    endloop
  endfacet
  facet normal 0 0 1
    outer loop
      vertex -67.0079 -110.737 -14.3
      vertex -67.0079 -114.263 -14.3
      vertex -66.762 -113.862 -14.3
    endloop
  endfacet
  facet normal 0 0 1
    outer loop
      vertex -67.3137 -110.379 -14.3
      vertex -67.0079 -114.263 -14.3
      vertex -67.0079 -110.737 -14.3
    endloop
  endfacet
  facet normal 0 0 1
    outer loop
      vertex -67.3137 -110.379 -14.3
      vertex -67.3137 -114.621 -14.3
      vertex -67.0079 -114.263 -14.3
    endloop
  endfacet
  facet normal 0 0 1
    outer loop
      vertex -67.6716 -110.073 -14.3
      vertex -67.3137 -114.621 -14.3
      vertex -67.3137 -110.379 -14.3
    endloop
  endfacet
  facet normal 0 0 1
    outer loop
      vertex -67.6716 -110.073 -14.3
      vertex -67.6716 -114.927 -14.3
      vertex -67.3137 -114.621 -14.3
    endloop
  endfacet
  facet normal 0 0 1
    outer loop
      vertex -68.073 -109.827 -14.3
      vertex -67.6716 -114.927 -14.3
      vertex -67.6716 -110.073 -14.3
    endloop
  endfacet
  facet normal 0 0 1
    outer loop
      vertex -68.073 -109.827 -14.3
      vertex -68.073 -115.173 -14.3
      vertex -67.6716 -114.927 -14.3
    endloop
  endfacet
  facet normal 0 0 1
    outer loop
      vertex -68.5079 -109.647 -14.3
      vertex -68.073 -115.173 -14.3
      vertex -68.073 -109.827 -14.3
    endloop
  endfacet
  facet normal 0 0 1
    outer loop
      vertex -68.5079 -109.647 -14.3
      vertex -68.5079 -115.353 -14.3
      vertex -68.073 -115.173 -14.3
    endloop
  endfacet
  facet normal 0 0 1
    outer loop
      vertex -68.9657 -109.537 -14.3
      vertex -68.5079 -115.353 -14.3
      vertex -68.5079 -109.647 -14.3
    endloop
  endfacet
  facet normal 0 0 1
    outer loop
      vertex -68.9657 -109.537 -14.3
      vertex -68.9657 -115.463 -14.3
      vertex -68.5079 -115.353 -14.3
    endloop
  endfacet
  facet normal 0 0 1
    outer loop
      vertex -69.435 -109.5 -14.3
      vertex -68.9657 -115.463 -14.3
      vertex -68.9657 -109.537 -14.3
    endloop
  endfacet
  facet normal 0 0 1
    outer loop
      vertex -69.435 -109.5 -14.3
      vertex -69.435 -115.5 -14.3
      vertex -68.9657 -115.463 -14.3
    endloop
  endfacet
  facet normal -0 0 1
    outer loop
      vertex -69.9043 -109.537 -14.3
      vertex -69.435 -115.5 -14.3
      vertex -69.435 -109.5 -14.3
    endloop
  endfacet
  facet normal 0 0 1
    outer loop
      vertex -69.9043 -109.537 -14.3
      vertex -69.9043 -115.463 -14.3
      vertex -69.435 -115.5 -14.3
    endloop
  endfacet
  facet normal -0 0 1
    outer loop
      vertex -70.3621 -109.647 -14.3
      vertex -69.9043 -115.463 -14.3
      vertex -69.9043 -109.537 -14.3
    endloop
  endfacet
  facet normal 0 0 1
    outer loop
      vertex -70.3621 -109.647 -14.3
      vertex -70.3621 -115.353 -14.3
      vertex -69.9043 -115.463 -14.3
    endloop
  endfacet
  facet normal -0 0 1
    outer loop
      vertex -70.797 -109.827 -14.3
      vertex -70.3621 -115.353 -14.3
      vertex -70.3621 -109.647 -14.3
    endloop
  endfacet
  facet normal 0 0 1
    outer loop
      vertex -70.797 -109.827 -14.3
      vertex -70.797 -115.173 -14.3
      vertex -70.3621 -115.353 -14.3
    endloop
  endfacet
  facet normal -0 0 1
    outer loop
      vertex -71.1984 -110.073 -14.3
      vertex -70.797 -115.173 -14.3
      vertex -70.797 -109.827 -14.3
    endloop
  endfacet
  facet normal 0 0 1
    outer loop
      vertex -71.1984 -110.073 -14.3
      vertex -71.1984 -114.927 -14.3
      vertex -70.797 -115.173 -14.3
    endloop
  endfacet
  facet normal -0 0 1
    outer loop
      vertex -71.5563 -110.379 -14.3
      vertex -71.1984 -114.927 -14.3
      vertex -71.1984 -110.073 -14.3
    endloop
  endfacet
  facet normal 0 0 1
    outer loop
      vertex -71.5563 -110.379 -14.3
      vertex -71.5563 -114.621 -14.3
      vertex -71.1984 -114.927 -14.3
    endloop
  endfacet
  facet normal -0 0 1
    outer loop
      vertex -71.8621 -110.737 -14.3
      vertex -71.5563 -114.621 -14.3
      vertex -71.5563 -110.379 -14.3
    endloop
  endfacet
  facet normal 0 0 1
    outer loop
      vertex -71.8621 -110.737 -14.3
      vertex -71.8621 -114.263 -14.3
      vertex -71.5563 -114.621 -14.3
    endloop
  endfacet
  facet normal -0 0 1
    outer loop
      vertex -72.108 -111.138 -14.3
      vertex -71.8621 -114.263 -14.3
      vertex -71.8621 -110.737 -14.3
    endloop
  endfacet
  facet normal 0 0 1
    outer loop
      vertex -72.108 -111.138 -14.3
      vertex -72.108 -113.862 -14.3
      vertex -71.8621 -114.263 -14.3
    endloop
  endfacet
  facet normal -0 0 1
    outer loop
      vertex -72.2882 -111.573 -14.3
      vertex -72.108 -113.862 -14.3
      vertex -72.108 -111.138 -14.3
    endloop
  endfacet
  facet normal 0 0 1
    outer loop
      vertex -72.2882 -111.573 -14.3
      vertex -72.2882 -113.427 -14.3
      vertex -72.108 -113.862 -14.3
    endloop
  endfacet
  facet normal -0 0 1
    outer loop
      vertex -72.3981 -112.031 -14.3
      vertex -72.2882 -113.427 -14.3
      vertex -72.2882 -111.573 -14.3
    endloop
  endfacet
  facet normal 0 0 1
    outer loop
      vertex -72.3981 -112.031 -14.3
      vertex -72.3981 -112.969 -14.3
      vertex -72.2882 -113.427 -14.3
    endloop
  endfacet
  facet normal 0 -0 1
    outer loop
      vertex -72.3981 -112.969 -14.3
      vertex -72.3981 -112.031 -14.3
      vertex -72.435 -112.5 -14.3
    endloop
  endfacet
endsolid OpenSCAD_Model
