solid OpenSCAD_Model
  facet normal 0.982284 0.187396 0
    outer loop
      vertex 4.46452 0.563999 12
      vertex 4.35862 1.1191 3
      vertex 4.35862 1.1191 12
    endloop
  endfacet
  facet normal 0.982284 0.187396 0
    outer loop
      vertex 4.35862 1.1191 3
      vertex 4.46452 0.563999 12
      vertex 4.46452 0.563999 3
    endloop
  endfacet
  facet normal 0.998027 0.0627838 0
    outer loop
      vertex 4.5 0 12
      vertex 4.46452 0.563999 3
      vertex 4.46452 0.563999 12
    endloop
  endfacet
  facet normal 0.998027 0.0627838 0
    outer loop
      vertex 4.46452 0.563999 3
      vertex 4.5 0 12
      vertex 4.5 0 3
    endloop
  endfacet
  facet normal 0.90483 -0.425774 0
    outer loop
      vertex 3.94338 -2.16789 12
      vertex 4.18399 -1.65656 3
      vertex 4.18399 -1.65656 12
    endloop
  endfacet
  facet normal 0.90483 -0.425774 0
    outer loop
      vertex 4.18399 -1.65656 3
      vertex 3.94338 -2.16789 12
      vertex 3.94338 -2.16789 3
    endloop
  endfacet
  facet normal 0.368121 0.929778 -0
    outer loop
      vertex 1.91601 4.07172 3
      vertex 1.39058 4.27975 12
      vertex 1.91601 4.07172 12
    endloop
  endfacet
  facet normal 0.368121 0.929778 0
    outer loop
      vertex 1.39058 4.27975 12
      vertex 1.91601 4.07172 3
      vertex 1.39058 4.27975 3
    endloop
  endfacet
  facet normal -0.125337 0.992114 0
    outer loop
      vertex -0.282557 4.49112 3
      vertex -0.843215 4.42029 12
      vertex -0.282557 4.49112 12
    endloop
  endfacet
  facet normal -0.125337 0.992114 0
    outer loop
      vertex -0.843215 4.42029 12
      vertex -0.282557 4.49112 3
      vertex -0.843215 4.42029 3
    endloop
  endfacet
  facet normal 0.68455 0.728966 -0
    outer loop
      vertex 3.28036 3.08046 3
      vertex 2.86841 3.46731 12
      vertex 3.28036 3.08046 12
    endloop
  endfacet
  facet normal 0.68455 0.728966 0
    outer loop
      vertex 2.86841 3.46731 12
      vertex 3.28036 3.08046 3
      vertex 2.86841 3.46731 3
    endloop
  endfacet
  facet normal 0.587776 0.809024 -0
    outer loop
      vertex 2.86841 3.46731 3
      vertex 2.41122 3.79947 12
      vertex 2.86841 3.46731 12
    endloop
  endfacet
  facet normal 0.587776 0.809024 0
    outer loop
      vertex 2.41122 3.79947 12
      vertex 2.86841 3.46731 3
      vertex 2.41122 3.79947 3
    endloop
  endfacet
  facet normal -0.587776 -0.809024 0
    outer loop
      vertex -2.86841 -3.46731 3
      vertex -2.41122 -3.79947 12
      vertex -2.86841 -3.46731 12
    endloop
  endfacet
  facet normal -0.587776 -0.809024 -0
    outer loop
      vertex -2.41122 -3.79947 12
      vertex -2.86841 -3.46731 3
      vertex -2.41122 -3.79947 3
    endloop
  endfacet
  facet normal 0.770512 -0.637425 0
    outer loop
      vertex 3.28036 -3.08046 12
      vertex 3.64058 -2.64503 3
      vertex 3.64058 -2.64503 12
    endloop
  endfacet
  facet normal 0.770512 -0.637425 0
    outer loop
      vertex 3.64058 -2.64503 3
      vertex 3.28036 -3.08046 12
      vertex 3.28036 -3.08046 3
    endloop
  endfacet
  facet normal 0 0 1
    outer loop
      vertex 1.75 0 12
      vertex 4.5 0 12
      vertex 4.46452 0.563999 12
    endloop
  endfacet
  facet normal 0 0 1
    outer loop
      vertex 1.7362 0.219333 12
      vertex 4.46452 0.563999 12
      vertex 4.35862 1.1191 12
    endloop
  endfacet
  facet normal 0 0 1
    outer loop
      vertex 4.5 0 12
      vertex 1.75 0 12
      vertex 4.46452 -0.563999 12
    endloop
  endfacet
  facet normal 0 0 1
    outer loop
      vertex 1.69502 0.435206 12
      vertex 4.35862 1.1191 12
      vertex 4.18399 1.65656 12
    endloop
  endfacet
  facet normal -0 0 1
    outer loop
      vertex 1.7362 -0.219333 12
      vertex 4.46452 -0.563999 12
      vertex 1.75 0 12
    endloop
  endfacet
  facet normal 0 0 1
    outer loop
      vertex 1.62711 0.644217 12
      vertex 4.18399 1.65656 12
      vertex 3.94338 2.16789 12
    endloop
  endfacet
  facet normal 0 0 1
    outer loop
      vertex 4.46452 -0.563999 12
      vertex 1.7362 -0.219333 12
      vertex 4.35862 -1.1191 12
    endloop
  endfacet
  facet normal 0 0 1
    outer loop
      vertex 1.53354 0.843068 12
      vertex 3.94338 2.16789 12
      vertex 3.64058 2.64503 12
    endloop
  endfacet
  facet normal -0 0 1
    outer loop
      vertex 1.69502 -0.435206 12
      vertex 4.35862 -1.1191 12
      vertex 1.7362 -0.219333 12
    endloop
  endfacet
  facet normal 0 0 1
    outer loop
      vertex 1.41578 1.02862 12
      vertex 3.64058 2.64503 12
      vertex 3.28036 3.08046 12
    endloop
  endfacet
  facet normal 0 0 1
    outer loop
      vertex 4.35862 -1.1191 12
      vertex 1.69502 -0.435206 12
      vertex 4.18399 -1.65656 12
    endloop
  endfacet
  facet normal 0 0 1
    outer loop
      vertex 1.27569 1.19796 12
      vertex 3.28036 3.08046 12
      vertex 2.86841 3.46731 12
    endloop
  endfacet
  facet normal -0 0 1
    outer loop
      vertex 1.62711 -0.644217 12
      vertex 4.18399 -1.65656 12
      vertex 1.69502 -0.435206 12
    endloop
  endfacet
  facet normal 0 0 1
    outer loop
      vertex 1.11549 1.3484 12
      vertex 2.86841 3.46731 12
      vertex 2.41122 3.79947 12
    endloop
  endfacet
  facet normal 0 0 1
    outer loop
      vertex 4.18399 -1.65656 12
      vertex 1.62711 -0.644217 12
      vertex 3.94338 -2.16789 12
    endloop
  endfacet
  facet normal 0 0 1
    outer loop
      vertex 0.937696 1.47757 12
      vertex 2.41122 3.79947 12
      vertex 1.91601 4.07172 12
    endloop
  endfacet
  facet normal -0 0 1
    outer loop
      vertex 1.53354 -0.843068 12
      vertex 3.94338 -2.16789 12
      vertex 1.62711 -0.644217 12
    endloop
  endfacet
  facet normal 0 0 1
    outer loop
      vertex 3.94338 -2.16789 12
      vertex 1.53354 -0.843068 12
      vertex 3.64058 -2.64503 12
    endloop
  endfacet
  facet normal 0 0 1
    outer loop
      vertex 4.46452 0.563999 12
      vertex 1.7362 0.219333 12
      vertex 1.75 0 12
    endloop
  endfacet
  facet normal 0 0 1
    outer loop
      vertex 4.35862 1.1191 12
      vertex 1.69502 0.435206 12
      vertex 1.7362 0.219333 12
    endloop
  endfacet
  facet normal 0 0 1
    outer loop
      vertex 4.18399 1.65656 12
      vertex 1.62711 0.644217 12
      vertex 1.69502 0.435206 12
    endloop
  endfacet
  facet normal 0 0 1
    outer loop
      vertex 3.94338 2.16789 12
      vertex 1.53354 0.843068 12
      vertex 1.62711 0.644217 12
    endloop
  endfacet
  facet normal 0 0 1
    outer loop
      vertex 3.64058 2.64503 12
      vertex 1.41578 1.02862 12
      vertex 1.53354 0.843068 12
    endloop
  endfacet
  facet normal 0 0 1
    outer loop
      vertex 0.745113 1.58345 12
      vertex 1.91601 4.07172 12
      vertex 1.39058 4.27975 12
    endloop
  endfacet
  facet normal 0 0 1
    outer loop
      vertex 3.28036 3.08046 12
      vertex 1.27569 1.19796 12
      vertex 1.41578 1.02862 12
    endloop
  endfacet
  facet normal 0 0 1
    outer loop
      vertex 2.86841 3.46731 12
      vertex 1.11549 1.3484 12
      vertex 1.27569 1.19796 12
    endloop
  endfacet
  facet normal 0 0 1
    outer loop
      vertex 2.41122 3.79947 12
      vertex 0.937696 1.47757 12
      vertex 1.11549 1.3484 12
    endloop
  endfacet
  facet normal 0 0 1
    outer loop
      vertex 0.540779 1.66435 12
      vertex 1.39058 4.27975 12
      vertex 0.843215 4.42029 12
    endloop
  endfacet
  facet normal 0 0 1
    outer loop
      vertex 1.91601 4.07172 12
      vertex 0.745113 1.58345 12
      vertex 0.937696 1.47757 12
    endloop
  endfacet
  facet normal 0 0 1
    outer loop
      vertex 1.39058 4.27975 12
      vertex 0.540779 1.66435 12
      vertex 0.745113 1.58345 12
    endloop
  endfacet
  facet normal 0 0 1
    outer loop
      vertex 0.843215 4.42029 12
      vertex 0.327917 1.719 12
      vertex 0.540779 1.66435 12
    endloop
  endfacet
  facet normal 0 0 1
    outer loop
      vertex 0.282557 4.49112 12
      vertex 0.327917 1.719 12
      vertex 0.843215 4.42029 12
    endloop
  endfacet
  facet normal 0 0 1
    outer loop
      vertex 0.282557 4.49112 12
      vertex 0.109883 1.74655 12
      vertex 0.327917 1.719 12
    endloop
  endfacet
  facet normal 0 0 1
    outer loop
      vertex 0.282557 4.49112 12
      vertex -0.109883 1.74655 12
      vertex 0.109883 1.74655 12
    endloop
  endfacet
  facet normal -0 0 1
    outer loop
      vertex -0.282557 4.49112 12
      vertex -0.109883 1.74655 12
      vertex 0.282557 4.49112 12
    endloop
  endfacet
  facet normal 0 0 1
    outer loop
      vertex -0.282557 4.49112 12
      vertex -0.327917 1.719 12
      vertex -0.109883 1.74655 12
    endloop
  endfacet
  facet normal -0 0 1
    outer loop
      vertex -0.843215 4.42029 12
      vertex -0.327917 1.719 12
      vertex -0.282557 4.49112 12
    endloop
  endfacet
  facet normal 0 0 1
    outer loop
      vertex -0.327917 1.719 12
      vertex -0.843215 4.42029 12
      vertex -0.540779 1.66435 12
    endloop
  endfacet
  facet normal -0 0 1
    outer loop
      vertex -1.39058 4.27975 12
      vertex -0.540779 1.66435 12
      vertex -0.843215 4.42029 12
    endloop
  endfacet
  facet normal 0 0 1
    outer loop
      vertex -0.540779 1.66435 12
      vertex -1.39058 4.27975 12
      vertex -0.745113 1.58345 12
    endloop
  endfacet
  facet normal -0 0 1
    outer loop
      vertex -1.91601 4.07172 12
      vertex -0.745113 1.58345 12
      vertex -1.39058 4.27975 12
    endloop
  endfacet
  facet normal 0 0 1
    outer loop
      vertex -0.745113 1.58345 12
      vertex -1.91601 4.07172 12
      vertex -0.937696 1.47757 12
    endloop
  endfacet
  facet normal -0 0 1
    outer loop
      vertex -2.41122 3.79947 12
      vertex -0.937696 1.47757 12
      vertex -1.91601 4.07172 12
    endloop
  endfacet
  facet normal 0 0 1
    outer loop
      vertex -0.937696 1.47757 12
      vertex -2.41122 3.79947 12
      vertex -1.11549 1.3484 12
    endloop
  endfacet
  facet normal -0 0 1
    outer loop
      vertex -2.86841 3.46731 12
      vertex -1.11549 1.3484 12
      vertex -2.41122 3.79947 12
    endloop
  endfacet
  facet normal 0 0 1
    outer loop
      vertex -1.11549 1.3484 12
      vertex -2.86841 3.46731 12
      vertex -1.27569 1.19796 12
    endloop
  endfacet
  facet normal -0 0 1
    outer loop
      vertex -3.28036 3.08046 12
      vertex -1.27569 1.19796 12
      vertex -2.86841 3.46731 12
    endloop
  endfacet
  facet normal 0 0 1
    outer loop
      vertex -1.27569 1.19796 12
      vertex -3.28036 3.08046 12
      vertex -1.41578 1.02862 12
    endloop
  endfacet
  facet normal 0 0 1
    outer loop
      vertex -1.41578 1.02862 12
      vertex -3.64058 2.64503 12
      vertex -1.53354 0.843068 12
    endloop
  endfacet
  facet normal -0 0 1
    outer loop
      vertex -3.64058 2.64503 12
      vertex -1.41578 1.02862 12
      vertex -3.28036 3.08046 12
    endloop
  endfacet
  facet normal -0 0 1
    outer loop
      vertex 1.41578 -1.02862 12
      vertex 3.64058 -2.64503 12
      vertex 1.53354 -0.843068 12
    endloop
  endfacet
  facet normal 0 0 1
    outer loop
      vertex 3.64058 -2.64503 12
      vertex 1.41578 -1.02862 12
      vertex 3.28036 -3.08046 12
    endloop
  endfacet
  facet normal -0 0 1
    outer loop
      vertex 1.27569 -1.19796 12
      vertex 3.28036 -3.08046 12
      vertex 1.41578 -1.02862 12
    endloop
  endfacet
  facet normal 0 0 1
    outer loop
      vertex 3.28036 -3.08046 12
      vertex 1.27569 -1.19796 12
      vertex 2.86841 -3.46731 12
    endloop
  endfacet
  facet normal -0 0 1
    outer loop
      vertex 1.11549 -1.3484 12
      vertex 2.86841 -3.46731 12
      vertex 1.27569 -1.19796 12
    endloop
  endfacet
  facet normal 0 0 1
    outer loop
      vertex 2.86841 -3.46731 12
      vertex 1.11549 -1.3484 12
      vertex 2.41122 -3.79947 12
    endloop
  endfacet
  facet normal -0 0 1
    outer loop
      vertex 0.937696 -1.47757 12
      vertex 2.41122 -3.79947 12
      vertex 1.11549 -1.3484 12
    endloop
  endfacet
  facet normal 0 0 1
    outer loop
      vertex 2.41122 -3.79947 12
      vertex 0.937696 -1.47757 12
      vertex 1.91601 -4.07172 12
    endloop
  endfacet
  facet normal -0 0 1
    outer loop
      vertex 0.745113 -1.58345 12
      vertex 1.91601 -4.07172 12
      vertex 0.937696 -1.47757 12
    endloop
  endfacet
  facet normal 0 0 1
    outer loop
      vertex 1.91601 -4.07172 12
      vertex 0.745113 -1.58345 12
      vertex 1.39058 -4.27975 12
    endloop
  endfacet
  facet normal -0 0 1
    outer loop
      vertex 0.540779 -1.66435 12
      vertex 1.39058 -4.27975 12
      vertex 0.745113 -1.58345 12
    endloop
  endfacet
  facet normal 0 0 1
    outer loop
      vertex 1.39058 -4.27975 12
      vertex 0.540779 -1.66435 12
      vertex 0.843215 -4.42029 12
    endloop
  endfacet
  facet normal -0 0 1
    outer loop
      vertex 0.327917 -1.719 12
      vertex 0.843215 -4.42029 12
      vertex 0.540779 -1.66435 12
    endloop
  endfacet
  facet normal 0 0 1
    outer loop
      vertex 0.327917 -1.719 12
      vertex 0.282557 -4.49112 12
      vertex 0.843215 -4.42029 12
    endloop
  endfacet
  facet normal -0 0 1
    outer loop
      vertex 0.109883 -1.74655 12
      vertex 0.282557 -4.49112 12
      vertex 0.327917 -1.719 12
    endloop
  endfacet
  facet normal -0 0 1
    outer loop
      vertex -0.109883 -1.74655 12
      vertex 0.282557 -4.49112 12
      vertex 0.109883 -1.74655 12
    endloop
  endfacet
  facet normal 0 0 1
    outer loop
      vertex -0.109883 -1.74655 12
      vertex -0.282557 -4.49112 12
      vertex 0.282557 -4.49112 12
    endloop
  endfacet
  facet normal 0 0 1
    outer loop
      vertex -0.327917 -1.719 12
      vertex -0.282557 -4.49112 12
      vertex -0.109883 -1.74655 12
    endloop
  endfacet
  facet normal 0 0 1
    outer loop
      vertex -0.843215 -4.42029 12
      vertex -0.327917 -1.719 12
      vertex -0.540779 -1.66435 12
    endloop
  endfacet
  facet normal 0 0 1
    outer loop
      vertex -1.39058 -4.27975 12
      vertex -0.540779 -1.66435 12
      vertex -0.745113 -1.58345 12
    endloop
  endfacet
  facet normal 0 0 1
    outer loop
      vertex -0.327917 -1.719 12
      vertex -0.843215 -4.42029 12
      vertex -0.282557 -4.49112 12
    endloop
  endfacet
  facet normal 0 0 1
    outer loop
      vertex -1.91601 -4.07172 12
      vertex -0.745113 -1.58345 12
      vertex -0.937696 -1.47757 12
    endloop
  endfacet
  facet normal 0 0 1
    outer loop
      vertex -2.41122 -3.79947 12
      vertex -0.937696 -1.47757 12
      vertex -1.11549 -1.3484 12
    endloop
  endfacet
  facet normal 0 0 1
    outer loop
      vertex -2.86841 -3.46731 12
      vertex -1.11549 -1.3484 12
      vertex -1.27569 -1.19796 12
    endloop
  endfacet
  facet normal 0 0 1
    outer loop
      vertex -0.540779 -1.66435 12
      vertex -1.39058 -4.27975 12
      vertex -0.843215 -4.42029 12
    endloop
  endfacet
  facet normal 0 0 1
    outer loop
      vertex -3.28036 -3.08046 12
      vertex -1.27569 -1.19796 12
      vertex -1.41578 -1.02862 12
    endloop
  endfacet
  facet normal 0 0 1
    outer loop
      vertex -3.64058 -2.64503 12
      vertex -1.41578 -1.02862 12
      vertex -1.53354 -0.843068 12
    endloop
  endfacet
  facet normal 0 0 1
    outer loop
      vertex -3.94338 -2.16789 12
      vertex -1.53354 -0.843068 12
      vertex -1.62711 -0.644217 12
    endloop
  endfacet
  facet normal 0 0 1
    outer loop
      vertex -4.18399 -1.65656 12
      vertex -1.62711 -0.644217 12
      vertex -1.69502 -0.435206 12
    endloop
  endfacet
  facet normal 0 0 1
    outer loop
      vertex -4.35862 -1.1191 12
      vertex -1.69502 -0.435206 12
      vertex -1.7362 -0.219333 12
    endloop
  endfacet
  facet normal 0 0 1
    outer loop
      vertex -0.745113 -1.58345 12
      vertex -1.91601 -4.07172 12
      vertex -1.39058 -4.27975 12
    endloop
  endfacet
  facet normal 0 0 1
    outer loop
      vertex -4.46452 -0.563999 12
      vertex -1.7362 -0.219333 12
      vertex -1.75 0 12
    endloop
  endfacet
  facet normal -0 0 1
    outer loop
      vertex -3.94338 2.16789 12
      vertex -1.53354 0.843068 12
      vertex -3.64058 2.64503 12
    endloop
  endfacet
  facet normal 0 0 1
    outer loop
      vertex -1.53354 0.843068 12
      vertex -3.94338 2.16789 12
      vertex -1.62711 0.644217 12
    endloop
  endfacet
  facet normal 0 0 1
    outer loop
      vertex -0.937696 -1.47757 12
      vertex -2.41122 -3.79947 12
      vertex -1.91601 -4.07172 12
    endloop
  endfacet
  facet normal -0 0 1
    outer loop
      vertex -4.18399 1.65656 12
      vertex -1.62711 0.644217 12
      vertex -3.94338 2.16789 12
    endloop
  endfacet
  facet normal 0 0 1
    outer loop
      vertex -1.11549 -1.3484 12
      vertex -2.86841 -3.46731 12
      vertex -2.41122 -3.79947 12
    endloop
  endfacet
  facet normal 0 0 1
    outer loop
      vertex -1.62711 0.644217 12
      vertex -4.18399 1.65656 12
      vertex -1.69502 0.435206 12
    endloop
  endfacet
  facet normal 0 0 1
    outer loop
      vertex -1.27569 -1.19796 12
      vertex -3.28036 -3.08046 12
      vertex -2.86841 -3.46731 12
    endloop
  endfacet
  facet normal -0 0 1
    outer loop
      vertex -4.35862 1.1191 12
      vertex -1.69502 0.435206 12
      vertex -4.18399 1.65656 12
    endloop
  endfacet
  facet normal 0 0 1
    outer loop
      vertex -1.41578 -1.02862 12
      vertex -3.64058 -2.64503 12
      vertex -3.28036 -3.08046 12
    endloop
  endfacet
  facet normal 0 0 1
    outer loop
      vertex -1.69502 0.435206 12
      vertex -4.35862 1.1191 12
      vertex -1.7362 0.219333 12
    endloop
  endfacet
  facet normal 0 0 1
    outer loop
      vertex -1.53354 -0.843068 12
      vertex -3.94338 -2.16789 12
      vertex -3.64058 -2.64503 12
    endloop
  endfacet
  facet normal -0 0 1
    outer loop
      vertex -4.46452 0.563999 12
      vertex -1.7362 0.219333 12
      vertex -4.35862 1.1191 12
    endloop
  endfacet
  facet normal 0 0 1
    outer loop
      vertex -1.62711 -0.644217 12
      vertex -4.18399 -1.65656 12
      vertex -3.94338 -2.16789 12
    endloop
  endfacet
  facet normal 0 0 1
    outer loop
      vertex -1.7362 0.219333 12
      vertex -4.46452 0.563999 12
      vertex -1.75 0 12
    endloop
  endfacet
  facet normal 0 0 1
    outer loop
      vertex -1.69502 -0.435206 12
      vertex -4.35862 -1.1191 12
      vertex -4.18399 -1.65656 12
    endloop
  endfacet
  facet normal 0 0 1
    outer loop
      vertex -4.5 0 12
      vertex -1.75 0 12
      vertex -4.46452 0.563999 12
    endloop
  endfacet
  facet normal 0 0 1
    outer loop
      vertex -1.7362 -0.219333 12
      vertex -4.46452 -0.563999 12
      vertex -4.35862 -1.1191 12
    endloop
  endfacet
  facet normal 0 0 1
    outer loop
      vertex -1.75 0 12
      vertex -4.5 0 12
      vertex -4.46452 -0.563999 12
    endloop
  endfacet
  facet normal 0.125337 0.992114 -0
    outer loop
      vertex 0.843215 4.42029 3
      vertex 0.282557 4.49112 12
      vertex 0.843215 4.42029 12
    endloop
  endfacet
  facet normal 0.125337 0.992114 0
    outer loop
      vertex 0.282557 4.49112 12
      vertex 0.843215 4.42029 3
      vertex 0.282557 4.49112 3
    endloop
  endfacet
  facet normal 0.481762 -0.876302 0
    outer loop
      vertex 1.91601 -4.07172 3
      vertex 2.41122 -3.79947 12
      vertex 1.91601 -4.07172 12
    endloop
  endfacet
  facet normal 0.481762 -0.876302 0
    outer loop
      vertex 2.41122 -3.79947 12
      vertex 1.91601 -4.07172 3
      vertex 2.41122 -3.79947 3
    endloop
  endfacet
  facet normal -0.481762 -0.876302 0
    outer loop
      vertex -2.41122 -3.79947 3
      vertex -1.91601 -4.07172 12
      vertex -2.41122 -3.79947 12
    endloop
  endfacet
  facet normal -0.481762 -0.876302 -0
    outer loop
      vertex -1.91601 -4.07172 12
      vertex -2.41122 -3.79947 3
      vertex -1.91601 -4.07172 3
    endloop
  endfacet
  facet normal 0.481762 0.876302 -0
    outer loop
      vertex 2.41122 3.79947 3
      vertex 1.91601 4.07172 12
      vertex 2.41122 3.79947 12
    endloop
  endfacet
  facet normal 0.481762 0.876302 0
    outer loop
      vertex 1.91601 4.07172 12
      vertex 2.41122 3.79947 3
      vertex 1.91601 4.07172 3
    endloop
  endfacet
  facet normal 0.951057 -0.309015 0
    outer loop
      vertex 4.18399 -1.65656 12
      vertex 4.35862 -1.1191 3
      vertex 4.35862 -1.1191 12
    endloop
  endfacet
  facet normal 0.951057 -0.309015 0
    outer loop
      vertex 4.35862 -1.1191 3
      vertex 4.18399 -1.65656 12
      vertex 4.18399 -1.65656 3
    endloop
  endfacet
  facet normal 0.951057 0.309015 0
    outer loop
      vertex 4.35862 1.1191 12
      vertex 4.18399 1.65656 3
      vertex 4.18399 1.65656 12
    endloop
  endfacet
  facet normal 0.951057 0.309015 0
    outer loop
      vertex 4.18399 1.65656 3
      vertex 4.35862 1.1191 12
      vertex 4.35862 1.1191 3
    endloop
  endfacet
  facet normal -0.951057 -0.309015 0
    outer loop
      vertex -4.18399 -1.65656 3
      vertex -4.35862 -1.1191 12
      vertex -4.35862 -1.1191 3
    endloop
  endfacet
  facet normal -0.951057 -0.309015 0
    outer loop
      vertex -4.35862 -1.1191 12
      vertex -4.18399 -1.65656 3
      vertex -4.18399 -1.65656 12
    endloop
  endfacet
  facet normal 0.84433 0.535824 0
    outer loop
      vertex 3.94338 2.16789 12
      vertex 3.64058 2.64503 3
      vertex 3.64058 2.64503 12
    endloop
  endfacet
  facet normal 0.84433 0.535824 0
    outer loop
      vertex 3.64058 2.64503 3
      vertex 3.94338 2.16789 12
      vertex 3.94338 2.16789 3
    endloop
  endfacet
  facet normal -0.998027 0.0627838 0
    outer loop
      vertex -4.5 0 3
      vertex -4.46452 0.563999 12
      vertex -4.46452 0.563999 3
    endloop
  endfacet
  facet normal -0.998027 0.0627838 0
    outer loop
      vertex -4.46452 0.563999 12
      vertex -4.5 0 3
      vertex -4.5 0 12
    endloop
  endfacet
  facet normal -0.84433 0.535824 0
    outer loop
      vertex -3.94338 2.16789 3
      vertex -3.64058 2.64503 12
      vertex -3.64058 2.64503 3
    endloop
  endfacet
  facet normal -0.84433 0.535824 0
    outer loop
      vertex -3.64058 2.64503 12
      vertex -3.94338 2.16789 3
      vertex -3.94338 2.16789 12
    endloop
  endfacet
  facet normal 0.982284 -0.187396 0
    outer loop
      vertex 4.35862 -1.1191 12
      vertex 4.46452 -0.563999 3
      vertex 4.46452 -0.563999 12
    endloop
  endfacet
  facet normal 0.982284 -0.187396 0
    outer loop
      vertex 4.46452 -0.563999 3
      vertex 4.35862 -1.1191 12
      vertex 4.35862 -1.1191 3
    endloop
  endfacet
  facet normal 0.90483 0.425774 0
    outer loop
      vertex 4.18399 1.65656 12
      vertex 3.94338 2.16789 3
      vertex 3.94338 2.16789 12
    endloop
  endfacet
  facet normal 0.90483 0.425774 0
    outer loop
      vertex 3.94338 2.16789 3
      vertex 4.18399 1.65656 12
      vertex 4.18399 1.65656 3
    endloop
  endfacet
  facet normal -0.481762 0.876302 0
    outer loop
      vertex -1.91601 4.07172 3
      vertex -2.41122 3.79947 12
      vertex -1.91601 4.07172 12
    endloop
  endfacet
  facet normal -0.481762 0.876302 0
    outer loop
      vertex -2.41122 3.79947 12
      vertex -1.91601 4.07172 3
      vertex -2.41122 3.79947 3
    endloop
  endfacet
  facet normal 0.125337 -0.992114 0
    outer loop
      vertex 0.282557 -4.49112 3
      vertex 0.843215 -4.42029 12
      vertex 0.282557 -4.49112 12
    endloop
  endfacet
  facet normal 0.125337 -0.992114 0
    outer loop
      vertex 0.843215 -4.42029 12
      vertex 0.282557 -4.49112 3
      vertex 0.843215 -4.42029 3
    endloop
  endfacet
  facet normal 0.248691 0.968583 -0
    outer loop
      vertex 1.39058 4.27975 3
      vertex 0.843215 4.42029 12
      vertex 1.39058 4.27975 12
    endloop
  endfacet
  facet normal 0.248691 0.968583 0
    outer loop
      vertex 0.843215 4.42029 12
      vertex 1.39058 4.27975 3
      vertex 0.843215 4.42029 3
    endloop
  endfacet
  facet normal -0.368121 0.929778 0
    outer loop
      vertex -1.39058 4.27975 3
      vertex -1.91601 4.07172 12
      vertex -1.39058 4.27975 12
    endloop
  endfacet
  facet normal -0.368121 0.929778 0
    outer loop
      vertex -1.91601 4.07172 12
      vertex -1.39058 4.27975 3
      vertex -1.91601 4.07172 3
    endloop
  endfacet
  facet normal -0.68455 0.728966 0
    outer loop
      vertex -2.86841 3.46731 3
      vertex -3.28036 3.08046 12
      vertex -2.86841 3.46731 12
    endloop
  endfacet
  facet normal -0.68455 0.728966 0
    outer loop
      vertex -3.28036 3.08046 12
      vertex -2.86841 3.46731 3
      vertex -3.28036 3.08046 3
    endloop
  endfacet
  facet normal 0.84433 -0.535824 0
    outer loop
      vertex 3.64058 -2.64503 12
      vertex 3.94338 -2.16789 3
      vertex 3.94338 -2.16789 12
    endloop
  endfacet
  facet normal 0.84433 -0.535824 0
    outer loop
      vertex 3.94338 -2.16789 3
      vertex 3.64058 -2.64503 12
      vertex 3.64058 -2.64503 3
    endloop
  endfacet
  facet normal -0.982284 -0.187396 0
    outer loop
      vertex -4.35862 -1.1191 3
      vertex -4.46452 -0.563999 12
      vertex -4.46452 -0.563999 3
    endloop
  endfacet
  facet normal -0.982284 -0.187396 0
    outer loop
      vertex -4.46452 -0.563999 12
      vertex -4.35862 -1.1191 3
      vertex -4.35862 -1.1191 12
    endloop
  endfacet
  facet normal -0.982284 0.187396 0
    outer loop
      vertex -4.46452 0.563999 3
      vertex -4.35862 1.1191 12
      vertex -4.35862 1.1191 3
    endloop
  endfacet
  facet normal -0.982284 0.187396 0
    outer loop
      vertex -4.35862 1.1191 12
      vertex -4.46452 0.563999 3
      vertex -4.46452 0.563999 12
    endloop
  endfacet
  facet normal -0.998027 -0.0627838 0
    outer loop
      vertex -4.46452 -0.563999 3
      vertex -4.5 0 12
      vertex -4.5 0 3
    endloop
  endfacet
  facet normal -0.998027 -0.0627838 0
    outer loop
      vertex -4.5 0 12
      vertex -4.46452 -0.563999 3
      vertex -4.46452 -0.563999 12
    endloop
  endfacet
  facet normal 0 1 -0
    outer loop
      vertex 0.282557 4.49112 3
      vertex -0.282557 4.49112 12
      vertex 0.282557 4.49112 12
    endloop
  endfacet
  facet normal 0 1 0
    outer loop
      vertex -0.282557 4.49112 12
      vertex 0.282557 4.49112 3
      vertex -0.282557 4.49112 3
    endloop
  endfacet
  facet normal 0.998027 -0.0627838 0
    outer loop
      vertex 4.46452 -0.563999 12
      vertex 4.5 0 3
      vertex 4.5 0 12
    endloop
  endfacet
  facet normal 0.998027 -0.0627838 0
    outer loop
      vertex 4.5 0 3
      vertex 4.46452 -0.563999 12
      vertex 4.46452 -0.563999 3
    endloop
  endfacet
  facet normal -0.90483 -0.425774 0
    outer loop
      vertex -3.94338 -2.16789 3
      vertex -4.18399 -1.65656 12
      vertex -4.18399 -1.65656 3
    endloop
  endfacet
  facet normal -0.90483 -0.425774 0
    outer loop
      vertex -4.18399 -1.65656 12
      vertex -3.94338 -2.16789 3
      vertex -3.94338 -2.16789 12
    endloop
  endfacet
  facet normal -0.125337 -0.992114 0
    outer loop
      vertex -0.843215 -4.42029 3
      vertex -0.282557 -4.49112 12
      vertex -0.843215 -4.42029 12
    endloop
  endfacet
  facet normal -0.125337 -0.992114 -0
    outer loop
      vertex -0.282557 -4.49112 12
      vertex -0.843215 -4.42029 3
      vertex -0.282557 -4.49112 3
    endloop
  endfacet
  facet normal 0 -1 0
    outer loop
      vertex -0.282557 -4.49112 3
      vertex 0.282557 -4.49112 12
      vertex -0.282557 -4.49112 12
    endloop
  endfacet
  facet normal 0 -1 -0
    outer loop
      vertex 0.282557 -4.49112 12
      vertex -0.282557 -4.49112 3
      vertex 0.282557 -4.49112 3
    endloop
  endfacet
  facet normal -0.248691 -0.968583 0
    outer loop
      vertex -1.39058 -4.27975 3
      vertex -0.843215 -4.42029 12
      vertex -1.39058 -4.27975 12
    endloop
  endfacet
  facet normal -0.248691 -0.968583 -0
    outer loop
      vertex -0.843215 -4.42029 12
      vertex -1.39058 -4.27975 3
      vertex -0.843215 -4.42029 3
    endloop
  endfacet
  facet normal -0.587776 0.809024 0
    outer loop
      vertex -2.41122 3.79947 3
      vertex -2.86841 3.46731 12
      vertex -2.41122 3.79947 12
    endloop
  endfacet
  facet normal -0.587776 0.809024 0
    outer loop
      vertex -2.86841 3.46731 12
      vertex -2.41122 3.79947 3
      vertex -2.86841 3.46731 3
    endloop
  endfacet
  facet normal -0.951057 0.309015 0
    outer loop
      vertex -4.35862 1.1191 3
      vertex -4.18399 1.65656 12
      vertex -4.18399 1.65656 3
    endloop
  endfacet
  facet normal -0.951057 0.309015 0
    outer loop
      vertex -4.18399 1.65656 12
      vertex -4.35862 1.1191 3
      vertex -4.35862 1.1191 12
    endloop
  endfacet
  facet normal 0.770512 0.637425 0
    outer loop
      vertex 3.64058 2.64503 12
      vertex 3.28036 3.08046 3
      vertex 3.28036 3.08046 12
    endloop
  endfacet
  facet normal 0.770512 0.637425 0
    outer loop
      vertex 3.28036 3.08046 3
      vertex 3.64058 2.64503 12
      vertex 3.64058 2.64503 3
    endloop
  endfacet
  facet normal -0.90483 0.425774 0
    outer loop
      vertex -4.18399 1.65656 3
      vertex -3.94338 2.16789 12
      vertex -3.94338 2.16789 3
    endloop
  endfacet
  facet normal -0.90483 0.425774 0
    outer loop
      vertex -3.94338 2.16789 12
      vertex -4.18399 1.65656 3
      vertex -4.18399 1.65656 12
    endloop
  endfacet
  facet normal -0.248691 0.968583 0
    outer loop
      vertex -0.843215 4.42029 3
      vertex -1.39058 4.27975 12
      vertex -0.843215 4.42029 12
    endloop
  endfacet
  facet normal -0.248691 0.968583 0
    outer loop
      vertex -1.39058 4.27975 12
      vertex -0.843215 4.42029 3
      vertex -1.39058 4.27975 3
    endloop
  endfacet
  facet normal -0.68455 -0.728966 0
    outer loop
      vertex -3.28036 -3.08046 3
      vertex -2.86841 -3.46731 12
      vertex -3.28036 -3.08046 12
    endloop
  endfacet
  facet normal -0.68455 -0.728966 -0
    outer loop
      vertex -2.86841 -3.46731 12
      vertex -3.28036 -3.08046 3
      vertex -2.86841 -3.46731 3
    endloop
  endfacet
  facet normal -0.770512 -0.637425 0
    outer loop
      vertex -3.28036 -3.08046 3
      vertex -3.64058 -2.64503 12
      vertex -3.64058 -2.64503 3
    endloop
  endfacet
  facet normal -0.770512 -0.637425 0
    outer loop
      vertex -3.64058 -2.64503 12
      vertex -3.28036 -3.08046 3
      vertex -3.28036 -3.08046 12
    endloop
  endfacet
  facet normal -0.84433 -0.535824 0
    outer loop
      vertex -3.64058 -2.64503 3
      vertex -3.94338 -2.16789 12
      vertex -3.94338 -2.16789 3
    endloop
  endfacet
  facet normal -0.84433 -0.535824 0
    outer loop
      vertex -3.94338 -2.16789 12
      vertex -3.64058 -2.64503 3
      vertex -3.64058 -2.64503 12
    endloop
  endfacet
  facet normal 0.68455 -0.728966 0
    outer loop
      vertex 2.86841 -3.46731 3
      vertex 3.28036 -3.08046 12
      vertex 2.86841 -3.46731 12
    endloop
  endfacet
  facet normal 0.68455 -0.728966 0
    outer loop
      vertex 3.28036 -3.08046 12
      vertex 2.86841 -3.46731 3
      vertex 3.28036 -3.08046 3
    endloop
  endfacet
  facet normal -0.368121 -0.929778 0
    outer loop
      vertex -1.91601 -4.07172 3
      vertex -1.39058 -4.27975 12
      vertex -1.91601 -4.07172 12
    endloop
  endfacet
  facet normal -0.368121 -0.929778 -0
    outer loop
      vertex -1.39058 -4.27975 12
      vertex -1.91601 -4.07172 3
      vertex -1.39058 -4.27975 3
    endloop
  endfacet
  facet normal 0.368121 -0.929778 0
    outer loop
      vertex 1.39058 -4.27975 3
      vertex 1.91601 -4.07172 12
      vertex 1.39058 -4.27975 12
    endloop
  endfacet
  facet normal 0.368121 -0.929778 0
    outer loop
      vertex 1.91601 -4.07172 12
      vertex 1.39058 -4.27975 3
      vertex 1.91601 -4.07172 3
    endloop
  endfacet
  facet normal 0.248691 -0.968583 0
    outer loop
      vertex 0.843215 -4.42029 3
      vertex 1.39058 -4.27975 12
      vertex 0.843215 -4.42029 12
    endloop
  endfacet
  facet normal 0.248691 -0.968583 0
    outer loop
      vertex 1.39058 -4.27975 12
      vertex 0.843215 -4.42029 3
      vertex 1.39058 -4.27975 3
    endloop
  endfacet
  facet normal 0.587776 -0.809024 0
    outer loop
      vertex 2.41122 -3.79947 3
      vertex 2.86841 -3.46731 12
      vertex 2.41122 -3.79947 12
    endloop
  endfacet
  facet normal 0.587776 -0.809024 0
    outer loop
      vertex 2.86841 -3.46731 12
      vertex 2.41122 -3.79947 3
      vertex 2.86841 -3.46731 3
    endloop
  endfacet
  facet normal 0 0 -1
    outer loop
      vertex 1.75 0 0
      vertex 5.5 0 0
      vertex 5.45663 -0.689332 0
    endloop
  endfacet
  facet normal 0 0 -1
    outer loop
      vertex 1.7362 -0.219333 0
      vertex 5.45663 -0.689332 0
      vertex 5.32721 -1.36779 0
    endloop
  endfacet
  facet normal 0 0 -1
    outer loop
      vertex 5.5 0 0
      vertex 1.75 0 0
      vertex 5.45663 0.689332 0
    endloop
  endfacet
  facet normal 0 0 -1
    outer loop
      vertex 1.69502 -0.435206 0
      vertex 5.32721 -1.36779 0
      vertex 5.11377 -2.02468 0
    endloop
  endfacet
  facet normal 0 0 -1
    outer loop
      vertex 1.7362 0.219333 0
      vertex 5.45663 0.689332 0
      vertex 1.75 0 0
    endloop
  endfacet
  facet normal 0 0 -1
    outer loop
      vertex 1.62711 -0.644217 0
      vertex 5.11377 -2.02468 0
      vertex 4.81969 -2.64964 0
    endloop
  endfacet
  facet normal -0 0 -1
    outer loop
      vertex 5.45663 0.689332 0
      vertex 1.7362 0.219333 0
      vertex 5.32721 1.36779 0
    endloop
  endfacet
  facet normal 0 0 -1
    outer loop
      vertex 1.53354 -0.843068 0
      vertex 4.81969 -2.64964 0
      vertex 4.44959 -3.23282 0
    endloop
  endfacet
  facet normal 0 0 -1
    outer loop
      vertex 1.69502 0.435206 0
      vertex 5.32721 1.36779 0
      vertex 1.7362 0.219333 0
    endloop
  endfacet
  facet normal 0 0 -1
    outer loop
      vertex 1.41578 -1.02862 0
      vertex 4.44959 -3.23282 0
      vertex 4.00933 -3.76501 0
    endloop
  endfacet
  facet normal -0 0 -1
    outer loop
      vertex 5.32721 1.36779 0
      vertex 1.69502 0.435206 0
      vertex 5.11377 2.02468 0
    endloop
  endfacet
  facet normal 0 0 -1
    outer loop
      vertex 1.27569 -1.19796 0
      vertex 4.00933 -3.76501 0
      vertex 3.50583 -4.23782 0
    endloop
  endfacet
  facet normal 0 0 -1
    outer loop
      vertex 1.62711 0.644217 0
      vertex 5.11377 2.02468 0
      vertex 1.69502 0.435206 0
    endloop
  endfacet
  facet normal 0 0 -1
    outer loop
      vertex 1.11549 -1.3484 0
      vertex 3.50583 -4.23782 0
      vertex 2.94705 -4.6438 0
    endloop
  endfacet
  facet normal -0 0 -1
    outer loop
      vertex 5.11377 2.02468 0
      vertex 1.62711 0.644217 0
      vertex 4.81969 2.64964 0
    endloop
  endfacet
  facet normal 0 0 -1
    outer loop
      vertex 0.937696 -1.47757 0
      vertex 2.94705 -4.6438 0
      vertex 2.34179 -4.97655 0
    endloop
  endfacet
  facet normal 0 0 -1
    outer loop
      vertex 1.53354 0.843068 0
      vertex 4.81969 2.64964 0
      vertex 1.62711 0.644217 0
    endloop
  endfacet
  facet normal -0 0 -1
    outer loop
      vertex 4.81969 2.64964 0
      vertex 1.53354 0.843068 0
      vertex 4.44959 3.23282 0
    endloop
  endfacet
  facet normal 0 0 -1
    outer loop
      vertex 5.45663 -0.689332 0
      vertex 1.7362 -0.219333 0
      vertex 1.75 0 0
    endloop
  endfacet
  facet normal 0 0 -1
    outer loop
      vertex 0.745113 -1.58345 0
      vertex 2.34179 -4.97655 0
      vertex 1.69959 -5.23081 0
    endloop
  endfacet
  facet normal 0 0 -1
    outer loop
      vertex 5.32721 -1.36779 0
      vertex 1.69502 -0.435206 0
      vertex 1.7362 -0.219333 0
    endloop
  endfacet
  facet normal 0 0 -1
    outer loop
      vertex 5.11377 -2.02468 0
      vertex 1.62711 -0.644217 0
      vertex 1.69502 -0.435206 0
    endloop
  endfacet
  facet normal 0 0 -1
    outer loop
      vertex 4.81969 -2.64964 0
      vertex 1.53354 -0.843068 0
      vertex 1.62711 -0.644217 0
    endloop
  endfacet
  facet normal 0 0 -1
    outer loop
      vertex 4.44959 -3.23282 0
      vertex 1.41578 -1.02862 0
      vertex 1.53354 -0.843068 0
    endloop
  endfacet
  facet normal 0 0 -1
    outer loop
      vertex 4.00933 -3.76501 0
      vertex 1.27569 -1.19796 0
      vertex 1.41578 -1.02862 0
    endloop
  endfacet
  facet normal 0 0 -1
    outer loop
      vertex 3.50583 -4.23782 0
      vertex 1.11549 -1.3484 0
      vertex 1.27569 -1.19796 0
    endloop
  endfacet
  facet normal 0 0 -1
    outer loop
      vertex 0.540779 -1.66435 0
      vertex 1.69959 -5.23081 0
      vertex 1.0306 -5.40258 0
    endloop
  endfacet
  facet normal 0 0 -1
    outer loop
      vertex 2.94705 -4.6438 0
      vertex 0.937696 -1.47757 0
      vertex 1.11549 -1.3484 0
    endloop
  endfacet
  facet normal 0 0 -1
    outer loop
      vertex 2.34179 -4.97655 0
      vertex 0.745113 -1.58345 0
      vertex 0.937696 -1.47757 0
    endloop
  endfacet
  facet normal 0 0 -1
    outer loop
      vertex 1.69959 -5.23081 0
      vertex 0.540779 -1.66435 0
      vertex 0.745113 -1.58345 0
    endloop
  endfacet
  facet normal 0 0 -1
    outer loop
      vertex 0.327917 -1.719 0
      vertex 1.0306 -5.40258 0
      vertex 0.345347 -5.48915 0
    endloop
  endfacet
  facet normal 0 0 -1
    outer loop
      vertex 1.0306 -5.40258 0
      vertex 0.327917 -1.719 0
      vertex 0.540779 -1.66435 0
    endloop
  endfacet
  facet normal 0 0 -1
    outer loop
      vertex 0.345347 -5.48915 0
      vertex 0.109883 -1.74655 0
      vertex 0.327917 -1.719 0
    endloop
  endfacet
  facet normal 0 0 -1
    outer loop
      vertex 0.345347 -5.48915 0
      vertex -0.109883 -1.74655 0
      vertex 0.109883 -1.74655 0
    endloop
  endfacet
  facet normal 0 0 -1
    outer loop
      vertex -0.345347 -5.48915 0
      vertex -0.109883 -1.74655 0
      vertex 0.345347 -5.48915 0
    endloop
  endfacet
  facet normal -0 0 -1
    outer loop
      vertex -0.109883 -1.74655 0
      vertex -0.345347 -5.48915 0
      vertex -0.327917 -1.719 0
    endloop
  endfacet
  facet normal 0 0 -1
    outer loop
      vertex -1.0306 -5.40258 0
      vertex -0.327917 -1.719 0
      vertex -0.345347 -5.48915 0
    endloop
  endfacet
  facet normal -0 0 -1
    outer loop
      vertex -0.327917 -1.719 0
      vertex -1.0306 -5.40258 0
      vertex -0.540779 -1.66435 0
    endloop
  endfacet
  facet normal 0 0 -1
    outer loop
      vertex -1.69959 -5.23081 0
      vertex -0.540779 -1.66435 0
      vertex -1.0306 -5.40258 0
    endloop
  endfacet
  facet normal -0 0 -1
    outer loop
      vertex -0.540779 -1.66435 0
      vertex -1.69959 -5.23081 0
      vertex -0.745113 -1.58345 0
    endloop
  endfacet
  facet normal 0 0 -1
    outer loop
      vertex -2.34179 -4.97655 0
      vertex -0.745113 -1.58345 0
      vertex -1.69959 -5.23081 0
    endloop
  endfacet
  facet normal -0 0 -1
    outer loop
      vertex -0.745113 -1.58345 0
      vertex -2.34179 -4.97655 0
      vertex -0.937696 -1.47757 0
    endloop
  endfacet
  facet normal 0 0 -1
    outer loop
      vertex -2.94705 -4.6438 0
      vertex -0.937696 -1.47757 0
      vertex -2.34179 -4.97655 0
    endloop
  endfacet
  facet normal -0 0 -1
    outer loop
      vertex -0.937696 -1.47757 0
      vertex -2.94705 -4.6438 0
      vertex -1.11549 -1.3484 0
    endloop
  endfacet
  facet normal 0 0 -1
    outer loop
      vertex -3.50583 -4.23782 0
      vertex -1.11549 -1.3484 0
      vertex -2.94705 -4.6438 0
    endloop
  endfacet
  facet normal -0 0 -1
    outer loop
      vertex -1.11549 -1.3484 0
      vertex -3.50583 -4.23782 0
      vertex -1.27569 -1.19796 0
    endloop
  endfacet
  facet normal 0 0 -1
    outer loop
      vertex -4.00933 -3.76501 0
      vertex -1.27569 -1.19796 0
      vertex -3.50583 -4.23782 0
    endloop
  endfacet
  facet normal -0 0 -1
    outer loop
      vertex -1.27569 -1.19796 0
      vertex -4.00933 -3.76501 0
      vertex -1.41578 -1.02862 0
    endloop
  endfacet
  facet normal 0 0 -1
    outer loop
      vertex -4.44959 -3.23282 0
      vertex -1.41578 -1.02862 0
      vertex -4.00933 -3.76501 0
    endloop
  endfacet
  facet normal -0 0 -1
    outer loop
      vertex -1.41578 -1.02862 0
      vertex -4.44959 -3.23282 0
      vertex -1.53354 -0.843068 0
    endloop
  endfacet
  facet normal 0 0 -1
    outer loop
      vertex 1.41578 1.02862 0
      vertex 4.44959 3.23282 0
      vertex 1.53354 0.843068 0
    endloop
  endfacet
  facet normal -0 0 -1
    outer loop
      vertex 4.44959 3.23282 0
      vertex 1.41578 1.02862 0
      vertex 4.00933 3.76501 0
    endloop
  endfacet
  facet normal 0 0 -1
    outer loop
      vertex 1.27569 1.19796 0
      vertex 4.00933 3.76501 0
      vertex 1.41578 1.02862 0
    endloop
  endfacet
  facet normal -0 0 -1
    outer loop
      vertex 4.00933 3.76501 0
      vertex 1.27569 1.19796 0
      vertex 3.50583 4.23782 0
    endloop
  endfacet
  facet normal 0 0 -1
    outer loop
      vertex 1.11549 1.3484 0
      vertex 3.50583 4.23782 0
      vertex 1.27569 1.19796 0
    endloop
  endfacet
  facet normal -0 0 -1
    outer loop
      vertex 3.50583 4.23782 0
      vertex 1.11549 1.3484 0
      vertex 2.94705 4.6438 0
    endloop
  endfacet
  facet normal 0 0 -1
    outer loop
      vertex 0.937696 1.47757 0
      vertex 2.94705 4.6438 0
      vertex 1.11549 1.3484 0
    endloop
  endfacet
  facet normal -0 0 -1
    outer loop
      vertex 2.94705 4.6438 0
      vertex 0.937696 1.47757 0
      vertex 2.34179 4.97655 0
    endloop
  endfacet
  facet normal 0 0 -1
    outer loop
      vertex 0.745113 1.58345 0
      vertex 2.34179 4.97655 0
      vertex 0.937696 1.47757 0
    endloop
  endfacet
  facet normal -0 0 -1
    outer loop
      vertex 2.34179 4.97655 0
      vertex 0.745113 1.58345 0
      vertex 1.69959 5.23081 0
    endloop
  endfacet
  facet normal 0 0 -1
    outer loop
      vertex 0.540779 1.66435 0
      vertex 1.69959 5.23081 0
      vertex 0.745113 1.58345 0
    endloop
  endfacet
  facet normal -0 0 -1
    outer loop
      vertex 1.69959 5.23081 0
      vertex 0.540779 1.66435 0
      vertex 1.0306 5.40258 0
    endloop
  endfacet
  facet normal 0 0 -1
    outer loop
      vertex 0.327917 1.719 0
      vertex 1.0306 5.40258 0
      vertex 0.540779 1.66435 0
    endloop
  endfacet
  facet normal -0 0 -1
    outer loop
      vertex 1.0306 5.40258 0
      vertex 0.327917 1.719 0
      vertex 0.345347 5.48915 0
    endloop
  endfacet
  facet normal 0 0 -1
    outer loop
      vertex 0.109883 1.74655 0
      vertex 0.345347 5.48915 0
      vertex 0.327917 1.719 0
    endloop
  endfacet
  facet normal 0 0 -1
    outer loop
      vertex -0.109883 1.74655 0
      vertex 0.345347 5.48915 0
      vertex 0.109883 1.74655 0
    endloop
  endfacet
  facet normal 0 0 -1
    outer loop
      vertex -0.345347 5.48915 0
      vertex -0.109883 1.74655 0
      vertex -0.327917 1.719 0
    endloop
  endfacet
  facet normal 0 0 -1
    outer loop
      vertex -0.109883 1.74655 0
      vertex -0.345347 5.48915 0
      vertex 0.345347 5.48915 0
    endloop
  endfacet
  facet normal 0 0 -1
    outer loop
      vertex -1.0306 5.40258 0
      vertex -0.327917 1.719 0
      vertex -0.540779 1.66435 0
    endloop
  endfacet
  facet normal 0 0 -1
    outer loop
      vertex -1.69959 5.23081 0
      vertex -0.540779 1.66435 0
      vertex -0.745113 1.58345 0
    endloop
  endfacet
  facet normal 0 0 -1
    outer loop
      vertex -2.34179 4.97655 0
      vertex -0.745113 1.58345 0
      vertex -0.937696 1.47757 0
    endloop
  endfacet
  facet normal 0 0 -1
    outer loop
      vertex -0.327917 1.719 0
      vertex -1.0306 5.40258 0
      vertex -0.345347 5.48915 0
    endloop
  endfacet
  facet normal 0 0 -1
    outer loop
      vertex -2.94705 4.6438 0
      vertex -0.937696 1.47757 0
      vertex -1.11549 1.3484 0
    endloop
  endfacet
  facet normal 0 0 -1
    outer loop
      vertex -3.50583 4.23782 0
      vertex -1.11549 1.3484 0
      vertex -1.27569 1.19796 0
    endloop
  endfacet
  facet normal 0 0 -1
    outer loop
      vertex -4.00933 3.76501 0
      vertex -1.27569 1.19796 0
      vertex -1.41578 1.02862 0
    endloop
  endfacet
  facet normal 0 0 -1
    outer loop
      vertex -4.44959 3.23282 0
      vertex -1.41578 1.02862 0
      vertex -1.53354 0.843068 0
    endloop
  endfacet
  facet normal 0 0 -1
    outer loop
      vertex -4.81969 2.64964 0
      vertex -1.53354 0.843068 0
      vertex -1.62711 0.644217 0
    endloop
  endfacet
  facet normal 0 0 -1
    outer loop
      vertex -5.11377 2.02468 0
      vertex -1.62711 0.644217 0
      vertex -1.69502 0.435206 0
    endloop
  endfacet
  facet normal 0 0 -1
    outer loop
      vertex -0.540779 1.66435 0
      vertex -1.69959 5.23081 0
      vertex -1.0306 5.40258 0
    endloop
  endfacet
  facet normal 0 0 -1
    outer loop
      vertex -5.32721 1.36779 0
      vertex -1.69502 0.435206 0
      vertex -1.7362 0.219333 0
    endloop
  endfacet
  facet normal 0 0 -1
    outer loop
      vertex -5.45663 0.689332 0
      vertex -1.7362 0.219333 0
      vertex -1.75 0 0
    endloop
  endfacet
  facet normal 0 0 -1
    outer loop
      vertex -4.81969 -2.64964 0
      vertex -1.53354 -0.843068 0
      vertex -4.44959 -3.23282 0
    endloop
  endfacet
  facet normal 0 0 -1
    outer loop
      vertex -0.745113 1.58345 0
      vertex -2.34179 4.97655 0
      vertex -1.69959 5.23081 0
    endloop
  endfacet
  facet normal -0 0 -1
    outer loop
      vertex -1.53354 -0.843068 0
      vertex -4.81969 -2.64964 0
      vertex -1.62711 -0.644217 0
    endloop
  endfacet
  facet normal 0 0 -1
    outer loop
      vertex -0.937696 1.47757 0
      vertex -2.94705 4.6438 0
      vertex -2.34179 4.97655 0
    endloop
  endfacet
  facet normal 0 0 -1
    outer loop
      vertex -5.11377 -2.02468 0
      vertex -1.62711 -0.644217 0
      vertex -4.81969 -2.64964 0
    endloop
  endfacet
  facet normal 0 0 -1
    outer loop
      vertex -1.11549 1.3484 0
      vertex -3.50583 4.23782 0
      vertex -2.94705 4.6438 0
    endloop
  endfacet
  facet normal -0 0 -1
    outer loop
      vertex -1.62711 -0.644217 0
      vertex -5.11377 -2.02468 0
      vertex -1.69502 -0.435206 0
    endloop
  endfacet
  facet normal 0 0 -1
    outer loop
      vertex -1.27569 1.19796 0
      vertex -4.00933 3.76501 0
      vertex -3.50583 4.23782 0
    endloop
  endfacet
  facet normal 0 0 -1
    outer loop
      vertex -5.32721 -1.36779 0
      vertex -1.69502 -0.435206 0
      vertex -5.11377 -2.02468 0
    endloop
  endfacet
  facet normal 0 0 -1
    outer loop
      vertex -1.41578 1.02862 0
      vertex -4.44959 3.23282 0
      vertex -4.00933 3.76501 0
    endloop
  endfacet
  facet normal -0 0 -1
    outer loop
      vertex -1.69502 -0.435206 0
      vertex -5.32721 -1.36779 0
      vertex -1.7362 -0.219333 0
    endloop
  endfacet
  facet normal 0 0 -1
    outer loop
      vertex -1.53354 0.843068 0
      vertex -4.81969 2.64964 0
      vertex -4.44959 3.23282 0
    endloop
  endfacet
  facet normal 0 0 -1
    outer loop
      vertex -5.45663 -0.689332 0
      vertex -1.7362 -0.219333 0
      vertex -5.32721 -1.36779 0
    endloop
  endfacet
  facet normal 0 0 -1
    outer loop
      vertex -1.62711 0.644217 0
      vertex -5.11377 2.02468 0
      vertex -4.81969 2.64964 0
    endloop
  endfacet
  facet normal -0 0 -1
    outer loop
      vertex -1.7362 -0.219333 0
      vertex -5.45663 -0.689332 0
      vertex -1.75 0 0
    endloop
  endfacet
  facet normal 0 0 -1
    outer loop
      vertex -1.69502 0.435206 0
      vertex -5.32721 1.36779 0
      vertex -5.11377 2.02468 0
    endloop
  endfacet
  facet normal 0 0 -1
    outer loop
      vertex -5.5 0 0
      vertex -1.75 0 0
      vertex -5.45663 -0.689332 0
    endloop
  endfacet
  facet normal 0 0 -1
    outer loop
      vertex -1.7362 0.219333 0
      vertex -5.45663 0.689332 0
      vertex -5.32721 1.36779 0
    endloop
  endfacet
  facet normal 0 0 -1
    outer loop
      vertex -1.75 0 0
      vertex -5.5 0 0
      vertex -5.45663 0.689332 0
    endloop
  endfacet
  facet normal -0.770512 0.637425 0
    outer loop
      vertex -3.64058 2.64503 3
      vertex -3.28036 3.08046 12
      vertex -3.28036 3.08046 3
    endloop
  endfacet
  facet normal -0.770512 0.637425 0
    outer loop
      vertex -3.28036 3.08046 12
      vertex -3.64058 2.64503 3
      vertex -3.64058 2.64503 12
    endloop
  endfacet
  facet normal 0.982288 0.187377 0
    outer loop
      vertex 5.45663 0.689332 2
      vertex 5.32721 1.36779 0
      vertex 5.32721 1.36779 2
    endloop
  endfacet
  facet normal 0.982288 0.187377 0
    outer loop
      vertex 5.32721 1.36779 0
      vertex 5.45663 0.689332 2
      vertex 5.45663 0.689332 0
    endloop
  endfacet
  facet normal 0.998027 0.0627918 0
    outer loop
      vertex 5.5 0 2
      vertex 5.45663 0.689332 0
      vertex 5.45663 0.689332 2
    endloop
  endfacet
  facet normal 0.998027 0.0627918 0
    outer loop
      vertex 5.45663 0.689332 0
      vertex 5.5 0 2
      vertex 5.5 0 0
    endloop
  endfacet
  facet normal 0.951055 0.309022 0
    outer loop
      vertex 5.32721 1.36779 2
      vertex 5.11377 2.02468 0
      vertex 5.11377 2.02468 2
    endloop
  endfacet
  facet normal 0.951055 0.309022 0
    outer loop
      vertex 5.11377 2.02468 0
      vertex 5.32721 1.36779 2
      vertex 5.32721 1.36779 0
    endloop
  endfacet
  facet normal 0.951055 -0.309022 0
    outer loop
      vertex 5.11377 -2.02468 2
      vertex 5.32721 -1.36779 0
      vertex 5.32721 -1.36779 2
    endloop
  endfacet
  facet normal 0.951055 -0.309022 0
    outer loop
      vertex 5.32721 -1.36779 0
      vertex 5.11377 -2.02468 2
      vertex 5.11377 -2.02468 0
    endloop
  endfacet
  facet normal 0.368118 0.929779 -0
    outer loop
      vertex 2.34179 4.97655 0
      vertex 1.69959 5.23081 2
      vertex 2.34179 4.97655 2
    endloop
  endfacet
  facet normal 0.368118 0.929779 0
    outer loop
      vertex 1.69959 5.23081 2
      vertex 2.34179 4.97655 0
      vertex 1.69959 5.23081 0
    endloop
  endfacet
  facet normal -0.587788 -0.809015 0
    outer loop
      vertex -3.50583 -4.23782 0
      vertex -2.94705 -4.6438 2
      vertex -3.50583 -4.23782 2
    endloop
  endfacet
  facet normal -0.587788 -0.809015 -0
    outer loop
      vertex -2.94705 -4.6438 2
      vertex -3.50583 -4.23782 0
      vertex -2.94705 -4.6438 0
    endloop
  endfacet
  facet normal 0.998027 -0.0627918 0
    outer loop
      vertex 5.45663 -0.689332 2
      vertex 5.5 0 0
      vertex 5.5 0 2
    endloop
  endfacet
  facet normal 0.998027 -0.0627918 0
    outer loop
      vertex 5.5 0 0
      vertex 5.45663 -0.689332 2
      vertex 5.45663 -0.689332 0
    endloop
  endfacet
  facet normal 0.904829 0.425775 0
    outer loop
      vertex 5.11377 2.02468 2
      vertex 4.81969 2.64964 0
      vertex 4.81969 2.64964 2
    endloop
  endfacet
  facet normal 0.904829 0.425775 0
    outer loop
      vertex 4.81969 2.64964 0
      vertex 5.11377 2.02468 2
      vertex 5.11377 2.02468 0
    endloop
  endfacet
  facet normal -0.125337 0.992114 0
    outer loop
      vertex -0.345347 5.48915 0
      vertex -1.0306 5.40258 2
      vertex -0.345347 5.48915 2
    endloop
  endfacet
  facet normal -0.125337 0.992114 0
    outer loop
      vertex -1.0306 5.40258 2
      vertex -0.345347 5.48915 0
      vertex -1.0306 5.40258 0
    endloop
  endfacet
  facet normal 0 1 -0
    outer loop
      vertex 0.345347 5.48915 0
      vertex -0.345347 5.48915 2
      vertex 0.345347 5.48915 2
    endloop
  endfacet
  facet normal 0 1 0
    outer loop
      vertex -0.345347 5.48915 2
      vertex 0.345347 5.48915 0
      vertex -0.345347 5.48915 0
    endloop
  endfacet
  facet normal 0.844326 0.53583 0
    outer loop
      vertex 4.81969 2.64964 2
      vertex 4.44959 3.23282 0
      vertex 4.44959 3.23282 2
    endloop
  endfacet
  facet normal 0.844326 0.53583 0
    outer loop
      vertex 4.44959 3.23282 0
      vertex 4.81969 2.64964 2
      vertex 4.81969 2.64964 0
    endloop
  endfacet
  facet normal -0.368118 -0.929779 0
    outer loop
      vertex -2.34179 -4.97655 0
      vertex -1.69959 -5.23081 2
      vertex -2.34179 -4.97655 2
    endloop
  endfacet
  facet normal -0.368118 -0.929779 -0
    outer loop
      vertex -1.69959 -5.23081 2
      vertex -2.34179 -4.97655 0
      vertex -1.69959 -5.23081 0
    endloop
  endfacet
  facet normal 0.587788 -0.809015 0
    outer loop
      vertex 2.94705 -4.6438 0
      vertex 3.50583 -4.23782 2
      vertex 2.94705 -4.6438 2
    endloop
  endfacet
  facet normal 0.587788 -0.809015 0
    outer loop
      vertex 3.50583 -4.23782 2
      vertex 2.94705 -4.6438 0
      vertex 3.50583 -4.23782 0
    endloop
  endfacet
  facet normal -0.982288 -0.187377 0
    outer loop
      vertex -5.32721 -1.36779 0
      vertex -5.45663 -0.689332 2
      vertex -5.45663 -0.689332 0
    endloop
  endfacet
  facet normal -0.982288 -0.187377 0
    outer loop
      vertex -5.45663 -0.689332 2
      vertex -5.32721 -1.36779 0
      vertex -5.32721 -1.36779 2
    endloop
  endfacet
  facet normal -0.770517 -0.637419 0
    outer loop
      vertex -4.00933 -3.76501 0
      vertex -4.44959 -3.23282 2
      vertex -4.44959 -3.23282 0
    endloop
  endfacet
  facet normal -0.770517 -0.637419 0
    outer loop
      vertex -4.44959 -3.23282 2
      vertex -4.00933 -3.76501 0
      vertex -4.00933 -3.76501 2
    endloop
  endfacet
  facet normal -0.48176 0.876303 0
    outer loop
      vertex -2.34179 4.97655 0
      vertex -2.94705 4.6438 2
      vertex -2.34179 4.97655 2
    endloop
  endfacet
  facet normal -0.48176 0.876303 0
    outer loop
      vertex -2.94705 4.6438 2
      vertex -2.34179 4.97655 0
      vertex -2.94705 4.6438 0
    endloop
  endfacet
  facet normal 0.982288 -0.187377 0
    outer loop
      vertex 5.32721 -1.36779 2
      vertex 5.45663 -0.689332 0
      vertex 5.45663 -0.689332 2
    endloop
  endfacet
  facet normal 0.982288 -0.187377 0
    outer loop
      vertex 5.45663 -0.689332 0
      vertex 5.32721 -1.36779 2
      vertex 5.32721 -1.36779 0
    endloop
  endfacet
  facet normal 0.48176 -0.876303 0
    outer loop
      vertex 2.34179 -4.97655 0
      vertex 2.94705 -4.6438 2
      vertex 2.34179 -4.97655 2
    endloop
  endfacet
  facet normal 0.48176 -0.876303 0
    outer loop
      vertex 2.94705 -4.6438 2
      vertex 2.34179 -4.97655 0
      vertex 2.94705 -4.6438 0
    endloop
  endfacet
  facet normal -0.684541 0.728974 0
    outer loop
      vertex -3.50583 4.23782 0
      vertex -4.00933 3.76501 2
      vertex -3.50583 4.23782 2
    endloop
  endfacet
  facet normal -0.684541 0.728974 0
    outer loop
      vertex -4.00933 3.76501 2
      vertex -3.50583 4.23782 0
      vertex -4.00933 3.76501 0
    endloop
  endfacet
  facet normal 0.368118 -0.929779 0
    outer loop
      vertex 1.69959 -5.23081 0
      vertex 2.34179 -4.97655 2
      vertex 1.69959 -5.23081 2
    endloop
  endfacet
  facet normal 0.368118 -0.929779 0
    outer loop
      vertex 2.34179 -4.97655 2
      vertex 1.69959 -5.23081 0
      vertex 2.34179 -4.97655 0
    endloop
  endfacet
  facet normal 0.248693 -0.968582 0
    outer loop
      vertex 1.0306 -5.40258 0
      vertex 1.69959 -5.23081 2
      vertex 1.0306 -5.40258 2
    endloop
  endfacet
  facet normal 0.248693 -0.968582 0
    outer loop
      vertex 1.69959 -5.23081 2
      vertex 1.0306 -5.40258 0
      vertex 1.69959 -5.23081 0
    endloop
  endfacet
  facet normal 0.48176 0.876303 -0
    outer loop
      vertex 2.94705 4.6438 0
      vertex 2.34179 4.97655 2
      vertex 2.94705 4.6438 2
    endloop
  endfacet
  facet normal 0.48176 0.876303 0
    outer loop
      vertex 2.34179 4.97655 2
      vertex 2.94705 4.6438 0
      vertex 2.34179 4.97655 0
    endloop
  endfacet
  facet normal 0.587788 0.809015 -0
    outer loop
      vertex 3.50583 4.23782 0
      vertex 2.94705 4.6438 2
      vertex 3.50583 4.23782 2
    endloop
  endfacet
  facet normal 0.587788 0.809015 0
    outer loop
      vertex 2.94705 4.6438 2
      vertex 3.50583 4.23782 0
      vertex 2.94705 4.6438 0
    endloop
  endfacet
  facet normal -0.998027 -0.0627918 0
    outer loop
      vertex -5.45663 -0.689332 0
      vertex -5.5 0 2
      vertex -5.5 0 0
    endloop
  endfacet
  facet normal -0.998027 -0.0627918 0
    outer loop
      vertex -5.5 0 2
      vertex -5.45663 -0.689332 0
      vertex -5.45663 -0.689332 2
    endloop
  endfacet
  facet normal -0.844326 -0.53583 0
    outer loop
      vertex -4.44959 -3.23282 0
      vertex -4.81969 -2.64964 2
      vertex -4.81969 -2.64964 0
    endloop
  endfacet
  facet normal -0.844326 -0.53583 0
    outer loop
      vertex -4.81969 -2.64964 2
      vertex -4.44959 -3.23282 0
      vertex -4.44959 -3.23282 2
    endloop
  endfacet
  facet normal 0.904829 -0.425775 0
    outer loop
      vertex 4.81969 -2.64964 2
      vertex 5.11377 -2.02468 0
      vertex 5.11377 -2.02468 2
    endloop
  endfacet
  facet normal 0.904829 -0.425775 0
    outer loop
      vertex 5.11377 -2.02468 0
      vertex 4.81969 -2.64964 2
      vertex 4.81969 -2.64964 0
    endloop
  endfacet
  facet normal -0.684541 -0.728974 0
    outer loop
      vertex -4.00933 -3.76501 0
      vertex -3.50583 -4.23782 2
      vertex -4.00933 -3.76501 2
    endloop
  endfacet
  facet normal -0.684541 -0.728974 -0
    outer loop
      vertex -3.50583 -4.23782 2
      vertex -4.00933 -3.76501 0
      vertex -3.50583 -4.23782 0
    endloop
  endfacet
  facet normal -0.951055 0.309022 0
    outer loop
      vertex -5.32721 1.36779 0
      vertex -5.11377 2.02468 2
      vertex -5.11377 2.02468 0
    endloop
  endfacet
  facet normal -0.951055 0.309022 0
    outer loop
      vertex -5.11377 2.02468 2
      vertex -5.32721 1.36779 0
      vertex -5.32721 1.36779 2
    endloop
  endfacet
  facet normal -0.951055 -0.309022 0
    outer loop
      vertex -5.11377 -2.02468 0
      vertex -5.32721 -1.36779 2
      vertex -5.32721 -1.36779 0
    endloop
  endfacet
  facet normal -0.951055 -0.309022 0
    outer loop
      vertex -5.32721 -1.36779 2
      vertex -5.11377 -2.02468 0
      vertex -5.11377 -2.02468 2
    endloop
  endfacet
  facet normal 0.684541 0.728974 -0
    outer loop
      vertex 4.00933 3.76501 0
      vertex 3.50583 4.23782 2
      vertex 4.00933 3.76501 2
    endloop
  endfacet
  facet normal 0.684541 0.728974 0
    outer loop
      vertex 3.50583 4.23782 2
      vertex 4.00933 3.76501 0
      vertex 3.50583 4.23782 0
    endloop
  endfacet
  facet normal 0 -1 0
    outer loop
      vertex -0.345347 -5.48915 0
      vertex 0.345347 -5.48915 2
      vertex -0.345347 -5.48915 2
    endloop
  endfacet
  facet normal 0 -1 -0
    outer loop
      vertex 0.345347 -5.48915 2
      vertex -0.345347 -5.48915 0
      vertex 0.345347 -5.48915 0
    endloop
  endfacet
  facet normal 0.844326 -0.53583 0
    outer loop
      vertex 4.44959 -3.23282 2
      vertex 4.81969 -2.64964 0
      vertex 4.81969 -2.64964 2
    endloop
  endfacet
  facet normal 0.844326 -0.53583 0
    outer loop
      vertex 4.81969 -2.64964 0
      vertex 4.44959 -3.23282 2
      vertex 4.44959 -3.23282 0
    endloop
  endfacet
  facet normal 0.125337 -0.992114 0
    outer loop
      vertex 0.345347 -5.48915 0
      vertex 1.0306 -5.40258 2
      vertex 0.345347 -5.48915 2
    endloop
  endfacet
  facet normal 0.125337 -0.992114 0
    outer loop
      vertex 1.0306 -5.40258 2
      vertex 0.345347 -5.48915 0
      vertex 1.0306 -5.40258 0
    endloop
  endfacet
  facet normal -0.368118 0.929779 0
    outer loop
      vertex -1.69959 5.23081 0
      vertex -2.34179 4.97655 2
      vertex -1.69959 5.23081 2
    endloop
  endfacet
  facet normal -0.368118 0.929779 0
    outer loop
      vertex -2.34179 4.97655 2
      vertex -1.69959 5.23081 0
      vertex -2.34179 4.97655 0
    endloop
  endfacet
  facet normal -0.982288 0.187377 0
    outer loop
      vertex -5.45663 0.689332 0
      vertex -5.32721 1.36779 2
      vertex -5.32721 1.36779 0
    endloop
  endfacet
  facet normal -0.982288 0.187377 0
    outer loop
      vertex -5.32721 1.36779 2
      vertex -5.45663 0.689332 0
      vertex -5.45663 0.689332 2
    endloop
  endfacet
  facet normal 0.684541 -0.728974 0
    outer loop
      vertex 3.50583 -4.23782 0
      vertex 4.00933 -3.76501 2
      vertex 3.50583 -4.23782 2
    endloop
  endfacet
  facet normal 0.684541 -0.728974 0
    outer loop
      vertex 4.00933 -3.76501 2
      vertex 3.50583 -4.23782 0
      vertex 4.00933 -3.76501 0
    endloop
  endfacet
  facet normal -0.248693 -0.968582 0
    outer loop
      vertex -1.69959 -5.23081 0
      vertex -1.0306 -5.40258 2
      vertex -1.69959 -5.23081 2
    endloop
  endfacet
  facet normal -0.248693 -0.968582 -0
    outer loop
      vertex -1.0306 -5.40258 2
      vertex -1.69959 -5.23081 0
      vertex -1.0306 -5.40258 0
    endloop
  endfacet
  facet normal -0.125337 -0.992114 0
    outer loop
      vertex -1.0306 -5.40258 0
      vertex -0.345347 -5.48915 2
      vertex -1.0306 -5.40258 2
    endloop
  endfacet
  facet normal -0.125337 -0.992114 -0
    outer loop
      vertex -0.345347 -5.48915 2
      vertex -1.0306 -5.40258 0
      vertex -0.345347 -5.48915 0
    endloop
  endfacet
  facet normal -0.587788 0.809015 0
    outer loop
      vertex -2.94705 4.6438 0
      vertex -3.50583 4.23782 2
      vertex -2.94705 4.6438 2
    endloop
  endfacet
  facet normal -0.587788 0.809015 0
    outer loop
      vertex -3.50583 4.23782 2
      vertex -2.94705 4.6438 0
      vertex -3.50583 4.23782 0
    endloop
  endfacet
  facet normal 0.770517 0.637419 0
    outer loop
      vertex 4.44959 3.23282 2
      vertex 4.00933 3.76501 0
      vertex 4.00933 3.76501 2
    endloop
  endfacet
  facet normal 0.770517 0.637419 0
    outer loop
      vertex 4.00933 3.76501 0
      vertex 4.44959 3.23282 2
      vertex 4.44959 3.23282 0
    endloop
  endfacet
  facet normal 0.248693 0.968582 -0
    outer loop
      vertex 1.69959 5.23081 0
      vertex 1.0306 5.40258 2
      vertex 1.69959 5.23081 2
    endloop
  endfacet
  facet normal 0.248693 0.968582 0
    outer loop
      vertex 1.0306 5.40258 2
      vertex 1.69959 5.23081 0
      vertex 1.0306 5.40258 0
    endloop
  endfacet
  facet normal 0.770517 -0.637419 0
    outer loop
      vertex 4.00933 -3.76501 2
      vertex 4.44959 -3.23282 0
      vertex 4.44959 -3.23282 2
    endloop
  endfacet
  facet normal 0.770517 -0.637419 0
    outer loop
      vertex 4.44959 -3.23282 0
      vertex 4.00933 -3.76501 2
      vertex 4.00933 -3.76501 0
    endloop
  endfacet
  facet normal 0.125337 0.992114 -0
    outer loop
      vertex 1.0306 5.40258 0
      vertex 0.345347 5.48915 2
      vertex 1.0306 5.40258 2
    endloop
  endfacet
  facet normal 0.125337 0.992114 0
    outer loop
      vertex 0.345347 5.48915 2
      vertex 1.0306 5.40258 0
      vertex 0.345347 5.48915 0
    endloop
  endfacet
  facet normal -0.248693 0.968582 0
    outer loop
      vertex -1.0306 5.40258 0
      vertex -1.69959 5.23081 2
      vertex -1.0306 5.40258 2
    endloop
  endfacet
  facet normal -0.248693 0.968582 0
    outer loop
      vertex -1.69959 5.23081 2
      vertex -1.0306 5.40258 0
      vertex -1.69959 5.23081 0
    endloop
  endfacet
  facet normal -0.998027 0.0627918 0
    outer loop
      vertex -5.5 0 0
      vertex -5.45663 0.689332 2
      vertex -5.45663 0.689332 0
    endloop
  endfacet
  facet normal -0.998027 0.0627918 0
    outer loop
      vertex -5.45663 0.689332 2
      vertex -5.5 0 0
      vertex -5.5 0 2
    endloop
  endfacet
  facet normal -0.770517 0.637419 0
    outer loop
      vertex -4.44959 3.23282 0
      vertex -4.00933 3.76501 2
      vertex -4.00933 3.76501 0
    endloop
  endfacet
  facet normal -0.770517 0.637419 0
    outer loop
      vertex -4.00933 3.76501 2
      vertex -4.44959 3.23282 0
      vertex -4.44959 3.23282 2
    endloop
  endfacet
  facet normal -0.904829 -0.425775 0
    outer loop
      vertex -4.81969 -2.64964 0
      vertex -5.11377 -2.02468 2
      vertex -5.11377 -2.02468 0
    endloop
  endfacet
  facet normal -0.904829 -0.425775 0
    outer loop
      vertex -5.11377 -2.02468 2
      vertex -4.81969 -2.64964 0
      vertex -4.81969 -2.64964 2
    endloop
  endfacet
  facet normal -0.48176 -0.876303 0
    outer loop
      vertex -2.94705 -4.6438 0
      vertex -2.34179 -4.97655 2
      vertex -2.94705 -4.6438 2
    endloop
  endfacet
  facet normal -0.48176 -0.876303 -0
    outer loop
      vertex -2.34179 -4.97655 2
      vertex -2.94705 -4.6438 0
      vertex -2.34179 -4.97655 0
    endloop
  endfacet
  facet normal -0.844326 0.53583 0
    outer loop
      vertex -4.81969 2.64964 0
      vertex -4.44959 3.23282 2
      vertex -4.44959 3.23282 0
    endloop
  endfacet
  facet normal -0.844326 0.53583 0
    outer loop
      vertex -4.44959 3.23282 2
      vertex -4.81969 2.64964 0
      vertex -4.81969 2.64964 2
    endloop
  endfacet
  facet normal -0.904829 0.425775 0
    outer loop
      vertex -5.11377 2.02468 0
      vertex -4.81969 2.64964 2
      vertex -4.81969 2.64964 0
    endloop
  endfacet
  facet normal -0.904829 0.425775 0
    outer loop
      vertex -4.81969 2.64964 2
      vertex -5.11377 2.02468 0
      vertex -5.11377 2.02468 2
    endloop
  endfacet
  facet normal 0.706408 0.0444444 0.706408
    outer loop
      vertex 5.45663 0.689332 2
      vertex 4.5 0 3
      vertex 5.5 0 2
    endloop
  endfacet
  facet normal 0.416038 0.572624 0.706409
    outer loop
      vertex 2.94705 4.6438 2
      vertex 2.41122 3.79947 3
      vertex 3.50583 4.23782 2
    endloop
  endfacet
  facet normal 0.176024 0.685566 0.706409
    outer loop
      vertex 1.0306 5.40258 2
      vertex 0.843215 4.42029 3
      vertex 1.39058 4.27975 3
    endloop
  endfacet
  facet normal -0.340993 0.62025 0.706409
    outer loop
      vertex -2.34179 4.97655 2
      vertex -2.41122 3.79947 3
      vertex -1.91601 4.07172 3
    endloop
  endfacet
  facet normal -0.416038 -0.572624 0.706409
    outer loop
      vertex -2.41122 -3.79947 3
      vertex -3.50583 -4.23782 2
      vertex -2.94705 -4.6438 2
    endloop
  endfacet
  facet normal 0.597619 0.379263 0.706407
    outer loop
      vertex 4.44959 3.23282 2
      vertex 3.64058 2.64503 3
      vertex 4.81969 2.64964 2
    endloop
  endfacet
  facet normal -0.695266 -0.132626 0.70641
    outer loop
      vertex -4.35862 -1.1191 3
      vertex -5.45663 -0.689332 2
      vertex -5.32721 -1.36779 2
    endloop
  endfacet
  facet normal -0.484521 -0.515971 0.706409
    outer loop
      vertex -3.28036 -3.08046 3
      vertex -4.00933 -3.76501 2
      vertex -3.50583 -4.23782 2
    endloop
  endfacet
  facet normal 0.340991 -0.620251 0.706409
    outer loop
      vertex 2.41122 -3.79947 3
      vertex 2.34179 -4.97655 2
      vertex 2.94705 -4.6438 2
    endloop
  endfacet
  facet normal -0.640442 0.301365 0.706409
    outer loop
      vertex -3.94338 2.16789 3
      vertex -5.11377 2.02468 2
      vertex -4.18399 1.65656 3
    endloop
  endfacet
  facet normal 0.260557 0.6581 0.706409
    outer loop
      vertex 2.34179 4.97655 2
      vertex 1.39058 4.27975 3
      vertex 1.91601 4.07172 3
    endloop
  endfacet
  facet normal -0.0887138 -0.702222 0.706409
    outer loop
      vertex -0.282557 -4.49112 3
      vertex -1.0306 -5.40258 2
      vertex -0.345347 -5.48915 2
    endloop
  endfacet
  facet normal 0.706408 -0.0444444 0.706408
    outer loop
      vertex 5.5 0 2
      vertex 4.5 0 3
      vertex 5.45663 -0.689332 2
    endloop
  endfacet
  facet normal 0.176026 0.685567 0.706409
    outer loop
      vertex 1.69959 5.23081 2
      vertex 1.0306 5.40258 2
      vertex 1.39058 4.27975 3
    endloop
  endfacet
  facet normal -0.706408 0.0444444 0.706408
    outer loop
      vertex -5.45663 0.689332 2
      vertex -5.5 0 2
      vertex -4.5 0 3
    endloop
  endfacet
  facet normal 0.340993 0.62025 0.706409
    outer loop
      vertex 2.34179 4.97655 2
      vertex 1.91601 4.07172 3
      vertex 2.41122 3.79947 3
    endloop
  endfacet
  facet normal 0.597619 -0.379263 0.706407
    outer loop
      vertex 4.81969 -2.64964 2
      vertex 3.64058 -2.64503 3
      vertex 4.44959 -3.23282 2
    endloop
  endfacet
  facet normal 0.673159 -0.218726 0.70641
    outer loop
      vertex 5.32721 -1.36779 2
      vertex 4.35862 -1.1191 3
      vertex 5.11377 -2.02468 2
    endloop
  endfacet
  facet normal -0.695268 0.13264 0.706406
    outer loop
      vertex -4.35862 1.1191 3
      vertex -5.45663 0.689332 2
      vertex -4.46452 0.563999 3
    endloop
  endfacet
  facet normal 0.640442 0.301365 0.706408
    outer loop
      vertex 4.81969 2.64964 2
      vertex 3.94338 2.16789 3
      vertex 5.11377 2.02468 2
    endloop
  endfacet
  facet normal 0.484529 -0.515967 0.706406
    outer loop
      vertex 3.28036 -3.08046 3
      vertex 2.86841 -3.46731 3
      vertex 3.50583 -4.23782 2
    endloop
  endfacet
  facet normal 0.59762 0.379259 0.706408
    outer loop
      vertex 4.81969 2.64964 2
      vertex 3.64058 2.64503 3
      vertex 3.94338 2.16789 3
    endloop
  endfacet
  facet normal 0.545376 -0.451169 0.706407
    outer loop
      vertex 4.44959 -3.23282 2
      vertex 3.64058 -2.64503 3
      vertex 4.00933 -3.76501 2
    endloop
  endfacet
  facet normal -0.484529 0.515967 0.706406
    outer loop
      vertex -2.86841 3.46731 3
      vertex -3.50583 4.23782 2
      vertex -3.28036 3.08046 3
    endloop
  endfacet
  facet normal 0.340991 0.620251 0.706409
    outer loop
      vertex 2.94705 4.6438 2
      vertex 2.34179 4.97655 2
      vertex 2.41122 3.79947 3
    endloop
  endfacet
  facet normal -0.484521 0.515971 0.706409
    outer loop
      vertex -3.50583 4.23782 2
      vertex -4.00933 3.76501 2
      vertex -3.28036 3.08046 3
    endloop
  endfacet
  facet normal -0.416038 0.572624 0.706409
    outer loop
      vertex -2.94705 4.6438 2
      vertex -3.50583 4.23782 2
      vertex -2.41122 3.79947 3
    endloop
  endfacet
  facet normal -0.59762 0.379259 0.706408
    outer loop
      vertex -3.64058 2.64503 3
      vertex -4.81969 2.64964 2
      vertex -3.94338 2.16789 3
    endloop
  endfacet
  facet normal 0.545376 0.451169 0.706407
    outer loop
      vertex 4.00933 3.76501 2
      vertex 3.64058 2.64503 3
      vertex 4.44959 3.23282 2
    endloop
  endfacet
  facet normal 0.59762 -0.379259 0.706408
    outer loop
      vertex 3.94338 -2.16789 3
      vertex 3.64058 -2.64503 3
      vertex 4.81969 -2.64964 2
    endloop
  endfacet
  facet normal -0.340991 0.620251 0.706409
    outer loop
      vertex -2.34179 4.97655 2
      vertex -2.94705 4.6438 2
      vertex -2.41122 3.79947 3
    endloop
  endfacet
  facet normal 0.260556 0.658102 0.706408
    outer loop
      vertex 1.69959 5.23081 2
      vertex 1.39058 4.27975 3
      vertex 2.34179 4.97655 2
    endloop
  endfacet
  facet normal 0.484521 0.515971 0.706409
    outer loop
      vertex 3.50583 4.23782 2
      vertex 3.28036 3.08046 3
      vertex 4.00933 3.76501 2
    endloop
  endfacet
  facet normal -0.597619 0.379263 0.706407
    outer loop
      vertex -4.44959 3.23282 2
      vertex -4.81969 2.64964 2
      vertex -3.64058 2.64503 3
    endloop
  endfacet
  facet normal -0.673162 0.218722 0.706409
    outer loop
      vertex -4.18399 1.65656 3
      vertex -5.11377 2.02468 2
      vertex -4.35862 1.1191 3
    endloop
  endfacet
  facet normal -0.0887143 -0.702222 0.706409
    outer loop
      vertex -0.843215 -4.42029 3
      vertex -1.0306 -5.40258 2
      vertex -0.282557 -4.49112 3
    endloop
  endfacet
  facet normal -0.260557 -0.6581 0.706409
    outer loop
      vertex -1.91601 -4.07172 3
      vertex -2.34179 -4.97655 2
      vertex -1.39058 -4.27975 3
    endloop
  endfacet
  facet normal -0.59762 -0.379259 0.706408
    outer loop
      vertex -3.94338 -2.16789 3
      vertex -4.81969 -2.64964 2
      vertex -3.64058 -2.64503 3
    endloop
  endfacet
  facet normal -0.545372 -0.451172 0.706409
    outer loop
      vertex -3.64058 -2.64503 3
      vertex -4.00933 -3.76501 2
      vertex -3.28036 -3.08046 3
    endloop
  endfacet
  facet normal 0.416032 -0.572632 0.706406
    outer loop
      vertex 2.86841 -3.46731 3
      vertex 2.41122 -3.79947 3
      vertex 3.50583 -4.23782 2
    endloop
  endfacet
  facet normal -0.545376 -0.451169 0.706407
    outer loop
      vertex -3.64058 -2.64503 3
      vertex -4.44959 -3.23282 2
      vertex -4.00933 -3.76501 2
    endloop
  endfacet
  facet normal 0.176026 -0.685567 0.706409
    outer loop
      vertex 1.39058 -4.27975 3
      vertex 1.0306 -5.40258 2
      vertex 1.69959 -5.23081 2
    endloop
  endfacet
  facet normal -0.416032 0.572632 0.706406
    outer loop
      vertex -2.41122 3.79947 3
      vertex -3.50583 4.23782 2
      vertex -2.86841 3.46731 3
    endloop
  endfacet
  facet normal -0.70641 -0.0444388 0.706406
    outer loop
      vertex -4.5 0 3
      vertex -5.45663 -0.689332 2
      vertex -4.46452 -0.563999 3
    endloop
  endfacet
  facet normal -0.706408 -0.0444444 0.706408
    outer loop
      vertex -4.5 0 3
      vertex -5.5 0 2
      vertex -5.45663 -0.689332 2
    endloop
  endfacet
  facet normal -0.640442 0.301365 0.706408
    outer loop
      vertex -4.81969 2.64964 2
      vertex -5.11377 2.02468 2
      vertex -3.94338 2.16789 3
    endloop
  endfacet
  facet normal -0.176024 0.685566 0.706409
    outer loop
      vertex -1.0306 5.40258 2
      vertex -1.39058 4.27975 3
      vertex -0.843215 4.42029 3
    endloop
  endfacet
  facet normal 0.695268 0.13264 0.706406
    outer loop
      vertex 5.45663 0.689332 2
      vertex 4.35862 1.1191 3
      vertex 4.46452 0.563999 3
    endloop
  endfacet
  facet normal -0.176026 -0.685567 0.706409
    outer loop
      vertex -1.39058 -4.27975 3
      vertex -1.69959 -5.23081 2
      vertex -1.0306 -5.40258 2
    endloop
  endfacet
  facet normal 0.340993 -0.62025 0.706409
    outer loop
      vertex 2.41122 -3.79947 3
      vertex 1.91601 -4.07172 3
      vertex 2.34179 -4.97655 2
    endloop
  endfacet
  facet normal -0.695268 -0.13264 0.706406
    outer loop
      vertex -4.46452 -0.563999 3
      vertex -5.45663 -0.689332 2
      vertex -4.35862 -1.1191 3
    endloop
  endfacet
  facet normal 0.673162 -0.218722 0.706409
    outer loop
      vertex 4.35862 -1.1191 3
      vertex 4.18399 -1.65656 3
      vertex 5.11377 -2.02468 2
    endloop
  endfacet
  facet normal -0.695266 0.132626 0.70641
    outer loop
      vertex -5.32721 1.36779 2
      vertex -5.45663 0.689332 2
      vertex -4.35862 1.1191 3
    endloop
  endfacet
  facet normal 0.416038 -0.572624 0.706409
    outer loop
      vertex 3.50583 -4.23782 2
      vertex 2.41122 -3.79947 3
      vertex 2.94705 -4.6438 2
    endloop
  endfacet
  facet normal 0.0887138 -0.702222 0.706409
    outer loop
      vertex 1.0306 -5.40258 2
      vertex 0.282557 -4.49112 3
      vertex 0.345347 -5.48915 2
    endloop
  endfacet
  facet normal -0.673159 0.218726 0.70641
    outer loop
      vertex -5.11377 2.02468 2
      vertex -5.32721 1.36779 2
      vertex -4.35862 1.1191 3
    endloop
  endfacet
  facet normal 0.0887143 0.702222 0.706409
    outer loop
      vertex 1.0306 5.40258 2
      vertex 0.282557 4.49112 3
      vertex 0.843215 4.42029 3
    endloop
  endfacet
  facet normal 0.0887143 -0.702222 0.706409
    outer loop
      vertex 0.843215 -4.42029 3
      vertex 0.282557 -4.49112 3
      vertex 1.0306 -5.40258 2
    endloop
  endfacet
  facet normal 0.484521 -0.515971 0.706409
    outer loop
      vertex 4.00933 -3.76501 2
      vertex 3.28036 -3.08046 3
      vertex 3.50583 -4.23782 2
    endloop
  endfacet
  facet normal 0.260556 -0.658102 0.706408
    outer loop
      vertex 2.34179 -4.97655 2
      vertex 1.39058 -4.27975 3
      vertex 1.69959 -5.23081 2
    endloop
  endfacet
  facet normal -0.640442 -0.301365 0.706408
    outer loop
      vertex -3.94338 -2.16789 3
      vertex -5.11377 -2.02468 2
      vertex -4.81969 -2.64964 2
    endloop
  endfacet
  facet normal 0.545372 0.451172 0.706409
    outer loop
      vertex 4.00933 3.76501 2
      vertex 3.28036 3.08046 3
      vertex 3.64058 2.64503 3
    endloop
  endfacet
  facet normal -0.176026 0.685567 0.706409
    outer loop
      vertex -1.0306 5.40258 2
      vertex -1.69959 5.23081 2
      vertex -1.39058 4.27975 3
    endloop
  endfacet
  facet normal -0.260556 0.658102 0.706408
    outer loop
      vertex -1.69959 5.23081 2
      vertex -2.34179 4.97655 2
      vertex -1.39058 4.27975 3
    endloop
  endfacet
  facet normal 0.695266 -0.132626 0.70641
    outer loop
      vertex 5.45663 -0.689332 2
      vertex 4.35862 -1.1191 3
      vertex 5.32721 -1.36779 2
    endloop
  endfacet
  facet normal -0.640442 -0.301365 0.706409
    outer loop
      vertex -4.18399 -1.65656 3
      vertex -5.11377 -2.02468 2
      vertex -3.94338 -2.16789 3
    endloop
  endfacet
  facet normal -0.260557 0.6581 0.706409
    outer loop
      vertex -1.39058 4.27975 3
      vertex -2.34179 4.97655 2
      vertex -1.91601 4.07172 3
    endloop
  endfacet
  facet normal 0.70641 0.0444388 0.706406
    outer loop
      vertex 5.45663 0.689332 2
      vertex 4.46452 0.563999 3
      vertex 4.5 0 3
    endloop
  endfacet
  facet normal 0.640442 0.301365 0.706409
    outer loop
      vertex 5.11377 2.02468 2
      vertex 3.94338 2.16789 3
      vertex 4.18399 1.65656 3
    endloop
  endfacet
  facet normal 0.0887138 0.702222 0.706409
    outer loop
      vertex 0.345347 5.48915 2
      vertex 0.282557 4.49112 3
      vertex 1.0306 5.40258 2
    endloop
  endfacet
  facet normal 0.695268 -0.13264 0.706406
    outer loop
      vertex 4.46452 -0.563999 3
      vertex 4.35862 -1.1191 3
      vertex 5.45663 -0.689332 2
    endloop
  endfacet
  facet normal 0.70641 -0.0444388 0.706406
    outer loop
      vertex 4.5 0 3
      vertex 4.46452 -0.563999 3
      vertex 5.45663 -0.689332 2
    endloop
  endfacet
  facet normal -0.70641 0.0444388 0.706406
    outer loop
      vertex -4.46452 0.563999 3
      vertex -5.45663 0.689332 2
      vertex -4.5 0 3
    endloop
  endfacet
  facet normal 0.484529 0.515967 0.706406
    outer loop
      vertex 3.50583 4.23782 2
      vertex 2.86841 3.46731 3
      vertex 3.28036 3.08046 3
    endloop
  endfacet
  facet normal -0.260556 -0.658102 0.706408
    outer loop
      vertex -1.39058 -4.27975 3
      vertex -2.34179 -4.97655 2
      vertex -1.69959 -5.23081 2
    endloop
  endfacet
  facet normal 0 0.707804 0.706409
    outer loop
      vertex 0.345347 5.48915 2
      vertex -0.282557 4.49112 3
      vertex 0.282557 4.49112 3
    endloop
  endfacet
  facet normal 0 0.707804 0.706409
    outer loop
      vertex -0.282557 4.49112 3
      vertex 0.345347 5.48915 2
      vertex -0.345347 5.48915 2
    endloop
  endfacet
  facet normal -0.545372 0.451172 0.706409
    outer loop
      vertex -3.28036 3.08046 3
      vertex -4.00933 3.76501 2
      vertex -3.64058 2.64503 3
    endloop
  endfacet
  facet normal -0.545376 0.451169 0.706407
    outer loop
      vertex -4.00933 3.76501 2
      vertex -4.44959 3.23282 2
      vertex -3.64058 2.64503 3
    endloop
  endfacet
  facet normal -0.340991 -0.620251 0.706409
    outer loop
      vertex -2.41122 -3.79947 3
      vertex -2.94705 -4.6438 2
      vertex -2.34179 -4.97655 2
    endloop
  endfacet
  facet normal -0.0887143 0.702222 0.706409
    outer loop
      vertex -0.282557 4.49112 3
      vertex -1.0306 5.40258 2
      vertex -0.843215 4.42029 3
    endloop
  endfacet
  facet normal -0.416032 -0.572632 0.706406
    outer loop
      vertex -2.86841 -3.46731 3
      vertex -3.50583 -4.23782 2
      vertex -2.41122 -3.79947 3
    endloop
  endfacet
  facet normal 0.640442 -0.301365 0.706409
    outer loop
      vertex 4.18399 -1.65656 3
      vertex 3.94338 -2.16789 3
      vertex 5.11377 -2.02468 2
    endloop
  endfacet
  facet normal 0.416032 0.572632 0.706406
    outer loop
      vertex 3.50583 4.23782 2
      vertex 2.41122 3.79947 3
      vertex 2.86841 3.46731 3
    endloop
  endfacet
  facet normal 0.673162 0.218722 0.706409
    outer loop
      vertex 5.11377 2.02468 2
      vertex 4.18399 1.65656 3
      vertex 4.35862 1.1191 3
    endloop
  endfacet
  facet normal 0.640442 -0.301365 0.706408
    outer loop
      vertex 5.11377 -2.02468 2
      vertex 3.94338 -2.16789 3
      vertex 4.81969 -2.64964 2
    endloop
  endfacet
  facet normal 0.545372 -0.451172 0.706409
    outer loop
      vertex 3.64058 -2.64503 3
      vertex 3.28036 -3.08046 3
      vertex 4.00933 -3.76501 2
    endloop
  endfacet
  facet normal 0 -0.707804 0.706409
    outer loop
      vertex -0.345347 -5.48915 2
      vertex 0.282557 -4.49112 3
      vertex -0.282557 -4.49112 3
    endloop
  endfacet
  facet normal 0 -0.707804 0.706409
    outer loop
      vertex 0.282557 -4.49112 3
      vertex -0.345347 -5.48915 2
      vertex 0.345347 -5.48915 2
    endloop
  endfacet
  facet normal 0.673159 0.218726 0.70641
    outer loop
      vertex 5.11377 2.02468 2
      vertex 4.35862 1.1191 3
      vertex 5.32721 1.36779 2
    endloop
  endfacet
  facet normal 0.695266 0.132626 0.70641
    outer loop
      vertex 5.32721 1.36779 2
      vertex 4.35862 1.1191 3
      vertex 5.45663 0.689332 2
    endloop
  endfacet
  facet normal 0.260557 -0.6581 0.706409
    outer loop
      vertex 1.91601 -4.07172 3
      vertex 1.39058 -4.27975 3
      vertex 2.34179 -4.97655 2
    endloop
  endfacet
  facet normal -0.484529 -0.515967 0.706406
    outer loop
      vertex -3.28036 -3.08046 3
      vertex -3.50583 -4.23782 2
      vertex -2.86841 -3.46731 3
    endloop
  endfacet
  facet normal -0.176024 -0.685566 0.706409
    outer loop
      vertex -0.843215 -4.42029 3
      vertex -1.39058 -4.27975 3
      vertex -1.0306 -5.40258 2
    endloop
  endfacet
  facet normal -0.597619 -0.379263 0.706407
    outer loop
      vertex -3.64058 -2.64503 3
      vertex -4.81969 -2.64964 2
      vertex -4.44959 -3.23282 2
    endloop
  endfacet
  facet normal -0.0887138 0.702222 0.706409
    outer loop
      vertex -0.345347 5.48915 2
      vertex -1.0306 5.40258 2
      vertex -0.282557 4.49112 3
    endloop
  endfacet
  facet normal -0.340993 -0.62025 0.706409
    outer loop
      vertex -1.91601 -4.07172 3
      vertex -2.41122 -3.79947 3
      vertex -2.34179 -4.97655 2
    endloop
  endfacet
  facet normal 0.176024 -0.685566 0.706409
    outer loop
      vertex 1.39058 -4.27975 3
      vertex 0.843215 -4.42029 3
      vertex 1.0306 -5.40258 2
    endloop
  endfacet
  facet normal -0.673159 -0.218726 0.70641
    outer loop
      vertex -4.35862 -1.1191 3
      vertex -5.32721 -1.36779 2
      vertex -5.11377 -2.02468 2
    endloop
  endfacet
  facet normal -0.673162 -0.218722 0.706409
    outer loop
      vertex -4.35862 -1.1191 3
      vertex -5.11377 -2.02468 2
      vertex -4.18399 -1.65656 3
    endloop
  endfacet
  facet normal -0.982287 -0.187381 0
    outer loop
      vertex 1.7362 0.219333 0
      vertex 1.69502 0.435206 12
      vertex 1.69502 0.435206 0
    endloop
  endfacet
  facet normal -0.982287 -0.187381 0
    outer loop
      vertex 1.69502 0.435206 12
      vertex 1.7362 0.219333 0
      vertex 1.7362 0.219333 12
    endloop
  endfacet
  facet normal -0.998027 -0.0627939 0
    outer loop
      vertex 1.75 0 0
      vertex 1.7362 0.219333 12
      vertex 1.7362 0.219333 0
    endloop
  endfacet
  facet normal -0.998027 -0.0627939 0
    outer loop
      vertex 1.7362 0.219333 12
      vertex 1.75 0 0
      vertex 1.75 0 12
    endloop
  endfacet
  facet normal -0.951059 -0.30901 0
    outer loop
      vertex 1.69502 0.435206 0
      vertex 1.62711 0.644217 12
      vertex 1.62711 0.644217 0
    endloop
  endfacet
  facet normal -0.951059 -0.30901 0
    outer loop
      vertex 1.62711 0.644217 12
      vertex 1.69502 0.435206 0
      vertex 1.69502 0.435206 12
    endloop
  endfacet
  facet normal -0.904831 0.425771 0
    outer loop
      vertex 1.53354 -0.843068 0
      vertex 1.62711 -0.644217 12
      vertex 1.62711 -0.644217 0
    endloop
  endfacet
  facet normal -0.904831 0.425771 0
    outer loop
      vertex 1.62711 -0.644217 12
      vertex 1.53354 -0.843068 0
      vertex 1.53354 -0.843068 12
    endloop
  endfacet
  facet normal -0.368118 -0.929779 0
    outer loop
      vertex 0.540779 1.66435 0
      vertex 0.745113 1.58345 12
      vertex 0.540779 1.66435 12
    endloop
  endfacet
  facet normal -0.368118 -0.929779 -0
    outer loop
      vertex 0.745113 1.58345 12
      vertex 0.540779 1.66435 0
      vertex 0.745113 1.58345 0
    endloop
  endfacet
  facet normal -0.998027 0.0627939 0
    outer loop
      vertex 1.7362 -0.219333 0
      vertex 1.75 0 12
      vertex 1.75 0 0
    endloop
  endfacet
  facet normal -0.998027 0.0627939 0
    outer loop
      vertex 1.75 0 12
      vertex 1.7362 -0.219333 0
      vertex 1.7362 -0.219333 12
    endloop
  endfacet
  facet normal 0.998027 0.0627939 0
    outer loop
      vertex -1.7362 -0.219333 12
      vertex -1.75 0 0
      vertex -1.75 0 12
    endloop
  endfacet
  facet normal 0.998027 0.0627939 0
    outer loop
      vertex -1.75 0 0
      vertex -1.7362 -0.219333 12
      vertex -1.7362 -0.219333 0
    endloop
  endfacet
  facet normal 0.951059 0.30901 0
    outer loop
      vertex -1.62711 -0.644217 12
      vertex -1.69502 -0.435206 0
      vertex -1.69502 -0.435206 12
    endloop
  endfacet
  facet normal 0.951059 0.30901 0
    outer loop
      vertex -1.69502 -0.435206 0
      vertex -1.62711 -0.644217 12
      vertex -1.62711 -0.644217 0
    endloop
  endfacet
  facet normal -0.904831 -0.425771 0
    outer loop
      vertex 1.62711 0.644217 0
      vertex 1.53354 0.843068 12
      vertex 1.53354 0.843068 0
    endloop
  endfacet
  facet normal -0.904831 -0.425771 0
    outer loop
      vertex 1.53354 0.843068 12
      vertex 1.62711 0.644217 0
      vertex 1.62711 0.644217 12
    endloop
  endfacet
  facet normal 0 -1 0
    outer loop
      vertex -0.109883 1.74655 0
      vertex 0.109883 1.74655 12
      vertex -0.109883 1.74655 12
    endloop
  endfacet
  facet normal 0 -1 -0
    outer loop
      vertex 0.109883 1.74655 12
      vertex -0.109883 1.74655 0
      vertex 0.109883 1.74655 0
    endloop
  endfacet
  facet normal 0.248674 0.968587 -0
    outer loop
      vertex -0.327917 -1.719 0
      vertex -0.540779 -1.66435 12
      vertex -0.327917 -1.719 12
    endloop
  endfacet
  facet normal 0.248674 0.968587 0
    outer loop
      vertex -0.540779 -1.66435 12
      vertex -0.327917 -1.719 0
      vertex -0.540779 -1.66435 0
    endloop
  endfacet
  facet normal -0.368118 0.929779 0
    outer loop
      vertex 0.745113 -1.58345 0
      vertex 0.540779 -1.66435 12
      vertex 0.745113 -1.58345 12
    endloop
  endfacet
  facet normal -0.368118 0.929779 0
    outer loop
      vertex 0.540779 -1.66435 12
      vertex 0.745113 -1.58345 0
      vertex 0.540779 -1.66435 0
    endloop
  endfacet
  facet normal 0.904831 0.425771 0
    outer loop
      vertex -1.53354 -0.843068 12
      vertex -1.62711 -0.644217 0
      vertex -1.62711 -0.644217 12
    endloop
  endfacet
  facet normal 0.904831 0.425771 0
    outer loop
      vertex -1.62711 -0.644217 0
      vertex -1.53354 -0.843068 12
      vertex -1.53354 -0.843068 0
    endloop
  endfacet
  facet normal 0.248674 -0.968587 0
    outer loop
      vertex -0.540779 1.66435 0
      vertex -0.327917 1.719 12
      vertex -0.540779 1.66435 12
    endloop
  endfacet
  facet normal 0.248674 -0.968587 0
    outer loop
      vertex -0.327917 1.719 12
      vertex -0.540779 1.66435 0
      vertex -0.327917 1.719 0
    endloop
  endfacet
  facet normal 0.684552 0.728964 -0
    outer loop
      vertex -1.11549 -1.3484 0
      vertex -1.27569 -1.19796 12
      vertex -1.11549 -1.3484 12
    endloop
  endfacet
  facet normal 0.684552 0.728964 0
    outer loop
      vertex -1.27569 -1.19796 12
      vertex -1.11549 -1.3484 0
      vertex -1.27569 -1.19796 0
    endloop
  endfacet
  facet normal 0.770514 -0.637423 0
    outer loop
      vertex -1.41578 1.02862 12
      vertex -1.27569 1.19796 0
      vertex -1.27569 1.19796 12
    endloop
  endfacet
  facet normal 0.770514 -0.637423 0
    outer loop
      vertex -1.27569 1.19796 0
      vertex -1.41578 1.02862 12
      vertex -1.41578 1.02862 0
    endloop
  endfacet
  facet normal 0.12536 0.992111 -0
    outer loop
      vertex -0.109883 -1.74655 0
      vertex -0.327917 -1.719 12
      vertex -0.109883 -1.74655 12
    endloop
  endfacet
  facet normal 0.12536 0.992111 0
    outer loop
      vertex -0.327917 -1.719 12
      vertex -0.109883 -1.74655 0
      vertex -0.327917 -1.719 0
    endloop
  endfacet
  facet normal 0.368118 -0.929779 0
    outer loop
      vertex -0.745113 1.58345 0
      vertex -0.540779 1.66435 12
      vertex -0.745113 1.58345 12
    endloop
  endfacet
  facet normal 0.368118 -0.929779 0
    outer loop
      vertex -0.540779 1.66435 12
      vertex -0.745113 1.58345 0
      vertex -0.540779 1.66435 0
    endloop
  endfacet
  facet normal -0.248674 -0.968587 0
    outer loop
      vertex 0.327917 1.719 0
      vertex 0.540779 1.66435 12
      vertex 0.327917 1.719 12
    endloop
  endfacet
  facet normal -0.248674 -0.968587 -0
    outer loop
      vertex 0.540779 1.66435 12
      vertex 0.327917 1.719 0
      vertex 0.540779 1.66435 0
    endloop
  endfacet
  facet normal -0.844317 -0.535843 0
    outer loop
      vertex 1.53354 0.843068 0
      vertex 1.41578 1.02862 12
      vertex 1.41578 1.02862 0
    endloop
  endfacet
  facet normal -0.844317 -0.535843 0
    outer loop
      vertex 1.41578 1.02862 12
      vertex 1.53354 0.843068 0
      vertex 1.53354 0.843068 12
    endloop
  endfacet
  facet normal -0.587771 -0.809028 0
    outer loop
      vertex 0.937696 1.47757 0
      vertex 1.11549 1.3484 12
      vertex 0.937696 1.47757 12
    endloop
  endfacet
  facet normal -0.587771 -0.809028 -0
    outer loop
      vertex 1.11549 1.3484 12
      vertex 0.937696 1.47757 0
      vertex 1.11549 1.3484 0
    endloop
  endfacet
  facet normal -0.12536 0.992111 0
    outer loop
      vertex 0.327917 -1.719 0
      vertex 0.109883 -1.74655 12
      vertex 0.327917 -1.719 12
    endloop
  endfacet
  facet normal -0.12536 0.992111 0
    outer loop
      vertex 0.109883 -1.74655 12
      vertex 0.327917 -1.719 0
      vertex 0.109883 -1.74655 0
    endloop
  endfacet
  facet normal -0.844317 0.535843 0
    outer loop
      vertex 1.41578 -1.02862 0
      vertex 1.53354 -0.843068 12
      vertex 1.53354 -0.843068 0
    endloop
  endfacet
  facet normal -0.844317 0.535843 0
    outer loop
      vertex 1.53354 -0.843068 12
      vertex 1.41578 -1.02862 0
      vertex 1.41578 -1.02862 12
    endloop
  endfacet
  facet normal -0.770514 0.637423 0
    outer loop
      vertex 1.27569 -1.19796 0
      vertex 1.41578 -1.02862 12
      vertex 1.41578 -1.02862 0
    endloop
  endfacet
  facet normal -0.770514 0.637423 0
    outer loop
      vertex 1.41578 -1.02862 12
      vertex 1.27569 -1.19796 0
      vertex 1.27569 -1.19796 12
    endloop
  endfacet
  facet normal 0.951059 -0.30901 0
    outer loop
      vertex -1.69502 0.435206 12
      vertex -1.62711 0.644217 0
      vertex -1.62711 0.644217 12
    endloop
  endfacet
  facet normal 0.951059 -0.30901 0
    outer loop
      vertex -1.62711 0.644217 0
      vertex -1.69502 0.435206 12
      vertex -1.69502 0.435206 0
    endloop
  endfacet
  facet normal -0.684552 -0.728964 0
    outer loop
      vertex 1.11549 1.3484 0
      vertex 1.27569 1.19796 12
      vertex 1.11549 1.3484 12
    endloop
  endfacet
  facet normal -0.684552 -0.728964 -0
    outer loop
      vertex 1.27569 1.19796 12
      vertex 1.11549 1.3484 0
      vertex 1.27569 1.19796 0
    endloop
  endfacet
  facet normal 0 1 -0
    outer loop
      vertex 0.109883 -1.74655 0
      vertex -0.109883 -1.74655 12
      vertex 0.109883 -1.74655 12
    endloop
  endfacet
  facet normal 0 1 0
    outer loop
      vertex -0.109883 -1.74655 12
      vertex 0.109883 -1.74655 0
      vertex -0.109883 -1.74655 0
    endloop
  endfacet
  facet normal -0.248674 0.968587 0
    outer loop
      vertex 0.540779 -1.66435 0
      vertex 0.327917 -1.719 12
      vertex 0.540779 -1.66435 12
    endloop
  endfacet
  facet normal -0.248674 0.968587 0
    outer loop
      vertex 0.327917 -1.719 12
      vertex 0.540779 -1.66435 0
      vertex 0.327917 -1.719 0
    endloop
  endfacet
  facet normal -0.481777 0.876294 0
    outer loop
      vertex 0.937696 -1.47757 0
      vertex 0.745113 -1.58345 12
      vertex 0.937696 -1.47757 12
    endloop
  endfacet
  facet normal -0.481777 0.876294 0
    outer loop
      vertex 0.745113 -1.58345 12
      vertex 0.937696 -1.47757 0
      vertex 0.745113 -1.58345 0
    endloop
  endfacet
  facet normal 0.844317 0.535843 0
    outer loop
      vertex -1.41578 -1.02862 12
      vertex -1.53354 -0.843068 0
      vertex -1.53354 -0.843068 12
    endloop
  endfacet
  facet normal 0.844317 0.535843 0
    outer loop
      vertex -1.53354 -0.843068 0
      vertex -1.41578 -1.02862 12
      vertex -1.41578 -1.02862 0
    endloop
  endfacet
  facet normal 0.481777 -0.876294 0
    outer loop
      vertex -0.937696 1.47757 0
      vertex -0.745113 1.58345 12
      vertex -0.937696 1.47757 12
    endloop
  endfacet
  facet normal 0.481777 -0.876294 0
    outer loop
      vertex -0.745113 1.58345 12
      vertex -0.937696 1.47757 0
      vertex -0.745113 1.58345 0
    endloop
  endfacet
  facet normal -0.481777 -0.876294 0
    outer loop
      vertex 0.745113 1.58345 0
      vertex 0.937696 1.47757 12
      vertex 0.745113 1.58345 12
    endloop
  endfacet
  facet normal -0.481777 -0.876294 -0
    outer loop
      vertex 0.937696 1.47757 12
      vertex 0.745113 1.58345 0
      vertex 0.937696 1.47757 0
    endloop
  endfacet
  facet normal -0.770514 -0.637423 0
    outer loop
      vertex 1.41578 1.02862 0
      vertex 1.27569 1.19796 12
      vertex 1.27569 1.19796 0
    endloop
  endfacet
  facet normal -0.770514 -0.637423 0
    outer loop
      vertex 1.27569 1.19796 12
      vertex 1.41578 1.02862 0
      vertex 1.41578 1.02862 12
    endloop
  endfacet
  facet normal -0.982287 0.187381 0
    outer loop
      vertex 1.69502 -0.435206 0
      vertex 1.7362 -0.219333 12
      vertex 1.7362 -0.219333 0
    endloop
  endfacet
  facet normal -0.982287 0.187381 0
    outer loop
      vertex 1.7362 -0.219333 12
      vertex 1.69502 -0.435206 0
      vertex 1.69502 -0.435206 12
    endloop
  endfacet
  facet normal 0.904831 -0.425771 0
    outer loop
      vertex -1.62711 0.644217 12
      vertex -1.53354 0.843068 0
      vertex -1.53354 0.843068 12
    endloop
  endfacet
  facet normal 0.904831 -0.425771 0
    outer loop
      vertex -1.53354 0.843068 0
      vertex -1.62711 0.644217 12
      vertex -1.62711 0.644217 0
    endloop
  endfacet
  facet normal -0.684552 0.728964 0
    outer loop
      vertex 1.27569 -1.19796 0
      vertex 1.11549 -1.3484 12
      vertex 1.27569 -1.19796 12
    endloop
  endfacet
  facet normal -0.684552 0.728964 0
    outer loop
      vertex 1.11549 -1.3484 12
      vertex 1.27569 -1.19796 0
      vertex 1.11549 -1.3484 0
    endloop
  endfacet
  facet normal 0.844317 -0.535843 0
    outer loop
      vertex -1.53354 0.843068 12
      vertex -1.41578 1.02862 0
      vertex -1.41578 1.02862 12
    endloop
  endfacet
  facet normal 0.844317 -0.535843 0
    outer loop
      vertex -1.41578 1.02862 0
      vertex -1.53354 0.843068 12
      vertex -1.53354 0.843068 0
    endloop
  endfacet
  facet normal 0.770514 0.637423 0
    outer loop
      vertex -1.27569 -1.19796 12
      vertex -1.41578 -1.02862 0
      vertex -1.41578 -1.02862 12
    endloop
  endfacet
  facet normal 0.770514 0.637423 0
    outer loop
      vertex -1.41578 -1.02862 0
      vertex -1.27569 -1.19796 12
      vertex -1.27569 -1.19796 0
    endloop
  endfacet
  facet normal 0.587771 -0.809028 0
    outer loop
      vertex -1.11549 1.3484 0
      vertex -0.937696 1.47757 12
      vertex -1.11549 1.3484 12
    endloop
  endfacet
  facet normal 0.587771 -0.809028 0
    outer loop
      vertex -0.937696 1.47757 12
      vertex -1.11549 1.3484 0
      vertex -0.937696 1.47757 0
    endloop
  endfacet
  facet normal -0.951059 0.30901 0
    outer loop
      vertex 1.62711 -0.644217 0
      vertex 1.69502 -0.435206 12
      vertex 1.69502 -0.435206 0
    endloop
  endfacet
  facet normal -0.951059 0.30901 0
    outer loop
      vertex 1.69502 -0.435206 12
      vertex 1.62711 -0.644217 0
      vertex 1.62711 -0.644217 12
    endloop
  endfacet
  facet normal 0.481777 0.876294 -0
    outer loop
      vertex -0.745113 -1.58345 0
      vertex -0.937696 -1.47757 12
      vertex -0.745113 -1.58345 12
    endloop
  endfacet
  facet normal 0.481777 0.876294 0
    outer loop
      vertex -0.937696 -1.47757 12
      vertex -0.745113 -1.58345 0
      vertex -0.937696 -1.47757 0
    endloop
  endfacet
  facet normal 0.368118 0.929779 -0
    outer loop
      vertex -0.540779 -1.66435 0
      vertex -0.745113 -1.58345 12
      vertex -0.540779 -1.66435 12
    endloop
  endfacet
  facet normal 0.368118 0.929779 0
    outer loop
      vertex -0.745113 -1.58345 12
      vertex -0.540779 -1.66435 0
      vertex -0.745113 -1.58345 0
    endloop
  endfacet
  facet normal 0.982287 -0.187381 0
    outer loop
      vertex -1.7362 0.219333 12
      vertex -1.69502 0.435206 0
      vertex -1.69502 0.435206 12
    endloop
  endfacet
  facet normal 0.982287 -0.187381 0
    outer loop
      vertex -1.69502 0.435206 0
      vertex -1.7362 0.219333 12
      vertex -1.7362 0.219333 0
    endloop
  endfacet
  facet normal 0.684552 -0.728964 0
    outer loop
      vertex -1.27569 1.19796 0
      vertex -1.11549 1.3484 12
      vertex -1.27569 1.19796 12
    endloop
  endfacet
  facet normal 0.684552 -0.728964 0
    outer loop
      vertex -1.11549 1.3484 12
      vertex -1.27569 1.19796 0
      vertex -1.11549 1.3484 0
    endloop
  endfacet
  facet normal 0.982287 0.187381 0
    outer loop
      vertex -1.69502 -0.435206 12
      vertex -1.7362 -0.219333 0
      vertex -1.7362 -0.219333 12
    endloop
  endfacet
  facet normal 0.982287 0.187381 0
    outer loop
      vertex -1.7362 -0.219333 0
      vertex -1.69502 -0.435206 12
      vertex -1.69502 -0.435206 0
    endloop
  endfacet
  facet normal 0.12536 -0.992111 0
    outer loop
      vertex -0.327917 1.719 0
      vertex -0.109883 1.74655 12
      vertex -0.327917 1.719 12
    endloop
  endfacet
  facet normal 0.12536 -0.992111 0
    outer loop
      vertex -0.109883 1.74655 12
      vertex -0.327917 1.719 0
      vertex -0.109883 1.74655 0
    endloop
  endfacet
  facet normal 0.998027 -0.0627939 0
    outer loop
      vertex -1.75 0 12
      vertex -1.7362 0.219333 0
      vertex -1.7362 0.219333 12
    endloop
  endfacet
  facet normal 0.998027 -0.0627939 0
    outer loop
      vertex -1.7362 0.219333 0
      vertex -1.75 0 12
      vertex -1.75 0 0
    endloop
  endfacet
  facet normal 0.587771 0.809028 -0
    outer loop
      vertex -0.937696 -1.47757 0
      vertex -1.11549 -1.3484 12
      vertex -0.937696 -1.47757 12
    endloop
  endfacet
  facet normal 0.587771 0.809028 0
    outer loop
      vertex -1.11549 -1.3484 12
      vertex -0.937696 -1.47757 0
      vertex -1.11549 -1.3484 0
    endloop
  endfacet
  facet normal -0.12536 -0.992111 0
    outer loop
      vertex 0.109883 1.74655 0
      vertex 0.327917 1.719 12
      vertex 0.109883 1.74655 12
    endloop
  endfacet
  facet normal -0.12536 -0.992111 -0
    outer loop
      vertex 0.327917 1.719 12
      vertex 0.109883 1.74655 0
      vertex 0.327917 1.719 0
    endloop
  endfacet
  facet normal -0.587771 0.809028 0
    outer loop
      vertex 1.11549 -1.3484 0
      vertex 0.937696 -1.47757 12
      vertex 1.11549 -1.3484 12
    endloop
  endfacet
  facet normal -0.587771 0.809028 0
    outer loop
      vertex 0.937696 -1.47757 12
      vertex 1.11549 -1.3484 0
      vertex 0.937696 -1.47757 0
    endloop
  endfacet
endsolid OpenSCAD_Model
