solid OpenSCAD_Model
  facet normal 1 0 0
    outer loop
      vertex 11 -53.1 -102.5
      vertex 11 -66 -104
      vertex 11 -62 -104
    endloop
  endfacet
  facet normal 1 0 0
    outer loop
      vertex 11 -78.7931 -109.444
      vertex 11 -66 -107
      vertex 11 -66 -104
    endloop
  endfacet
  facet normal 1 0 -0
    outer loop
      vertex 11 -77.8 -112.5
      vertex 11 -66 -107
      vertex 11 -77.864 -111.687
    endloop
  endfacet
  facet normal 1 -0 0
    outer loop
      vertex 11 -77.864 -113.313
      vertex 11 -66 -118
      vertex 11 -77.8 -112.5
    endloop
  endfacet
  facet normal 1 0 0
    outer loop
      vertex 11 -66 -107
      vertex 11 -77.8 -112.5
      vertex 11 -66 -118
    endloop
  endfacet
  facet normal 1 0 0
    outer loop
      vertex 11 -66 -107
      vertex 11 -78.0545 -110.893
      vertex 11 -77.864 -111.687
    endloop
  endfacet
  facet normal 1 0 0
    outer loop
      vertex 11 -66 -107
      vertex 11 -78.3668 -110.139
      vertex 11 -78.0545 -110.893
    endloop
  endfacet
  facet normal 1 0 0
    outer loop
      vertex 11 -66 -107
      vertex 11 -78.7931 -109.444
      vertex 11 -78.3668 -110.139
    endloop
  endfacet
  facet normal 1 0 0
    outer loop
      vertex 11 -66 -104
      vertex 11 -79.323 -108.823
      vertex 11 -78.7931 -109.444
    endloop
  endfacet
  facet normal 1 0 0
    outer loop
      vertex 11 -66 -104
      vertex 11 -79.9435 -108.293
      vertex 11 -79.323 -108.823
    endloop
  endfacet
  facet normal 1 0 0
    outer loop
      vertex 11 -66 -104
      vertex 11 -80.6393 -107.867
      vertex 11 -79.9435 -108.293
    endloop
  endfacet
  facet normal 1 0 0
    outer loop
      vertex 11 -66 -104
      vertex 11 -81.3931 -107.555
      vertex 11 -80.6393 -107.867
    endloop
  endfacet
  facet normal 1 0 0
    outer loop
      vertex 11 -89.9 -102.5
      vertex 11 -81.3931 -107.555
      vertex 11 -66 -104
    endloop
  endfacet
  facet normal 1 0 0
    outer loop
      vertex 11 -81.3931 -107.555
      vertex 11 -89.9 -102.5
      vertex 11 -82.1865 -107.364
    endloop
  endfacet
  facet normal 1 0 0
    outer loop
      vertex 11 -82.1865 -107.364
      vertex 11 -89.9 -102.5
      vertex 11 -83 -107.3
    endloop
  endfacet
  facet normal 1 0 0
    outer loop
      vertex 11 -87.9455 -110.893
      vertex 11 -99.9 -112.5
      vertex 11 -88.136 -111.687
    endloop
  endfacet
  facet normal 1 0 0
    outer loop
      vertex 11 -99.9 -112.5
      vertex 11 -87.9455 -110.893
      vertex 11 -89.9 -102.5
    endloop
  endfacet
  facet normal 1 0 0
    outer loop
      vertex 11 -87.6332 -110.139
      vertex 11 -89.9 -102.5
      vertex 11 -87.9455 -110.893
    endloop
  endfacet
  facet normal 1 0 0
    outer loop
      vertex 11 -87.2069 -109.444
      vertex 11 -89.9 -102.5
      vertex 11 -87.6332 -110.139
    endloop
  endfacet
  facet normal 1 0 0
    outer loop
      vertex 11 -86.677 -108.823
      vertex 11 -89.9 -102.5
      vertex 11 -87.2069 -109.444
    endloop
  endfacet
  facet normal 1 0 0
    outer loop
      vertex 11 -86.0565 -108.293
      vertex 11 -89.9 -102.5
      vertex 11 -86.677 -108.823
    endloop
  endfacet
  facet normal 1 0 0
    outer loop
      vertex 11 -85.3607 -107.867
      vertex 11 -89.9 -102.5
      vertex 11 -86.0565 -108.293
    endloop
  endfacet
  facet normal 1 0 0
    outer loop
      vertex 11 -84.6069 -107.555
      vertex 11 -89.9 -102.5
      vertex 11 -85.3607 -107.867
    endloop
  endfacet
  facet normal 1 0 0
    outer loop
      vertex 11 -83.8135 -107.364
      vertex 11 -89.9 -102.5
      vertex 11 -84.6069 -107.555
    endloop
  endfacet
  facet normal 1 0 0
    outer loop
      vertex 11 -83 -107.3
      vertex 11 -89.9 -102.5
      vertex 11 -83.8135 -107.364
    endloop
  endfacet
  facet normal 1 -0 0
    outer loop
      vertex 11 -89.9 -102.5
      vertex 11 -66 -104
      vertex 11 -53.1 -102.5
    endloop
  endfacet
  facet normal 1 0 0
    outer loop
      vertex 11 -62 -107
      vertex 11 -53.1 -102.5
      vertex 11 -62 -104
    endloop
  endfacet
  facet normal 1 -0 0
    outer loop
      vertex 11 -62 -107
      vertex 11 -63.1 -112.5
      vertex 11 -53.1 -102.5
    endloop
  endfacet
  facet normal 1 0 -0
    outer loop
      vertex 11 -63.1 -112.5
      vertex 11 -62 -107
      vertex 11 -66 -107
    endloop
  endfacet
  facet normal 1 0 0
    outer loop
      vertex 11 -63.1 -112.5
      vertex 11 -62 -118
      vertex 11 -53.1 -122.5
    endloop
  endfacet
  facet normal 1 0 0
    outer loop
      vertex 11 -66 -118
      vertex 11 -63.1 -112.5
      vertex 11 -66 -107
    endloop
  endfacet
  facet normal 1 0 0
    outer loop
      vertex 11 -63.1 -112.5
      vertex 11 -66 -118
      vertex 11 -62 -118
    endloop
  endfacet
  facet normal 1 -0 0
    outer loop
      vertex 11 -62 -121
      vertex 11 -53.1 -122.5
      vertex 11 -62 -118
    endloop
  endfacet
  facet normal 1 -0 0
    outer loop
      vertex 11 -66 -121
      vertex 11 -53.1 -122.5
      vertex 11 -62 -121
    endloop
  endfacet
  facet normal 1 -0 0
    outer loop
      vertex 11 -78.0545 -114.107
      vertex 11 -66 -118
      vertex 11 -77.864 -113.313
    endloop
  endfacet
  facet normal 1 -0 0
    outer loop
      vertex 11 -78.3668 -114.861
      vertex 11 -66 -118
      vertex 11 -78.0545 -114.107
    endloop
  endfacet
  facet normal 1 -0 0
    outer loop
      vertex 11 -78.7931 -115.556
      vertex 11 -66 -118
      vertex 11 -78.3668 -114.861
    endloop
  endfacet
  facet normal 1 0 0
    outer loop
      vertex 11 -66 -118
      vertex 11 -78.7931 -115.556
      vertex 11 -66 -121
    endloop
  endfacet
  facet normal 1 -0 0
    outer loop
      vertex 11 -79.323 -116.177
      vertex 11 -66 -121
      vertex 11 -78.7931 -115.556
    endloop
  endfacet
  facet normal 1 -0 0
    outer loop
      vertex 11 -79.9435 -116.707
      vertex 11 -66 -121
      vertex 11 -79.323 -116.177
    endloop
  endfacet
  facet normal 1 -0 0
    outer loop
      vertex 11 -80.6393 -117.133
      vertex 11 -66 -121
      vertex 11 -79.9435 -116.707
    endloop
  endfacet
  facet normal 1 -0 0
    outer loop
      vertex 11 -81.3931 -117.445
      vertex 11 -66 -121
      vertex 11 -80.6393 -117.133
    endloop
  endfacet
  facet normal 1 0 0
    outer loop
      vertex 11 -89.9 -122.5
      vertex 11 -81.3931 -117.445
      vertex 11 -82.1865 -117.636
    endloop
  endfacet
  facet normal 1 0 0
    outer loop
      vertex 11 -89.9 -122.5
      vertex 11 -82.1865 -117.636
      vertex 11 -83 -117.7
    endloop
  endfacet
  facet normal 1 0 0
    outer loop
      vertex 11 -89.9 -122.5
      vertex 11 -83 -117.7
      vertex 11 -83.8135 -117.636
    endloop
  endfacet
  facet normal 1 0 0
    outer loop
      vertex 11 -88.136 -111.687
      vertex 11 -99.9 -112.5
      vertex 11 -88.2 -112.5
    endloop
  endfacet
  facet normal 1 0 0
    outer loop
      vertex 11 -66 -121
      vertex 11 -89.9 -122.5
      vertex 11 -53.1 -122.5
    endloop
  endfacet
  facet normal 1 0 0
    outer loop
      vertex 11 -81.3931 -117.445
      vertex 11 -89.9 -122.5
      vertex 11 -66 -121
    endloop
  endfacet
  facet normal 1 0 0
    outer loop
      vertex 11 -84.6069 -117.445
      vertex 11 -89.9 -122.5
      vertex 11 -83.8135 -117.636
    endloop
  endfacet
  facet normal 1 0 0
    outer loop
      vertex 11 -85.3607 -117.133
      vertex 11 -89.9 -122.5
      vertex 11 -84.6069 -117.445
    endloop
  endfacet
  facet normal 1 0 0
    outer loop
      vertex 11 -86.0565 -116.707
      vertex 11 -89.9 -122.5
      vertex 11 -85.3607 -117.133
    endloop
  endfacet
  facet normal 1 0 0
    outer loop
      vertex 11 -86.677 -116.177
      vertex 11 -89.9 -122.5
      vertex 11 -86.0565 -116.707
    endloop
  endfacet
  facet normal 1 0 0
    outer loop
      vertex 11 -87.2069 -115.556
      vertex 11 -89.9 -122.5
      vertex 11 -86.677 -116.177
    endloop
  endfacet
  facet normal 1 0 0
    outer loop
      vertex 11 -87.6332 -114.861
      vertex 11 -89.9 -122.5
      vertex 11 -87.2069 -115.556
    endloop
  endfacet
  facet normal 1 0 0
    outer loop
      vertex 11 -87.9455 -114.107
      vertex 11 -89.9 -122.5
      vertex 11 -87.6332 -114.861
    endloop
  endfacet
  facet normal 1 0 0
    outer loop
      vertex 11 -99.9 -112.5
      vertex 11 -87.9455 -114.107
      vertex 11 -88.136 -113.313
    endloop
  endfacet
  facet normal 1 0 0
    outer loop
      vertex 11 -88.2 -112.5
      vertex 11 -99.9 -112.5
      vertex 11 -88.136 -113.313
    endloop
  endfacet
  facet normal 1 0 0
    outer loop
      vertex 11 -87.9455 -114.107
      vertex 11 -99.9 -112.5
      vertex 11 -89.9 -122.5
    endloop
  endfacet
  facet normal -1 0 0
    outer loop
      vertex -11 -62 -118
      vertex -11 -65.9 -112.5
      vertex -11 -62 -107
    endloop
  endfacet
  facet normal -1 0 0
    outer loop
      vertex -11 -66 -118
      vertex -11 -65.9 -112.5
      vertex -11 -62 -118
    endloop
  endfacet
  facet normal -1 0 0
    outer loop
      vertex -11 -65.9 -112.5
      vertex -11 -66 -118
      vertex -11 -75.9 -122.5
    endloop
  endfacet
  facet normal -1 0 0
    outer loop
      vertex -11 -41.5 -112.5
      vertex -11 -29.1 -112.5
      vertex -11 -39.1 -122.5
    endloop
  endfacet
  facet normal -1 0 0
    outer loop
      vertex -11 -29.1 -112.5
      vertex -11 -41.5 -112.5
      vertex -11 -39.1 -102.5
    endloop
  endfacet
  facet normal -1 0 0
    outer loop
      vertex -11 -39.1 -122.5
      vertex -11 -43.75 -116.397
      vertex -11 -41.5 -112.5
    endloop
  endfacet
  facet normal -1 0 0
    outer loop
      vertex -11 -39.1 -122.5
      vertex -11 -48.25 -116.397
      vertex -11 -43.75 -116.397
    endloop
  endfacet
  facet normal -1 0 0
    outer loop
      vertex -11 -62 -118
      vertex -11 -48.25 -116.397
      vertex -11 -62 -121
    endloop
  endfacet
  facet normal -1 0 0
    outer loop
      vertex -11 -39.1 -122.5
      vertex -11 -62 -121
      vertex -11 -48.25 -116.397
    endloop
  endfacet
  facet normal -1 0 0
    outer loop
      vertex -11 -75.9 -122.5
      vertex -11 -62 -121
      vertex -11 -39.1 -122.5
    endloop
  endfacet
  facet normal -1 -0 0
    outer loop
      vertex -11 -66 -121
      vertex -11 -75.9 -122.5
      vertex -11 -66 -118
    endloop
  endfacet
  facet normal -1 -0 0
    outer loop
      vertex -11 -62 -121
      vertex -11 -75.9 -122.5
      vertex -11 -66 -121
    endloop
  endfacet
  facet normal -1 0 0
    outer loop
      vertex -11 -43.75 -108.603
      vertex -11 -39.1 -102.5
      vertex -11 -41.5 -112.5
    endloop
  endfacet
  facet normal -1 0 0
    outer loop
      vertex -11 -48.25 -108.603
      vertex -11 -39.1 -102.5
      vertex -11 -43.75 -108.603
    endloop
  endfacet
  facet normal -1 -0 0
    outer loop
      vertex -11 -48.25 -116.397
      vertex -11 -62 -118
      vertex -11 -50.5 -112.5
    endloop
  endfacet
  facet normal -1 0 0
    outer loop
      vertex -11 -62 -107
      vertex -11 -50.5 -112.5
      vertex -11 -62 -118
    endloop
  endfacet
  facet normal -1 0 0
    outer loop
      vertex -11 -50.5 -112.5
      vertex -11 -62 -107
      vertex -11 -48.25 -108.603
    endloop
  endfacet
  facet normal -1 0 0
    outer loop
      vertex -11 -62 -104
      vertex -11 -48.25 -108.603
      vertex -11 -62 -107
    endloop
  endfacet
  facet normal -1 0 0
    outer loop
      vertex -11 -48.25 -108.603
      vertex -11 -62 -104
      vertex -11 -39.1 -102.5
    endloop
  endfacet
  facet normal -1 0 0
    outer loop
      vertex -11 -75.9 -102.5
      vertex -11 -62 -104
      vertex -11 -66 -104
    endloop
  endfacet
  facet normal -1 0 0
    outer loop
      vertex -11 -62 -104
      vertex -11 -75.9 -102.5
      vertex -11 -39.1 -102.5
    endloop
  endfacet
  facet normal -1 0 0
    outer loop
      vertex -11 -65.9 -112.5
      vertex -11 -66 -107
      vertex -11 -62 -107
    endloop
  endfacet
  facet normal -1 0 0
    outer loop
      vertex -11 -66 -107
      vertex -11 -75.9 -102.5
      vertex -11 -66 -104
    endloop
  endfacet
  facet normal -1 0 0
    outer loop
      vertex -11 -75.9 -102.5
      vertex -11 -66 -107
      vertex -11 -65.9 -112.5
    endloop
  endfacet
  facet normal 0 0 1
    outer loop
      vertex -0.1 -39.1 -102.5
      vertex -11 -39.1 -102.5
      vertex -0.1 -53.1 -102.5
    endloop
  endfacet
  facet normal 0 0 1
    outer loop
      vertex 11 -53.1 -102.5
      vertex 0.1 -75.9 -102.5
      vertex 11 -89.9 -102.5
    endloop
  endfacet
  facet normal -0 0 1
    outer loop
      vertex -0.1 -53.1 -102.5
      vertex 0.1 -75.9 -102.5
      vertex 11 -53.1 -102.5
    endloop
  endfacet
  facet normal 0 0 1
    outer loop
      vertex -11 -75.9 -102.5
      vertex -0.1 -53.1 -102.5
      vertex -11 -39.1 -102.5
    endloop
  endfacet
  facet normal 0 0 1
    outer loop
      vertex -0.1 -53.1 -102.5
      vertex -11 -75.9 -102.5
      vertex 0.1 -75.9 -102.5
    endloop
  endfacet
  facet normal 0 0 1
    outer loop
      vertex 11 -89.9 -102.5
      vertex 0.1 -75.9 -102.5
      vertex 0.1 -89.9 -102.5
    endloop
  endfacet
  facet normal 0 0 -1
    outer loop
      vertex 0.1 -75.9 -122.5
      vertex 11 -89.9 -122.5
      vertex 0.1 -89.9 -122.5
    endloop
  endfacet
  facet normal 0 0 -1
    outer loop
      vertex 11 -89.9 -122.5
      vertex 0.1 -75.9 -122.5
      vertex 11 -53.1 -122.5
    endloop
  endfacet
  facet normal 0 0 -1
    outer loop
      vertex 0.1 -75.9 -122.5
      vertex -0.1 -53.1 -122.5
      vertex 11 -53.1 -122.5
    endloop
  endfacet
  facet normal 0 0 -1
    outer loop
      vertex -11 -75.9 -122.5
      vertex -0.1 -53.1 -122.5
      vertex 0.1 -75.9 -122.5
    endloop
  endfacet
  facet normal 0 0 -1
    outer loop
      vertex -11 -39.1 -122.5
      vertex -0.1 -53.1 -122.5
      vertex -11 -75.9 -122.5
    endloop
  endfacet
  facet normal 0 0 -1
    outer loop
      vertex -0.1 -53.1 -122.5
      vertex -11 -39.1 -122.5
      vertex -0.1 -39.1 -122.5
    endloop
  endfacet
  facet normal 0 1 -0
    outer loop
      vertex 11 -66 -121
      vertex -11 -66 -118
      vertex 11 -66 -118
    endloop
  endfacet
  facet normal 0 1 0
    outer loop
      vertex -11 -66 -118
      vertex 11 -66 -121
      vertex -11 -66 -121
    endloop
  endfacet
  facet normal 0 -1 0
    outer loop
      vertex -11 -62 -121
      vertex 11 -62 -118
      vertex -11 -62 -118
    endloop
  endfacet
  facet normal 0 -1 -0
    outer loop
      vertex 11 -62 -118
      vertex -11 -62 -121
      vertex 11 -62 -121
    endloop
  endfacet
  facet normal 0 0 -1
    outer loop
      vertex -11 -66 -118
      vertex 11 -62 -118
      vertex 11 -66 -118
    endloop
  endfacet
  facet normal -0 0 -1
    outer loop
      vertex 11 -62 -118
      vertex -11 -66 -118
      vertex -11 -62 -118
    endloop
  endfacet
  facet normal -0 0 1
    outer loop
      vertex -11 -62 -121
      vertex 11 -66 -121
      vertex 11 -62 -121
    endloop
  endfacet
  facet normal 0 0 1
    outer loop
      vertex 11 -66 -121
      vertex -11 -62 -121
      vertex -11 -66 -121
    endloop
  endfacet
  facet normal 0 1 -0
    outer loop
      vertex 11 -66 -107
      vertex -11 -66 -104
      vertex 11 -66 -104
    endloop
  endfacet
  facet normal 0 1 0
    outer loop
      vertex -11 -66 -104
      vertex 11 -66 -107
      vertex -11 -66 -107
    endloop
  endfacet
  facet normal 0 -1 0
    outer loop
      vertex -11 -62 -107
      vertex 11 -62 -104
      vertex -11 -62 -104
    endloop
  endfacet
  facet normal 0 -1 -0
    outer loop
      vertex 11 -62 -104
      vertex -11 -62 -107
      vertex 11 -62 -107
    endloop
  endfacet
  facet normal 0 0 -1
    outer loop
      vertex -11 -66 -104
      vertex 11 -62 -104
      vertex 11 -66 -104
    endloop
  endfacet
  facet normal -0 0 -1
    outer loop
      vertex 11 -62 -104
      vertex -11 -66 -104
      vertex -11 -62 -104
    endloop
  endfacet
  facet normal -0 0 1
    outer loop
      vertex -11 -62 -107
      vertex 11 -66 -107
      vertex 11 -62 -107
    endloop
  endfacet
  facet normal 0 0 1
    outer loop
      vertex 11 -66 -107
      vertex -11 -62 -107
      vertex -11 -66 -107
    endloop
  endfacet
  facet normal 1 -0 0
    outer loop
      vertex -0.1 -43.1468 -111.573
      vertex -0.1 -29.1 -112.5
      vertex -0.1 -39.1 -102.5
    endloop
  endfacet
  facet normal 1 0 0
    outer loop
      vertex -0.1 -43.0369 -112.969
      vertex -0.1 -29.1 -112.5
      vertex -0.1 -43 -112.5
    endloop
  endfacet
  facet normal 1 0 0
    outer loop
      vertex -0.1 -29.1 -112.5
      vertex -0.1 -43.0369 -112.031
      vertex -0.1 -43 -112.5
    endloop
  endfacet
  facet normal 1 0 0
    outer loop
      vertex -0.1 -29.1 -112.5
      vertex -0.1 -43.1468 -111.573
      vertex -0.1 -43.0369 -112.031
    endloop
  endfacet
  facet normal 1 0 0
    outer loop
      vertex -0.1 -39.1 -102.5
      vertex -0.1 -43.327 -111.138
      vertex -0.1 -43.1468 -111.573
    endloop
  endfacet
  facet normal 1 0 0
    outer loop
      vertex -0.1 -39.1 -102.5
      vertex -0.1 -43.5729 -110.737
      vertex -0.1 -43.327 -111.138
    endloop
  endfacet
  facet normal 1 0 0
    outer loop
      vertex -0.1 -39.1 -102.5
      vertex -0.1 -43.8787 -110.379
      vertex -0.1 -43.5729 -110.737
    endloop
  endfacet
  facet normal 1 0 0
    outer loop
      vertex -0.1 -39.1 -102.5
      vertex -0.1 -44.2366 -110.073
      vertex -0.1 -43.8787 -110.379
    endloop
  endfacet
  facet normal 1 0 0
    outer loop
      vertex -0.1 -39.1 -102.5
      vertex -0.1 -44.638 -109.827
      vertex -0.1 -44.2366 -110.073
    endloop
  endfacet
  facet normal 1 0 0
    outer loop
      vertex -0.1 -39.1 -102.5
      vertex -0.1 -45.0729 -109.647
      vertex -0.1 -44.638 -109.827
    endloop
  endfacet
  facet normal 1 0 0
    outer loop
      vertex -0.1 -39.1 -102.5
      vertex -0.1 -45.5307 -109.537
      vertex -0.1 -45.0729 -109.647
    endloop
  endfacet
  facet normal 1 0 0
    outer loop
      vertex -0.1 -39.1 -102.5
      vertex -0.1 -46 -109.5
      vertex -0.1 -45.5307 -109.537
    endloop
  endfacet
  facet normal 1 -0 0
    outer loop
      vertex -0.1 -53.1 -102.5
      vertex -0.1 -46 -109.5
      vertex -0.1 -39.1 -102.5
    endloop
  endfacet
  facet normal 1 0 0
    outer loop
      vertex -0.1 -46 -109.5
      vertex -0.1 -53.1 -102.5
      vertex -0.1 -46.4693 -109.537
    endloop
  endfacet
  facet normal 1 0 0
    outer loop
      vertex -0.1 -46.4693 -109.537
      vertex -0.1 -53.1 -102.5
      vertex -0.1 -46.9271 -109.647
    endloop
  endfacet
  facet normal 1 0 0
    outer loop
      vertex -0.1 -46.9271 -109.647
      vertex -0.1 -53.1 -102.5
      vertex -0.1 -47.362 -109.827
    endloop
  endfacet
  facet normal 1 0 0
    outer loop
      vertex -0.1 -47.362 -109.827
      vertex -0.1 -53.1 -102.5
      vertex -0.1 -47.7634 -110.073
    endloop
  endfacet
  facet normal 1 0 0
    outer loop
      vertex -0.1 -48.8532 -111.573
      vertex -0.1 -63.1 -112.5
      vertex -0.1 -48.9631 -112.031
    endloop
  endfacet
  facet normal 1 0 0
    outer loop
      vertex -0.1 -63.1 -112.5
      vertex -0.1 -48.8532 -111.573
      vertex -0.1 -53.1 -102.5
    endloop
  endfacet
  facet normal 1 0 0
    outer loop
      vertex -0.1 -48.673 -111.138
      vertex -0.1 -53.1 -102.5
      vertex -0.1 -48.8532 -111.573
    endloop
  endfacet
  facet normal 1 0 0
    outer loop
      vertex -0.1 -48.4271 -110.737
      vertex -0.1 -53.1 -102.5
      vertex -0.1 -48.673 -111.138
    endloop
  endfacet
  facet normal 1 0 0
    outer loop
      vertex -0.1 -48.1213 -110.379
      vertex -0.1 -53.1 -102.5
      vertex -0.1 -48.4271 -110.737
    endloop
  endfacet
  facet normal 1 0 0
    outer loop
      vertex -0.1 -47.7634 -110.073
      vertex -0.1 -53.1 -102.5
      vertex -0.1 -48.1213 -110.379
    endloop
  endfacet
  facet normal 1 0 0
    outer loop
      vertex -0.1 -43.1468 -113.427
      vertex -0.1 -29.1 -112.5
      vertex -0.1 -43.0369 -112.969
    endloop
  endfacet
  facet normal 1 0 0
    outer loop
      vertex -0.1 -29.1 -112.5
      vertex -0.1 -43.1468 -113.427
      vertex -0.1 -39.1 -122.5
    endloop
  endfacet
  facet normal 1 -0 0
    outer loop
      vertex -0.1 -43.327 -113.862
      vertex -0.1 -39.1 -122.5
      vertex -0.1 -43.1468 -113.427
    endloop
  endfacet
  facet normal 1 -0 0
    outer loop
      vertex -0.1 -43.5729 -114.263
      vertex -0.1 -39.1 -122.5
      vertex -0.1 -43.327 -113.862
    endloop
  endfacet
  facet normal 1 -0 0
    outer loop
      vertex -0.1 -43.8787 -114.621
      vertex -0.1 -39.1 -122.5
      vertex -0.1 -43.5729 -114.263
    endloop
  endfacet
  facet normal 1 -0 0
    outer loop
      vertex -0.1 -44.2366 -114.927
      vertex -0.1 -39.1 -122.5
      vertex -0.1 -43.8787 -114.621
    endloop
  endfacet
  facet normal 1 -0 0
    outer loop
      vertex -0.1 -44.638 -115.173
      vertex -0.1 -39.1 -122.5
      vertex -0.1 -44.2366 -114.927
    endloop
  endfacet
  facet normal 1 -0 0
    outer loop
      vertex -0.1 -45.0729 -115.353
      vertex -0.1 -39.1 -122.5
      vertex -0.1 -44.638 -115.173
    endloop
  endfacet
  facet normal 1 -0 0
    outer loop
      vertex -0.1 -45.5307 -115.463
      vertex -0.1 -39.1 -122.5
      vertex -0.1 -45.0729 -115.353
    endloop
  endfacet
  facet normal 1 -0 0
    outer loop
      vertex -0.1 -46 -115.5
      vertex -0.1 -39.1 -122.5
      vertex -0.1 -45.5307 -115.463
    endloop
  endfacet
  facet normal 1 0 0
    outer loop
      vertex -0.1 -53.1 -122.5
      vertex -0.1 -46 -115.5
      vertex -0.1 -46.4693 -115.463
    endloop
  endfacet
  facet normal 1 0 0
    outer loop
      vertex -0.1 -53.1 -122.5
      vertex -0.1 -46.4693 -115.463
      vertex -0.1 -46.9271 -115.353
    endloop
  endfacet
  facet normal 1 0 0
    outer loop
      vertex -0.1 -53.1 -122.5
      vertex -0.1 -46.9271 -115.353
      vertex -0.1 -47.362 -115.173
    endloop
  endfacet
  facet normal 1 0 0
    outer loop
      vertex -0.1 -53.1 -122.5
      vertex -0.1 -47.362 -115.173
      vertex -0.1 -47.7634 -114.927
    endloop
  endfacet
  facet normal 1 0 0
    outer loop
      vertex -0.1 -53.1 -122.5
      vertex -0.1 -47.7634 -114.927
      vertex -0.1 -48.1213 -114.621
    endloop
  endfacet
  facet normal 1 0 0
    outer loop
      vertex -0.1 -48.9631 -112.031
      vertex -0.1 -63.1 -112.5
      vertex -0.1 -49 -112.5
    endloop
  endfacet
  facet normal 1 0 0
    outer loop
      vertex -0.1 -49 -112.5
      vertex -0.1 -63.1 -112.5
      vertex -0.1 -48.9631 -112.969
    endloop
  endfacet
  facet normal 1 0 0
    outer loop
      vertex -0.1 -46 -115.5
      vertex -0.1 -53.1 -122.5
      vertex -0.1 -39.1 -122.5
    endloop
  endfacet
  facet normal 1 0 0
    outer loop
      vertex -0.1 -48.4271 -114.263
      vertex -0.1 -53.1 -122.5
      vertex -0.1 -48.1213 -114.621
    endloop
  endfacet
  facet normal 1 0 0
    outer loop
      vertex -0.1 -48.673 -113.862
      vertex -0.1 -53.1 -122.5
      vertex -0.1 -48.4271 -114.263
    endloop
  endfacet
  facet normal 1 0 0
    outer loop
      vertex -0.1 -48.8532 -113.427
      vertex -0.1 -53.1 -122.5
      vertex -0.1 -48.673 -113.862
    endloop
  endfacet
  facet normal 1 0 0
    outer loop
      vertex -0.1 -48.9631 -112.969
      vertex -0.1 -63.1 -112.5
      vertex -0.1 -48.8532 -113.427
    endloop
  endfacet
  facet normal 1 0 0
    outer loop
      vertex -0.1 -48.8532 -113.427
      vertex -0.1 -63.1 -112.5
      vertex -0.1 -53.1 -122.5
    endloop
  endfacet
  facet normal 0 0.707107 0.707107
    outer loop
      vertex 11 -53.1 -122.5
      vertex -0.1 -63.1 -112.5
      vertex 11 -63.1 -112.5
    endloop
  endfacet
  facet normal 0 0.707107 0.707107
    outer loop
      vertex -0.1 -63.1 -112.5
      vertex 11 -53.1 -122.5
      vertex -0.1 -53.1 -122.5
    endloop
  endfacet
  facet normal 0 0.707107 -0.707107
    outer loop
      vertex 11 -63.1 -112.5
      vertex -0.1 -53.1 -102.5
      vertex 11 -53.1 -102.5
    endloop
  endfacet
  facet normal 0 0.707107 -0.707107
    outer loop
      vertex -0.1 -53.1 -102.5
      vertex 11 -63.1 -112.5
      vertex -0.1 -63.1 -112.5
    endloop
  endfacet
  facet normal 0 0.707107 0.707107
    outer loop
      vertex -0.1 -29.1 -112.5
      vertex -11 -39.1 -102.5
      vertex -0.1 -39.1 -102.5
    endloop
  endfacet
  facet normal 0 0.707107 0.707107
    outer loop
      vertex -11 -39.1 -102.5
      vertex -0.1 -29.1 -112.5
      vertex -11 -29.1 -112.5
    endloop
  endfacet
  facet normal 0 0.707107 -0.707107
    outer loop
      vertex -0.1 -39.1 -122.5
      vertex -11 -29.1 -112.5
      vertex -0.1 -29.1 -112.5
    endloop
  endfacet
  facet normal 0 0.707107 -0.707107
    outer loop
      vertex -11 -29.1 -112.5
      vertex -0.1 -39.1 -122.5
      vertex -11 -39.1 -122.5
    endloop
  endfacet
  facet normal 0 0.923867 -0.382714
    outer loop
      vertex -0.1 -48.8532 -111.573
      vertex -5.155 -48.673 -111.138
      vertex -0.1 -48.673 -111.138
    endloop
  endfacet
  facet normal 0 0.923867 -0.382714
    outer loop
      vertex -5.155 -48.673 -111.138
      vertex -0.1 -48.8532 -111.573
      vertex -5.155 -48.8532 -111.573
    endloop
  endfacet
  facet normal 0 -0.972397 -0.233333
    outer loop
      vertex -5.155 -43.0369 -112.031
      vertex -0.1 -43.1468 -111.573
      vertex -5.155 -43.1468 -111.573
    endloop
  endfacet
  facet normal 0 -0.972397 -0.233333
    outer loop
      vertex -0.1 -43.1468 -111.573
      vertex -5.155 -43.0369 -112.031
      vertex -0.1 -43.0369 -112.031
    endloop
  endfacet
  facet normal 0 -0.996919 -0.0784356
    outer loop
      vertex -5.155 -43 -112.5
      vertex -0.1 -43.0369 -112.031
      vertex -5.155 -43.0369 -112.031
    endloop
  endfacet
  facet normal 0 -0.996919 -0.0784356
    outer loop
      vertex -0.1 -43.0369 -112.031
      vertex -5.155 -43 -112.5
      vertex -0.1 -43 -112.5
    endloop
  endfacet
  facet normal 0 -0.923867 -0.382714
    outer loop
      vertex -5.155 -43.1468 -111.573
      vertex -0.1 -43.327 -111.138
      vertex -5.155 -43.327 -111.138
    endloop
  endfacet
  facet normal 0 -0.923867 -0.382714
    outer loop
      vertex -0.1 -43.327 -111.138
      vertex -5.155 -43.1468 -111.573
      vertex -0.1 -43.1468 -111.573
    endloop
  endfacet
  facet normal 0 -0.522532 0.85262
    outer loop
      vertex -5.155 -44.2366 -114.927
      vertex -0.1 -44.638 -115.173
      vertex -0.1 -44.2366 -114.927
    endloop
  endfacet
  facet normal 0 -0.522532 0.85262
    outer loop
      vertex -0.1 -44.638 -115.173
      vertex -5.155 -44.2366 -114.927
      vertex -5.155 -44.638 -115.173
    endloop
  endfacet
  facet normal 0 -0.972397 0.233333
    outer loop
      vertex -5.155 -43.1468 -113.427
      vertex -0.1 -43.0369 -112.969
      vertex -5.155 -43.0369 -112.969
    endloop
  endfacet
  facet normal 0 -0.972397 0.233333
    outer loop
      vertex -0.1 -43.0369 -112.969
      vertex -5.155 -43.1468 -113.427
      vertex -0.1 -43.1468 -113.427
    endloop
  endfacet
  facet normal 0 -0.382427 0.923986
    outer loop
      vertex -5.155 -44.638 -115.173
      vertex -0.1 -45.0729 -115.353
      vertex -0.1 -44.638 -115.173
    endloop
  endfacet
  facet normal 0 -0.382427 0.923986
    outer loop
      vertex -0.1 -45.0729 -115.353
      vertex -5.155 -44.638 -115.173
      vertex -5.155 -45.0729 -115.353
    endloop
  endfacet
  facet normal 0 0.382427 -0.923986
    outer loop
      vertex -5.155 -47.362 -109.827
      vertex -0.1 -46.9271 -109.647
      vertex -0.1 -47.362 -109.827
    endloop
  endfacet
  facet normal 0 0.382427 -0.923986
    outer loop
      vertex -0.1 -46.9271 -109.647
      vertex -5.155 -47.362 -109.827
      vertex -5.155 -46.9271 -109.647
    endloop
  endfacet
  facet normal -0 0.382427 0.923986
    outer loop
      vertex -5.155 -46.9271 -115.353
      vertex -0.1 -47.362 -115.173
      vertex -0.1 -46.9271 -115.353
    endloop
  endfacet
  facet normal 0 0.382427 0.923986
    outer loop
      vertex -0.1 -47.362 -115.173
      vertex -5.155 -46.9271 -115.353
      vertex -5.155 -47.362 -115.173
    endloop
  endfacet
  facet normal 0 0.522532 -0.85262
    outer loop
      vertex -5.155 -47.7634 -110.073
      vertex -0.1 -47.362 -109.827
      vertex -0.1 -47.7634 -110.073
    endloop
  endfacet
  facet normal 0 0.522532 -0.85262
    outer loop
      vertex -0.1 -47.362 -109.827
      vertex -5.155 -47.7634 -110.073
      vertex -5.155 -47.362 -109.827
    endloop
  endfacet
  facet normal 0 -0.649846 -0.760066
    outer loop
      vertex -5.155 -44.2366 -110.073
      vertex -0.1 -43.8787 -110.379
      vertex -0.1 -44.2366 -110.073
    endloop
  endfacet
  facet normal -0 -0.649846 -0.760066
    outer loop
      vertex -0.1 -43.8787 -110.379
      vertex -5.155 -44.2366 -110.073
      vertex -5.155 -43.8787 -110.379
    endloop
  endfacet
  facet normal 0 0.23363 -0.972326
    outer loop
      vertex -5.155 -46.9271 -109.647
      vertex -0.1 -46.4693 -109.537
      vertex -0.1 -46.9271 -109.647
    endloop
  endfacet
  facet normal 0 0.23363 -0.972326
    outer loop
      vertex -0.1 -46.4693 -109.537
      vertex -5.155 -46.9271 -109.647
      vertex -5.155 -46.4693 -109.537
    endloop
  endfacet
  facet normal 0 0.923867 0.382714
    outer loop
      vertex -0.1 -48.673 -113.862
      vertex -5.155 -48.8532 -113.427
      vertex -0.1 -48.8532 -113.427
    endloop
  endfacet
  facet normal 0 0.923867 0.382714
    outer loop
      vertex -5.155 -48.8532 -113.427
      vertex -0.1 -48.673 -113.862
      vertex -5.155 -48.673 -113.862
    endloop
  endfacet
  facet normal 0 0.0785969 -0.996906
    outer loop
      vertex -5.155 -46.4693 -109.537
      vertex -0.1 -46 -109.5
      vertex -0.1 -46.4693 -109.537
    endloop
  endfacet
  facet normal 0 0.0785969 -0.996906
    outer loop
      vertex -0.1 -46 -109.5
      vertex -5.155 -46.4693 -109.537
      vertex -5.155 -46 -109.5
    endloop
  endfacet
  facet normal -0 0.23363 0.972326
    outer loop
      vertex -5.155 -46.4693 -115.463
      vertex -0.1 -46.9271 -115.353
      vertex -0.1 -46.4693 -115.463
    endloop
  endfacet
  facet normal 0 0.23363 0.972326
    outer loop
      vertex -0.1 -46.9271 -115.353
      vertex -5.155 -46.4693 -115.463
      vertex -5.155 -46.9271 -115.353
    endloop
  endfacet
  facet normal 0 -0.923867 0.382714
    outer loop
      vertex -5.155 -43.327 -113.862
      vertex -0.1 -43.1468 -113.427
      vertex -5.155 -43.1468 -113.427
    endloop
  endfacet
  facet normal 0 -0.923867 0.382714
    outer loop
      vertex -0.1 -43.1468 -113.427
      vertex -5.155 -43.327 -113.862
      vertex -0.1 -43.327 -113.862
    endloop
  endfacet
  facet normal 0 0.760365 0.649496
    outer loop
      vertex -0.1 -48.1213 -114.621
      vertex -5.155 -48.4271 -114.263
      vertex -0.1 -48.4271 -114.263
    endloop
  endfacet
  facet normal 0 0.760365 0.649496
    outer loop
      vertex -5.155 -48.4271 -114.263
      vertex -0.1 -48.1213 -114.621
      vertex -5.155 -48.1213 -114.621
    endloop
  endfacet
  facet normal 0 0.649846 -0.760066
    outer loop
      vertex -5.155 -48.1213 -110.379
      vertex -0.1 -47.7634 -110.073
      vertex -0.1 -48.1213 -110.379
    endloop
  endfacet
  facet normal 0 0.649846 -0.760066
    outer loop
      vertex -0.1 -47.7634 -110.073
      vertex -5.155 -48.1213 -110.379
      vertex -5.155 -47.7634 -110.073
    endloop
  endfacet
  facet normal 0 -0.0785969 0.996906
    outer loop
      vertex -5.155 -45.5307 -115.463
      vertex -0.1 -46 -115.5
      vertex -0.1 -45.5307 -115.463
    endloop
  endfacet
  facet normal 0 -0.0785969 0.996906
    outer loop
      vertex -0.1 -46 -115.5
      vertex -5.155 -45.5307 -115.463
      vertex -5.155 -46 -115.5
    endloop
  endfacet
  facet normal -0 0.649846 0.760066
    outer loop
      vertex -5.155 -47.7634 -114.927
      vertex -0.1 -48.1213 -114.621
      vertex -0.1 -47.7634 -114.927
    endloop
  endfacet
  facet normal 0 0.649846 0.760066
    outer loop
      vertex -0.1 -48.1213 -114.621
      vertex -5.155 -47.7634 -114.927
      vertex -5.155 -48.1213 -114.621
    endloop
  endfacet
  facet normal 0 -0.852482 0.522756
    outer loop
      vertex -5.155 -43.5729 -114.263
      vertex -0.1 -43.327 -113.862
      vertex -5.155 -43.327 -113.862
    endloop
  endfacet
  facet normal 0 -0.852482 0.522756
    outer loop
      vertex -0.1 -43.327 -113.862
      vertex -5.155 -43.5729 -114.263
      vertex -0.1 -43.5729 -114.263
    endloop
  endfacet
  facet normal 0 -0.852482 -0.522756
    outer loop
      vertex -5.155 -43.327 -111.138
      vertex -0.1 -43.5729 -110.737
      vertex -5.155 -43.5729 -110.737
    endloop
  endfacet
  facet normal 0 -0.852482 -0.522756
    outer loop
      vertex -0.1 -43.5729 -110.737
      vertex -5.155 -43.327 -111.138
      vertex -0.1 -43.327 -111.138
    endloop
  endfacet
  facet normal 0 -0.760365 -0.649496
    outer loop
      vertex -5.155 -43.5729 -110.737
      vertex -0.1 -43.8787 -110.379
      vertex -5.155 -43.8787 -110.379
    endloop
  endfacet
  facet normal 0 -0.760365 -0.649496
    outer loop
      vertex -0.1 -43.8787 -110.379
      vertex -5.155 -43.5729 -110.737
      vertex -0.1 -43.5729 -110.737
    endloop
  endfacet
  facet normal 0 0.760365 -0.649496
    outer loop
      vertex -0.1 -48.4271 -110.737
      vertex -5.155 -48.1213 -110.379
      vertex -0.1 -48.1213 -110.379
    endloop
  endfacet
  facet normal 0 0.760365 -0.649496
    outer loop
      vertex -5.155 -48.1213 -110.379
      vertex -0.1 -48.4271 -110.737
      vertex -5.155 -48.4271 -110.737
    endloop
  endfacet
  facet normal 0 -0.0785969 -0.996906
    outer loop
      vertex -5.155 -46 -109.5
      vertex -0.1 -45.5307 -109.537
      vertex -0.1 -46 -109.5
    endloop
  endfacet
  facet normal -0 -0.0785969 -0.996906
    outer loop
      vertex -0.1 -45.5307 -109.537
      vertex -5.155 -46 -109.5
      vertex -5.155 -45.5307 -109.537
    endloop
  endfacet
  facet normal 0 -0.382427 -0.923986
    outer loop
      vertex -5.155 -45.0729 -109.647
      vertex -0.1 -44.638 -109.827
      vertex -0.1 -45.0729 -109.647
    endloop
  endfacet
  facet normal -0 -0.382427 -0.923986
    outer loop
      vertex -0.1 -44.638 -109.827
      vertex -5.155 -45.0729 -109.647
      vertex -5.155 -44.638 -109.827
    endloop
  endfacet
  facet normal 0 0.972397 -0.233333
    outer loop
      vertex -0.1 -48.9631 -112.031
      vertex -5.155 -48.8532 -111.573
      vertex -0.1 -48.8532 -111.573
    endloop
  endfacet
  facet normal 0 0.972397 -0.233333
    outer loop
      vertex -5.155 -48.8532 -111.573
      vertex -0.1 -48.9631 -112.031
      vertex -5.155 -48.9631 -112.031
    endloop
  endfacet
  facet normal 0 -0.522532 -0.85262
    outer loop
      vertex -5.155 -44.638 -109.827
      vertex -0.1 -44.2366 -110.073
      vertex -0.1 -44.638 -109.827
    endloop
  endfacet
  facet normal -0 -0.522532 -0.85262
    outer loop
      vertex -0.1 -44.2366 -110.073
      vertex -5.155 -44.638 -109.827
      vertex -5.155 -44.2366 -110.073
    endloop
  endfacet
  facet normal 0 -0.23363 0.972326
    outer loop
      vertex -5.155 -45.0729 -115.353
      vertex -0.1 -45.5307 -115.463
      vertex -0.1 -45.0729 -115.353
    endloop
  endfacet
  facet normal 0 -0.23363 0.972326
    outer loop
      vertex -0.1 -45.5307 -115.463
      vertex -5.155 -45.0729 -115.353
      vertex -5.155 -45.5307 -115.463
    endloop
  endfacet
  facet normal 0 -0.996919 0.0784356
    outer loop
      vertex -5.155 -43.0369 -112.969
      vertex -0.1 -43 -112.5
      vertex -5.155 -43 -112.5
    endloop
  endfacet
  facet normal 0 -0.996919 0.0784356
    outer loop
      vertex -0.1 -43 -112.5
      vertex -5.155 -43.0369 -112.969
      vertex -0.1 -43.0369 -112.969
    endloop
  endfacet
  facet normal 0 -0.760365 0.649496
    outer loop
      vertex -5.155 -43.8787 -114.621
      vertex -0.1 -43.5729 -114.263
      vertex -5.155 -43.5729 -114.263
    endloop
  endfacet
  facet normal 0 -0.760365 0.649496
    outer loop
      vertex -0.1 -43.5729 -114.263
      vertex -5.155 -43.8787 -114.621
      vertex -0.1 -43.8787 -114.621
    endloop
  endfacet
  facet normal 0 0.852482 0.522756
    outer loop
      vertex -0.1 -48.4271 -114.263
      vertex -5.155 -48.673 -113.862
      vertex -0.1 -48.673 -113.862
    endloop
  endfacet
  facet normal 0 0.852482 0.522756
    outer loop
      vertex -5.155 -48.673 -113.862
      vertex -0.1 -48.4271 -114.263
      vertex -5.155 -48.4271 -114.263
    endloop
  endfacet
  facet normal 0 0.996919 0.0784356
    outer loop
      vertex -0.1 -48.9631 -112.969
      vertex -5.155 -49 -112.5
      vertex -0.1 -49 -112.5
    endloop
  endfacet
  facet normal 0 0.996919 0.0784356
    outer loop
      vertex -5.155 -49 -112.5
      vertex -0.1 -48.9631 -112.969
      vertex -5.155 -48.9631 -112.969
    endloop
  endfacet
  facet normal -0 0.0785969 0.996906
    outer loop
      vertex -5.155 -46 -115.5
      vertex -0.1 -46.4693 -115.463
      vertex -0.1 -46 -115.5
    endloop
  endfacet
  facet normal 0 0.0785969 0.996906
    outer loop
      vertex -0.1 -46.4693 -115.463
      vertex -5.155 -46 -115.5
      vertex -5.155 -46.4693 -115.463
    endloop
  endfacet
  facet normal 0 0.972397 0.233333
    outer loop
      vertex -0.1 -48.8532 -113.427
      vertex -5.155 -48.9631 -112.969
      vertex -0.1 -48.9631 -112.969
    endloop
  endfacet
  facet normal 0 0.972397 0.233333
    outer loop
      vertex -5.155 -48.9631 -112.969
      vertex -0.1 -48.8532 -113.427
      vertex -5.155 -48.8532 -113.427
    endloop
  endfacet
  facet normal 0 -0.23363 -0.972326
    outer loop
      vertex -5.155 -45.5307 -109.537
      vertex -0.1 -45.0729 -109.647
      vertex -0.1 -45.5307 -109.537
    endloop
  endfacet
  facet normal -0 -0.23363 -0.972326
    outer loop
      vertex -0.1 -45.0729 -109.647
      vertex -5.155 -45.5307 -109.537
      vertex -5.155 -45.0729 -109.647
    endloop
  endfacet
  facet normal -0 0.522532 0.85262
    outer loop
      vertex -5.155 -47.362 -115.173
      vertex -0.1 -47.7634 -114.927
      vertex -0.1 -47.362 -115.173
    endloop
  endfacet
  facet normal 0 0.522532 0.85262
    outer loop
      vertex -0.1 -47.7634 -114.927
      vertex -5.155 -47.362 -115.173
      vertex -5.155 -47.7634 -114.927
    endloop
  endfacet
  facet normal 0 0.996919 -0.0784356
    outer loop
      vertex -0.1 -49 -112.5
      vertex -5.155 -48.9631 -112.031
      vertex -0.1 -48.9631 -112.031
    endloop
  endfacet
  facet normal 0 0.996919 -0.0784356
    outer loop
      vertex -5.155 -48.9631 -112.031
      vertex -0.1 -49 -112.5
      vertex -5.155 -49 -112.5
    endloop
  endfacet
  facet normal 0 0.852482 -0.522756
    outer loop
      vertex -0.1 -48.673 -111.138
      vertex -5.155 -48.4271 -110.737
      vertex -0.1 -48.4271 -110.737
    endloop
  endfacet
  facet normal 0 0.852482 -0.522756
    outer loop
      vertex -5.155 -48.4271 -110.737
      vertex -0.1 -48.673 -111.138
      vertex -5.155 -48.673 -111.138
    endloop
  endfacet
  facet normal 0 -0.649846 0.760066
    outer loop
      vertex -5.155 -43.8787 -114.621
      vertex -0.1 -44.2366 -114.927
      vertex -0.1 -43.8787 -114.621
    endloop
  endfacet
  facet normal 0 -0.649846 0.760066
    outer loop
      vertex -0.1 -44.2366 -114.927
      vertex -5.155 -43.8787 -114.621
      vertex -5.155 -44.2366 -114.927
    endloop
  endfacet
  facet normal 0 0.866019 -0.500011
    outer loop
      vertex -5.155 -50.5 -112.5
      vertex -11 -48.25 -108.603
      vertex -5.155 -48.25 -108.603
    endloop
  endfacet
  facet normal 0 0.866019 -0.500011
    outer loop
      vertex -11 -48.25 -108.603
      vertex -5.155 -50.5 -112.5
      vertex -11 -50.5 -112.5
    endloop
  endfacet
  facet normal -1 -0 0
    outer loop
      vertex -5.155 -41.5 -112.5
      vertex -5.155 -43.0369 -112.969
      vertex -5.155 -43 -112.5
    endloop
  endfacet
  facet normal -1 0 0
    outer loop
      vertex -5.155 -41.5 -112.5
      vertex -5.155 -43.1468 -113.427
      vertex -5.155 -43.0369 -112.969
    endloop
  endfacet
  facet normal -1 0 0
    outer loop
      vertex -5.155 -41.5 -112.5
      vertex -5.155 -43.327 -113.862
      vertex -5.155 -43.1468 -113.427
    endloop
  endfacet
  facet normal -1 0 0
    outer loop
      vertex -5.155 -43.75 -116.397
      vertex -5.155 -43.327 -113.862
      vertex -5.155 -41.5 -112.5
    endloop
  endfacet
  facet normal -1 0 0
    outer loop
      vertex -5.155 -43.327 -113.862
      vertex -5.155 -43.75 -116.397
      vertex -5.155 -43.5729 -114.263
    endloop
  endfacet
  facet normal -1 0 0
    outer loop
      vertex -5.155 -43.75 -116.397
      vertex -5.155 -43.8787 -114.621
      vertex -5.155 -43.5729 -114.263
    endloop
  endfacet
  facet normal -1 0 0
    outer loop
      vertex -5.155 -43.75 -116.397
      vertex -5.155 -44.2366 -114.927
      vertex -5.155 -43.8787 -114.621
    endloop
  endfacet
  facet normal -1 0 0
    outer loop
      vertex -5.155 -43.75 -116.397
      vertex -5.155 -44.638 -115.173
      vertex -5.155 -44.2366 -114.927
    endloop
  endfacet
  facet normal -1 0 0
    outer loop
      vertex -5.155 -43.75 -116.397
      vertex -5.155 -45.0729 -115.353
      vertex -5.155 -44.638 -115.173
    endloop
  endfacet
  facet normal -1 0 0
    outer loop
      vertex -5.155 -43.75 -116.397
      vertex -5.155 -45.5307 -115.463
      vertex -5.155 -45.0729 -115.353
    endloop
  endfacet
  facet normal -1 0 0
    outer loop
      vertex -5.155 -43.75 -116.397
      vertex -5.155 -46 -115.5
      vertex -5.155 -45.5307 -115.463
    endloop
  endfacet
  facet normal -1 0 0
    outer loop
      vertex -5.155 -48.25 -116.397
      vertex -5.155 -46 -115.5
      vertex -5.155 -43.75 -116.397
    endloop
  endfacet
  facet normal -1 -0 0
    outer loop
      vertex -5.155 -46 -115.5
      vertex -5.155 -48.25 -116.397
      vertex -5.155 -46.4693 -115.463
    endloop
  endfacet
  facet normal -1 -0 0
    outer loop
      vertex -5.155 -46.4693 -115.463
      vertex -5.155 -48.25 -116.397
      vertex -5.155 -46.9271 -115.353
    endloop
  endfacet
  facet normal -1 0 0
    outer loop
      vertex -5.155 -48.25 -116.397
      vertex -5.155 -47.362 -115.173
      vertex -5.155 -46.9271 -115.353
    endloop
  endfacet
  facet normal -1 0 0
    outer loop
      vertex -5.155 -48.25 -116.397
      vertex -5.155 -47.7634 -114.927
      vertex -5.155 -47.362 -115.173
    endloop
  endfacet
  facet normal -1 0 0
    outer loop
      vertex -5.155 -48.25 -116.397
      vertex -5.155 -48.1213 -114.621
      vertex -5.155 -47.7634 -114.927
    endloop
  endfacet
  facet normal -1 0 0
    outer loop
      vertex -5.155 -48.25 -116.397
      vertex -5.155 -48.4271 -114.263
      vertex -5.155 -48.1213 -114.621
    endloop
  endfacet
  facet normal -1 0 0
    outer loop
      vertex -5.155 -48.25 -116.397
      vertex -5.155 -48.673 -113.862
      vertex -5.155 -48.4271 -114.263
    endloop
  endfacet
  facet normal -1 0 0
    outer loop
      vertex -5.155 -50.5 -112.5
      vertex -5.155 -48.673 -113.862
      vertex -5.155 -48.25 -116.397
    endloop
  endfacet
  facet normal -1 0 0
    outer loop
      vertex -5.155 -48.673 -113.862
      vertex -5.155 -50.5 -112.5
      vertex -5.155 -48.8532 -113.427
    endloop
  endfacet
  facet normal -1 0 0
    outer loop
      vertex -5.155 -48.9631 -112.969
      vertex -5.155 -50.5 -112.5
      vertex -5.155 -49 -112.5
    endloop
  endfacet
  facet normal -1 0 0
    outer loop
      vertex -5.155 -48.8532 -113.427
      vertex -5.155 -50.5 -112.5
      vertex -5.155 -48.9631 -112.969
    endloop
  endfacet
  facet normal -1 0 0
    outer loop
      vertex -5.155 -43.0369 -112.031
      vertex -5.155 -41.5 -112.5
      vertex -5.155 -43 -112.5
    endloop
  endfacet
  facet normal -1 0 0
    outer loop
      vertex -5.155 -43.1468 -111.573
      vertex -5.155 -41.5 -112.5
      vertex -5.155 -43.0369 -112.031
    endloop
  endfacet
  facet normal -1 0 0
    outer loop
      vertex -5.155 -43.327 -111.138
      vertex -5.155 -41.5 -112.5
      vertex -5.155 -43.1468 -111.573
    endloop
  endfacet
  facet normal -1 0 0
    outer loop
      vertex -5.155 -43.75 -108.603
      vertex -5.155 -43.327 -111.138
      vertex -5.155 -43.5729 -110.737
    endloop
  endfacet
  facet normal -1 0 0
    outer loop
      vertex -5.155 -43.327 -111.138
      vertex -5.155 -43.75 -108.603
      vertex -5.155 -41.5 -112.5
    endloop
  endfacet
  facet normal -1 0 0
    outer loop
      vertex -5.155 -43.8787 -110.379
      vertex -5.155 -43.75 -108.603
      vertex -5.155 -43.5729 -110.737
    endloop
  endfacet
  facet normal -1 0 0
    outer loop
      vertex -5.155 -44.2366 -110.073
      vertex -5.155 -43.75 -108.603
      vertex -5.155 -43.8787 -110.379
    endloop
  endfacet
  facet normal -1 0 0
    outer loop
      vertex -5.155 -44.638 -109.827
      vertex -5.155 -43.75 -108.603
      vertex -5.155 -44.2366 -110.073
    endloop
  endfacet
  facet normal -1 0 0
    outer loop
      vertex -5.155 -45.0729 -109.647
      vertex -5.155 -43.75 -108.603
      vertex -5.155 -44.638 -109.827
    endloop
  endfacet
  facet normal -1 0 0
    outer loop
      vertex -5.155 -45.5307 -109.537
      vertex -5.155 -43.75 -108.603
      vertex -5.155 -45.0729 -109.647
    endloop
  endfacet
  facet normal -1 0 0
    outer loop
      vertex -5.155 -46 -109.5
      vertex -5.155 -43.75 -108.603
      vertex -5.155 -45.5307 -109.537
    endloop
  endfacet
  facet normal -1 0 0
    outer loop
      vertex -5.155 -48.25 -108.603
      vertex -5.155 -46 -109.5
      vertex -5.155 -46.4693 -109.537
    endloop
  endfacet
  facet normal -1 0 0
    outer loop
      vertex -5.155 -48.25 -108.603
      vertex -5.155 -46.4693 -109.537
      vertex -5.155 -46.9271 -109.647
    endloop
  endfacet
  facet normal -1 0 0
    outer loop
      vertex -5.155 -46 -109.5
      vertex -5.155 -48.25 -108.603
      vertex -5.155 -43.75 -108.603
    endloop
  endfacet
  facet normal -1 0 0
    outer loop
      vertex -5.155 -47.362 -109.827
      vertex -5.155 -48.25 -108.603
      vertex -5.155 -46.9271 -109.647
    endloop
  endfacet
  facet normal -1 0 0
    outer loop
      vertex -5.155 -47.7634 -110.073
      vertex -5.155 -48.25 -108.603
      vertex -5.155 -47.362 -109.827
    endloop
  endfacet
  facet normal -1 0 0
    outer loop
      vertex -5.155 -48.1213 -110.379
      vertex -5.155 -48.25 -108.603
      vertex -5.155 -47.7634 -110.073
    endloop
  endfacet
  facet normal -1 0 0
    outer loop
      vertex -5.155 -48.4271 -110.737
      vertex -5.155 -48.25 -108.603
      vertex -5.155 -48.1213 -110.379
    endloop
  endfacet
  facet normal -1 0 0
    outer loop
      vertex -5.155 -48.673 -111.138
      vertex -5.155 -48.25 -108.603
      vertex -5.155 -48.4271 -110.737
    endloop
  endfacet
  facet normal -1 0 0
    outer loop
      vertex -5.155 -50.5 -112.5
      vertex -5.155 -48.673 -111.138
      vertex -5.155 -48.8532 -111.573
    endloop
  endfacet
  facet normal -1 0 0
    outer loop
      vertex -5.155 -50.5 -112.5
      vertex -5.155 -48.8532 -111.573
      vertex -5.155 -48.9631 -112.031
    endloop
  endfacet
  facet normal -1 -0 0
    outer loop
      vertex -5.155 -48.673 -111.138
      vertex -5.155 -50.5 -112.5
      vertex -5.155 -48.25 -108.603
    endloop
  endfacet
  facet normal -1 0 0
    outer loop
      vertex -5.155 -50.5 -112.5
      vertex -5.155 -48.9631 -112.031
      vertex -5.155 -49 -112.5
    endloop
  endfacet
  facet normal 0 -0.866019 0.500011
    outer loop
      vertex -11 -43.75 -116.397
      vertex -5.155 -41.5 -112.5
      vertex -11 -41.5 -112.5
    endloop
  endfacet
  facet normal 0 -0.866019 0.500011
    outer loop
      vertex -5.155 -41.5 -112.5
      vertex -11 -43.75 -116.397
      vertex -5.155 -43.75 -116.397
    endloop
  endfacet
  facet normal 0 0.866019 0.500011
    outer loop
      vertex -5.155 -48.25 -116.397
      vertex -11 -50.5 -112.5
      vertex -5.155 -50.5 -112.5
    endloop
  endfacet
  facet normal 0 0.866019 0.500011
    outer loop
      vertex -11 -50.5 -112.5
      vertex -5.155 -48.25 -116.397
      vertex -11 -48.25 -116.397
    endloop
  endfacet
  facet normal -0 0 1
    outer loop
      vertex -11 -43.75 -116.397
      vertex -5.155 -48.25 -116.397
      vertex -5.155 -43.75 -116.397
    endloop
  endfacet
  facet normal 0 0 1
    outer loop
      vertex -5.155 -48.25 -116.397
      vertex -11 -43.75 -116.397
      vertex -11 -48.25 -116.397
    endloop
  endfacet
  facet normal 0 0 -1
    outer loop
      vertex -11 -48.25 -108.603
      vertex -5.155 -43.75 -108.603
      vertex -5.155 -48.25 -108.603
    endloop
  endfacet
  facet normal -0 0 -1
    outer loop
      vertex -5.155 -43.75 -108.603
      vertex -11 -48.25 -108.603
      vertex -11 -43.75 -108.603
    endloop
  endfacet
  facet normal 0 -0.866019 -0.500011
    outer loop
      vertex -11 -41.5 -112.5
      vertex -5.155 -43.75 -108.603
      vertex -11 -43.75 -108.603
    endloop
  endfacet
  facet normal 0 -0.866019 -0.500011
    outer loop
      vertex -5.155 -43.75 -108.603
      vertex -11 -41.5 -112.5
      vertex -5.155 -41.5 -112.5
    endloop
  endfacet
  facet normal -1 0 0
    outer loop
      vertex 0.1 -80.1468 -113.427
      vertex 0.1 -65.9 -112.5
      vertex 0.1 -75.9 -122.5
    endloop
  endfacet
  facet normal -1 0 0
    outer loop
      vertex 0.1 -80.0369 -112.031
      vertex 0.1 -65.9 -112.5
      vertex 0.1 -80 -112.5
    endloop
  endfacet
  facet normal -1 -0 0
    outer loop
      vertex 0.1 -65.9 -112.5
      vertex 0.1 -80.0369 -112.969
      vertex 0.1 -80 -112.5
    endloop
  endfacet
  facet normal -1 0 0
    outer loop
      vertex 0.1 -65.9 -112.5
      vertex 0.1 -80.1468 -113.427
      vertex 0.1 -80.0369 -112.969
    endloop
  endfacet
  facet normal -1 0 0
    outer loop
      vertex 0.1 -75.9 -122.5
      vertex 0.1 -80.327 -113.862
      vertex 0.1 -80.1468 -113.427
    endloop
  endfacet
  facet normal -1 0 0
    outer loop
      vertex 0.1 -75.9 -122.5
      vertex 0.1 -80.573 -114.263
      vertex 0.1 -80.327 -113.862
    endloop
  endfacet
  facet normal -1 0 0
    outer loop
      vertex 0.1 -75.9 -122.5
      vertex 0.1 -80.8787 -114.621
      vertex 0.1 -80.573 -114.263
    endloop
  endfacet
  facet normal -1 0 0
    outer loop
      vertex 0.1 -75.9 -122.5
      vertex 0.1 -81.2366 -114.927
      vertex 0.1 -80.8787 -114.621
    endloop
  endfacet
  facet normal -1 0 0
    outer loop
      vertex 0.1 -75.9 -122.5
      vertex 0.1 -81.638 -115.173
      vertex 0.1 -81.2366 -114.927
    endloop
  endfacet
  facet normal -1 0 0
    outer loop
      vertex 0.1 -75.9 -122.5
      vertex 0.1 -82.073 -115.353
      vertex 0.1 -81.638 -115.173
    endloop
  endfacet
  facet normal -1 0 0
    outer loop
      vertex 0.1 -75.9 -122.5
      vertex 0.1 -82.5307 -115.463
      vertex 0.1 -82.073 -115.353
    endloop
  endfacet
  facet normal -1 0 0
    outer loop
      vertex 0.1 -75.9 -122.5
      vertex 0.1 -83 -115.5
      vertex 0.1 -82.5307 -115.463
    endloop
  endfacet
  facet normal -1 0 0
    outer loop
      vertex 0.1 -89.9 -122.5
      vertex 0.1 -83 -115.5
      vertex 0.1 -75.9 -122.5
    endloop
  endfacet
  facet normal -1 -0 0
    outer loop
      vertex 0.1 -83 -115.5
      vertex 0.1 -89.9 -122.5
      vertex 0.1 -83.4693 -115.463
    endloop
  endfacet
  facet normal -1 -0 0
    outer loop
      vertex 0.1 -83.4693 -115.463
      vertex 0.1 -89.9 -122.5
      vertex 0.1 -83.927 -115.353
    endloop
  endfacet
  facet normal -1 -0 0
    outer loop
      vertex 0.1 -83.927 -115.353
      vertex 0.1 -89.9 -122.5
      vertex 0.1 -84.362 -115.173
    endloop
  endfacet
  facet normal -1 -0 0
    outer loop
      vertex 0.1 -84.362 -115.173
      vertex 0.1 -89.9 -122.5
      vertex 0.1 -84.7634 -114.927
    endloop
  endfacet
  facet normal -1 0 0
    outer loop
      vertex 0.1 -85.8532 -113.427
      vertex 0.1 -99.9 -112.5
      vertex 0.1 -85.9631 -112.969
    endloop
  endfacet
  facet normal -1 0 0
    outer loop
      vertex 0.1 -99.9 -112.5
      vertex 0.1 -85.8532 -113.427
      vertex 0.1 -89.9 -122.5
    endloop
  endfacet
  facet normal -1 -0 0
    outer loop
      vertex 0.1 -85.673 -113.862
      vertex 0.1 -89.9 -122.5
      vertex 0.1 -85.8532 -113.427
    endloop
  endfacet
  facet normal -1 -0 0
    outer loop
      vertex 0.1 -85.427 -114.263
      vertex 0.1 -89.9 -122.5
      vertex 0.1 -85.673 -113.862
    endloop
  endfacet
  facet normal -1 -0 0
    outer loop
      vertex 0.1 -85.1213 -114.621
      vertex 0.1 -89.9 -122.5
      vertex 0.1 -85.427 -114.263
    endloop
  endfacet
  facet normal -1 -0 0
    outer loop
      vertex 0.1 -84.7634 -114.927
      vertex 0.1 -89.9 -122.5
      vertex 0.1 -85.1213 -114.621
    endloop
  endfacet
  facet normal -1 0 0
    outer loop
      vertex 0.1 -80.1468 -111.573
      vertex 0.1 -65.9 -112.5
      vertex 0.1 -80.0369 -112.031
    endloop
  endfacet
  facet normal -1 0 0
    outer loop
      vertex 0.1 -65.9 -112.5
      vertex 0.1 -80.1468 -111.573
      vertex 0.1 -75.9 -102.5
    endloop
  endfacet
  facet normal -1 0 0
    outer loop
      vertex 0.1 -80.327 -111.138
      vertex 0.1 -75.9 -102.5
      vertex 0.1 -80.1468 -111.573
    endloop
  endfacet
  facet normal -1 0 0
    outer loop
      vertex 0.1 -80.573 -110.737
      vertex 0.1 -75.9 -102.5
      vertex 0.1 -80.327 -111.138
    endloop
  endfacet
  facet normal -1 0 0
    outer loop
      vertex 0.1 -80.8787 -110.379
      vertex 0.1 -75.9 -102.5
      vertex 0.1 -80.573 -110.737
    endloop
  endfacet
  facet normal -1 0 0
    outer loop
      vertex 0.1 -81.2366 -110.073
      vertex 0.1 -75.9 -102.5
      vertex 0.1 -80.8787 -110.379
    endloop
  endfacet
  facet normal -1 0 0
    outer loop
      vertex 0.1 -81.638 -109.827
      vertex 0.1 -75.9 -102.5
      vertex 0.1 -81.2366 -110.073
    endloop
  endfacet
  facet normal -1 0 0
    outer loop
      vertex 0.1 -82.073 -109.647
      vertex 0.1 -75.9 -102.5
      vertex 0.1 -81.638 -109.827
    endloop
  endfacet
  facet normal -1 0 0
    outer loop
      vertex 0.1 -82.5307 -109.537
      vertex 0.1 -75.9 -102.5
      vertex 0.1 -82.073 -109.647
    endloop
  endfacet
  facet normal -1 0 0
    outer loop
      vertex 0.1 -83 -109.5
      vertex 0.1 -75.9 -102.5
      vertex 0.1 -82.5307 -109.537
    endloop
  endfacet
  facet normal -1 0 0
    outer loop
      vertex 0.1 -89.9 -102.5
      vertex 0.1 -83 -109.5
      vertex 0.1 -83.4693 -109.537
    endloop
  endfacet
  facet normal -1 0 0
    outer loop
      vertex 0.1 -89.9 -102.5
      vertex 0.1 -83.4693 -109.537
      vertex 0.1 -83.927 -109.647
    endloop
  endfacet
  facet normal -1 0 0
    outer loop
      vertex 0.1 -89.9 -102.5
      vertex 0.1 -83.927 -109.647
      vertex 0.1 -84.362 -109.827
    endloop
  endfacet
  facet normal -1 0 0
    outer loop
      vertex 0.1 -89.9 -102.5
      vertex 0.1 -84.362 -109.827
      vertex 0.1 -84.7634 -110.073
    endloop
  endfacet
  facet normal -1 0 0
    outer loop
      vertex 0.1 -89.9 -102.5
      vertex 0.1 -84.7634 -110.073
      vertex 0.1 -85.1213 -110.379
    endloop
  endfacet
  facet normal -1 0 0
    outer loop
      vertex 0.1 -85.9631 -112.969
      vertex 0.1 -99.9 -112.5
      vertex 0.1 -86 -112.5
    endloop
  endfacet
  facet normal -1 0 0
    outer loop
      vertex 0.1 -86 -112.5
      vertex 0.1 -99.9 -112.5
      vertex 0.1 -85.9631 -112.031
    endloop
  endfacet
  facet normal -1 0 0
    outer loop
      vertex 0.1 -83 -109.5
      vertex 0.1 -89.9 -102.5
      vertex 0.1 -75.9 -102.5
    endloop
  endfacet
  facet normal -1 0 0
    outer loop
      vertex 0.1 -85.427 -110.737
      vertex 0.1 -89.9 -102.5
      vertex 0.1 -85.1213 -110.379
    endloop
  endfacet
  facet normal -1 0 0
    outer loop
      vertex 0.1 -85.673 -111.138
      vertex 0.1 -89.9 -102.5
      vertex 0.1 -85.427 -110.737
    endloop
  endfacet
  facet normal -1 0 0
    outer loop
      vertex 0.1 -85.8532 -111.573
      vertex 0.1 -89.9 -102.5
      vertex 0.1 -85.673 -111.138
    endloop
  endfacet
  facet normal -1 -0 0
    outer loop
      vertex 0.1 -85.9631 -112.031
      vertex 0.1 -99.9 -112.5
      vertex 0.1 -85.8532 -111.573
    endloop
  endfacet
  facet normal -1 -0 0
    outer loop
      vertex 0.1 -85.8532 -111.573
      vertex 0.1 -99.9 -112.5
      vertex 0.1 -89.9 -102.5
    endloop
  endfacet
  facet normal 0 -0.707107 -0.707107
    outer loop
      vertex 0.1 -89.9 -122.5
      vertex 11 -99.9 -112.5
      vertex 0.1 -99.9 -112.5
    endloop
  endfacet
  facet normal 0 -0.707107 -0.707107
    outer loop
      vertex 11 -99.9 -112.5
      vertex 0.1 -89.9 -122.5
      vertex 11 -89.9 -122.5
    endloop
  endfacet
  facet normal 0 -0.707107 0.707107
    outer loop
      vertex 0.1 -99.9 -112.5
      vertex 11 -89.9 -102.5
      vertex 0.1 -89.9 -102.5
    endloop
  endfacet
  facet normal 0 -0.707107 0.707107
    outer loop
      vertex 11 -89.9 -102.5
      vertex 0.1 -99.9 -112.5
      vertex 11 -99.9 -112.5
    endloop
  endfacet
  facet normal 0 -0.707107 -0.707107
    outer loop
      vertex -11 -65.9 -112.5
      vertex 0.1 -75.9 -102.5
      vertex -11 -75.9 -102.5
    endloop
  endfacet
  facet normal 0 -0.707107 -0.707107
    outer loop
      vertex 0.1 -75.9 -102.5
      vertex -11 -65.9 -112.5
      vertex 0.1 -65.9 -112.5
    endloop
  endfacet
  facet normal 0 -0.707107 0.707107
    outer loop
      vertex -11 -75.9 -122.5
      vertex 0.1 -65.9 -112.5
      vertex -11 -65.9 -112.5
    endloop
  endfacet
  facet normal 0 -0.707107 0.707107
    outer loop
      vertex 0.1 -65.9 -112.5
      vertex -11 -75.9 -122.5
      vertex 0.1 -75.9 -122.5
    endloop
  endfacet
  facet normal 0 0.923867 -0.382714
    outer loop
      vertex 5.655 -85.8532 -111.573
      vertex 0.1 -85.673 -111.138
      vertex 5.655 -85.673 -111.138
    endloop
  endfacet
  facet normal 0 0.923867 -0.382714
    outer loop
      vertex 0.1 -85.673 -111.138
      vertex 5.655 -85.8532 -111.573
      vertex 0.1 -85.8532 -111.573
    endloop
  endfacet
  facet normal 0 -0.972397 -0.233333
    outer loop
      vertex 0.1 -80.0369 -112.031
      vertex 5.655 -80.1468 -111.573
      vertex 0.1 -80.1468 -111.573
    endloop
  endfacet
  facet normal 0 -0.972397 -0.233333
    outer loop
      vertex 5.655 -80.1468 -111.573
      vertex 0.1 -80.0369 -112.031
      vertex 5.655 -80.0369 -112.031
    endloop
  endfacet
  facet normal 0 -0.996919 -0.0784356
    outer loop
      vertex 0.1 -80 -112.5
      vertex 5.655 -80.0369 -112.031
      vertex 0.1 -80.0369 -112.031
    endloop
  endfacet
  facet normal 0 -0.996919 -0.0784356
    outer loop
      vertex 5.655 -80.0369 -112.031
      vertex 0.1 -80 -112.5
      vertex 5.655 -80 -112.5
    endloop
  endfacet
  facet normal 0 -0.923867 -0.382714
    outer loop
      vertex 0.1 -80.1468 -111.573
      vertex 5.655 -80.327 -111.138
      vertex 0.1 -80.327 -111.138
    endloop
  endfacet
  facet normal 0 -0.923867 -0.382714
    outer loop
      vertex 5.655 -80.327 -111.138
      vertex 0.1 -80.1468 -111.573
      vertex 5.655 -80.1468 -111.573
    endloop
  endfacet
  facet normal 0 -0.522532 0.85262
    outer loop
      vertex 0.1 -81.2366 -114.927
      vertex 5.655 -81.638 -115.173
      vertex 5.655 -81.2366 -114.927
    endloop
  endfacet
  facet normal 0 -0.522532 0.85262
    outer loop
      vertex 5.655 -81.638 -115.173
      vertex 0.1 -81.2366 -114.927
      vertex 0.1 -81.638 -115.173
    endloop
  endfacet
  facet normal 0 -0.972397 0.233333
    outer loop
      vertex 0.1 -80.1468 -113.427
      vertex 5.655 -80.0369 -112.969
      vertex 0.1 -80.0369 -112.969
    endloop
  endfacet
  facet normal 0 -0.972397 0.233333
    outer loop
      vertex 5.655 -80.0369 -112.969
      vertex 0.1 -80.1468 -113.427
      vertex 5.655 -80.1468 -113.427
    endloop
  endfacet
  facet normal 0 -0.382352 0.924017
    outer loop
      vertex 0.1 -81.638 -115.173
      vertex 5.655 -82.073 -115.353
      vertex 5.655 -81.638 -115.173
    endloop
  endfacet
  facet normal 0 -0.382352 0.924017
    outer loop
      vertex 5.655 -82.073 -115.353
      vertex 0.1 -81.638 -115.173
      vertex 0.1 -82.073 -115.353
    endloop
  endfacet
  facet normal 0 0.382352 -0.924017
    outer loop
      vertex 0.1 -84.362 -109.827
      vertex 5.655 -83.927 -109.647
      vertex 5.655 -84.362 -109.827
    endloop
  endfacet
  facet normal 0 0.382352 -0.924017
    outer loop
      vertex 5.655 -83.927 -109.647
      vertex 0.1 -84.362 -109.827
      vertex 0.1 -83.927 -109.647
    endloop
  endfacet
  facet normal -0 0.382352 0.924017
    outer loop
      vertex 0.1 -83.927 -115.353
      vertex 5.655 -84.362 -115.173
      vertex 5.655 -83.927 -115.353
    endloop
  endfacet
  facet normal 0 0.382352 0.924017
    outer loop
      vertex 5.655 -84.362 -115.173
      vertex 0.1 -83.927 -115.353
      vertex 0.1 -84.362 -115.173
    endloop
  endfacet
  facet normal 0 0.522532 -0.85262
    outer loop
      vertex 0.1 -84.7634 -110.073
      vertex 5.655 -84.362 -109.827
      vertex 5.655 -84.7634 -110.073
    endloop
  endfacet
  facet normal 0 0.522532 -0.85262
    outer loop
      vertex 5.655 -84.362 -109.827
      vertex 0.1 -84.7634 -110.073
      vertex 0.1 -84.362 -109.827
    endloop
  endfacet
  facet normal 0 -0.649846 -0.760066
    outer loop
      vertex 0.1 -81.2366 -110.073
      vertex 5.655 -80.8787 -110.379
      vertex 5.655 -81.2366 -110.073
    endloop
  endfacet
  facet normal -0 -0.649846 -0.760066
    outer loop
      vertex 5.655 -80.8787 -110.379
      vertex 0.1 -81.2366 -110.073
      vertex 0.1 -80.8787 -110.379
    endloop
  endfacet
  facet normal 0 0.233678 -0.972314
    outer loop
      vertex 0.1 -83.927 -109.647
      vertex 5.655 -83.4693 -109.537
      vertex 5.655 -83.927 -109.647
    endloop
  endfacet
  facet normal 0 0.233678 -0.972314
    outer loop
      vertex 5.655 -83.4693 -109.537
      vertex 0.1 -83.927 -109.647
      vertex 0.1 -83.4693 -109.537
    endloop
  endfacet
  facet normal 0 0.923867 0.382714
    outer loop
      vertex 5.655 -85.673 -113.862
      vertex 0.1 -85.8532 -113.427
      vertex 5.655 -85.8532 -113.427
    endloop
  endfacet
  facet normal 0 0.923867 0.382714
    outer loop
      vertex 0.1 -85.8532 -113.427
      vertex 5.655 -85.673 -113.862
      vertex 0.1 -85.673 -113.862
    endloop
  endfacet
  facet normal 0 0.0785969 -0.996906
    outer loop
      vertex 0.1 -83.4693 -109.537
      vertex 5.655 -83 -109.5
      vertex 5.655 -83.4693 -109.537
    endloop
  endfacet
  facet normal 0 0.0785969 -0.996906
    outer loop
      vertex 5.655 -83 -109.5
      vertex 0.1 -83.4693 -109.537
      vertex 0.1 -83 -109.5
    endloop
  endfacet
  facet normal -0 0.233678 0.972314
    outer loop
      vertex 0.1 -83.4693 -115.463
      vertex 5.655 -83.927 -115.353
      vertex 5.655 -83.4693 -115.463
    endloop
  endfacet
  facet normal 0 0.233678 0.972314
    outer loop
      vertex 5.655 -83.927 -115.353
      vertex 0.1 -83.4693 -115.463
      vertex 0.1 -83.927 -115.353
    endloop
  endfacet
  facet normal 0 -0.923867 0.382714
    outer loop
      vertex 0.1 -80.327 -113.862
      vertex 5.655 -80.1468 -113.427
      vertex 0.1 -80.1468 -113.427
    endloop
  endfacet
  facet normal 0 -0.923867 0.382714
    outer loop
      vertex 5.655 -80.1468 -113.427
      vertex 0.1 -80.327 -113.862
      vertex 5.655 -80.327 -113.862
    endloop
  endfacet
  facet normal 0 0.76047 0.649373
    outer loop
      vertex 5.655 -85.1213 -114.621
      vertex 0.1 -85.427 -114.263
      vertex 5.655 -85.427 -114.263
    endloop
  endfacet
  facet normal 0 0.76047 0.649373
    outer loop
      vertex 0.1 -85.427 -114.263
      vertex 5.655 -85.1213 -114.621
      vertex 0.1 -85.1213 -114.621
    endloop
  endfacet
  facet normal 0 0.649846 -0.760066
    outer loop
      vertex 0.1 -85.1213 -110.379
      vertex 5.655 -84.7634 -110.073
      vertex 5.655 -85.1213 -110.379
    endloop
  endfacet
  facet normal 0 0.649846 -0.760066
    outer loop
      vertex 5.655 -84.7634 -110.073
      vertex 0.1 -85.1213 -110.379
      vertex 0.1 -84.7634 -110.073
    endloop
  endfacet
  facet normal 0 -0.0785969 0.996906
    outer loop
      vertex 0.1 -82.5307 -115.463
      vertex 5.655 -83 -115.5
      vertex 5.655 -82.5307 -115.463
    endloop
  endfacet
  facet normal 0 -0.0785969 0.996906
    outer loop
      vertex 5.655 -83 -115.5
      vertex 0.1 -82.5307 -115.463
      vertex 0.1 -83 -115.5
    endloop
  endfacet
  facet normal -0 0.649846 0.760066
    outer loop
      vertex 0.1 -84.7634 -114.927
      vertex 5.655 -85.1213 -114.621
      vertex 5.655 -84.7634 -114.927
    endloop
  endfacet
  facet normal 0 0.649846 0.760066
    outer loop
      vertex 5.655 -85.1213 -114.621
      vertex 0.1 -84.7634 -114.927
      vertex 0.1 -85.1213 -114.621
    endloop
  endfacet
  facet normal 0 -0.852387 0.522911
    outer loop
      vertex 0.1 -80.573 -114.263
      vertex 5.655 -80.327 -113.862
      vertex 0.1 -80.327 -113.862
    endloop
  endfacet
  facet normal 0 -0.852387 0.522911
    outer loop
      vertex 5.655 -80.327 -113.862
      vertex 0.1 -80.573 -114.263
      vertex 5.655 -80.573 -114.263
    endloop
  endfacet
  facet normal 0 -0.852387 -0.522911
    outer loop
      vertex 0.1 -80.327 -111.138
      vertex 5.655 -80.573 -110.737
      vertex 0.1 -80.573 -110.737
    endloop
  endfacet
  facet normal 0 -0.852387 -0.522911
    outer loop
      vertex 5.655 -80.573 -110.737
      vertex 0.1 -80.327 -111.138
      vertex 5.655 -80.327 -111.138
    endloop
  endfacet
  facet normal 0 -0.76047 -0.649373
    outer loop
      vertex 0.1 -80.573 -110.737
      vertex 5.655 -80.8787 -110.379
      vertex 0.1 -80.8787 -110.379
    endloop
  endfacet
  facet normal 0 -0.76047 -0.649373
    outer loop
      vertex 5.655 -80.8787 -110.379
      vertex 0.1 -80.573 -110.737
      vertex 5.655 -80.573 -110.737
    endloop
  endfacet
  facet normal 0 0.76047 -0.649373
    outer loop
      vertex 5.655 -85.427 -110.737
      vertex 0.1 -85.1213 -110.379
      vertex 5.655 -85.1213 -110.379
    endloop
  endfacet
  facet normal 0 0.76047 -0.649373
    outer loop
      vertex 0.1 -85.1213 -110.379
      vertex 5.655 -85.427 -110.737
      vertex 0.1 -85.427 -110.737
    endloop
  endfacet
  facet normal 0 -0.0785969 -0.996906
    outer loop
      vertex 0.1 -83 -109.5
      vertex 5.655 -82.5307 -109.537
      vertex 5.655 -83 -109.5
    endloop
  endfacet
  facet normal -0 -0.0785969 -0.996906
    outer loop
      vertex 5.655 -82.5307 -109.537
      vertex 0.1 -83 -109.5
      vertex 0.1 -82.5307 -109.537
    endloop
  endfacet
  facet normal 0 -0.382352 -0.924017
    outer loop
      vertex 0.1 -82.073 -109.647
      vertex 5.655 -81.638 -109.827
      vertex 5.655 -82.073 -109.647
    endloop
  endfacet
  facet normal -0 -0.382352 -0.924017
    outer loop
      vertex 5.655 -81.638 -109.827
      vertex 0.1 -82.073 -109.647
      vertex 0.1 -81.638 -109.827
    endloop
  endfacet
  facet normal 0 0.972397 -0.233333
    outer loop
      vertex 5.655 -85.9631 -112.031
      vertex 0.1 -85.8532 -111.573
      vertex 5.655 -85.8532 -111.573
    endloop
  endfacet
  facet normal 0 0.972397 -0.233333
    outer loop
      vertex 0.1 -85.8532 -111.573
      vertex 5.655 -85.9631 -112.031
      vertex 0.1 -85.9631 -112.031
    endloop
  endfacet
  facet normal 0 -0.522532 -0.85262
    outer loop
      vertex 0.1 -81.638 -109.827
      vertex 5.655 -81.2366 -110.073
      vertex 5.655 -81.638 -109.827
    endloop
  endfacet
  facet normal -0 -0.522532 -0.85262
    outer loop
      vertex 5.655 -81.2366 -110.073
      vertex 0.1 -81.638 -109.827
      vertex 0.1 -81.2366 -110.073
    endloop
  endfacet
  facet normal 0 -0.233678 0.972314
    outer loop
      vertex 0.1 -82.073 -115.353
      vertex 5.655 -82.5307 -115.463
      vertex 5.655 -82.073 -115.353
    endloop
  endfacet
  facet normal 0 -0.233678 0.972314
    outer loop
      vertex 5.655 -82.5307 -115.463
      vertex 0.1 -82.073 -115.353
      vertex 0.1 -82.5307 -115.463
    endloop
  endfacet
  facet normal 0 -0.996919 0.0784356
    outer loop
      vertex 0.1 -80.0369 -112.969
      vertex 5.655 -80 -112.5
      vertex 0.1 -80 -112.5
    endloop
  endfacet
  facet normal 0 -0.996919 0.0784356
    outer loop
      vertex 5.655 -80 -112.5
      vertex 0.1 -80.0369 -112.969
      vertex 5.655 -80.0369 -112.969
    endloop
  endfacet
  facet normal 0 -0.76047 0.649373
    outer loop
      vertex 0.1 -80.8787 -114.621
      vertex 5.655 -80.573 -114.263
      vertex 0.1 -80.573 -114.263
    endloop
  endfacet
  facet normal 0 -0.76047 0.649373
    outer loop
      vertex 5.655 -80.573 -114.263
      vertex 0.1 -80.8787 -114.621
      vertex 5.655 -80.8787 -114.621
    endloop
  endfacet
  facet normal 0 0.852387 0.522911
    outer loop
      vertex 5.655 -85.427 -114.263
      vertex 0.1 -85.673 -113.862
      vertex 5.655 -85.673 -113.862
    endloop
  endfacet
  facet normal 0 0.852387 0.522911
    outer loop
      vertex 0.1 -85.673 -113.862
      vertex 5.655 -85.427 -114.263
      vertex 0.1 -85.427 -114.263
    endloop
  endfacet
  facet normal 0 0.996919 0.0784356
    outer loop
      vertex 5.655 -85.9631 -112.969
      vertex 0.1 -86 -112.5
      vertex 5.655 -86 -112.5
    endloop
  endfacet
  facet normal 0 0.996919 0.0784356
    outer loop
      vertex 0.1 -86 -112.5
      vertex 5.655 -85.9631 -112.969
      vertex 0.1 -85.9631 -112.969
    endloop
  endfacet
  facet normal -0 0.0785969 0.996906
    outer loop
      vertex 0.1 -83 -115.5
      vertex 5.655 -83.4693 -115.463
      vertex 5.655 -83 -115.5
    endloop
  endfacet
  facet normal 0 0.0785969 0.996906
    outer loop
      vertex 5.655 -83.4693 -115.463
      vertex 0.1 -83 -115.5
      vertex 0.1 -83.4693 -115.463
    endloop
  endfacet
  facet normal 0 0.972397 0.233333
    outer loop
      vertex 5.655 -85.8532 -113.427
      vertex 0.1 -85.9631 -112.969
      vertex 5.655 -85.9631 -112.969
    endloop
  endfacet
  facet normal 0 0.972397 0.233333
    outer loop
      vertex 0.1 -85.9631 -112.969
      vertex 5.655 -85.8532 -113.427
      vertex 0.1 -85.8532 -113.427
    endloop
  endfacet
  facet normal 0 -0.233678 -0.972314
    outer loop
      vertex 0.1 -82.5307 -109.537
      vertex 5.655 -82.073 -109.647
      vertex 5.655 -82.5307 -109.537
    endloop
  endfacet
  facet normal -0 -0.233678 -0.972314
    outer loop
      vertex 5.655 -82.073 -109.647
      vertex 0.1 -82.5307 -109.537
      vertex 0.1 -82.073 -109.647
    endloop
  endfacet
  facet normal -0 0.522532 0.85262
    outer loop
      vertex 0.1 -84.362 -115.173
      vertex 5.655 -84.7634 -114.927
      vertex 5.655 -84.362 -115.173
    endloop
  endfacet
  facet normal 0 0.522532 0.85262
    outer loop
      vertex 5.655 -84.7634 -114.927
      vertex 0.1 -84.362 -115.173
      vertex 0.1 -84.7634 -114.927
    endloop
  endfacet
  facet normal 0 0.996919 -0.0784356
    outer loop
      vertex 5.655 -86 -112.5
      vertex 0.1 -85.9631 -112.031
      vertex 5.655 -85.9631 -112.031
    endloop
  endfacet
  facet normal 0 0.996919 -0.0784356
    outer loop
      vertex 0.1 -85.9631 -112.031
      vertex 5.655 -86 -112.5
      vertex 0.1 -86 -112.5
    endloop
  endfacet
  facet normal 0 0.852387 -0.522911
    outer loop
      vertex 5.655 -85.673 -111.138
      vertex 0.1 -85.427 -110.737
      vertex 5.655 -85.427 -110.737
    endloop
  endfacet
  facet normal 0 0.852387 -0.522911
    outer loop
      vertex 0.1 -85.427 -110.737
      vertex 5.655 -85.673 -111.138
      vertex 0.1 -85.673 -111.138
    endloop
  endfacet
  facet normal 0 -0.649846 0.760066
    outer loop
      vertex 0.1 -80.8787 -114.621
      vertex 5.655 -81.2366 -114.927
      vertex 5.655 -80.8787 -114.621
    endloop
  endfacet
  facet normal 0 -0.649846 0.760066
    outer loop
      vertex 5.655 -81.2366 -114.927
      vertex 0.1 -80.8787 -114.621
      vertex 0.1 -81.2366 -114.927
    endloop
  endfacet
  facet normal 0 -0.649478 0.76038
    outer loop
      vertex 5.655 -79.323 -116.177
      vertex 11 -79.9435 -116.707
      vertex 11 -79.323 -116.177
    endloop
  endfacet
  facet normal 0 -0.649478 0.76038
    outer loop
      vertex 11 -79.9435 -116.707
      vertex 5.655 -79.323 -116.177
      vertex 5.655 -79.9435 -116.707
    endloop
  endfacet
  facet normal 0 0.923887 0.382666
    outer loop
      vertex 11 -87.6332 -114.861
      vertex 5.655 -87.9455 -114.107
      vertex 11 -87.9455 -114.107
    endloop
  endfacet
  facet normal 0 0.923887 0.382666
    outer loop
      vertex 5.655 -87.9455 -114.107
      vertex 11 -87.6332 -114.861
      vertex 5.655 -87.6332 -114.861
    endloop
  endfacet
  facet normal 0 0.996916 -0.078478
    outer loop
      vertex 11 -88.2 -112.5
      vertex 5.655 -88.136 -111.687
      vertex 11 -88.136 -111.687
    endloop
  endfacet
  facet normal 0 0.996916 -0.078478
    outer loop
      vertex 5.655 -88.136 -111.687
      vertex 11 -88.2 -112.5
      vertex 5.655 -88.2 -112.5
    endloop
  endfacet
  facet normal 0 -0.972404 -0.233303
    outer loop
      vertex 5.655 -77.864 -111.687
      vertex 11 -78.0545 -110.893
      vertex 5.655 -78.0545 -110.893
    endloop
  endfacet
  facet normal 0 -0.972404 -0.233303
    outer loop
      vertex 11 -78.0545 -110.893
      vertex 5.655 -77.864 -111.687
      vertex 11 -77.864 -111.687
    endloop
  endfacet
  facet normal 0 -0.23405 0.972225
    outer loop
      vertex 5.655 -81.3931 -117.445
      vertex 11 -82.1865 -117.636
      vertex 11 -81.3931 -117.445
    endloop
  endfacet
  facet normal 0 -0.23405 0.972225
    outer loop
      vertex 11 -82.1865 -117.636
      vertex 5.655 -81.3931 -117.445
      vertex 5.655 -82.1865 -117.636
    endloop
  endfacet
  facet normal 0 -0.760699 -0.649105
    outer loop
      vertex 5.655 -78.7931 -109.444
      vertex 11 -79.323 -108.823
      vertex 5.655 -79.323 -108.823
    endloop
  endfacet
  facet normal 0 -0.760699 -0.649105
    outer loop
      vertex 11 -79.323 -108.823
      vertex 5.655 -78.7931 -109.444
      vertex 11 -78.7931 -109.444
    endloop
  endfacet
  facet normal 0 -0.760699 0.649105
    outer loop
      vertex 5.655 -79.323 -116.177
      vertex 11 -78.7931 -115.556
      vertex 5.655 -78.7931 -115.556
    endloop
  endfacet
  facet normal 0 -0.760699 0.649105
    outer loop
      vertex 11 -78.7931 -115.556
      vertex 5.655 -79.323 -116.177
      vertex 11 -79.323 -116.177
    endloop
  endfacet
  facet normal 0 0.649478 -0.76038
    outer loop
      vertex 5.655 -86.677 -108.823
      vertex 11 -86.0565 -108.293
      vertex 11 -86.677 -108.823
    endloop
  endfacet
  facet normal 0 0.649478 -0.76038
    outer loop
      vertex 11 -86.0565 -108.293
      vertex 5.655 -86.677 -108.823
      vertex 5.655 -86.0565 -108.293
    endloop
  endfacet
  facet normal 0 -0.0784301 0.99692
    outer loop
      vertex 5.655 -82.1865 -117.636
      vertex 11 -83 -117.7
      vertex 11 -82.1865 -117.636
    endloop
  endfacet
  facet normal 0 -0.0784301 0.99692
    outer loop
      vertex 11 -83 -117.7
      vertex 5.655 -82.1865 -117.636
      vertex 5.655 -83 -117.7
    endloop
  endfacet
  facet normal 0 0.996916 0.078478
    outer loop
      vertex 11 -88.136 -113.313
      vertex 5.655 -88.2 -112.5
      vertex 11 -88.2 -112.5
    endloop
  endfacet
  facet normal 0 0.996916 0.078478
    outer loop
      vertex 5.655 -88.2 -112.5
      vertex 11 -88.136 -113.313
      vertex 5.655 -88.136 -113.313
    endloop
  endfacet
  facet normal 0 -0.382438 -0.923981
    outer loop
      vertex 5.655 -81.3931 -107.555
      vertex 11 -80.6393 -107.867
      vertex 11 -81.3931 -107.555
    endloop
  endfacet
  facet normal -0 -0.382438 -0.923981
    outer loop
      vertex 11 -80.6393 -107.867
      vertex 5.655 -81.3931 -107.555
      vertex 5.655 -80.6393 -107.867
    endloop
  endfacet
  facet normal 0 -0.996916 -0.078478
    outer loop
      vertex 5.655 -77.8 -112.5
      vertex 11 -77.864 -111.687
      vertex 5.655 -77.864 -111.687
    endloop
  endfacet
  facet normal 0 -0.996916 -0.078478
    outer loop
      vertex 11 -77.864 -111.687
      vertex 5.655 -77.8 -112.5
      vertex 11 -77.8 -112.5
    endloop
  endfacet
  facet normal 0 0.85242 0.522858
    outer loop
      vertex 11 -87.2069 -115.556
      vertex 5.655 -87.6332 -114.861
      vertex 11 -87.6332 -114.861
    endloop
  endfacet
  facet normal 0 0.85242 0.522858
    outer loop
      vertex 5.655 -87.6332 -114.861
      vertex 11 -87.2069 -115.556
      vertex 5.655 -87.2069 -115.556
    endloop
  endfacet
  facet normal 0 0.972404 0.233303
    outer loop
      vertex 11 -87.9455 -114.107
      vertex 5.655 -88.136 -113.313
      vertex 11 -88.136 -113.313
    endloop
  endfacet
  facet normal 0 0.972404 0.233303
    outer loop
      vertex 5.655 -88.136 -113.313
      vertex 11 -87.9455 -114.107
      vertex 5.655 -87.9455 -114.107
    endloop
  endfacet
  facet normal 0 -0.522154 -0.852851
    outer loop
      vertex 5.655 -80.6393 -107.867
      vertex 11 -79.9435 -108.293
      vertex 11 -80.6393 -107.867
    endloop
  endfacet
  facet normal -0 -0.522154 -0.852851
    outer loop
      vertex 11 -79.9435 -108.293
      vertex 5.655 -80.6393 -107.867
      vertex 5.655 -79.9435 -108.293
    endloop
  endfacet
  facet normal 0 0.0784301 -0.99692
    outer loop
      vertex 5.655 -83.8135 -107.364
      vertex 11 -83 -107.3
      vertex 11 -83.8135 -107.364
    endloop
  endfacet
  facet normal 0 0.0784301 -0.99692
    outer loop
      vertex 11 -83 -107.3
      vertex 5.655 -83.8135 -107.364
      vertex 5.655 -83 -107.3
    endloop
  endfacet
  facet normal 0 -0.923887 -0.382666
    outer loop
      vertex 5.655 -78.0545 -110.893
      vertex 11 -78.3668 -110.139
      vertex 5.655 -78.3668 -110.139
    endloop
  endfacet
  facet normal 0 -0.923887 -0.382666
    outer loop
      vertex 11 -78.3668 -110.139
      vertex 5.655 -78.0545 -110.893
      vertex 11 -78.0545 -110.893
    endloop
  endfacet
  facet normal 0 -0.85242 0.522858
    outer loop
      vertex 5.655 -78.7931 -115.556
      vertex 11 -78.3668 -114.861
      vertex 5.655 -78.3668 -114.861
    endloop
  endfacet
  facet normal 0 -0.85242 0.522858
    outer loop
      vertex 11 -78.3668 -114.861
      vertex 5.655 -78.7931 -115.556
      vertex 11 -78.7931 -115.556
    endloop
  endfacet
  facet normal 0 0.382438 -0.923981
    outer loop
      vertex 5.655 -85.3607 -107.867
      vertex 11 -84.6069 -107.555
      vertex 11 -85.3607 -107.867
    endloop
  endfacet
  facet normal 0 0.382438 -0.923981
    outer loop
      vertex 11 -84.6069 -107.555
      vertex 5.655 -85.3607 -107.867
      vertex 5.655 -84.6069 -107.555
    endloop
  endfacet
  facet normal 0 0.522154 -0.852851
    outer loop
      vertex 5.655 -86.0565 -108.293
      vertex 11 -85.3607 -107.867
      vertex 11 -86.0565 -108.293
    endloop
  endfacet
  facet normal 0 0.522154 -0.852851
    outer loop
      vertex 11 -85.3607 -107.867
      vertex 5.655 -86.0565 -108.293
      vertex 5.655 -85.3607 -107.867
    endloop
  endfacet
  facet normal 0 -0.23405 -0.972225
    outer loop
      vertex 5.655 -82.1865 -107.364
      vertex 11 -81.3931 -107.555
      vertex 11 -82.1865 -107.364
    endloop
  endfacet
  facet normal -0 -0.23405 -0.972225
    outer loop
      vertex 11 -81.3931 -107.555
      vertex 5.655 -82.1865 -107.364
      vertex 5.655 -81.3931 -107.555
    endloop
  endfacet
  facet normal -0 0.23405 0.972225
    outer loop
      vertex 5.655 -83.8135 -117.636
      vertex 11 -84.6069 -117.445
      vertex 11 -83.8135 -117.636
    endloop
  endfacet
  facet normal 0 0.23405 0.972225
    outer loop
      vertex 11 -84.6069 -117.445
      vertex 5.655 -83.8135 -117.636
      vertex 5.655 -84.6069 -117.445
    endloop
  endfacet
  facet normal -0 0.649478 0.76038
    outer loop
      vertex 5.655 -86.0565 -116.707
      vertex 11 -86.677 -116.177
      vertex 11 -86.0565 -116.707
    endloop
  endfacet
  facet normal 0 0.649478 0.76038
    outer loop
      vertex 11 -86.677 -116.177
      vertex 5.655 -86.0565 -116.707
      vertex 5.655 -86.677 -116.177
    endloop
  endfacet
  facet normal 0 -0.85242 -0.522858
    outer loop
      vertex 5.655 -78.3668 -110.139
      vertex 11 -78.7931 -109.444
      vertex 5.655 -78.7931 -109.444
    endloop
  endfacet
  facet normal 0 -0.85242 -0.522858
    outer loop
      vertex 11 -78.7931 -109.444
      vertex 5.655 -78.3668 -110.139
      vertex 11 -78.3668 -110.139
    endloop
  endfacet
  facet normal 0 -0.649478 -0.76038
    outer loop
      vertex 5.655 -79.9435 -108.293
      vertex 11 -79.323 -108.823
      vertex 11 -79.9435 -108.293
    endloop
  endfacet
  facet normal -0 -0.649478 -0.76038
    outer loop
      vertex 11 -79.323 -108.823
      vertex 5.655 -79.9435 -108.293
      vertex 5.655 -79.323 -108.823
    endloop
  endfacet
  facet normal 1 0 0
    outer loop
      vertex 5.655 -80 -112.5
      vertex 5.655 -77.8 -112.5
      vertex 5.655 -77.864 -111.687
    endloop
  endfacet
  facet normal 1 0 0
    outer loop
      vertex 5.655 -80.0369 -112.031
      vertex 5.655 -77.864 -111.687
      vertex 5.655 -78.0545 -110.893
    endloop
  endfacet
  facet normal 1 0 0
    outer loop
      vertex 5.655 -77.8 -112.5
      vertex 5.655 -80 -112.5
      vertex 5.655 -77.864 -113.313
    endloop
  endfacet
  facet normal 1 0 0
    outer loop
      vertex 5.655 -80.1468 -111.573
      vertex 5.655 -78.0545 -110.893
      vertex 5.655 -78.3668 -110.139
    endloop
  endfacet
  facet normal 1 -0 0
    outer loop
      vertex 5.655 -80.0369 -112.969
      vertex 5.655 -77.864 -113.313
      vertex 5.655 -80 -112.5
    endloop
  endfacet
  facet normal 1 0 0
    outer loop
      vertex 5.655 -80.327 -111.138
      vertex 5.655 -78.3668 -110.139
      vertex 5.655 -78.7931 -109.444
    endloop
  endfacet
  facet normal 1 0 0
    outer loop
      vertex 5.655 -77.864 -113.313
      vertex 5.655 -80.0369 -112.969
      vertex 5.655 -78.0545 -114.107
    endloop
  endfacet
  facet normal 1 0 0
    outer loop
      vertex 5.655 -80.573 -110.737
      vertex 5.655 -78.7931 -109.444
      vertex 5.655 -79.323 -108.823
    endloop
  endfacet
  facet normal 1 -0 0
    outer loop
      vertex 5.655 -80.1468 -113.427
      vertex 5.655 -78.0545 -114.107
      vertex 5.655 -80.0369 -112.969
    endloop
  endfacet
  facet normal 1 0 0
    outer loop
      vertex 5.655 -80.8787 -110.379
      vertex 5.655 -79.323 -108.823
      vertex 5.655 -79.9435 -108.293
    endloop
  endfacet
  facet normal 1 0 0
    outer loop
      vertex 5.655 -78.0545 -114.107
      vertex 5.655 -80.1468 -113.427
      vertex 5.655 -78.3668 -114.861
    endloop
  endfacet
  facet normal 1 -0 0
    outer loop
      vertex 5.655 -80.327 -113.862
      vertex 5.655 -78.3668 -114.861
      vertex 5.655 -80.1468 -113.427
    endloop
  endfacet
  facet normal 1 0 0
    outer loop
      vertex 5.655 -77.864 -111.687
      vertex 5.655 -80.0369 -112.031
      vertex 5.655 -80 -112.5
    endloop
  endfacet
  facet normal 1 0 0
    outer loop
      vertex 5.655 -78.0545 -110.893
      vertex 5.655 -80.1468 -111.573
      vertex 5.655 -80.0369 -112.031
    endloop
  endfacet
  facet normal 1 0 0
    outer loop
      vertex 5.655 -78.3668 -110.139
      vertex 5.655 -80.327 -111.138
      vertex 5.655 -80.1468 -111.573
    endloop
  endfacet
  facet normal 1 0 0
    outer loop
      vertex 5.655 -78.7931 -109.444
      vertex 5.655 -80.573 -110.737
      vertex 5.655 -80.327 -111.138
    endloop
  endfacet
  facet normal 1 0 0
    outer loop
      vertex 5.655 -81.2366 -110.073
      vertex 5.655 -79.9435 -108.293
      vertex 5.655 -80.6393 -107.867
    endloop
  endfacet
  facet normal 1 0 0
    outer loop
      vertex 5.655 -79.323 -108.823
      vertex 5.655 -80.8787 -110.379
      vertex 5.655 -80.573 -110.737
    endloop
  endfacet
  facet normal 1 0 0
    outer loop
      vertex 5.655 -79.9435 -108.293
      vertex 5.655 -81.2366 -110.073
      vertex 5.655 -80.8787 -110.379
    endloop
  endfacet
  facet normal 1 0 0
    outer loop
      vertex 5.655 -81.638 -109.827
      vertex 5.655 -80.6393 -107.867
      vertex 5.655 -81.3931 -107.555
    endloop
  endfacet
  facet normal 1 0 0
    outer loop
      vertex 5.655 -80.6393 -107.867
      vertex 5.655 -81.638 -109.827
      vertex 5.655 -81.2366 -110.073
    endloop
  endfacet
  facet normal 1 0 0
    outer loop
      vertex 5.655 -81.3931 -107.555
      vertex 5.655 -82.073 -109.647
      vertex 5.655 -81.638 -109.827
    endloop
  endfacet
  facet normal 1 0 0
    outer loop
      vertex 5.655 -82.1865 -107.364
      vertex 5.655 -82.073 -109.647
      vertex 5.655 -81.3931 -107.555
    endloop
  endfacet
  facet normal 1 0 0
    outer loop
      vertex 5.655 -82.1865 -107.364
      vertex 5.655 -82.5307 -109.537
      vertex 5.655 -82.073 -109.647
    endloop
  endfacet
  facet normal 1 0 0
    outer loop
      vertex 5.655 -83 -107.3
      vertex 5.655 -82.5307 -109.537
      vertex 5.655 -82.1865 -107.364
    endloop
  endfacet
  facet normal 1 0 0
    outer loop
      vertex 5.655 -83 -107.3
      vertex 5.655 -83 -109.5
      vertex 5.655 -82.5307 -109.537
    endloop
  endfacet
  facet normal 1 0 0
    outer loop
      vertex 5.655 -83 -107.3
      vertex 5.655 -83.4693 -109.537
      vertex 5.655 -83 -109.5
    endloop
  endfacet
  facet normal 1 -0 0
    outer loop
      vertex 5.655 -83.8135 -107.364
      vertex 5.655 -83.4693 -109.537
      vertex 5.655 -83 -107.3
    endloop
  endfacet
  facet normal 1 0 0
    outer loop
      vertex 5.655 -83.8135 -107.364
      vertex 5.655 -83.927 -109.647
      vertex 5.655 -83.4693 -109.537
    endloop
  endfacet
  facet normal 1 -0 0
    outer loop
      vertex 5.655 -84.6069 -107.555
      vertex 5.655 -83.927 -109.647
      vertex 5.655 -83.8135 -107.364
    endloop
  endfacet
  facet normal 1 0 0
    outer loop
      vertex 5.655 -83.927 -109.647
      vertex 5.655 -84.6069 -107.555
      vertex 5.655 -84.362 -109.827
    endloop
  endfacet
  facet normal 1 -0 0
    outer loop
      vertex 5.655 -85.3607 -107.867
      vertex 5.655 -84.362 -109.827
      vertex 5.655 -84.6069 -107.555
    endloop
  endfacet
  facet normal 1 0 0
    outer loop
      vertex 5.655 -84.362 -109.827
      vertex 5.655 -85.3607 -107.867
      vertex 5.655 -84.7634 -110.073
    endloop
  endfacet
  facet normal 1 -0 0
    outer loop
      vertex 5.655 -86.0565 -108.293
      vertex 5.655 -84.7634 -110.073
      vertex 5.655 -85.3607 -107.867
    endloop
  endfacet
  facet normal 1 0 0
    outer loop
      vertex 5.655 -84.7634 -110.073
      vertex 5.655 -86.0565 -108.293
      vertex 5.655 -85.1213 -110.379
    endloop
  endfacet
  facet normal 1 -0 0
    outer loop
      vertex 5.655 -86.677 -108.823
      vertex 5.655 -85.1213 -110.379
      vertex 5.655 -86.0565 -108.293
    endloop
  endfacet
  facet normal 1 0 0
    outer loop
      vertex 5.655 -85.1213 -110.379
      vertex 5.655 -86.677 -108.823
      vertex 5.655 -85.427 -110.737
    endloop
  endfacet
  facet normal 1 -0 0
    outer loop
      vertex 5.655 -87.2069 -109.444
      vertex 5.655 -85.427 -110.737
      vertex 5.655 -86.677 -108.823
    endloop
  endfacet
  facet normal 1 -0 0
    outer loop
      vertex 5.655 -87.6332 -110.139
      vertex 5.655 -85.673 -111.138
      vertex 5.655 -87.2069 -109.444
    endloop
  endfacet
  facet normal 1 0 0
    outer loop
      vertex 5.655 -85.427 -110.737
      vertex 5.655 -87.2069 -109.444
      vertex 5.655 -85.673 -111.138
    endloop
  endfacet
  facet normal 1 0 0
    outer loop
      vertex 5.655 -78.3668 -114.861
      vertex 5.655 -80.327 -113.862
      vertex 5.655 -78.7931 -115.556
    endloop
  endfacet
  facet normal 1 -0 0
    outer loop
      vertex 5.655 -80.573 -114.263
      vertex 5.655 -78.7931 -115.556
      vertex 5.655 -80.327 -113.862
    endloop
  endfacet
  facet normal 1 0 0
    outer loop
      vertex 5.655 -78.7931 -115.556
      vertex 5.655 -80.573 -114.263
      vertex 5.655 -79.323 -116.177
    endloop
  endfacet
  facet normal 1 -0 0
    outer loop
      vertex 5.655 -80.8787 -114.621
      vertex 5.655 -79.323 -116.177
      vertex 5.655 -80.573 -114.263
    endloop
  endfacet
  facet normal 1 0 0
    outer loop
      vertex 5.655 -79.323 -116.177
      vertex 5.655 -80.8787 -114.621
      vertex 5.655 -79.9435 -116.707
    endloop
  endfacet
  facet normal 1 -0 0
    outer loop
      vertex 5.655 -81.2366 -114.927
      vertex 5.655 -79.9435 -116.707
      vertex 5.655 -80.8787 -114.621
    endloop
  endfacet
  facet normal 1 0 0
    outer loop
      vertex 5.655 -79.9435 -116.707
      vertex 5.655 -81.2366 -114.927
      vertex 5.655 -80.6393 -117.133
    endloop
  endfacet
  facet normal 1 -0 0
    outer loop
      vertex 5.655 -81.638 -115.173
      vertex 5.655 -80.6393 -117.133
      vertex 5.655 -81.2366 -114.927
    endloop
  endfacet
  facet normal 1 0 0
    outer loop
      vertex 5.655 -80.6393 -117.133
      vertex 5.655 -81.638 -115.173
      vertex 5.655 -81.3931 -117.445
    endloop
  endfacet
  facet normal 1 -0 0
    outer loop
      vertex 5.655 -82.073 -115.353
      vertex 5.655 -81.3931 -117.445
      vertex 5.655 -81.638 -115.173
    endloop
  endfacet
  facet normal 1 0 0
    outer loop
      vertex 5.655 -82.073 -115.353
      vertex 5.655 -82.1865 -117.636
      vertex 5.655 -81.3931 -117.445
    endloop
  endfacet
  facet normal 1 -0 0
    outer loop
      vertex 5.655 -82.5307 -115.463
      vertex 5.655 -82.1865 -117.636
      vertex 5.655 -82.073 -115.353
    endloop
  endfacet
  facet normal 1 -0 0
    outer loop
      vertex 5.655 -83 -115.5
      vertex 5.655 -82.1865 -117.636
      vertex 5.655 -82.5307 -115.463
    endloop
  endfacet
  facet normal 1 0 0
    outer loop
      vertex 5.655 -83 -115.5
      vertex 5.655 -83 -117.7
      vertex 5.655 -82.1865 -117.636
    endloop
  endfacet
  facet normal 1 0 0
    outer loop
      vertex 5.655 -83.4693 -115.463
      vertex 5.655 -83 -117.7
      vertex 5.655 -83 -115.5
    endloop
  endfacet
  facet normal 1 0 0
    outer loop
      vertex 5.655 -83.4693 -115.463
      vertex 5.655 -83.8135 -117.636
      vertex 5.655 -83 -117.7
    endloop
  endfacet
  facet normal 1 0 0
    outer loop
      vertex 5.655 -83.927 -115.353
      vertex 5.655 -83.8135 -117.636
      vertex 5.655 -83.4693 -115.463
    endloop
  endfacet
  facet normal 1 0 0
    outer loop
      vertex 5.655 -84.6069 -117.445
      vertex 5.655 -83.927 -115.353
      vertex 5.655 -84.362 -115.173
    endloop
  endfacet
  facet normal 1 0 0
    outer loop
      vertex 5.655 -83.927 -115.353
      vertex 5.655 -84.6069 -117.445
      vertex 5.655 -83.8135 -117.636
    endloop
  endfacet
  facet normal 1 0 0
    outer loop
      vertex 5.655 -85.3607 -117.133
      vertex 5.655 -84.362 -115.173
      vertex 5.655 -84.7634 -114.927
    endloop
  endfacet
  facet normal 1 0 0
    outer loop
      vertex 5.655 -86.0565 -116.707
      vertex 5.655 -84.7634 -114.927
      vertex 5.655 -85.1213 -114.621
    endloop
  endfacet
  facet normal 1 0 0
    outer loop
      vertex 5.655 -84.362 -115.173
      vertex 5.655 -85.3607 -117.133
      vertex 5.655 -84.6069 -117.445
    endloop
  endfacet
  facet normal 1 0 0
    outer loop
      vertex 5.655 -86.677 -116.177
      vertex 5.655 -85.1213 -114.621
      vertex 5.655 -85.427 -114.263
    endloop
  endfacet
  facet normal 1 0 0
    outer loop
      vertex 5.655 -87.2069 -115.556
      vertex 5.655 -85.427 -114.263
      vertex 5.655 -85.673 -113.862
    endloop
  endfacet
  facet normal 1 0 0
    outer loop
      vertex 5.655 -87.6332 -114.861
      vertex 5.655 -85.673 -113.862
      vertex 5.655 -85.8532 -113.427
    endloop
  endfacet
  facet normal 1 0 0
    outer loop
      vertex 5.655 -87.9455 -114.107
      vertex 5.655 -85.8532 -113.427
      vertex 5.655 -85.9631 -112.969
    endloop
  endfacet
  facet normal 1 0 0
    outer loop
      vertex 5.655 -84.7634 -114.927
      vertex 5.655 -86.0565 -116.707
      vertex 5.655 -85.3607 -117.133
    endloop
  endfacet
  facet normal 1 0 0
    outer loop
      vertex 5.655 -88.136 -113.313
      vertex 5.655 -85.9631 -112.969
      vertex 5.655 -86 -112.5
    endloop
  endfacet
  facet normal 1 0 0
    outer loop
      vertex 5.655 -85.673 -111.138
      vertex 5.655 -87.6332 -110.139
      vertex 5.655 -85.8532 -111.573
    endloop
  endfacet
  facet normal 1 -0 0
    outer loop
      vertex 5.655 -87.9455 -110.893
      vertex 5.655 -85.8532 -111.573
      vertex 5.655 -87.6332 -110.139
    endloop
  endfacet
  facet normal 1 0 0
    outer loop
      vertex 5.655 -85.1213 -114.621
      vertex 5.655 -86.677 -116.177
      vertex 5.655 -86.0565 -116.707
    endloop
  endfacet
  facet normal 1 0 0
    outer loop
      vertex 5.655 -85.8532 -111.573
      vertex 5.655 -87.9455 -110.893
      vertex 5.655 -85.9631 -112.031
    endloop
  endfacet
  facet normal 1 0 0
    outer loop
      vertex 5.655 -85.427 -114.263
      vertex 5.655 -87.2069 -115.556
      vertex 5.655 -86.677 -116.177
    endloop
  endfacet
  facet normal 1 -0 0
    outer loop
      vertex 5.655 -88.136 -111.687
      vertex 5.655 -85.9631 -112.031
      vertex 5.655 -87.9455 -110.893
    endloop
  endfacet
  facet normal 1 0 0
    outer loop
      vertex 5.655 -85.673 -113.862
      vertex 5.655 -87.6332 -114.861
      vertex 5.655 -87.2069 -115.556
    endloop
  endfacet
  facet normal 1 0 0
    outer loop
      vertex 5.655 -85.9631 -112.031
      vertex 5.655 -88.136 -111.687
      vertex 5.655 -86 -112.5
    endloop
  endfacet
  facet normal 1 0 0
    outer loop
      vertex 5.655 -85.8532 -113.427
      vertex 5.655 -87.9455 -114.107
      vertex 5.655 -87.6332 -114.861
    endloop
  endfacet
  facet normal 1 0 0
    outer loop
      vertex 5.655 -88.2 -112.5
      vertex 5.655 -86 -112.5
      vertex 5.655 -88.136 -111.687
    endloop
  endfacet
  facet normal 1 0 0
    outer loop
      vertex 5.655 -85.9631 -112.969
      vertex 5.655 -88.136 -113.313
      vertex 5.655 -87.9455 -114.107
    endloop
  endfacet
  facet normal 1 0 0
    outer loop
      vertex 5.655 -86 -112.5
      vertex 5.655 -88.2 -112.5
      vertex 5.655 -88.136 -113.313
    endloop
  endfacet
  facet normal 0 0.972404 -0.233303
    outer loop
      vertex 11 -88.136 -111.687
      vertex 5.655 -87.9455 -110.893
      vertex 11 -87.9455 -110.893
    endloop
  endfacet
  facet normal 0 0.972404 -0.233303
    outer loop
      vertex 5.655 -87.9455 -110.893
      vertex 11 -88.136 -111.687
      vertex 5.655 -88.136 -111.687
    endloop
  endfacet
  facet normal 0 0.760699 -0.649105
    outer loop
      vertex 11 -87.2069 -109.444
      vertex 5.655 -86.677 -108.823
      vertex 11 -86.677 -108.823
    endloop
  endfacet
  facet normal 0 0.760699 -0.649105
    outer loop
      vertex 5.655 -86.677 -108.823
      vertex 11 -87.2069 -109.444
      vertex 5.655 -87.2069 -109.444
    endloop
  endfacet
  facet normal 0 0.23405 -0.972225
    outer loop
      vertex 5.655 -84.6069 -107.555
      vertex 11 -83.8135 -107.364
      vertex 11 -84.6069 -107.555
    endloop
  endfacet
  facet normal 0 0.23405 -0.972225
    outer loop
      vertex 11 -83.8135 -107.364
      vertex 5.655 -84.6069 -107.555
      vertex 5.655 -83.8135 -107.364
    endloop
  endfacet
  facet normal 0 -0.382438 0.923981
    outer loop
      vertex 5.655 -80.6393 -117.133
      vertex 11 -81.3931 -117.445
      vertex 11 -80.6393 -117.133
    endloop
  endfacet
  facet normal 0 -0.382438 0.923981
    outer loop
      vertex 11 -81.3931 -117.445
      vertex 5.655 -80.6393 -117.133
      vertex 5.655 -81.3931 -117.445
    endloop
  endfacet
  facet normal 0 0.760699 0.649105
    outer loop
      vertex 11 -86.677 -116.177
      vertex 5.655 -87.2069 -115.556
      vertex 11 -87.2069 -115.556
    endloop
  endfacet
  facet normal 0 0.760699 0.649105
    outer loop
      vertex 5.655 -87.2069 -115.556
      vertex 11 -86.677 -116.177
      vertex 5.655 -86.677 -116.177
    endloop
  endfacet
  facet normal 0 -0.996916 0.078478
    outer loop
      vertex 5.655 -77.864 -113.313
      vertex 11 -77.8 -112.5
      vertex 5.655 -77.8 -112.5
    endloop
  endfacet
  facet normal 0 -0.996916 0.078478
    outer loop
      vertex 11 -77.8 -112.5
      vertex 5.655 -77.864 -113.313
      vertex 11 -77.864 -113.313
    endloop
  endfacet
  facet normal 0 0.85242 -0.522858
    outer loop
      vertex 11 -87.6332 -110.139
      vertex 5.655 -87.2069 -109.444
      vertex 11 -87.2069 -109.444
    endloop
  endfacet
  facet normal 0 0.85242 -0.522858
    outer loop
      vertex 5.655 -87.2069 -109.444
      vertex 11 -87.6332 -110.139
      vertex 5.655 -87.6332 -110.139
    endloop
  endfacet
  facet normal 0 -0.972404 0.233303
    outer loop
      vertex 5.655 -78.0545 -114.107
      vertex 11 -77.864 -113.313
      vertex 5.655 -77.864 -113.313
    endloop
  endfacet
  facet normal 0 -0.972404 0.233303
    outer loop
      vertex 11 -77.864 -113.313
      vertex 5.655 -78.0545 -114.107
      vertex 11 -78.0545 -114.107
    endloop
  endfacet
  facet normal -0 0.522154 0.852851
    outer loop
      vertex 5.655 -85.3607 -117.133
      vertex 11 -86.0565 -116.707
      vertex 11 -85.3607 -117.133
    endloop
  endfacet
  facet normal 0 0.522154 0.852851
    outer loop
      vertex 11 -86.0565 -116.707
      vertex 5.655 -85.3607 -117.133
      vertex 5.655 -86.0565 -116.707
    endloop
  endfacet
  facet normal 0 -0.923887 0.382666
    outer loop
      vertex 5.655 -78.3668 -114.861
      vertex 11 -78.0545 -114.107
      vertex 5.655 -78.0545 -114.107
    endloop
  endfacet
  facet normal 0 -0.923887 0.382666
    outer loop
      vertex 11 -78.0545 -114.107
      vertex 5.655 -78.3668 -114.861
      vertex 11 -78.3668 -114.861
    endloop
  endfacet
  facet normal 0 -0.0784301 -0.99692
    outer loop
      vertex 5.655 -83 -107.3
      vertex 11 -82.1865 -107.364
      vertex 11 -83 -107.3
    endloop
  endfacet
  facet normal -0 -0.0784301 -0.99692
    outer loop
      vertex 11 -82.1865 -107.364
      vertex 5.655 -83 -107.3
      vertex 5.655 -82.1865 -107.364
    endloop
  endfacet
  facet normal -0 0.382438 0.923981
    outer loop
      vertex 5.655 -84.6069 -117.445
      vertex 11 -85.3607 -117.133
      vertex 11 -84.6069 -117.445
    endloop
  endfacet
  facet normal 0 0.382438 0.923981
    outer loop
      vertex 11 -85.3607 -117.133
      vertex 5.655 -84.6069 -117.445
      vertex 5.655 -85.3607 -117.133
    endloop
  endfacet
  facet normal 0 0.923887 -0.382666
    outer loop
      vertex 11 -87.9455 -110.893
      vertex 5.655 -87.6332 -110.139
      vertex 11 -87.6332 -110.139
    endloop
  endfacet
  facet normal 0 0.923887 -0.382666
    outer loop
      vertex 5.655 -87.6332 -110.139
      vertex 11 -87.9455 -110.893
      vertex 5.655 -87.9455 -110.893
    endloop
  endfacet
  facet normal -0 0.0784301 0.99692
    outer loop
      vertex 5.655 -83 -117.7
      vertex 11 -83.8135 -117.636
      vertex 11 -83 -117.7
    endloop
  endfacet
  facet normal 0 0.0784301 0.99692
    outer loop
      vertex 11 -83.8135 -117.636
      vertex 5.655 -83 -117.7
      vertex 5.655 -83.8135 -117.636
    endloop
  endfacet
  facet normal 0 -0.522154 0.852851
    outer loop
      vertex 5.655 -79.9435 -116.707
      vertex 11 -80.6393 -117.133
      vertex 11 -79.9435 -116.707
    endloop
  endfacet
  facet normal 0 -0.522154 0.852851
    outer loop
      vertex 11 -80.6393 -117.133
      vertex 5.655 -79.9435 -116.707
      vertex 5.655 -80.6393 -117.133
    endloop
  endfacet
endsolid OpenSCAD_Model
