solid OpenSCAD_Model
  facet normal 0 0 -1
    outer loop
      vertex 2.67302 -70.362 85
      vertex 10 -64 85
      vertex 10 -90 85
    endloop
  endfacet
  facet normal 0 0 -1
    outer loop
      vertex 10 -64 85
      vertex 2.96306 -69.4693 85
      vertex 3 -69 85
    endloop
  endfacet
  facet normal 0 0 -1
    outer loop
      vertex 10 -64 85
      vertex 2.85317 -69.927 85
      vertex 2.96306 -69.4693 85
    endloop
  endfacet
  facet normal 0 0 -1
    outer loop
      vertex 10 -64 85
      vertex 2.67302 -70.362 85
      vertex 2.85317 -69.927 85
    endloop
  endfacet
  facet normal 0 0 -1
    outer loop
      vertex 10 -90 85
      vertex 2.42705 -70.7634 85
      vertex 2.67302 -70.362 85
    endloop
  endfacet
  facet normal 0 0 -1
    outer loop
      vertex 10 -90 85
      vertex 2.12132 -71.1213 85
      vertex 2.42705 -70.7634 85
    endloop
  endfacet
  facet normal 0 0 -1
    outer loop
      vertex 10 -90 85
      vertex 1.76336 -71.427 85
      vertex 2.12132 -71.1213 85
    endloop
  endfacet
  facet normal 0 0 -1
    outer loop
      vertex 10 -90 85
      vertex 1.36197 -71.673 85
      vertex 1.76336 -71.427 85
    endloop
  endfacet
  facet normal 0 0 -1
    outer loop
      vertex 10 -90 85
      vertex 0.927051 -71.8532 85
      vertex 1.36197 -71.673 85
    endloop
  endfacet
  facet normal 0 0 -1
    outer loop
      vertex 10 -90 85
      vertex 0.469303 -71.9631 85
      vertex 0.927051 -71.8532 85
    endloop
  endfacet
  facet normal 0 0 -1
    outer loop
      vertex 10 -90 85
      vertex 0 -72 85
      vertex 0.469303 -71.9631 85
    endloop
  endfacet
  facet normal 0 0 -1
    outer loop
      vertex -10 -90 85
      vertex 0 -72 85
      vertex 10 -90 85
    endloop
  endfacet
  facet normal -0 0 -1
    outer loop
      vertex 0 -72 85
      vertex -10 -90 85
      vertex -0.469303 -71.9631 85
    endloop
  endfacet
  facet normal -0 0 -1
    outer loop
      vertex -0.469303 -71.9631 85
      vertex -10 -90 85
      vertex -0.927051 -71.8532 85
    endloop
  endfacet
  facet normal -0 0 -1
    outer loop
      vertex -0.927051 -71.8532 85
      vertex -10 -90 85
      vertex -1.36197 -71.673 85
    endloop
  endfacet
  facet normal -0 0 -1
    outer loop
      vertex -1.36197 -71.673 85
      vertex -10 -90 85
      vertex -1.76336 -71.427 85
    endloop
  endfacet
  facet normal -0 0 -1
    outer loop
      vertex -1.76336 -71.427 85
      vertex -10 -90 85
      vertex -2.12132 -71.1213 85
    endloop
  endfacet
  facet normal 0 0 -1
    outer loop
      vertex -2.85317 -69.927 85
      vertex -10 -64 85
      vertex -2.96306 -69.4693 85
    endloop
  endfacet
  facet normal 0 0 -1
    outer loop
      vertex -2.67302 -70.362 85
      vertex -10 -64 85
      vertex -2.85317 -69.927 85
    endloop
  endfacet
  facet normal 0 0 -1
    outer loop
      vertex -10 -64 85
      vertex -2.67302 -70.362 85
      vertex -10 -90 85
    endloop
  endfacet
  facet normal -0 0 -1
    outer loop
      vertex -2.42705 -70.7634 85
      vertex -10 -90 85
      vertex -2.67302 -70.362 85
    endloop
  endfacet
  facet normal -0 0 -1
    outer loop
      vertex -2.12132 -71.1213 85
      vertex -10 -90 85
      vertex -2.42705 -70.7634 85
    endloop
  endfacet
  facet normal 0 0 -1
    outer loop
      vertex 2.96306 -68.5307 85
      vertex 10 -64 85
      vertex 3 -69 85
    endloop
  endfacet
  facet normal 0 0 -1
    outer loop
      vertex 2.85317 -68.073 85
      vertex 10 -64 85
      vertex 2.96306 -68.5307 85
    endloop
  endfacet
  facet normal 0 0 -1
    outer loop
      vertex 2.67302 -67.638 85
      vertex 10 -64 85
      vertex 2.85317 -68.073 85
    endloop
  endfacet
  facet normal 0 0 -1
    outer loop
      vertex 2.42705 -67.2366 85
      vertex 10 -64 85
      vertex 2.67302 -67.638 85
    endloop
  endfacet
  facet normal 0 0 -1
    outer loop
      vertex 2.12132 -66.8787 85
      vertex 10 -64 85
      vertex 2.42705 -67.2366 85
    endloop
  endfacet
  facet normal 0 0 -1
    outer loop
      vertex 1.76336 -66.573 85
      vertex 10 -64 85
      vertex 2.12132 -66.8787 85
    endloop
  endfacet
  facet normal 0 0 -1
    outer loop
      vertex 1.36197 -66.327 85
      vertex 10 -64 85
      vertex 1.76336 -66.573 85
    endloop
  endfacet
  facet normal 0 0 -1
    outer loop
      vertex 0.927051 -66.1468 85
      vertex 10 -64 85
      vertex 1.36197 -66.327 85
    endloop
  endfacet
  facet normal 0 0 -1
    outer loop
      vertex 0.469303 -66.0369 85
      vertex 10 -64 85
      vertex 0.927051 -66.1468 85
    endloop
  endfacet
  facet normal 0 0 -1
    outer loop
      vertex 0 -66 85
      vertex 10 -64 85
      vertex 0.469303 -66.0369 85
    endloop
  endfacet
  facet normal 0 0 -1
    outer loop
      vertex -10 -64 85
      vertex 0 -66 85
      vertex -0.469303 -66.0369 85
    endloop
  endfacet
  facet normal 0 0 -1
    outer loop
      vertex -2.96306 -69.4693 85
      vertex -10 -64 85
      vertex -3 -69 85
    endloop
  endfacet
  facet normal 0 0 -1
    outer loop
      vertex -3 -69 85
      vertex -10 -64 85
      vertex -2.96306 -68.5307 85
    endloop
  endfacet
  facet normal 0 0 -1
    outer loop
      vertex 0 -66 85
      vertex -10 -64 85
      vertex 10 -64 85
    endloop
  endfacet
  facet normal 0 0 -1
    outer loop
      vertex -0.927051 -66.1468 85
      vertex -10 -64 85
      vertex -0.469303 -66.0369 85
    endloop
  endfacet
  facet normal 0 0 -1
    outer loop
      vertex -1.36197 -66.327 85
      vertex -10 -64 85
      vertex -0.927051 -66.1468 85
    endloop
  endfacet
  facet normal 0 0 -1
    outer loop
      vertex -1.76336 -66.573 85
      vertex -10 -64 85
      vertex -1.36197 -66.327 85
    endloop
  endfacet
  facet normal 0 0 -1
    outer loop
      vertex -2.12132 -66.8787 85
      vertex -10 -64 85
      vertex -1.76336 -66.573 85
    endloop
  endfacet
  facet normal 0 0 -1
    outer loop
      vertex -2.42705 -67.2366 85
      vertex -10 -64 85
      vertex -2.12132 -66.8787 85
    endloop
  endfacet
  facet normal 0 0 -1
    outer loop
      vertex -2.67302 -67.638 85
      vertex -10 -64 85
      vertex -2.42705 -67.2366 85
    endloop
  endfacet
  facet normal 0 0 -1
    outer loop
      vertex -2.85317 -68.073 85
      vertex -10 -64 85
      vertex -2.67302 -67.638 85
    endloop
  endfacet
  facet normal 0 0 -1
    outer loop
      vertex -2.96306 -68.5307 85
      vertex -10 -64 85
      vertex -2.85317 -68.073 85
    endloop
  endfacet
  facet normal -1 0 0
    outer loop
      vertex -10 -64 85
      vertex -10 -75.9 87
      vertex -10 -64 90
    endloop
  endfacet
  facet normal -1 0 0
    outer loop
      vertex -10 -90 85
      vertex -10 -75.9 87
      vertex -10 -64 85
    endloop
  endfacet
  facet normal -1 -0 0
    outer loop
      vertex -10 -75.9 87
      vertex -10 -90 85
      vertex -10 -88 87
    endloop
  endfacet
  facet normal -1 0 0
    outer loop
      vertex -10 -90 90
      vertex -10 -88 87
      vertex -10 -90 85
    endloop
  endfacet
  facet normal -1 0 0
    outer loop
      vertex -10 -88 87
      vertex -10 -90 90
      vertex -10 -88 90
    endloop
  endfacet
  facet normal -1 -0 0
    outer loop
      vertex -10 -64 90
      vertex -10 -75.9 87
      vertex -10 -75.9 90
    endloop
  endfacet
  facet normal 1 0 0
    outer loop
      vertex 10 -88 90
      vertex 10 -90 90
      vertex 10 -88 87
    endloop
  endfacet
  facet normal 1 0 0
    outer loop
      vertex 10 -75.9 87
      vertex 10 -64 90
      vertex 10 -75.9 90
    endloop
  endfacet
  facet normal 1 0 0
    outer loop
      vertex 10 -64 90
      vertex 10 -75.9 87
      vertex 10 -64 85
    endloop
  endfacet
  facet normal 1 0 0
    outer loop
      vertex 10 -90 85
      vertex 10 -75.9 87
      vertex 10 -88 87
    endloop
  endfacet
  facet normal 1 0 0
    outer loop
      vertex 10 -75.9 87
      vertex 10 -90 85
      vertex 10 -64 85
    endloop
  endfacet
  facet normal 1 0 0
    outer loop
      vertex 10 -90 85
      vertex 10 -88 87
      vertex 10 -90 90
    endloop
  endfacet
  facet normal -0 0 1
    outer loop
      vertex -10 -64 90
      vertex -6 -75.9 90
      vertex -6 -64 90
    endloop
  endfacet
  facet normal 0 0 1
    outer loop
      vertex -6 -75.9 90
      vertex -10 -64 90
      vertex -10 -75.9 90
    endloop
  endfacet
  facet normal -0 0 1
    outer loop
      vertex -10 -88 90
      vertex -2.9 -90 90
      vertex -2.9 -88 90
    endloop
  endfacet
  facet normal 0 0 1
    outer loop
      vertex -2.9 -90 90
      vertex -10 -88 90
      vertex -10 -90 90
    endloop
  endfacet
  facet normal -0 0 1
    outer loop
      vertex 2.89999 -88 90
      vertex 10 -90 90
      vertex 10 -88 90
    endloop
  endfacet
  facet normal 0 0 1
    outer loop
      vertex 10 -90 90
      vertex 2.89999 -88 90
      vertex 2.89999 -90 90
    endloop
  endfacet
  facet normal -0 0 1
    outer loop
      vertex 6 -64 90
      vertex 10 -75.9 90
      vertex 10 -64 90
    endloop
  endfacet
  facet normal 0 0 1
    outer loop
      vertex 10 -75.9 90
      vertex 6 -64 90
      vertex 6 -75.9 90
    endloop
  endfacet
  facet normal 0 1 -0
    outer loop
      vertex 10 -64 85
      vertex 6 -64 90
      vertex 10 -64 90
    endloop
  endfacet
  facet normal 0 1 0
    outer loop
      vertex 6 -64 90
      vertex 10 -64 85
      vertex -6 -64 90
    endloop
  endfacet
  facet normal 0 1 0
    outer loop
      vertex -10 -64 85
      vertex -6 -64 90
      vertex 10 -64 85
    endloop
  endfacet
  facet normal 0 1 0
    outer loop
      vertex -6 -64 90
      vertex -10 -64 85
      vertex -10 -64 90
    endloop
  endfacet
  facet normal 0 -1 0
    outer loop
      vertex -10 -90 85
      vertex -2.9 -90 90
      vertex -10 -90 90
    endloop
  endfacet
  facet normal 0 -1 -0
    outer loop
      vertex -2.9 -90 90
      vertex -10 -90 85
      vertex 2.89999 -90 90
    endloop
  endfacet
  facet normal 0 -1 0
    outer loop
      vertex 10 -90 85
      vertex 2.89999 -90 90
      vertex -10 -90 85
    endloop
  endfacet
  facet normal 0 -1 0
    outer loop
      vertex 2.89999 -90 90
      vertex 10 -90 85
      vertex 10 -90 90
    endloop
  endfacet
  facet normal 0 -1 0
    outer loop
      vertex -2.9 -90 90
      vertex 2.89999 -90 91
      vertex -2.9 -90 91
    endloop
  endfacet
  facet normal 0 -1 -0
    outer loop
      vertex 2.89999 -90 91
      vertex -2.9 -90 90
      vertex 2.89999 -90 90
    endloop
  endfacet
  facet normal 1 -0 0
    outer loop
      vertex 2.89999 -90 91
      vertex 2.89999 -88 90
      vertex 2.89999 -88 91
    endloop
  endfacet
  facet normal 1 0 0
    outer loop
      vertex 2.89999 -88 90
      vertex 2.89999 -90 91
      vertex 2.89999 -90 90
    endloop
  endfacet
  facet normal -1 0 0
    outer loop
      vertex -2.9 -90 90
      vertex -2.9 -88 91
      vertex -2.9 -88 90
    endloop
  endfacet
  facet normal -1 -0 0
    outer loop
      vertex -2.9 -88 91
      vertex -2.9 -90 90
      vertex -2.9 -90 91
    endloop
  endfacet
  facet normal -0 0 1
    outer loop
      vertex -2.9 -88 91
      vertex 2.89999 -90 91
      vertex 2.89999 -88 91
    endloop
  endfacet
  facet normal 0 0 1
    outer loop
      vertex 2.89999 -90 91
      vertex -2.9 -88 91
      vertex -2.9 -90 91
    endloop
  endfacet
  facet normal 0.972375 -0.233423 0
    outer loop
      vertex -1.67907 -68.7341 90
      vertex -1.6168 -68.4747 87.4
      vertex -1.6168 -68.4747 90
    endloop
  endfacet
  facet normal 0.972375 -0.233423 0
    outer loop
      vertex -1.6168 -68.4747 87.4
      vertex -1.67907 -68.7341 90
      vertex -1.67907 -68.7341 87.4
    endloop
  endfacet
  facet normal 0.996916 -0.0784711 0
    outer loop
      vertex -1.7 -69 90
      vertex -1.67907 -68.7341 87.4
      vertex -1.67907 -68.7341 90
    endloop
  endfacet
  facet normal 0.996916 -0.0784711 0
    outer loop
      vertex -1.67907 -68.7341 87.4
      vertex -1.7 -69 90
      vertex -1.7 -69 87.4
    endloop
  endfacet
  facet normal 0.923898 -0.38264 0
    outer loop
      vertex -1.6168 -68.4747 90
      vertex -1.51471 -68.2282 87.4
      vertex -1.51471 -68.2282 90
    endloop
  endfacet
  facet normal 0.923898 -0.38264 0
    outer loop
      vertex -1.51471 -68.2282 87.4
      vertex -1.6168 -68.4747 90
      vertex -1.6168 -68.4747 87.4
    endloop
  endfacet
  facet normal 0.522549 0.852609 -0
    outer loop
      vertex -0.771784 -70.5147 87.4
      vertex -0.999234 -70.3753 90
      vertex -0.771784 -70.5147 90
    endloop
  endfacet
  facet normal 0.522549 0.852609 0
    outer loop
      vertex -0.999234 -70.3753 90
      vertex -0.771784 -70.5147 87.4
      vertex -0.999234 -70.3753 87.4
    endloop
  endfacet
  facet normal -0.923898 -0.38264 0
    outer loop
      vertex 1.6168 -68.4747 87.4
      vertex 1.51471 -68.2282 90
      vertex 1.51471 -68.2282 87.4
    endloop
  endfacet
  facet normal -0.923898 -0.38264 0
    outer loop
      vertex 1.51471 -68.2282 90
      vertex 1.6168 -68.4747 87.4
      vertex 1.6168 -68.4747 90
    endloop
  endfacet
  facet normal -0.522549 0.852609 0
    outer loop
      vertex 0.999234 -70.3753 87.4
      vertex 0.771784 -70.5147 90
      vertex 0.999234 -70.3753 90
    endloop
  endfacet
  facet normal -0.522549 0.852609 0
    outer loop
      vertex 0.771784 -70.5147 90
      vertex 0.999234 -70.3753 87.4
      vertex 0.771784 -70.5147 87.4
    endloop
  endfacet
  facet normal 0.382731 0.92386 -0
    outer loop
      vertex -0.525329 -70.6168 87.4
      vertex -0.771784 -70.5147 90
      vertex -0.525329 -70.6168 90
    endloop
  endfacet
  facet normal 0.382731 0.92386 0
    outer loop
      vertex -0.771784 -70.5147 90
      vertex -0.525329 -70.6168 87.4
      vertex -0.771784 -70.5147 87.4
    endloop
  endfacet
  facet normal -0.382731 -0.92386 0
    outer loop
      vertex 0.525329 -67.3832 87.4
      vertex 0.771784 -67.4853 90
      vertex 0.525329 -67.3832 90
    endloop
  endfacet
  facet normal -0.382731 -0.92386 -0
    outer loop
      vertex 0.771784 -67.4853 90
      vertex 0.525329 -67.3832 87.4
      vertex 0.771784 -67.4853 87.4
    endloop
  endfacet
  facet normal -0.522549 -0.852609 0
    outer loop
      vertex 0.771784 -67.4853 87.4
      vertex 0.999234 -67.6247 90
      vertex 0.771784 -67.4853 90
    endloop
  endfacet
  facet normal -0.522549 -0.852609 -0
    outer loop
      vertex 0.999234 -67.6247 90
      vertex 0.771784 -67.4853 87.4
      vertex 0.999234 -67.6247 87.4
    endloop
  endfacet
  facet normal -0.233537 -0.972348 0
    outer loop
      vertex 0.265938 -67.3209 87.4
      vertex 0.525329 -67.3832 90
      vertex 0.265938 -67.3209 90
    endloop
  endfacet
  facet normal -0.233537 -0.972348 -0
    outer loop
      vertex 0.525329 -67.3832 90
      vertex 0.265938 -67.3209 87.4
      vertex 0.525329 -67.3832 87.4
    endloop
  endfacet
  facet normal 0.649346 0.760493 -0
    outer loop
      vertex -0.999234 -70.3753 87.4
      vertex -1.20208 -70.2021 90
      vertex -0.999234 -70.3753 90
    endloop
  endfacet
  facet normal 0.649346 0.760493 0
    outer loop
      vertex -1.20208 -70.2021 90
      vertex -0.999234 -70.3753 87.4
      vertex -1.20208 -70.2021 87.4
    endloop
  endfacet
  facet normal -0.0783482 -0.996926 0
    outer loop
      vertex 0 -67.3 87.4
      vertex 0.265938 -67.3209 90
      vertex 0 -67.3 90
    endloop
  endfacet
  facet normal -0.0783482 -0.996926 -0
    outer loop
      vertex 0.265938 -67.3209 90
      vertex 0 -67.3 87.4
      vertex 0.265938 -67.3209 87.4
    endloop
  endfacet
  facet normal -0.923898 0.38264 0
    outer loop
      vertex 1.51471 -69.7718 87.4
      vertex 1.6168 -69.5253 90
      vertex 1.6168 -69.5253 87.4
    endloop
  endfacet
  facet normal -0.923898 0.38264 0
    outer loop
      vertex 1.6168 -69.5253 90
      vertex 1.51471 -69.7718 87.4
      vertex 1.51471 -69.7718 90
    endloop
  endfacet
  facet normal -0.760485 -0.649355 0
    outer loop
      vertex 1.37533 -68.0008 87.4
      vertex 1.20208 -67.7979 90
      vertex 1.20208 -67.7979 87.4
    endloop
  endfacet
  facet normal -0.760485 -0.649355 0
    outer loop
      vertex 1.20208 -67.7979 90
      vertex 1.37533 -68.0008 87.4
      vertex 1.37533 -68.0008 90
    endloop
  endfacet
  facet normal -0.233537 0.972348 0
    outer loop
      vertex 0.525329 -70.6168 87.4
      vertex 0.265938 -70.6791 90
      vertex 0.525329 -70.6168 90
    endloop
  endfacet
  facet normal -0.233537 0.972348 0
    outer loop
      vertex 0.265938 -70.6791 90
      vertex 0.525329 -70.6168 87.4
      vertex 0.265938 -70.6791 87.4
    endloop
  endfacet
  facet normal 0.923898 0.38264 0
    outer loop
      vertex -1.51471 -69.7718 90
      vertex -1.6168 -69.5253 87.4
      vertex -1.6168 -69.5253 90
    endloop
  endfacet
  facet normal 0.923898 0.38264 0
    outer loop
      vertex -1.6168 -69.5253 87.4
      vertex -1.51471 -69.7718 90
      vertex -1.51471 -69.7718 87.4
    endloop
  endfacet
  facet normal -0.760485 0.649355 0
    outer loop
      vertex 1.20208 -70.2021 87.4
      vertex 1.37533 -69.9992 90
      vertex 1.37533 -69.9992 87.4
    endloop
  endfacet
  facet normal -0.760485 0.649355 0
    outer loop
      vertex 1.37533 -69.9992 90
      vertex 1.20208 -70.2021 87.4
      vertex 1.20208 -70.2021 90
    endloop
  endfacet
  facet normal -0.649346 -0.760493 0
    outer loop
      vertex 0.999234 -67.6247 87.4
      vertex 1.20208 -67.7979 90
      vertex 0.999234 -67.6247 90
    endloop
  endfacet
  facet normal -0.649346 -0.760493 -0
    outer loop
      vertex 1.20208 -67.7979 90
      vertex 0.999234 -67.6247 87.4
      vertex 1.20208 -67.7979 87.4
    endloop
  endfacet
  facet normal 0.0783482 0.996926 -0
    outer loop
      vertex 0 -70.7 87.4
      vertex -0.265938 -70.6791 90
      vertex 0 -70.7 90
    endloop
  endfacet
  facet normal 0.0783482 0.996926 0
    outer loop
      vertex -0.265938 -70.6791 90
      vertex 0 -70.7 87.4
      vertex -0.265938 -70.6791 87.4
    endloop
  endfacet
  facet normal 0.852592 0.522578 0
    outer loop
      vertex -1.37533 -69.9992 90
      vertex -1.51471 -69.7718 87.4
      vertex -1.51471 -69.7718 90
    endloop
  endfacet
  facet normal 0.852592 0.522578 0
    outer loop
      vertex -1.51471 -69.7718 87.4
      vertex -1.37533 -69.9992 90
      vertex -1.37533 -69.9992 87.4
    endloop
  endfacet
  facet normal 0.852592 -0.522578 0
    outer loop
      vertex -1.51471 -68.2282 90
      vertex -1.37533 -68.0008 87.4
      vertex -1.37533 -68.0008 90
    endloop
  endfacet
  facet normal 0.852592 -0.522578 0
    outer loop
      vertex -1.37533 -68.0008 87.4
      vertex -1.51471 -68.2282 90
      vertex -1.51471 -68.2282 87.4
    endloop
  endfacet
  facet normal 0.996916 0.0784711 0
    outer loop
      vertex -1.67907 -69.2659 90
      vertex -1.7 -69 87.4
      vertex -1.7 -69 90
    endloop
  endfacet
  facet normal 0.996916 0.0784711 0
    outer loop
      vertex -1.7 -69 87.4
      vertex -1.67907 -69.2659 90
      vertex -1.67907 -69.2659 87.4
    endloop
  endfacet
  facet normal 0.972375 0.233423 0
    outer loop
      vertex -1.6168 -69.5253 90
      vertex -1.67907 -69.2659 87.4
      vertex -1.67907 -69.2659 90
    endloop
  endfacet
  facet normal 0.972375 0.233423 0
    outer loop
      vertex -1.67907 -69.2659 87.4
      vertex -1.6168 -69.5253 90
      vertex -1.6168 -69.5253 87.4
    endloop
  endfacet
  facet normal -0.972375 0.233423 0
    outer loop
      vertex 1.6168 -69.5253 87.4
      vertex 1.67907 -69.2659 90
      vertex 1.67907 -69.2659 87.4
    endloop
  endfacet
  facet normal -0.972375 0.233423 0
    outer loop
      vertex 1.67907 -69.2659 90
      vertex 1.6168 -69.5253 87.4
      vertex 1.6168 -69.5253 90
    endloop
  endfacet
  facet normal 0.522549 -0.852609 0
    outer loop
      vertex -0.999234 -67.6247 87.4
      vertex -0.771784 -67.4853 90
      vertex -0.999234 -67.6247 90
    endloop
  endfacet
  facet normal 0.522549 -0.852609 0
    outer loop
      vertex -0.771784 -67.4853 90
      vertex -0.999234 -67.6247 87.4
      vertex -0.771784 -67.4853 87.4
    endloop
  endfacet
  facet normal 0.760485 -0.649355 0
    outer loop
      vertex -1.37533 -68.0008 90
      vertex -1.20208 -67.7979 87.4
      vertex -1.20208 -67.7979 90
    endloop
  endfacet
  facet normal 0.760485 -0.649355 0
    outer loop
      vertex -1.20208 -67.7979 87.4
      vertex -1.37533 -68.0008 90
      vertex -1.37533 -68.0008 87.4
    endloop
  endfacet
  facet normal -0.996916 -0.0784711 0
    outer loop
      vertex 1.7 -69 87.4
      vertex 1.67907 -68.7341 90
      vertex 1.67907 -68.7341 87.4
    endloop
  endfacet
  facet normal -0.996916 -0.0784711 0
    outer loop
      vertex 1.67907 -68.7341 90
      vertex 1.7 -69 87.4
      vertex 1.7 -69 90
    endloop
  endfacet
  facet normal 0.649346 -0.760493 0
    outer loop
      vertex -1.20208 -67.7979 87.4
      vertex -0.999234 -67.6247 90
      vertex -1.20208 -67.7979 90
    endloop
  endfacet
  facet normal 0.649346 -0.760493 0
    outer loop
      vertex -0.999234 -67.6247 90
      vertex -1.20208 -67.7979 87.4
      vertex -0.999234 -67.6247 87.4
    endloop
  endfacet
  facet normal 0.233537 0.972348 -0
    outer loop
      vertex -0.265938 -70.6791 87.4
      vertex -0.525329 -70.6168 90
      vertex -0.265938 -70.6791 90
    endloop
  endfacet
  facet normal 0.233537 0.972348 0
    outer loop
      vertex -0.525329 -70.6168 90
      vertex -0.265938 -70.6791 87.4
      vertex -0.525329 -70.6168 87.4
    endloop
  endfacet
  facet normal -0.852592 0.522578 0
    outer loop
      vertex 1.37533 -69.9992 87.4
      vertex 1.51471 -69.7718 90
      vertex 1.51471 -69.7718 87.4
    endloop
  endfacet
  facet normal -0.852592 0.522578 0
    outer loop
      vertex 1.51471 -69.7718 90
      vertex 1.37533 -69.9992 87.4
      vertex 1.37533 -69.9992 90
    endloop
  endfacet
  facet normal 0.0783482 -0.996926 0
    outer loop
      vertex -0.265938 -67.3209 87.4
      vertex 0 -67.3 90
      vertex -0.265938 -67.3209 90
    endloop
  endfacet
  facet normal 0.0783482 -0.996926 0
    outer loop
      vertex 0 -67.3 90
      vertex -0.265938 -67.3209 87.4
      vertex 0 -67.3 87.4
    endloop
  endfacet
  facet normal -0.649346 0.760493 0
    outer loop
      vertex 1.20208 -70.2021 87.4
      vertex 0.999234 -70.3753 90
      vertex 1.20208 -70.2021 90
    endloop
  endfacet
  facet normal -0.649346 0.760493 0
    outer loop
      vertex 0.999234 -70.3753 90
      vertex 1.20208 -70.2021 87.4
      vertex 0.999234 -70.3753 87.4
    endloop
  endfacet
  facet normal 0.760485 0.649355 0
    outer loop
      vertex -1.20208 -70.2021 90
      vertex -1.37533 -69.9992 87.4
      vertex -1.37533 -69.9992 90
    endloop
  endfacet
  facet normal 0.760485 0.649355 0
    outer loop
      vertex -1.37533 -69.9992 87.4
      vertex -1.20208 -70.2021 90
      vertex -1.20208 -70.2021 87.4
    endloop
  endfacet
  facet normal -0.852592 -0.522578 0
    outer loop
      vertex 1.51471 -68.2282 87.4
      vertex 1.37533 -68.0008 90
      vertex 1.37533 -68.0008 87.4
    endloop
  endfacet
  facet normal -0.852592 -0.522578 0
    outer loop
      vertex 1.37533 -68.0008 90
      vertex 1.51471 -68.2282 87.4
      vertex 1.51471 -68.2282 90
    endloop
  endfacet
  facet normal -0.996916 0.0784711 0
    outer loop
      vertex 1.67907 -69.2659 87.4
      vertex 1.7 -69 90
      vertex 1.7 -69 87.4
    endloop
  endfacet
  facet normal -0.996916 0.0784711 0
    outer loop
      vertex 1.7 -69 90
      vertex 1.67907 -69.2659 87.4
      vertex 1.67907 -69.2659 90
    endloop
  endfacet
  facet normal -0.382731 0.92386 0
    outer loop
      vertex 0.771784 -70.5147 87.4
      vertex 0.525329 -70.6168 90
      vertex 0.771784 -70.5147 90
    endloop
  endfacet
  facet normal -0.382731 0.92386 0
    outer loop
      vertex 0.525329 -70.6168 90
      vertex 0.771784 -70.5147 87.4
      vertex 0.525329 -70.6168 87.4
    endloop
  endfacet
  facet normal 0.382731 -0.92386 0
    outer loop
      vertex -0.771784 -67.4853 87.4
      vertex -0.525329 -67.3832 90
      vertex -0.771784 -67.4853 90
    endloop
  endfacet
  facet normal 0.382731 -0.92386 0
    outer loop
      vertex -0.525329 -67.3832 90
      vertex -0.771784 -67.4853 87.4
      vertex -0.525329 -67.3832 87.4
    endloop
  endfacet
  facet normal 0.233537 -0.972348 0
    outer loop
      vertex -0.525329 -67.3832 87.4
      vertex -0.265938 -67.3209 90
      vertex -0.525329 -67.3832 90
    endloop
  endfacet
  facet normal 0.233537 -0.972348 0
    outer loop
      vertex -0.265938 -67.3209 90
      vertex -0.525329 -67.3832 87.4
      vertex -0.265938 -67.3209 87.4
    endloop
  endfacet
  facet normal -0.972375 -0.233423 0
    outer loop
      vertex 1.67907 -68.7341 87.4
      vertex 1.6168 -68.4747 90
      vertex 1.6168 -68.4747 87.4
    endloop
  endfacet
  facet normal -0.972375 -0.233423 0
    outer loop
      vertex 1.6168 -68.4747 90
      vertex 1.67907 -68.7341 87.4
      vertex 1.67907 -68.7341 90
    endloop
  endfacet
  facet normal -0.0783482 0.996926 0
    outer loop
      vertex 0.265938 -70.6791 87.4
      vertex 0 -70.7 90
      vertex 0.265938 -70.6791 90
    endloop
  endfacet
  facet normal -0.0783482 0.996926 0
    outer loop
      vertex 0 -70.7 90
      vertex 0.265938 -70.6791 87.4
      vertex 0 -70.7 87.4
    endloop
  endfacet
  facet normal 0 0 1
    outer loop
      vertex 1.67907 -69.2659 90
      vertex 6 -64 90
      vertex 1.7 -69 90
    endloop
  endfacet
  facet normal 0 0 1
    outer loop
      vertex 6 -64 90
      vertex 1.67907 -68.7341 90
      vertex 1.7 -69 90
    endloop
  endfacet
  facet normal 0 0 1
    outer loop
      vertex 6 -64 90
      vertex 1.6168 -68.4747 90
      vertex 1.67907 -68.7341 90
    endloop
  endfacet
  facet normal 0 0 1
    outer loop
      vertex 6 -64 90
      vertex 1.51471 -68.2282 90
      vertex 1.6168 -68.4747 90
    endloop
  endfacet
  facet normal 0 0 1
    outer loop
      vertex 6 -64 90
      vertex 1.37533 -68.0008 90
      vertex 1.51471 -68.2282 90
    endloop
  endfacet
  facet normal 0 0 1
    outer loop
      vertex 6 -64 90
      vertex 1.20208 -67.7979 90
      vertex 1.37533 -68.0008 90
    endloop
  endfacet
  facet normal 0 0 1
    outer loop
      vertex 6 -64 90
      vertex 0.999234 -67.6247 90
      vertex 1.20208 -67.7979 90
    endloop
  endfacet
  facet normal 0 0 1
    outer loop
      vertex 6 -64 90
      vertex 0.771784 -67.4853 90
      vertex 0.999234 -67.6247 90
    endloop
  endfacet
  facet normal 0 0 1
    outer loop
      vertex 6 -64 90
      vertex 0.525329 -67.3832 90
      vertex 0.771784 -67.4853 90
    endloop
  endfacet
  facet normal 0 0 1
    outer loop
      vertex 6 -64 90
      vertex 0.265938 -67.3209 90
      vertex 0.525329 -67.3832 90
    endloop
  endfacet
  facet normal 0 0 1
    outer loop
      vertex 6 -64 90
      vertex 0 -67.3 90
      vertex 0.265938 -67.3209 90
    endloop
  endfacet
  facet normal -0 0 1
    outer loop
      vertex -6 -64 90
      vertex 0 -67.3 90
      vertex 6 -64 90
    endloop
  endfacet
  facet normal 0 0 1
    outer loop
      vertex 0 -67.3 90
      vertex -6 -64 90
      vertex -0.265938 -67.3209 90
    endloop
  endfacet
  facet normal 0 0 1
    outer loop
      vertex -0.265938 -67.3209 90
      vertex -6 -64 90
      vertex -0.525329 -67.3832 90
    endloop
  endfacet
  facet normal 0 0 1
    outer loop
      vertex -1.67907 -68.7341 90
      vertex -6 -64 90
      vertex -1.7 -69 90
    endloop
  endfacet
  facet normal 0 0 1
    outer loop
      vertex -1.6168 -68.4747 90
      vertex -6 -64 90
      vertex -1.67907 -68.7341 90
    endloop
  endfacet
  facet normal 0 0 1
    outer loop
      vertex -1.51471 -68.2282 90
      vertex -6 -64 90
      vertex -1.6168 -68.4747 90
    endloop
  endfacet
  facet normal 0 0 1
    outer loop
      vertex -1.37533 -68.0008 90
      vertex -6 -64 90
      vertex -1.51471 -68.2282 90
    endloop
  endfacet
  facet normal 0 0 1
    outer loop
      vertex -1.20208 -67.7979 90
      vertex -6 -64 90
      vertex -1.37533 -68.0008 90
    endloop
  endfacet
  facet normal 0 0 1
    outer loop
      vertex -0.999234 -67.6247 90
      vertex -6 -64 90
      vertex -1.20208 -67.7979 90
    endloop
  endfacet
  facet normal 0 0 1
    outer loop
      vertex -0.771784 -67.4853 90
      vertex -6 -64 90
      vertex -0.999234 -67.6247 90
    endloop
  endfacet
  facet normal 0 0 1
    outer loop
      vertex -0.525329 -67.3832 90
      vertex -6 -64 90
      vertex -0.771784 -67.4853 90
    endloop
  endfacet
  facet normal 0 0 1
    outer loop
      vertex 6 -64 90
      vertex 1.67907 -69.2659 90
      vertex 6 -75.9 90
    endloop
  endfacet
  facet normal -0 0 1
    outer loop
      vertex 1.6168 -69.5253 90
      vertex 6 -75.9 90
      vertex 1.67907 -69.2659 90
    endloop
  endfacet
  facet normal -0 0 1
    outer loop
      vertex 1.51471 -69.7718 90
      vertex 6 -75.9 90
      vertex 1.6168 -69.5253 90
    endloop
  endfacet
  facet normal -0 0 1
    outer loop
      vertex 1.37533 -69.9992 90
      vertex 6 -75.9 90
      vertex 1.51471 -69.7718 90
    endloop
  endfacet
  facet normal -0 0 1
    outer loop
      vertex 1.20208 -70.2021 90
      vertex 6 -75.9 90
      vertex 1.37533 -69.9992 90
    endloop
  endfacet
  facet normal -0 0 1
    outer loop
      vertex 0.999234 -70.3753 90
      vertex 6 -75.9 90
      vertex 1.20208 -70.2021 90
    endloop
  endfacet
  facet normal -0 0 1
    outer loop
      vertex 0.771784 -70.5147 90
      vertex 6 -75.9 90
      vertex 0.999234 -70.3753 90
    endloop
  endfacet
  facet normal -0 0 1
    outer loop
      vertex 0.525329 -70.6168 90
      vertex 6 -75.9 90
      vertex 0.771784 -70.5147 90
    endloop
  endfacet
  facet normal -0 0 1
    outer loop
      vertex 0.265938 -70.6791 90
      vertex 6 -75.9 90
      vertex 0.525329 -70.6168 90
    endloop
  endfacet
  facet normal -0 0 1
    outer loop
      vertex 0 -70.7 90
      vertex 6 -75.9 90
      vertex 0.265938 -70.6791 90
    endloop
  endfacet
  facet normal 0 0 1
    outer loop
      vertex -6 -75.9 90
      vertex 0 -70.7 90
      vertex -0.265938 -70.6791 90
    endloop
  endfacet
  facet normal 0 0 1
    outer loop
      vertex -6 -75.9 90
      vertex -0.265938 -70.6791 90
      vertex -0.525329 -70.6168 90
    endloop
  endfacet
  facet normal 0 0 1
    outer loop
      vertex -6 -75.9 90
      vertex -0.525329 -70.6168 90
      vertex -0.771784 -70.5147 90
    endloop
  endfacet
  facet normal 0 0 1
    outer loop
      vertex -6 -75.9 90
      vertex -0.771784 -70.5147 90
      vertex -0.999234 -70.3753 90
    endloop
  endfacet
  facet normal 0 0 1
    outer loop
      vertex -6 -64 90
      vertex -1.67907 -69.2659 90
      vertex -1.7 -69 90
    endloop
  endfacet
  facet normal 0 0 1
    outer loop
      vertex -6 -75.9 90
      vertex -1.67907 -69.2659 90
      vertex -6 -64 90
    endloop
  endfacet
  facet normal 0 0 1
    outer loop
      vertex -1.67907 -69.2659 90
      vertex -6 -75.9 90
      vertex -1.6168 -69.5253 90
    endloop
  endfacet
  facet normal 0 0 1
    outer loop
      vertex -1.6168 -69.5253 90
      vertex -6 -75.9 90
      vertex -1.51471 -69.7718 90
    endloop
  endfacet
  facet normal 0 0 1
    outer loop
      vertex 0 -70.7 90
      vertex -6 -75.9 90
      vertex 6 -75.9 90
    endloop
  endfacet
  facet normal 0 0 1
    outer loop
      vertex -1.20208 -70.2021 90
      vertex -6 -75.9 90
      vertex -0.999234 -70.3753 90
    endloop
  endfacet
  facet normal 0 0 1
    outer loop
      vertex -1.37533 -69.9992 90
      vertex -6 -75.9 90
      vertex -1.20208 -70.2021 90
    endloop
  endfacet
  facet normal 0 0 1
    outer loop
      vertex -1.51471 -69.7718 90
      vertex -6 -75.9 90
      vertex -1.37533 -69.9992 90
    endloop
  endfacet
  facet normal -0.923904 -0.382624 0
    outer loop
      vertex 2.85317 -68.073 85
      vertex 2.67302 -67.638 87
      vertex 2.67302 -67.638 85
    endloop
  endfacet
  facet normal -0.923904 -0.382624 0
    outer loop
      vertex 2.67302 -67.638 87
      vertex 2.85317 -68.073 85
      vertex 2.85317 -68.073 87
    endloop
  endfacet
  facet normal 0.972367 -0.233457 0
    outer loop
      vertex -2.96306 -68.5307 87
      vertex -2.85317 -68.073 85
      vertex -2.85317 -68.073 87
    endloop
  endfacet
  facet normal 0.972367 -0.233457 0
    outer loop
      vertex -2.85317 -68.073 85
      vertex -2.96306 -68.5307 87
      vertex -2.96306 -68.5307 85
    endloop
  endfacet
  facet normal 0.996916 -0.0784703 0
    outer loop
      vertex -3 -69 87
      vertex -2.96306 -68.5307 85
      vertex -2.96306 -68.5307 87
    endloop
  endfacet
  facet normal 0.996916 -0.0784703 0
    outer loop
      vertex -2.96306 -68.5307 85
      vertex -3 -69 87
      vertex -3 -69 85
    endloop
  endfacet
  facet normal 0.923904 -0.382624 0
    outer loop
      vertex -2.85317 -68.073 87
      vertex -2.67302 -67.638 85
      vertex -2.67302 -67.638 87
    endloop
  endfacet
  facet normal 0.923904 -0.382624 0
    outer loop
      vertex -2.67302 -67.638 85
      vertex -2.85317 -68.073 87
      vertex -2.85317 -68.073 85
    endloop
  endfacet
  facet normal 0.522542 0.852614 -0
    outer loop
      vertex -1.36197 -71.673 85
      vertex -1.76336 -71.427 87
      vertex -1.36197 -71.673 87
    endloop
  endfacet
  facet normal 0.522542 0.852614 0
    outer loop
      vertex -1.76336 -71.427 87
      vertex -1.36197 -71.673 85
      vertex -1.76336 -71.427 85
    endloop
  endfacet
  facet normal 0.972367 0.233457 0
    outer loop
      vertex -2.85317 -69.927 87
      vertex -2.96306 -69.4693 85
      vertex -2.96306 -69.4693 87
    endloop
  endfacet
  facet normal 0.972367 0.233457 0
    outer loop
      vertex -2.96306 -69.4693 85
      vertex -2.85317 -69.927 87
      vertex -2.85317 -69.927 85
    endloop
  endfacet
  facet normal 0.382775 0.923841 -0
    outer loop
      vertex -0.927051 -71.8532 85
      vertex -1.36197 -71.673 87
      vertex -0.927051 -71.8532 87
    endloop
  endfacet
  facet normal 0.382775 0.923841 0
    outer loop
      vertex -1.36197 -71.673 87
      vertex -0.927051 -71.8532 85
      vertex -1.36197 -71.673 85
    endloop
  endfacet
  facet normal -0.382775 -0.923841 0
    outer loop
      vertex 0.927051 -66.1468 85
      vertex 1.36197 -66.327 87
      vertex 0.927051 -66.1468 87
    endloop
  endfacet
  facet normal -0.382775 -0.923841 -0
    outer loop
      vertex 1.36197 -66.327 87
      vertex 0.927051 -66.1468 85
      vertex 1.36197 -66.327 85
    endloop
  endfacet
  facet normal -0.382775 0.923841 0
    outer loop
      vertex 1.36197 -71.673 85
      vertex 0.927051 -71.8532 87
      vertex 1.36197 -71.673 87
    endloop
  endfacet
  facet normal -0.382775 0.923841 0
    outer loop
      vertex 0.927051 -71.8532 87
      vertex 1.36197 -71.673 85
      vertex 0.927051 -71.8532 85
    endloop
  endfacet
  facet normal -0.522542 -0.852614 0
    outer loop
      vertex 1.36197 -66.327 85
      vertex 1.76336 -66.573 87
      vertex 1.36197 -66.327 87
    endloop
  endfacet
  facet normal -0.522542 -0.852614 -0
    outer loop
      vertex 1.76336 -66.573 87
      vertex 1.36197 -66.327 85
      vertex 1.76336 -66.573 85
    endloop
  endfacet
  facet normal 0.649415 -0.760434 0
    outer loop
      vertex -2.12132 -66.8787 85
      vertex -1.76336 -66.573 87
      vertex -2.12132 -66.8787 87
    endloop
  endfacet
  facet normal 0.649415 -0.760434 0
    outer loop
      vertex -1.76336 -66.573 87
      vertex -2.12132 -66.8787 85
      vertex -1.76336 -66.573 85
    endloop
  endfacet
  facet normal -0.233454 -0.972368 0
    outer loop
      vertex 0.469303 -66.0369 85
      vertex 0.927051 -66.1468 87
      vertex 0.469303 -66.0369 87
    endloop
  endfacet
  facet normal -0.233454 -0.972368 -0
    outer loop
      vertex 0.927051 -66.1468 87
      vertex 0.469303 -66.0369 85
      vertex 0.927051 -66.1468 85
    endloop
  endfacet
  facet normal -0.923904 0.382624 0
    outer loop
      vertex 2.67302 -70.362 85
      vertex 2.85317 -69.927 87
      vertex 2.85317 -69.927 85
    endloop
  endfacet
  facet normal -0.923904 0.382624 0
    outer loop
      vertex 2.85317 -69.927 87
      vertex 2.67302 -70.362 85
      vertex 2.67302 -70.362 87
    endloop
  endfacet
  facet normal -0.0783853 -0.996923 0
    outer loop
      vertex 0 -66 85
      vertex 0.469303 -66.0369 87
      vertex 0 -66 87
    endloop
  endfacet
  facet normal -0.0783853 -0.996923 -0
    outer loop
      vertex 0.469303 -66.0369 87
      vertex 0 -66 85
      vertex 0.469303 -66.0369 85
    endloop
  endfacet
  facet normal -0.233454 0.972368 0
    outer loop
      vertex 0.927051 -71.8532 85
      vertex 0.469303 -71.9631 87
      vertex 0.927051 -71.8532 87
    endloop
  endfacet
  facet normal -0.233454 0.972368 0
    outer loop
      vertex 0.469303 -71.9631 87
      vertex 0.927051 -71.8532 85
      vertex 0.469303 -71.9631 85
    endloop
  endfacet
  facet normal 0.923904 0.382624 0
    outer loop
      vertex -2.67302 -70.362 87
      vertex -2.85317 -69.927 85
      vertex -2.85317 -69.927 87
    endloop
  endfacet
  facet normal 0.923904 0.382624 0
    outer loop
      vertex -2.85317 -69.927 85
      vertex -2.67302 -70.362 87
      vertex -2.67302 -70.362 85
    endloop
  endfacet
  facet normal -0.760349 0.649515 0
    outer loop
      vertex 2.12132 -71.1213 85
      vertex 2.42705 -70.7634 87
      vertex 2.42705 -70.7634 85
    endloop
  endfacet
  facet normal -0.760349 0.649515 0
    outer loop
      vertex 2.42705 -70.7634 87
      vertex 2.12132 -71.1213 85
      vertex 2.12132 -71.1213 87
    endloop
  endfacet
  facet normal -0.649415 -0.760434 0
    outer loop
      vertex 1.76336 -66.573 85
      vertex 2.12132 -66.8787 87
      vertex 1.76336 -66.573 87
    endloop
  endfacet
  facet normal -0.649415 -0.760434 -0
    outer loop
      vertex 2.12132 -66.8787 87
      vertex 1.76336 -66.573 85
      vertex 2.12132 -66.8787 85
    endloop
  endfacet
  facet normal 0.0783853 0.996923 -0
    outer loop
      vertex 0 -72 85
      vertex -0.469303 -71.9631 87
      vertex 0 -72 87
    endloop
  endfacet
  facet normal 0.0783853 0.996923 0
    outer loop
      vertex -0.469303 -71.9631 87
      vertex 0 -72 85
      vertex -0.469303 -71.9631 85
    endloop
  endfacet
  facet normal -0.649415 0.760434 0
    outer loop
      vertex 2.12132 -71.1213 85
      vertex 1.76336 -71.427 87
      vertex 2.12132 -71.1213 87
    endloop
  endfacet
  facet normal -0.649415 0.760434 0
    outer loop
      vertex 1.76336 -71.427 87
      vertex 2.12132 -71.1213 85
      vertex 1.76336 -71.427 85
    endloop
  endfacet
  facet normal 0.852648 0.522486 0
    outer loop
      vertex -2.42705 -70.7634 87
      vertex -2.67302 -70.362 85
      vertex -2.67302 -70.362 87
    endloop
  endfacet
  facet normal 0.852648 0.522486 0
    outer loop
      vertex -2.67302 -70.362 85
      vertex -2.42705 -70.7634 87
      vertex -2.42705 -70.7634 85
    endloop
  endfacet
  facet normal 0.852648 -0.522486 0
    outer loop
      vertex -2.67302 -67.638 87
      vertex -2.42705 -67.2366 85
      vertex -2.42705 -67.2366 87
    endloop
  endfacet
  facet normal 0.852648 -0.522486 0
    outer loop
      vertex -2.42705 -67.2366 85
      vertex -2.67302 -67.638 87
      vertex -2.67302 -67.638 85
    endloop
  endfacet
  facet normal 0.760349 -0.649515 0
    outer loop
      vertex -2.42705 -67.2366 87
      vertex -2.12132 -66.8787 85
      vertex -2.12132 -66.8787 87
    endloop
  endfacet
  facet normal 0.760349 -0.649515 0
    outer loop
      vertex -2.12132 -66.8787 85
      vertex -2.42705 -67.2366 87
      vertex -2.42705 -67.2366 85
    endloop
  endfacet
  facet normal -0.760349 -0.649515 0
    outer loop
      vertex 2.42705 -67.2366 85
      vertex 2.12132 -66.8787 87
      vertex 2.12132 -66.8787 85
    endloop
  endfacet
  facet normal -0.760349 -0.649515 0
    outer loop
      vertex 2.12132 -66.8787 87
      vertex 2.42705 -67.2366 85
      vertex 2.42705 -67.2366 87
    endloop
  endfacet
  facet normal 0.0783853 -0.996923 0
    outer loop
      vertex -0.469303 -66.0369 85
      vertex 0 -66 87
      vertex -0.469303 -66.0369 87
    endloop
  endfacet
  facet normal 0.0783853 -0.996923 0
    outer loop
      vertex 0 -66 87
      vertex -0.469303 -66.0369 85
      vertex 0 -66 85
    endloop
  endfacet
  facet normal 0.382775 -0.923841 0
    outer loop
      vertex -1.36197 -66.327 85
      vertex -0.927051 -66.1468 87
      vertex -1.36197 -66.327 87
    endloop
  endfacet
  facet normal 0.382775 -0.923841 0
    outer loop
      vertex -0.927051 -66.1468 87
      vertex -1.36197 -66.327 85
      vertex -0.927051 -66.1468 85
    endloop
  endfacet
  facet normal -0.972367 -0.233457 0
    outer loop
      vertex 2.96306 -68.5307 85
      vertex 2.85317 -68.073 87
      vertex 2.85317 -68.073 85
    endloop
  endfacet
  facet normal -0.972367 -0.233457 0
    outer loop
      vertex 2.85317 -68.073 87
      vertex 2.96306 -68.5307 85
      vertex 2.96306 -68.5307 87
    endloop
  endfacet
  facet normal -0.972367 0.233457 0
    outer loop
      vertex 2.85317 -69.927 85
      vertex 2.96306 -69.4693 87
      vertex 2.96306 -69.4693 85
    endloop
  endfacet
  facet normal -0.972367 0.233457 0
    outer loop
      vertex 2.96306 -69.4693 87
      vertex 2.85317 -69.927 85
      vertex 2.85317 -69.927 87
    endloop
  endfacet
  facet normal 0.522542 -0.852614 0
    outer loop
      vertex -1.76336 -66.573 85
      vertex -1.36197 -66.327 87
      vertex -1.76336 -66.573 87
    endloop
  endfacet
  facet normal 0.522542 -0.852614 0
    outer loop
      vertex -1.36197 -66.327 87
      vertex -1.76336 -66.573 85
      vertex -1.36197 -66.327 85
    endloop
  endfacet
  facet normal 0.233454 0.972368 -0
    outer loop
      vertex -0.469303 -71.9631 85
      vertex -0.927051 -71.8532 87
      vertex -0.469303 -71.9631 87
    endloop
  endfacet
  facet normal 0.233454 0.972368 0
    outer loop
      vertex -0.927051 -71.8532 87
      vertex -0.469303 -71.9631 85
      vertex -0.927051 -71.8532 85
    endloop
  endfacet
  facet normal 0.996916 0.0784703 0
    outer loop
      vertex -2.96306 -69.4693 87
      vertex -3 -69 85
      vertex -3 -69 87
    endloop
  endfacet
  facet normal 0.996916 0.0784703 0
    outer loop
      vertex -3 -69 85
      vertex -2.96306 -69.4693 87
      vertex -2.96306 -69.4693 85
    endloop
  endfacet
  facet normal 0.760349 0.649515 0
    outer loop
      vertex -2.12132 -71.1213 87
      vertex -2.42705 -70.7634 85
      vertex -2.42705 -70.7634 87
    endloop
  endfacet
  facet normal 0.760349 0.649515 0
    outer loop
      vertex -2.42705 -70.7634 85
      vertex -2.12132 -71.1213 87
      vertex -2.12132 -71.1213 85
    endloop
  endfacet
  facet normal -0.852648 0.522486 0
    outer loop
      vertex 2.42705 -70.7634 85
      vertex 2.67302 -70.362 87
      vertex 2.67302 -70.362 85
    endloop
  endfacet
  facet normal -0.852648 0.522486 0
    outer loop
      vertex 2.67302 -70.362 87
      vertex 2.42705 -70.7634 85
      vertex 2.42705 -70.7634 87
    endloop
  endfacet
  facet normal -0.996916 0.0784703 0
    outer loop
      vertex 2.96306 -69.4693 85
      vertex 3 -69 87
      vertex 3 -69 85
    endloop
  endfacet
  facet normal -0.996916 0.0784703 0
    outer loop
      vertex 3 -69 87
      vertex 2.96306 -69.4693 85
      vertex 2.96306 -69.4693 87
    endloop
  endfacet
  facet normal -0.996916 -0.0784703 0
    outer loop
      vertex 3 -69 85
      vertex 2.96306 -68.5307 87
      vertex 2.96306 -68.5307 85
    endloop
  endfacet
  facet normal -0.996916 -0.0784703 0
    outer loop
      vertex 2.96306 -68.5307 87
      vertex 3 -69 85
      vertex 3 -69 87
    endloop
  endfacet
  facet normal -0.0783853 0.996923 0
    outer loop
      vertex 0.469303 -71.9631 85
      vertex 0 -72 87
      vertex 0.469303 -71.9631 87
    endloop
  endfacet
  facet normal -0.0783853 0.996923 0
    outer loop
      vertex 0 -72 87
      vertex 0.469303 -71.9631 85
      vertex 0 -72 85
    endloop
  endfacet
  facet normal 0.233454 -0.972368 0
    outer loop
      vertex -0.927051 -66.1468 85
      vertex -0.469303 -66.0369 87
      vertex -0.927051 -66.1468 87
    endloop
  endfacet
  facet normal 0.233454 -0.972368 0
    outer loop
      vertex -0.469303 -66.0369 87
      vertex -0.927051 -66.1468 85
      vertex -0.469303 -66.0369 85
    endloop
  endfacet
  facet normal -0.522542 0.852614 0
    outer loop
      vertex 1.76336 -71.427 85
      vertex 1.36197 -71.673 87
      vertex 1.76336 -71.427 87
    endloop
  endfacet
  facet normal -0.522542 0.852614 0
    outer loop
      vertex 1.36197 -71.673 87
      vertex 1.76336 -71.427 85
      vertex 1.36197 -71.673 85
    endloop
  endfacet
  facet normal -0.852648 -0.522486 0
    outer loop
      vertex 2.67302 -67.638 85
      vertex 2.42705 -67.2366 87
      vertex 2.42705 -67.2366 85
    endloop
  endfacet
  facet normal -0.852648 -0.522486 0
    outer loop
      vertex 2.42705 -67.2366 87
      vertex 2.67302 -67.638 85
      vertex 2.67302 -67.638 87
    endloop
  endfacet
  facet normal 0.649415 0.760434 -0
    outer loop
      vertex -1.76336 -71.427 85
      vertex -2.12132 -71.1213 87
      vertex -1.76336 -71.427 87
    endloop
  endfacet
  facet normal 0.649415 0.760434 0
    outer loop
      vertex -2.12132 -71.1213 87
      vertex -1.76336 -71.427 85
      vertex -2.12132 -71.1213 85
    endloop
  endfacet
  facet normal -0 0 1
    outer loop
      vertex -10 -75.9 87
      vertex 10 -88 87
      vertex 10 -75.9 87
    endloop
  endfacet
  facet normal 0 0 1
    outer loop
      vertex 10 -88 87
      vertex -10 -75.9 87
      vertex -10 -88 87
    endloop
  endfacet
  facet normal 0 -1 0
    outer loop
      vertex -10 -75.9 87
      vertex -6 -75.9 90
      vertex -10 -75.9 90
    endloop
  endfacet
  facet normal 0 -1 -0
    outer loop
      vertex -6 -75.9 90
      vertex -10 -75.9 87
      vertex 6 -75.9 90
    endloop
  endfacet
  facet normal 0 -1 0
    outer loop
      vertex 10 -75.9 87
      vertex 6 -75.9 90
      vertex -10 -75.9 87
    endloop
  endfacet
  facet normal 0 -1 0
    outer loop
      vertex 6 -75.9 90
      vertex 10 -75.9 87
      vertex 10 -75.9 90
    endloop
  endfacet
  facet normal 0 1 -0
    outer loop
      vertex 10 -88 87
      vertex 2.89999 -88 90
      vertex 10 -88 90
    endloop
  endfacet
  facet normal 0 1 0
    outer loop
      vertex 2.89999 -88 90
      vertex 10 -88 87
      vertex -2.9 -88 90
    endloop
  endfacet
  facet normal 0 1 0
    outer loop
      vertex -10 -88 87
      vertex -2.9 -88 90
      vertex 10 -88 87
    endloop
  endfacet
  facet normal 0 1 0
    outer loop
      vertex -2.9 -88 90
      vertex -10 -88 87
      vertex -10 -88 90
    endloop
  endfacet
  facet normal 0 1 -0
    outer loop
      vertex 2.89999 -88 90
      vertex -2.9 -88 91
      vertex 2.89999 -88 91
    endloop
  endfacet
  facet normal 0 1 0
    outer loop
      vertex -2.9 -88 91
      vertex 2.89999 -88 90
      vertex -2.9 -88 90
    endloop
  endfacet
  facet normal 0 0 -1
    outer loop
      vertex 2.96306 -69.4693 87
      vertex 2.96306 -68.5307 87
      vertex 3 -69 87
    endloop
  endfacet
  facet normal 0 0 -1
    outer loop
      vertex 2.85317 -69.927 87
      vertex 2.96306 -68.5307 87
      vertex 2.96306 -69.4693 87
    endloop
  endfacet
  facet normal 0 0 -1
    outer loop
      vertex 2.85317 -69.927 87
      vertex 2.85317 -68.073 87
      vertex 2.96306 -68.5307 87
    endloop
  endfacet
  facet normal 0 0 -1
    outer loop
      vertex 2.67302 -70.362 87
      vertex 2.85317 -68.073 87
      vertex 2.85317 -69.927 87
    endloop
  endfacet
  facet normal 0 0 -1
    outer loop
      vertex 2.67302 -70.362 87
      vertex 2.67302 -67.638 87
      vertex 2.85317 -68.073 87
    endloop
  endfacet
  facet normal 0 0 -1
    outer loop
      vertex 2.42705 -70.7634 87
      vertex 2.67302 -67.638 87
      vertex 2.67302 -70.362 87
    endloop
  endfacet
  facet normal 0 0 -1
    outer loop
      vertex 2.42705 -70.7634 87
      vertex 2.42705 -67.2366 87
      vertex 2.67302 -67.638 87
    endloop
  endfacet
  facet normal 0 0 -1
    outer loop
      vertex 2.12132 -71.1213 87
      vertex 2.42705 -67.2366 87
      vertex 2.42705 -70.7634 87
    endloop
  endfacet
  facet normal 0 0 -1
    outer loop
      vertex 2.12132 -71.1213 87
      vertex 2.12132 -66.8787 87
      vertex 2.42705 -67.2366 87
    endloop
  endfacet
  facet normal 0 0 -1
    outer loop
      vertex 1.76336 -71.427 87
      vertex 2.12132 -66.8787 87
      vertex 2.12132 -71.1213 87
    endloop
  endfacet
  facet normal 0 0 -1
    outer loop
      vertex 1.76336 -71.427 87
      vertex 1.76336 -66.573 87
      vertex 2.12132 -66.8787 87
    endloop
  endfacet
  facet normal 0 0 -1
    outer loop
      vertex 1.36197 -71.673 87
      vertex 1.76336 -66.573 87
      vertex 1.76336 -71.427 87
    endloop
  endfacet
  facet normal 0 0 -1
    outer loop
      vertex 1.36197 -71.673 87
      vertex 1.36197 -66.327 87
      vertex 1.76336 -66.573 87
    endloop
  endfacet
  facet normal 0 0 -1
    outer loop
      vertex 0.927051 -71.8532 87
      vertex 1.36197 -66.327 87
      vertex 1.36197 -71.673 87
    endloop
  endfacet
  facet normal 0 0 -1
    outer loop
      vertex 0.927051 -71.8532 87
      vertex 0.927051 -66.1468 87
      vertex 1.36197 -66.327 87
    endloop
  endfacet
  facet normal 0 0 -1
    outer loop
      vertex 0.469303 -71.9631 87
      vertex 0.927051 -66.1468 87
      vertex 0.927051 -71.8532 87
    endloop
  endfacet
  facet normal 0 0 -1
    outer loop
      vertex 0.469303 -71.9631 87
      vertex 0.469303 -66.0369 87
      vertex 0.927051 -66.1468 87
    endloop
  endfacet
  facet normal 0 0 -1
    outer loop
      vertex 0 -72 87
      vertex 0.469303 -66.0369 87
      vertex 0.469303 -71.9631 87
    endloop
  endfacet
  facet normal 0 0 -1
    outer loop
      vertex 0 -72 87
      vertex 0 -66 87
      vertex 0.469303 -66.0369 87
    endloop
  endfacet
  facet normal 0 0 -1
    outer loop
      vertex -0.469303 -71.9631 87
      vertex 0 -66 87
      vertex 0 -72 87
    endloop
  endfacet
  facet normal 0 0 -1
    outer loop
      vertex -0.469303 -71.9631 87
      vertex -0.469303 -66.0369 87
      vertex 0 -66 87
    endloop
  endfacet
  facet normal 0 0 -1
    outer loop
      vertex -0.927051 -71.8532 87
      vertex -0.469303 -66.0369 87
      vertex -0.469303 -71.9631 87
    endloop
  endfacet
  facet normal 0 0 -1
    outer loop
      vertex -0.927051 -71.8532 87
      vertex -0.927051 -66.1468 87
      vertex -0.469303 -66.0369 87
    endloop
  endfacet
  facet normal 0 0 -1
    outer loop
      vertex -1.36197 -71.673 87
      vertex -0.927051 -66.1468 87
      vertex -0.927051 -71.8532 87
    endloop
  endfacet
  facet normal 0 0 -1
    outer loop
      vertex -1.36197 -71.673 87
      vertex -1.36197 -66.327 87
      vertex -0.927051 -66.1468 87
    endloop
  endfacet
  facet normal 0 0 -1
    outer loop
      vertex -1.76336 -71.427 87
      vertex -1.36197 -66.327 87
      vertex -1.36197 -71.673 87
    endloop
  endfacet
  facet normal 0 0 -1
    outer loop
      vertex -1.76336 -71.427 87
      vertex -1.76336 -66.573 87
      vertex -1.36197 -66.327 87
    endloop
  endfacet
  facet normal 0 0 -1
    outer loop
      vertex -2.12132 -71.1213 87
      vertex -1.76336 -66.573 87
      vertex -1.76336 -71.427 87
    endloop
  endfacet
  facet normal 0 0 -1
    outer loop
      vertex -2.12132 -71.1213 87
      vertex -2.12132 -66.8787 87
      vertex -1.76336 -66.573 87
    endloop
  endfacet
  facet normal 0 0 -1
    outer loop
      vertex -2.42705 -70.7634 87
      vertex -2.12132 -66.8787 87
      vertex -2.12132 -71.1213 87
    endloop
  endfacet
  facet normal 0 0 -1
    outer loop
      vertex -2.42705 -70.7634 87
      vertex -2.42705 -67.2366 87
      vertex -2.12132 -66.8787 87
    endloop
  endfacet
  facet normal 0 0 -1
    outer loop
      vertex -2.67302 -70.362 87
      vertex -2.42705 -67.2366 87
      vertex -2.42705 -70.7634 87
    endloop
  endfacet
  facet normal 0 0 -1
    outer loop
      vertex -2.67302 -70.362 87
      vertex -2.67302 -67.638 87
      vertex -2.42705 -67.2366 87
    endloop
  endfacet
  facet normal 0 0 -1
    outer loop
      vertex -2.85317 -69.927 87
      vertex -2.67302 -67.638 87
      vertex -2.67302 -70.362 87
    endloop
  endfacet
  facet normal 0 0 -1
    outer loop
      vertex -2.85317 -69.927 87
      vertex -2.85317 -68.073 87
      vertex -2.67302 -67.638 87
    endloop
  endfacet
  facet normal 0 0 -1
    outer loop
      vertex -2.96306 -69.4693 87
      vertex -2.85317 -68.073 87
      vertex -2.85317 -69.927 87
    endloop
  endfacet
  facet normal 0 0 -1
    outer loop
      vertex -2.96306 -69.4693 87
      vertex -2.96306 -68.5307 87
      vertex -2.85317 -68.073 87
    endloop
  endfacet
  facet normal 0 -0 -1
    outer loop
      vertex -2.96306 -68.5307 87
      vertex -2.96306 -69.4693 87
      vertex -3 -69 87
    endloop
  endfacet
  facet normal 0 0 1
    outer loop
      vertex 1.67907 -68.7341 87.4
      vertex 1.67907 -69.2659 87.4
      vertex 1.7 -69 87.4
    endloop
  endfacet
  facet normal 0 0 1
    outer loop
      vertex 1.6168 -68.4747 87.4
      vertex 1.67907 -69.2659 87.4
      vertex 1.67907 -68.7341 87.4
    endloop
  endfacet
  facet normal 0 0 1
    outer loop
      vertex 1.6168 -68.4747 87.4
      vertex 1.6168 -69.5253 87.4
      vertex 1.67907 -69.2659 87.4
    endloop
  endfacet
  facet normal 0 0 1
    outer loop
      vertex 1.51471 -68.2282 87.4
      vertex 1.6168 -69.5253 87.4
      vertex 1.6168 -68.4747 87.4
    endloop
  endfacet
  facet normal 0 0 1
    outer loop
      vertex 1.51471 -68.2282 87.4
      vertex 1.51471 -69.7718 87.4
      vertex 1.6168 -69.5253 87.4
    endloop
  endfacet
  facet normal 0 0 1
    outer loop
      vertex 1.37533 -68.0008 87.4
      vertex 1.51471 -69.7718 87.4
      vertex 1.51471 -68.2282 87.4
    endloop
  endfacet
  facet normal 0 0 1
    outer loop
      vertex 1.37533 -68.0008 87.4
      vertex 1.37533 -69.9992 87.4
      vertex 1.51471 -69.7718 87.4
    endloop
  endfacet
  facet normal 0 0 1
    outer loop
      vertex 1.20208 -67.7979 87.4
      vertex 1.37533 -69.9992 87.4
      vertex 1.37533 -68.0008 87.4
    endloop
  endfacet
  facet normal 0 0 1
    outer loop
      vertex 1.20208 -67.7979 87.4
      vertex 1.20208 -70.2021 87.4
      vertex 1.37533 -69.9992 87.4
    endloop
  endfacet
  facet normal 0 0 1
    outer loop
      vertex 0.999234 -67.6247 87.4
      vertex 1.20208 -70.2021 87.4
      vertex 1.20208 -67.7979 87.4
    endloop
  endfacet
  facet normal 0 0 1
    outer loop
      vertex 0.999234 -67.6247 87.4
      vertex 0.999234 -70.3753 87.4
      vertex 1.20208 -70.2021 87.4
    endloop
  endfacet
  facet normal 0 0 1
    outer loop
      vertex 0.771784 -67.4853 87.4
      vertex 0.999234 -70.3753 87.4
      vertex 0.999234 -67.6247 87.4
    endloop
  endfacet
  facet normal 0 0 1
    outer loop
      vertex 0.771784 -67.4853 87.4
      vertex 0.771784 -70.5147 87.4
      vertex 0.999234 -70.3753 87.4
    endloop
  endfacet
  facet normal 0 0 1
    outer loop
      vertex 0.525329 -67.3832 87.4
      vertex 0.771784 -70.5147 87.4
      vertex 0.771784 -67.4853 87.4
    endloop
  endfacet
  facet normal 0 0 1
    outer loop
      vertex 0.525329 -67.3832 87.4
      vertex 0.525329 -70.6168 87.4
      vertex 0.771784 -70.5147 87.4
    endloop
  endfacet
  facet normal 0 0 1
    outer loop
      vertex 0.265938 -67.3209 87.4
      vertex 0.525329 -70.6168 87.4
      vertex 0.525329 -67.3832 87.4
    endloop
  endfacet
  facet normal 0 0 1
    outer loop
      vertex 0.265938 -67.3209 87.4
      vertex 0.265938 -70.6791 87.4
      vertex 0.525329 -70.6168 87.4
    endloop
  endfacet
  facet normal 0 0 1
    outer loop
      vertex 0 -67.3 87.4
      vertex 0.265938 -70.6791 87.4
      vertex 0.265938 -67.3209 87.4
    endloop
  endfacet
  facet normal 0 0 1
    outer loop
      vertex 0 -67.3 87.4
      vertex 0 -70.7 87.4
      vertex 0.265938 -70.6791 87.4
    endloop
  endfacet
  facet normal -0 0 1
    outer loop
      vertex -0.265938 -67.3209 87.4
      vertex 0 -70.7 87.4
      vertex 0 -67.3 87.4
    endloop
  endfacet
  facet normal 0 0 1
    outer loop
      vertex -0.265938 -67.3209 87.4
      vertex -0.265938 -70.6791 87.4
      vertex 0 -70.7 87.4
    endloop
  endfacet
  facet normal -0 0 1
    outer loop
      vertex -0.525329 -67.3832 87.4
      vertex -0.265938 -70.6791 87.4
      vertex -0.265938 -67.3209 87.4
    endloop
  endfacet
  facet normal 0 0 1
    outer loop
      vertex -0.525329 -67.3832 87.4
      vertex -0.525329 -70.6168 87.4
      vertex -0.265938 -70.6791 87.4
    endloop
  endfacet
  facet normal -0 0 1
    outer loop
      vertex -0.771784 -67.4853 87.4
      vertex -0.525329 -70.6168 87.4
      vertex -0.525329 -67.3832 87.4
    endloop
  endfacet
  facet normal 0 0 1
    outer loop
      vertex -0.771784 -67.4853 87.4
      vertex -0.771784 -70.5147 87.4
      vertex -0.525329 -70.6168 87.4
    endloop
  endfacet
  facet normal -0 0 1
    outer loop
      vertex -0.999234 -67.6247 87.4
      vertex -0.771784 -70.5147 87.4
      vertex -0.771784 -67.4853 87.4
    endloop
  endfacet
  facet normal 0 0 1
    outer loop
      vertex -0.999234 -67.6247 87.4
      vertex -0.999234 -70.3753 87.4
      vertex -0.771784 -70.5147 87.4
    endloop
  endfacet
  facet normal -0 0 1
    outer loop
      vertex -1.20208 -67.7979 87.4
      vertex -0.999234 -70.3753 87.4
      vertex -0.999234 -67.6247 87.4
    endloop
  endfacet
  facet normal 0 0 1
    outer loop
      vertex -1.20208 -67.7979 87.4
      vertex -1.20208 -70.2021 87.4
      vertex -0.999234 -70.3753 87.4
    endloop
  endfacet
  facet normal -0 0 1
    outer loop
      vertex -1.37533 -68.0008 87.4
      vertex -1.20208 -70.2021 87.4
      vertex -1.20208 -67.7979 87.4
    endloop
  endfacet
  facet normal 0 0 1
    outer loop
      vertex -1.37533 -68.0008 87.4
      vertex -1.37533 -69.9992 87.4
      vertex -1.20208 -70.2021 87.4
    endloop
  endfacet
  facet normal -0 0 1
    outer loop
      vertex -1.51471 -68.2282 87.4
      vertex -1.37533 -69.9992 87.4
      vertex -1.37533 -68.0008 87.4
    endloop
  endfacet
  facet normal 0 0 1
    outer loop
      vertex -1.51471 -68.2282 87.4
      vertex -1.51471 -69.7718 87.4
      vertex -1.37533 -69.9992 87.4
    endloop
  endfacet
  facet normal -0 0 1
    outer loop
      vertex -1.6168 -68.4747 87.4
      vertex -1.51471 -69.7718 87.4
      vertex -1.51471 -68.2282 87.4
    endloop
  endfacet
  facet normal 0 0 1
    outer loop
      vertex -1.6168 -68.4747 87.4
      vertex -1.6168 -69.5253 87.4
      vertex -1.51471 -69.7718 87.4
    endloop
  endfacet
  facet normal -0 0 1
    outer loop
      vertex -1.67907 -68.7341 87.4
      vertex -1.6168 -69.5253 87.4
      vertex -1.6168 -68.4747 87.4
    endloop
  endfacet
  facet normal 0 0 1
    outer loop
      vertex -1.67907 -68.7341 87.4
      vertex -1.67907 -69.2659 87.4
      vertex -1.6168 -69.5253 87.4
    endloop
  endfacet
  facet normal 0 -0 1
    outer loop
      vertex -1.67907 -69.2659 87.4
      vertex -1.67907 -68.7341 87.4
      vertex -1.7 -69 87.4
    endloop
  endfacet
endsolid OpenSCAD_Model
