solid OpenSCAD_Model
  facet normal 0 0 -1
    outer loop
      vertex 95.7984 19.4271 67.7
      vertex 96.2532 21.86 67.7
      vertex 96.2644 19.0074 67.7
    endloop
  endfacet
  facet normal 0 0 -1
    outer loop
      vertex 95.2552 19.7406 67.7
      vertex 96.2532 21.86 67.7
      vertex 95.7984 19.4271 67.7
    endloop
  endfacet
  facet normal 0 0 -1
    outer loop
      vertex 94.6587 19.9344 67.7
      vertex 96.2532 21.86 67.7
      vertex 95.2552 19.7406 67.7
    endloop
  endfacet
  facet normal 0 0 -1
    outer loop
      vertex 94.035 20 67.7
      vertex 96.2532 21.86 67.7
      vertex 94.6587 19.9344 67.7
    endloop
  endfacet
  facet normal 0 0 -1
    outer loop
      vertex 93.4113 19.9344 67.7
      vertex 96.2532 21.86 67.7
      vertex 94.035 20 67.7
    endloop
  endfacet
  facet normal 0 0 -1
    outer loop
      vertex 90 21.86 67.7
      vertex 93.4113 19.9344 67.7
      vertex 92.8148 19.7406 67.7
    endloop
  endfacet
  facet normal 0 0 -1
    outer loop
      vertex 90 21.86 67.7
      vertex 92.8148 19.7406 67.7
      vertex 92.2716 19.4271 67.7
    endloop
  endfacet
  facet normal 0 0 -1
    outer loop
      vertex 93.4113 19.9344 67.7
      vertex 90 21.86 67.7
      vertex 96.2532 21.86 67.7
    endloop
  endfacet
  facet normal 0 0 -1
    outer loop
      vertex 91.8056 19.0074 67.7
      vertex 90 21.86 67.7
      vertex 92.2716 19.4271 67.7
    endloop
  endfacet
  facet normal 0 0 -1
    outer loop
      vertex 91.4369 18.5 67.7
      vertex 90 21.86 67.7
      vertex 91.8056 19.0074 67.7
    endloop
  endfacet
  facet normal 0 0 -1
    outer loop
      vertex 91.1818 17.9271 67.7
      vertex 90 21.86 67.7
      vertex 91.4369 18.5 67.7
    endloop
  endfacet
  facet normal 0 0 -1
    outer loop
      vertex 91.0514 17.3136 67.7
      vertex 90 21.86 67.7
      vertex 91.1818 17.9271 67.7
    endloop
  endfacet
  facet normal 0 0 -1
    outer loop
      vertex 91.0514 16.6864 67.7
      vertex 90 21.86 67.7
      vertex 91.0514 17.3136 67.7
    endloop
  endfacet
  facet normal 0 0 -1
    outer loop
      vertex 102.9 10 67.7
      vertex 96.8882 16.0729 67.7
      vertex 97.0186 16.6864 67.7
    endloop
  endfacet
  facet normal 0 0 -1
    outer loop
      vertex 102.9 10 67.7
      vertex 96.6331 15.5 67.7
      vertex 96.8882 16.0729 67.7
    endloop
  endfacet
  facet normal 0 0 -1
    outer loop
      vertex 97.1 10 67.7
      vertex 96.2644 14.9926 67.7
      vertex 96.6331 15.5 67.7
    endloop
  endfacet
  facet normal 0 0 -1
    outer loop
      vertex 97.1 10 67.7
      vertex 95.7984 14.5729 67.7
      vertex 96.2644 14.9926 67.7
    endloop
  endfacet
  facet normal 0 0 -1
    outer loop
      vertex 97.1 10 67.7
      vertex 95.2552 14.2594 67.7
      vertex 95.7984 14.5729 67.7
    endloop
  endfacet
  facet normal 0 0 -1
    outer loop
      vertex 97.1 10 67.7
      vertex 94.6587 14.0656 67.7
      vertex 95.2552 14.2594 67.7
    endloop
  endfacet
  facet normal 0 0 -1
    outer loop
      vertex 97.1 10 67.7
      vertex 94.035 14 67.7
      vertex 94.6587 14.0656 67.7
    endloop
  endfacet
  facet normal 0 0 -1
    outer loop
      vertex 90 10 67.7
      vertex 94.035 14 67.7
      vertex 97.1 10 67.7
    endloop
  endfacet
  facet normal -0 0 -1
    outer loop
      vertex 94.035 14 67.7
      vertex 90 10 67.7
      vertex 93.4113 14.0656 67.7
    endloop
  endfacet
  facet normal -0 0 -1
    outer loop
      vertex 93.4113 14.0656 67.7
      vertex 90 10 67.7
      vertex 92.8148 14.2594 67.7
    endloop
  endfacet
  facet normal -0 0 -1
    outer loop
      vertex 92.8148 14.2594 67.7
      vertex 90 10 67.7
      vertex 92.2716 14.5729 67.7
    endloop
  endfacet
  facet normal 0 0 -1
    outer loop
      vertex 90 21.86 67.7
      vertex 91.0514 16.6864 67.7
      vertex 90 10 67.7
    endloop
  endfacet
  facet normal -0 0 -1
    outer loop
      vertex 91.1818 16.0729 67.7
      vertex 90 10 67.7
      vertex 91.0514 16.6864 67.7
    endloop
  endfacet
  facet normal -0 0 -1
    outer loop
      vertex 91.4369 15.5 67.7
      vertex 90 10 67.7
      vertex 91.1818 16.0729 67.7
    endloop
  endfacet
  facet normal -0 0 -1
    outer loop
      vertex 91.8056 14.9926 67.7
      vertex 90 10 67.7
      vertex 91.4369 15.5 67.7
    endloop
  endfacet
  facet normal -0 0 -1
    outer loop
      vertex 92.2716 14.5729 67.7
      vertex 90 10 67.7
      vertex 91.8056 14.9926 67.7
    endloop
  endfacet
  facet normal 0 0 -1
    outer loop
      vertex 97.1 10 67.7
      vertex 102.9 10 67.7
      vertex 102.9 9 67.7
    endloop
  endfacet
  facet normal 0 0 -1
    outer loop
      vertex 102.9 10 67.7
      vertex 97.0186 16.6864 67.7
      vertex 102.235 22.6209 67.7
    endloop
  endfacet
  facet normal 0 0 -1
    outer loop
      vertex 96.6331 15.5 67.7
      vertex 102.9 10 67.7
      vertex 97.1 10 67.7
    endloop
  endfacet
  facet normal 0 0 -1
    outer loop
      vertex 97.1 10 67.7
      vertex 102.9 9 67.7
      vertex 97.1 9 67.7
    endloop
  endfacet
  facet normal 0 0 -1
    outer loop
      vertex 109.019 17.3136 67.7
      vertex 109.735 10 67.7
      vertex 109.019 16.6864 67.7
    endloop
  endfacet
  facet normal 0 0 -1
    outer loop
      vertex 109.735 10 67.7
      vertex 108.888 16.0729 67.7
      vertex 109.019 16.6864 67.7
    endloop
  endfacet
  facet normal 0 0 -1
    outer loop
      vertex 109.735 10 67.7
      vertex 108.633 15.5 67.7
      vertex 108.888 16.0729 67.7
    endloop
  endfacet
  facet normal 0 0 -1
    outer loop
      vertex 109.735 10 67.7
      vertex 108.264 14.9926 67.7
      vertex 108.633 15.5 67.7
    endloop
  endfacet
  facet normal 0 0 -1
    outer loop
      vertex 109.735 10 67.7
      vertex 107.798 14.5729 67.7
      vertex 108.264 14.9926 67.7
    endloop
  endfacet
  facet normal 0 0 -1
    outer loop
      vertex 109.735 10 67.7
      vertex 107.255 14.2594 67.7
      vertex 107.798 14.5729 67.7
    endloop
  endfacet
  facet normal 0 0 -1
    outer loop
      vertex 109.735 10 67.7
      vertex 106.659 14.0656 67.7
      vertex 107.255 14.2594 67.7
    endloop
  endfacet
  facet normal 0 0 -1
    outer loop
      vertex 109.735 10 67.7
      vertex 106.035 14 67.7
      vertex 106.659 14.0656 67.7
    endloop
  endfacet
  facet normal 0 0 -1
    outer loop
      vertex 102.9 10 67.7
      vertex 106.035 14 67.7
      vertex 109.735 10 67.7
    endloop
  endfacet
  facet normal -0 0 -1
    outer loop
      vertex 106.035 14 67.7
      vertex 102.9 10 67.7
      vertex 105.411 14.0656 67.7
    endloop
  endfacet
  facet normal -0 0 -1
    outer loop
      vertex 105.411 14.0656 67.7
      vertex 102.9 10 67.7
      vertex 104.815 14.2594 67.7
    endloop
  endfacet
  facet normal 0 0 -1
    outer loop
      vertex 102.235 22.6209 67.7
      vertex 103.051 16.6864 67.7
      vertex 102.9 10 67.7
    endloop
  endfacet
  facet normal -0 0 -1
    outer loop
      vertex 103.182 16.0729 67.7
      vertex 102.9 10 67.7
      vertex 103.051 16.6864 67.7
    endloop
  endfacet
  facet normal -0 0 -1
    outer loop
      vertex 103.437 15.5 67.7
      vertex 102.9 10 67.7
      vertex 103.182 16.0729 67.7
    endloop
  endfacet
  facet normal -0 0 -1
    outer loop
      vertex 103.806 14.9926 67.7
      vertex 102.9 10 67.7
      vertex 103.437 15.5 67.7
    endloop
  endfacet
  facet normal -0 0 -1
    outer loop
      vertex 104.272 14.5729 67.7
      vertex 102.9 10 67.7
      vertex 103.806 14.9926 67.7
    endloop
  endfacet
  facet normal -0 0 -1
    outer loop
      vertex 104.815 14.2594 67.7
      vertex 102.9 10 67.7
      vertex 104.272 14.5729 67.7
    endloop
  endfacet
  facet normal 0 0 -1
    outer loop
      vertex 109.735 10 67.7
      vertex 109.019 17.3136 67.7
      vertex 109.735 27.8 67.7
    endloop
  endfacet
  facet normal 0 0 -1
    outer loop
      vertex 108.888 17.9271 67.7
      vertex 109.735 27.8 67.7
      vertex 109.019 17.3136 67.7
    endloop
  endfacet
  facet normal 0 0 -1
    outer loop
      vertex 108.633 18.5 67.7
      vertex 109.735 27.8 67.7
      vertex 108.888 17.9271 67.7
    endloop
  endfacet
  facet normal 0 0 -1
    outer loop
      vertex 108.264 19.0074 67.7
      vertex 109.735 27.8 67.7
      vertex 108.633 18.5 67.7
    endloop
  endfacet
  facet normal 0 0 -1
    outer loop
      vertex 107.798 19.4271 67.7
      vertex 109.735 27.8 67.7
      vertex 108.264 19.0074 67.7
    endloop
  endfacet
  facet normal 0 0 -1
    outer loop
      vertex 107.255 19.7406 67.7
      vertex 109.735 27.8 67.7
      vertex 107.798 19.4271 67.7
    endloop
  endfacet
  facet normal 0 0 -1
    outer loop
      vertex 106.659 19.9344 67.7
      vertex 109.735 27.8 67.7
      vertex 107.255 19.7406 67.7
    endloop
  endfacet
  facet normal 0 0 -1
    outer loop
      vertex 106.035 20 67.7
      vertex 109.735 27.8 67.7
      vertex 106.659 19.9344 67.7
    endloop
  endfacet
  facet normal 0 0 -1
    outer loop
      vertex 102.235 22.6209 67.7
      vertex 106.035 20 67.7
      vertex 105.411 19.9344 67.7
    endloop
  endfacet
  facet normal 0 0 -1
    outer loop
      vertex 102.235 22.6209 67.7
      vertex 105.411 19.9344 67.7
      vertex 104.815 19.7406 67.7
    endloop
  endfacet
  facet normal 0 0 -1
    outer loop
      vertex 102.235 22.6209 67.7
      vertex 104.815 19.7406 67.7
      vertex 104.272 19.4271 67.7
    endloop
  endfacet
  facet normal 0 0 -1
    outer loop
      vertex 102.235 22.6209 67.7
      vertex 104.272 19.4271 67.7
      vertex 103.806 19.0074 67.7
    endloop
  endfacet
  facet normal 0 0 -1
    outer loop
      vertex 102.235 22.6209 67.7
      vertex 103.806 19.0074 67.7
      vertex 103.437 18.5 67.7
    endloop
  endfacet
  facet normal 0 0 -1
    outer loop
      vertex 103.051 16.6864 67.7
      vertex 102.235 22.6209 67.7
      vertex 103.051 17.3136 67.7
    endloop
  endfacet
  facet normal 0 0 -1
    outer loop
      vertex 102.235 22.6209 67.7
      vertex 103.182 17.9271 67.7
      vertex 103.051 17.3136 67.7
    endloop
  endfacet
  facet normal 0 0 -1
    outer loop
      vertex 102.235 22.6209 67.7
      vertex 103.437 18.5 67.7
      vertex 103.182 17.9271 67.7
    endloop
  endfacet
  facet normal 0 0 -1
    outer loop
      vertex 106.035 20 67.7
      vertex 102.235 22.6209 67.7
      vertex 102.235 25.7591 67.7
    endloop
  endfacet
  facet normal 0 0 -1
    outer loop
      vertex 106.035 20 67.7
      vertex 102.235 25.7591 67.7
      vertex 109.735 27.8 67.7
    endloop
  endfacet
  facet normal 0 0 -1
    outer loop
      vertex 96.2532 26.52 67.7
      vertex 102.235 25.7591 67.7
      vertex 99.115 25.7591 67.7
    endloop
  endfacet
  facet normal 0 0 -1
    outer loop
      vertex 97.0186 17.3136 67.7
      vertex 102.235 22.6209 67.7
      vertex 97.0186 16.6864 67.7
    endloop
  endfacet
  facet normal 0 0 -1
    outer loop
      vertex 96.8882 17.9271 67.7
      vertex 102.235 22.6209 67.7
      vertex 97.0186 17.3136 67.7
    endloop
  endfacet
  facet normal -0 0 -1
    outer loop
      vertex 102.235 22.6209 67.7
      vertex 96.8882 17.9271 67.7
      vertex 99.115 22.6209 67.7
    endloop
  endfacet
  facet normal 0 0 -1
    outer loop
      vertex 96.6331 18.5 67.7
      vertex 99.115 22.6209 67.7
      vertex 96.8882 17.9271 67.7
    endloop
  endfacet
  facet normal 0 0 -1
    outer loop
      vertex 96.2644 19.0074 67.7
      vertex 99.115 22.6209 67.7
      vertex 96.6331 18.5 67.7
    endloop
  endfacet
  facet normal 0 0 -1
    outer loop
      vertex 99.115 22.6209 67.7
      vertex 96.2644 19.0074 67.7
      vertex 96.2532 21.86 67.7
    endloop
  endfacet
  facet normal -0 0 -1
    outer loop
      vertex 99.115 22.6209 67.7
      vertex 96.2532 21.86 67.7
      vertex 99.115 25.7591 67.7
    endloop
  endfacet
  facet normal 0 0 -1
    outer loop
      vertex 96.2532 26.52 67.7
      vertex 99.115 25.7591 67.7
      vertex 96.2532 21.86 67.7
    endloop
  endfacet
  facet normal 0 0 -1
    outer loop
      vertex 102.235 25.7591 67.7
      vertex 96.2532 26.52 67.7
      vertex 109.735 27.8 67.7
    endloop
  endfacet
  facet normal 0 0 -1
    outer loop
      vertex 90 27.8 67.7
      vertex 96.2532 26.52 67.7
      vertex 90 26.52 67.7
    endloop
  endfacet
  facet normal 0 0 -1
    outer loop
      vertex 96.2532 26.52 67.7
      vertex 90 27.8 67.7
      vertex 109.735 27.8 67.7
    endloop
  endfacet
  facet normal -1 0 0
    outer loop
      vertex 97.1 9 67.7
      vertex 97.1 10 69.46
      vertex 97.1 10 67.7
    endloop
  endfacet
  facet normal -1 -0 0
    outer loop
      vertex 97.1 10 69.46
      vertex 97.1 9 67.7
      vertex 97.1 9 69.46
    endloop
  endfacet
  facet normal 1 -0 0
    outer loop
      vertex 102.9 9 69.46
      vertex 102.9 10 67.7
      vertex 102.9 10 69.46
    endloop
  endfacet
  facet normal 1 0 0
    outer loop
      vertex 102.9 10 67.7
      vertex 102.9 9 69.46
      vertex 102.9 9 67.7
    endloop
  endfacet
  facet normal 0 -1 0
    outer loop
      vertex 97.1 9 67.7
      vertex 102.9 9 69.46
      vertex 97.1 9 69.46
    endloop
  endfacet
  facet normal 0 -1 -0
    outer loop
      vertex 102.9 9 69.46
      vertex 97.1 9 67.7
      vertex 102.9 9 67.7
    endloop
  endfacet
  facet normal 1 -0 0
    outer loop
      vertex 109.735 10 69.46
      vertex 109.735 27.8 67.7
      vertex 109.735 27.8 69.46
    endloop
  endfacet
  facet normal 1 0 0
    outer loop
      vertex 109.735 27.8 67.7
      vertex 109.735 10 69.46
      vertex 109.735 10 67.7
    endloop
  endfacet
  facet normal 0 -1 0
    outer loop
      vertex 102.9 10 67.7
      vertex 109.735 10 69.46
      vertex 102.9 10 69.46
    endloop
  endfacet
  facet normal 0 -1 -0
    outer loop
      vertex 109.735 10 69.46
      vertex 102.9 10 67.7
      vertex 109.735 10 67.7
    endloop
  endfacet
  facet normal 0 -1 0
    outer loop
      vertex 90 10 67.7
      vertex 97.1 10 69.46
      vertex 90 10 69.46
    endloop
  endfacet
  facet normal 0 -1 -0
    outer loop
      vertex 97.1 10 69.46
      vertex 90 10 67.7
      vertex 97.1 10 67.7
    endloop
  endfacet
  facet normal 1 0 0
    outer loop
      vertex 99.115 26.409 68.4218
      vertex 99.115 22.6209 67.7
      vertex 99.115 25.7591 67.7
    endloop
  endfacet
  facet normal 1 0 -0
    outer loop
      vertex 99.115 22.6209 67.7
      vertex 99.115 26.409 68.4218
      vertex 99.115 21.971 68.4218
    endloop
  endfacet
  facet normal -1 0 0
    outer loop
      vertex 102.235 25.7591 67.7
      vertex 102.235 26.52 69.46
      vertex 102.235 26.52 68.545
    endloop
  endfacet
  facet normal -1 0 0
    outer loop
      vertex 102.235 22.6209 67.7
      vertex 102.235 26.52 69.46
      vertex 102.235 25.7591 67.7
    endloop
  endfacet
  facet normal -1 0 0
    outer loop
      vertex 102.235 21.86 69.46
      vertex 102.235 22.6209 67.7
      vertex 102.235 21.86 68.545
    endloop
  endfacet
  facet normal -1 0 0
    outer loop
      vertex 102.235 22.6209 67.7
      vertex 102.235 21.86 69.46
      vertex 102.235 26.52 69.46
    endloop
  endfacet
  facet normal 0 -0.742934 0.669364
    outer loop
      vertex 99.125 26.409 68.4218
      vertex 102.235 26.52 68.545
      vertex 99.125 26.52 68.545
    endloop
  endfacet
  facet normal 0 -0.743151 0.669124
    outer loop
      vertex 102.235 25.7591 67.7
      vertex 99.125 26.409 68.4218
      vertex 99.115 25.7591 67.7
    endloop
  endfacet
  facet normal 1.47382e-05 -0.743119 0.669159
    outer loop
      vertex 99.125 26.409 68.4218
      vertex 102.235 25.7591 67.7
      vertex 102.235 26.52 68.545
    endloop
  endfacet
  facet normal 0 -0.743151 0.669124
    outer loop
      vertex 99.115 26.409 68.4218
      vertex 99.115 25.7591 67.7
      vertex 99.125 26.409 68.4218
    endloop
  endfacet
  facet normal 0 -1 0
    outer loop
      vertex 96.2532 26.52 69.46
      vertex 99.125 26.52 68.545
      vertex 102.235 26.52 69.46
    endloop
  endfacet
  facet normal 0 -1 0
    outer loop
      vertex 96.2532 26.52 68.4218
      vertex 99.125 26.52 68.545
      vertex 96.2532 26.52 69.46
    endloop
  endfacet
  facet normal 0 -1 -0
    outer loop
      vertex 99.125 26.52 68.545
      vertex 96.2532 26.52 68.4218
      vertex 99.125 26.52 68.4218
    endloop
  endfacet
  facet normal 0 -1 -0
    outer loop
      vertex 102.235 26.52 69.46
      vertex 99.125 26.52 68.545
      vertex 102.235 26.52 68.545
    endloop
  endfacet
  facet normal 0 1 0
    outer loop
      vertex 99.125 21.86 68.545
      vertex 102.235 21.86 69.46
      vertex 102.235 21.86 68.545
    endloop
  endfacet
  facet normal 0 1 0
    outer loop
      vertex 102.235 21.86 69.46
      vertex 99.125 21.86 68.545
      vertex 96.2532 21.86 69.46
    endloop
  endfacet
  facet normal 0 1 0
    outer loop
      vertex 96.2532 21.86 68.4218
      vertex 99.125 21.86 68.545
      vertex 99.125 21.86 68.4218
    endloop
  endfacet
  facet normal 0 1 0
    outer loop
      vertex 99.125 21.86 68.545
      vertex 96.2532 21.86 68.4218
      vertex 96.2532 21.86 69.46
    endloop
  endfacet
  facet normal 0 0.742934 0.669364
    outer loop
      vertex 102.235 21.86 68.545
      vertex 99.125 21.971 68.4218
      vertex 99.125 21.86 68.545
    endloop
  endfacet
  facet normal 1.47382e-05 0.743119 0.669159
    outer loop
      vertex 102.235 22.6209 67.7
      vertex 99.125 21.971 68.4218
      vertex 102.235 21.86 68.545
    endloop
  endfacet
  facet normal -0 0.743151 0.669124
    outer loop
      vertex 99.115 22.6209 67.7
      vertex 99.125 21.971 68.4218
      vertex 102.235 22.6209 67.7
    endloop
  endfacet
  facet normal 0 0.743151 0.669124
    outer loop
      vertex 99.125 21.971 68.4218
      vertex 99.115 22.6209 67.7
      vertex 99.115 21.971 68.4218
    endloop
  endfacet
  facet normal 0 0 1
    outer loop
      vertex 99.125 26.52 68.4218
      vertex 99.115 26.409 68.4218
      vertex 99.125 26.409 68.4218
    endloop
  endfacet
  facet normal 0 0 1
    outer loop
      vertex 99.115 26.409 68.4218
      vertex 96.2532 26.52 68.4218
      vertex 99.115 21.971 68.4218
    endloop
  endfacet
  facet normal -0 0 1
    outer loop
      vertex 96.2532 26.52 68.4218
      vertex 99.115 26.409 68.4218
      vertex 99.125 26.52 68.4218
    endloop
  endfacet
  facet normal -0 0 1
    outer loop
      vertex 99.115 21.971 68.4218
      vertex 99.125 21.86 68.4218
      vertex 99.125 21.971 68.4218
    endloop
  endfacet
  facet normal 0 0 1
    outer loop
      vertex 96.2532 21.86 68.4218
      vertex 99.115 21.971 68.4218
      vertex 96.2532 26.52 68.4218
    endloop
  endfacet
  facet normal 0 0 1
    outer loop
      vertex 99.115 21.971 68.4218
      vertex 96.2532 21.86 68.4218
      vertex 99.125 21.86 68.4218
    endloop
  endfacet
  facet normal -1 0 0
    outer loop
      vertex 99.125 21.971 68.4218
      vertex 99.125 21.86 68.4218
      vertex 99.125 21.86 68.545
    endloop
  endfacet
  facet normal -1 0 0
    outer loop
      vertex 99.125 26.52 68.4218
      vertex 99.125 26.409 68.4218
      vertex 99.125 26.52 68.545
    endloop
  endfacet
  facet normal 0 -1 0
    outer loop
      vertex 90 26.52 67.7
      vertex 96.2532 26.52 69.46
      vertex 90 26.52 69.46
    endloop
  endfacet
  facet normal 0 -1 -0
    outer loop
      vertex 96.2532 26.52 69.46
      vertex 90 26.52 67.7
      vertex 96.2532 26.52 67.7
    endloop
  endfacet
  facet normal 0 0 0
    outer loop
      vertex 96.2532 26.52 67.7
      vertex 96.2532 26.52 68.4218
      vertex 96.2532 26.52 69.46
    endloop
  endfacet
  facet normal -1 0 0
    outer loop
      vertex 96.2532 26.52 67.7
      vertex 96.2532 21.86 68.4218
      vertex 96.2532 26.52 68.4218
    endloop
  endfacet
  facet normal -1 0 0
    outer loop
      vertex 96.2532 21.86 67.7
      vertex 96.2532 21.86 68.4218
      vertex 96.2532 26.52 67.7
    endloop
  endfacet
  facet normal 0 0 0
    outer loop
      vertex 96.2532 21.86 69.46
      vertex 96.2532 21.86 68.4218
      vertex 96.2532 21.86 67.7
    endloop
  endfacet
  facet normal 0 1 -0
    outer loop
      vertex 96.2532 21.86 67.7
      vertex 90 21.86 69.46
      vertex 96.2532 21.86 69.46
    endloop
  endfacet
  facet normal 0 1 0
    outer loop
      vertex 90 21.86 69.46
      vertex 96.2532 21.86 67.7
      vertex 90 21.86 67.7
    endloop
  endfacet
  facet normal -0.453968 0.891018 0
    outer loop
      vertex 107.034 15.6247 67.9
      vertex 106.56 15.3832 69.46
      vertex 107.034 15.6247 69.46
    endloop
  endfacet
  facet normal -0.453968 0.891018 0
    outer loop
      vertex 106.56 15.3832 69.46
      vertex 107.034 15.6247 67.9
      vertex 106.56 15.3832 67.9
    endloop
  endfacet
  facet normal -0.156523 0.987674 0
    outer loop
      vertex 106.56 15.3832 67.9
      vertex 106.035 15.3 69.46
      vertex 106.56 15.3832 69.46
    endloop
  endfacet
  facet normal -0.156523 0.987674 0
    outer loop
      vertex 106.035 15.3 69.46
      vertex 106.56 15.3832 67.9
      vertex 106.035 15.3 67.9
    endloop
  endfacet
  facet normal -0.707201 0.707013 0
    outer loop
      vertex 107.41 16.0008 67.9
      vertex 107.034 15.6247 69.46
      vertex 107.41 16.0008 69.46
    endloop
  endfacet
  facet normal -0.707201 0.707013 0
    outer loop
      vertex 107.034 15.6247 69.46
      vertex 107.41 16.0008 67.9
      vertex 107.034 15.6247 67.9
    endloop
  endfacet
  facet normal 0.987746 0.156069 0
    outer loop
      vertex 104.418 16.4747 69.46
      vertex 104.335 17 67.9
      vertex 104.335 17 69.46
    endloop
  endfacet
  facet normal 0.987746 0.156069 0
    outer loop
      vertex 104.335 17 67.9
      vertex 104.418 16.4747 69.46
      vertex 104.418 16.4747 67.9
    endloop
  endfacet
  facet normal -0.890599 -0.45479 0
    outer loop
      vertex 107.652 17.5253 67.9
      vertex 107.41 17.9992 69.46
      vertex 107.41 17.9992 67.9
    endloop
  endfacet
  facet normal -0.890599 -0.45479 0
    outer loop
      vertex 107.41 17.9992 69.46
      vertex 107.652 17.5253 67.9
      vertex 107.652 17.5253 69.46
    endloop
  endfacet
  facet normal 0.890599 0.45479 0
    outer loop
      vertex 104.66 16.0008 69.46
      vertex 104.418 16.4747 67.9
      vertex 104.418 16.4747 69.46
    endloop
  endfacet
  facet normal 0.890599 0.45479 0
    outer loop
      vertex 104.418 16.4747 67.9
      vertex 104.66 16.0008 69.46
      vertex 104.66 16.0008 67.9
    endloop
  endfacet
  facet normal 0.707201 0.707013 0
    outer loop
      vertex 105.036 15.6247 69.46
      vertex 104.66 16.0008 67.9
      vertex 104.66 16.0008 69.46
    endloop
  endfacet
  facet normal 0.707201 0.707013 0
    outer loop
      vertex 104.66 16.0008 67.9
      vertex 105.036 15.6247 69.46
      vertex 105.036 15.6247 67.9
    endloop
  endfacet
  facet normal 0.987746 -0.156069 0
    outer loop
      vertex 104.335 17 69.46
      vertex 104.418 17.5253 67.9
      vertex 104.418 17.5253 69.46
    endloop
  endfacet
  facet normal 0.987746 -0.156069 0
    outer loop
      vertex 104.418 17.5253 67.9
      vertex 104.335 17 69.46
      vertex 104.335 17 67.9
    endloop
  endfacet
  facet normal -0.453968 -0.891018 0
    outer loop
      vertex 106.56 18.6168 67.9
      vertex 107.034 18.3753 69.46
      vertex 106.56 18.6168 69.46
    endloop
  endfacet
  facet normal -0.453968 -0.891018 -0
    outer loop
      vertex 107.034 18.3753 69.46
      vertex 106.56 18.6168 67.9
      vertex 107.034 18.3753 67.9
    endloop
  endfacet
  facet normal 0.156523 0.987674 -0
    outer loop
      vertex 106.035 15.3 67.9
      vertex 105.51 15.3832 69.46
      vertex 106.035 15.3 69.46
    endloop
  endfacet
  facet normal 0.156523 0.987674 0
    outer loop
      vertex 105.51 15.3832 69.46
      vertex 106.035 15.3 67.9
      vertex 105.51 15.3832 67.9
    endloop
  endfacet
  facet normal -0.156523 -0.987674 0
    outer loop
      vertex 106.035 18.7 67.9
      vertex 106.56 18.6168 69.46
      vertex 106.035 18.7 69.46
    endloop
  endfacet
  facet normal -0.156523 -0.987674 -0
    outer loop
      vertex 106.56 18.6168 69.46
      vertex 106.035 18.7 67.9
      vertex 106.56 18.6168 67.9
    endloop
  endfacet
  facet normal 0.453968 0.891018 -0
    outer loop
      vertex 105.51 15.3832 67.9
      vertex 105.036 15.6247 69.46
      vertex 105.51 15.3832 69.46
    endloop
  endfacet
  facet normal 0.453968 0.891018 0
    outer loop
      vertex 105.036 15.6247 69.46
      vertex 105.51 15.3832 67.9
      vertex 105.036 15.6247 67.9
    endloop
  endfacet
  facet normal -0.987746 0.156069 0
    outer loop
      vertex 107.652 16.4747 67.9
      vertex 107.735 17 69.46
      vertex 107.735 17 67.9
    endloop
  endfacet
  facet normal -0.987746 0.156069 0
    outer loop
      vertex 107.735 17 69.46
      vertex 107.652 16.4747 67.9
      vertex 107.652 16.4747 69.46
    endloop
  endfacet
  facet normal -0.890599 0.45479 0
    outer loop
      vertex 107.41 16.0008 67.9
      vertex 107.652 16.4747 69.46
      vertex 107.652 16.4747 67.9
    endloop
  endfacet
  facet normal -0.890599 0.45479 0
    outer loop
      vertex 107.652 16.4747 69.46
      vertex 107.41 16.0008 67.9
      vertex 107.41 16.0008 69.46
    endloop
  endfacet
  facet normal 0.453968 -0.891018 0
    outer loop
      vertex 105.036 18.3753 67.9
      vertex 105.51 18.6168 69.46
      vertex 105.036 18.3753 69.46
    endloop
  endfacet
  facet normal 0.453968 -0.891018 0
    outer loop
      vertex 105.51 18.6168 69.46
      vertex 105.036 18.3753 67.9
      vertex 105.51 18.6168 67.9
    endloop
  endfacet
  facet normal -0.987746 -0.156069 0
    outer loop
      vertex 107.735 17 67.9
      vertex 107.652 17.5253 69.46
      vertex 107.652 17.5253 67.9
    endloop
  endfacet
  facet normal -0.987746 -0.156069 0
    outer loop
      vertex 107.652 17.5253 69.46
      vertex 107.735 17 67.9
      vertex 107.735 17 69.46
    endloop
  endfacet
  facet normal 0.707201 -0.707013 0
    outer loop
      vertex 104.66 17.9992 69.46
      vertex 105.036 18.3753 67.9
      vertex 105.036 18.3753 69.46
    endloop
  endfacet
  facet normal 0.707201 -0.707013 0
    outer loop
      vertex 105.036 18.3753 67.9
      vertex 104.66 17.9992 69.46
      vertex 104.66 17.9992 67.9
    endloop
  endfacet
  facet normal -0.707201 -0.707013 0
    outer loop
      vertex 107.034 18.3753 67.9
      vertex 107.41 17.9992 69.46
      vertex 107.034 18.3753 69.46
    endloop
  endfacet
  facet normal -0.707201 -0.707013 -0
    outer loop
      vertex 107.41 17.9992 69.46
      vertex 107.034 18.3753 67.9
      vertex 107.41 17.9992 67.9
    endloop
  endfacet
  facet normal 0.156523 -0.987674 0
    outer loop
      vertex 105.51 18.6168 67.9
      vertex 106.035 18.7 69.46
      vertex 105.51 18.6168 69.46
    endloop
  endfacet
  facet normal 0.156523 -0.987674 0
    outer loop
      vertex 106.035 18.7 69.46
      vertex 105.51 18.6168 67.9
      vertex 106.035 18.7 67.9
    endloop
  endfacet
  facet normal 0.890599 -0.45479 0
    outer loop
      vertex 104.418 17.5253 69.46
      vertex 104.66 17.9992 67.9
      vertex 104.66 17.9992 69.46
    endloop
  endfacet
  facet normal 0.890599 -0.45479 0
    outer loop
      vertex 104.66 17.9992 67.9
      vertex 104.418 17.5253 69.46
      vertex 104.418 17.5253 67.9
    endloop
  endfacet
  facet normal -0.499999 -0.866026 0
    outer loop
      vertex 107.255 19.7406 67.7
      vertex 107.798 19.4271 67.9
      vertex 107.255 19.7406 67.9
    endloop
  endfacet
  facet normal -0.499999 -0.866026 -0
    outer loop
      vertex 107.798 19.4271 67.9
      vertex 107.255 19.7406 67.7
      vertex 107.798 19.4271 67.7
    endloop
  endfacet
  facet normal -0.669229 0.743056 0
    outer loop
      vertex 108.264 14.9926 67.7
      vertex 107.798 14.5729 67.9
      vertex 108.264 14.9926 67.9
    endloop
  endfacet
  facet normal -0.669229 0.743056 0
    outer loop
      vertex 107.798 14.5729 67.9
      vertex 108.264 14.9926 67.7
      vertex 107.798 14.5729 67.7
    endloop
  endfacet
  facet normal 0.913588 0.406641 0
    outer loop
      vertex 103.437 15.5 67.9
      vertex 103.182 16.0729 67.7
      vertex 103.182 16.0729 67.9
    endloop
  endfacet
  facet normal 0.913588 0.406641 0
    outer loop
      vertex 103.182 16.0729 67.7
      vertex 103.437 15.5 67.9
      vertex 103.437 15.5 67.7
    endloop
  endfacet
  facet normal -1 0 0
    outer loop
      vertex 109.019 16.6864 67.7
      vertex 109.019 17.3136 67.9
      vertex 109.019 17.3136 67.7
    endloop
  endfacet
  facet normal -1 -0 0
    outer loop
      vertex 109.019 17.3136 67.9
      vertex 109.019 16.6864 67.7
      vertex 109.019 16.6864 67.9
    endloop
  endfacet
  facet normal -0.80875 -0.588153 0
    outer loop
      vertex 108.633 18.5 67.7
      vertex 108.264 19.0074 67.9
      vertex 108.264 19.0074 67.7
    endloop
  endfacet
  facet normal -0.80875 -0.588153 0
    outer loop
      vertex 108.264 19.0074 67.9
      vertex 108.633 18.5 67.7
      vertex 108.633 18.5 67.9
    endloop
  endfacet
  facet normal -0.669229 -0.743056 0
    outer loop
      vertex 107.798 19.4271 67.7
      vertex 108.264 19.0074 67.9
      vertex 107.798 19.4271 67.9
    endloop
  endfacet
  facet normal -0.669229 -0.743056 -0
    outer loop
      vertex 108.264 19.0074 67.9
      vertex 107.798 19.4271 67.7
      vertex 108.264 19.0074 67.7
    endloop
  endfacet
  facet normal -0.30923 -0.950987 0
    outer loop
      vertex 106.659 19.9344 67.7
      vertex 107.255 19.7406 67.9
      vertex 106.659 19.9344 67.9
    endloop
  endfacet
  facet normal -0.30923 -0.950987 -0
    outer loop
      vertex 107.255 19.7406 67.9
      vertex 106.659 19.9344 67.7
      vertex 107.255 19.7406 67.7
    endloop
  endfacet
  facet normal 0.499999 -0.866026 0
    outer loop
      vertex 104.272 19.4271 67.7
      vertex 104.815 19.7406 67.9
      vertex 104.272 19.4271 67.9
    endloop
  endfacet
  facet normal 0.499999 -0.866026 0
    outer loop
      vertex 104.815 19.7406 67.9
      vertex 104.272 19.4271 67.7
      vertex 104.815 19.7406 67.7
    endloop
  endfacet
  facet normal 0.977954 0.208821 0
    outer loop
      vertex 103.182 16.0729 67.9
      vertex 103.051 16.6864 67.7
      vertex 103.051 16.6864 67.9
    endloop
  endfacet
  facet normal 0.977954 0.208821 0
    outer loop
      vertex 103.051 16.6864 67.7
      vertex 103.182 16.0729 67.9
      vertex 103.182 16.0729 67.7
    endloop
  endfacet
  facet normal 0.30923 0.950987 -0
    outer loop
      vertex 105.411 14.0656 67.7
      vertex 104.815 14.2594 67.9
      vertex 105.411 14.0656 67.9
    endloop
  endfacet
  facet normal 0.30923 0.950987 0
    outer loop
      vertex 104.815 14.2594 67.9
      vertex 105.411 14.0656 67.7
      vertex 104.815 14.2594 67.7
    endloop
  endfacet
  facet normal 0.30923 -0.950987 0
    outer loop
      vertex 104.815 19.7406 67.7
      vertex 105.411 19.9344 67.9
      vertex 104.815 19.7406 67.9
    endloop
  endfacet
  facet normal 0.30923 -0.950987 0
    outer loop
      vertex 105.411 19.9344 67.9
      vertex 104.815 19.7406 67.7
      vertex 105.411 19.9344 67.7
    endloop
  endfacet
  facet normal 1 -0 0
    outer loop
      vertex 103.051 16.6864 67.9
      vertex 103.051 17.3136 67.7
      vertex 103.051 17.3136 67.9
    endloop
  endfacet
  facet normal 1 0 0
    outer loop
      vertex 103.051 17.3136 67.7
      vertex 103.051 16.6864 67.9
      vertex 103.051 16.6864 67.7
    endloop
  endfacet
  facet normal -0.913588 -0.406641 0
    outer loop
      vertex 108.888 17.9271 67.7
      vertex 108.633 18.5 67.9
      vertex 108.633 18.5 67.7
    endloop
  endfacet
  facet normal -0.913588 -0.406641 0
    outer loop
      vertex 108.633 18.5 67.9
      vertex 108.888 17.9271 67.7
      vertex 108.888 17.9271 67.9
    endloop
  endfacet
  facet normal -0.913588 0.406641 0
    outer loop
      vertex 108.633 15.5 67.7
      vertex 108.888 16.0729 67.9
      vertex 108.888 16.0729 67.7
    endloop
  endfacet
  facet normal -0.913588 0.406641 0
    outer loop
      vertex 108.888 16.0729 67.9
      vertex 108.633 15.5 67.7
      vertex 108.633 15.5 67.9
    endloop
  endfacet
  facet normal 0.669229 -0.743056 0
    outer loop
      vertex 103.806 19.0074 67.7
      vertex 104.272 19.4271 67.9
      vertex 103.806 19.0074 67.9
    endloop
  endfacet
  facet normal 0.669229 -0.743056 0
    outer loop
      vertex 104.272 19.4271 67.9
      vertex 103.806 19.0074 67.7
      vertex 104.272 19.4271 67.7
    endloop
  endfacet
  facet normal -0.104552 -0.994519 0
    outer loop
      vertex 106.035 20 67.7
      vertex 106.659 19.9344 67.9
      vertex 106.035 20 67.9
    endloop
  endfacet
  facet normal -0.104552 -0.994519 -0
    outer loop
      vertex 106.659 19.9344 67.9
      vertex 106.035 20 67.7
      vertex 106.659 19.9344 67.7
    endloop
  endfacet
  facet normal 0.913588 -0.406641 0
    outer loop
      vertex 103.182 17.9271 67.9
      vertex 103.437 18.5 67.7
      vertex 103.437 18.5 67.9
    endloop
  endfacet
  facet normal 0.913588 -0.406641 0
    outer loop
      vertex 103.437 18.5 67.7
      vertex 103.182 17.9271 67.9
      vertex 103.182 17.9271 67.7
    endloop
  endfacet
  facet normal -0.499999 0.866026 0
    outer loop
      vertex 107.798 14.5729 67.7
      vertex 107.255 14.2594 67.9
      vertex 107.798 14.5729 67.9
    endloop
  endfacet
  facet normal -0.499999 0.866026 0
    outer loop
      vertex 107.255 14.2594 67.9
      vertex 107.798 14.5729 67.7
      vertex 107.255 14.2594 67.7
    endloop
  endfacet
  facet normal -0.104552 0.994519 0
    outer loop
      vertex 106.659 14.0656 67.7
      vertex 106.035 14 67.9
      vertex 106.659 14.0656 67.9
    endloop
  endfacet
  facet normal -0.104552 0.994519 0
    outer loop
      vertex 106.035 14 67.9
      vertex 106.659 14.0656 67.7
      vertex 106.035 14 67.7
    endloop
  endfacet
  facet normal 0.104552 -0.994519 0
    outer loop
      vertex 105.411 19.9344 67.7
      vertex 106.035 20 67.9
      vertex 105.411 19.9344 67.9
    endloop
  endfacet
  facet normal 0.104552 -0.994519 0
    outer loop
      vertex 106.035 20 67.9
      vertex 105.411 19.9344 67.7
      vertex 106.035 20 67.7
    endloop
  endfacet
  facet normal 0.499999 0.866026 -0
    outer loop
      vertex 104.815 14.2594 67.7
      vertex 104.272 14.5729 67.9
      vertex 104.815 14.2594 67.9
    endloop
  endfacet
  facet normal 0.499999 0.866026 0
    outer loop
      vertex 104.272 14.5729 67.9
      vertex 104.815 14.2594 67.7
      vertex 104.272 14.5729 67.7
    endloop
  endfacet
  facet normal 0.80875 -0.588153 0
    outer loop
      vertex 103.437 18.5 67.9
      vertex 103.806 19.0074 67.7
      vertex 103.806 19.0074 67.9
    endloop
  endfacet
  facet normal 0.80875 -0.588153 0
    outer loop
      vertex 103.806 19.0074 67.7
      vertex 103.437 18.5 67.9
      vertex 103.437 18.5 67.7
    endloop
  endfacet
  facet normal -0.80875 0.588153 0
    outer loop
      vertex 108.264 14.9926 67.7
      vertex 108.633 15.5 67.9
      vertex 108.633 15.5 67.7
    endloop
  endfacet
  facet normal -0.80875 0.588153 0
    outer loop
      vertex 108.633 15.5 67.9
      vertex 108.264 14.9926 67.7
      vertex 108.264 14.9926 67.9
    endloop
  endfacet
  facet normal 0.669229 0.743056 -0
    outer loop
      vertex 104.272 14.5729 67.7
      vertex 103.806 14.9926 67.9
      vertex 104.272 14.5729 67.9
    endloop
  endfacet
  facet normal 0.669229 0.743056 0
    outer loop
      vertex 103.806 14.9926 67.9
      vertex 104.272 14.5729 67.7
      vertex 103.806 14.9926 67.7
    endloop
  endfacet
  facet normal 0.104552 0.994519 -0
    outer loop
      vertex 106.035 14 67.7
      vertex 105.411 14.0656 67.9
      vertex 106.035 14 67.9
    endloop
  endfacet
  facet normal 0.104552 0.994519 0
    outer loop
      vertex 105.411 14.0656 67.9
      vertex 106.035 14 67.7
      vertex 105.411 14.0656 67.7
    endloop
  endfacet
  facet normal -0.977954 -0.208821 0
    outer loop
      vertex 109.019 17.3136 67.7
      vertex 108.888 17.9271 67.9
      vertex 108.888 17.9271 67.7
    endloop
  endfacet
  facet normal -0.977954 -0.208821 0
    outer loop
      vertex 108.888 17.9271 67.9
      vertex 109.019 17.3136 67.7
      vertex 109.019 17.3136 67.9
    endloop
  endfacet
  facet normal -0.30923 0.950987 0
    outer loop
      vertex 107.255 14.2594 67.7
      vertex 106.659 14.0656 67.9
      vertex 107.255 14.2594 67.9
    endloop
  endfacet
  facet normal -0.30923 0.950987 0
    outer loop
      vertex 106.659 14.0656 67.9
      vertex 107.255 14.2594 67.7
      vertex 106.659 14.0656 67.7
    endloop
  endfacet
  facet normal 0.977954 -0.208821 0
    outer loop
      vertex 103.051 17.3136 67.9
      vertex 103.182 17.9271 67.7
      vertex 103.182 17.9271 67.9
    endloop
  endfacet
  facet normal 0.977954 -0.208821 0
    outer loop
      vertex 103.182 17.9271 67.7
      vertex 103.051 17.3136 67.9
      vertex 103.051 17.3136 67.7
    endloop
  endfacet
  facet normal -0.977954 0.208821 0
    outer loop
      vertex 108.888 16.0729 67.7
      vertex 109.019 16.6864 67.9
      vertex 109.019 16.6864 67.7
    endloop
  endfacet
  facet normal -0.977954 0.208821 0
    outer loop
      vertex 109.019 16.6864 67.9
      vertex 108.888 16.0729 67.7
      vertex 108.888 16.0729 67.9
    endloop
  endfacet
  facet normal 0 0 -1
    outer loop
      vertex 107.652 16.4747 67.9
      vertex 109.019 16.6864 67.9
      vertex 108.888 16.0729 67.9
    endloop
  endfacet
  facet normal 0 0 -1
    outer loop
      vertex 109.019 16.6864 67.9
      vertex 107.735 17 67.9
      vertex 109.019 17.3136 67.9
    endloop
  endfacet
  facet normal 0 0 -1
    outer loop
      vertex 107.652 16.4747 67.9
      vertex 108.888 16.0729 67.9
      vertex 108.633 15.5 67.9
    endloop
  endfacet
  facet normal 0 0 -1
    outer loop
      vertex 107.652 17.5253 67.9
      vertex 109.019 17.3136 67.9
      vertex 107.735 17 67.9
    endloop
  endfacet
  facet normal 0 0 -1
    outer loop
      vertex 107.41 16.0008 67.9
      vertex 108.633 15.5 67.9
      vertex 108.264 14.9926 67.9
    endloop
  endfacet
  facet normal 0 0 -1
    outer loop
      vertex 109.019 17.3136 67.9
      vertex 107.652 17.5253 67.9
      vertex 108.888 17.9271 67.9
    endloop
  endfacet
  facet normal 0 0 -1
    outer loop
      vertex 107.034 15.6247 67.9
      vertex 108.264 14.9926 67.9
      vertex 107.798 14.5729 67.9
    endloop
  endfacet
  facet normal -0 0 -1
    outer loop
      vertex 108.888 17.9271 67.9
      vertex 107.652 17.5253 67.9
      vertex 108.633 18.5 67.9
    endloop
  endfacet
  facet normal 0 0 -1
    outer loop
      vertex 107.41 17.9992 67.9
      vertex 108.633 18.5 67.9
      vertex 107.652 17.5253 67.9
    endloop
  endfacet
  facet normal -0 0 -1
    outer loop
      vertex 109.019 16.6864 67.9
      vertex 107.652 16.4747 67.9
      vertex 107.735 17 67.9
    endloop
  endfacet
  facet normal 0 0 -1
    outer loop
      vertex 108.633 15.5 67.9
      vertex 107.41 16.0008 67.9
      vertex 107.652 16.4747 67.9
    endloop
  endfacet
  facet normal 0 0 -1
    outer loop
      vertex 107.034 15.6247 67.9
      vertex 107.798 14.5729 67.9
      vertex 107.255 14.2594 67.9
    endloop
  endfacet
  facet normal 0 0 -1
    outer loop
      vertex 108.264 14.9926 67.9
      vertex 107.034 15.6247 67.9
      vertex 107.41 16.0008 67.9
    endloop
  endfacet
  facet normal 0 0 -1
    outer loop
      vertex 106.56 15.3832 67.9
      vertex 107.255 14.2594 67.9
      vertex 106.659 14.0656 67.9
    endloop
  endfacet
  facet normal 0 0 -1
    outer loop
      vertex 107.255 14.2594 67.9
      vertex 106.56 15.3832 67.9
      vertex 107.034 15.6247 67.9
    endloop
  endfacet
  facet normal 0 0 -1
    outer loop
      vertex 106.035 15.3 67.9
      vertex 106.659 14.0656 67.9
      vertex 106.035 14 67.9
    endloop
  endfacet
  facet normal 0 0 -1
    outer loop
      vertex 106.659 14.0656 67.9
      vertex 106.035 15.3 67.9
      vertex 106.56 15.3832 67.9
    endloop
  endfacet
  facet normal 0 0 -1
    outer loop
      vertex 105.411 14.0656 67.9
      vertex 106.035 15.3 67.9
      vertex 106.035 14 67.9
    endloop
  endfacet
  facet normal -0 0 -1
    outer loop
      vertex 106.035 15.3 67.9
      vertex 105.411 14.0656 67.9
      vertex 105.51 15.3832 67.9
    endloop
  endfacet
  facet normal 0 0 -1
    outer loop
      vertex 104.815 14.2594 67.9
      vertex 105.51 15.3832 67.9
      vertex 105.411 14.0656 67.9
    endloop
  endfacet
  facet normal -0 0 -1
    outer loop
      vertex 105.51 15.3832 67.9
      vertex 104.815 14.2594 67.9
      vertex 105.036 15.6247 67.9
    endloop
  endfacet
  facet normal 0 0 -1
    outer loop
      vertex 104.272 14.5729 67.9
      vertex 105.036 15.6247 67.9
      vertex 104.815 14.2594 67.9
    endloop
  endfacet
  facet normal 0 0 -1
    outer loop
      vertex 103.806 14.9926 67.9
      vertex 105.036 15.6247 67.9
      vertex 104.272 14.5729 67.9
    endloop
  endfacet
  facet normal 0 0 -1
    outer loop
      vertex 103.437 15.5 67.9
      vertex 104.66 16.0008 67.9
      vertex 103.806 14.9926 67.9
    endloop
  endfacet
  facet normal -0 0 -1
    outer loop
      vertex 105.036 15.6247 67.9
      vertex 103.806 14.9926 67.9
      vertex 104.66 16.0008 67.9
    endloop
  endfacet
  facet normal -0 0 -1
    outer loop
      vertex 108.633 18.5 67.9
      vertex 107.41 17.9992 67.9
      vertex 108.264 19.0074 67.9
    endloop
  endfacet
  facet normal 0 0 -1
    outer loop
      vertex 107.034 18.3753 67.9
      vertex 108.264 19.0074 67.9
      vertex 107.41 17.9992 67.9
    endloop
  endfacet
  facet normal -0 0 -1
    outer loop
      vertex 108.264 19.0074 67.9
      vertex 107.034 18.3753 67.9
      vertex 107.798 19.4271 67.9
    endloop
  endfacet
  facet normal -0 0 -1
    outer loop
      vertex 107.798 19.4271 67.9
      vertex 107.034 18.3753 67.9
      vertex 107.255 19.7406 67.9
    endloop
  endfacet
  facet normal 0 0 -1
    outer loop
      vertex 106.56 18.6168 67.9
      vertex 107.255 19.7406 67.9
      vertex 107.034 18.3753 67.9
    endloop
  endfacet
  facet normal -0 0 -1
    outer loop
      vertex 107.255 19.7406 67.9
      vertex 106.56 18.6168 67.9
      vertex 106.659 19.9344 67.9
    endloop
  endfacet
  facet normal 0 0 -1
    outer loop
      vertex 106.035 18.7 67.9
      vertex 106.659 19.9344 67.9
      vertex 106.56 18.6168 67.9
    endloop
  endfacet
  facet normal 0 0 -1
    outer loop
      vertex 106.035 18.7 67.9
      vertex 106.035 20 67.9
      vertex 106.659 19.9344 67.9
    endloop
  endfacet
  facet normal 0 0 -1
    outer loop
      vertex 105.411 19.9344 67.9
      vertex 106.035 18.7 67.9
      vertex 105.51 18.6168 67.9
    endloop
  endfacet
  facet normal 0 0 -1
    outer loop
      vertex 106.035 18.7 67.9
      vertex 105.411 19.9344 67.9
      vertex 106.035 20 67.9
    endloop
  endfacet
  facet normal 0 0 -1
    outer loop
      vertex 104.815 19.7406 67.9
      vertex 105.51 18.6168 67.9
      vertex 105.036 18.3753 67.9
    endloop
  endfacet
  facet normal 0 0 -1
    outer loop
      vertex 105.51 18.6168 67.9
      vertex 104.815 19.7406 67.9
      vertex 105.411 19.9344 67.9
    endloop
  endfacet
  facet normal 0 0 -1
    outer loop
      vertex 103.806 19.0074 67.9
      vertex 105.036 18.3753 67.9
      vertex 104.66 17.9992 67.9
    endloop
  endfacet
  facet normal 0 0 -1
    outer loop
      vertex 103.437 18.5 67.9
      vertex 104.66 17.9992 67.9
      vertex 104.418 17.5253 67.9
    endloop
  endfacet
  facet normal 0 0 -1
    outer loop
      vertex 105.036 18.3753 67.9
      vertex 104.272 19.4271 67.9
      vertex 104.815 19.7406 67.9
    endloop
  endfacet
  facet normal 0 0 -1
    outer loop
      vertex 103.051 17.3136 67.9
      vertex 104.418 17.5253 67.9
      vertex 104.335 17 67.9
    endloop
  endfacet
  facet normal -0 0 -1
    outer loop
      vertex 104.66 16.0008 67.9
      vertex 103.437 15.5 67.9
      vertex 104.418 16.4747 67.9
    endloop
  endfacet
  facet normal 0 0 -1
    outer loop
      vertex 103.182 16.0729 67.9
      vertex 104.418 16.4747 67.9
      vertex 103.437 15.5 67.9
    endloop
  endfacet
  facet normal 0 0 -1
    outer loop
      vertex 105.036 18.3753 67.9
      vertex 103.806 19.0074 67.9
      vertex 104.272 19.4271 67.9
    endloop
  endfacet
  facet normal 0 0 -1
    outer loop
      vertex 103.051 16.6864 67.9
      vertex 104.418 16.4747 67.9
      vertex 103.182 16.0729 67.9
    endloop
  endfacet
  facet normal 0 0 -1
    outer loop
      vertex 104.66 17.9992 67.9
      vertex 103.437 18.5 67.9
      vertex 103.806 19.0074 67.9
    endloop
  endfacet
  facet normal 0 0 -1
    outer loop
      vertex 104.418 16.4747 67.9
      vertex 103.051 16.6864 67.9
      vertex 104.335 17 67.9
    endloop
  endfacet
  facet normal 0 0 -1
    outer loop
      vertex 104.418 17.5253 67.9
      vertex 103.182 17.9271 67.9
      vertex 103.437 18.5 67.9
    endloop
  endfacet
  facet normal 0 0 -1
    outer loop
      vertex 103.051 17.3136 67.9
      vertex 104.335 17 67.9
      vertex 103.051 16.6864 67.9
    endloop
  endfacet
  facet normal -0 0 -1
    outer loop
      vertex 104.418 17.5253 67.9
      vertex 103.051 17.3136 67.9
      vertex 103.182 17.9271 67.9
    endloop
  endfacet
  facet normal 0.80875 0.588153 0
    outer loop
      vertex 103.806 14.9926 67.9
      vertex 103.437 15.5 67.7
      vertex 103.437 15.5 67.9
    endloop
  endfacet
  facet normal 0.80875 0.588153 0
    outer loop
      vertex 103.437 15.5 67.7
      vertex 103.806 14.9926 67.9
      vertex 103.806 14.9926 67.7
    endloop
  endfacet
  facet normal 0.454044 -0.890979 0
    outer loop
      vertex 93.0358 18.3753 67.9
      vertex 93.5097 18.6168 69.46
      vertex 93.0358 18.3753 69.46
    endloop
  endfacet
  facet normal 0.454044 -0.890979 0
    outer loop
      vertex 93.5097 18.6168 69.46
      vertex 93.0358 18.3753 67.9
      vertex 93.5097 18.6168 67.9
    endloop
  endfacet
  facet normal 0.156436 -0.987688 0
    outer loop
      vertex 93.5097 18.6168 67.9
      vertex 94.035 18.7 69.46
      vertex 93.5097 18.6168 69.46
    endloop
  endfacet
  facet normal 0.156436 -0.987688 0
    outer loop
      vertex 94.035 18.7 69.46
      vertex 93.5097 18.6168 67.9
      vertex 94.035 18.7 67.9
    endloop
  endfacet
  facet normal 0.707107 -0.707107 0
    outer loop
      vertex 92.6597 17.9992 69.46
      vertex 93.0358 18.3753 67.9
      vertex 93.0358 18.3753 69.46
    endloop
  endfacet
  facet normal 0.707107 -0.707107 0
    outer loop
      vertex 93.0358 18.3753 67.9
      vertex 92.6597 17.9992 69.46
      vertex 92.6597 17.9992 67.9
    endloop
  endfacet
  facet normal -0.987688 -0.156436 0
    outer loop
      vertex 95.735 17 67.9
      vertex 95.6518 17.5253 69.46
      vertex 95.6518 17.5253 67.9
    endloop
  endfacet
  facet normal -0.987688 -0.156436 0
    outer loop
      vertex 95.6518 17.5253 69.46
      vertex 95.735 17 67.9
      vertex 95.735 17 69.46
    endloop
  endfacet
  facet normal 0.890979 0.454044 0
    outer loop
      vertex 92.6597 16.0008 69.46
      vertex 92.4182 16.4747 67.9
      vertex 92.4182 16.4747 69.46
    endloop
  endfacet
  facet normal 0.890979 0.454044 0
    outer loop
      vertex 92.4182 16.4747 67.9
      vertex 92.6597 16.0008 69.46
      vertex 92.6597 16.0008 67.9
    endloop
  endfacet
  facet normal -0.890979 -0.454044 0
    outer loop
      vertex 95.6518 17.5253 67.9
      vertex 95.4103 17.9992 69.46
      vertex 95.4103 17.9992 67.9
    endloop
  endfacet
  facet normal -0.890979 -0.454044 0
    outer loop
      vertex 95.4103 17.9992 69.46
      vertex 95.6518 17.5253 67.9
      vertex 95.6518 17.5253 69.46
    endloop
  endfacet
  facet normal -0.707107 -0.707107 0
    outer loop
      vertex 95.0342 18.3753 67.9
      vertex 95.4103 17.9992 69.46
      vertex 95.0342 18.3753 69.46
    endloop
  endfacet
  facet normal -0.707107 -0.707107 -0
    outer loop
      vertex 95.4103 17.9992 69.46
      vertex 95.0342 18.3753 67.9
      vertex 95.4103 17.9992 67.9
    endloop
  endfacet
  facet normal -0.987688 0.156436 0
    outer loop
      vertex 95.6518 16.4747 67.9
      vertex 95.735 17 69.46
      vertex 95.735 17 67.9
    endloop
  endfacet
  facet normal -0.987688 0.156436 0
    outer loop
      vertex 95.735 17 69.46
      vertex 95.6518 16.4747 67.9
      vertex 95.6518 16.4747 69.46
    endloop
  endfacet
  facet normal 0.454044 0.890979 -0
    outer loop
      vertex 93.5097 15.3832 67.9
      vertex 93.0358 15.6247 69.46
      vertex 93.5097 15.3832 69.46
    endloop
  endfacet
  facet normal 0.454044 0.890979 0
    outer loop
      vertex 93.0358 15.6247 69.46
      vertex 93.5097 15.3832 67.9
      vertex 93.0358 15.6247 67.9
    endloop
  endfacet
  facet normal -0.156436 -0.987688 0
    outer loop
      vertex 94.035 18.7 67.9
      vertex 94.5603 18.6168 69.46
      vertex 94.035 18.7 69.46
    endloop
  endfacet
  facet normal -0.156436 -0.987688 -0
    outer loop
      vertex 94.5603 18.6168 69.46
      vertex 94.035 18.7 67.9
      vertex 94.5603 18.6168 67.9
    endloop
  endfacet
  facet normal 0.156436 0.987688 -0
    outer loop
      vertex 94.035 15.3 67.9
      vertex 93.5097 15.3832 69.46
      vertex 94.035 15.3 69.46
    endloop
  endfacet
  facet normal 0.156436 0.987688 0
    outer loop
      vertex 93.5097 15.3832 69.46
      vertex 94.035 15.3 67.9
      vertex 93.5097 15.3832 67.9
    endloop
  endfacet
  facet normal -0.454044 -0.890979 0
    outer loop
      vertex 94.5603 18.6168 67.9
      vertex 95.0342 18.3753 69.46
      vertex 94.5603 18.6168 69.46
    endloop
  endfacet
  facet normal -0.454044 -0.890979 -0
    outer loop
      vertex 95.0342 18.3753 69.46
      vertex 94.5603 18.6168 67.9
      vertex 95.0342 18.3753 67.9
    endloop
  endfacet
  facet normal 0.987688 -0.156436 0
    outer loop
      vertex 92.335 17 69.46
      vertex 92.4182 17.5253 67.9
      vertex 92.4182 17.5253 69.46
    endloop
  endfacet
  facet normal 0.987688 -0.156436 0
    outer loop
      vertex 92.4182 17.5253 67.9
      vertex 92.335 17 69.46
      vertex 92.335 17 67.9
    endloop
  endfacet
  facet normal 0.890979 -0.454044 0
    outer loop
      vertex 92.4182 17.5253 69.46
      vertex 92.6597 17.9992 67.9
      vertex 92.6597 17.9992 69.46
    endloop
  endfacet
  facet normal 0.890979 -0.454044 0
    outer loop
      vertex 92.6597 17.9992 67.9
      vertex 92.4182 17.5253 69.46
      vertex 92.4182 17.5253 67.9
    endloop
  endfacet
  facet normal -0.454044 0.890979 0
    outer loop
      vertex 95.0342 15.6247 67.9
      vertex 94.5603 15.3832 69.46
      vertex 95.0342 15.6247 69.46
    endloop
  endfacet
  facet normal -0.454044 0.890979 0
    outer loop
      vertex 94.5603 15.3832 69.46
      vertex 95.0342 15.6247 67.9
      vertex 94.5603 15.3832 67.9
    endloop
  endfacet
  facet normal 0.987688 0.156436 0
    outer loop
      vertex 92.4182 16.4747 69.46
      vertex 92.335 17 67.9
      vertex 92.335 17 69.46
    endloop
  endfacet
  facet normal 0.987688 0.156436 0
    outer loop
      vertex 92.335 17 67.9
      vertex 92.4182 16.4747 69.46
      vertex 92.4182 16.4747 67.9
    endloop
  endfacet
  facet normal -0.707107 0.707107 0
    outer loop
      vertex 95.4103 16.0008 67.9
      vertex 95.0342 15.6247 69.46
      vertex 95.4103 16.0008 69.46
    endloop
  endfacet
  facet normal -0.707107 0.707107 0
    outer loop
      vertex 95.0342 15.6247 69.46
      vertex 95.4103 16.0008 67.9
      vertex 95.0342 15.6247 67.9
    endloop
  endfacet
  facet normal 0.707107 0.707107 0
    outer loop
      vertex 93.0358 15.6247 69.46
      vertex 92.6597 16.0008 67.9
      vertex 92.6597 16.0008 69.46
    endloop
  endfacet
  facet normal 0.707107 0.707107 0
    outer loop
      vertex 92.6597 16.0008 67.9
      vertex 93.0358 15.6247 69.46
      vertex 93.0358 15.6247 67.9
    endloop
  endfacet
  facet normal -0.156436 0.987688 0
    outer loop
      vertex 94.5603 15.3832 67.9
      vertex 94.035 15.3 69.46
      vertex 94.5603 15.3832 69.46
    endloop
  endfacet
  facet normal -0.156436 0.987688 0
    outer loop
      vertex 94.035 15.3 69.46
      vertex 94.5603 15.3832 67.9
      vertex 94.035 15.3 67.9
    endloop
  endfacet
  facet normal -0.890979 0.454044 0
    outer loop
      vertex 95.4103 16.0008 67.9
      vertex 95.6518 16.4747 69.46
      vertex 95.6518 16.4747 67.9
    endloop
  endfacet
  facet normal -0.890979 0.454044 0
    outer loop
      vertex 95.6518 16.4747 69.46
      vertex 95.4103 16.0008 67.9
      vertex 95.4103 16.0008 69.46
    endloop
  endfacet
  facet normal 0.49986 0.866106 -0
    outer loop
      vertex 92.8148 14.2594 67.7
      vertex 92.2716 14.5729 67.9
      vertex 92.8148 14.2594 67.9
    endloop
  endfacet
  facet normal 0.49986 0.866106 0
    outer loop
      vertex 92.2716 14.5729 67.9
      vertex 92.8148 14.2594 67.7
      vertex 92.2716 14.5729 67.7
    endloop
  endfacet
  facet normal 0.669229 -0.743056 0
    outer loop
      vertex 91.8056 19.0074 67.7
      vertex 92.2716 19.4271 67.9
      vertex 91.8056 19.0074 67.9
    endloop
  endfacet
  facet normal 0.669229 -0.743056 0
    outer loop
      vertex 92.2716 19.4271 67.9
      vertex 91.8056 19.0074 67.7
      vertex 92.2716 19.4271 67.7
    endloop
  endfacet
  facet normal -0.913529 -0.406775 0
    outer loop
      vertex 96.8882 17.9271 67.7
      vertex 96.6331 18.5 67.9
      vertex 96.6331 18.5 67.7
    endloop
  endfacet
  facet normal -0.913529 -0.406775 0
    outer loop
      vertex 96.6331 18.5 67.9
      vertex 96.8882 17.9271 67.7
      vertex 96.8882 17.9271 67.9
    endloop
  endfacet
  facet normal 1 -0 0
    outer loop
      vertex 91.0514 16.6864 67.9
      vertex 91.0514 17.3136 67.7
      vertex 91.0514 17.3136 67.9
    endloop
  endfacet
  facet normal 1 0 0
    outer loop
      vertex 91.0514 17.3136 67.7
      vertex 91.0514 16.6864 67.9
      vertex 91.0514 16.6864 67.7
    endloop
  endfacet
  facet normal 0.808977 0.58784 0
    outer loop
      vertex 91.8056 14.9926 67.9
      vertex 91.4369 15.5 67.7
      vertex 91.4369 15.5 67.9
    endloop
  endfacet
  facet normal 0.808977 0.58784 0
    outer loop
      vertex 91.4369 15.5 67.7
      vertex 91.8056 14.9926 67.9
      vertex 91.8056 14.9926 67.7
    endloop
  endfacet
  facet normal 0.669229 0.743056 -0
    outer loop
      vertex 92.2716 14.5729 67.7
      vertex 91.8056 14.9926 67.9
      vertex 92.2716 14.5729 67.9
    endloop
  endfacet
  facet normal 0.669229 0.743056 0
    outer loop
      vertex 91.8056 14.9926 67.9
      vertex 92.2716 14.5729 67.7
      vertex 91.8056 14.9926 67.7
    endloop
  endfacet
  facet normal 0.308996 0.951063 -0
    outer loop
      vertex 93.4113 14.0656 67.7
      vertex 92.8148 14.2594 67.9
      vertex 93.4113 14.0656 67.9
    endloop
  endfacet
  facet normal 0.308996 0.951063 0
    outer loop
      vertex 92.8148 14.2594 67.9
      vertex 93.4113 14.0656 67.7
      vertex 92.8148 14.2594 67.7
    endloop
  endfacet
  facet normal -0.49986 0.866106 0
    outer loop
      vertex 95.7984 14.5729 67.7
      vertex 95.2552 14.2594 67.9
      vertex 95.7984 14.5729 67.9
    endloop
  endfacet
  facet normal -0.49986 0.866106 0
    outer loop
      vertex 95.2552 14.2594 67.9
      vertex 95.7984 14.5729 67.7
      vertex 95.2552 14.2594 67.7
    endloop
  endfacet
  facet normal -0.978149 -0.207906 0
    outer loop
      vertex 97.0186 17.3136 67.7
      vertex 96.8882 17.9271 67.9
      vertex 96.8882 17.9271 67.7
    endloop
  endfacet
  facet normal -0.978149 -0.207906 0
    outer loop
      vertex 96.8882 17.9271 67.9
      vertex 97.0186 17.3136 67.7
      vertex 97.0186 17.3136 67.9
    endloop
  endfacet
  facet normal -0.308996 -0.951063 0
    outer loop
      vertex 94.6587 19.9344 67.7
      vertex 95.2552 19.7406 67.9
      vertex 94.6587 19.9344 67.9
    endloop
  endfacet
  facet normal -0.308996 -0.951063 -0
    outer loop
      vertex 95.2552 19.7406 67.9
      vertex 94.6587 19.9344 67.7
      vertex 95.2552 19.7406 67.7
    endloop
  endfacet
  facet normal -0.308996 0.951063 0
    outer loop
      vertex 95.2552 14.2594 67.7
      vertex 94.6587 14.0656 67.9
      vertex 95.2552 14.2594 67.9
    endloop
  endfacet
  facet normal -0.308996 0.951063 0
    outer loop
      vertex 94.6587 14.0656 67.9
      vertex 95.2552 14.2594 67.7
      vertex 94.6587 14.0656 67.7
    endloop
  endfacet
  facet normal -1 0 0
    outer loop
      vertex 97.0186 16.6864 67.7
      vertex 97.0186 17.3136 67.9
      vertex 97.0186 17.3136 67.7
    endloop
  endfacet
  facet normal -1 -0 0
    outer loop
      vertex 97.0186 17.3136 67.9
      vertex 97.0186 16.6864 67.7
      vertex 97.0186 16.6864 67.9
    endloop
  endfacet
  facet normal 0.913529 0.406775 0
    outer loop
      vertex 91.4369 15.5 67.9
      vertex 91.1818 16.0729 67.7
      vertex 91.1818 16.0729 67.9
    endloop
  endfacet
  facet normal 0.913529 0.406775 0
    outer loop
      vertex 91.1818 16.0729 67.7
      vertex 91.4369 15.5 67.9
      vertex 91.4369 15.5 67.7
    endloop
  endfacet
  facet normal 0.913529 -0.406775 0
    outer loop
      vertex 91.1818 17.9271 67.9
      vertex 91.4369 18.5 67.7
      vertex 91.4369 18.5 67.9
    endloop
  endfacet
  facet normal 0.913529 -0.406775 0
    outer loop
      vertex 91.4369 18.5 67.7
      vertex 91.1818 17.9271 67.9
      vertex 91.1818 17.9271 67.7
    endloop
  endfacet
  facet normal -0.669229 0.743056 0
    outer loop
      vertex 96.2644 14.9926 67.7
      vertex 95.7984 14.5729 67.9
      vertex 96.2644 14.9926 67.9
    endloop
  endfacet
  facet normal -0.669229 0.743056 0
    outer loop
      vertex 95.7984 14.5729 67.9
      vertex 96.2644 14.9926 67.7
      vertex 95.7984 14.5729 67.7
    endloop
  endfacet
  facet normal 0.104602 0.994514 -0
    outer loop
      vertex 94.035 14 67.7
      vertex 93.4113 14.0656 67.9
      vertex 94.035 14 67.9
    endloop
  endfacet
  facet normal 0.104602 0.994514 0
    outer loop
      vertex 93.4113 14.0656 67.9
      vertex 94.035 14 67.7
      vertex 93.4113 14.0656 67.7
    endloop
  endfacet
  facet normal -0.913529 0.406775 0
    outer loop
      vertex 96.6331 15.5 67.7
      vertex 96.8882 16.0729 67.9
      vertex 96.8882 16.0729 67.7
    endloop
  endfacet
  facet normal -0.913529 0.406775 0
    outer loop
      vertex 96.8882 16.0729 67.9
      vertex 96.6331 15.5 67.7
      vertex 96.6331 15.5 67.9
    endloop
  endfacet
  facet normal 0.49986 -0.866106 0
    outer loop
      vertex 92.2716 19.4271 67.7
      vertex 92.8148 19.7406 67.9
      vertex 92.2716 19.4271 67.9
    endloop
  endfacet
  facet normal 0.49986 -0.866106 0
    outer loop
      vertex 92.8148 19.7406 67.9
      vertex 92.2716 19.4271 67.7
      vertex 92.8148 19.7406 67.7
    endloop
  endfacet
  facet normal 0.104602 -0.994514 0
    outer loop
      vertex 93.4113 19.9344 67.7
      vertex 94.035 20 67.9
      vertex 93.4113 19.9344 67.9
    endloop
  endfacet
  facet normal 0.104602 -0.994514 0
    outer loop
      vertex 94.035 20 67.9
      vertex 93.4113 19.9344 67.7
      vertex 94.035 20 67.7
    endloop
  endfacet
  facet normal -0.104602 0.994514 0
    outer loop
      vertex 94.6587 14.0656 67.7
      vertex 94.035 14 67.9
      vertex 94.6587 14.0656 67.9
    endloop
  endfacet
  facet normal -0.104602 0.994514 0
    outer loop
      vertex 94.035 14 67.9
      vertex 94.6587 14.0656 67.7
      vertex 94.035 14 67.7
    endloop
  endfacet
  facet normal -0.49986 -0.866106 0
    outer loop
      vertex 95.2552 19.7406 67.7
      vertex 95.7984 19.4271 67.9
      vertex 95.2552 19.7406 67.9
    endloop
  endfacet
  facet normal -0.49986 -0.866106 -0
    outer loop
      vertex 95.7984 19.4271 67.9
      vertex 95.2552 19.7406 67.7
      vertex 95.7984 19.4271 67.7
    endloop
  endfacet
  facet normal -0.808977 0.58784 0
    outer loop
      vertex 96.2644 14.9926 67.7
      vertex 96.6331 15.5 67.9
      vertex 96.6331 15.5 67.7
    endloop
  endfacet
  facet normal -0.808977 0.58784 0
    outer loop
      vertex 96.6331 15.5 67.9
      vertex 96.2644 14.9926 67.7
      vertex 96.2644 14.9926 67.9
    endloop
  endfacet
  facet normal 0.808977 -0.58784 0
    outer loop
      vertex 91.4369 18.5 67.9
      vertex 91.8056 19.0074 67.7
      vertex 91.8056 19.0074 67.9
    endloop
  endfacet
  facet normal 0.808977 -0.58784 0
    outer loop
      vertex 91.8056 19.0074 67.7
      vertex 91.4369 18.5 67.9
      vertex 91.4369 18.5 67.7
    endloop
  endfacet
  facet normal -0.669229 -0.743056 0
    outer loop
      vertex 95.7984 19.4271 67.7
      vertex 96.2644 19.0074 67.9
      vertex 95.7984 19.4271 67.9
    endloop
  endfacet
  facet normal -0.669229 -0.743056 -0
    outer loop
      vertex 96.2644 19.0074 67.9
      vertex 95.7984 19.4271 67.7
      vertex 96.2644 19.0074 67.7
    endloop
  endfacet
  facet normal -0.104602 -0.994514 0
    outer loop
      vertex 94.035 20 67.7
      vertex 94.6587 19.9344 67.9
      vertex 94.035 20 67.9
    endloop
  endfacet
  facet normal -0.104602 -0.994514 -0
    outer loop
      vertex 94.6587 19.9344 67.9
      vertex 94.035 20 67.7
      vertex 94.6587 19.9344 67.7
    endloop
  endfacet
  facet normal 0.978149 0.207906 0
    outer loop
      vertex 91.1818 16.0729 67.9
      vertex 91.0514 16.6864 67.7
      vertex 91.0514 16.6864 67.9
    endloop
  endfacet
  facet normal 0.978149 0.207906 0
    outer loop
      vertex 91.0514 16.6864 67.7
      vertex 91.1818 16.0729 67.9
      vertex 91.1818 16.0729 67.7
    endloop
  endfacet
  facet normal 0.308996 -0.951063 0
    outer loop
      vertex 92.8148 19.7406 67.7
      vertex 93.4113 19.9344 67.9
      vertex 92.8148 19.7406 67.9
    endloop
  endfacet
  facet normal 0.308996 -0.951063 0
    outer loop
      vertex 93.4113 19.9344 67.9
      vertex 92.8148 19.7406 67.7
      vertex 93.4113 19.9344 67.7
    endloop
  endfacet
  facet normal -0.978149 0.207906 0
    outer loop
      vertex 96.8882 16.0729 67.7
      vertex 97.0186 16.6864 67.9
      vertex 97.0186 16.6864 67.7
    endloop
  endfacet
  facet normal -0.978149 0.207906 0
    outer loop
      vertex 97.0186 16.6864 67.9
      vertex 96.8882 16.0729 67.7
      vertex 96.8882 16.0729 67.9
    endloop
  endfacet
  facet normal 0.978149 -0.207906 0
    outer loop
      vertex 91.0514 17.3136 67.9
      vertex 91.1818 17.9271 67.7
      vertex 91.1818 17.9271 67.9
    endloop
  endfacet
  facet normal 0.978149 -0.207906 0
    outer loop
      vertex 91.1818 17.9271 67.7
      vertex 91.0514 17.3136 67.9
      vertex 91.0514 17.3136 67.7
    endloop
  endfacet
  facet normal 0 0 -1
    outer loop
      vertex 95.6518 16.4747 67.9
      vertex 97.0186 16.6864 67.9
      vertex 96.8882 16.0729 67.9
    endloop
  endfacet
  facet normal 0 0 -1
    outer loop
      vertex 97.0186 16.6864 67.9
      vertex 95.735 17 67.9
      vertex 97.0186 17.3136 67.9
    endloop
  endfacet
  facet normal 0 0 -1
    outer loop
      vertex 95.6518 16.4747 67.9
      vertex 96.8882 16.0729 67.9
      vertex 96.6331 15.5 67.9
    endloop
  endfacet
  facet normal 0 0 -1
    outer loop
      vertex 95.6518 17.5253 67.9
      vertex 97.0186 17.3136 67.9
      vertex 95.735 17 67.9
    endloop
  endfacet
  facet normal 0 0 -1
    outer loop
      vertex 95.4103 16.0008 67.9
      vertex 96.6331 15.5 67.9
      vertex 96.2644 14.9926 67.9
    endloop
  endfacet
  facet normal 0 0 -1
    outer loop
      vertex 97.0186 17.3136 67.9
      vertex 95.6518 17.5253 67.9
      vertex 96.8882 17.9271 67.9
    endloop
  endfacet
  facet normal 0 0 -1
    outer loop
      vertex 95.0342 15.6247 67.9
      vertex 96.2644 14.9926 67.9
      vertex 95.7984 14.5729 67.9
    endloop
  endfacet
  facet normal -0 0 -1
    outer loop
      vertex 96.8882 17.9271 67.9
      vertex 95.6518 17.5253 67.9
      vertex 96.6331 18.5 67.9
    endloop
  endfacet
  facet normal 0 0 -1
    outer loop
      vertex 95.4103 17.9992 67.9
      vertex 96.6331 18.5 67.9
      vertex 95.6518 17.5253 67.9
    endloop
  endfacet
  facet normal -0 0 -1
    outer loop
      vertex 97.0186 16.6864 67.9
      vertex 95.6518 16.4747 67.9
      vertex 95.735 17 67.9
    endloop
  endfacet
  facet normal 0 0 -1
    outer loop
      vertex 96.6331 15.5 67.9
      vertex 95.4103 16.0008 67.9
      vertex 95.6518 16.4747 67.9
    endloop
  endfacet
  facet normal 0 0 -1
    outer loop
      vertex 95.0342 15.6247 67.9
      vertex 95.7984 14.5729 67.9
      vertex 95.2552 14.2594 67.9
    endloop
  endfacet
  facet normal 0 0 -1
    outer loop
      vertex 96.2644 14.9926 67.9
      vertex 95.0342 15.6247 67.9
      vertex 95.4103 16.0008 67.9
    endloop
  endfacet
  facet normal 0 0 -1
    outer loop
      vertex 94.5603 15.3832 67.9
      vertex 95.2552 14.2594 67.9
      vertex 94.6587 14.0656 67.9
    endloop
  endfacet
  facet normal 0 0 -1
    outer loop
      vertex 95.2552 14.2594 67.9
      vertex 94.5603 15.3832 67.9
      vertex 95.0342 15.6247 67.9
    endloop
  endfacet
  facet normal 0 0 -1
    outer loop
      vertex 94.035 15.3 67.9
      vertex 94.6587 14.0656 67.9
      vertex 94.035 14 67.9
    endloop
  endfacet
  facet normal 0 0 -1
    outer loop
      vertex 94.6587 14.0656 67.9
      vertex 94.035 15.3 67.9
      vertex 94.5603 15.3832 67.9
    endloop
  endfacet
  facet normal 0 0 -1
    outer loop
      vertex 93.4113 14.0656 67.9
      vertex 94.035 15.3 67.9
      vertex 94.035 14 67.9
    endloop
  endfacet
  facet normal -0 0 -1
    outer loop
      vertex 94.035 15.3 67.9
      vertex 93.4113 14.0656 67.9
      vertex 93.5097 15.3832 67.9
    endloop
  endfacet
  facet normal 0 0 -1
    outer loop
      vertex 92.8148 14.2594 67.9
      vertex 93.5097 15.3832 67.9
      vertex 93.4113 14.0656 67.9
    endloop
  endfacet
  facet normal -0 0 -1
    outer loop
      vertex 93.5097 15.3832 67.9
      vertex 92.8148 14.2594 67.9
      vertex 93.0358 15.6247 67.9
    endloop
  endfacet
  facet normal 0 0 -1
    outer loop
      vertex 92.2716 14.5729 67.9
      vertex 93.0358 15.6247 67.9
      vertex 92.8148 14.2594 67.9
    endloop
  endfacet
  facet normal 0 0 -1
    outer loop
      vertex 91.8056 14.9926 67.9
      vertex 93.0358 15.6247 67.9
      vertex 92.2716 14.5729 67.9
    endloop
  endfacet
  facet normal 0 0 -1
    outer loop
      vertex 91.4369 15.5 67.9
      vertex 92.6597 16.0008 67.9
      vertex 91.8056 14.9926 67.9
    endloop
  endfacet
  facet normal -0 0 -1
    outer loop
      vertex 93.0358 15.6247 67.9
      vertex 91.8056 14.9926 67.9
      vertex 92.6597 16.0008 67.9
    endloop
  endfacet
  facet normal -0 0 -1
    outer loop
      vertex 96.6331 18.5 67.9
      vertex 95.4103 17.9992 67.9
      vertex 96.2644 19.0074 67.9
    endloop
  endfacet
  facet normal 0 0 -1
    outer loop
      vertex 95.0342 18.3753 67.9
      vertex 96.2644 19.0074 67.9
      vertex 95.4103 17.9992 67.9
    endloop
  endfacet
  facet normal -0 0 -1
    outer loop
      vertex 96.2644 19.0074 67.9
      vertex 95.0342 18.3753 67.9
      vertex 95.7984 19.4271 67.9
    endloop
  endfacet
  facet normal -0 0 -1
    outer loop
      vertex 95.7984 19.4271 67.9
      vertex 95.0342 18.3753 67.9
      vertex 95.2552 19.7406 67.9
    endloop
  endfacet
  facet normal 0 0 -1
    outer loop
      vertex 94.5603 18.6168 67.9
      vertex 95.2552 19.7406 67.9
      vertex 95.0342 18.3753 67.9
    endloop
  endfacet
  facet normal -0 0 -1
    outer loop
      vertex 95.2552 19.7406 67.9
      vertex 94.5603 18.6168 67.9
      vertex 94.6587 19.9344 67.9
    endloop
  endfacet
  facet normal 0 0 -1
    outer loop
      vertex 94.035 18.7 67.9
      vertex 94.6587 19.9344 67.9
      vertex 94.5603 18.6168 67.9
    endloop
  endfacet
  facet normal 0 0 -1
    outer loop
      vertex 94.035 18.7 67.9
      vertex 94.035 20 67.9
      vertex 94.6587 19.9344 67.9
    endloop
  endfacet
  facet normal 0 0 -1
    outer loop
      vertex 93.4113 19.9344 67.9
      vertex 94.035 18.7 67.9
      vertex 93.5097 18.6168 67.9
    endloop
  endfacet
  facet normal 0 0 -1
    outer loop
      vertex 94.035 18.7 67.9
      vertex 93.4113 19.9344 67.9
      vertex 94.035 20 67.9
    endloop
  endfacet
  facet normal 0 0 -1
    outer loop
      vertex 92.8148 19.7406 67.9
      vertex 93.5097 18.6168 67.9
      vertex 93.0358 18.3753 67.9
    endloop
  endfacet
  facet normal 0 0 -1
    outer loop
      vertex 93.5097 18.6168 67.9
      vertex 92.8148 19.7406 67.9
      vertex 93.4113 19.9344 67.9
    endloop
  endfacet
  facet normal 0 0 -1
    outer loop
      vertex 91.8056 19.0074 67.9
      vertex 93.0358 18.3753 67.9
      vertex 92.6597 17.9992 67.9
    endloop
  endfacet
  facet normal 0 0 -1
    outer loop
      vertex 91.4369 18.5 67.9
      vertex 92.6597 17.9992 67.9
      vertex 92.4182 17.5253 67.9
    endloop
  endfacet
  facet normal 0 0 -1
    outer loop
      vertex 93.0358 18.3753 67.9
      vertex 92.2716 19.4271 67.9
      vertex 92.8148 19.7406 67.9
    endloop
  endfacet
  facet normal 0 0 -1
    outer loop
      vertex 91.0514 17.3136 67.9
      vertex 92.4182 17.5253 67.9
      vertex 92.335 17 67.9
    endloop
  endfacet
  facet normal -0 0 -1
    outer loop
      vertex 92.6597 16.0008 67.9
      vertex 91.4369 15.5 67.9
      vertex 92.4182 16.4747 67.9
    endloop
  endfacet
  facet normal 0 0 -1
    outer loop
      vertex 91.1818 16.0729 67.9
      vertex 92.4182 16.4747 67.9
      vertex 91.4369 15.5 67.9
    endloop
  endfacet
  facet normal 0 0 -1
    outer loop
      vertex 93.0358 18.3753 67.9
      vertex 91.8056 19.0074 67.9
      vertex 92.2716 19.4271 67.9
    endloop
  endfacet
  facet normal 0 0 -1
    outer loop
      vertex 91.0514 16.6864 67.9
      vertex 92.4182 16.4747 67.9
      vertex 91.1818 16.0729 67.9
    endloop
  endfacet
  facet normal 0 0 -1
    outer loop
      vertex 92.6597 17.9992 67.9
      vertex 91.4369 18.5 67.9
      vertex 91.8056 19.0074 67.9
    endloop
  endfacet
  facet normal 0 0 -1
    outer loop
      vertex 92.4182 16.4747 67.9
      vertex 91.0514 16.6864 67.9
      vertex 92.335 17 67.9
    endloop
  endfacet
  facet normal 0 0 -1
    outer loop
      vertex 92.4182 17.5253 67.9
      vertex 91.1818 17.9271 67.9
      vertex 91.4369 18.5 67.9
    endloop
  endfacet
  facet normal 0 0 -1
    outer loop
      vertex 91.0514 17.3136 67.9
      vertex 92.335 17 67.9
      vertex 91.0514 16.6864 67.9
    endloop
  endfacet
  facet normal -0 0 -1
    outer loop
      vertex 92.4182 17.5253 67.9
      vertex 91.0514 17.3136 67.9
      vertex 91.1818 17.9271 67.9
    endloop
  endfacet
  facet normal -0.808977 -0.58784 0
    outer loop
      vertex 96.6331 18.5 67.7
      vertex 96.2644 19.0074 67.9
      vertex 96.2644 19.0074 67.7
    endloop
  endfacet
  facet normal -0.808977 -0.58784 0
    outer loop
      vertex 96.2644 19.0074 67.9
      vertex 96.6331 18.5 67.7
      vertex 96.6331 18.5 67.9
    endloop
  endfacet
  facet normal -1 0 0
    outer loop
      vertex 90 10 67.7
      vertex 90 21.86 69.46
      vertex 90 21.86 67.7
    endloop
  endfacet
  facet normal -1 -0 0
    outer loop
      vertex 90 21.86 69.46
      vertex 90 10 67.7
      vertex 90 10 69.46
    endloop
  endfacet
  facet normal -1 0 0
    outer loop
      vertex 90 26.52 67.7
      vertex 90 27.8 69.46
      vertex 90 27.8 67.7
    endloop
  endfacet
  facet normal -1 -0 0
    outer loop
      vertex 90 27.8 69.46
      vertex 90 26.52 67.7
      vertex 90 26.52 69.46
    endloop
  endfacet
  facet normal 0 0 1
    outer loop
      vertex 104.335 17 69.46
      vertex 95.6518 17.5253 69.46
      vertex 95.735 17 69.46
    endloop
  endfacet
  facet normal 0 0 1
    outer loop
      vertex 96.2532 21.86 69.46
      vertex 95.4103 17.9992 69.46
      vertex 95.6518 17.5253 69.46
    endloop
  endfacet
  facet normal 0 0 1
    outer loop
      vertex 96.2532 21.86 69.46
      vertex 95.0342 18.3753 69.46
      vertex 95.4103 17.9992 69.46
    endloop
  endfacet
  facet normal 0 0 1
    outer loop
      vertex 96.2532 21.86 69.46
      vertex 94.5603 18.6168 69.46
      vertex 95.0342 18.3753 69.46
    endloop
  endfacet
  facet normal 0 0 1
    outer loop
      vertex 96.2532 21.86 69.46
      vertex 94.035 18.7 69.46
      vertex 94.5603 18.6168 69.46
    endloop
  endfacet
  facet normal 0 0 1
    outer loop
      vertex 96.2532 21.86 69.46
      vertex 93.5097 18.6168 69.46
      vertex 94.035 18.7 69.46
    endloop
  endfacet
  facet normal -0 0 1
    outer loop
      vertex 90 21.86 69.46
      vertex 93.5097 18.6168 69.46
      vertex 96.2532 21.86 69.46
    endloop
  endfacet
  facet normal 0 0 1
    outer loop
      vertex 93.5097 18.6168 69.46
      vertex 90 21.86 69.46
      vertex 93.0358 18.3753 69.46
    endloop
  endfacet
  facet normal 0 0 1
    outer loop
      vertex 92.4182 17.5253 69.46
      vertex 90 21.86 69.46
      vertex 92.335 17 69.46
    endloop
  endfacet
  facet normal 0 0 1
    outer loop
      vertex 92.6597 17.9992 69.46
      vertex 90 21.86 69.46
      vertex 92.4182 17.5253 69.46
    endloop
  endfacet
  facet normal 0 0 1
    outer loop
      vertex 93.0358 18.3753 69.46
      vertex 90 21.86 69.46
      vertex 92.6597 17.9992 69.46
    endloop
  endfacet
  facet normal 0 0 1
    outer loop
      vertex 95.6518 17.5253 69.46
      vertex 102.235 21.86 69.46
      vertex 96.2532 21.86 69.46
    endloop
  endfacet
  facet normal 0 0 1
    outer loop
      vertex 104.418 17.5253 69.46
      vertex 95.6518 17.5253 69.46
      vertex 104.335 17 69.46
    endloop
  endfacet
  facet normal 0 0 1
    outer loop
      vertex 95.6518 16.4747 69.46
      vertex 104.335 17 69.46
      vertex 95.735 17 69.46
    endloop
  endfacet
  facet normal 0 0 1
    outer loop
      vertex 104.335 17 69.46
      vertex 95.6518 16.4747 69.46
      vertex 97.1 10 69.46
    endloop
  endfacet
  facet normal -0 0 1
    outer loop
      vertex 95.4103 16.0008 69.46
      vertex 97.1 10 69.46
      vertex 95.6518 16.4747 69.46
    endloop
  endfacet
  facet normal -0 0 1
    outer loop
      vertex 95.0342 15.6247 69.46
      vertex 97.1 10 69.46
      vertex 95.4103 16.0008 69.46
    endloop
  endfacet
  facet normal -0 0 1
    outer loop
      vertex 94.5603 15.3832 69.46
      vertex 97.1 10 69.46
      vertex 95.0342 15.6247 69.46
    endloop
  endfacet
  facet normal -0 0 1
    outer loop
      vertex 94.035 15.3 69.46
      vertex 97.1 10 69.46
      vertex 94.5603 15.3832 69.46
    endloop
  endfacet
  facet normal 0 0 1
    outer loop
      vertex 90 10 69.46
      vertex 94.035 15.3 69.46
      vertex 93.5097 15.3832 69.46
    endloop
  endfacet
  facet normal 0 0 1
    outer loop
      vertex 90 10 69.46
      vertex 93.5097 15.3832 69.46
      vertex 93.0358 15.6247 69.46
    endloop
  endfacet
  facet normal 0 0 1
    outer loop
      vertex 90 10 69.46
      vertex 93.0358 15.6247 69.46
      vertex 92.6597 16.0008 69.46
    endloop
  endfacet
  facet normal 0 0 1
    outer loop
      vertex 90 10 69.46
      vertex 92.335 17 69.46
      vertex 90 21.86 69.46
    endloop
  endfacet
  facet normal 0 0 1
    outer loop
      vertex 94.035 15.3 69.46
      vertex 90 10 69.46
      vertex 97.1 10 69.46
    endloop
  endfacet
  facet normal 0 0 1
    outer loop
      vertex 92.4182 16.4747 69.46
      vertex 90 10 69.46
      vertex 92.6597 16.0008 69.46
    endloop
  endfacet
  facet normal 0 0 1
    outer loop
      vertex 92.335 17 69.46
      vertex 90 10 69.46
      vertex 92.4182 16.4747 69.46
    endloop
  endfacet
  facet normal 0 0 1
    outer loop
      vertex 109.735 27.8 69.46
      vertex 107.735 17 69.46
      vertex 109.735 10 69.46
    endloop
  endfacet
  facet normal 0 0 1
    outer loop
      vertex 109.735 27.8 69.46
      vertex 107.652 17.5253 69.46
      vertex 107.735 17 69.46
    endloop
  endfacet
  facet normal 0 0 1
    outer loop
      vertex 109.735 27.8 69.46
      vertex 107.41 17.9992 69.46
      vertex 107.652 17.5253 69.46
    endloop
  endfacet
  facet normal 0 0 1
    outer loop
      vertex 109.735 27.8 69.46
      vertex 107.034 18.3753 69.46
      vertex 107.41 17.9992 69.46
    endloop
  endfacet
  facet normal 0 0 1
    outer loop
      vertex 109.735 27.8 69.46
      vertex 106.56 18.6168 69.46
      vertex 107.034 18.3753 69.46
    endloop
  endfacet
  facet normal 0 0 1
    outer loop
      vertex 109.735 27.8 69.46
      vertex 106.035 18.7 69.46
      vertex 106.56 18.6168 69.46
    endloop
  endfacet
  facet normal -0 0 1
    outer loop
      vertex 102.235 21.86 69.46
      vertex 106.035 18.7 69.46
      vertex 109.735 27.8 69.46
    endloop
  endfacet
  facet normal 0 0 1
    outer loop
      vertex 106.035 18.7 69.46
      vertex 102.235 21.86 69.46
      vertex 105.51 18.6168 69.46
    endloop
  endfacet
  facet normal 0 0 1
    outer loop
      vertex 105.51 18.6168 69.46
      vertex 102.235 21.86 69.46
      vertex 105.036 18.3753 69.46
    endloop
  endfacet
  facet normal 0 0 1
    outer loop
      vertex 95.6518 17.5253 69.46
      vertex 104.418 17.5253 69.46
      vertex 102.235 21.86 69.46
    endloop
  endfacet
  facet normal 0 0 1
    outer loop
      vertex 104.66 17.9992 69.46
      vertex 102.235 21.86 69.46
      vertex 104.418 17.5253 69.46
    endloop
  endfacet
  facet normal 0 0 1
    outer loop
      vertex 105.036 18.3753 69.46
      vertex 102.235 21.86 69.46
      vertex 104.66 17.9992 69.46
    endloop
  endfacet
  facet normal 0 0 1
    outer loop
      vertex 102.235 21.86 69.46
      vertex 109.735 27.8 69.46
      vertex 102.235 26.52 69.46
    endloop
  endfacet
  facet normal -0 0 1
    outer loop
      vertex 90 27.8 69.46
      vertex 102.235 26.52 69.46
      vertex 109.735 27.8 69.46
    endloop
  endfacet
  facet normal 0 0 1
    outer loop
      vertex 102.235 26.52 69.46
      vertex 90 27.8 69.46
      vertex 96.2532 26.52 69.46
    endloop
  endfacet
  facet normal 0 0 1
    outer loop
      vertex 96.2532 26.52 69.46
      vertex 90 27.8 69.46
      vertex 90 26.52 69.46
    endloop
  endfacet
  facet normal -0 0 1
    outer loop
      vertex 107.652 16.4747 69.46
      vertex 109.735 10 69.46
      vertex 107.735 17 69.46
    endloop
  endfacet
  facet normal -0 0 1
    outer loop
      vertex 107.41 16.0008 69.46
      vertex 109.735 10 69.46
      vertex 107.652 16.4747 69.46
    endloop
  endfacet
  facet normal -0 0 1
    outer loop
      vertex 107.034 15.6247 69.46
      vertex 109.735 10 69.46
      vertex 107.41 16.0008 69.46
    endloop
  endfacet
  facet normal -0 0 1
    outer loop
      vertex 106.56 15.3832 69.46
      vertex 109.735 10 69.46
      vertex 107.034 15.6247 69.46
    endloop
  endfacet
  facet normal -0 0 1
    outer loop
      vertex 106.035 15.3 69.46
      vertex 109.735 10 69.46
      vertex 106.56 15.3832 69.46
    endloop
  endfacet
  facet normal 0 0 1
    outer loop
      vertex 102.9 10 69.46
      vertex 106.035 15.3 69.46
      vertex 105.51 15.3832 69.46
    endloop
  endfacet
  facet normal 0 0 1
    outer loop
      vertex 102.9 10 69.46
      vertex 105.51 15.3832 69.46
      vertex 105.036 15.6247 69.46
    endloop
  endfacet
  facet normal 0 0 1
    outer loop
      vertex 102.9 10 69.46
      vertex 105.036 15.6247 69.46
      vertex 104.66 16.0008 69.46
    endloop
  endfacet
  facet normal 0 0 1
    outer loop
      vertex 106.035 15.3 69.46
      vertex 102.9 10 69.46
      vertex 109.735 10 69.46
    endloop
  endfacet
  facet normal 0 0 1
    outer loop
      vertex 104.418 16.4747 69.46
      vertex 102.9 10 69.46
      vertex 104.66 16.0008 69.46
    endloop
  endfacet
  facet normal 0 0 1
    outer loop
      vertex 102.9 10 69.46
      vertex 104.418 16.4747 69.46
      vertex 104.335 17 69.46
    endloop
  endfacet
  facet normal 0 0 1
    outer loop
      vertex 104.335 17 69.46
      vertex 97.1 10 69.46
      vertex 102.9 10 69.46
    endloop
  endfacet
  facet normal 0 0 1
    outer loop
      vertex 102.9 10 69.46
      vertex 97.1 10 69.46
      vertex 102.9 9 69.46
    endloop
  endfacet
  facet normal 0 0 1
    outer loop
      vertex 102.9 9 69.46
      vertex 97.1 10 69.46
      vertex 97.1 9 69.46
    endloop
  endfacet
  facet normal 0 1 -0
    outer loop
      vertex 109.735 27.8 67.7
      vertex 90 27.8 69.46
      vertex 109.735 27.8 69.46
    endloop
  endfacet
  facet normal 0 1 0
    outer loop
      vertex 90 27.8 69.46
      vertex 109.735 27.8 67.7
      vertex 90 27.8 67.7
    endloop
  endfacet
endsolid OpenSCAD_Model
