solid OpenSCAD_Model
  facet normal 0.831413 0.555655 0
    outer loop
      vertex 4.56422 4.036 2
      vertex 4.49442 4.14044 -1
      vertex 4.49442 4.14044 2
    endloop
  endfacet
  facet normal 0.831413 0.555655 0
    outer loop
      vertex 4.49442 4.14044 -1
      vertex 4.56422 4.036 2
      vertex 4.56422 4.036 -1
    endloop
  endfacet
  facet normal 0.993065 0.117566 0
    outer loop
      vertex 4.79506 3.32553 2
      vertex 4.78029 3.45029 -1
      vertex 4.78029 3.45029 2
    endloop
  endfacet
  facet normal 0.993065 0.117566 0
    outer loop
      vertex 4.78029 3.45029 -1
      vertex 4.79506 3.32553 2
      vertex 4.79506 3.32553 -1
    endloop
  endfacet
  facet normal 0.99923 0.0392432 0
    outer loop
      vertex 4.79999 3.2 2
      vertex 4.79506 3.32553 -1
      vertex 4.79506 3.32553 2
    endloop
  endfacet
  facet normal 0.99923 0.0392432 0
    outer loop
      vertex 4.79506 3.32553 -1
      vertex 4.79999 3.2 2
      vertex 4.79999 3.2 -1
    endloop
  endfacet
  facet normal 0.48862 0.872497 -0
    outer loop
      vertex 4.036 4.56422 -1
      vertex 3.92638 4.62561 2
      vertex 4.036 4.56422 2
    endloop
  endfacet
  facet normal 0.48862 0.872497 0
    outer loop
      vertex 3.92638 4.62561 2
      vertex 4.036 4.56422 -1
      vertex 3.92638 4.62561 -1
    endloop
  endfacet
  facet normal -1 0 0
    outer loop
      vertex 0.48999 0.48999 -1
      vertex 0.48999 4.79999 2
      vertex 0.48999 4.79999 -1
    endloop
  endfacet
  facet normal -1 -0 0
    outer loop
      vertex 0.48999 4.79999 2
      vertex 0.48999 0.48999 -1
      vertex 0.48999 0.48999 2
    endloop
  endfacet
  facet normal 0 -1 0
    outer loop
      vertex 0.48999 0.48999 -1
      vertex 4.79999 0.48999 2
      vertex 0.48999 0.48999 2
    endloop
  endfacet
  facet normal 0 -1 -0
    outer loop
      vertex 4.79999 0.48999 2
      vertex 0.48999 0.48999 -1
      vertex 4.79999 0.48999 -1
    endloop
  endfacet
  facet normal 0.271439 0.962456 -0
    outer loop
      vertex 3.69441 4.72168 -1
      vertex 3.5735 4.75578 2
      vertex 3.69441 4.72168 2
    endloop
  endfacet
  facet normal 0.271439 0.962456 0
    outer loop
      vertex 3.5735 4.75578 2
      vertex 3.69441 4.72168 -1
      vertex 3.5735 4.75578 -1
    endloop
  endfacet
  facet normal 1 -0 0
    outer loop
      vertex 4.79999 0.48999 2
      vertex 4.79999 3.2 -1
      vertex 4.79999 3.2 2
    endloop
  endfacet
  facet normal 1 0 0
    outer loop
      vertex 4.79999 3.2 -1
      vertex 4.79999 0.48999 2
      vertex 4.79999 0.48999 -1
    endloop
  endfacet
  facet normal 0.980782 0.195106 0
    outer loop
      vertex 4.78029 3.45029 2
      vertex 4.75578 3.5735 -1
      vertex 4.75578 3.5735 2
    endloop
  endfacet
  facet normal 0.980782 0.195106 0
    outer loop
      vertex 4.75578 3.5735 -1
      vertex 4.78029 3.45029 2
      vertex 4.78029 3.45029 -1
    endloop
  endfacet
  facet normal 0.195106 0.980782 -0
    outer loop
      vertex 3.5735 4.75578 -1
      vertex 3.45029 4.78029 2
      vertex 3.5735 4.75578 2
    endloop
  endfacet
  facet normal 0.195106 0.980782 0
    outer loop
      vertex 3.45029 4.78029 2
      vertex 3.5735 4.75578 -1
      vertex 3.45029 4.78029 -1
    endloop
  endfacet
  facet normal 0 1 -0
    outer loop
      vertex 3.2 4.79999 -1
      vertex 0.48999 4.79999 2
      vertex 3.2 4.79999 2
    endloop
  endfacet
  facet normal 0 1 0
    outer loop
      vertex 0.48999 4.79999 2
      vertex 3.2 4.79999 -1
      vertex 0.48999 4.79999 -1
    endloop
  endfacet
  facet normal 0.0392432 0.99923 -0
    outer loop
      vertex 3.32553 4.79506 -1
      vertex 3.2 4.79999 2
      vertex 3.32553 4.79506 2
    endloop
  endfacet
  facet normal 0.0392432 0.99923 0
    outer loop
      vertex 3.2 4.79999 2
      vertex 3.32553 4.79506 -1
      vertex 3.2 4.79999 -1
    endloop
  endfacet
  facet normal 0.555655 0.831413 -0
    outer loop
      vertex 4.14044 4.49442 -1
      vertex 4.036 4.56422 2
      vertex 4.14044 4.49442 2
    endloop
  endfacet
  facet normal 0.555655 0.831413 0
    outer loop
      vertex 4.036 4.56422 2
      vertex 4.14044 4.49442 -1
      vertex 4.036 4.56422 -1
    endloop
  endfacet
  facet normal 0.908192 0.418553 0
    outer loop
      vertex 4.67819 3.81229 2
      vertex 4.62561 3.92638 -1
      vertex 4.62561 3.92638 2
    endloop
  endfacet
  facet normal 0.908192 0.418553 0
    outer loop
      vertex 4.62561 3.92638 -1
      vertex 4.67819 3.81229 2
      vertex 4.67819 3.81229 -1
    endloop
  endfacet
  facet normal 0.872497 0.48862 0
    outer loop
      vertex 4.62561 3.92638 2
      vertex 4.56422 4.036 -1
      vertex 4.56422 4.036 2
    endloop
  endfacet
  facet normal 0.872497 0.48862 0
    outer loop
      vertex 4.56422 4.036 -1
      vertex 4.62561 3.92638 2
      vertex 4.62561 3.92638 -1
    endloop
  endfacet
  facet normal 0.938187 0.346129 0
    outer loop
      vertex 4.72168 3.69441 2
      vertex 4.67819 3.81229 -1
      vertex 4.67819 3.81229 2
    endloop
  endfacet
  facet normal 0.938187 0.346129 0
    outer loop
      vertex 4.67819 3.81229 -1
      vertex 4.72168 3.69441 2
      vertex 4.72168 3.69441 -1
    endloop
  endfacet
  facet normal 0.418553 0.908192 -0
    outer loop
      vertex 3.92638 4.62561 -1
      vertex 3.81229 4.67819 2
      vertex 3.92638 4.62561 2
    endloop
  endfacet
  facet normal 0.418553 0.908192 0
    outer loop
      vertex 3.81229 4.67819 2
      vertex 3.92638 4.62561 -1
      vertex 3.81229 4.67819 -1
    endloop
  endfacet
  facet normal 0.619069 0.785337 -0
    outer loop
      vertex 4.23911 4.41664 -1
      vertex 4.14044 4.49442 2
      vertex 4.23911 4.41664 2
    endloop
  endfacet
  facet normal 0.619069 0.785337 0
    outer loop
      vertex 4.14044 4.49442 2
      vertex 4.23911 4.41664 -1
      vertex 4.14044 4.49442 -1
    endloop
  endfacet
  facet normal 0 0 -1
    outer loop
      vertex 4.27669 2.21365 -1
      vertex 4.79999 3.2 -1
      vertex 4.79999 0.48999 -1
    endloop
  endfacet
  facet normal 0 -0 -1
    outer loop
      vertex 4.35 2.7 -1
      vertex 4.79999 3.2 -1
      vertex 4.33157 2.45408 -1
    endloop
  endfacet
  facet normal 0 0 -1
    outer loop
      vertex 4.33157 2.94592 -1
      vertex 4.79999 3.2 -1
      vertex 4.35 2.7 -1
    endloop
  endfacet
  facet normal 0 0 -1
    outer loop
      vertex 4.27669 3.18635 -1
      vertex 4.79999 3.2 -1
      vertex 4.33157 2.94592 -1
    endloop
  endfacet
  facet normal -0 0 -1
    outer loop
      vertex 4.79999 3.2 -1
      vertex 4.27669 3.18635 -1
      vertex 4.79506 3.32553 -1
    endloop
  endfacet
  facet normal -0 0 -1
    outer loop
      vertex 4.79506 3.32553 -1
      vertex 4.27669 3.18635 -1
      vertex 4.78029 3.45029 -1
    endloop
  endfacet
  facet normal -0 0 -1
    outer loop
      vertex 4.78029 3.45029 -1
      vertex 4.1866 3.41591 -1
      vertex 4.75578 3.5735 -1
    endloop
  endfacet
  facet normal -0 0 -1
    outer loop
      vertex 4.75578 3.5735 -1
      vertex 4.1866 3.41591 -1
      vertex 4.72168 3.69441 -1
    endloop
  endfacet
  facet normal -0 0 -1
    outer loop
      vertex 4.72168 3.69441 -1
      vertex 4.1866 3.41591 -1
      vertex 4.67819 3.81229 -1
    endloop
  endfacet
  facet normal 0 0 -1
    outer loop
      vertex 4.06329 3.62948 -1
      vertex 4.67819 3.81229 -1
      vertex 4.1866 3.41591 -1
    endloop
  endfacet
  facet normal 0 0 -1
    outer loop
      vertex 4.1866 3.41591 -1
      vertex 4.78029 3.45029 -1
      vertex 4.27669 3.18635 -1
    endloop
  endfacet
  facet normal 0 0 -1
    outer loop
      vertex 4.79999 3.2 -1
      vertex 4.27669 2.21365 -1
      vertex 4.33157 2.45408 -1
    endloop
  endfacet
  facet normal 0 0 -1
    outer loop
      vertex 4.79999 0.48999 -1
      vertex 4.1866 1.98409 -1
      vertex 4.27669 2.21365 -1
    endloop
  endfacet
  facet normal 0 0 -1
    outer loop
      vertex 4.79999 0.48999 -1
      vertex 4.06329 1.77052 -1
      vertex 4.1866 1.98409 -1
    endloop
  endfacet
  facet normal 0 0 -1
    outer loop
      vertex 4.79999 0.48999 -1
      vertex 3.90954 1.57771 -1
      vertex 4.06329 1.77052 -1
    endloop
  endfacet
  facet normal 0 0 -1
    outer loop
      vertex 4.79999 0.48999 -1
      vertex 3.72876 1.40998 -1
      vertex 3.90954 1.57771 -1
    endloop
  endfacet
  facet normal 0 0 -1
    outer loop
      vertex 4.79999 0.48999 -1
      vertex 3.525 1.27106 -1
      vertex 3.72876 1.40998 -1
    endloop
  endfacet
  facet normal 0 0 -1
    outer loop
      vertex 4.79999 0.48999 -1
      vertex 3.30281 1.16406 -1
      vertex 3.525 1.27106 -1
    endloop
  endfacet
  facet normal 0 0 -1
    outer loop
      vertex 4.79999 0.48999 -1
      vertex 3.06716 1.09137 -1
      vertex 3.30281 1.16406 -1
    endloop
  endfacet
  facet normal 0 0 -1
    outer loop
      vertex 4.79999 0.48999 -1
      vertex 2.8233 1.05461 -1
      vertex 3.06716 1.09137 -1
    endloop
  endfacet
  facet normal 0 0 -1
    outer loop
      vertex 4.79999 0.48999 -1
      vertex 2.57669 1.05461 -1
      vertex 2.8233 1.05461 -1
    endloop
  endfacet
  facet normal 0 0 -1
    outer loop
      vertex 0.48999 0.48999 -1
      vertex 2.57669 1.05461 -1
      vertex 4.79999 0.48999 -1
    endloop
  endfacet
  facet normal -0 0 -1
    outer loop
      vertex 1.06843 2.45408 -1
      vertex 0.48999 0.48999 -1
      vertex 1.05 2.7 -1
    endloop
  endfacet
  facet normal -0 0 -1
    outer loop
      vertex 1.1233 2.21365 -1
      vertex 0.48999 0.48999 -1
      vertex 1.06843 2.45408 -1
    endloop
  endfacet
  facet normal -0 0 -1
    outer loop
      vertex 1.2134 1.98409 -1
      vertex 0.48999 0.48999 -1
      vertex 1.1233 2.21365 -1
    endloop
  endfacet
  facet normal -0 0 -1
    outer loop
      vertex 1.33671 1.77052 -1
      vertex 0.48999 0.48999 -1
      vertex 1.2134 1.98409 -1
    endloop
  endfacet
  facet normal -0 0 -1
    outer loop
      vertex 1.49046 1.57771 -1
      vertex 0.48999 0.48999 -1
      vertex 1.33671 1.77052 -1
    endloop
  endfacet
  facet normal -0 0 -1
    outer loop
      vertex 1.67124 1.40998 -1
      vertex 0.48999 0.48999 -1
      vertex 1.49046 1.57771 -1
    endloop
  endfacet
  facet normal -0 0 -1
    outer loop
      vertex 1.875 1.27106 -1
      vertex 0.48999 0.48999 -1
      vertex 1.67124 1.40998 -1
    endloop
  endfacet
  facet normal -0 0 -1
    outer loop
      vertex 2.09719 1.16406 -1
      vertex 0.48999 0.48999 -1
      vertex 1.875 1.27106 -1
    endloop
  endfacet
  facet normal -0 0 -1
    outer loop
      vertex 2.33284 1.09137 -1
      vertex 0.48999 0.48999 -1
      vertex 2.09719 1.16406 -1
    endloop
  endfacet
  facet normal -0 0 -1
    outer loop
      vertex 2.57669 1.05461 -1
      vertex 0.48999 0.48999 -1
      vertex 2.33284 1.09137 -1
    endloop
  endfacet
  facet normal -0 0 -1
    outer loop
      vertex 4.67819 3.81229 -1
      vertex 4.06329 3.62948 -1
      vertex 4.62561 3.92638 -1
    endloop
  endfacet
  facet normal -0 0 -1
    outer loop
      vertex 4.62561 3.92638 -1
      vertex 4.06329 3.62948 -1
      vertex 4.56422 4.036 -1
    endloop
  endfacet
  facet normal -0 0 -1
    outer loop
      vertex 4.56422 4.036 -1
      vertex 4.06329 3.62948 -1
      vertex 4.49442 4.14044 -1
    endloop
  endfacet
  facet normal 0 0 -1
    outer loop
      vertex 3.90954 3.82228 -1
      vertex 4.49442 4.14044 -1
      vertex 4.06329 3.62948 -1
    endloop
  endfacet
  facet normal -0 0 -1
    outer loop
      vertex 4.49442 4.14044 -1
      vertex 3.90954 3.82228 -1
      vertex 4.41664 4.23911 -1
    endloop
  endfacet
  facet normal -0 0 -1
    outer loop
      vertex 4.41664 4.23911 -1
      vertex 3.90954 3.82228 -1
      vertex 4.33136 4.33136 -1
    endloop
  endfacet
  facet normal -0 0 -1
    outer loop
      vertex 4.33136 4.33136 -1
      vertex 3.90954 3.82228 -1
      vertex 4.23911 4.41664 -1
    endloop
  endfacet
  facet normal 0 0 -1
    outer loop
      vertex 3.72876 3.99002 -1
      vertex 4.23911 4.41664 -1
      vertex 3.90954 3.82228 -1
    endloop
  endfacet
  facet normal -0 0 -1
    outer loop
      vertex 4.23911 4.41664 -1
      vertex 3.72876 3.99002 -1
      vertex 4.14044 4.49442 -1
    endloop
  endfacet
  facet normal -0 0 -1
    outer loop
      vertex 4.14044 4.49442 -1
      vertex 3.72876 3.99002 -1
      vertex 4.036 4.56422 -1
    endloop
  endfacet
  facet normal -0 0 -1
    outer loop
      vertex 4.036 4.56422 -1
      vertex 3.72876 3.99002 -1
      vertex 3.92638 4.62561 -1
    endloop
  endfacet
  facet normal 0 0 -1
    outer loop
      vertex 3.525 4.12894 -1
      vertex 3.92638 4.62561 -1
      vertex 3.72876 3.99002 -1
    endloop
  endfacet
  facet normal -0 0 -1
    outer loop
      vertex 3.92638 4.62561 -1
      vertex 3.525 4.12894 -1
      vertex 3.81229 4.67819 -1
    endloop
  endfacet
  facet normal -0 0 -1
    outer loop
      vertex 3.81229 4.67819 -1
      vertex 3.525 4.12894 -1
      vertex 3.69441 4.72168 -1
    endloop
  endfacet
  facet normal -0 0 -1
    outer loop
      vertex 3.69441 4.72168 -1
      vertex 3.525 4.12894 -1
      vertex 3.5735 4.75578 -1
    endloop
  endfacet
  facet normal 0 0 -1
    outer loop
      vertex 3.30281 4.23594 -1
      vertex 3.5735 4.75578 -1
      vertex 3.525 4.12894 -1
    endloop
  endfacet
  facet normal -0 0 -1
    outer loop
      vertex 3.5735 4.75578 -1
      vertex 3.30281 4.23594 -1
      vertex 3.45029 4.78029 -1
    endloop
  endfacet
  facet normal -0 0 -1
    outer loop
      vertex 3.45029 4.78029 -1
      vertex 3.30281 4.23594 -1
      vertex 3.32553 4.79506 -1
    endloop
  endfacet
  facet normal 0 0 -1
    outer loop
      vertex 3.06716 4.30863 -1
      vertex 3.32553 4.79506 -1
      vertex 3.30281 4.23594 -1
    endloop
  endfacet
  facet normal -0 0 -1
    outer loop
      vertex 3.32553 4.79506 -1
      vertex 3.06716 4.30863 -1
      vertex 3.2 4.79999 -1
    endloop
  endfacet
  facet normal 0 0 -1
    outer loop
      vertex 2.8233 4.34539 -1
      vertex 3.2 4.79999 -1
      vertex 3.06716 4.30863 -1
    endloop
  endfacet
  facet normal 0 0 -1
    outer loop
      vertex 2.57669 4.34539 -1
      vertex 3.2 4.79999 -1
      vertex 2.8233 4.34539 -1
    endloop
  endfacet
  facet normal 0 0 -1
    outer loop
      vertex 2.33284 4.30863 -1
      vertex 3.2 4.79999 -1
      vertex 2.57669 4.34539 -1
    endloop
  endfacet
  facet normal 0 0 -1
    outer loop
      vertex 0.48999 4.79999 -1
      vertex 2.33284 4.30863 -1
      vertex 2.09719 4.23594 -1
    endloop
  endfacet
  facet normal 0 0 -1
    outer loop
      vertex 0.48999 4.79999 -1
      vertex 2.09719 4.23594 -1
      vertex 1.875 4.12894 -1
    endloop
  endfacet
  facet normal 0 0 -1
    outer loop
      vertex 0.48999 4.79999 -1
      vertex 1.05 2.7 -1
      vertex 0.48999 0.48999 -1
    endloop
  endfacet
  facet normal 0 0 -1
    outer loop
      vertex 1.05 2.7 -1
      vertex 0.48999 4.79999 -1
      vertex 1.06843 2.94592 -1
    endloop
  endfacet
  facet normal 0 0 -1
    outer loop
      vertex 2.33284 4.30863 -1
      vertex 0.48999 4.79999 -1
      vertex 3.2 4.79999 -1
    endloop
  endfacet
  facet normal 0 0 -1
    outer loop
      vertex 1.67124 3.99002 -1
      vertex 0.48999 4.79999 -1
      vertex 1.875 4.12894 -1
    endloop
  endfacet
  facet normal 0 0 -1
    outer loop
      vertex 1.49046 3.82228 -1
      vertex 0.48999 4.79999 -1
      vertex 1.67124 3.99002 -1
    endloop
  endfacet
  facet normal 0 0 -1
    outer loop
      vertex 1.33671 3.62948 -1
      vertex 0.48999 4.79999 -1
      vertex 1.49046 3.82228 -1
    endloop
  endfacet
  facet normal 0 0 -1
    outer loop
      vertex 1.2134 3.41591 -1
      vertex 0.48999 4.79999 -1
      vertex 1.33671 3.62948 -1
    endloop
  endfacet
  facet normal 0 0 -1
    outer loop
      vertex 1.1233 3.18635 -1
      vertex 0.48999 4.79999 -1
      vertex 1.2134 3.41591 -1
    endloop
  endfacet
  facet normal 0 0 -1
    outer loop
      vertex 1.06843 2.94592 -1
      vertex 0.48999 4.79999 -1
      vertex 1.1233 3.18635 -1
    endloop
  endfacet
  facet normal 0.117566 0.993065 -0
    outer loop
      vertex 3.45029 4.78029 -1
      vertex 3.32553 4.79506 2
      vertex 3.45029 4.78029 2
    endloop
  endfacet
  facet normal 0.117566 0.993065 0
    outer loop
      vertex 3.32553 4.79506 2
      vertex 3.45029 4.78029 -1
      vertex 3.32553 4.79506 -1
    endloop
  endfacet
  facet normal 0.678822 0.734303 -0
    outer loop
      vertex 4.33136 4.33136 -1
      vertex 4.23911 4.41664 2
      vertex 4.33136 4.33136 2
    endloop
  endfacet
  facet normal 0.678822 0.734303 0
    outer loop
      vertex 4.23911 4.41664 2
      vertex 4.33136 4.33136 -1
      vertex 4.23911 4.41664 -1
    endloop
  endfacet
  facet normal 0.962456 0.271439 0
    outer loop
      vertex 4.75578 3.5735 2
      vertex 4.72168 3.69441 -1
      vertex 4.72168 3.69441 2
    endloop
  endfacet
  facet normal 0.962456 0.271439 0
    outer loop
      vertex 4.72168 3.69441 -1
      vertex 4.75578 3.5735 2
      vertex 4.75578 3.5735 -1
    endloop
  endfacet
  facet normal 0.785337 0.619069 0
    outer loop
      vertex 4.49442 4.14044 2
      vertex 4.41664 4.23911 -1
      vertex 4.41664 4.23911 2
    endloop
  endfacet
  facet normal 0.785337 0.619069 0
    outer loop
      vertex 4.41664 4.23911 -1
      vertex 4.49442 4.14044 2
      vertex 4.49442 4.14044 -1
    endloop
  endfacet
  facet normal 0.734303 0.678822 0
    outer loop
      vertex 4.41664 4.23911 2
      vertex 4.33136 4.33136 -1
      vertex 4.33136 4.33136 2
    endloop
  endfacet
  facet normal 0.734303 0.678822 0
    outer loop
      vertex 4.33136 4.33136 -1
      vertex 4.41664 4.23911 2
      vertex 4.41664 4.23911 -1
    endloop
  endfacet
  facet normal 0 0 1
    outer loop
      vertex 4.79999 3.2 2
      vertex 4.33157 2.94592 2
      vertex 4.35 2.7 2
    endloop
  endfacet
  facet normal 0 0 1
    outer loop
      vertex 3.90954 3.82228 2
      vertex 4.41664 4.23911 2
      vertex 4.33136 4.33136 2
    endloop
  endfacet
  facet normal 0 0 1
    outer loop
      vertex 4.49442 4.14044 2
      vertex 4.27669 3.18635 2
      vertex 4.33157 2.94592 2
    endloop
  endfacet
  facet normal 0 0 1
    outer loop
      vertex 3.90954 3.82228 2
      vertex 4.33136 4.33136 2
      vertex 4.23911 4.41664 2
    endloop
  endfacet
  facet normal 0 0 1
    outer loop
      vertex 4.49442 4.14044 2
      vertex 4.1866 3.41591 2
      vertex 4.27669 3.18635 2
    endloop
  endfacet
  facet normal 0 0 1
    outer loop
      vertex 3.72876 3.99002 2
      vertex 4.23911 4.41664 2
      vertex 4.14044 4.49442 2
    endloop
  endfacet
  facet normal 0 0 1
    outer loop
      vertex 4.49442 4.14044 2
      vertex 4.06329 3.62948 2
      vertex 4.1866 3.41591 2
    endloop
  endfacet
  facet normal 0 0 1
    outer loop
      vertex 3.72876 3.99002 2
      vertex 4.14044 4.49442 2
      vertex 4.036 4.56422 2
    endloop
  endfacet
  facet normal 0 0 1
    outer loop
      vertex 3.72876 3.99002 2
      vertex 4.036 4.56422 2
      vertex 3.92638 4.62561 2
    endloop
  endfacet
  facet normal 0 0 1
    outer loop
      vertex 4.49442 4.14044 2
      vertex 3.90954 3.82228 2
      vertex 4.06329 3.62948 2
    endloop
  endfacet
  facet normal 0 0 1
    outer loop
      vertex 3.525 4.12894 2
      vertex 3.92638 4.62561 2
      vertex 3.81229 4.67819 2
    endloop
  endfacet
  facet normal 0 0 1
    outer loop
      vertex 4.23911 4.41664 2
      vertex 3.72876 3.99002 2
      vertex 3.90954 3.82228 2
    endloop
  endfacet
  facet normal 0 0 1
    outer loop
      vertex 3.525 4.12894 2
      vertex 3.81229 4.67819 2
      vertex 3.69441 4.72168 2
    endloop
  endfacet
  facet normal 0 0 1
    outer loop
      vertex 3.525 4.12894 2
      vertex 3.69441 4.72168 2
      vertex 3.5735 4.75578 2
    endloop
  endfacet
  facet normal 0 0 1
    outer loop
      vertex 3.92638 4.62561 2
      vertex 3.525 4.12894 2
      vertex 3.72876 3.99002 2
    endloop
  endfacet
  facet normal 0 0 1
    outer loop
      vertex 3.30281 4.23594 2
      vertex 3.5735 4.75578 2
      vertex 3.45029 4.78029 2
    endloop
  endfacet
  facet normal 0 0 1
    outer loop
      vertex 3.30281 4.23594 2
      vertex 3.45029 4.78029 2
      vertex 3.32553 4.79506 2
    endloop
  endfacet
  facet normal 0 0 1
    outer loop
      vertex 3.5735 4.75578 2
      vertex 3.30281 4.23594 2
      vertex 3.525 4.12894 2
    endloop
  endfacet
  facet normal 0 0 1
    outer loop
      vertex 3.06716 4.30863 2
      vertex 3.32553 4.79506 2
      vertex 3.2 4.79999 2
    endloop
  endfacet
  facet normal 0 0 1
    outer loop
      vertex 3.32553 4.79506 2
      vertex 3.06716 4.30863 2
      vertex 3.30281 4.23594 2
    endloop
  endfacet
  facet normal 0 0 1
    outer loop
      vertex 3.2 4.79999 2
      vertex 2.8233 4.34539 2
      vertex 3.06716 4.30863 2
    endloop
  endfacet
  facet normal 0 0 1
    outer loop
      vertex 3.2 4.79999 2
      vertex 2.57669 4.34539 2
      vertex 2.8233 4.34539 2
    endloop
  endfacet
  facet normal 0 0 1
    outer loop
      vertex 3.2 4.79999 2
      vertex 2.33284 4.30863 2
      vertex 2.57669 4.34539 2
    endloop
  endfacet
  facet normal -0 0 1
    outer loop
      vertex 0.48999 4.79999 2
      vertex 2.33284 4.30863 2
      vertex 3.2 4.79999 2
    endloop
  endfacet
  facet normal 0 0 1
    outer loop
      vertex 2.33284 4.30863 2
      vertex 0.48999 4.79999 2
      vertex 2.09719 4.23594 2
    endloop
  endfacet
  facet normal 0 0 1
    outer loop
      vertex 1.06843 2.94592 2
      vertex 0.48999 4.79999 2
      vertex 1.05 2.7 2
    endloop
  endfacet
  facet normal 0 0 1
    outer loop
      vertex 1.1233 3.18635 2
      vertex 0.48999 4.79999 2
      vertex 1.06843 2.94592 2
    endloop
  endfacet
  facet normal 0 0 1
    outer loop
      vertex 1.2134 3.41591 2
      vertex 0.48999 4.79999 2
      vertex 1.1233 3.18635 2
    endloop
  endfacet
  facet normal 0 0 1
    outer loop
      vertex 1.33671 3.62948 2
      vertex 0.48999 4.79999 2
      vertex 1.2134 3.41591 2
    endloop
  endfacet
  facet normal 0 0 1
    outer loop
      vertex 1.49046 3.82228 2
      vertex 0.48999 4.79999 2
      vertex 1.33671 3.62948 2
    endloop
  endfacet
  facet normal 0 0 1
    outer loop
      vertex 1.67124 3.99002 2
      vertex 0.48999 4.79999 2
      vertex 1.49046 3.82228 2
    endloop
  endfacet
  facet normal 0 0 1
    outer loop
      vertex 1.875 4.12894 2
      vertex 0.48999 4.79999 2
      vertex 1.67124 3.99002 2
    endloop
  endfacet
  facet normal 0 0 1
    outer loop
      vertex 2.09719 4.23594 2
      vertex 0.48999 4.79999 2
      vertex 1.875 4.12894 2
    endloop
  endfacet
  facet normal 0 0 1
    outer loop
      vertex 4.33157 2.94592 2
      vertex 4.79999 3.2 2
      vertex 4.79506 3.32553 2
    endloop
  endfacet
  facet normal 0 0 1
    outer loop
      vertex 4.33157 2.94592 2
      vertex 4.79506 3.32553 2
      vertex 4.78029 3.45029 2
    endloop
  endfacet
  facet normal 0 0 1
    outer loop
      vertex 4.33157 2.94592 2
      vertex 4.78029 3.45029 2
      vertex 4.75578 3.5735 2
    endloop
  endfacet
  facet normal 0 0 1
    outer loop
      vertex 4.33157 2.94592 2
      vertex 4.75578 3.5735 2
      vertex 4.72168 3.69441 2
    endloop
  endfacet
  facet normal 0 0 1
    outer loop
      vertex 4.33157 2.94592 2
      vertex 4.72168 3.69441 2
      vertex 4.67819 3.81229 2
    endloop
  endfacet
  facet normal 0 0 1
    outer loop
      vertex 4.33157 2.94592 2
      vertex 4.67819 3.81229 2
      vertex 4.62561 3.92638 2
    endloop
  endfacet
  facet normal 0 0 1
    outer loop
      vertex 4.33157 2.94592 2
      vertex 4.62561 3.92638 2
      vertex 4.56422 4.036 2
    endloop
  endfacet
  facet normal 0 0 1
    outer loop
      vertex 4.33157 2.94592 2
      vertex 4.56422 4.036 2
      vertex 4.49442 4.14044 2
    endloop
  endfacet
  facet normal 0 0 1
    outer loop
      vertex 3.90954 3.82228 2
      vertex 4.49442 4.14044 2
      vertex 4.41664 4.23911 2
    endloop
  endfacet
  facet normal 0 0 1
    outer loop
      vertex 4.79999 3.2 2
      vertex 4.35 2.7 2
      vertex 4.33157 2.45408 2
    endloop
  endfacet
  facet normal 0 0 1
    outer loop
      vertex 4.27669 2.21365 2
      vertex 4.79999 3.2 2
      vertex 4.33157 2.45408 2
    endloop
  endfacet
  facet normal 0 0 1
    outer loop
      vertex 4.79999 3.2 2
      vertex 4.27669 2.21365 2
      vertex 4.79999 0.48999 2
    endloop
  endfacet
  facet normal -0 0 1
    outer loop
      vertex 4.1866 1.98409 2
      vertex 4.79999 0.48999 2
      vertex 4.27669 2.21365 2
    endloop
  endfacet
  facet normal -0 0 1
    outer loop
      vertex 4.06329 1.77052 2
      vertex 4.79999 0.48999 2
      vertex 4.1866 1.98409 2
    endloop
  endfacet
  facet normal -0 0 1
    outer loop
      vertex 3.90954 1.57771 2
      vertex 4.79999 0.48999 2
      vertex 4.06329 1.77052 2
    endloop
  endfacet
  facet normal -0 0 1
    outer loop
      vertex 3.72876 1.40998 2
      vertex 4.79999 0.48999 2
      vertex 3.90954 1.57771 2
    endloop
  endfacet
  facet normal -0 0 1
    outer loop
      vertex 3.525 1.27106 2
      vertex 4.79999 0.48999 2
      vertex 3.72876 1.40998 2
    endloop
  endfacet
  facet normal -0 0 1
    outer loop
      vertex 3.30281 1.16406 2
      vertex 4.79999 0.48999 2
      vertex 3.525 1.27106 2
    endloop
  endfacet
  facet normal -0 0 1
    outer loop
      vertex 3.06716 1.09137 2
      vertex 4.79999 0.48999 2
      vertex 3.30281 1.16406 2
    endloop
  endfacet
  facet normal -0 0 1
    outer loop
      vertex 2.8233 1.05461 2
      vertex 4.79999 0.48999 2
      vertex 3.06716 1.09137 2
    endloop
  endfacet
  facet normal -0 0 1
    outer loop
      vertex 2.57669 1.05461 2
      vertex 4.79999 0.48999 2
      vertex 2.8233 1.05461 2
    endloop
  endfacet
  facet normal 0 0 1
    outer loop
      vertex 0.48999 0.48999 2
      vertex 2.57669 1.05461 2
      vertex 2.33284 1.09137 2
    endloop
  endfacet
  facet normal 0 0 1
    outer loop
      vertex 0.48999 0.48999 2
      vertex 1.05 2.7 2
      vertex 0.48999 4.79999 2
    endloop
  endfacet
  facet normal 0 0 1
    outer loop
      vertex 1.05 2.7 2
      vertex 0.48999 0.48999 2
      vertex 1.06843 2.45408 2
    endloop
  endfacet
  facet normal 0 0 1
    outer loop
      vertex 2.57669 1.05461 2
      vertex 0.48999 0.48999 2
      vertex 4.79999 0.48999 2
    endloop
  endfacet
  facet normal 0 0 1
    outer loop
      vertex 2.09719 1.16406 2
      vertex 0.48999 0.48999 2
      vertex 2.33284 1.09137 2
    endloop
  endfacet
  facet normal 0 0 1
    outer loop
      vertex 1.875 1.27106 2
      vertex 0.48999 0.48999 2
      vertex 2.09719 1.16406 2
    endloop
  endfacet
  facet normal 0 0 1
    outer loop
      vertex 1.67124 1.40998 2
      vertex 0.48999 0.48999 2
      vertex 1.875 1.27106 2
    endloop
  endfacet
  facet normal 0 0 1
    outer loop
      vertex 1.49046 1.57771 2
      vertex 0.48999 0.48999 2
      vertex 1.67124 1.40998 2
    endloop
  endfacet
  facet normal 0 0 1
    outer loop
      vertex 1.33671 1.77052 2
      vertex 0.48999 0.48999 2
      vertex 1.49046 1.57771 2
    endloop
  endfacet
  facet normal 0 0 1
    outer loop
      vertex 1.2134 1.98409 2
      vertex 0.48999 0.48999 2
      vertex 1.33671 1.77052 2
    endloop
  endfacet
  facet normal 0 0 1
    outer loop
      vertex 1.1233 2.21365 2
      vertex 0.48999 0.48999 2
      vertex 1.2134 1.98409 2
    endloop
  endfacet
  facet normal 0 0 1
    outer loop
      vertex 1.06843 2.45408 2
      vertex 0.48999 0.48999 2
      vertex 1.1233 2.21365 2
    endloop
  endfacet
  facet normal 0.346129 0.938187 -0
    outer loop
      vertex 3.81229 4.67819 -1
      vertex 3.69441 4.72168 2
      vertex 3.81229 4.67819 2
    endloop
  endfacet
  facet normal 0.346129 0.938187 0
    outer loop
      vertex 3.69441 4.72168 2
      vertex 3.81229 4.67819 -1
      vertex 3.69441 4.72168 -1
    endloop
  endfacet
  facet normal -0.149058 0.988828 0
    outer loop
      vertex 3.06716 1.09137 -1
      vertex 2.8233 1.05461 2
      vertex 3.06716 1.09137 2
    endloop
  endfacet
  facet normal -0.149058 0.988828 0
    outer loop
      vertex 2.8233 1.05461 2
      vertex 3.06716 1.09137 -1
      vertex 2.8233 1.05461 -1
    endloop
  endfacet
  facet normal 0.294761 0.955571 -0
    outer loop
      vertex 2.33284 1.09137 -1
      vertex 2.09719 1.16406 2
      vertex 2.33284 1.09137 2
    endloop
  endfacet
  facet normal 0.294761 0.955571 0
    outer loop
      vertex 2.09719 1.16406 2
      vertex 2.33284 1.09137 -1
      vertex 2.09719 1.16406 -1
    endloop
  endfacet
  facet normal -0.997204 0.0747335 0
    outer loop
      vertex 4.33157 2.45408 -1
      vertex 4.35 2.7 2
      vertex 4.35 2.7 -1
    endloop
  endfacet
  facet normal -0.997204 0.0747335 0
    outer loop
      vertex 4.35 2.7 2
      vertex 4.33157 2.45408 -1
      vertex 4.33157 2.45408 2
    endloop
  endfacet
  facet normal -0.43388 0.900971 0
    outer loop
      vertex 3.525 1.27106 -1
      vertex 3.30281 1.16406 2
      vertex 3.525 1.27106 2
    endloop
  endfacet
  facet normal -0.43388 0.900971 0
    outer loop
      vertex 3.30281 1.16406 2
      vertex 3.525 1.27106 -1
      vertex 3.30281 1.16406 -1
    endloop
  endfacet
  facet normal -0.866016 -0.500016 0
    outer loop
      vertex 4.1866 3.41591 -1
      vertex 4.06329 3.62948 2
      vertex 4.06329 3.62948 -1
    endloop
  endfacet
  facet normal -0.866016 -0.500016 0
    outer loop
      vertex 4.06329 3.62948 2
      vertex 4.1866 3.41591 -1
      vertex 4.1866 3.41591 2
    endloop
  endfacet
  facet normal -0.781853 0.623463 0
    outer loop
      vertex 3.90954 1.57771 -1
      vertex 4.06329 1.77052 2
      vertex 4.06329 1.77052 -1
    endloop
  endfacet
  facet normal -0.781853 0.623463 0
    outer loop
      vertex 4.06329 1.77052 2
      vertex 3.90954 1.57771 -1
      vertex 3.90954 1.57771 2
    endloop
  endfacet
  facet normal -0.149058 -0.988828 0
    outer loop
      vertex 2.8233 4.34539 -1
      vertex 3.06716 4.30863 2
      vertex 2.8233 4.34539 2
    endloop
  endfacet
  facet normal -0.149058 -0.988828 -0
    outer loop
      vertex 3.06716 4.30863 2
      vertex 2.8233 4.34539 -1
      vertex 3.06716 4.30863 -1
    endloop
  endfacet
  facet normal 0.563317 0.826241 -0
    outer loop
      vertex 1.875 1.27106 -1
      vertex 1.67124 1.40998 2
      vertex 1.875 1.27106 2
    endloop
  endfacet
  facet normal 0.563317 0.826241 0
    outer loop
      vertex 1.67124 1.40998 2
      vertex 1.875 1.27106 -1
      vertex 1.67124 1.40998 -1
    endloop
  endfacet
  facet normal -0.997204 -0.0747335 0
    outer loop
      vertex 4.35 2.7 -1
      vertex 4.33157 2.94592 2
      vertex 4.33157 2.94592 -1
    endloop
  endfacet
  facet normal -0.997204 -0.0747335 0
    outer loop
      vertex 4.33157 2.94592 2
      vertex 4.35 2.7 -1
      vertex 4.35 2.7 2
    endloop
  endfacet
  facet normal 0.866016 -0.500016 0
    outer loop
      vertex 1.2134 3.41591 2
      vertex 1.33671 3.62948 -1
      vertex 1.33671 3.62948 2
    endloop
  endfacet
  facet normal 0.866016 -0.500016 0
    outer loop
      vertex 1.33671 3.62948 -1
      vertex 1.2134 3.41591 2
      vertex 1.2134 3.41591 -1
    endloop
  endfacet
  facet normal -0.974925 -0.222534 0
    outer loop
      vertex 4.33157 2.94592 -1
      vertex 4.27669 3.18635 2
      vertex 4.27669 3.18635 -1
    endloop
  endfacet
  facet normal -0.974925 -0.222534 0
    outer loop
      vertex 4.27669 3.18635 2
      vertex 4.33157 2.94592 -1
      vertex 4.33157 2.94592 2
    endloop
  endfacet
  facet normal 0.149064 -0.988828 0
    outer loop
      vertex 2.33284 4.30863 -1
      vertex 2.57669 4.34539 2
      vertex 2.33284 4.30863 2
    endloop
  endfacet
  facet normal 0.149064 -0.988828 0
    outer loop
      vertex 2.57669 4.34539 2
      vertex 2.33284 4.30863 -1
      vertex 2.57669 4.34539 -1
    endloop
  endfacet
  facet normal -0.866016 0.500016 0
    outer loop
      vertex 4.06329 1.77052 -1
      vertex 4.1866 1.98409 2
      vertex 4.1866 1.98409 -1
    endloop
  endfacet
  facet normal -0.866016 0.500016 0
    outer loop
      vertex 4.1866 1.98409 2
      vertex 4.06329 1.77052 -1
      vertex 4.06329 1.77052 2
    endloop
  endfacet
  facet normal -0.680152 0.733071 0
    outer loop
      vertex 3.90954 1.57771 -1
      vertex 3.72876 1.40998 2
      vertex 3.90954 1.57771 2
    endloop
  endfacet
  facet normal -0.680152 0.733071 0
    outer loop
      vertex 3.72876 1.40998 2
      vertex 3.90954 1.57771 -1
      vertex 3.72876 1.40998 -1
    endloop
  endfacet
  facet normal 0.781853 0.623463 0
    outer loop
      vertex 1.49046 1.57771 2
      vertex 1.33671 1.77052 -1
      vertex 1.33671 1.77052 2
    endloop
  endfacet
  facet normal 0.781853 0.623463 0
    outer loop
      vertex 1.33671 1.77052 -1
      vertex 1.49046 1.57771 2
      vertex 1.49046 1.57771 -1
    endloop
  endfacet
  facet normal 0.866016 0.500016 0
    outer loop
      vertex 1.33671 1.77052 2
      vertex 1.2134 1.98409 -1
      vertex 1.2134 1.98409 2
    endloop
  endfacet
  facet normal 0.866016 0.500016 0
    outer loop
      vertex 1.2134 1.98409 -1
      vertex 1.33671 1.77052 2
      vertex 1.33671 1.77052 -1
    endloop
  endfacet
  facet normal 0.974934 0.222496 0
    outer loop
      vertex 1.1233 2.21365 2
      vertex 1.06843 2.45408 -1
      vertex 1.06843 2.45408 2
    endloop
  endfacet
  facet normal 0.974934 0.222496 0
    outer loop
      vertex 1.06843 2.45408 -1
      vertex 1.1233 2.21365 2
      vertex 1.1233 2.21365 -1
    endloop
  endfacet
  facet normal -0.930882 0.365321 0
    outer loop
      vertex 4.1866 1.98409 -1
      vertex 4.27669 2.21365 2
      vertex 4.27669 2.21365 -1
    endloop
  endfacet
  facet normal -0.930882 0.365321 0
    outer loop
      vertex 4.27669 2.21365 2
      vertex 4.1866 1.98409 -1
      vertex 4.1866 1.98409 2
    endloop
  endfacet
  facet normal 0.680174 -0.733051 0
    outer loop
      vertex 1.49046 3.82228 -1
      vertex 1.67124 3.99002 2
      vertex 1.49046 3.82228 2
    endloop
  endfacet
  facet normal 0.680174 -0.733051 0
    outer loop
      vertex 1.67124 3.99002 2
      vertex 1.49046 3.82228 -1
      vertex 1.67124 3.99002 -1
    endloop
  endfacet
  facet normal -0.680174 -0.733051 0
    outer loop
      vertex 3.72876 3.99002 -1
      vertex 3.90954 3.82228 2
      vertex 3.72876 3.99002 2
    endloop
  endfacet
  facet normal -0.680174 -0.733051 -0
    outer loop
      vertex 3.90954 3.82228 2
      vertex 3.72876 3.99002 -1
      vertex 3.90954 3.82228 -1
    endloop
  endfacet
  facet normal -0.974925 0.222534 0
    outer loop
      vertex 4.27669 2.21365 -1
      vertex 4.33157 2.45408 2
      vertex 4.33157 2.45408 -1
    endloop
  endfacet
  facet normal -0.974925 0.222534 0
    outer loop
      vertex 4.33157 2.45408 2
      vertex 4.27669 2.21365 -1
      vertex 4.27669 2.21365 2
    endloop
  endfacet
  facet normal -0.930882 -0.365321 0
    outer loop
      vertex 4.27669 3.18635 -1
      vertex 4.1866 3.41591 2
      vertex 4.1866 3.41591 -1
    endloop
  endfacet
  facet normal -0.930882 -0.365321 0
    outer loop
      vertex 4.1866 3.41591 2
      vertex 4.27669 3.18635 -1
      vertex 4.27669 3.18635 2
    endloop
  endfacet
  facet normal -0.781837 -0.623483 0
    outer loop
      vertex 4.06329 3.62948 -1
      vertex 3.90954 3.82228 2
      vertex 3.90954 3.82228 -1
    endloop
  endfacet
  facet normal -0.781837 -0.623483 0
    outer loop
      vertex 3.90954 3.82228 2
      vertex 4.06329 3.62948 -1
      vertex 4.06329 3.62948 2
    endloop
  endfacet
  facet normal 0 1 -0
    outer loop
      vertex 2.8233 1.05461 -1
      vertex 2.57669 1.05461 2
      vertex 2.8233 1.05461 2
    endloop
  endfacet
  facet normal 0 1 0
    outer loop
      vertex 2.57669 1.05461 2
      vertex 2.8233 1.05461 -1
      vertex 2.57669 1.05461 -1
    endloop
  endfacet
  facet normal -0.563317 -0.826241 0
    outer loop
      vertex 3.525 4.12894 -1
      vertex 3.72876 3.99002 2
      vertex 3.525 4.12894 2
    endloop
  endfacet
  facet normal -0.563317 -0.826241 -0
    outer loop
      vertex 3.72876 3.99002 2
      vertex 3.525 4.12894 -1
      vertex 3.72876 3.99002 -1
    endloop
  endfacet
  facet normal 0.680152 0.733071 -0
    outer loop
      vertex 1.67124 1.40998 -1
      vertex 1.49046 1.57771 2
      vertex 1.67124 1.40998 2
    endloop
  endfacet
  facet normal 0.680152 0.733071 0
    outer loop
      vertex 1.49046 1.57771 2
      vertex 1.67124 1.40998 -1
      vertex 1.49046 1.57771 -1
    endloop
  endfacet
  facet normal 0.294761 -0.955571 0
    outer loop
      vertex 2.09719 4.23594 -1
      vertex 2.33284 4.30863 2
      vertex 2.09719 4.23594 2
    endloop
  endfacet
  facet normal 0.294761 -0.955571 0
    outer loop
      vertex 2.33284 4.30863 2
      vertex 2.09719 4.23594 -1
      vertex 2.33284 4.30863 -1
    endloop
  endfacet
  facet normal 0.997204 -0.0747335 0
    outer loop
      vertex 1.05 2.7 2
      vertex 1.06843 2.94592 -1
      vertex 1.06843 2.94592 2
    endloop
  endfacet
  facet normal 0.997204 -0.0747335 0
    outer loop
      vertex 1.06843 2.94592 -1
      vertex 1.05 2.7 2
      vertex 1.05 2.7 -1
    endloop
  endfacet
  facet normal 0.563317 -0.826241 0
    outer loop
      vertex 1.67124 3.99002 -1
      vertex 1.875 4.12894 2
      vertex 1.67124 3.99002 2
    endloop
  endfacet
  facet normal 0.563317 -0.826241 0
    outer loop
      vertex 1.875 4.12894 2
      vertex 1.67124 3.99002 -1
      vertex 1.875 4.12894 -1
    endloop
  endfacet
  facet normal 0.930868 -0.365356 0
    outer loop
      vertex 1.1233 3.18635 2
      vertex 1.2134 3.41591 -1
      vertex 1.2134 3.41591 2
    endloop
  endfacet
  facet normal 0.930868 -0.365356 0
    outer loop
      vertex 1.2134 3.41591 -1
      vertex 1.1233 3.18635 2
      vertex 1.1233 3.18635 -1
    endloop
  endfacet
  facet normal -0.294761 0.955571 0
    outer loop
      vertex 3.30281 1.16406 -1
      vertex 3.06716 1.09137 2
      vertex 3.30281 1.16406 2
    endloop
  endfacet
  facet normal -0.294761 0.955571 0
    outer loop
      vertex 3.06716 1.09137 2
      vertex 3.30281 1.16406 -1
      vertex 3.06716 1.09137 -1
    endloop
  endfacet
  facet normal 0.997204 0.0747335 0
    outer loop
      vertex 1.06843 2.45408 2
      vertex 1.05 2.7 -1
      vertex 1.05 2.7 2
    endloop
  endfacet
  facet normal 0.997204 0.0747335 0
    outer loop
      vertex 1.05 2.7 -1
      vertex 1.06843 2.45408 2
      vertex 1.06843 2.45408 -1
    endloop
  endfacet
  facet normal 0.930868 0.365356 0
    outer loop
      vertex 1.2134 1.98409 2
      vertex 1.1233 2.21365 -1
      vertex 1.1233 2.21365 2
    endloop
  endfacet
  facet normal 0.930868 0.365356 0
    outer loop
      vertex 1.1233 2.21365 -1
      vertex 1.2134 1.98409 2
      vertex 1.2134 1.98409 -1
    endloop
  endfacet
  facet normal 0 -1 0
    outer loop
      vertex 2.57669 4.34539 -1
      vertex 2.8233 4.34539 2
      vertex 2.57669 4.34539 2
    endloop
  endfacet
  facet normal 0 -1 -0
    outer loop
      vertex 2.8233 4.34539 2
      vertex 2.57669 4.34539 -1
      vertex 2.8233 4.34539 -1
    endloop
  endfacet
  facet normal -0.563317 0.826241 0
    outer loop
      vertex 3.72876 1.40998 -1
      vertex 3.525 1.27106 2
      vertex 3.72876 1.40998 2
    endloop
  endfacet
  facet normal -0.563317 0.826241 0
    outer loop
      vertex 3.525 1.27106 2
      vertex 3.72876 1.40998 -1
      vertex 3.525 1.27106 -1
    endloop
  endfacet
  facet normal -0.294761 -0.955571 0
    outer loop
      vertex 3.06716 4.30863 -1
      vertex 3.30281 4.23594 2
      vertex 3.06716 4.30863 2
    endloop
  endfacet
  facet normal -0.294761 -0.955571 -0
    outer loop
      vertex 3.30281 4.23594 2
      vertex 3.06716 4.30863 -1
      vertex 3.30281 4.23594 -1
    endloop
  endfacet
  facet normal -0.43388 -0.900971 0
    outer loop
      vertex 3.30281 4.23594 -1
      vertex 3.525 4.12894 2
      vertex 3.30281 4.23594 2
    endloop
  endfacet
  facet normal -0.43388 -0.900971 -0
    outer loop
      vertex 3.525 4.12894 2
      vertex 3.30281 4.23594 -1
      vertex 3.525 4.12894 -1
    endloop
  endfacet
  facet normal 0.43388 0.900971 -0
    outer loop
      vertex 2.09719 1.16406 -1
      vertex 1.875 1.27106 2
      vertex 2.09719 1.16406 2
    endloop
  endfacet
  facet normal 0.43388 0.900971 0
    outer loop
      vertex 1.875 1.27106 2
      vertex 2.09719 1.16406 -1
      vertex 1.875 1.27106 -1
    endloop
  endfacet
  facet normal 0.43388 -0.900971 0
    outer loop
      vertex 1.875 4.12894 -1
      vertex 2.09719 4.23594 2
      vertex 1.875 4.12894 2
    endloop
  endfacet
  facet normal 0.43388 -0.900971 0
    outer loop
      vertex 2.09719 4.23594 2
      vertex 1.875 4.12894 -1
      vertex 2.09719 4.23594 -1
    endloop
  endfacet
  facet normal 0.974934 -0.222496 0
    outer loop
      vertex 1.06843 2.94592 2
      vertex 1.1233 3.18635 -1
      vertex 1.1233 3.18635 2
    endloop
  endfacet
  facet normal 0.974934 -0.222496 0
    outer loop
      vertex 1.1233 3.18635 -1
      vertex 1.06843 2.94592 2
      vertex 1.06843 2.94592 -1
    endloop
  endfacet
  facet normal 0.781837 -0.623483 0
    outer loop
      vertex 1.33671 3.62948 2
      vertex 1.49046 3.82228 -1
      vertex 1.49046 3.82228 2
    endloop
  endfacet
  facet normal 0.781837 -0.623483 0
    outer loop
      vertex 1.49046 3.82228 -1
      vertex 1.33671 3.62948 2
      vertex 1.33671 3.62948 -1
    endloop
  endfacet
  facet normal 0.149064 0.988828 -0
    outer loop
      vertex 2.57669 1.05461 -1
      vertex 2.33284 1.09137 2
      vertex 2.57669 1.05461 2
    endloop
  endfacet
  facet normal 0.149064 0.988828 0
    outer loop
      vertex 2.33284 1.09137 2
      vertex 2.57669 1.05461 -1
      vertex 2.33284 1.09137 -1
    endloop
  endfacet
endsolid OpenSCAD_Model
