solid OpenSCAD_Model
  facet normal 0 1 0
    outer loop
      vertex 3.29999 0 2.38499
      vertex 2.17 0 5
      vertex 2.95 0 5
    endloop
  endfacet
  facet normal 0 1 0
    outer loop
      vertex 2.17 0 0.899994
      vertex 3.29999 0 2.38499
      vertex 3.14 0 1.62999
    endloop
  endfacet
  facet normal 0 1 0
    outer loop
      vertex 3.29999 0 2.38499
      vertex 2.17 0 0.899994
      vertex 2.17 0 5
    endloop
  endfacet
  facet normal 0 1 -0
    outer loop
      vertex 3.7 0 -10
      vertex 2.17 0 0.899994
      vertex 3.7 0 0.839996
    endloop
  endfacet
  facet normal 0 1 0
    outer loop
      vertex 3.7 0 0.839996
      vertex 2.17 0 0.899994
      vertex 3.14 0 1.62999
    endloop
  endfacet
  facet normal 0 1 0
    outer loop
      vertex -2.17 0 5
      vertex -3.29999 0 2.38499
      vertex -2.95 0 5
    endloop
  endfacet
  facet normal 0 1 -0
    outer loop
      vertex -2.17 0 0.899994
      vertex -3.29999 0 2.38499
      vertex -2.17 0 5
    endloop
  endfacet
  facet normal 0 1 0
    outer loop
      vertex -3.29999 0 2.38499
      vertex -2.17 0 0.899994
      vertex -3.14 0 1.62999
    endloop
  endfacet
  facet normal 0 1 0
    outer loop
      vertex -2.17 0 0.899994
      vertex -3.7 0 0.839996
      vertex -3.14 0 1.62999
    endloop
  endfacet
  facet normal 0 1 0
    outer loop
      vertex 2.17 0 0.899994
      vertex 3.7 0 -10
      vertex -2.17 0 0.899994
    endloop
  endfacet
  facet normal 0 1 0
    outer loop
      vertex -3.7 0 -10
      vertex -2.17 0 0.899994
      vertex 3.7 0 -10
    endloop
  endfacet
  facet normal 0 1 0
    outer loop
      vertex -2.17 0 0.899994
      vertex -3.7 0 -10
      vertex -3.7 0 0.839996
    endloop
  endfacet
  facet normal 0 -1 0
    outer loop
      vertex -3.29999 -7.5 2.38499
      vertex -2.17 -7.5 5
      vertex -2.95 -7.5 5
    endloop
  endfacet
  facet normal 0 -1 0
    outer loop
      vertex -2.17 -7.5 0.899994
      vertex -3.29999 -7.5 2.38499
      vertex -3.14 -7.5 1.62999
    endloop
  endfacet
  facet normal 0 -1 0
    outer loop
      vertex -3.29999 -7.5 2.38499
      vertex -2.17 -7.5 0.899994
      vertex -2.17 -7.5 5
    endloop
  endfacet
  facet normal 0 -1 0
    outer loop
      vertex -3.7 -7.5 -10
      vertex -2.17 -7.5 0.899994
      vertex -3.7 -7.5 0.839996
    endloop
  endfacet
  facet normal 0 -1 0
    outer loop
      vertex -3.7 -7.5 0.839996
      vertex -2.17 -7.5 0.899994
      vertex -3.14 -7.5 1.62999
    endloop
  endfacet
  facet normal 0 -1 0
    outer loop
      vertex 2.17 -7.5 5
      vertex 3.29999 -7.5 2.38499
      vertex 2.95 -7.5 5
    endloop
  endfacet
  facet normal 0 -1 0
    outer loop
      vertex 2.17 -7.5 0.899994
      vertex 3.29999 -7.5 2.38499
      vertex 2.17 -7.5 5
    endloop
  endfacet
  facet normal 0 -1 0
    outer loop
      vertex 3.29999 -7.5 2.38499
      vertex 2.17 -7.5 0.899994
      vertex 3.14 -7.5 1.62999
    endloop
  endfacet
  facet normal 0 -1 0
    outer loop
      vertex 2.17 -7.5 0.899994
      vertex 3.7 -7.5 0.839996
      vertex 3.14 -7.5 1.62999
    endloop
  endfacet
  facet normal 0 -1 -0
    outer loop
      vertex -2.17 -7.5 0.899994
      vertex -3.7 -7.5 -10
      vertex 2.17 -7.5 0.899994
    endloop
  endfacet
  facet normal 0 -1 0
    outer loop
      vertex 3.7 -7.5 -10
      vertex 2.17 -7.5 0.899994
      vertex -3.7 -7.5 -10
    endloop
  endfacet
  facet normal 0 -1 0
    outer loop
      vertex 2.17 -7.5 0.899994
      vertex 3.7 -7.5 -10
      vertex 3.7 -7.5 0.839996
    endloop
  endfacet
  facet normal 0.815819 -0 0.578307
    outer loop
      vertex 3.14 -7.5 1.62999
      vertex 3.7 0 0.839996
      vertex 3.14 0 1.62999
    endloop
  endfacet
  facet normal 0.815819 0 0.578307
    outer loop
      vertex 3.7 0 0.839996
      vertex 3.14 -7.5 1.62999
      vertex 3.7 -7.5 0.839996
    endloop
  endfacet
  facet normal 0.978277 0 -0.207304
    outer loop
      vertex 3.29999 -7.5 2.38499
      vertex 3.14 0 1.62999
      vertex 3.29999 0 2.38499
    endloop
  endfacet
  facet normal 0.978277 0 -0.207304
    outer loop
      vertex 3.14 0 1.62999
      vertex 3.29999 -7.5 2.38499
      vertex 3.14 -7.5 1.62999
    endloop
  endfacet
  facet normal 0.991162 -0 0.132656
    outer loop
      vertex 2.95 -7.5 5
      vertex 3.29999 0 2.38499
      vertex 2.95 0 5
    endloop
  endfacet
  facet normal 0.991162 0 0.132656
    outer loop
      vertex 3.29999 0 2.38499
      vertex 2.95 -7.5 5
      vertex 3.29999 -7.5 2.38499
    endloop
  endfacet
  facet normal -0 0 1
    outer loop
      vertex 2.17 0 5
      vertex 2.95 -7.5 5
      vertex 2.95 0 5
    endloop
  endfacet
  facet normal 0 0 1
    outer loop
      vertex 2.95 -7.5 5
      vertex 2.17 0 5
      vertex 2.17 -7.5 5
    endloop
  endfacet
  facet normal -1 0 0
    outer loop
      vertex 2.17 -7.5 0.899994
      vertex 2.17 0 5
      vertex 2.17 0 0.899994
    endloop
  endfacet
  facet normal -1 -0 0
    outer loop
      vertex 2.17 0 5
      vertex 2.17 -7.5 0.899994
      vertex 2.17 -7.5 5
    endloop
  endfacet
  facet normal -0 0 1
    outer loop
      vertex -2.17 0 0.899994
      vertex 2.17 -7.5 0.899994
      vertex 2.17 0 0.899994
    endloop
  endfacet
  facet normal 0 0 1
    outer loop
      vertex 2.17 -7.5 0.899994
      vertex -2.17 0 0.899994
      vertex -2.17 -7.5 0.899994
    endloop
  endfacet
  facet normal 0 0 -1
    outer loop
      vertex -3.7 -7.5 -10
      vertex 3.7 0 -10
      vertex 3.7 -7.5 -10
    endloop
  endfacet
  facet normal -0 0 -1
    outer loop
      vertex 3.7 0 -10
      vertex -3.7 -7.5 -10
      vertex -3.7 0 -10
    endloop
  endfacet
  facet normal 1 -0 0
    outer loop
      vertex 3.7 -7.5 0.839996
      vertex 3.7 0 -10
      vertex 3.7 0 0.839996
    endloop
  endfacet
  facet normal 1 0 0
    outer loop
      vertex 3.7 0 -10
      vertex 3.7 -7.5 0.839996
      vertex 3.7 -7.5 -10
    endloop
  endfacet
  facet normal -0.815819 0 0.578307
    outer loop
      vertex -3.7 -7.5 0.839996
      vertex -3.14 0 1.62999
      vertex -3.7 0 0.839996
    endloop
  endfacet
  facet normal -0.815819 0 0.578307
    outer loop
      vertex -3.14 0 1.62999
      vertex -3.7 -7.5 0.839996
      vertex -3.14 -7.5 1.62999
    endloop
  endfacet
  facet normal -0.978277 0 -0.207304
    outer loop
      vertex -3.14 -7.5 1.62999
      vertex -3.29999 0 2.38499
      vertex -3.14 0 1.62999
    endloop
  endfacet
  facet normal -0.978277 -0 -0.207304
    outer loop
      vertex -3.29999 0 2.38499
      vertex -3.14 -7.5 1.62999
      vertex -3.29999 -7.5 2.38499
    endloop
  endfacet
  facet normal -0.991162 0 0.132656
    outer loop
      vertex -3.29999 -7.5 2.38499
      vertex -2.95 0 5
      vertex -3.29999 0 2.38499
    endloop
  endfacet
  facet normal -0.991162 0 0.132656
    outer loop
      vertex -2.95 0 5
      vertex -3.29999 -7.5 2.38499
      vertex -2.95 -7.5 5
    endloop
  endfacet
  facet normal -0 0 1
    outer loop
      vertex -2.95 0 5
      vertex -2.17 -7.5 5
      vertex -2.17 0 5
    endloop
  endfacet
  facet normal 0 0 1
    outer loop
      vertex -2.17 -7.5 5
      vertex -2.95 0 5
      vertex -2.95 -7.5 5
    endloop
  endfacet
  facet normal 1 -0 0
    outer loop
      vertex -2.17 -7.5 5
      vertex -2.17 0 0.899994
      vertex -2.17 0 5
    endloop
  endfacet
  facet normal 1 0 0
    outer loop
      vertex -2.17 0 0.899994
      vertex -2.17 -7.5 5
      vertex -2.17 -7.5 0.899994
    endloop
  endfacet
  facet normal -1 0 0
    outer loop
      vertex -3.7 -7.5 -10
      vertex -3.7 0 0.839996
      vertex -3.7 0 -10
    endloop
  endfacet
  facet normal -1 -0 0
    outer loop
      vertex -3.7 0 0.839996
      vertex -3.7 -7.5 -10
      vertex -3.7 -7.5 0.839996
    endloop
  endfacet
endsolid OpenSCAD_Model
