solid OpenSCAD_Model
  facet normal 0 0 -1
    outer loop
      vertex 2.17 0.899994 0
      vertex 3.7 0.839996 0
      vertex 3.7 -10 0
    endloop
  endfacet
  facet normal 0 0 -1
    outer loop
      vertex 3.7 0.839996 0
      vertex 2.17 0.899994 0
      vertex 3.14 1.62999 0
    endloop
  endfacet
  facet normal 0 0 -1
    outer loop
      vertex 2.17 5 0
      vertex 3.14 1.62999 0
      vertex 2.17 0.899994 0
    endloop
  endfacet
  facet normal 0 0 -1
    outer loop
      vertex 3.7 -10 0
      vertex -2.17 0.899994 0
      vertex 2.17 0.899994 0
    endloop
  endfacet
  facet normal 0 0 -1
    outer loop
      vertex -3.29999 2.38499 0
      vertex -2.17 5 0
      vertex -2.17 0.899994 0
    endloop
  endfacet
  facet normal 0 0 -1
    outer loop
      vertex -3.29999 2.38499 0
      vertex -2.17 0.899994 0
      vertex -3.14 1.62999 0
    endloop
  endfacet
  facet normal 0 0 -1
    outer loop
      vertex -3.7 -10 0
      vertex -2.17 0.899994 0
      vertex 3.7 -10 0
    endloop
  endfacet
  facet normal 0 0 -1
    outer loop
      vertex -2.17 0.899994 0
      vertex -3.7 -10 0
      vertex -3.7 0.839996 0
    endloop
  endfacet
  facet normal -0 0 -1
    outer loop
      vertex -2.17 0.899994 0
      vertex -3.7 0.839996 0
      vertex -3.14 1.62999 0
    endloop
  endfacet
  facet normal -0 0 -1
    outer loop
      vertex 3.29999 2.38499 0
      vertex 3.14 1.62999 0
      vertex 2.95 5 0
    endloop
  endfacet
  facet normal 0 0 -1
    outer loop
      vertex 3.14 1.62999 0
      vertex 2.17 5 0
      vertex 2.95 5 0
    endloop
  endfacet
  facet normal -0 0 -1
    outer loop
      vertex -2.17 5 0
      vertex -3.29999 2.38499 0
      vertex -2.95 5 0
    endloop
  endfacet
  facet normal 0 0 1
    outer loop
      vertex -3.29999 2.38499 5
      vertex -2.17 5 5
      vertex -2.95 5 5
    endloop
  endfacet
  facet normal -0 0 1
    outer loop
      vertex 2.17 5 5
      vertex 3.29999 2.38499 5
      vertex 2.95 5 5
    endloop
  endfacet
  facet normal -0 0 1
    outer loop
      vertex 2.17 0.899994 5
      vertex 3.7 0.839996 5
      vertex 3.14 1.62999 5
    endloop
  endfacet
  facet normal 0 0 1
    outer loop
      vertex 2.17 0.899994 5
      vertex 3.29999 2.38499 5
      vertex 2.17 5 5
    endloop
  endfacet
  facet normal 0 0 1
    outer loop
      vertex 3.29999 2.38499 5
      vertex 2.17 0.899994 5
      vertex 3.14 1.62999 5
    endloop
  endfacet
  facet normal 0 0 1
    outer loop
      vertex 3.7 0.839996 5
      vertex 2.17 0.899994 5
      vertex 3.7 -10 5
    endloop
  endfacet
  facet normal -0 0 1
    outer loop
      vertex -2.17 0.899994 5
      vertex 3.7 -10 5
      vertex 2.17 0.899994 5
    endloop
  endfacet
  facet normal 0 0 1
    outer loop
      vertex -2.17 5 5
      vertex -3.29999 2.38499 5
      vertex -2.17 0.899994 5
    endloop
  endfacet
  facet normal 0 0 1
    outer loop
      vertex -3.7 0.839996 5
      vertex -2.17 0.899994 5
      vertex -3.14 1.62999 5
    endloop
  endfacet
  facet normal 0 0 1
    outer loop
      vertex -3.7 -10 5
      vertex -2.17 0.899994 5
      vertex -3.7 0.839996 5
    endloop
  endfacet
  facet normal 0 0 1
    outer loop
      vertex -2.17 0.899994 5
      vertex -3.7 -10 5
      vertex 3.7 -10 5
    endloop
  endfacet
  facet normal 0 0 1
    outer loop
      vertex -2.17 0.899994 5
      vertex -3.29999 2.38499 5
      vertex -3.14 1.62999 5
    endloop
  endfacet
  facet normal 0.815819 0.578307 0
    outer loop
      vertex 3.7 0.839996 5
      vertex 3.14 1.62999 0
      vertex 3.14 1.62999 5
    endloop
  endfacet
  facet normal 0.815819 0.578307 0
    outer loop
      vertex 3.14 1.62999 0
      vertex 3.7 0.839996 5
      vertex 3.7 0.839996 0
    endloop
  endfacet
  facet normal 0.978277 -0.207304 0
    outer loop
      vertex 3.14 1.62999 5
      vertex 3.29999 2.38499 0
      vertex 3.29999 2.38499 5
    endloop
  endfacet
  facet normal 0.978277 -0.207304 0
    outer loop
      vertex 3.29999 2.38499 0
      vertex 3.14 1.62999 5
      vertex 3.14 1.62999 0
    endloop
  endfacet
  facet normal 0.991162 0.132656 0
    outer loop
      vertex 3.29999 2.38499 5
      vertex 2.95 5 0
      vertex 2.95 5 5
    endloop
  endfacet
  facet normal 0.991162 0.132656 0
    outer loop
      vertex 2.95 5 0
      vertex 3.29999 2.38499 5
      vertex 3.29999 2.38499 0
    endloop
  endfacet
  facet normal 0 1 -0
    outer loop
      vertex 2.95 5 0
      vertex 2.17 5 5
      vertex 2.95 5 5
    endloop
  endfacet
  facet normal 0 1 0
    outer loop
      vertex 2.17 5 5
      vertex 2.95 5 0
      vertex 2.17 5 0
    endloop
  endfacet
  facet normal -1 0 0
    outer loop
      vertex 2.17 0.899994 0
      vertex 2.17 5 5
      vertex 2.17 5 0
    endloop
  endfacet
  facet normal -1 -0 0
    outer loop
      vertex 2.17 5 5
      vertex 2.17 0.899994 0
      vertex 2.17 0.899994 5
    endloop
  endfacet
  facet normal 0 1 -0
    outer loop
      vertex 2.17 0.899994 0
      vertex -2.17 0.899994 5
      vertex 2.17 0.899994 5
    endloop
  endfacet
  facet normal 0 1 0
    outer loop
      vertex -2.17 0.899994 5
      vertex 2.17 0.899994 0
      vertex -2.17 0.899994 0
    endloop
  endfacet
  facet normal 0 -1 0
    outer loop
      vertex -3.7 -10 0
      vertex 3.7 -10 5
      vertex -3.7 -10 5
    endloop
  endfacet
  facet normal 0 -1 -0
    outer loop
      vertex 3.7 -10 5
      vertex -3.7 -10 0
      vertex 3.7 -10 0
    endloop
  endfacet
  facet normal 1 -0 0
    outer loop
      vertex 3.7 -10 5
      vertex 3.7 0.839996 0
      vertex 3.7 0.839996 5
    endloop
  endfacet
  facet normal 1 0 0
    outer loop
      vertex 3.7 0.839996 0
      vertex 3.7 -10 5
      vertex 3.7 -10 0
    endloop
  endfacet
  facet normal -0.815819 0.578307 0
    outer loop
      vertex -3.7 0.839996 0
      vertex -3.14 1.62999 5
      vertex -3.14 1.62999 0
    endloop
  endfacet
  facet normal -0.815819 0.578307 0
    outer loop
      vertex -3.14 1.62999 5
      vertex -3.7 0.839996 0
      vertex -3.7 0.839996 5
    endloop
  endfacet
  facet normal -0.978277 -0.207304 0
    outer loop
      vertex -3.14 1.62999 0
      vertex -3.29999 2.38499 5
      vertex -3.29999 2.38499 0
    endloop
  endfacet
  facet normal -0.978277 -0.207304 0
    outer loop
      vertex -3.29999 2.38499 5
      vertex -3.14 1.62999 0
      vertex -3.14 1.62999 5
    endloop
  endfacet
  facet normal -0.991162 0.132656 0
    outer loop
      vertex -3.29999 2.38499 0
      vertex -2.95 5 5
      vertex -2.95 5 0
    endloop
  endfacet
  facet normal -0.991162 0.132656 0
    outer loop
      vertex -2.95 5 5
      vertex -3.29999 2.38499 0
      vertex -3.29999 2.38499 5
    endloop
  endfacet
  facet normal 0 1 -0
    outer loop
      vertex -2.17 5 0
      vertex -2.95 5 5
      vertex -2.17 5 5
    endloop
  endfacet
  facet normal 0 1 0
    outer loop
      vertex -2.95 5 5
      vertex -2.17 5 0
      vertex -2.95 5 0
    endloop
  endfacet
  facet normal 1 -0 0
    outer loop
      vertex -2.17 0.899994 5
      vertex -2.17 5 0
      vertex -2.17 5 5
    endloop
  endfacet
  facet normal 1 0 0
    outer loop
      vertex -2.17 5 0
      vertex -2.17 0.899994 5
      vertex -2.17 0.899994 0
    endloop
  endfacet
  facet normal -1 0 0
    outer loop
      vertex -3.7 -10 0
      vertex -3.7 0.839996 5
      vertex -3.7 0.839996 0
    endloop
  endfacet
  facet normal -1 -0 0
    outer loop
      vertex -3.7 0.839996 5
      vertex -3.7 -10 0
      vertex -3.7 -10 5
    endloop
  endfacet
endsolid OpenSCAD_Model
