solid OpenSCAD_Model
  facet normal 0 -1 0
    outer loop
      vertex 80.4 75 -43.6
      vertex 88.99 75 -38.24
      vertex 80.4 75 -38.24
    endloop
  endfacet
  facet normal 0 -1 -0
    outer loop
      vertex 88.99 75 -38.24
      vertex 80.4 75 -43.6
      vertex 88.99 75 -43.6
    endloop
  endfacet
  facet normal -1.26343e-14 -0.707107 -0.707107
    outer loop
      vertex 80.4 75.4 -44
      vertex 80.4 75 -43.6
      vertex 80.2 75.2 -43.8
    endloop
  endfacet
  facet normal 0 -0.707107 -0.707107
    outer loop
      vertex 80.4 75 -43.6
      vertex 80.4 75.4 -44
      vertex 88.99 75 -43.6
    endloop
  endfacet
  facet normal 0 -0.707107 -0.707107
    outer loop
      vertex 88.99 75 -43.6
      vertex 80.4 75.4 -44
      vertex 88.99 75.4 -44
    endloop
  endfacet
  facet normal -1 0 0
    outer loop
      vertex 80 95.01 -43.6
      vertex 80 83.24 -42.24
      vertex 80 95.01 -42.24
    endloop
  endfacet
  facet normal -1 0 0
    outer loop
      vertex 80 75.4 -43.6
      vertex 80 83.24 -42.24
      vertex 80 95.01 -43.6
    endloop
  endfacet
  facet normal -1 0 0
    outer loop
      vertex 80 75.4 -38.24
      vertex 80 83.24 -42.24
      vertex 80 75.4 -43.6
    endloop
  endfacet
  facet normal -1 0 0
    outer loop
      vertex 80 83.24 -42.24
      vertex 80 75.4 -38.24
      vertex 80 83.24 -38.24
    endloop
  endfacet
  facet normal 0 0 -1
    outer loop
      vertex 86.2202 81.7406 -44
      vertex 86.7591 83.765 -44
      vertex 86.7634 81.427 -44
    endloop
  endfacet
  facet normal 0 0 -1
    outer loop
      vertex 85.6237 81.9344 -44
      vertex 86.7591 83.765 -44
      vertex 86.2202 81.7406 -44
    endloop
  endfacet
  facet normal 0 0 -1
    outer loop
      vertex 85 82 -44
      vertex 86.7591 83.765 -44
      vertex 85.6237 81.9344 -44
    endloop
  endfacet
  facet normal 0 0 -1
    outer loop
      vertex 83.6209 83.765 -44
      vertex 85 82 -44
      vertex 84.3763 81.9344 -44
    endloop
  endfacet
  facet normal 0 0 -1
    outer loop
      vertex 83.6209 83.765 -44
      vertex 84.3763 81.9344 -44
      vertex 83.7798 81.7406 -44
    endloop
  endfacet
  facet normal 0 0 -1
    outer loop
      vertex 85 82 -44
      vertex 83.6209 83.765 -44
      vertex 86.7591 83.765 -44
    endloop
  endfacet
  facet normal 0 0 -1
    outer loop
      vertex 82.7706 81.0074 -44
      vertex 83.6209 83.765 -44
      vertex 83.2366 81.427 -44
    endloop
  endfacet
  facet normal 0 0 -1
    outer loop
      vertex 83.2366 81.427 -44
      vertex 83.6209 83.765 -44
      vertex 83.7798 81.7406 -44
    endloop
  endfacet
  facet normal 0 0 -1
    outer loop
      vertex 87.9836 79.3136 -44
      vertex 88.99 75.4 -44
      vertex 87.9836 78.6864 -44
    endloop
  endfacet
  facet normal 0 0 -1
    outer loop
      vertex 88.99 75.4 -44
      vertex 87.8532 78.073 -44
      vertex 87.9836 78.6864 -44
    endloop
  endfacet
  facet normal 0 0 -1
    outer loop
      vertex 88.99 75.4 -44
      vertex 87.5981 77.5 -44
      vertex 87.8532 78.073 -44
    endloop
  endfacet
  facet normal 0 0 -1
    outer loop
      vertex 88.99 75.4 -44
      vertex 87.2294 76.9926 -44
      vertex 87.5981 77.5 -44
    endloop
  endfacet
  facet normal 0 0 -1
    outer loop
      vertex 88.99 75.4 -44
      vertex 86.7634 76.573 -44
      vertex 87.2294 76.9926 -44
    endloop
  endfacet
  facet normal 0 0 -1
    outer loop
      vertex 88.99 75.4 -44
      vertex 86.2202 76.2594 -44
      vertex 86.7634 76.573 -44
    endloop
  endfacet
  facet normal 0 0 -1
    outer loop
      vertex 88.99 75.4 -44
      vertex 85.6237 76.0656 -44
      vertex 86.2202 76.2594 -44
    endloop
  endfacet
  facet normal 0 0 -1
    outer loop
      vertex 88.99 75.4 -44
      vertex 85 76 -44
      vertex 85.6237 76.0656 -44
    endloop
  endfacet
  facet normal 0 0 -1
    outer loop
      vertex 80.4 75.4 -44
      vertex 85 76 -44
      vertex 88.99 75.4 -44
    endloop
  endfacet
  facet normal -0 0 -1
    outer loop
      vertex 82.0164 78.6864 -44
      vertex 80.4 75.4 -44
      vertex 82.0164 79.3136 -44
    endloop
  endfacet
  facet normal -0 0 -1
    outer loop
      vertex 82.1468 78.073 -44
      vertex 80.4 75.4 -44
      vertex 82.0164 78.6864 -44
    endloop
  endfacet
  facet normal -0 0 -1
    outer loop
      vertex 82.4019 77.5 -44
      vertex 80.4 75.4 -44
      vertex 82.1468 78.073 -44
    endloop
  endfacet
  facet normal -0 0 -1
    outer loop
      vertex 82.7706 76.9926 -44
      vertex 80.4 75.4 -44
      vertex 82.4019 77.5 -44
    endloop
  endfacet
  facet normal -0 0 -1
    outer loop
      vertex 83.2366 76.573 -44
      vertex 80.4 75.4 -44
      vertex 82.7706 76.9926 -44
    endloop
  endfacet
  facet normal -0 0 -1
    outer loop
      vertex 83.7798 76.2594 -44
      vertex 80.4 75.4 -44
      vertex 83.2366 76.573 -44
    endloop
  endfacet
  facet normal -0 0 -1
    outer loop
      vertex 84.3763 76.0656 -44
      vertex 80.4 75.4 -44
      vertex 83.7798 76.2594 -44
    endloop
  endfacet
  facet normal -0 0 -1
    outer loop
      vertex 85 76 -44
      vertex 80.4 75.4 -44
      vertex 84.3763 76.0656 -44
    endloop
  endfacet
  facet normal 0 0 -1
    outer loop
      vertex 88.99 75.4 -44
      vertex 87.9836 79.3136 -44
      vertex 88.99 95.01 -44
    endloop
  endfacet
  facet normal 0 0 -1
    outer loop
      vertex 87.8532 79.927 -44
      vertex 88.99 95.01 -44
      vertex 87.9836 79.3136 -44
    endloop
  endfacet
  facet normal 0 0 -1
    outer loop
      vertex 86.7591 83.765 -44
      vertex 87.8532 79.927 -44
      vertex 87.5981 80.5 -44
    endloop
  endfacet
  facet normal 0 0 -1
    outer loop
      vertex 86.7591 83.765 -44
      vertex 87.5981 80.5 -44
      vertex 87.2294 81.0074 -44
    endloop
  endfacet
  facet normal 0 0 -1
    outer loop
      vertex 86.7591 83.765 -44
      vertex 87.2294 81.0074 -44
      vertex 86.7634 81.427 -44
    endloop
  endfacet
  facet normal 0 0 -1
    outer loop
      vertex 87.8532 79.927 -44
      vertex 86.7591 83.765 -44
      vertex 86.7591 86.885 -44
    endloop
  endfacet
  facet normal 0 0 -1
    outer loop
      vertex 87.8532 79.927 -44
      vertex 86.7591 86.885 -44
      vertex 88.99 95.01 -44
    endloop
  endfacet
  facet normal 0 0 -1
    outer loop
      vertex 83.6209 86.885 -44
      vertex 88.99 95.01 -44
      vertex 86.7591 86.885 -44
    endloop
  endfacet
  facet normal 0 0 -1
    outer loop
      vertex 82.4019 80.5 -44
      vertex 83.6209 83.765 -44
      vertex 82.7706 81.0074 -44
    endloop
  endfacet
  facet normal -0 0 -1
    outer loop
      vertex 83.6209 83.765 -44
      vertex 82.4019 80.5 -44
      vertex 83.6209 86.885 -44
    endloop
  endfacet
  facet normal 0 0 -1
    outer loop
      vertex 80.4 95.01 -44
      vertex 82.4019 80.5 -44
      vertex 82.1468 79.927 -44
    endloop
  endfacet
  facet normal 0 0 -1
    outer loop
      vertex 80.4 75.4 -44
      vertex 82.1468 79.927 -44
      vertex 82.0164 79.3136 -44
    endloop
  endfacet
  facet normal -0 0 -1
    outer loop
      vertex 82.1468 79.927 -44
      vertex 80.4 75.4 -44
      vertex 80.4 95.01 -44
    endloop
  endfacet
  facet normal 0 0 -1
    outer loop
      vertex 83.6209 86.885 -44
      vertex 80.4 95.01 -44
      vertex 88.99 95.01 -44
    endloop
  endfacet
  facet normal 0 0 -1
    outer loop
      vertex 82.4019 80.5 -44
      vertex 80.4 95.01 -44
      vertex 83.6209 86.885 -44
    endloop
  endfacet
  facet normal -0.707107 0 -0.707107
    outer loop
      vertex 80.4 75.4 -44
      vertex 80 95.01 -43.6
      vertex 80.4 95.01 -44
    endloop
  endfacet
  facet normal -0.707107 0 -0.707107
    outer loop
      vertex 80.4 75.4 -44
      vertex 80 75.4 -43.6
      vertex 80 95.01 -43.6
    endloop
  endfacet
  facet normal -0.707107 -1.25117e-14 -0.707107
    outer loop
      vertex 80 75.4 -43.6
      vertex 80.4 75.4 -44
      vertex 80.2 75.2 -43.8
    endloop
  endfacet
  facet normal -0.707107 -0.707107 0
    outer loop
      vertex 80 75.4 -43.6
      vertex 80.4 75 -38.24
      vertex 80 75.4 -38.24
    endloop
  endfacet
  facet normal -0.707107 -0.707107 0
    outer loop
      vertex 80 75.4 -43.6
      vertex 80.4 75 -43.6
      vertex 80.4 75 -38.24
    endloop
  endfacet
  facet normal -0.707107 -0.707107 0
    outer loop
      vertex 80.4 75 -43.6
      vertex 80 75.4 -43.6
      vertex 80.2 75.2 -43.8
    endloop
  endfacet
  facet normal 0 -1 0
    outer loop
      vertex 83.6209 86.885 -44
      vertex 87.409 86.885 -43.2782
      vertex 82.971 86.885 -43.2782
    endloop
  endfacet
  facet normal 0 -1 0
    outer loop
      vertex 87.409 86.885 -43.2782
      vertex 83.6209 86.885 -44
      vertex 86.7591 86.885 -44
    endloop
  endfacet
  facet normal 0 1 0
    outer loop
      vertex 86.7591 83.765 -44
      vertex 87.52 83.765 -42.24
      vertex 87.52 83.765 -43.155
    endloop
  endfacet
  facet normal 0 1 0
    outer loop
      vertex 87.52 83.765 -42.24
      vertex 86.7591 83.765 -44
      vertex 82.86 83.765 -42.24
    endloop
  endfacet
  facet normal 0 1 -0
    outer loop
      vertex 83.6209 83.765 -44
      vertex 82.86 83.765 -42.24
      vertex 86.7591 83.765 -44
    endloop
  endfacet
  facet normal 0 1 0
    outer loop
      vertex 82.86 83.765 -42.24
      vertex 83.6209 83.765 -44
      vertex 82.86 83.765 -43.155
    endloop
  endfacet
  facet normal -0.743151 0 0.669124
    outer loop
      vertex 86.7591 86.885 -44
      vertex 87.409 86.875 -43.2782
      vertex 87.409 86.885 -43.2782
    endloop
  endfacet
  facet normal -0.743151 0 0.669124
    outer loop
      vertex 86.7591 83.765 -44
      vertex 87.409 86.875 -43.2782
      vertex 86.7591 86.885 -44
    endloop
  endfacet
  facet normal -0.743119 -1.47382e-05 0.669159
    outer loop
      vertex 87.52 83.765 -43.155
      vertex 87.409 86.875 -43.2782
      vertex 86.7591 83.765 -44
    endloop
  endfacet
  facet normal -0.742934 0 0.669364
    outer loop
      vertex 87.409 86.875 -43.2782
      vertex 87.52 83.765 -43.155
      vertex 87.52 86.875 -43.155
    endloop
  endfacet
  facet normal -1 0 0
    outer loop
      vertex 87.52 86.875 -43.155
      vertex 87.52 91.02 -43.2782
      vertex 87.52 86.875 -43.2782
    endloop
  endfacet
  facet normal -1 0 0
    outer loop
      vertex 87.52 91.02 -43.2782
      vertex 87.52 86.875 -43.155
      vertex 87.52 91.02 -42.24
    endloop
  endfacet
  facet normal -1 0 0
    outer loop
      vertex 87.52 83.765 -42.24
      vertex 87.52 86.875 -43.155
      vertex 87.52 83.765 -43.155
    endloop
  endfacet
  facet normal -1 0 0
    outer loop
      vertex 87.52 86.875 -43.155
      vertex 87.52 83.765 -42.24
      vertex 87.52 91.02 -42.24
    endloop
  endfacet
  facet normal 1 0 0
    outer loop
      vertex 82.86 91.02 -42.24
      vertex 82.86 86.875 -43.155
      vertex 82.86 91.02 -43.2782
    endloop
  endfacet
  facet normal 1 -0 0
    outer loop
      vertex 82.86 83.765 -42.24
      vertex 82.86 86.875 -43.155
      vertex 82.86 91.02 -42.24
    endloop
  endfacet
  facet normal 1 0 0
    outer loop
      vertex 82.86 86.875 -43.155
      vertex 82.86 83.765 -42.24
      vertex 82.86 83.765 -43.155
    endloop
  endfacet
  facet normal 1 0 0
    outer loop
      vertex 82.86 91.02 -43.2782
      vertex 82.86 86.875 -43.155
      vertex 82.86 86.875 -43.2782
    endloop
  endfacet
  facet normal 0.742934 0 0.669364
    outer loop
      vertex 82.86 86.875 -43.155
      vertex 82.86 83.765 -43.155
      vertex 82.971 86.875 -43.2782
    endloop
  endfacet
  facet normal 0.743151 -0 0.669124
    outer loop
      vertex 82.971 86.875 -43.2782
      vertex 83.6209 86.885 -44
      vertex 82.971 86.885 -43.2782
    endloop
  endfacet
  facet normal 0.743119 -1.47382e-05 0.669159
    outer loop
      vertex 83.6209 83.765 -44
      vertex 82.971 86.875 -43.2782
      vertex 82.86 83.765 -43.155
    endloop
  endfacet
  facet normal 0.743151 0 0.669124
    outer loop
      vertex 82.971 86.875 -43.2782
      vertex 83.6209 83.765 -44
      vertex 83.6209 86.885 -44
    endloop
  endfacet
  facet normal 0 -1 0
    outer loop
      vertex 82.86 91.02 -43.2782
      vertex 87.52 91.02 -42.24
      vertex 82.86 91.02 -42.24
    endloop
  endfacet
  facet normal 0 -1 -0
    outer loop
      vertex 87.52 91.02 -42.24
      vertex 82.86 91.02 -43.2782
      vertex 87.52 91.02 -43.2782
    endloop
  endfacet
  facet normal 0 0 1
    outer loop
      vertex 87.52 91.02 -43.2782
      vertex 87.409 86.885 -43.2782
      vertex 87.52 86.875 -43.2782
    endloop
  endfacet
  facet normal 0 0 1
    outer loop
      vertex 87.52 91.02 -43.2782
      vertex 82.971 86.885 -43.2782
      vertex 87.409 86.885 -43.2782
    endloop
  endfacet
  facet normal -0 0 1
    outer loop
      vertex 82.86 91.02 -43.2782
      vertex 82.971 86.885 -43.2782
      vertex 87.52 91.02 -43.2782
    endloop
  endfacet
  facet normal 0 0 1
    outer loop
      vertex 82.86 86.875 -43.2782
      vertex 82.971 86.885 -43.2782
      vertex 82.86 91.02 -43.2782
    endloop
  endfacet
  facet normal 0 0 1
    outer loop
      vertex 82.971 86.885 -43.2782
      vertex 82.86 86.875 -43.2782
      vertex 82.971 86.875 -43.2782
    endloop
  endfacet
  facet normal 0 0 1
    outer loop
      vertex 87.52 86.875 -43.2782
      vertex 87.409 86.885 -43.2782
      vertex 87.409 86.875 -43.2782
    endloop
  endfacet
  facet normal 0 1 0
    outer loop
      vertex 82.86 86.875 -43.155
      vertex 82.971 86.875 -43.2782
      vertex 82.86 86.875 -43.2782
    endloop
  endfacet
  facet normal 0 1 0
    outer loop
      vertex 87.52 86.875 -43.155
      vertex 87.52 86.875 -43.2782
      vertex 87.409 86.875 -43.2782
    endloop
  endfacet
  facet normal 0.454044 -0.890979 0
    outer loop
      vertex 84.0008 80.3753 -39.6
      vertex 84.4747 80.6168 -38.24
      vertex 84.0008 80.3753 -38.24
    endloop
  endfacet
  facet normal 0.454044 -0.890979 0
    outer loop
      vertex 84.4747 80.6168 -38.24
      vertex 84.0008 80.3753 -39.6
      vertex 84.4747 80.6168 -39.6
    endloop
  endfacet
  facet normal 0.156436 -0.987688 0
    outer loop
      vertex 84.4747 80.6168 -39.6
      vertex 85 80.7 -38.24
      vertex 84.4747 80.6168 -38.24
    endloop
  endfacet
  facet normal 0.156436 -0.987688 0
    outer loop
      vertex 85 80.7 -38.24
      vertex 84.4747 80.6168 -39.6
      vertex 85 80.7 -39.6
    endloop
  endfacet
  facet normal 0.707107 -0.707107 0
    outer loop
      vertex 83.6247 79.9992 -38.24
      vertex 84.0008 80.3753 -39.6
      vertex 84.0008 80.3753 -38.24
    endloop
  endfacet
  facet normal 0.707107 -0.707107 0
    outer loop
      vertex 84.0008 80.3753 -39.6
      vertex 83.6247 79.9992 -38.24
      vertex 83.6247 79.9992 -39.6
    endloop
  endfacet
  facet normal -0.987688 -0.156436 0
    outer loop
      vertex 86.7 79 -39.6
      vertex 86.6168 79.5253 -38.24
      vertex 86.6168 79.5253 -39.6
    endloop
  endfacet
  facet normal -0.987688 -0.156436 0
    outer loop
      vertex 86.6168 79.5253 -38.24
      vertex 86.7 79 -39.6
      vertex 86.7 79 -38.24
    endloop
  endfacet
  facet normal 0.890979 0.454044 0
    outer loop
      vertex 83.6247 78.0008 -38.24
      vertex 83.3832 78.4747 -39.6
      vertex 83.3832 78.4747 -38.24
    endloop
  endfacet
  facet normal 0.890979 0.454044 0
    outer loop
      vertex 83.3832 78.4747 -39.6
      vertex 83.6247 78.0008 -38.24
      vertex 83.6247 78.0008 -39.6
    endloop
  endfacet
  facet normal -0.890979 -0.454044 0
    outer loop
      vertex 86.6168 79.5253 -39.6
      vertex 86.3753 79.9992 -38.24
      vertex 86.3753 79.9992 -39.6
    endloop
  endfacet
  facet normal -0.890979 -0.454044 0
    outer loop
      vertex 86.3753 79.9992 -38.24
      vertex 86.6168 79.5253 -39.6
      vertex 86.6168 79.5253 -38.24
    endloop
  endfacet
  facet normal -0.707107 -0.707107 0
    outer loop
      vertex 86.3753 79.9992 -39.6
      vertex 85.9992 80.3753 -38.24
      vertex 85.9992 80.3753 -39.6
    endloop
  endfacet
  facet normal -0.707107 -0.707107 0
    outer loop
      vertex 85.9992 80.3753 -38.24
      vertex 86.3753 79.9992 -39.6
      vertex 86.3753 79.9992 -38.24
    endloop
  endfacet
  facet normal -0.987688 0.156436 0
    outer loop
      vertex 86.6168 78.4747 -39.6
      vertex 86.7 79 -38.24
      vertex 86.7 79 -39.6
    endloop
  endfacet
  facet normal -0.987688 0.156436 0
    outer loop
      vertex 86.7 79 -38.24
      vertex 86.6168 78.4747 -39.6
      vertex 86.6168 78.4747 -38.24
    endloop
  endfacet
  facet normal 0.454044 0.890979 -0
    outer loop
      vertex 84.4747 77.3832 -39.6
      vertex 84.0008 77.6247 -38.24
      vertex 84.4747 77.3832 -38.24
    endloop
  endfacet
  facet normal 0.454044 0.890979 0
    outer loop
      vertex 84.0008 77.6247 -38.24
      vertex 84.4747 77.3832 -39.6
      vertex 84.0008 77.6247 -39.6
    endloop
  endfacet
  facet normal -0.156436 -0.987688 0
    outer loop
      vertex 85 80.7 -39.6
      vertex 85.5253 80.6168 -38.24
      vertex 85 80.7 -38.24
    endloop
  endfacet
  facet normal -0.156436 -0.987688 -0
    outer loop
      vertex 85.5253 80.6168 -38.24
      vertex 85 80.7 -39.6
      vertex 85.5253 80.6168 -39.6
    endloop
  endfacet
  facet normal 0.156436 0.987688 -0
    outer loop
      vertex 85 77.3 -39.6
      vertex 84.4747 77.3832 -38.24
      vertex 85 77.3 -38.24
    endloop
  endfacet
  facet normal 0.156436 0.987688 0
    outer loop
      vertex 84.4747 77.3832 -38.24
      vertex 85 77.3 -39.6
      vertex 84.4747 77.3832 -39.6
    endloop
  endfacet
  facet normal -0.454044 -0.890979 0
    outer loop
      vertex 85.5253 80.6168 -39.6
      vertex 85.9992 80.3753 -38.24
      vertex 85.5253 80.6168 -38.24
    endloop
  endfacet
  facet normal -0.454044 -0.890979 -0
    outer loop
      vertex 85.9992 80.3753 -38.24
      vertex 85.5253 80.6168 -39.6
      vertex 85.9992 80.3753 -39.6
    endloop
  endfacet
  facet normal 0.987688 -0.156436 0
    outer loop
      vertex 83.3 79 -38.24
      vertex 83.3832 79.5253 -39.6
      vertex 83.3832 79.5253 -38.24
    endloop
  endfacet
  facet normal 0.987688 -0.156436 0
    outer loop
      vertex 83.3832 79.5253 -39.6
      vertex 83.3 79 -38.24
      vertex 83.3 79 -39.6
    endloop
  endfacet
  facet normal 0.890979 -0.454044 0
    outer loop
      vertex 83.3832 79.5253 -38.24
      vertex 83.6247 79.9992 -39.6
      vertex 83.6247 79.9992 -38.24
    endloop
  endfacet
  facet normal 0.890979 -0.454044 0
    outer loop
      vertex 83.6247 79.9992 -39.6
      vertex 83.3832 79.5253 -38.24
      vertex 83.3832 79.5253 -39.6
    endloop
  endfacet
  facet normal -0.454044 0.890979 0
    outer loop
      vertex 85.9992 77.6247 -39.6
      vertex 85.5253 77.3832 -38.24
      vertex 85.9992 77.6247 -38.24
    endloop
  endfacet
  facet normal -0.454044 0.890979 0
    outer loop
      vertex 85.5253 77.3832 -38.24
      vertex 85.9992 77.6247 -39.6
      vertex 85.5253 77.3832 -39.6
    endloop
  endfacet
  facet normal 0.987688 0.156436 0
    outer loop
      vertex 83.3832 78.4747 -38.24
      vertex 83.3 79 -39.6
      vertex 83.3 79 -38.24
    endloop
  endfacet
  facet normal 0.987688 0.156436 0
    outer loop
      vertex 83.3 79 -39.6
      vertex 83.3832 78.4747 -38.24
      vertex 83.3832 78.4747 -39.6
    endloop
  endfacet
  facet normal -0.707107 0.707107 0
    outer loop
      vertex 85.9992 77.6247 -39.6
      vertex 86.3753 78.0008 -38.24
      vertex 86.3753 78.0008 -39.6
    endloop
  endfacet
  facet normal -0.707107 0.707107 0
    outer loop
      vertex 86.3753 78.0008 -38.24
      vertex 85.9992 77.6247 -39.6
      vertex 85.9992 77.6247 -38.24
    endloop
  endfacet
  facet normal 0.707107 0.707107 0
    outer loop
      vertex 84.0008 77.6247 -38.24
      vertex 83.6247 78.0008 -39.6
      vertex 83.6247 78.0008 -38.24
    endloop
  endfacet
  facet normal 0.707107 0.707107 0
    outer loop
      vertex 83.6247 78.0008 -39.6
      vertex 84.0008 77.6247 -38.24
      vertex 84.0008 77.6247 -39.6
    endloop
  endfacet
  facet normal -0.156436 0.987688 0
    outer loop
      vertex 85.5253 77.3832 -39.6
      vertex 85 77.3 -38.24
      vertex 85.5253 77.3832 -38.24
    endloop
  endfacet
  facet normal -0.156436 0.987688 0
    outer loop
      vertex 85 77.3 -38.24
      vertex 85.5253 77.3832 -39.6
      vertex 85 77.3 -39.6
    endloop
  endfacet
  facet normal -0.890979 0.454044 0
    outer loop
      vertex 86.3753 78.0008 -39.6
      vertex 86.6168 78.4747 -38.24
      vertex 86.6168 78.4747 -39.6
    endloop
  endfacet
  facet normal -0.890979 0.454044 0
    outer loop
      vertex 86.6168 78.4747 -38.24
      vertex 86.3753 78.0008 -39.6
      vertex 86.3753 78.0008 -38.24
    endloop
  endfacet
  facet normal 0.49998 0.866037 -0
    outer loop
      vertex 83.7798 76.2594 -44
      vertex 83.2366 76.573 -40
      vertex 83.7798 76.2594 -40
    endloop
  endfacet
  facet normal 0.49998 0.866037 0
    outer loop
      vertex 83.2366 76.573 -40
      vertex 83.7798 76.2594 -44
      vertex 83.2366 76.573 -44
    endloop
  endfacet
  facet normal 0.669141 -0.743136 0
    outer loop
      vertex 82.7706 81.0074 -44
      vertex 83.2366 81.427 -40
      vertex 82.7706 81.0074 -40
    endloop
  endfacet
  facet normal 0.669141 -0.743136 0
    outer loop
      vertex 83.2366 81.427 -40
      vertex 82.7706 81.0074 -44
      vertex 83.2366 81.427 -44
    endloop
  endfacet
  facet normal -0.978142 0.207939 0
    outer loop
      vertex 87.8532 78.073 -44
      vertex 87.9836 78.6864 -40
      vertex 87.9836 78.6864 -44
    endloop
  endfacet
  facet normal -0.978142 0.207939 0
    outer loop
      vertex 87.9836 78.6864 -40
      vertex 87.8532 78.073 -44
      vertex 87.8532 78.073 -40
    endloop
  endfacet
  facet normal -0.913555 -0.406715 0
    outer loop
      vertex 87.8532 79.927 -44
      vertex 87.5981 80.5 -40
      vertex 87.5981 80.5 -44
    endloop
  endfacet
  facet normal -0.913555 -0.406715 0
    outer loop
      vertex 87.5981 80.5 -40
      vertex 87.8532 79.927 -44
      vertex 87.8532 79.927 -40
    endloop
  endfacet
  facet normal 1 -0 0
    outer loop
      vertex 82.0164 78.6864 -40
      vertex 82.0164 79.3136 -44
      vertex 82.0164 79.3136 -40
    endloop
  endfacet
  facet normal 1 0 0
    outer loop
      vertex 82.0164 79.3136 -44
      vertex 82.0164 78.6864 -40
      vertex 82.0164 78.6864 -44
    endloop
  endfacet
  facet normal 0.808977 0.58784 0
    outer loop
      vertex 82.7706 76.9926 -40
      vertex 82.4019 77.5 -44
      vertex 82.4019 77.5 -40
    endloop
  endfacet
  facet normal 0.808977 0.58784 0
    outer loop
      vertex 82.4019 77.5 -44
      vertex 82.7706 76.9926 -40
      vertex 82.7706 76.9926 -44
    endloop
  endfacet
  facet normal 0.669141 0.743136 -0
    outer loop
      vertex 83.2366 76.573 -44
      vertex 82.7706 76.9926 -40
      vertex 83.2366 76.573 -40
    endloop
  endfacet
  facet normal 0.669141 0.743136 0
    outer loop
      vertex 82.7706 76.9926 -40
      vertex 83.2366 76.573 -44
      vertex 82.7706 76.9926 -44
    endloop
  endfacet
  facet normal 0.308996 0.951063 -0
    outer loop
      vertex 84.3763 76.0656 -44
      vertex 83.7798 76.2594 -40
      vertex 84.3763 76.0656 -40
    endloop
  endfacet
  facet normal 0.308996 0.951063 0
    outer loop
      vertex 83.7798 76.2594 -40
      vertex 84.3763 76.0656 -44
      vertex 83.7798 76.2594 -44
    endloop
  endfacet
  facet normal -0.49998 0.866037 0
    outer loop
      vertex 86.7634 76.573 -44
      vertex 86.2202 76.2594 -40
      vertex 86.7634 76.573 -40
    endloop
  endfacet
  facet normal -0.49998 0.866037 0
    outer loop
      vertex 86.2202 76.2594 -40
      vertex 86.7634 76.573 -44
      vertex 86.2202 76.2594 -44
    endloop
  endfacet
  facet normal -0.978142 -0.207939 0
    outer loop
      vertex 87.9836 79.3136 -44
      vertex 87.8532 79.927 -40
      vertex 87.8532 79.927 -44
    endloop
  endfacet
  facet normal -0.978142 -0.207939 0
    outer loop
      vertex 87.8532 79.927 -40
      vertex 87.9836 79.3136 -44
      vertex 87.9836 79.3136 -40
    endloop
  endfacet
  facet normal -0.308996 -0.951063 0
    outer loop
      vertex 85.6237 81.9344 -44
      vertex 86.2202 81.7406 -40
      vertex 85.6237 81.9344 -40
    endloop
  endfacet
  facet normal -0.308996 -0.951063 -0
    outer loop
      vertex 86.2202 81.7406 -40
      vertex 85.6237 81.9344 -44
      vertex 86.2202 81.7406 -44
    endloop
  endfacet
  facet normal -0.308996 0.951063 0
    outer loop
      vertex 86.2202 76.2594 -44
      vertex 85.6237 76.0656 -40
      vertex 86.2202 76.2594 -40
    endloop
  endfacet
  facet normal -0.308996 0.951063 0
    outer loop
      vertex 85.6237 76.0656 -40
      vertex 86.2202 76.2594 -44
      vertex 85.6237 76.0656 -44
    endloop
  endfacet
  facet normal -1 0 0
    outer loop
      vertex 87.9836 78.6864 -44
      vertex 87.9836 79.3136 -40
      vertex 87.9836 79.3136 -44
    endloop
  endfacet
  facet normal -1 -0 0
    outer loop
      vertex 87.9836 79.3136 -40
      vertex 87.9836 78.6864 -44
      vertex 87.9836 78.6864 -40
    endloop
  endfacet
  facet normal 0.913555 0.406715 0
    outer loop
      vertex 82.4019 77.5 -40
      vertex 82.1468 78.073 -44
      vertex 82.1468 78.073 -40
    endloop
  endfacet
  facet normal 0.913555 0.406715 0
    outer loop
      vertex 82.1468 78.073 -44
      vertex 82.4019 77.5 -40
      vertex 82.4019 77.5 -44
    endloop
  endfacet
  facet normal 0.913555 -0.406715 0
    outer loop
      vertex 82.1468 79.927 -40
      vertex 82.4019 80.5 -44
      vertex 82.4019 80.5 -40
    endloop
  endfacet
  facet normal 0.913555 -0.406715 0
    outer loop
      vertex 82.4019 80.5 -44
      vertex 82.1468 79.927 -40
      vertex 82.1468 79.927 -44
    endloop
  endfacet
  facet normal -0.669141 0.743136 0
    outer loop
      vertex 87.2294 76.9926 -44
      vertex 86.7634 76.573 -40
      vertex 87.2294 76.9926 -40
    endloop
  endfacet
  facet normal -0.669141 0.743136 0
    outer loop
      vertex 86.7634 76.573 -40
      vertex 87.2294 76.9926 -44
      vertex 86.7634 76.573 -44
    endloop
  endfacet
  facet normal 0.104602 0.994514 -0
    outer loop
      vertex 85 76 -44
      vertex 84.3763 76.0656 -40
      vertex 85 76 -40
    endloop
  endfacet
  facet normal 0.104602 0.994514 0
    outer loop
      vertex 84.3763 76.0656 -40
      vertex 85 76 -44
      vertex 84.3763 76.0656 -44
    endloop
  endfacet
  facet normal -0.913555 0.406715 0
    outer loop
      vertex 87.5981 77.5 -44
      vertex 87.8532 78.073 -40
      vertex 87.8532 78.073 -44
    endloop
  endfacet
  facet normal -0.913555 0.406715 0
    outer loop
      vertex 87.8532 78.073 -40
      vertex 87.5981 77.5 -44
      vertex 87.5981 77.5 -40
    endloop
  endfacet
  facet normal 0.49998 -0.866037 0
    outer loop
      vertex 83.2366 81.427 -44
      vertex 83.7798 81.7406 -40
      vertex 83.2366 81.427 -40
    endloop
  endfacet
  facet normal 0.49998 -0.866037 0
    outer loop
      vertex 83.7798 81.7406 -40
      vertex 83.2366 81.427 -44
      vertex 83.7798 81.7406 -44
    endloop
  endfacet
  facet normal 0.104602 -0.994514 0
    outer loop
      vertex 84.3763 81.9344 -44
      vertex 85 82 -40
      vertex 84.3763 81.9344 -40
    endloop
  endfacet
  facet normal 0.104602 -0.994514 0
    outer loop
      vertex 85 82 -40
      vertex 84.3763 81.9344 -44
      vertex 85 82 -44
    endloop
  endfacet
  facet normal -0.104602 0.994514 0
    outer loop
      vertex 85.6237 76.0656 -44
      vertex 85 76 -40
      vertex 85.6237 76.0656 -40
    endloop
  endfacet
  facet normal -0.104602 0.994514 0
    outer loop
      vertex 85 76 -40
      vertex 85.6237 76.0656 -44
      vertex 85 76 -44
    endloop
  endfacet
  facet normal -0.808977 0.58784 0
    outer loop
      vertex 87.2294 76.9926 -44
      vertex 87.5981 77.5 -40
      vertex 87.5981 77.5 -44
    endloop
  endfacet
  facet normal -0.808977 0.58784 0
    outer loop
      vertex 87.5981 77.5 -40
      vertex 87.2294 76.9926 -44
      vertex 87.2294 76.9926 -40
    endloop
  endfacet
  facet normal -0.49998 -0.866037 0
    outer loop
      vertex 86.2202 81.7406 -44
      vertex 86.7634 81.427 -40
      vertex 86.2202 81.7406 -40
    endloop
  endfacet
  facet normal -0.49998 -0.866037 -0
    outer loop
      vertex 86.7634 81.427 -40
      vertex 86.2202 81.7406 -44
      vertex 86.7634 81.427 -44
    endloop
  endfacet
  facet normal 0.808977 -0.58784 0
    outer loop
      vertex 82.4019 80.5 -40
      vertex 82.7706 81.0074 -44
      vertex 82.7706 81.0074 -40
    endloop
  endfacet
  facet normal 0.808977 -0.58784 0
    outer loop
      vertex 82.7706 81.0074 -44
      vertex 82.4019 80.5 -40
      vertex 82.4019 80.5 -44
    endloop
  endfacet
  facet normal -0.104602 -0.994514 0
    outer loop
      vertex 85 82 -44
      vertex 85.6237 81.9344 -40
      vertex 85 82 -40
    endloop
  endfacet
  facet normal -0.104602 -0.994514 -0
    outer loop
      vertex 85.6237 81.9344 -40
      vertex 85 82 -44
      vertex 85.6237 81.9344 -44
    endloop
  endfacet
  facet normal 0.978142 0.207939 0
    outer loop
      vertex 82.1468 78.073 -40
      vertex 82.0164 78.6864 -44
      vertex 82.0164 78.6864 -40
    endloop
  endfacet
  facet normal 0.978142 0.207939 0
    outer loop
      vertex 82.0164 78.6864 -44
      vertex 82.1468 78.073 -40
      vertex 82.1468 78.073 -44
    endloop
  endfacet
  facet normal 0.308996 -0.951063 0
    outer loop
      vertex 83.7798 81.7406 -44
      vertex 84.3763 81.9344 -40
      vertex 83.7798 81.7406 -40
    endloop
  endfacet
  facet normal 0.308996 -0.951063 0
    outer loop
      vertex 84.3763 81.9344 -40
      vertex 83.7798 81.7406 -44
      vertex 84.3763 81.9344 -44
    endloop
  endfacet
  facet normal 0.978142 -0.207939 0
    outer loop
      vertex 82.0164 79.3136 -40
      vertex 82.1468 79.927 -44
      vertex 82.1468 79.927 -40
    endloop
  endfacet
  facet normal 0.978142 -0.207939 0
    outer loop
      vertex 82.1468 79.927 -44
      vertex 82.0164 79.3136 -40
      vertex 82.0164 79.3136 -44
    endloop
  endfacet
  facet normal 0 0 -1
    outer loop
      vertex 87.8532 78.073 -40
      vertex 87.9836 79.3136 -40
      vertex 87.9836 78.6864 -40
    endloop
  endfacet
  facet normal 0 0 -1
    outer loop
      vertex 87.8532 78.073 -40
      vertex 87.8532 79.927 -40
      vertex 87.9836 79.3136 -40
    endloop
  endfacet
  facet normal 0 0 -1
    outer loop
      vertex 87.5981 77.5 -40
      vertex 87.8532 79.927 -40
      vertex 87.8532 78.073 -40
    endloop
  endfacet
  facet normal 0 0 -1
    outer loop
      vertex 87.5981 77.5 -40
      vertex 87.5981 80.5 -40
      vertex 87.8532 79.927 -40
    endloop
  endfacet
  facet normal 0 0 -1
    outer loop
      vertex 87.2294 76.9926 -40
      vertex 87.5981 80.5 -40
      vertex 87.5981 77.5 -40
    endloop
  endfacet
  facet normal 0 0 -1
    outer loop
      vertex 87.2294 76.9926 -40
      vertex 87.2294 81.0074 -40
      vertex 87.5981 80.5 -40
    endloop
  endfacet
  facet normal 0 0 -1
    outer loop
      vertex 86.7634 76.573 -40
      vertex 87.2294 81.0074 -40
      vertex 87.2294 76.9926 -40
    endloop
  endfacet
  facet normal 0 0 -1
    outer loop
      vertex 86.7634 76.573 -40
      vertex 86.7634 81.427 -40
      vertex 87.2294 81.0074 -40
    endloop
  endfacet
  facet normal 0 0 -1
    outer loop
      vertex 86.2202 76.2594 -40
      vertex 86.7634 81.427 -40
      vertex 86.7634 76.573 -40
    endloop
  endfacet
  facet normal 0 0 -1
    outer loop
      vertex 86.2202 76.2594 -40
      vertex 86.2202 81.7406 -40
      vertex 86.7634 81.427 -40
    endloop
  endfacet
  facet normal 0 0 -1
    outer loop
      vertex 85.6237 76.0656 -40
      vertex 86.2202 81.7406 -40
      vertex 86.2202 76.2594 -40
    endloop
  endfacet
  facet normal 0 0 -1
    outer loop
      vertex 85.6237 76.0656 -40
      vertex 85.6237 81.9344 -40
      vertex 86.2202 81.7406 -40
    endloop
  endfacet
  facet normal 0 0 -1
    outer loop
      vertex 85 76 -40
      vertex 85.6237 81.9344 -40
      vertex 85.6237 76.0656 -40
    endloop
  endfacet
  facet normal 0 0 -1
    outer loop
      vertex 85 76 -40
      vertex 85 82 -40
      vertex 85.6237 81.9344 -40
    endloop
  endfacet
  facet normal 0 0 -1
    outer loop
      vertex 84.3763 76.0656 -40
      vertex 85 82 -40
      vertex 85 76 -40
    endloop
  endfacet
  facet normal 0 0 -1
    outer loop
      vertex 84.3763 76.0656 -40
      vertex 84.3763 81.9344 -40
      vertex 85 82 -40
    endloop
  endfacet
  facet normal 0 0 -1
    outer loop
      vertex 83.7798 76.2594 -40
      vertex 84.3763 81.9344 -40
      vertex 84.3763 76.0656 -40
    endloop
  endfacet
  facet normal 0 0 -1
    outer loop
      vertex 83.7798 76.2594 -40
      vertex 83.7798 81.7406 -40
      vertex 84.3763 81.9344 -40
    endloop
  endfacet
  facet normal 0 0 -1
    outer loop
      vertex 83.2366 76.573 -40
      vertex 83.7798 81.7406 -40
      vertex 83.7798 76.2594 -40
    endloop
  endfacet
  facet normal 0 0 -1
    outer loop
      vertex 83.2366 76.573 -40
      vertex 83.2366 81.427 -40
      vertex 83.7798 81.7406 -40
    endloop
  endfacet
  facet normal 0 0 -1
    outer loop
      vertex 82.7706 76.9926 -40
      vertex 83.2366 81.427 -40
      vertex 83.2366 76.573 -40
    endloop
  endfacet
  facet normal 0 0 -1
    outer loop
      vertex 82.7706 76.9926 -40
      vertex 82.7706 81.0074 -40
      vertex 83.2366 81.427 -40
    endloop
  endfacet
  facet normal 0 0 -1
    outer loop
      vertex 82.4019 77.5 -40
      vertex 82.7706 81.0074 -40
      vertex 82.7706 76.9926 -40
    endloop
  endfacet
  facet normal 0 0 -1
    outer loop
      vertex 82.4019 77.5 -40
      vertex 82.4019 80.5 -40
      vertex 82.7706 81.0074 -40
    endloop
  endfacet
  facet normal 0 0 -1
    outer loop
      vertex 82.1468 78.073 -40
      vertex 82.4019 80.5 -40
      vertex 82.4019 77.5 -40
    endloop
  endfacet
  facet normal 0 0 -1
    outer loop
      vertex 82.1468 78.073 -40
      vertex 82.1468 79.927 -40
      vertex 82.4019 80.5 -40
    endloop
  endfacet
  facet normal 0 0 -1
    outer loop
      vertex 82.0164 78.6864 -40
      vertex 82.1468 79.927 -40
      vertex 82.1468 78.073 -40
    endloop
  endfacet
  facet normal 0 0 -1
    outer loop
      vertex 82.1468 79.927 -40
      vertex 82.0164 78.6864 -40
      vertex 82.0164 79.3136 -40
    endloop
  endfacet
  facet normal -0.669141 -0.743136 0
    outer loop
      vertex 86.7634 81.427 -44
      vertex 87.2294 81.0074 -40
      vertex 86.7634 81.427 -40
    endloop
  endfacet
  facet normal -0.669141 -0.743136 -0
    outer loop
      vertex 87.2294 81.0074 -40
      vertex 86.7634 81.427 -44
      vertex 87.2294 81.0074 -44
    endloop
  endfacet
  facet normal -0.808977 -0.58784 0
    outer loop
      vertex 87.5981 80.5 -44
      vertex 87.2294 81.0074 -40
      vertex 87.2294 81.0074 -44
    endloop
  endfacet
  facet normal -0.808977 -0.58784 0
    outer loop
      vertex 87.2294 81.0074 -40
      vertex 87.5981 80.5 -44
      vertex 87.5981 80.5 -40
    endloop
  endfacet
  facet normal 0 0 1
    outer loop
      vertex 86.6168 79.5253 -39.6
      vertex 86.6168 78.4747 -39.6
      vertex 86.7 79 -39.6
    endloop
  endfacet
  facet normal 0 0 1
    outer loop
      vertex 86.3753 79.9992 -39.6
      vertex 86.6168 78.4747 -39.6
      vertex 86.6168 79.5253 -39.6
    endloop
  endfacet
  facet normal 0 0 1
    outer loop
      vertex 86.3753 79.9992 -39.6
      vertex 86.3753 78.0008 -39.6
      vertex 86.6168 78.4747 -39.6
    endloop
  endfacet
  facet normal 0 0 1
    outer loop
      vertex 85.9992 80.3753 -39.6
      vertex 86.3753 78.0008 -39.6
      vertex 86.3753 79.9992 -39.6
    endloop
  endfacet
  facet normal 0 0 1
    outer loop
      vertex 85.9992 80.3753 -39.6
      vertex 85.9992 77.6247 -39.6
      vertex 86.3753 78.0008 -39.6
    endloop
  endfacet
  facet normal 0 0 1
    outer loop
      vertex 85.5253 80.6168 -39.6
      vertex 85.9992 77.6247 -39.6
      vertex 85.9992 80.3753 -39.6
    endloop
  endfacet
  facet normal 0 0 1
    outer loop
      vertex 85.5253 80.6168 -39.6
      vertex 85.5253 77.3832 -39.6
      vertex 85.9992 77.6247 -39.6
    endloop
  endfacet
  facet normal 0 0 1
    outer loop
      vertex 85 80.7 -39.6
      vertex 85.5253 77.3832 -39.6
      vertex 85.5253 80.6168 -39.6
    endloop
  endfacet
  facet normal 0 0 1
    outer loop
      vertex 85 80.7 -39.6
      vertex 85 77.3 -39.6
      vertex 85.5253 77.3832 -39.6
    endloop
  endfacet
  facet normal -0 0 1
    outer loop
      vertex 84.4747 80.6168 -39.6
      vertex 85 77.3 -39.6
      vertex 85 80.7 -39.6
    endloop
  endfacet
  facet normal 0 0 1
    outer loop
      vertex 84.4747 80.6168 -39.6
      vertex 84.4747 77.3832 -39.6
      vertex 85 77.3 -39.6
    endloop
  endfacet
  facet normal -0 0 1
    outer loop
      vertex 84.0008 80.3753 -39.6
      vertex 84.4747 77.3832 -39.6
      vertex 84.4747 80.6168 -39.6
    endloop
  endfacet
  facet normal 0 0 1
    outer loop
      vertex 84.0008 80.3753 -39.6
      vertex 84.0008 77.6247 -39.6
      vertex 84.4747 77.3832 -39.6
    endloop
  endfacet
  facet normal -0 0 1
    outer loop
      vertex 83.6247 79.9992 -39.6
      vertex 84.0008 77.6247 -39.6
      vertex 84.0008 80.3753 -39.6
    endloop
  endfacet
  facet normal 0 0 1
    outer loop
      vertex 83.6247 79.9992 -39.6
      vertex 83.6247 78.0008 -39.6
      vertex 84.0008 77.6247 -39.6
    endloop
  endfacet
  facet normal -0 0 1
    outer loop
      vertex 83.3832 79.5253 -39.6
      vertex 83.6247 78.0008 -39.6
      vertex 83.6247 79.9992 -39.6
    endloop
  endfacet
  facet normal 0 0 1
    outer loop
      vertex 83.3832 79.5253 -39.6
      vertex 83.3832 78.4747 -39.6
      vertex 83.6247 78.0008 -39.6
    endloop
  endfacet
  facet normal 0 -0 1
    outer loop
      vertex 83.3832 78.4747 -39.6
      vertex 83.3832 79.5253 -39.6
      vertex 83.3 79 -39.6
    endloop
  endfacet
  facet normal 1 -0 0
    outer loop
      vertex 88.99 75 -38.24
      vertex 88.99 83.24 -42.24
      vertex 88.99 83.24 -38.24
    endloop
  endfacet
  facet normal 1 0 0
    outer loop
      vertex 88.99 83.24 -42.24
      vertex 88.99 75 -38.24
      vertex 88.99 75.4 -44
    endloop
  endfacet
  facet normal 1 0 0
    outer loop
      vertex 88.99 75.4 -44
      vertex 88.99 75 -38.24
      vertex 88.99 75 -43.6
    endloop
  endfacet
  facet normal 1 -0 0
    outer loop
      vertex 88.99 83.24 -42.24
      vertex 88.99 95.01 -44
      vertex 88.99 95.01 -42.24
    endloop
  endfacet
  facet normal 1 0 0
    outer loop
      vertex 88.99 95.01 -44
      vertex 88.99 83.24 -42.24
      vertex 88.99 75.4 -44
    endloop
  endfacet
  facet normal 0 1 -0
    outer loop
      vertex 80.4 95.01 -44
      vertex 80 95.01 -42.24
      vertex 88.99 95.01 -42.24
    endloop
  endfacet
  facet normal 0 1 0
    outer loop
      vertex 80.4 95.01 -44
      vertex 88.99 95.01 -42.24
      vertex 88.99 95.01 -44
    endloop
  endfacet
  facet normal 0 1 0
    outer loop
      vertex 80 95.01 -42.24
      vertex 80.4 95.01 -44
      vertex 80 95.01 -43.6
    endloop
  endfacet
  facet normal 0 0 1
    outer loop
      vertex 88.99 95.01 -42.24
      vertex 87.52 91.02 -42.24
      vertex 88.99 83.24 -42.24
    endloop
  endfacet
  facet normal 0 0 1
    outer loop
      vertex 88.99 95.01 -42.24
      vertex 82.86 91.02 -42.24
      vertex 87.52 91.02 -42.24
    endloop
  endfacet
  facet normal 0 0 1
    outer loop
      vertex 80 83.24 -42.24
      vertex 82.86 91.02 -42.24
      vertex 80 95.01 -42.24
    endloop
  endfacet
  facet normal -0 0 1
    outer loop
      vertex 80 95.01 -42.24
      vertex 82.86 91.02 -42.24
      vertex 88.99 95.01 -42.24
    endloop
  endfacet
  facet normal -0 0 1
    outer loop
      vertex 87.52 83.765 -42.24
      vertex 88.99 83.24 -42.24
      vertex 87.52 91.02 -42.24
    endloop
  endfacet
  facet normal -0 0 1
    outer loop
      vertex 82.86 83.765 -42.24
      vertex 88.99 83.24 -42.24
      vertex 87.52 83.765 -42.24
    endloop
  endfacet
  facet normal 0 0 1
    outer loop
      vertex 82.86 83.765 -42.24
      vertex 80 83.24 -42.24
      vertex 88.99 83.24 -42.24
    endloop
  endfacet
  facet normal 0 0 1
    outer loop
      vertex 82.86 91.02 -42.24
      vertex 80 83.24 -42.24
      vertex 82.86 83.765 -42.24
    endloop
  endfacet
  facet normal 0 1 -0
    outer loop
      vertex 88.99 83.24 -42.24
      vertex 80 83.24 -38.24
      vertex 88.99 83.24 -38.24
    endloop
  endfacet
  facet normal 0 1 0
    outer loop
      vertex 80 83.24 -38.24
      vertex 88.99 83.24 -42.24
      vertex 80 83.24 -42.24
    endloop
  endfacet
  facet normal 0 0 1
    outer loop
      vertex 88.99 83.24 -38.24
      vertex 86.7 79 -38.24
      vertex 88.99 75 -38.24
    endloop
  endfacet
  facet normal 0 0 1
    outer loop
      vertex 88.99 83.24 -38.24
      vertex 86.6168 79.5253 -38.24
      vertex 86.7 79 -38.24
    endloop
  endfacet
  facet normal 0 0 1
    outer loop
      vertex 88.99 83.24 -38.24
      vertex 86.3753 79.9992 -38.24
      vertex 86.6168 79.5253 -38.24
    endloop
  endfacet
  facet normal 0 0 1
    outer loop
      vertex 88.99 83.24 -38.24
      vertex 85.9992 80.3753 -38.24
      vertex 86.3753 79.9992 -38.24
    endloop
  endfacet
  facet normal 0 0 1
    outer loop
      vertex 88.99 83.24 -38.24
      vertex 85.5253 80.6168 -38.24
      vertex 85.9992 80.3753 -38.24
    endloop
  endfacet
  facet normal 0 0 1
    outer loop
      vertex 88.99 83.24 -38.24
      vertex 85 80.7 -38.24
      vertex 85.5253 80.6168 -38.24
    endloop
  endfacet
  facet normal -0 0 1
    outer loop
      vertex 80 83.24 -38.24
      vertex 85 80.7 -38.24
      vertex 88.99 83.24 -38.24
    endloop
  endfacet
  facet normal 0 0 1
    outer loop
      vertex 85 80.7 -38.24
      vertex 80 83.24 -38.24
      vertex 84.4747 80.6168 -38.24
    endloop
  endfacet
  facet normal 0 0 1
    outer loop
      vertex 80 83.24 -38.24
      vertex 83.3 79 -38.24
      vertex 83.3832 79.5253 -38.24
    endloop
  endfacet
  facet normal 0 0 1
    outer loop
      vertex 80 83.24 -38.24
      vertex 83.3832 79.5253 -38.24
      vertex 83.6247 79.9992 -38.24
    endloop
  endfacet
  facet normal 0 0 1
    outer loop
      vertex 84.4747 80.6168 -38.24
      vertex 80 83.24 -38.24
      vertex 84.0008 80.3753 -38.24
    endloop
  endfacet
  facet normal 0 0 1
    outer loop
      vertex 80 83.24 -38.24
      vertex 83.6247 79.9992 -38.24
      vertex 84.0008 80.3753 -38.24
    endloop
  endfacet
  facet normal 0 0 1
    outer loop
      vertex 83.3 79 -38.24
      vertex 80 83.24 -38.24
      vertex 80 75.4 -38.24
    endloop
  endfacet
  facet normal 0 0 1
    outer loop
      vertex 83.3 79 -38.24
      vertex 80 75.4 -38.24
      vertex 80.4 75 -38.24
    endloop
  endfacet
  facet normal -0 0 1
    outer loop
      vertex 86.6168 78.4747 -38.24
      vertex 88.99 75 -38.24
      vertex 86.7 79 -38.24
    endloop
  endfacet
  facet normal -0 0 1
    outer loop
      vertex 86.3753 78.0008 -38.24
      vertex 88.99 75 -38.24
      vertex 86.6168 78.4747 -38.24
    endloop
  endfacet
  facet normal -0 0 1
    outer loop
      vertex 85.9992 77.6247 -38.24
      vertex 88.99 75 -38.24
      vertex 86.3753 78.0008 -38.24
    endloop
  endfacet
  facet normal -0 0 1
    outer loop
      vertex 85.5253 77.3832 -38.24
      vertex 88.99 75 -38.24
      vertex 85.9992 77.6247 -38.24
    endloop
  endfacet
  facet normal -0 0 1
    outer loop
      vertex 85 77.3 -38.24
      vertex 88.99 75 -38.24
      vertex 85.5253 77.3832 -38.24
    endloop
  endfacet
  facet normal 0 0 1
    outer loop
      vertex 80.4 75 -38.24
      vertex 85 77.3 -38.24
      vertex 84.4747 77.3832 -38.24
    endloop
  endfacet
  facet normal 0 0 1
    outer loop
      vertex 80.4 75 -38.24
      vertex 84.4747 77.3832 -38.24
      vertex 84.0008 77.6247 -38.24
    endloop
  endfacet
  facet normal 0 0 1
    outer loop
      vertex 85 77.3 -38.24
      vertex 80.4 75 -38.24
      vertex 88.99 75 -38.24
    endloop
  endfacet
  facet normal 0 0 1
    outer loop
      vertex 83.6247 78.0008 -38.24
      vertex 80.4 75 -38.24
      vertex 84.0008 77.6247 -38.24
    endloop
  endfacet
  facet normal 0 0 1
    outer loop
      vertex 83.3832 78.4747 -38.24
      vertex 80.4 75 -38.24
      vertex 83.6247 78.0008 -38.24
    endloop
  endfacet
  facet normal 0 0 1
    outer loop
      vertex 80.4 75 -38.24
      vertex 83.3832 78.4747 -38.24
      vertex 83.3 79 -38.24
    endloop
  endfacet
endsolid OpenSCAD_Model
