solid OpenSCAD_Model
  facet normal 0.987692 0.156413 0
    outer loop
      vertex 2.4863 0.261321 2.5
      vertex 2.44537 0.519779 0
      vertex 2.44537 0.519779 2.5
    endloop
  endfacet
  facet normal 0.987692 0.156413 0
    outer loop
      vertex 2.44537 0.519779 0
      vertex 2.4863 0.261321 2.5
      vertex 2.4863 0.261321 0
    endloop
  endfacet
  facet normal 0.998629 0.052354 0
    outer loop
      vertex 2.5 0 2.5
      vertex 2.4863 0.261321 0
      vertex 2.4863 0.261321 2.5
    endloop
  endfacet
  facet normal 0.998629 0.052354 0
    outer loop
      vertex 2.4863 0.261321 0
      vertex 2.5 0 2.5
      vertex 2.5 0 0
    endloop
  endfacet
  facet normal 0.965924 0.258827 0
    outer loop
      vertex 2.44537 0.519779 2.5
      vertex 2.37764 0.772542 0
      vertex 2.37764 0.772542 2.5
    endloop
  endfacet
  facet normal 0.965924 0.258827 0
    outer loop
      vertex 2.37764 0.772542 0
      vertex 2.44537 0.519779 2.5
      vertex 2.44537 0.519779 0
    endloop
  endfacet
  facet normal -0.544642 0.838669 0
    outer loop
      vertex -1.25 2.16506 0
      vertex -1.46946 2.02254 2.5
      vertex -1.25 2.16506 2.5
    endloop
  endfacet
  facet normal -0.544642 0.838669 0
    outer loop
      vertex -1.46946 2.02254 2.5
      vertex -1.25 2.16506 0
      vertex -1.46946 2.02254 0
    endloop
  endfacet
  facet normal -0.838669 -0.544642 0
    outer loop
      vertex -2.02254 -1.46946 0
      vertex -2.16506 -1.25 2.5
      vertex -2.16506 -1.25 0
    endloop
  endfacet
  facet normal -0.838669 -0.544642 0
    outer loop
      vertex -2.16506 -1.25 2.5
      vertex -2.02254 -1.46946 0
      vertex -2.02254 -1.46946 2.5
    endloop
  endfacet
  facet normal -0.156413 -0.987692 0
    outer loop
      vertex -0.519779 -2.44537 0
      vertex -0.261321 -2.4863 2.5
      vertex -0.519779 -2.44537 2.5
    endloop
  endfacet
  facet normal -0.156413 -0.987692 -0
    outer loop
      vertex -0.261321 -2.4863 2.5
      vertex -0.519779 -2.44537 0
      vertex -0.261321 -2.4863 0
    endloop
  endfacet
  facet normal -0.453988 0.891008 0
    outer loop
      vertex -1.01684 2.28386 0
      vertex -1.25 2.16506 2.5
      vertex -1.01684 2.28386 2.5
    endloop
  endfacet
  facet normal -0.453988 0.891008 0
    outer loop
      vertex -1.25 2.16506 2.5
      vertex -1.01684 2.28386 0
      vertex -1.25 2.16506 0
    endloop
  endfacet
  facet normal -0.707107 -0.707107 0
    outer loop
      vertex -1.67283 -1.85786 0
      vertex -1.85786 -1.67283 2.5
      vertex -1.85786 -1.67283 0
    endloop
  endfacet
  facet normal -0.707107 -0.707107 0
    outer loop
      vertex -1.85786 -1.67283 2.5
      vertex -1.67283 -1.85786 0
      vertex -1.67283 -1.85786 2.5
    endloop
  endfacet
  facet normal 0.453988 0.891008 -0
    outer loop
      vertex 1.25 2.16506 0
      vertex 1.01684 2.28386 2.5
      vertex 1.25 2.16506 2.5
    endloop
  endfacet
  facet normal 0.453988 0.891008 0
    outer loop
      vertex 1.01684 2.28386 2.5
      vertex 1.25 2.16506 0
      vertex 1.01684 2.28386 0
    endloop
  endfacet
  facet normal -0.777157 0.629307 0
    outer loop
      vertex -2.02254 1.46946 0
      vertex -1.85786 1.67283 2.5
      vertex -1.85786 1.67283 0
    endloop
  endfacet
  facet normal -0.777157 0.629307 0
    outer loop
      vertex -1.85786 1.67283 2.5
      vertex -2.02254 1.46946 0
      vertex -2.02254 1.46946 2.5
    endloop
  endfacet
  facet normal 0.629307 0.777157 -0
    outer loop
      vertex 1.67283 1.85786 0
      vertex 1.46946 2.02254 2.5
      vertex 1.67283 1.85786 2.5
    endloop
  endfacet
  facet normal 0.629307 0.777157 0
    outer loop
      vertex 1.46946 2.02254 2.5
      vertex 1.67283 1.85786 0
      vertex 1.46946 2.02254 0
    endloop
  endfacet
  facet normal 0.358377 -0.933577 0
    outer loop
      vertex 0.772542 -2.37764 0
      vertex 1.01684 -2.28386 2.5
      vertex 0.772542 -2.37764 2.5
    endloop
  endfacet
  facet normal 0.358377 -0.933577 0
    outer loop
      vertex 1.01684 -2.28386 2.5
      vertex 0.772542 -2.37764 0
      vertex 1.01684 -2.28386 0
    endloop
  endfacet
  facet normal 0.707107 0.707107 0
    outer loop
      vertex 1.85786 1.67283 2.5
      vertex 1.67283 1.85786 0
      vertex 1.67283 1.85786 2.5
    endloop
  endfacet
  facet normal 0.707107 0.707107 0
    outer loop
      vertex 1.67283 1.85786 0
      vertex 1.85786 1.67283 2.5
      vertex 1.85786 1.67283 0
    endloop
  endfacet
  facet normal -0.629307 0.777157 0
    outer loop
      vertex -1.46946 2.02254 0
      vertex -1.67283 1.85786 2.5
      vertex -1.46946 2.02254 2.5
    endloop
  endfacet
  facet normal -0.629307 0.777157 0
    outer loop
      vertex -1.67283 1.85786 2.5
      vertex -1.46946 2.02254 0
      vertex -1.67283 1.85786 0
    endloop
  endfacet
  facet normal 0 0 -1
    outer loop
      vertex 1.8 0 0
      vertex 2.5 0 0
      vertex 2.4863 -0.261321 0
    endloop
  endfacet
  facet normal 0 0 -1
    outer loop
      vertex 1.79014 -0.18815 0
      vertex 2.4863 -0.261321 0
      vertex 2.44537 -0.519779 0
    endloop
  endfacet
  facet normal 0 0 -1
    outer loop
      vertex 2.5 0 0
      vertex 1.8 0 0
      vertex 2.4863 0.261321 0
    endloop
  endfacet
  facet normal 0 0 -1
    outer loop
      vertex 1.76066 -0.374241 0
      vertex 2.44537 -0.519779 0
      vertex 2.37764 -0.772542 0
    endloop
  endfacet
  facet normal 0 0 -1
    outer loop
      vertex 1.79014 0.18815 0
      vertex 2.4863 0.261321 0
      vertex 1.8 0 0
    endloop
  endfacet
  facet normal 0 0 -1
    outer loop
      vertex 1.7119 -0.556231 0
      vertex 2.37764 -0.772542 0
      vertex 2.28386 -1.01684 0
    endloop
  endfacet
  facet normal -0 0 -1
    outer loop
      vertex 2.4863 0.261321 0
      vertex 1.79014 0.18815 0
      vertex 2.44537 0.519779 0
    endloop
  endfacet
  facet normal 0 0 -1
    outer loop
      vertex 1.64438 -0.732125 0
      vertex 2.28386 -1.01684 0
      vertex 2.16506 -1.25 0
    endloop
  endfacet
  facet normal 0 0 -1
    outer loop
      vertex 1.76066 0.374241 0
      vertex 2.44537 0.519779 0
      vertex 1.79014 0.18815 0
    endloop
  endfacet
  facet normal 0 0 -1
    outer loop
      vertex 1.55885 -0.9 0
      vertex 2.16506 -1.25 0
      vertex 2.02254 -1.46946 0
    endloop
  endfacet
  facet normal -0 0 -1
    outer loop
      vertex 2.44537 0.519779 0
      vertex 1.76066 0.374241 0
      vertex 2.37764 0.772542 0
    endloop
  endfacet
  facet normal 0 0 -1
    outer loop
      vertex 1.45623 -1.05801 0
      vertex 2.02254 -1.46946 0
      vertex 1.85786 -1.67283 0
    endloop
  endfacet
  facet normal 0 0 -1
    outer loop
      vertex 1.7119 0.556231 0
      vertex 2.37764 0.772542 0
      vertex 1.76066 0.374241 0
    endloop
  endfacet
  facet normal -0 0 -1
    outer loop
      vertex 2.37764 0.772542 0
      vertex 1.7119 0.556231 0
      vertex 2.28386 1.01684 0
    endloop
  endfacet
  facet normal 0 0 -1
    outer loop
      vertex 2.4863 -0.261321 0
      vertex 1.79014 -0.18815 0
      vertex 1.8 0 0
    endloop
  endfacet
  facet normal 0 0 -1
    outer loop
      vertex 2.44537 -0.519779 0
      vertex 1.76066 -0.374241 0
      vertex 1.79014 -0.18815 0
    endloop
  endfacet
  facet normal 0 0 -1
    outer loop
      vertex 2.37764 -0.772542 0
      vertex 1.7119 -0.556231 0
      vertex 1.76066 -0.374241 0
    endloop
  endfacet
  facet normal 0 0 -1
    outer loop
      vertex 1.33766 -1.20443 0
      vertex 1.85786 -1.67283 0
      vertex 1.67283 -1.85786 0
    endloop
  endfacet
  facet normal 0 0 -1
    outer loop
      vertex 2.28386 -1.01684 0
      vertex 1.64438 -0.732125 0
      vertex 1.7119 -0.556231 0
    endloop
  endfacet
  facet normal 0 0 -1
    outer loop
      vertex 2.16506 -1.25 0
      vertex 1.55885 -0.9 0
      vertex 1.64438 -0.732125 0
    endloop
  endfacet
  facet normal 0 0 -1
    outer loop
      vertex 1.20443 -1.33766 0
      vertex 1.67283 -1.85786 0
      vertex 1.46946 -2.02254 0
    endloop
  endfacet
  facet normal 0 0 -1
    outer loop
      vertex 2.02254 -1.46946 0
      vertex 1.45623 -1.05801 0
      vertex 1.55885 -0.9 0
    endloop
  endfacet
  facet normal 0 0 -1
    outer loop
      vertex 1.85786 -1.67283 0
      vertex 1.33766 -1.20443 0
      vertex 1.45623 -1.05801 0
    endloop
  endfacet
  facet normal 0 0 -1
    outer loop
      vertex 1.05801 -1.45623 0
      vertex 1.46946 -2.02254 0
      vertex 1.25 -2.16506 0
    endloop
  endfacet
  facet normal 0 0 -1
    outer loop
      vertex 1.67283 -1.85786 0
      vertex 1.20443 -1.33766 0
      vertex 1.33766 -1.20443 0
    endloop
  endfacet
  facet normal 0 0 -1
    outer loop
      vertex 1.46946 -2.02254 0
      vertex 1.05801 -1.45623 0
      vertex 1.20443 -1.33766 0
    endloop
  endfacet
  facet normal 0 0 -1
    outer loop
      vertex 0.9 -1.55885 0
      vertex 1.25 -2.16506 0
      vertex 1.01684 -2.28386 0
    endloop
  endfacet
  facet normal 0 0 -1
    outer loop
      vertex 1.25 -2.16506 0
      vertex 0.9 -1.55885 0
      vertex 1.05801 -1.45623 0
    endloop
  endfacet
  facet normal 0 0 -1
    outer loop
      vertex 0.732125 -1.64438 0
      vertex 1.01684 -2.28386 0
      vertex 0.772542 -2.37764 0
    endloop
  endfacet
  facet normal 0 0 -1
    outer loop
      vertex 1.01684 -2.28386 0
      vertex 0.732125 -1.64438 0
      vertex 0.9 -1.55885 0
    endloop
  endfacet
  facet normal 0 0 -1
    outer loop
      vertex 0.772542 -2.37764 0
      vertex 0.556231 -1.7119 0
      vertex 0.732125 -1.64438 0
    endloop
  endfacet
  facet normal 0 0 -1
    outer loop
      vertex 0.519779 -2.44537 0
      vertex 0.556231 -1.7119 0
      vertex 0.772542 -2.37764 0
    endloop
  endfacet
  facet normal 0 0 -1
    outer loop
      vertex 0.519779 -2.44537 0
      vertex 0.374241 -1.76066 0
      vertex 0.556231 -1.7119 0
    endloop
  endfacet
  facet normal 0 0 -1
    outer loop
      vertex 0.261321 -2.4863 0
      vertex 0.374241 -1.76066 0
      vertex 0.519779 -2.44537 0
    endloop
  endfacet
  facet normal 0 0 -1
    outer loop
      vertex 0.261321 -2.4863 0
      vertex 0.18815 -1.79014 0
      vertex 0.374241 -1.76066 0
    endloop
  endfacet
  facet normal 0 0 -1
    outer loop
      vertex 0 -2.5 0
      vertex 0.18815 -1.79014 0
      vertex 0.261321 -2.4863 0
    endloop
  endfacet
  facet normal 0 0 -1
    outer loop
      vertex 0 -2.5 0
      vertex 0 -1.8 0
      vertex 0.18815 -1.79014 0
    endloop
  endfacet
  facet normal 0 0 -1
    outer loop
      vertex 0 -2.5 0
      vertex -0.18815 -1.79014 0
      vertex 0 -1.8 0
    endloop
  endfacet
  facet normal 0 0 -1
    outer loop
      vertex -0.261321 -2.4863 0
      vertex -0.18815 -1.79014 0
      vertex 0 -2.5 0
    endloop
  endfacet
  facet normal 0 0 -1
    outer loop
      vertex -0.261321 -2.4863 0
      vertex -0.374241 -1.76066 0
      vertex -0.18815 -1.79014 0
    endloop
  endfacet
  facet normal 0 0 -1
    outer loop
      vertex -0.519779 -2.44537 0
      vertex -0.374241 -1.76066 0
      vertex -0.261321 -2.4863 0
    endloop
  endfacet
  facet normal 0 0 -1
    outer loop
      vertex -0.519779 -2.44537 0
      vertex -0.556231 -1.7119 0
      vertex -0.374241 -1.76066 0
    endloop
  endfacet
  facet normal 0 0 -1
    outer loop
      vertex -0.772542 -2.37764 0
      vertex -0.556231 -1.7119 0
      vertex -0.519779 -2.44537 0
    endloop
  endfacet
  facet normal -0 0 -1
    outer loop
      vertex -0.556231 -1.7119 0
      vertex -0.772542 -2.37764 0
      vertex -0.732125 -1.64438 0
    endloop
  endfacet
  facet normal 0 0 -1
    outer loop
      vertex -1.01684 -2.28386 0
      vertex -0.732125 -1.64438 0
      vertex -0.772542 -2.37764 0
    endloop
  endfacet
  facet normal -0 0 -1
    outer loop
      vertex -0.732125 -1.64438 0
      vertex -1.01684 -2.28386 0
      vertex -0.9 -1.55885 0
    endloop
  endfacet
  facet normal 0 0 -1
    outer loop
      vertex -1.25 -2.16506 0
      vertex -0.9 -1.55885 0
      vertex -1.01684 -2.28386 0
    endloop
  endfacet
  facet normal -0 0 -1
    outer loop
      vertex -0.9 -1.55885 0
      vertex -1.25 -2.16506 0
      vertex -1.05801 -1.45623 0
    endloop
  endfacet
  facet normal 0 0 -1
    outer loop
      vertex -1.46946 -2.02254 0
      vertex -1.05801 -1.45623 0
      vertex -1.25 -2.16506 0
    endloop
  endfacet
  facet normal -0 0 -1
    outer loop
      vertex -1.05801 -1.45623 0
      vertex -1.46946 -2.02254 0
      vertex -1.20443 -1.33766 0
    endloop
  endfacet
  facet normal 0 0 -1
    outer loop
      vertex -1.67283 -1.85786 0
      vertex -1.20443 -1.33766 0
      vertex -1.46946 -2.02254 0
    endloop
  endfacet
  facet normal -0 0 -1
    outer loop
      vertex -1.20443 -1.33766 0
      vertex -1.67283 -1.85786 0
      vertex -1.33766 -1.20443 0
    endloop
  endfacet
  facet normal 0 0 -1
    outer loop
      vertex -1.85786 -1.67283 0
      vertex -1.33766 -1.20443 0
      vertex -1.67283 -1.85786 0
    endloop
  endfacet
  facet normal -0 0 -1
    outer loop
      vertex -1.33766 -1.20443 0
      vertex -1.85786 -1.67283 0
      vertex -1.45623 -1.05801 0
    endloop
  endfacet
  facet normal 0 0 -1
    outer loop
      vertex -2.02254 -1.46946 0
      vertex -1.45623 -1.05801 0
      vertex -1.85786 -1.67283 0
    endloop
  endfacet
  facet normal -0 0 -1
    outer loop
      vertex -1.45623 -1.05801 0
      vertex -2.02254 -1.46946 0
      vertex -1.55885 -0.9 0
    endloop
  endfacet
  facet normal 0 0 -1
    outer loop
      vertex -2.16506 -1.25 0
      vertex -1.55885 -0.9 0
      vertex -2.02254 -1.46946 0
    endloop
  endfacet
  facet normal -0 0 -1
    outer loop
      vertex -1.55885 -0.9 0
      vertex -2.16506 -1.25 0
      vertex -1.64438 -0.732125 0
    endloop
  endfacet
  facet normal -0 0 -1
    outer loop
      vertex -1.64438 -0.732125 0
      vertex -2.28386 -1.01684 0
      vertex -1.7119 -0.556231 0
    endloop
  endfacet
  facet normal 0 0 -1
    outer loop
      vertex -2.28386 -1.01684 0
      vertex -1.64438 -0.732125 0
      vertex -2.16506 -1.25 0
    endloop
  endfacet
  facet normal 0 0 -1
    outer loop
      vertex 1.64438 0.732125 0
      vertex 2.28386 1.01684 0
      vertex 1.7119 0.556231 0
    endloop
  endfacet
  facet normal -0 0 -1
    outer loop
      vertex 2.28386 1.01684 0
      vertex 1.64438 0.732125 0
      vertex 2.16506 1.25 0
    endloop
  endfacet
  facet normal 0 0 -1
    outer loop
      vertex 1.55885 0.9 0
      vertex 2.16506 1.25 0
      vertex 1.64438 0.732125 0
    endloop
  endfacet
  facet normal -0 0 -1
    outer loop
      vertex 2.16506 1.25 0
      vertex 1.55885 0.9 0
      vertex 2.02254 1.46946 0
    endloop
  endfacet
  facet normal 0 0 -1
    outer loop
      vertex 1.45623 1.05801 0
      vertex 2.02254 1.46946 0
      vertex 1.55885 0.9 0
    endloop
  endfacet
  facet normal -0 0 -1
    outer loop
      vertex 2.02254 1.46946 0
      vertex 1.45623 1.05801 0
      vertex 1.85786 1.67283 0
    endloop
  endfacet
  facet normal 0 0 -1
    outer loop
      vertex 1.33766 1.20443 0
      vertex 1.85786 1.67283 0
      vertex 1.45623 1.05801 0
    endloop
  endfacet
  facet normal -0 0 -1
    outer loop
      vertex 1.85786 1.67283 0
      vertex 1.33766 1.20443 0
      vertex 1.67283 1.85786 0
    endloop
  endfacet
  facet normal 0 0 -1
    outer loop
      vertex 1.20443 1.33766 0
      vertex 1.67283 1.85786 0
      vertex 1.33766 1.20443 0
    endloop
  endfacet
  facet normal -0 0 -1
    outer loop
      vertex 1.67283 1.85786 0
      vertex 1.20443 1.33766 0
      vertex 1.46946 2.02254 0
    endloop
  endfacet
  facet normal 0 0 -1
    outer loop
      vertex 1.05801 1.45623 0
      vertex 1.46946 2.02254 0
      vertex 1.20443 1.33766 0
    endloop
  endfacet
  facet normal -0 0 -1
    outer loop
      vertex 1.46946 2.02254 0
      vertex 1.05801 1.45623 0
      vertex 1.25 2.16506 0
    endloop
  endfacet
  facet normal 0 0 -1
    outer loop
      vertex 0.9 1.55885 0
      vertex 1.25 2.16506 0
      vertex 1.05801 1.45623 0
    endloop
  endfacet
  facet normal -0 0 -1
    outer loop
      vertex 1.25 2.16506 0
      vertex 0.9 1.55885 0
      vertex 1.01684 2.28386 0
    endloop
  endfacet
  facet normal 0 0 -1
    outer loop
      vertex 0.732125 1.64438 0
      vertex 1.01684 2.28386 0
      vertex 0.9 1.55885 0
    endloop
  endfacet
  facet normal -0 0 -1
    outer loop
      vertex 1.01684 2.28386 0
      vertex 0.732125 1.64438 0
      vertex 0.772542 2.37764 0
    endloop
  endfacet
  facet normal 0 0 -1
    outer loop
      vertex 0.556231 1.7119 0
      vertex 0.772542 2.37764 0
      vertex 0.732125 1.64438 0
    endloop
  endfacet
  facet normal 0 0 -1
    outer loop
      vertex 0.556231 1.7119 0
      vertex 0.519779 2.44537 0
      vertex 0.772542 2.37764 0
    endloop
  endfacet
  facet normal 0 0 -1
    outer loop
      vertex 0.374241 1.76066 0
      vertex 0.519779 2.44537 0
      vertex 0.556231 1.7119 0
    endloop
  endfacet
  facet normal 0 0 -1
    outer loop
      vertex 0.374241 1.76066 0
      vertex 0.261321 2.4863 0
      vertex 0.519779 2.44537 0
    endloop
  endfacet
  facet normal 0 0 -1
    outer loop
      vertex 0.18815 1.79014 0
      vertex 0.261321 2.4863 0
      vertex 0.374241 1.76066 0
    endloop
  endfacet
  facet normal 0 0 -1
    outer loop
      vertex 0 1.8 0
      vertex 0.261321 2.4863 0
      vertex 0.18815 1.79014 0
    endloop
  endfacet
  facet normal 0 0 -1
    outer loop
      vertex 0 1.8 0
      vertex 0 2.5 0
      vertex 0.261321 2.4863 0
    endloop
  endfacet
  facet normal 0 0 -1
    outer loop
      vertex -0.18815 1.79014 0
      vertex 0 2.5 0
      vertex 0 1.8 0
    endloop
  endfacet
  facet normal 0 0 -1
    outer loop
      vertex -0.18815 1.79014 0
      vertex -0.261321 2.4863 0
      vertex 0 2.5 0
    endloop
  endfacet
  facet normal 0 0 -1
    outer loop
      vertex -0.374241 1.76066 0
      vertex -0.261321 2.4863 0
      vertex -0.18815 1.79014 0
    endloop
  endfacet
  facet normal 0 0 -1
    outer loop
      vertex -0.374241 1.76066 0
      vertex -0.519779 2.44537 0
      vertex -0.261321 2.4863 0
    endloop
  endfacet
  facet normal 0 0 -1
    outer loop
      vertex -0.556231 1.7119 0
      vertex -0.519779 2.44537 0
      vertex -0.374241 1.76066 0
    endloop
  endfacet
  facet normal 0 0 -1
    outer loop
      vertex -0.772542 2.37764 0
      vertex -0.556231 1.7119 0
      vertex -0.732125 1.64438 0
    endloop
  endfacet
  facet normal 0 0 -1
    outer loop
      vertex -0.556231 1.7119 0
      vertex -0.772542 2.37764 0
      vertex -0.519779 2.44537 0
    endloop
  endfacet
  facet normal 0 0 -1
    outer loop
      vertex -1.01684 2.28386 0
      vertex -0.732125 1.64438 0
      vertex -0.9 1.55885 0
    endloop
  endfacet
  facet normal 0 0 -1
    outer loop
      vertex -0.732125 1.64438 0
      vertex -1.01684 2.28386 0
      vertex -0.772542 2.37764 0
    endloop
  endfacet
  facet normal 0 0 -1
    outer loop
      vertex -1.25 2.16506 0
      vertex -0.9 1.55885 0
      vertex -1.05801 1.45623 0
    endloop
  endfacet
  facet normal 0 0 -1
    outer loop
      vertex -1.46946 2.02254 0
      vertex -1.05801 1.45623 0
      vertex -1.20443 1.33766 0
    endloop
  endfacet
  facet normal 0 0 -1
    outer loop
      vertex -0.9 1.55885 0
      vertex -1.25 2.16506 0
      vertex -1.01684 2.28386 0
    endloop
  endfacet
  facet normal 0 0 -1
    outer loop
      vertex -1.67283 1.85786 0
      vertex -1.20443 1.33766 0
      vertex -1.33766 1.20443 0
    endloop
  endfacet
  facet normal 0 0 -1
    outer loop
      vertex -1.85786 1.67283 0
      vertex -1.33766 1.20443 0
      vertex -1.45623 1.05801 0
    endloop
  endfacet
  facet normal 0 0 -1
    outer loop
      vertex -1.05801 1.45623 0
      vertex -1.46946 2.02254 0
      vertex -1.25 2.16506 0
    endloop
  endfacet
  facet normal 0 0 -1
    outer loop
      vertex -2.02254 1.46946 0
      vertex -1.45623 1.05801 0
      vertex -1.55885 0.9 0
    endloop
  endfacet
  facet normal 0 0 -1
    outer loop
      vertex -2.16506 1.25 0
      vertex -1.55885 0.9 0
      vertex -1.64438 0.732125 0
    endloop
  endfacet
  facet normal 0 0 -1
    outer loop
      vertex -1.20443 1.33766 0
      vertex -1.67283 1.85786 0
      vertex -1.46946 2.02254 0
    endloop
  endfacet
  facet normal 0 0 -1
    outer loop
      vertex -2.28386 1.01684 0
      vertex -1.64438 0.732125 0
      vertex -1.7119 0.556231 0
    endloop
  endfacet
  facet normal 0 0 -1
    outer loop
      vertex -2.37764 0.772542 0
      vertex -1.7119 0.556231 0
      vertex -1.76066 0.374241 0
    endloop
  endfacet
  facet normal 0 0 -1
    outer loop
      vertex -2.44537 0.519779 0
      vertex -1.76066 0.374241 0
      vertex -1.79014 0.18815 0
    endloop
  endfacet
  facet normal 0 0 -1
    outer loop
      vertex -1.33766 1.20443 0
      vertex -1.85786 1.67283 0
      vertex -1.67283 1.85786 0
    endloop
  endfacet
  facet normal 0 0 -1
    outer loop
      vertex -2.4863 0.261321 0
      vertex -1.79014 0.18815 0
      vertex -1.8 0 0
    endloop
  endfacet
  facet normal 0 0 -1
    outer loop
      vertex -2.37764 -0.772542 0
      vertex -1.7119 -0.556231 0
      vertex -2.28386 -1.01684 0
    endloop
  endfacet
  facet normal -0 0 -1
    outer loop
      vertex -1.7119 -0.556231 0
      vertex -2.37764 -0.772542 0
      vertex -1.76066 -0.374241 0
    endloop
  endfacet
  facet normal 0 0 -1
    outer loop
      vertex -1.45623 1.05801 0
      vertex -2.02254 1.46946 0
      vertex -1.85786 1.67283 0
    endloop
  endfacet
  facet normal 0 0 -1
    outer loop
      vertex -2.44537 -0.519779 0
      vertex -1.76066 -0.374241 0
      vertex -2.37764 -0.772542 0
    endloop
  endfacet
  facet normal 0 0 -1
    outer loop
      vertex -1.55885 0.9 0
      vertex -2.16506 1.25 0
      vertex -2.02254 1.46946 0
    endloop
  endfacet
  facet normal -0 0 -1
    outer loop
      vertex -1.76066 -0.374241 0
      vertex -2.44537 -0.519779 0
      vertex -1.79014 -0.18815 0
    endloop
  endfacet
  facet normal 0 0 -1
    outer loop
      vertex -1.64438 0.732125 0
      vertex -2.28386 1.01684 0
      vertex -2.16506 1.25 0
    endloop
  endfacet
  facet normal 0 0 -1
    outer loop
      vertex -2.4863 -0.261321 0
      vertex -1.79014 -0.18815 0
      vertex -2.44537 -0.519779 0
    endloop
  endfacet
  facet normal 0 0 -1
    outer loop
      vertex -1.7119 0.556231 0
      vertex -2.37764 0.772542 0
      vertex -2.28386 1.01684 0
    endloop
  endfacet
  facet normal -0 0 -1
    outer loop
      vertex -1.79014 -0.18815 0
      vertex -2.4863 -0.261321 0
      vertex -1.8 0 0
    endloop
  endfacet
  facet normal 0 0 -1
    outer loop
      vertex -1.76066 0.374241 0
      vertex -2.44537 0.519779 0
      vertex -2.37764 0.772542 0
    endloop
  endfacet
  facet normal 0 0 -1
    outer loop
      vertex -2.5 0 0
      vertex -1.8 0 0
      vertex -2.4863 -0.261321 0
    endloop
  endfacet
  facet normal 0 0 -1
    outer loop
      vertex -1.79014 0.18815 0
      vertex -2.4863 0.261321 0
      vertex -2.44537 0.519779 0
    endloop
  endfacet
  facet normal 0 0 -1
    outer loop
      vertex -1.8 0 0
      vertex -2.5 0 0
      vertex -2.4863 0.261321 0
    endloop
  endfacet
  facet normal 0.629307 -0.777157 0
    outer loop
      vertex 1.46946 -2.02254 0
      vertex 1.67283 -1.85786 2.5
      vertex 1.46946 -2.02254 2.5
    endloop
  endfacet
  facet normal 0.629307 -0.777157 0
    outer loop
      vertex 1.67283 -1.85786 2.5
      vertex 1.46946 -2.02254 0
      vertex 1.67283 -1.85786 0
    endloop
  endfacet
  facet normal 0.544642 -0.838669 0
    outer loop
      vertex 1.25 -2.16506 0
      vertex 1.46946 -2.02254 2.5
      vertex 1.25 -2.16506 2.5
    endloop
  endfacet
  facet normal 0.544642 -0.838669 0
    outer loop
      vertex 1.46946 -2.02254 2.5
      vertex 1.25 -2.16506 0
      vertex 1.46946 -2.02254 0
    endloop
  endfacet
  facet normal -0.358377 0.933577 0
    outer loop
      vertex -0.772542 2.37764 0
      vertex -1.01684 2.28386 2.5
      vertex -0.772542 2.37764 2.5
    endloop
  endfacet
  facet normal -0.358377 0.933577 0
    outer loop
      vertex -1.01684 2.28386 2.5
      vertex -0.772542 2.37764 0
      vertex -1.01684 2.28386 0
    endloop
  endfacet
  facet normal -0.987692 -0.156413 0
    outer loop
      vertex -2.44537 -0.519779 0
      vertex -2.4863 -0.261321 2.5
      vertex -2.4863 -0.261321 0
    endloop
  endfacet
  facet normal -0.987692 -0.156413 0
    outer loop
      vertex -2.4863 -0.261321 2.5
      vertex -2.44537 -0.519779 0
      vertex -2.44537 -0.519779 2.5
    endloop
  endfacet
  facet normal -0.156413 0.987692 0
    outer loop
      vertex -0.261321 2.4863 0
      vertex -0.519779 2.44537 2.5
      vertex -0.261321 2.4863 2.5
    endloop
  endfacet
  facet normal -0.156413 0.987692 0
    outer loop
      vertex -0.519779 2.44537 2.5
      vertex -0.261321 2.4863 0
      vertex -0.519779 2.44537 0
    endloop
  endfacet
  facet normal 0.838669 0.544642 0
    outer loop
      vertex 2.16506 1.25 2.5
      vertex 2.02254 1.46946 0
      vertex 2.02254 1.46946 2.5
    endloop
  endfacet
  facet normal 0.838669 0.544642 0
    outer loop
      vertex 2.02254 1.46946 0
      vertex 2.16506 1.25 2.5
      vertex 2.16506 1.25 0
    endloop
  endfacet
  facet normal 0.258827 0.965924 -0
    outer loop
      vertex 0.772542 2.37764 0
      vertex 0.519779 2.44537 2.5
      vertex 0.772542 2.37764 2.5
    endloop
  endfacet
  facet normal 0.258827 0.965924 0
    outer loop
      vertex 0.519779 2.44537 2.5
      vertex 0.772542 2.37764 0
      vertex 0.519779 2.44537 0
    endloop
  endfacet
  facet normal 0.544642 0.838669 -0
    outer loop
      vertex 1.46946 2.02254 0
      vertex 1.25 2.16506 2.5
      vertex 1.46946 2.02254 2.5
    endloop
  endfacet
  facet normal 0.544642 0.838669 0
    outer loop
      vertex 1.25 2.16506 2.5
      vertex 1.46946 2.02254 0
      vertex 1.25 2.16506 0
    endloop
  endfacet
  facet normal 0.358377 0.933577 -0
    outer loop
      vertex 1.01684 2.28386 0
      vertex 0.772542 2.37764 2.5
      vertex 1.01684 2.28386 2.5
    endloop
  endfacet
  facet normal 0.358377 0.933577 0
    outer loop
      vertex 0.772542 2.37764 2.5
      vertex 1.01684 2.28386 0
      vertex 0.772542 2.37764 0
    endloop
  endfacet
  facet normal 0.965924 -0.258827 0
    outer loop
      vertex 2.37764 -0.772542 2.5
      vertex 2.44537 -0.519779 0
      vertex 2.44537 -0.519779 2.5
    endloop
  endfacet
  facet normal 0.965924 -0.258827 0
    outer loop
      vertex 2.44537 -0.519779 0
      vertex 2.37764 -0.772542 2.5
      vertex 2.37764 -0.772542 0
    endloop
  endfacet
  facet normal 0.453988 -0.891008 0
    outer loop
      vertex 1.01684 -2.28386 0
      vertex 1.25 -2.16506 2.5
      vertex 1.01684 -2.28386 2.5
    endloop
  endfacet
  facet normal 0.453988 -0.891008 0
    outer loop
      vertex 1.25 -2.16506 2.5
      vertex 1.01684 -2.28386 0
      vertex 1.25 -2.16506 0
    endloop
  endfacet
  facet normal 0.052354 -0.998629 0
    outer loop
      vertex 0 -2.5 0
      vertex 0.261321 -2.4863 2.5
      vertex 0 -2.5 2.5
    endloop
  endfacet
  facet normal 0.052354 -0.998629 0
    outer loop
      vertex 0.261321 -2.4863 2.5
      vertex 0 -2.5 0
      vertex 0.261321 -2.4863 0
    endloop
  endfacet
  facet normal 0.258827 -0.965924 0
    outer loop
      vertex 0.519779 -2.44537 0
      vertex 0.772542 -2.37764 2.5
      vertex 0.519779 -2.44537 2.5
    endloop
  endfacet
  facet normal 0.258827 -0.965924 0
    outer loop
      vertex 0.772542 -2.37764 2.5
      vertex 0.519779 -2.44537 0
      vertex 0.772542 -2.37764 0
    endloop
  endfacet
  facet normal 0.987692 -0.156413 0
    outer loop
      vertex 2.44537 -0.519779 2.5
      vertex 2.4863 -0.261321 0
      vertex 2.4863 -0.261321 2.5
    endloop
  endfacet
  facet normal 0.987692 -0.156413 0
    outer loop
      vertex 2.4863 -0.261321 0
      vertex 2.44537 -0.519779 2.5
      vertex 2.44537 -0.519779 0
    endloop
  endfacet
  facet normal -0.933577 -0.358377 0
    outer loop
      vertex -2.28386 -1.01684 0
      vertex -2.37764 -0.772542 2.5
      vertex -2.37764 -0.772542 0
    endloop
  endfacet
  facet normal -0.933577 -0.358377 0
    outer loop
      vertex -2.37764 -0.772542 2.5
      vertex -2.28386 -1.01684 0
      vertex -2.28386 -1.01684 2.5
    endloop
  endfacet
  facet normal -0.987692 0.156413 0
    outer loop
      vertex -2.4863 0.261321 0
      vertex -2.44537 0.519779 2.5
      vertex -2.44537 0.519779 0
    endloop
  endfacet
  facet normal -0.987692 0.156413 0
    outer loop
      vertex -2.44537 0.519779 2.5
      vertex -2.4863 0.261321 0
      vertex -2.4863 0.261321 2.5
    endloop
  endfacet
  facet normal 0.891008 -0.453988 0
    outer loop
      vertex 2.16506 -1.25 2.5
      vertex 2.28386 -1.01684 0
      vertex 2.28386 -1.01684 2.5
    endloop
  endfacet
  facet normal 0.891008 -0.453988 0
    outer loop
      vertex 2.28386 -1.01684 0
      vertex 2.16506 -1.25 2.5
      vertex 2.16506 -1.25 0
    endloop
  endfacet
  facet normal -0.965924 -0.258827 0
    outer loop
      vertex -2.37764 -0.772542 0
      vertex -2.44537 -0.519779 2.5
      vertex -2.44537 -0.519779 0
    endloop
  endfacet
  facet normal -0.965924 -0.258827 0
    outer loop
      vertex -2.44537 -0.519779 2.5
      vertex -2.37764 -0.772542 0
      vertex -2.37764 -0.772542 2.5
    endloop
  endfacet
  facet normal -0.453988 -0.891008 0
    outer loop
      vertex -1.25 -2.16506 0
      vertex -1.01684 -2.28386 2.5
      vertex -1.25 -2.16506 2.5
    endloop
  endfacet
  facet normal -0.453988 -0.891008 -0
    outer loop
      vertex -1.01684 -2.28386 2.5
      vertex -1.25 -2.16506 0
      vertex -1.01684 -2.28386 0
    endloop
  endfacet
  facet normal -0.891008 -0.453988 0
    outer loop
      vertex -2.16506 -1.25 0
      vertex -2.28386 -1.01684 2.5
      vertex -2.28386 -1.01684 0
    endloop
  endfacet
  facet normal -0.891008 -0.453988 0
    outer loop
      vertex -2.28386 -1.01684 2.5
      vertex -2.16506 -1.25 0
      vertex -2.16506 -1.25 2.5
    endloop
  endfacet
  facet normal 0.998629 -0.052354 0
    outer loop
      vertex 2.4863 -0.261321 2.5
      vertex 2.5 0 0
      vertex 2.5 0 2.5
    endloop
  endfacet
  facet normal 0.998629 -0.052354 0
    outer loop
      vertex 2.5 0 0
      vertex 2.4863 -0.261321 2.5
      vertex 2.4863 -0.261321 0
    endloop
  endfacet
  facet normal 0.777157 0.629307 0
    outer loop
      vertex 2.02254 1.46946 2.5
      vertex 1.85786 1.67283 0
      vertex 1.85786 1.67283 2.5
    endloop
  endfacet
  facet normal 0.777157 0.629307 0
    outer loop
      vertex 1.85786 1.67283 0
      vertex 2.02254 1.46946 2.5
      vertex 2.02254 1.46946 0
    endloop
  endfacet
  facet normal -0.258827 -0.965924 0
    outer loop
      vertex -0.772542 -2.37764 0
      vertex -0.519779 -2.44537 2.5
      vertex -0.772542 -2.37764 2.5
    endloop
  endfacet
  facet normal -0.258827 -0.965924 -0
    outer loop
      vertex -0.519779 -2.44537 2.5
      vertex -0.772542 -2.37764 0
      vertex -0.519779 -2.44537 0
    endloop
  endfacet
  facet normal 0.156413 -0.987692 0
    outer loop
      vertex 0.261321 -2.4863 0
      vertex 0.519779 -2.44537 2.5
      vertex 0.261321 -2.4863 2.5
    endloop
  endfacet
  facet normal 0.156413 -0.987692 0
    outer loop
      vertex 0.519779 -2.44537 2.5
      vertex 0.261321 -2.4863 0
      vertex 0.519779 -2.44537 0
    endloop
  endfacet
  facet normal 0.933577 0.358377 0
    outer loop
      vertex 2.37764 0.772542 2.5
      vertex 2.28386 1.01684 0
      vertex 2.28386 1.01684 2.5
    endloop
  endfacet
  facet normal 0.933577 0.358377 0
    outer loop
      vertex 2.28386 1.01684 0
      vertex 2.37764 0.772542 2.5
      vertex 2.37764 0.772542 0
    endloop
  endfacet
  facet normal 0.777157 -0.629307 0
    outer loop
      vertex 1.85786 -1.67283 2.5
      vertex 2.02254 -1.46946 0
      vertex 2.02254 -1.46946 2.5
    endloop
  endfacet
  facet normal 0.777157 -0.629307 0
    outer loop
      vertex 2.02254 -1.46946 0
      vertex 1.85786 -1.67283 2.5
      vertex 1.85786 -1.67283 0
    endloop
  endfacet
  facet normal 0.838669 -0.544642 0
    outer loop
      vertex 2.02254 -1.46946 2.5
      vertex 2.16506 -1.25 0
      vertex 2.16506 -1.25 2.5
    endloop
  endfacet
  facet normal 0.838669 -0.544642 0
    outer loop
      vertex 2.16506 -1.25 0
      vertex 2.02254 -1.46946 2.5
      vertex 2.02254 -1.46946 0
    endloop
  endfacet
  facet normal -0.258827 0.965924 0
    outer loop
      vertex -0.519779 2.44537 0
      vertex -0.772542 2.37764 2.5
      vertex -0.519779 2.44537 2.5
    endloop
  endfacet
  facet normal -0.258827 0.965924 0
    outer loop
      vertex -0.772542 2.37764 2.5
      vertex -0.519779 2.44537 0
      vertex -0.772542 2.37764 0
    endloop
  endfacet
  facet normal -0.838669 0.544642 0
    outer loop
      vertex -2.16506 1.25 0
      vertex -2.02254 1.46946 2.5
      vertex -2.02254 1.46946 0
    endloop
  endfacet
  facet normal -0.838669 0.544642 0
    outer loop
      vertex -2.02254 1.46946 2.5
      vertex -2.16506 1.25 0
      vertex -2.16506 1.25 2.5
    endloop
  endfacet
  facet normal 0.156413 0.987692 -0
    outer loop
      vertex 0.519779 2.44537 0
      vertex 0.261321 2.4863 2.5
      vertex 0.519779 2.44537 2.5
    endloop
  endfacet
  facet normal 0.156413 0.987692 0
    outer loop
      vertex 0.261321 2.4863 2.5
      vertex 0.519779 2.44537 0
      vertex 0.261321 2.4863 0
    endloop
  endfacet
  facet normal 0.707107 -0.707107 0
    outer loop
      vertex 1.67283 -1.85786 2.5
      vertex 1.85786 -1.67283 0
      vertex 1.85786 -1.67283 2.5
    endloop
  endfacet
  facet normal 0.707107 -0.707107 0
    outer loop
      vertex 1.85786 -1.67283 0
      vertex 1.67283 -1.85786 2.5
      vertex 1.67283 -1.85786 0
    endloop
  endfacet
  facet normal 0.891008 0.453988 0
    outer loop
      vertex 2.28386 1.01684 2.5
      vertex 2.16506 1.25 0
      vertex 2.16506 1.25 2.5
    endloop
  endfacet
  facet normal 0.891008 0.453988 0
    outer loop
      vertex 2.16506 1.25 0
      vertex 2.28386 1.01684 2.5
      vertex 2.28386 1.01684 0
    endloop
  endfacet
  facet normal -0.707107 0.707107 0
    outer loop
      vertex -1.85786 1.67283 0
      vertex -1.67283 1.85786 2.5
      vertex -1.67283 1.85786 0
    endloop
  endfacet
  facet normal -0.707107 0.707107 0
    outer loop
      vertex -1.67283 1.85786 2.5
      vertex -1.85786 1.67283 0
      vertex -1.85786 1.67283 2.5
    endloop
  endfacet
  facet normal -0.052354 -0.998629 0
    outer loop
      vertex -0.261321 -2.4863 0
      vertex 0 -2.5 2.5
      vertex -0.261321 -2.4863 2.5
    endloop
  endfacet
  facet normal -0.052354 -0.998629 -0
    outer loop
      vertex 0 -2.5 2.5
      vertex -0.261321 -2.4863 0
      vertex 0 -2.5 0
    endloop
  endfacet
  facet normal -0.052354 0.998629 0
    outer loop
      vertex 0 2.5 0
      vertex -0.261321 2.4863 2.5
      vertex 0 2.5 2.5
    endloop
  endfacet
  facet normal -0.052354 0.998629 0
    outer loop
      vertex -0.261321 2.4863 2.5
      vertex 0 2.5 0
      vertex -0.261321 2.4863 0
    endloop
  endfacet
  facet normal -0.998629 -0.052354 0
    outer loop
      vertex -2.4863 -0.261321 0
      vertex -2.5 0 2.5
      vertex -2.5 0 0
    endloop
  endfacet
  facet normal -0.998629 -0.052354 0
    outer loop
      vertex -2.5 0 2.5
      vertex -2.4863 -0.261321 0
      vertex -2.4863 -0.261321 2.5
    endloop
  endfacet
  facet normal -0.965924 0.258827 0
    outer loop
      vertex -2.44537 0.519779 0
      vertex -2.37764 0.772542 2.5
      vertex -2.37764 0.772542 0
    endloop
  endfacet
  facet normal -0.965924 0.258827 0
    outer loop
      vertex -2.37764 0.772542 2.5
      vertex -2.44537 0.519779 0
      vertex -2.44537 0.519779 2.5
    endloop
  endfacet
  facet normal -0.777157 -0.629307 0
    outer loop
      vertex -1.85786 -1.67283 0
      vertex -2.02254 -1.46946 2.5
      vertex -2.02254 -1.46946 0
    endloop
  endfacet
  facet normal -0.777157 -0.629307 0
    outer loop
      vertex -2.02254 -1.46946 2.5
      vertex -1.85786 -1.67283 0
      vertex -1.85786 -1.67283 2.5
    endloop
  endfacet
  facet normal -0.933577 0.358377 0
    outer loop
      vertex -2.37764 0.772542 0
      vertex -2.28386 1.01684 2.5
      vertex -2.28386 1.01684 0
    endloop
  endfacet
  facet normal -0.933577 0.358377 0
    outer loop
      vertex -2.28386 1.01684 2.5
      vertex -2.37764 0.772542 0
      vertex -2.37764 0.772542 2.5
    endloop
  endfacet
  facet normal 0.052354 0.998629 -0
    outer loop
      vertex 0.261321 2.4863 0
      vertex 0 2.5 2.5
      vertex 0.261321 2.4863 2.5
    endloop
  endfacet
  facet normal 0.052354 0.998629 0
    outer loop
      vertex 0 2.5 2.5
      vertex 0.261321 2.4863 0
      vertex 0 2.5 0
    endloop
  endfacet
  facet normal -0.629307 -0.777157 0
    outer loop
      vertex -1.67283 -1.85786 0
      vertex -1.46946 -2.02254 2.5
      vertex -1.67283 -1.85786 2.5
    endloop
  endfacet
  facet normal -0.629307 -0.777157 -0
    outer loop
      vertex -1.46946 -2.02254 2.5
      vertex -1.67283 -1.85786 0
      vertex -1.46946 -2.02254 0
    endloop
  endfacet
  facet normal 0.933577 -0.358377 0
    outer loop
      vertex 2.28386 -1.01684 2.5
      vertex 2.37764 -0.772542 0
      vertex 2.37764 -0.772542 2.5
    endloop
  endfacet
  facet normal 0.933577 -0.358377 0
    outer loop
      vertex 2.37764 -0.772542 0
      vertex 2.28386 -1.01684 2.5
      vertex 2.28386 -1.01684 0
    endloop
  endfacet
  facet normal -0.544642 -0.838669 0
    outer loop
      vertex -1.46946 -2.02254 0
      vertex -1.25 -2.16506 2.5
      vertex -1.46946 -2.02254 2.5
    endloop
  endfacet
  facet normal -0.544642 -0.838669 -0
    outer loop
      vertex -1.25 -2.16506 2.5
      vertex -1.46946 -2.02254 0
      vertex -1.25 -2.16506 0
    endloop
  endfacet
  facet normal -0.358377 -0.933577 0
    outer loop
      vertex -1.01684 -2.28386 0
      vertex -0.772542 -2.37764 2.5
      vertex -1.01684 -2.28386 2.5
    endloop
  endfacet
  facet normal -0.358377 -0.933577 -0
    outer loop
      vertex -0.772542 -2.37764 2.5
      vertex -1.01684 -2.28386 0
      vertex -0.772542 -2.37764 0
    endloop
  endfacet
  facet normal -0.998629 0.052354 0
    outer loop
      vertex -2.5 0 0
      vertex -2.4863 0.261321 2.5
      vertex -2.4863 0.261321 0
    endloop
  endfacet
  facet normal -0.998629 0.052354 0
    outer loop
      vertex -2.4863 0.261321 2.5
      vertex -2.5 0 0
      vertex -2.5 0 2.5
    endloop
  endfacet
  facet normal 0 0 1
    outer loop
      vertex 1.8 0 2.5
      vertex 2.5 0 2.5
      vertex 2.4863 0.261321 2.5
    endloop
  endfacet
  facet normal 0 0 1
    outer loop
      vertex 1.79014 0.18815 2.5
      vertex 2.4863 0.261321 2.5
      vertex 2.44537 0.519779 2.5
    endloop
  endfacet
  facet normal 0 0 1
    outer loop
      vertex 2.5 0 2.5
      vertex 1.8 0 2.5
      vertex 2.4863 -0.261321 2.5
    endloop
  endfacet
  facet normal 0 0 1
    outer loop
      vertex 1.76066 0.374241 2.5
      vertex 2.44537 0.519779 2.5
      vertex 2.37764 0.772542 2.5
    endloop
  endfacet
  facet normal -0 0 1
    outer loop
      vertex 1.79014 -0.18815 2.5
      vertex 2.4863 -0.261321 2.5
      vertex 1.8 0 2.5
    endloop
  endfacet
  facet normal 0 0 1
    outer loop
      vertex 1.7119 0.556231 2.5
      vertex 2.37764 0.772542 2.5
      vertex 2.28386 1.01684 2.5
    endloop
  endfacet
  facet normal 0 0 1
    outer loop
      vertex 2.4863 -0.261321 2.5
      vertex 1.79014 -0.18815 2.5
      vertex 2.44537 -0.519779 2.5
    endloop
  endfacet
  facet normal 0 0 1
    outer loop
      vertex 1.64438 0.732125 2.5
      vertex 2.28386 1.01684 2.5
      vertex 2.16506 1.25 2.5
    endloop
  endfacet
  facet normal -0 0 1
    outer loop
      vertex 1.76066 -0.374241 2.5
      vertex 2.44537 -0.519779 2.5
      vertex 1.79014 -0.18815 2.5
    endloop
  endfacet
  facet normal 0 0 1
    outer loop
      vertex 1.55885 0.9 2.5
      vertex 2.16506 1.25 2.5
      vertex 2.02254 1.46946 2.5
    endloop
  endfacet
  facet normal 0 0 1
    outer loop
      vertex 2.44537 -0.519779 2.5
      vertex 1.76066 -0.374241 2.5
      vertex 2.37764 -0.772542 2.5
    endloop
  endfacet
  facet normal 0 0 1
    outer loop
      vertex 1.45623 1.05801 2.5
      vertex 2.02254 1.46946 2.5
      vertex 1.85786 1.67283 2.5
    endloop
  endfacet
  facet normal -0 0 1
    outer loop
      vertex 1.7119 -0.556231 2.5
      vertex 2.37764 -0.772542 2.5
      vertex 1.76066 -0.374241 2.5
    endloop
  endfacet
  facet normal 0 0 1
    outer loop
      vertex 2.37764 -0.772542 2.5
      vertex 1.7119 -0.556231 2.5
      vertex 2.28386 -1.01684 2.5
    endloop
  endfacet
  facet normal 0 0 1
    outer loop
      vertex 2.4863 0.261321 2.5
      vertex 1.79014 0.18815 2.5
      vertex 1.8 0 2.5
    endloop
  endfacet
  facet normal 0 0 1
    outer loop
      vertex 2.44537 0.519779 2.5
      vertex 1.76066 0.374241 2.5
      vertex 1.79014 0.18815 2.5
    endloop
  endfacet
  facet normal 0 0 1
    outer loop
      vertex 2.37764 0.772542 2.5
      vertex 1.7119 0.556231 2.5
      vertex 1.76066 0.374241 2.5
    endloop
  endfacet
  facet normal 0 0 1
    outer loop
      vertex 1.33766 1.20443 2.5
      vertex 1.85786 1.67283 2.5
      vertex 1.67283 1.85786 2.5
    endloop
  endfacet
  facet normal 0 0 1
    outer loop
      vertex 2.28386 1.01684 2.5
      vertex 1.64438 0.732125 2.5
      vertex 1.7119 0.556231 2.5
    endloop
  endfacet
  facet normal 0 0 1
    outer loop
      vertex 2.16506 1.25 2.5
      vertex 1.55885 0.9 2.5
      vertex 1.64438 0.732125 2.5
    endloop
  endfacet
  facet normal 0 0 1
    outer loop
      vertex 1.20443 1.33766 2.5
      vertex 1.67283 1.85786 2.5
      vertex 1.46946 2.02254 2.5
    endloop
  endfacet
  facet normal 0 0 1
    outer loop
      vertex 2.02254 1.46946 2.5
      vertex 1.45623 1.05801 2.5
      vertex 1.55885 0.9 2.5
    endloop
  endfacet
  facet normal 0 0 1
    outer loop
      vertex 1.85786 1.67283 2.5
      vertex 1.33766 1.20443 2.5
      vertex 1.45623 1.05801 2.5
    endloop
  endfacet
  facet normal 0 0 1
    outer loop
      vertex 1.05801 1.45623 2.5
      vertex 1.46946 2.02254 2.5
      vertex 1.25 2.16506 2.5
    endloop
  endfacet
  facet normal 0 0 1
    outer loop
      vertex 1.67283 1.85786 2.5
      vertex 1.20443 1.33766 2.5
      vertex 1.33766 1.20443 2.5
    endloop
  endfacet
  facet normal 0 0 1
    outer loop
      vertex 1.46946 2.02254 2.5
      vertex 1.05801 1.45623 2.5
      vertex 1.20443 1.33766 2.5
    endloop
  endfacet
  facet normal 0 0 1
    outer loop
      vertex 0.9 1.55885 2.5
      vertex 1.25 2.16506 2.5
      vertex 1.01684 2.28386 2.5
    endloop
  endfacet
  facet normal 0 0 1
    outer loop
      vertex 1.25 2.16506 2.5
      vertex 0.9 1.55885 2.5
      vertex 1.05801 1.45623 2.5
    endloop
  endfacet
  facet normal 0 0 1
    outer loop
      vertex 0.732125 1.64438 2.5
      vertex 1.01684 2.28386 2.5
      vertex 0.772542 2.37764 2.5
    endloop
  endfacet
  facet normal 0 0 1
    outer loop
      vertex 1.01684 2.28386 2.5
      vertex 0.732125 1.64438 2.5
      vertex 0.9 1.55885 2.5
    endloop
  endfacet
  facet normal 0 0 1
    outer loop
      vertex 0.772542 2.37764 2.5
      vertex 0.556231 1.7119 2.5
      vertex 0.732125 1.64438 2.5
    endloop
  endfacet
  facet normal 0 0 1
    outer loop
      vertex 0.519779 2.44537 2.5
      vertex 0.556231 1.7119 2.5
      vertex 0.772542 2.37764 2.5
    endloop
  endfacet
  facet normal 0 0 1
    outer loop
      vertex 0.519779 2.44537 2.5
      vertex 0.374241 1.76066 2.5
      vertex 0.556231 1.7119 2.5
    endloop
  endfacet
  facet normal 0 0 1
    outer loop
      vertex 0.261321 2.4863 2.5
      vertex 0.374241 1.76066 2.5
      vertex 0.519779 2.44537 2.5
    endloop
  endfacet
  facet normal 0 0 1
    outer loop
      vertex 0.261321 2.4863 2.5
      vertex 0.18815 1.79014 2.5
      vertex 0.374241 1.76066 2.5
    endloop
  endfacet
  facet normal 0 0 1
    outer loop
      vertex 0 2.5 2.5
      vertex 0.18815 1.79014 2.5
      vertex 0.261321 2.4863 2.5
    endloop
  endfacet
  facet normal 0 0 1
    outer loop
      vertex 0 2.5 2.5
      vertex 0 1.8 2.5
      vertex 0.18815 1.79014 2.5
    endloop
  endfacet
  facet normal 0 0 1
    outer loop
      vertex 0 2.5 2.5
      vertex -0.18815 1.79014 2.5
      vertex 0 1.8 2.5
    endloop
  endfacet
  facet normal -0 0 1
    outer loop
      vertex -0.261321 2.4863 2.5
      vertex -0.18815 1.79014 2.5
      vertex 0 2.5 2.5
    endloop
  endfacet
  facet normal 0 0 1
    outer loop
      vertex -0.261321 2.4863 2.5
      vertex -0.374241 1.76066 2.5
      vertex -0.18815 1.79014 2.5
    endloop
  endfacet
  facet normal -0 0 1
    outer loop
      vertex -0.519779 2.44537 2.5
      vertex -0.374241 1.76066 2.5
      vertex -0.261321 2.4863 2.5
    endloop
  endfacet
  facet normal 0 0 1
    outer loop
      vertex -0.519779 2.44537 2.5
      vertex -0.556231 1.7119 2.5
      vertex -0.374241 1.76066 2.5
    endloop
  endfacet
  facet normal -0 0 1
    outer loop
      vertex -0.772542 2.37764 2.5
      vertex -0.556231 1.7119 2.5
      vertex -0.519779 2.44537 2.5
    endloop
  endfacet
  facet normal 0 0 1
    outer loop
      vertex -0.556231 1.7119 2.5
      vertex -0.772542 2.37764 2.5
      vertex -0.732125 1.64438 2.5
    endloop
  endfacet
  facet normal -0 0 1
    outer loop
      vertex -1.01684 2.28386 2.5
      vertex -0.732125 1.64438 2.5
      vertex -0.772542 2.37764 2.5
    endloop
  endfacet
  facet normal 0 0 1
    outer loop
      vertex -0.732125 1.64438 2.5
      vertex -1.01684 2.28386 2.5
      vertex -0.9 1.55885 2.5
    endloop
  endfacet
  facet normal -0 0 1
    outer loop
      vertex -1.25 2.16506 2.5
      vertex -0.9 1.55885 2.5
      vertex -1.01684 2.28386 2.5
    endloop
  endfacet
  facet normal 0 0 1
    outer loop
      vertex -0.9 1.55885 2.5
      vertex -1.25 2.16506 2.5
      vertex -1.05801 1.45623 2.5
    endloop
  endfacet
  facet normal -0 0 1
    outer loop
      vertex -1.46946 2.02254 2.5
      vertex -1.05801 1.45623 2.5
      vertex -1.25 2.16506 2.5
    endloop
  endfacet
  facet normal 0 0 1
    outer loop
      vertex -1.05801 1.45623 2.5
      vertex -1.46946 2.02254 2.5
      vertex -1.20443 1.33766 2.5
    endloop
  endfacet
  facet normal -0 0 1
    outer loop
      vertex -1.67283 1.85786 2.5
      vertex -1.20443 1.33766 2.5
      vertex -1.46946 2.02254 2.5
    endloop
  endfacet
  facet normal 0 0 1
    outer loop
      vertex -1.20443 1.33766 2.5
      vertex -1.67283 1.85786 2.5
      vertex -1.33766 1.20443 2.5
    endloop
  endfacet
  facet normal -0 0 1
    outer loop
      vertex -1.85786 1.67283 2.5
      vertex -1.33766 1.20443 2.5
      vertex -1.67283 1.85786 2.5
    endloop
  endfacet
  facet normal 0 0 1
    outer loop
      vertex -1.33766 1.20443 2.5
      vertex -1.85786 1.67283 2.5
      vertex -1.45623 1.05801 2.5
    endloop
  endfacet
  facet normal -0 0 1
    outer loop
      vertex -2.02254 1.46946 2.5
      vertex -1.45623 1.05801 2.5
      vertex -1.85786 1.67283 2.5
    endloop
  endfacet
  facet normal 0 0 1
    outer loop
      vertex -1.45623 1.05801 2.5
      vertex -2.02254 1.46946 2.5
      vertex -1.55885 0.9 2.5
    endloop
  endfacet
  facet normal -0 0 1
    outer loop
      vertex -2.16506 1.25 2.5
      vertex -1.55885 0.9 2.5
      vertex -2.02254 1.46946 2.5
    endloop
  endfacet
  facet normal 0 0 1
    outer loop
      vertex -1.55885 0.9 2.5
      vertex -2.16506 1.25 2.5
      vertex -1.64438 0.732125 2.5
    endloop
  endfacet
  facet normal 0 0 1
    outer loop
      vertex -1.64438 0.732125 2.5
      vertex -2.28386 1.01684 2.5
      vertex -1.7119 0.556231 2.5
    endloop
  endfacet
  facet normal -0 0 1
    outer loop
      vertex -2.28386 1.01684 2.5
      vertex -1.64438 0.732125 2.5
      vertex -2.16506 1.25 2.5
    endloop
  endfacet
  facet normal -0 0 1
    outer loop
      vertex 1.64438 -0.732125 2.5
      vertex 2.28386 -1.01684 2.5
      vertex 1.7119 -0.556231 2.5
    endloop
  endfacet
  facet normal 0 0 1
    outer loop
      vertex 2.28386 -1.01684 2.5
      vertex 1.64438 -0.732125 2.5
      vertex 2.16506 -1.25 2.5
    endloop
  endfacet
  facet normal -0 0 1
    outer loop
      vertex 1.55885 -0.9 2.5
      vertex 2.16506 -1.25 2.5
      vertex 1.64438 -0.732125 2.5
    endloop
  endfacet
  facet normal 0 0 1
    outer loop
      vertex 2.16506 -1.25 2.5
      vertex 1.55885 -0.9 2.5
      vertex 2.02254 -1.46946 2.5
    endloop
  endfacet
  facet normal -0 0 1
    outer loop
      vertex 1.45623 -1.05801 2.5
      vertex 2.02254 -1.46946 2.5
      vertex 1.55885 -0.9 2.5
    endloop
  endfacet
  facet normal 0 0 1
    outer loop
      vertex 2.02254 -1.46946 2.5
      vertex 1.45623 -1.05801 2.5
      vertex 1.85786 -1.67283 2.5
    endloop
  endfacet
  facet normal -0 0 1
    outer loop
      vertex 1.33766 -1.20443 2.5
      vertex 1.85786 -1.67283 2.5
      vertex 1.45623 -1.05801 2.5
    endloop
  endfacet
  facet normal 0 0 1
    outer loop
      vertex 1.85786 -1.67283 2.5
      vertex 1.33766 -1.20443 2.5
      vertex 1.67283 -1.85786 2.5
    endloop
  endfacet
  facet normal -0 0 1
    outer loop
      vertex 1.20443 -1.33766 2.5
      vertex 1.67283 -1.85786 2.5
      vertex 1.33766 -1.20443 2.5
    endloop
  endfacet
  facet normal 0 0 1
    outer loop
      vertex 1.67283 -1.85786 2.5
      vertex 1.20443 -1.33766 2.5
      vertex 1.46946 -2.02254 2.5
    endloop
  endfacet
  facet normal -0 0 1
    outer loop
      vertex 1.05801 -1.45623 2.5
      vertex 1.46946 -2.02254 2.5
      vertex 1.20443 -1.33766 2.5
    endloop
  endfacet
  facet normal 0 0 1
    outer loop
      vertex 1.46946 -2.02254 2.5
      vertex 1.05801 -1.45623 2.5
      vertex 1.25 -2.16506 2.5
    endloop
  endfacet
  facet normal -0 0 1
    outer loop
      vertex 0.9 -1.55885 2.5
      vertex 1.25 -2.16506 2.5
      vertex 1.05801 -1.45623 2.5
    endloop
  endfacet
  facet normal 0 0 1
    outer loop
      vertex 1.25 -2.16506 2.5
      vertex 0.9 -1.55885 2.5
      vertex 1.01684 -2.28386 2.5
    endloop
  endfacet
  facet normal -0 0 1
    outer loop
      vertex 0.732125 -1.64438 2.5
      vertex 1.01684 -2.28386 2.5
      vertex 0.9 -1.55885 2.5
    endloop
  endfacet
  facet normal 0 0 1
    outer loop
      vertex 1.01684 -2.28386 2.5
      vertex 0.732125 -1.64438 2.5
      vertex 0.772542 -2.37764 2.5
    endloop
  endfacet
  facet normal -0 0 1
    outer loop
      vertex 0.556231 -1.7119 2.5
      vertex 0.772542 -2.37764 2.5
      vertex 0.732125 -1.64438 2.5
    endloop
  endfacet
  facet normal 0 0 1
    outer loop
      vertex 0.556231 -1.7119 2.5
      vertex 0.519779 -2.44537 2.5
      vertex 0.772542 -2.37764 2.5
    endloop
  endfacet
  facet normal -0 0 1
    outer loop
      vertex 0.374241 -1.76066 2.5
      vertex 0.519779 -2.44537 2.5
      vertex 0.556231 -1.7119 2.5
    endloop
  endfacet
  facet normal 0 0 1
    outer loop
      vertex 0.374241 -1.76066 2.5
      vertex 0.261321 -2.4863 2.5
      vertex 0.519779 -2.44537 2.5
    endloop
  endfacet
  facet normal -0 0 1
    outer loop
      vertex 0.18815 -1.79014 2.5
      vertex 0.261321 -2.4863 2.5
      vertex 0.374241 -1.76066 2.5
    endloop
  endfacet
  facet normal -0 0 1
    outer loop
      vertex 0 -1.8 2.5
      vertex 0.261321 -2.4863 2.5
      vertex 0.18815 -1.79014 2.5
    endloop
  endfacet
  facet normal 0 0 1
    outer loop
      vertex 0 -1.8 2.5
      vertex 0 -2.5 2.5
      vertex 0.261321 -2.4863 2.5
    endloop
  endfacet
  facet normal 0 0 1
    outer loop
      vertex -0.18815 -1.79014 2.5
      vertex 0 -2.5 2.5
      vertex 0 -1.8 2.5
    endloop
  endfacet
  facet normal 0 0 1
    outer loop
      vertex -0.18815 -1.79014 2.5
      vertex -0.261321 -2.4863 2.5
      vertex 0 -2.5 2.5
    endloop
  endfacet
  facet normal 0 0 1
    outer loop
      vertex -0.374241 -1.76066 2.5
      vertex -0.261321 -2.4863 2.5
      vertex -0.18815 -1.79014 2.5
    endloop
  endfacet
  facet normal 0 0 1
    outer loop
      vertex -0.374241 -1.76066 2.5
      vertex -0.519779 -2.44537 2.5
      vertex -0.261321 -2.4863 2.5
    endloop
  endfacet
  facet normal 0 0 1
    outer loop
      vertex -0.556231 -1.7119 2.5
      vertex -0.519779 -2.44537 2.5
      vertex -0.374241 -1.76066 2.5
    endloop
  endfacet
  facet normal 0 0 1
    outer loop
      vertex -0.772542 -2.37764 2.5
      vertex -0.556231 -1.7119 2.5
      vertex -0.732125 -1.64438 2.5
    endloop
  endfacet
  facet normal 0 0 1
    outer loop
      vertex -0.556231 -1.7119 2.5
      vertex -0.772542 -2.37764 2.5
      vertex -0.519779 -2.44537 2.5
    endloop
  endfacet
  facet normal 0 0 1
    outer loop
      vertex -1.01684 -2.28386 2.5
      vertex -0.732125 -1.64438 2.5
      vertex -0.9 -1.55885 2.5
    endloop
  endfacet
  facet normal 0 0 1
    outer loop
      vertex -0.732125 -1.64438 2.5
      vertex -1.01684 -2.28386 2.5
      vertex -0.772542 -2.37764 2.5
    endloop
  endfacet
  facet normal 0 0 1
    outer loop
      vertex -1.25 -2.16506 2.5
      vertex -0.9 -1.55885 2.5
      vertex -1.05801 -1.45623 2.5
    endloop
  endfacet
  facet normal 0 0 1
    outer loop
      vertex -1.46946 -2.02254 2.5
      vertex -1.05801 -1.45623 2.5
      vertex -1.20443 -1.33766 2.5
    endloop
  endfacet
  facet normal 0 0 1
    outer loop
      vertex -0.9 -1.55885 2.5
      vertex -1.25 -2.16506 2.5
      vertex -1.01684 -2.28386 2.5
    endloop
  endfacet
  facet normal 0 0 1
    outer loop
      vertex -1.67283 -1.85786 2.5
      vertex -1.20443 -1.33766 2.5
      vertex -1.33766 -1.20443 2.5
    endloop
  endfacet
  facet normal 0 0 1
    outer loop
      vertex -1.85786 -1.67283 2.5
      vertex -1.33766 -1.20443 2.5
      vertex -1.45623 -1.05801 2.5
    endloop
  endfacet
  facet normal 0 0 1
    outer loop
      vertex -1.05801 -1.45623 2.5
      vertex -1.46946 -2.02254 2.5
      vertex -1.25 -2.16506 2.5
    endloop
  endfacet
  facet normal 0 0 1
    outer loop
      vertex -2.02254 -1.46946 2.5
      vertex -1.45623 -1.05801 2.5
      vertex -1.55885 -0.9 2.5
    endloop
  endfacet
  facet normal 0 0 1
    outer loop
      vertex -2.16506 -1.25 2.5
      vertex -1.55885 -0.9 2.5
      vertex -1.64438 -0.732125 2.5
    endloop
  endfacet
  facet normal 0 0 1
    outer loop
      vertex -1.20443 -1.33766 2.5
      vertex -1.67283 -1.85786 2.5
      vertex -1.46946 -2.02254 2.5
    endloop
  endfacet
  facet normal 0 0 1
    outer loop
      vertex -2.28386 -1.01684 2.5
      vertex -1.64438 -0.732125 2.5
      vertex -1.7119 -0.556231 2.5
    endloop
  endfacet
  facet normal 0 0 1
    outer loop
      vertex -2.37764 -0.772542 2.5
      vertex -1.7119 -0.556231 2.5
      vertex -1.76066 -0.374241 2.5
    endloop
  endfacet
  facet normal 0 0 1
    outer loop
      vertex -2.44537 -0.519779 2.5
      vertex -1.76066 -0.374241 2.5
      vertex -1.79014 -0.18815 2.5
    endloop
  endfacet
  facet normal 0 0 1
    outer loop
      vertex -1.33766 -1.20443 2.5
      vertex -1.85786 -1.67283 2.5
      vertex -1.67283 -1.85786 2.5
    endloop
  endfacet
  facet normal 0 0 1
    outer loop
      vertex -2.4863 -0.261321 2.5
      vertex -1.79014 -0.18815 2.5
      vertex -1.8 0 2.5
    endloop
  endfacet
  facet normal -0 0 1
    outer loop
      vertex -2.37764 0.772542 2.5
      vertex -1.7119 0.556231 2.5
      vertex -2.28386 1.01684 2.5
    endloop
  endfacet
  facet normal 0 0 1
    outer loop
      vertex -1.7119 0.556231 2.5
      vertex -2.37764 0.772542 2.5
      vertex -1.76066 0.374241 2.5
    endloop
  endfacet
  facet normal 0 0 1
    outer loop
      vertex -1.45623 -1.05801 2.5
      vertex -2.02254 -1.46946 2.5
      vertex -1.85786 -1.67283 2.5
    endloop
  endfacet
  facet normal -0 0 1
    outer loop
      vertex -2.44537 0.519779 2.5
      vertex -1.76066 0.374241 2.5
      vertex -2.37764 0.772542 2.5
    endloop
  endfacet
  facet normal 0 0 1
    outer loop
      vertex -1.55885 -0.9 2.5
      vertex -2.16506 -1.25 2.5
      vertex -2.02254 -1.46946 2.5
    endloop
  endfacet
  facet normal 0 0 1
    outer loop
      vertex -1.76066 0.374241 2.5
      vertex -2.44537 0.519779 2.5
      vertex -1.79014 0.18815 2.5
    endloop
  endfacet
  facet normal 0 0 1
    outer loop
      vertex -1.64438 -0.732125 2.5
      vertex -2.28386 -1.01684 2.5
      vertex -2.16506 -1.25 2.5
    endloop
  endfacet
  facet normal -0 0 1
    outer loop
      vertex -2.4863 0.261321 2.5
      vertex -1.79014 0.18815 2.5
      vertex -2.44537 0.519779 2.5
    endloop
  endfacet
  facet normal 0 0 1
    outer loop
      vertex -1.7119 -0.556231 2.5
      vertex -2.37764 -0.772542 2.5
      vertex -2.28386 -1.01684 2.5
    endloop
  endfacet
  facet normal 0 0 1
    outer loop
      vertex -1.79014 0.18815 2.5
      vertex -2.4863 0.261321 2.5
      vertex -1.8 0 2.5
    endloop
  endfacet
  facet normal 0 0 1
    outer loop
      vertex -1.76066 -0.374241 2.5
      vertex -2.44537 -0.519779 2.5
      vertex -2.37764 -0.772542 2.5
    endloop
  endfacet
  facet normal 0 0 1
    outer loop
      vertex -2.5 0 2.5
      vertex -1.8 0 2.5
      vertex -2.4863 0.261321 2.5
    endloop
  endfacet
  facet normal 0 0 1
    outer loop
      vertex -1.79014 -0.18815 2.5
      vertex -2.4863 -0.261321 2.5
      vertex -2.44537 -0.519779 2.5
    endloop
  endfacet
  facet normal 0 0 1
    outer loop
      vertex -1.8 0 2.5
      vertex -2.5 0 2.5
      vertex -2.4863 -0.261321 2.5
    endloop
  endfacet
  facet normal -0.891008 0.453988 0
    outer loop
      vertex -2.28386 1.01684 0
      vertex -2.16506 1.25 2.5
      vertex -2.16506 1.25 0
    endloop
  endfacet
  facet normal -0.891008 0.453988 0
    outer loop
      vertex -2.16506 1.25 2.5
      vertex -2.28386 1.01684 0
      vertex -2.28386 1.01684 2.5
    endloop
  endfacet
  facet normal -0.891021 0.453963 0
    outer loop
      vertex 1.55885 -0.9 0
      vertex 1.64438 -0.732125 2.5
      vertex 1.64438 -0.732125 0
    endloop
  endfacet
  facet normal -0.891021 0.453963 0
    outer loop
      vertex 1.64438 -0.732125 2.5
      vertex 1.55885 -0.9 0
      vertex 1.55885 -0.9 2.5
    endloop
  endfacet
  facet normal -0.358371 0.933579 0
    outer loop
      vertex 0.732125 -1.64438 0
      vertex 0.556231 -1.7119 2.5
      vertex 0.732125 -1.64438 2.5
    endloop
  endfacet
  facet normal -0.358371 0.933579 0
    outer loop
      vertex 0.556231 -1.7119 2.5
      vertex 0.732125 -1.64438 0
      vertex 0.556231 -1.7119 0
    endloop
  endfacet
  facet normal -0.987683 -0.156466 0
    outer loop
      vertex 1.79014 0.18815 0
      vertex 1.76066 0.374241 2.5
      vertex 1.76066 0.374241 0
    endloop
  endfacet
  facet normal -0.987683 -0.156466 0
    outer loop
      vertex 1.76066 0.374241 2.5
      vertex 1.79014 0.18815 0
      vertex 1.79014 0.18815 2.5
    endloop
  endfacet
  facet normal -0.99863 -0.0523332 0
    outer loop
      vertex 1.8 0 0
      vertex 1.79014 0.18815 2.5
      vertex 1.79014 0.18815 0
    endloop
  endfacet
  facet normal -0.99863 -0.0523332 0
    outer loop
      vertex 1.79014 0.18815 2.5
      vertex 1.8 0 0
      vertex 1.8 0 2.5
    endloop
  endfacet
  facet normal -0.965931 -0.258799 0
    outer loop
      vertex 1.76066 0.374241 0
      vertex 1.7119 0.556231 2.5
      vertex 1.7119 0.556231 0
    endloop
  endfacet
  facet normal -0.965931 -0.258799 0
    outer loop
      vertex 1.7119 0.556231 2.5
      vertex 1.76066 0.374241 0
      vertex 1.76066 0.374241 2.5
    endloop
  endfacet
  facet normal 0.933579 -0.358371 0
    outer loop
      vertex -1.7119 0.556231 2.5
      vertex -1.64438 0.732125 0
      vertex -1.64438 0.732125 2.5
    endloop
  endfacet
  facet normal 0.933579 -0.358371 0
    outer loop
      vertex -1.64438 0.732125 0
      vertex -1.7119 0.556231 2.5
      vertex -1.7119 0.556231 0
    endloop
  endfacet
  facet normal 0.707107 0.707107 0
    outer loop
      vertex -1.20443 -1.33766 2.5
      vertex -1.33766 -1.20443 0
      vertex -1.33766 -1.20443 2.5
    endloop
  endfacet
  facet normal 0.707107 0.707107 0
    outer loop
      vertex -1.33766 -1.20443 0
      vertex -1.20443 -1.33766 2.5
      vertex -1.20443 -1.33766 0
    endloop
  endfacet
  facet normal -0.99863 0.0523332 0
    outer loop
      vertex 1.79014 -0.18815 0
      vertex 1.8 0 2.5
      vertex 1.8 0 0
    endloop
  endfacet
  facet normal -0.99863 0.0523332 0
    outer loop
      vertex 1.8 0 2.5
      vertex 1.79014 -0.18815 0
      vertex 1.79014 -0.18815 2.5
    endloop
  endfacet
  facet normal -0.358371 -0.933579 0
    outer loop
      vertex 0.556231 1.7119 0
      vertex 0.732125 1.64438 2.5
      vertex 0.556231 1.7119 2.5
    endloop
  endfacet
  facet normal -0.358371 -0.933579 -0
    outer loop
      vertex 0.732125 1.64438 2.5
      vertex 0.556231 1.7119 0
      vertex 0.732125 1.64438 0
    endloop
  endfacet
  facet normal 0.0523332 0.99863 -0
    outer loop
      vertex 0 -1.8 0
      vertex -0.18815 -1.79014 2.5
      vertex 0 -1.8 2.5
    endloop
  endfacet
  facet normal 0.0523332 0.99863 0
    outer loop
      vertex -0.18815 -1.79014 2.5
      vertex 0 -1.8 0
      vertex -0.18815 -1.79014 0
    endloop
  endfacet
  facet normal -0.453963 0.891021 0
    outer loop
      vertex 0.9 -1.55885 0
      vertex 0.732125 -1.64438 2.5
      vertex 0.9 -1.55885 2.5
    endloop
  endfacet
  facet normal -0.453963 0.891021 0
    outer loop
      vertex 0.732125 -1.64438 2.5
      vertex 0.9 -1.55885 0
      vertex 0.732125 -1.64438 0
    endloop
  endfacet
  facet normal -0.987683 0.156466 0
    outer loop
      vertex 1.76066 -0.374241 0
      vertex 1.79014 -0.18815 2.5
      vertex 1.79014 -0.18815 0
    endloop
  endfacet
  facet normal -0.987683 0.156466 0
    outer loop
      vertex 1.79014 -0.18815 2.5
      vertex 1.76066 -0.374241 0
      vertex 1.76066 -0.374241 2.5
    endloop
  endfacet
  facet normal 0.629325 0.777142 -0
    outer loop
      vertex -1.05801 -1.45623 0
      vertex -1.20443 -1.33766 2.5
      vertex -1.05801 -1.45623 2.5
    endloop
  endfacet
  facet normal 0.629325 0.777142 0
    outer loop
      vertex -1.20443 -1.33766 2.5
      vertex -1.05801 -1.45623 0
      vertex -1.20443 -1.33766 0
    endloop
  endfacet
  facet normal 0.965931 0.258799 0
    outer loop
      vertex -1.7119 -0.556231 2.5
      vertex -1.76066 -0.374241 0
      vertex -1.76066 -0.374241 2.5
    endloop
  endfacet
  facet normal 0.965931 0.258799 0
    outer loop
      vertex -1.76066 -0.374241 0
      vertex -1.7119 -0.556231 2.5
      vertex -1.7119 -0.556231 0
    endloop
  endfacet
  facet normal 0.358371 -0.933579 0
    outer loop
      vertex -0.732125 1.64438 0
      vertex -0.556231 1.7119 2.5
      vertex -0.732125 1.64438 2.5
    endloop
  endfacet
  facet normal 0.358371 -0.933579 0
    outer loop
      vertex -0.556231 1.7119 2.5
      vertex -0.732125 1.64438 0
      vertex -0.556231 1.7119 0
    endloop
  endfacet
  facet normal -0.629325 0.777142 0
    outer loop
      vertex 1.20443 -1.33766 0
      vertex 1.05801 -1.45623 2.5
      vertex 1.20443 -1.33766 2.5
    endloop
  endfacet
  facet normal -0.629325 0.777142 0
    outer loop
      vertex 1.05801 -1.45623 2.5
      vertex 1.20443 -1.33766 0
      vertex 1.05801 -1.45623 0
    endloop
  endfacet
  facet normal -0.156466 0.987683 0
    outer loop
      vertex 0.374241 -1.76066 0
      vertex 0.18815 -1.79014 2.5
      vertex 0.374241 -1.76066 2.5
    endloop
  endfacet
  facet normal -0.156466 0.987683 0
    outer loop
      vertex 0.18815 -1.79014 2.5
      vertex 0.374241 -1.76066 0
      vertex 0.18815 -1.79014 0
    endloop
  endfacet
  facet normal 0.258799 -0.965931 0
    outer loop
      vertex -0.556231 1.7119 0
      vertex -0.374241 1.76066 2.5
      vertex -0.556231 1.7119 2.5
    endloop
  endfacet
  facet normal 0.258799 -0.965931 0
    outer loop
      vertex -0.374241 1.76066 2.5
      vertex -0.556231 1.7119 0
      vertex -0.374241 1.76066 0
    endloop
  endfacet
  facet normal -0.933579 0.358371 0
    outer loop
      vertex 1.64438 -0.732125 0
      vertex 1.7119 -0.556231 2.5
      vertex 1.7119 -0.556231 0
    endloop
  endfacet
  facet normal -0.933579 0.358371 0
    outer loop
      vertex 1.7119 -0.556231 2.5
      vertex 1.64438 -0.732125 0
      vertex 1.64438 -0.732125 2.5
    endloop
  endfacet
  facet normal 0.629325 -0.777142 0
    outer loop
      vertex -1.20443 1.33766 0
      vertex -1.05801 1.45623 2.5
      vertex -1.20443 1.33766 2.5
    endloop
  endfacet
  facet normal 0.629325 -0.777142 0
    outer loop
      vertex -1.05801 1.45623 2.5
      vertex -1.20443 1.33766 0
      vertex -1.05801 1.45623 0
    endloop
  endfacet
  facet normal 0.987683 -0.156466 0
    outer loop
      vertex -1.79014 0.18815 2.5
      vertex -1.76066 0.374241 0
      vertex -1.76066 0.374241 2.5
    endloop
  endfacet
  facet normal 0.987683 -0.156466 0
    outer loop
      vertex -1.76066 0.374241 0
      vertex -1.79014 0.18815 2.5
      vertex -1.79014 0.18815 0
    endloop
  endfacet
  facet normal 0.358371 0.933579 -0
    outer loop
      vertex -0.556231 -1.7119 0
      vertex -0.732125 -1.64438 2.5
      vertex -0.556231 -1.7119 2.5
    endloop
  endfacet
  facet normal 0.358371 0.933579 0
    outer loop
      vertex -0.732125 -1.64438 2.5
      vertex -0.556231 -1.7119 0
      vertex -0.732125 -1.64438 0
    endloop
  endfacet
  facet normal 0.838653 -0.544666 0
    outer loop
      vertex -1.55885 0.9 2.5
      vertex -1.45623 1.05801 0
      vertex -1.45623 1.05801 2.5
    endloop
  endfacet
  facet normal 0.838653 -0.544666 0
    outer loop
      vertex -1.45623 1.05801 0
      vertex -1.55885 0.9 2.5
      vertex -1.55885 0.9 0
    endloop
  endfacet
  facet normal -0.544666 -0.838653 0
    outer loop
      vertex 0.9 1.55885 0
      vertex 1.05801 1.45623 2.5
      vertex 0.9 1.55885 2.5
    endloop
  endfacet
  facet normal -0.544666 -0.838653 -0
    outer loop
      vertex 1.05801 1.45623 2.5
      vertex 0.9 1.55885 0
      vertex 1.05801 1.45623 0
    endloop
  endfacet
  facet normal -0.629325 -0.777142 0
    outer loop
      vertex 1.05801 1.45623 0
      vertex 1.20443 1.33766 2.5
      vertex 1.05801 1.45623 2.5
    endloop
  endfacet
  facet normal -0.629325 -0.777142 -0
    outer loop
      vertex 1.20443 1.33766 2.5
      vertex 1.05801 1.45623 0
      vertex 1.20443 1.33766 0
    endloop
  endfacet
  facet normal 0.965931 -0.258799 0
    outer loop
      vertex -1.76066 0.374241 2.5
      vertex -1.7119 0.556231 0
      vertex -1.7119 0.556231 2.5
    endloop
  endfacet
  facet normal 0.965931 -0.258799 0
    outer loop
      vertex -1.7119 0.556231 0
      vertex -1.76066 0.374241 2.5
      vertex -1.76066 0.374241 0
    endloop
  endfacet
  facet normal 0.453963 0.891021 -0
    outer loop
      vertex -0.732125 -1.64438 0
      vertex -0.9 -1.55885 2.5
      vertex -0.732125 -1.64438 2.5
    endloop
  endfacet
  facet normal 0.453963 0.891021 0
    outer loop
      vertex -0.9 -1.55885 2.5
      vertex -0.732125 -1.64438 0
      vertex -0.9 -1.55885 0
    endloop
  endfacet
  facet normal -0.0523332 0.99863 0
    outer loop
      vertex 0.18815 -1.79014 0
      vertex 0 -1.8 2.5
      vertex 0.18815 -1.79014 2.5
    endloop
  endfacet
  facet normal -0.0523332 0.99863 0
    outer loop
      vertex 0 -1.8 2.5
      vertex 0.18815 -1.79014 0
      vertex 0 -1.8 0
    endloop
  endfacet
  facet normal 0.544666 -0.838653 0
    outer loop
      vertex -1.05801 1.45623 0
      vertex -0.9 1.55885 2.5
      vertex -1.05801 1.45623 2.5
    endloop
  endfacet
  facet normal 0.544666 -0.838653 0
    outer loop
      vertex -0.9 1.55885 2.5
      vertex -1.05801 1.45623 0
      vertex -0.9 1.55885 0
    endloop
  endfacet
  facet normal 0.99863 -0.0523332 0
    outer loop
      vertex -1.8 0 2.5
      vertex -1.79014 0.18815 0
      vertex -1.79014 0.18815 2.5
    endloop
  endfacet
  facet normal 0.99863 -0.0523332 0
    outer loop
      vertex -1.79014 0.18815 0
      vertex -1.8 0 2.5
      vertex -1.8 0 0
    endloop
  endfacet
  facet normal -0.258799 -0.965931 0
    outer loop
      vertex 0.374241 1.76066 0
      vertex 0.556231 1.7119 2.5
      vertex 0.374241 1.76066 2.5
    endloop
  endfacet
  facet normal -0.258799 -0.965931 -0
    outer loop
      vertex 0.556231 1.7119 2.5
      vertex 0.374241 1.76066 0
      vertex 0.556231 1.7119 0
    endloop
  endfacet
  facet normal -0.156466 -0.987683 0
    outer loop
      vertex 0.18815 1.79014 0
      vertex 0.374241 1.76066 2.5
      vertex 0.18815 1.79014 2.5
    endloop
  endfacet
  facet normal -0.156466 -0.987683 -0
    outer loop
      vertex 0.374241 1.76066 2.5
      vertex 0.18815 1.79014 0
      vertex 0.374241 1.76066 0
    endloop
  endfacet
  facet normal -0.777142 -0.629325 0
    outer loop
      vertex 1.45623 1.05801 0
      vertex 1.33766 1.20443 2.5
      vertex 1.33766 1.20443 0
    endloop
  endfacet
  facet normal -0.777142 -0.629325 0
    outer loop
      vertex 1.33766 1.20443 2.5
      vertex 1.45623 1.05801 0
      vertex 1.45623 1.05801 2.5
    endloop
  endfacet
  facet normal -0.965931 0.258799 0
    outer loop
      vertex 1.7119 -0.556231 0
      vertex 1.76066 -0.374241 2.5
      vertex 1.76066 -0.374241 0
    endloop
  endfacet
  facet normal -0.965931 0.258799 0
    outer loop
      vertex 1.76066 -0.374241 2.5
      vertex 1.7119 -0.556231 0
      vertex 1.7119 -0.556231 2.5
    endloop
  endfacet
  facet normal -0.544666 0.838653 0
    outer loop
      vertex 1.05801 -1.45623 0
      vertex 0.9 -1.55885 2.5
      vertex 1.05801 -1.45623 2.5
    endloop
  endfacet
  facet normal -0.544666 0.838653 0
    outer loop
      vertex 0.9 -1.55885 2.5
      vertex 1.05801 -1.45623 0
      vertex 0.9 -1.55885 0
    endloop
  endfacet
  facet normal 0.99863 0.0523332 0
    outer loop
      vertex -1.79014 -0.18815 2.5
      vertex -1.8 0 0
      vertex -1.8 0 2.5
    endloop
  endfacet
  facet normal 0.99863 0.0523332 0
    outer loop
      vertex -1.8 0 0
      vertex -1.79014 -0.18815 2.5
      vertex -1.79014 -0.18815 0
    endloop
  endfacet
  facet normal -0.258799 0.965931 0
    outer loop
      vertex 0.556231 -1.7119 0
      vertex 0.374241 -1.76066 2.5
      vertex 0.556231 -1.7119 2.5
    endloop
  endfacet
  facet normal -0.258799 0.965931 0
    outer loop
      vertex 0.374241 -1.76066 2.5
      vertex 0.556231 -1.7119 0
      vertex 0.374241 -1.76066 0
    endloop
  endfacet
  facet normal 0.891021 -0.453963 0
    outer loop
      vertex -1.64438 0.732125 2.5
      vertex -1.55885 0.9 0
      vertex -1.55885 0.9 2.5
    endloop
  endfacet
  facet normal 0.891021 -0.453963 0
    outer loop
      vertex -1.55885 0.9 0
      vertex -1.64438 0.732125 2.5
      vertex -1.64438 0.732125 0
    endloop
  endfacet
  facet normal -0.838653 0.544666 0
    outer loop
      vertex 1.45623 -1.05801 0
      vertex 1.55885 -0.9 2.5
      vertex 1.55885 -0.9 0
    endloop
  endfacet
  facet normal -0.838653 0.544666 0
    outer loop
      vertex 1.55885 -0.9 2.5
      vertex 1.45623 -1.05801 0
      vertex 1.45623 -1.05801 2.5
    endloop
  endfacet
  facet normal -0.453963 -0.891021 0
    outer loop
      vertex 0.732125 1.64438 0
      vertex 0.9 1.55885 2.5
      vertex 0.732125 1.64438 2.5
    endloop
  endfacet
  facet normal -0.453963 -0.891021 -0
    outer loop
      vertex 0.9 1.55885 2.5
      vertex 0.732125 1.64438 0
      vertex 0.9 1.55885 0
    endloop
  endfacet
  facet normal 0.777142 0.629325 0
    outer loop
      vertex -1.33766 -1.20443 2.5
      vertex -1.45623 -1.05801 0
      vertex -1.45623 -1.05801 2.5
    endloop
  endfacet
  facet normal 0.777142 0.629325 0
    outer loop
      vertex -1.45623 -1.05801 0
      vertex -1.33766 -1.20443 2.5
      vertex -1.33766 -1.20443 0
    endloop
  endfacet
  facet normal -0.933579 -0.358371 0
    outer loop
      vertex 1.7119 0.556231 0
      vertex 1.64438 0.732125 2.5
      vertex 1.64438 0.732125 0
    endloop
  endfacet
  facet normal -0.933579 -0.358371 0
    outer loop
      vertex 1.64438 0.732125 2.5
      vertex 1.7119 0.556231 0
      vertex 1.7119 0.556231 2.5
    endloop
  endfacet
  facet normal -0.891021 -0.453963 0
    outer loop
      vertex 1.64438 0.732125 0
      vertex 1.55885 0.9 2.5
      vertex 1.55885 0.9 0
    endloop
  endfacet
  facet normal -0.891021 -0.453963 0
    outer loop
      vertex 1.55885 0.9 2.5
      vertex 1.64438 0.732125 0
      vertex 1.64438 0.732125 2.5
    endloop
  endfacet
  facet normal -0.0523332 -0.99863 0
    outer loop
      vertex 0 1.8 0
      vertex 0.18815 1.79014 2.5
      vertex 0 1.8 2.5
    endloop
  endfacet
  facet normal -0.0523332 -0.99863 -0
    outer loop
      vertex 0.18815 1.79014 2.5
      vertex 0 1.8 0
      vertex 0.18815 1.79014 0
    endloop
  endfacet
  facet normal -0.838653 -0.544666 0
    outer loop
      vertex 1.55885 0.9 0
      vertex 1.45623 1.05801 2.5
      vertex 1.45623 1.05801 0
    endloop
  endfacet
  facet normal -0.838653 -0.544666 0
    outer loop
      vertex 1.45623 1.05801 2.5
      vertex 1.55885 0.9 0
      vertex 1.55885 0.9 2.5
    endloop
  endfacet
  facet normal 0.891021 0.453963 0
    outer loop
      vertex -1.55885 -0.9 2.5
      vertex -1.64438 -0.732125 0
      vertex -1.64438 -0.732125 2.5
    endloop
  endfacet
  facet normal 0.891021 0.453963 0
    outer loop
      vertex -1.64438 -0.732125 0
      vertex -1.55885 -0.9 2.5
      vertex -1.55885 -0.9 0
    endloop
  endfacet
  facet normal 0.453963 -0.891021 0
    outer loop
      vertex -0.9 1.55885 0
      vertex -0.732125 1.64438 2.5
      vertex -0.9 1.55885 2.5
    endloop
  endfacet
  facet normal 0.453963 -0.891021 0
    outer loop
      vertex -0.732125 1.64438 2.5
      vertex -0.9 1.55885 0
      vertex -0.732125 1.64438 0
    endloop
  endfacet
  facet normal 0.838653 0.544666 0
    outer loop
      vertex -1.45623 -1.05801 2.5
      vertex -1.55885 -0.9 0
      vertex -1.55885 -0.9 2.5
    endloop
  endfacet
  facet normal 0.838653 0.544666 0
    outer loop
      vertex -1.55885 -0.9 0
      vertex -1.45623 -1.05801 2.5
      vertex -1.45623 -1.05801 0
    endloop
  endfacet
  facet normal 0.933579 0.358371 0
    outer loop
      vertex -1.64438 -0.732125 2.5
      vertex -1.7119 -0.556231 0
      vertex -1.7119 -0.556231 2.5
    endloop
  endfacet
  facet normal 0.933579 0.358371 0
    outer loop
      vertex -1.7119 -0.556231 0
      vertex -1.64438 -0.732125 2.5
      vertex -1.64438 -0.732125 0
    endloop
  endfacet
  facet normal 0.156466 -0.987683 0
    outer loop
      vertex -0.374241 1.76066 0
      vertex -0.18815 1.79014 2.5
      vertex -0.374241 1.76066 2.5
    endloop
  endfacet
  facet normal 0.156466 -0.987683 0
    outer loop
      vertex -0.18815 1.79014 2.5
      vertex -0.374241 1.76066 0
      vertex -0.18815 1.79014 0
    endloop
  endfacet
  facet normal -0.707107 -0.707107 0
    outer loop
      vertex 1.33766 1.20443 0
      vertex 1.20443 1.33766 2.5
      vertex 1.20443 1.33766 0
    endloop
  endfacet
  facet normal -0.707107 -0.707107 0
    outer loop
      vertex 1.20443 1.33766 2.5
      vertex 1.33766 1.20443 0
      vertex 1.33766 1.20443 2.5
    endloop
  endfacet
  facet normal 0.707107 -0.707107 0
    outer loop
      vertex -1.33766 1.20443 2.5
      vertex -1.20443 1.33766 0
      vertex -1.20443 1.33766 2.5
    endloop
  endfacet
  facet normal 0.707107 -0.707107 0
    outer loop
      vertex -1.20443 1.33766 0
      vertex -1.33766 1.20443 2.5
      vertex -1.33766 1.20443 0
    endloop
  endfacet
  facet normal -0.777142 0.629325 0
    outer loop
      vertex 1.33766 -1.20443 0
      vertex 1.45623 -1.05801 2.5
      vertex 1.45623 -1.05801 0
    endloop
  endfacet
  facet normal -0.777142 0.629325 0
    outer loop
      vertex 1.45623 -1.05801 2.5
      vertex 1.33766 -1.20443 0
      vertex 1.33766 -1.20443 2.5
    endloop
  endfacet
  facet normal 0.777142 -0.629325 0
    outer loop
      vertex -1.45623 1.05801 2.5
      vertex -1.33766 1.20443 0
      vertex -1.33766 1.20443 2.5
    endloop
  endfacet
  facet normal 0.777142 -0.629325 0
    outer loop
      vertex -1.33766 1.20443 0
      vertex -1.45623 1.05801 2.5
      vertex -1.45623 1.05801 0
    endloop
  endfacet
  facet normal 0.987683 0.156466 0
    outer loop
      vertex -1.76066 -0.374241 2.5
      vertex -1.79014 -0.18815 0
      vertex -1.79014 -0.18815 2.5
    endloop
  endfacet
  facet normal 0.987683 0.156466 0
    outer loop
      vertex -1.79014 -0.18815 0
      vertex -1.76066 -0.374241 2.5
      vertex -1.76066 -0.374241 0
    endloop
  endfacet
  facet normal -0.707107 0.707107 0
    outer loop
      vertex 1.20443 -1.33766 0
      vertex 1.33766 -1.20443 2.5
      vertex 1.33766 -1.20443 0
    endloop
  endfacet
  facet normal -0.707107 0.707107 0
    outer loop
      vertex 1.33766 -1.20443 2.5
      vertex 1.20443 -1.33766 0
      vertex 1.20443 -1.33766 2.5
    endloop
  endfacet
  facet normal 0.0523332 -0.99863 0
    outer loop
      vertex -0.18815 1.79014 0
      vertex 0 1.8 2.5
      vertex -0.18815 1.79014 2.5
    endloop
  endfacet
  facet normal 0.0523332 -0.99863 0
    outer loop
      vertex 0 1.8 2.5
      vertex -0.18815 1.79014 0
      vertex 0 1.8 0
    endloop
  endfacet
  facet normal 0.156466 0.987683 -0
    outer loop
      vertex -0.18815 -1.79014 0
      vertex -0.374241 -1.76066 2.5
      vertex -0.18815 -1.79014 2.5
    endloop
  endfacet
  facet normal 0.156466 0.987683 0
    outer loop
      vertex -0.374241 -1.76066 2.5
      vertex -0.18815 -1.79014 0
      vertex -0.374241 -1.76066 0
    endloop
  endfacet
  facet normal 0.258799 0.965931 -0
    outer loop
      vertex -0.374241 -1.76066 0
      vertex -0.556231 -1.7119 2.5
      vertex -0.374241 -1.76066 2.5
    endloop
  endfacet
  facet normal 0.258799 0.965931 0
    outer loop
      vertex -0.556231 -1.7119 2.5
      vertex -0.374241 -1.76066 0
      vertex -0.556231 -1.7119 0
    endloop
  endfacet
  facet normal 0.544666 0.838653 -0
    outer loop
      vertex -0.9 -1.55885 0
      vertex -1.05801 -1.45623 2.5
      vertex -0.9 -1.55885 2.5
    endloop
  endfacet
  facet normal 0.544666 0.838653 0
    outer loop
      vertex -1.05801 -1.45623 2.5
      vertex -0.9 -1.55885 0
      vertex -1.05801 -1.45623 0
    endloop
  endfacet
endsolid OpenSCAD_Model
