solid OpenSCAD_Model
  facet normal 1 -0 0
    outer loop
      vertex -93.5 -82.8554 -244.296
      vertex -93.5 -80.8 -249.5
      vertex -93.5 -80.8 -235
    endloop
  endfacet
  facet normal 1 0 0
    outer loop
      vertex -93.5 -80.8 -249.5
      vertex -93.5 -82.8554 -244.296
      vertex -93.5 -82.8 -245
    endloop
  endfacet
  facet normal 1 0 0
    outer loop
      vertex -93.5 -80.8 -235
      vertex -93.5 -83.0202 -243.609
      vertex -93.5 -82.8554 -244.296
    endloop
  endfacet
  facet normal 1 0 0
    outer loop
      vertex -93.5 -80.8 -235
      vertex -93.5 -83.2905 -242.957
      vertex -93.5 -83.0202 -243.609
    endloop
  endfacet
  facet normal 1 0 0
    outer loop
      vertex -93.5 -80.8 -235
      vertex -93.5 -83.6594 -242.355
      vertex -93.5 -83.2905 -242.957
    endloop
  endfacet
  facet normal 1 0 0
    outer loop
      vertex -93.5 -80.8 -235
      vertex -93.5 -84.118 -241.818
      vertex -93.5 -83.6594 -242.355
    endloop
  endfacet
  facet normal 1 0 0
    outer loop
      vertex -93.5 -80.8 -235
      vertex -93.5 -84.655 -241.359
      vertex -93.5 -84.118 -241.818
    endloop
  endfacet
  facet normal 1 0 0
    outer loop
      vertex -93.5 -80.8 -235
      vertex -93.5 -85.257 -240.99
      vertex -93.5 -84.655 -241.359
    endloop
  endfacet
  facet normal 1 0 0
    outer loop
      vertex -93.5 -80.8 -235
      vertex -93.5 -85.9094 -240.72
      vertex -93.5 -85.257 -240.99
    endloop
  endfacet
  facet normal 1 0 0
    outer loop
      vertex -93.5 -80.8 -235
      vertex -93.5 -86.596 -240.555
      vertex -93.5 -85.9094 -240.72
    endloop
  endfacet
  facet normal 1 0 0
    outer loop
      vertex -93.5 -80.8 -235
      vertex -93.5 -87.3 -240.5
      vertex -93.5 -86.596 -240.555
    endloop
  endfacet
  facet normal 1 0 0
    outer loop
      vertex -93.5 -80.8 -235
      vertex -93.5 -88.004 -240.555
      vertex -93.5 -87.3 -240.5
    endloop
  endfacet
  facet normal 1 -0 0
    outer loop
      vertex -93.5 -100.3 -235
      vertex -93.5 -88.004 -240.555
      vertex -93.5 -80.8 -235
    endloop
  endfacet
  facet normal 1 0 0
    outer loop
      vertex -93.5 -88.004 -240.555
      vertex -93.5 -100.3 -235
      vertex -93.5 -88.6906 -240.72
    endloop
  endfacet
  facet normal 1 0 0
    outer loop
      vertex -93.5 -88.6906 -240.72
      vertex -93.5 -100.3 -235
      vertex -93.5 -89.343 -240.99
    endloop
  endfacet
  facet normal 1 0 0
    outer loop
      vertex -93.5 -89.343 -240.99
      vertex -93.5 -100.3 -235
      vertex -93.5 -89.945 -241.359
    endloop
  endfacet
  facet normal 1 0 0
    outer loop
      vertex -93.5 -100.3 -235
      vertex -93.5 -90.482 -241.818
      vertex -93.5 -89.945 -241.359
    endloop
  endfacet
  facet normal 1 0 0
    outer loop
      vertex -93.5 -100.3 -235
      vertex -93.5 -90.9406 -242.355
      vertex -93.5 -90.482 -241.818
    endloop
  endfacet
  facet normal 1 0 0
    outer loop
      vertex -93.5 -100.3 -235
      vertex -93.5 -91.3095 -242.957
      vertex -93.5 -90.9406 -242.355
    endloop
  endfacet
  facet normal 1 0 0
    outer loop
      vertex -93.5 -100.3 -235
      vertex -93.5 -91.5798 -243.609
      vertex -93.5 -91.3095 -242.957
    endloop
  endfacet
  facet normal 1 0 0
    outer loop
      vertex -93.5 -100.3 -235
      vertex -93.5 -91.7446 -244.296
      vertex -93.5 -91.5798 -243.609
    endloop
  endfacet
  facet normal 1 0 0
    outer loop
      vertex -93.5 -100.3 -249.5
      vertex -93.5 -91.7446 -244.296
      vertex -93.5 -100.3 -235
    endloop
  endfacet
  facet normal 1 0 0
    outer loop
      vertex -93.5 -91.7446 -244.296
      vertex -93.5 -100.3 -249.5
      vertex -93.5 -91.8 -245
    endloop
  endfacet
  facet normal 1 0 0
    outer loop
      vertex -93.5 -91.8 -245
      vertex -93.5 -100.3 -249.5
      vertex -93.5 -91.8 -249.5
    endloop
  endfacet
  facet normal 1 0 0
    outer loop
      vertex -93.5 -80.8 -249.5
      vertex -93.5 -82.8 -245
      vertex -93.5 -82.8 -249.5
    endloop
  endfacet
  facet normal -0 0 1
    outer loop
      vertex -94.3656 -95.6763 -235
      vertex -93.5 -100.3 -235
      vertex -93.5 -80.8 -235
    endloop
  endfacet
  facet normal 0 0 1
    outer loop
      vertex -93.5 -100.3 -235
      vertex -94.3656 -95.6763 -235
      vertex -94.3 -96.3 -235
    endloop
  endfacet
  facet normal 0 0 1
    outer loop
      vertex -93.5 -80.8 -235
      vertex -94.5594 -95.0798 -235
      vertex -94.3656 -95.6763 -235
    endloop
  endfacet
  facet normal 0 0 1
    outer loop
      vertex -93.5 -80.8 -235
      vertex -94.8729 -94.5366 -235
      vertex -94.5594 -95.0798 -235
    endloop
  endfacet
  facet normal 0 0 1
    outer loop
      vertex -93.5 -80.8 -235
      vertex -95.2926 -94.0706 -235
      vertex -94.8729 -94.5366 -235
    endloop
  endfacet
  facet normal 0 0 1
    outer loop
      vertex -93.5 -80.8 -235
      vertex -95.8 -93.7019 -235
      vertex -95.2926 -94.0706 -235
    endloop
  endfacet
  facet normal 0 0 1
    outer loop
      vertex -93.5 -80.8 -235
      vertex -96.3729 -93.4468 -235
      vertex -95.8 -93.7019 -235
    endloop
  endfacet
  facet normal 0 0 1
    outer loop
      vertex -93.5 -80.8 -235
      vertex -96.9864 -93.3164 -235
      vertex -96.3729 -93.4468 -235
    endloop
  endfacet
  facet normal 0 0 1
    outer loop
      vertex -93.5 -80.8 -235
      vertex -97.6136 -93.3164 -235
      vertex -96.9864 -93.3164 -235
    endloop
  endfacet
  facet normal -0 0 1
    outer loop
      vertex -103.5 -80.8 -235
      vertex -97.6136 -93.3164 -235
      vertex -93.5 -80.8 -235
    endloop
  endfacet
  facet normal 0 0 1
    outer loop
      vertex -97.6136 -93.3164 -235
      vertex -103.5 -80.8 -235
      vertex -98.2271 -93.4468 -235
    endloop
  endfacet
  facet normal 0 0 1
    outer loop
      vertex -98.2271 -93.4468 -235
      vertex -103.5 -80.8 -235
      vertex -98.8 -93.7019 -235
    endloop
  endfacet
  facet normal 0 0 1
    outer loop
      vertex -98.8 -93.7019 -235
      vertex -103.5 -80.8 -235
      vertex -99.3074 -94.0706 -235
    endloop
  endfacet
  facet normal 0 0 1
    outer loop
      vertex -99.3074 -94.0706 -235
      vertex -103.5 -80.8 -235
      vertex -99.7271 -94.5366 -235
    endloop
  endfacet
  facet normal 0 0 1
    outer loop
      vertex -100.041 -95.0798 -235
      vertex -103.5 -100.3 -235
      vertex -100.234 -95.6763 -235
    endloop
  endfacet
  facet normal 0 0 1
    outer loop
      vertex -103.5 -100.3 -235
      vertex -100.041 -95.0798 -235
      vertex -103.5 -80.8 -235
    endloop
  endfacet
  facet normal 0 0 1
    outer loop
      vertex -99.7271 -94.5366 -235
      vertex -103.5 -80.8 -235
      vertex -100.041 -95.0798 -235
    endloop
  endfacet
  facet normal -0 0 1
    outer loop
      vertex -94.3656 -96.9237 -235
      vertex -93.5 -100.3 -235
      vertex -94.3 -96.3 -235
    endloop
  endfacet
  facet normal -0 0 1
    outer loop
      vertex -94.5594 -97.5202 -235
      vertex -93.5 -100.3 -235
      vertex -94.3656 -96.9237 -235
    endloop
  endfacet
  facet normal -0 0 1
    outer loop
      vertex -94.8729 -98.0634 -235
      vertex -93.5 -100.3 -235
      vertex -94.5594 -97.5202 -235
    endloop
  endfacet
  facet normal -0 0 1
    outer loop
      vertex -95.2926 -98.5294 -235
      vertex -93.5 -100.3 -235
      vertex -94.8729 -98.0634 -235
    endloop
  endfacet
  facet normal -0 0 1
    outer loop
      vertex -95.8 -98.8981 -235
      vertex -93.5 -100.3 -235
      vertex -95.2926 -98.5294 -235
    endloop
  endfacet
  facet normal -0 0 1
    outer loop
      vertex -96.3729 -99.1532 -235
      vertex -93.5 -100.3 -235
      vertex -95.8 -98.8981 -235
    endloop
  endfacet
  facet normal -0 0 1
    outer loop
      vertex -96.9864 -99.2836 -235
      vertex -93.5 -100.3 -235
      vertex -96.3729 -99.1532 -235
    endloop
  endfacet
  facet normal -0 0 1
    outer loop
      vertex -97.6136 -99.2836 -235
      vertex -93.5 -100.3 -235
      vertex -96.9864 -99.2836 -235
    endloop
  endfacet
  facet normal 0 0 1
    outer loop
      vertex -103.5 -100.3 -235
      vertex -97.6136 -99.2836 -235
      vertex -98.2271 -99.1532 -235
    endloop
  endfacet
  facet normal 0 0 1
    outer loop
      vertex -100.234 -95.6763 -235
      vertex -103.5 -100.3 -235
      vertex -100.3 -96.3 -235
    endloop
  endfacet
  facet normal 0 0 1
    outer loop
      vertex -97.6136 -99.2836 -235
      vertex -103.5 -100.3 -235
      vertex -93.5 -100.3 -235
    endloop
  endfacet
  facet normal 0 0 1
    outer loop
      vertex -98.8 -98.8981 -235
      vertex -103.5 -100.3 -235
      vertex -98.2271 -99.1532 -235
    endloop
  endfacet
  facet normal 0 0 1
    outer loop
      vertex -99.3074 -98.5294 -235
      vertex -103.5 -100.3 -235
      vertex -98.8 -98.8981 -235
    endloop
  endfacet
  facet normal 0 0 1
    outer loop
      vertex -99.7271 -98.0634 -235
      vertex -103.5 -100.3 -235
      vertex -99.3074 -98.5294 -235
    endloop
  endfacet
  facet normal 0 0 1
    outer loop
      vertex -100.041 -97.5202 -235
      vertex -103.5 -100.3 -235
      vertex -99.7271 -98.0634 -235
    endloop
  endfacet
  facet normal 0 0 1
    outer loop
      vertex -100.234 -96.9237 -235
      vertex -103.5 -100.3 -235
      vertex -100.041 -97.5202 -235
    endloop
  endfacet
  facet normal 0 0 1
    outer loop
      vertex -100.3 -96.3 -235
      vertex -103.5 -100.3 -235
      vertex -100.234 -96.9237 -235
    endloop
  endfacet
  facet normal 0 0 -1
    outer loop
      vertex -93.5 -100.3 -249.5
      vertex -95.6 -96.3 -249.5
      vertex -93.5 -91.8 -249.5
    endloop
  endfacet
  facet normal 0 0 -1
    outer loop
      vertex -93.5 -100.3 -249.5
      vertex -95.6832 -96.8253 -249.5
      vertex -95.6 -96.3 -249.5
    endloop
  endfacet
  facet normal 0 0 -1
    outer loop
      vertex -93.5 -100.3 -249.5
      vertex -95.9247 -97.2992 -249.5
      vertex -95.6832 -96.8253 -249.5
    endloop
  endfacet
  facet normal 0 0 -1
    outer loop
      vertex -93.5 -100.3 -249.5
      vertex -96.3008 -97.6753 -249.5
      vertex -95.9247 -97.2992 -249.5
    endloop
  endfacet
  facet normal 0 0 -1
    outer loop
      vertex -93.5 -100.3 -249.5
      vertex -96.7747 -97.9168 -249.5
      vertex -96.3008 -97.6753 -249.5
    endloop
  endfacet
  facet normal 0 0 -1
    outer loop
      vertex -93.5 -100.3 -249.5
      vertex -97.3 -98 -249.5
      vertex -96.7747 -97.9168 -249.5
    endloop
  endfacet
  facet normal 0 0 -1
    outer loop
      vertex -103.5 -100.3 -249.5
      vertex -97.3 -98 -249.5
      vertex -93.5 -100.3 -249.5
    endloop
  endfacet
  facet normal -0 0 -1
    outer loop
      vertex -97.3 -98 -249.5
      vertex -103.5 -100.3 -249.5
      vertex -97.8253 -97.9168 -249.5
    endloop
  endfacet
  facet normal 0 0 -1
    outer loop
      vertex -103.5 -94.3 -249.5
      vertex -98.9168 -96.8253 -249.5
      vertex -103.5 -100.3 -249.5
    endloop
  endfacet
  facet normal -0 0 -1
    outer loop
      vertex -98.6753 -97.2992 -249.5
      vertex -103.5 -100.3 -249.5
      vertex -98.9168 -96.8253 -249.5
    endloop
  endfacet
  facet normal -0 0 -1
    outer loop
      vertex -98.2992 -97.6753 -249.5
      vertex -103.5 -100.3 -249.5
      vertex -98.6753 -97.2992 -249.5
    endloop
  endfacet
  facet normal -0 0 -1
    outer loop
      vertex -97.8253 -97.9168 -249.5
      vertex -103.5 -100.3 -249.5
      vertex -98.2992 -97.6753 -249.5
    endloop
  endfacet
  facet normal 0 0 -1
    outer loop
      vertex -95.6832 -95.7747 -249.5
      vertex -93.5 -91.8 -249.5
      vertex -95.6 -96.3 -249.5
    endloop
  endfacet
  facet normal 0 0 -1
    outer loop
      vertex -95.9247 -95.3008 -249.5
      vertex -93.5 -91.8 -249.5
      vertex -95.6832 -95.7747 -249.5
    endloop
  endfacet
  facet normal 0 0 -1
    outer loop
      vertex -96.3008 -94.9247 -249.5
      vertex -93.5 -91.8 -249.5
      vertex -95.9247 -95.3008 -249.5
    endloop
  endfacet
  facet normal 0 0 -1
    outer loop
      vertex -96.3008 -94.9247 -249.5
      vertex -96.5 -91.8 -249.5
      vertex -93.5 -91.8 -249.5
    endloop
  endfacet
  facet normal 0 0 -1
    outer loop
      vertex -103.5 -94.3 -249.5
      vertex -96.5 -87.3 -249.5
      vertex -96.5 -91.8 -249.5
    endloop
  endfacet
  facet normal 0 0 -1
    outer loop
      vertex -97.3 -94.6 -249.5
      vertex -96.5 -91.8 -249.5
      vertex -96.7747 -94.6832 -249.5
    endloop
  endfacet
  facet normal 0 0 -1
    outer loop
      vertex -96.7747 -94.6832 -249.5
      vertex -96.5 -91.8 -249.5
      vertex -96.3008 -94.9247 -249.5
    endloop
  endfacet
  facet normal 0 0 -1
    outer loop
      vertex -96.5 -82.8 -249.5
      vertex -93.5 -80.8 -249.5
      vertex -93.5 -82.8 -249.5
    endloop
  endfacet
  facet normal 0 0 -1
    outer loop
      vertex -97.8253 -94.6832 -249.5
      vertex -96.5 -91.8 -249.5
      vertex -97.3 -94.6 -249.5
    endloop
  endfacet
  facet normal 0 0 -1
    outer loop
      vertex -98.2992 -94.9247 -249.5
      vertex -96.5 -91.8 -249.5
      vertex -97.8253 -94.6832 -249.5
    endloop
  endfacet
  facet normal 0 0 -1
    outer loop
      vertex -96.5 -91.8 -249.5
      vertex -98.2992 -94.9247 -249.5
      vertex -103.5 -94.3 -249.5
    endloop
  endfacet
  facet normal 0 0 -1
    outer loop
      vertex -103.5 -94.3 -249.5
      vertex -98.2992 -94.9247 -249.5
      vertex -98.6753 -95.3008 -249.5
    endloop
  endfacet
  facet normal 0 0 -1
    outer loop
      vertex -103.5 -94.3 -249.5
      vertex -98.6753 -95.3008 -249.5
      vertex -98.9168 -95.7747 -249.5
    endloop
  endfacet
  facet normal 0 0 -1
    outer loop
      vertex -98.9168 -96.8253 -249.5
      vertex -103.5 -94.3 -249.5
      vertex -99 -96.3 -249.5
    endloop
  endfacet
  facet normal 0 0 -1
    outer loop
      vertex -99 -96.3 -249.5
      vertex -103.5 -94.3 -249.5
      vertex -98.9168 -95.7747 -249.5
    endloop
  endfacet
  facet normal -0 0 -1
    outer loop
      vertex -96.5 -87.3 -249.5
      vertex -103.5 -94.3 -249.5
      vertex -103.5 -80.8 -249.5
    endloop
  endfacet
  facet normal 0 0 -1
    outer loop
      vertex -96.5 -82.8 -249.5
      vertex -103.5 -80.8 -249.5
      vertex -93.5 -80.8 -249.5
    endloop
  endfacet
  facet normal 0 0 -1
    outer loop
      vertex -96.5 -87.3 -249.5
      vertex -103.5 -80.8 -249.5
      vertex -96.5 -82.8 -249.5
    endloop
  endfacet
  facet normal -1 0 0
    outer loop
      vertex -103.5 -94.3 -242.1
      vertex -103.5 -100.3 -242.1
      vertex -103.5 -94.3 -239
    endloop
  endfacet
  facet normal -1 0 0
    outer loop
      vertex -103.5 -94.3 -239
      vertex -103.5 -80.8 -235
      vertex -103.5 -80.8 -239
    endloop
  endfacet
  facet normal -1 0 0
    outer loop
      vertex -103.5 -94.3 -239
      vertex -103.5 -100.3 -235
      vertex -103.5 -80.8 -235
    endloop
  endfacet
  facet normal -1 0 0
    outer loop
      vertex -103.5 -100.3 -235
      vertex -103.5 -94.3 -239
      vertex -103.5 -100.3 -242.1
    endloop
  endfacet
  facet normal -1 0 0
    outer loop
      vertex -103.5 -100.3 -249.5
      vertex -103.5 -94.3 -247.9
      vertex -103.5 -94.3 -249.5
    endloop
  endfacet
  facet normal -1 -0 0
    outer loop
      vertex -103.5 -94.3 -247.9
      vertex -103.5 -100.3 -249.5
      vertex -103.5 -100.3 -247.9
    endloop
  endfacet
  facet normal -1 0 0
    outer loop
      vertex -103.5 -84.3369 -244.531
      vertex -103.5 -80.8 -249.5
      vertex -103.5 -84.3 -245
    endloop
  endfacet
  facet normal -1 0 0
    outer loop
      vertex -103.5 -80.8 -249.5
      vertex -103.5 -84.3369 -245.469
      vertex -103.5 -84.3 -245
    endloop
  endfacet
  facet normal -1 0 0
    outer loop
      vertex -103.5 -80.8 -249.5
      vertex -103.5 -84.4468 -245.927
      vertex -103.5 -84.3369 -245.469
    endloop
  endfacet
  facet normal -1 0 0
    outer loop
      vertex -103.5 -80.8 -249.5
      vertex -103.5 -84.627 -246.362
      vertex -103.5 -84.4468 -245.927
    endloop
  endfacet
  facet normal -1 0 0
    outer loop
      vertex -103.5 -80.8 -249.5
      vertex -103.5 -84.8729 -246.763
      vertex -103.5 -84.627 -246.362
    endloop
  endfacet
  facet normal -1 0 0
    outer loop
      vertex -103.5 -80.8 -249.5
      vertex -103.5 -85.1787 -247.121
      vertex -103.5 -84.8729 -246.763
    endloop
  endfacet
  facet normal -1 0 0
    outer loop
      vertex -103.5 -80.8 -249.5
      vertex -103.5 -85.5366 -247.427
      vertex -103.5 -85.1787 -247.121
    endloop
  endfacet
  facet normal -1 0 0
    outer loop
      vertex -103.5 -80.8 -249.5
      vertex -103.5 -85.938 -247.673
      vertex -103.5 -85.5366 -247.427
    endloop
  endfacet
  facet normal -1 0 0
    outer loop
      vertex -103.5 -80.8 -249.5
      vertex -103.5 -86.3729 -247.853
      vertex -103.5 -85.938 -247.673
    endloop
  endfacet
  facet normal -1 0 0
    outer loop
      vertex -103.5 -80.8 -249.5
      vertex -103.5 -86.8307 -247.963
      vertex -103.5 -86.3729 -247.853
    endloop
  endfacet
  facet normal -1 0 0
    outer loop
      vertex -103.5 -80.8 -249.5
      vertex -103.5 -87.3 -248
      vertex -103.5 -86.8307 -247.963
    endloop
  endfacet
  facet normal -1 0 0
    outer loop
      vertex -103.5 -94.3 -249.5
      vertex -103.5 -87.3 -248
      vertex -103.5 -80.8 -249.5
    endloop
  endfacet
  facet normal -1 -0 0
    outer loop
      vertex -103.5 -90.1532 -245.927
      vertex -103.5 -94.3 -247.9
      vertex -103.5 -90.2631 -245.469
    endloop
  endfacet
  facet normal -1 -0 0
    outer loop
      vertex -103.5 -89.973 -246.362
      vertex -103.5 -94.3 -247.9
      vertex -103.5 -90.1532 -245.927
    endloop
  endfacet
  facet normal -1 -0 0
    outer loop
      vertex -103.5 -89.7271 -246.763
      vertex -103.5 -94.3 -247.9
      vertex -103.5 -89.973 -246.362
    endloop
  endfacet
  facet normal -1 0 0
    outer loop
      vertex -103.5 -94.3 -247.9
      vertex -103.5 -89.7271 -246.763
      vertex -103.5 -94.3 -249.5
    endloop
  endfacet
  facet normal -1 -0 0
    outer loop
      vertex -103.5 -89.4213 -247.121
      vertex -103.5 -94.3 -249.5
      vertex -103.5 -89.7271 -246.763
    endloop
  endfacet
  facet normal -1 -0 0
    outer loop
      vertex -103.5 -89.0634 -247.427
      vertex -103.5 -94.3 -249.5
      vertex -103.5 -89.4213 -247.121
    endloop
  endfacet
  facet normal -1 -0 0
    outer loop
      vertex -103.5 -88.662 -247.673
      vertex -103.5 -94.3 -249.5
      vertex -103.5 -89.0634 -247.427
    endloop
  endfacet
  facet normal -1 -0 0
    outer loop
      vertex -103.5 -88.2271 -247.853
      vertex -103.5 -94.3 -249.5
      vertex -103.5 -88.662 -247.673
    endloop
  endfacet
  facet normal -1 -0 0
    outer loop
      vertex -103.5 -87.7693 -247.963
      vertex -103.5 -94.3 -249.5
      vertex -103.5 -88.2271 -247.853
    endloop
  endfacet
  facet normal -1 -0 0
    outer loop
      vertex -103.5 -87.3 -248
      vertex -103.5 -94.3 -249.5
      vertex -103.5 -87.7693 -247.963
    endloop
  endfacet
  facet normal -1 0 0
    outer loop
      vertex -103.5 -80.8 -249.5
      vertex -103.5 -84.3369 -244.531
      vertex -103.5 -80.8 -239
    endloop
  endfacet
  facet normal -1 0 0
    outer loop
      vertex -103.5 -84.4468 -244.073
      vertex -103.5 -80.8 -239
      vertex -103.5 -84.3369 -244.531
    endloop
  endfacet
  facet normal -1 0 0
    outer loop
      vertex -103.5 -84.627 -243.638
      vertex -103.5 -80.8 -239
      vertex -103.5 -84.4468 -244.073
    endloop
  endfacet
  facet normal -1 0 0
    outer loop
      vertex -103.5 -84.8729 -243.237
      vertex -103.5 -80.8 -239
      vertex -103.5 -84.627 -243.638
    endloop
  endfacet
  facet normal -1 0 0
    outer loop
      vertex -103.5 -85.1787 -242.879
      vertex -103.5 -80.8 -239
      vertex -103.5 -84.8729 -243.237
    endloop
  endfacet
  facet normal -1 0 0
    outer loop
      vertex -103.5 -85.5366 -242.573
      vertex -103.5 -80.8 -239
      vertex -103.5 -85.1787 -242.879
    endloop
  endfacet
  facet normal -1 0 0
    outer loop
      vertex -103.5 -85.938 -242.327
      vertex -103.5 -80.8 -239
      vertex -103.5 -85.5366 -242.573
    endloop
  endfacet
  facet normal -1 0 0
    outer loop
      vertex -103.5 -86.3729 -242.147
      vertex -103.5 -80.8 -239
      vertex -103.5 -85.938 -242.327
    endloop
  endfacet
  facet normal -1 0 0
    outer loop
      vertex -103.5 -86.8307 -242.037
      vertex -103.5 -80.8 -239
      vertex -103.5 -86.3729 -242.147
    endloop
  endfacet
  facet normal -1 0 0
    outer loop
      vertex -103.5 -87.3 -242
      vertex -103.5 -80.8 -239
      vertex -103.5 -86.8307 -242.037
    endloop
  endfacet
  facet normal -1 0 0
    outer loop
      vertex -103.5 -94.3 -239
      vertex -103.5 -87.3 -242
      vertex -103.5 -87.7693 -242.037
    endloop
  endfacet
  facet normal -1 0 0
    outer loop
      vertex -103.5 -94.3 -239
      vertex -103.5 -87.7693 -242.037
      vertex -103.5 -88.2271 -242.147
    endloop
  endfacet
  facet normal -1 0 0
    outer loop
      vertex -103.5 -94.3 -239
      vertex -103.5 -88.2271 -242.147
      vertex -103.5 -88.662 -242.327
    endloop
  endfacet
  facet normal -1 -0 0
    outer loop
      vertex -103.5 -90.2631 -245.469
      vertex -103.5 -94.3 -247.9
      vertex -103.5 -90.3 -245
    endloop
  endfacet
  facet normal -1 0 0
    outer loop
      vertex -103.5 -94.3 -242.1
      vertex -103.5 -90.3 -245
      vertex -103.5 -94.3 -247.9
    endloop
  endfacet
  facet normal -1 0 0
    outer loop
      vertex -103.5 -90.3 -245
      vertex -103.5 -94.3 -242.1
      vertex -103.5 -90.2631 -244.531
    endloop
  endfacet
  facet normal -1 0 0
    outer loop
      vertex -103.5 -90.2631 -244.531
      vertex -103.5 -94.3 -242.1
      vertex -103.5 -90.1532 -244.073
    endloop
  endfacet
  facet normal -1 0 0
    outer loop
      vertex -103.5 -90.1532 -244.073
      vertex -103.5 -94.3 -242.1
      vertex -103.5 -89.973 -243.638
    endloop
  endfacet
  facet normal -1 0 0
    outer loop
      vertex -103.5 -89.973 -243.638
      vertex -103.5 -94.3 -242.1
      vertex -103.5 -89.7271 -243.237
    endloop
  endfacet
  facet normal -1 0 0
    outer loop
      vertex -103.5 -89.7271 -243.237
      vertex -103.5 -94.3 -242.1
      vertex -103.5 -89.4213 -242.879
    endloop
  endfacet
  facet normal -1 0 0
    outer loop
      vertex -103.5 -94.3 -239
      vertex -103.5 -89.4213 -242.879
      vertex -103.5 -94.3 -242.1
    endloop
  endfacet
  facet normal -1 0 0
    outer loop
      vertex -103.5 -89.4213 -242.879
      vertex -103.5 -94.3 -239
      vertex -103.5 -89.0634 -242.573
    endloop
  endfacet
  facet normal -1 0 0
    outer loop
      vertex -103.5 -89.0634 -242.573
      vertex -103.5 -94.3 -239
      vertex -103.5 -88.662 -242.327
    endloop
  endfacet
  facet normal -1 0 0
    outer loop
      vertex -103.5 -87.3 -242
      vertex -103.5 -94.3 -239
      vertex -103.5 -80.8 -239
    endloop
  endfacet
  facet normal 0 1 0
    outer loop
      vertex -93.5 -80.8 -235
      vertex -103.5 -80.8 -239
      vertex -103.5 -80.8 -235
    endloop
  endfacet
  facet normal 0 1 -0
    outer loop
      vertex -93.5 -80.8 -249.5
      vertex -103.5 -80.8 -239
      vertex -93.5 -80.8 -235
    endloop
  endfacet
  facet normal 0 1 0
    outer loop
      vertex -103.5 -80.8 -239
      vertex -93.5 -80.8 -249.5
      vertex -103.5 -80.8 -249.5
    endloop
  endfacet
  facet normal 0 -1 0
    outer loop
      vertex -104.5 -100.3 -242.1
      vertex -104.5 -100.3 -247.9
      vertex -103.5 -100.3 -242.1
    endloop
  endfacet
  facet normal 0 -1 0
    outer loop
      vertex -103.5 -100.3 -242.1
      vertex -93.5 -100.3 -235
      vertex -103.5 -100.3 -235
    endloop
  endfacet
  facet normal 0 -1 0
    outer loop
      vertex -103.5 -100.3 -247.9
      vertex -103.5 -100.3 -242.1
      vertex -104.5 -100.3 -247.9
    endloop
  endfacet
  facet normal 0 -1 0
    outer loop
      vertex -93.5 -100.3 -249.5
      vertex -103.5 -100.3 -242.1
      vertex -103.5 -100.3 -247.9
    endloop
  endfacet
  facet normal 0 -1 0
    outer loop
      vertex -93.5 -100.3 -249.5
      vertex -103.5 -100.3 -247.9
      vertex -103.5 -100.3 -249.5
    endloop
  endfacet
  facet normal 0 -1 0
    outer loop
      vertex -103.5 -100.3 -242.1
      vertex -93.5 -100.3 -249.5
      vertex -93.5 -100.3 -235
    endloop
  endfacet
  facet normal 0 0 -1
    outer loop
      vertex -104.5 -100.3 -247.9
      vertex -103.5 -94.3 -247.9
      vertex -103.5 -100.3 -247.9
    endloop
  endfacet
  facet normal -0 0 -1
    outer loop
      vertex -103.5 -94.3 -247.9
      vertex -104.5 -100.3 -247.9
      vertex -104.5 -94.3 -247.9
    endloop
  endfacet
  facet normal -0 0 1
    outer loop
      vertex -104.5 -94.3 -242.1
      vertex -103.5 -100.3 -242.1
      vertex -103.5 -94.3 -242.1
    endloop
  endfacet
  facet normal 0 0 1
    outer loop
      vertex -103.5 -100.3 -242.1
      vertex -104.5 -94.3 -242.1
      vertex -104.5 -100.3 -242.1
    endloop
  endfacet
  facet normal -1 0 0
    outer loop
      vertex -104.5 -100.3 -247.9
      vertex -104.5 -94.3 -242.1
      vertex -104.5 -94.3 -247.9
    endloop
  endfacet
  facet normal -1 -0 0
    outer loop
      vertex -104.5 -94.3 -242.1
      vertex -104.5 -100.3 -247.9
      vertex -104.5 -100.3 -242.1
    endloop
  endfacet
  facet normal 0 -0.382402 -0.923996
    outer loop
      vertex -99 -85.9094 -240.72
      vertex -93.5 -85.257 -240.99
      vertex -93.5 -85.9094 -240.72
    endloop
  endfacet
  facet normal -0 -0.382402 -0.923996
    outer loop
      vertex -93.5 -85.257 -240.99
      vertex -99 -85.9094 -240.72
      vertex -99 -85.257 -240.99
    endloop
  endfacet
  facet normal 0 -0.996918 0.0784506
    outer loop
      vertex -99 -82.8554 -245.704
      vertex -96.5 -82.8 -245
      vertex -99 -82.8 -245
    endloop
  endfacet
  facet normal 0 -0.996918 0.0784506
    outer loop
      vertex -96.5 -82.8 -245
      vertex -99 -82.8554 -245.704
      vertex -96.5 -82.8554 -245.704
    endloop
  endfacet
  facet normal -0 0.233662 0.972318
    outer loop
      vertex -99 -88.004 -249.445
      vertex -96.5 -88.6906 -249.28
      vertex -96.5 -88.004 -249.445
    endloop
  endfacet
  facet normal 0 0.233662 0.972318
    outer loop
      vertex -96.5 -88.6906 -249.28
      vertex -99 -88.004 -249.445
      vertex -99 -88.6906 -249.28
    endloop
  endfacet
  facet normal -0 0.0778877 0.996962
    outer loop
      vertex -99 -87.3 -249.5
      vertex -96.5 -88.004 -249.445
      vertex -96.5 -87.3 -249.5
    endloop
  endfacet
  facet normal 0 0.0778877 0.996962
    outer loop
      vertex -96.5 -88.004 -249.445
      vertex -99 -87.3 -249.5
      vertex -99 -88.004 -249.445
    endloop
  endfacet
  facet normal -0 0.382402 0.923996
    outer loop
      vertex -99 -88.6906 -249.28
      vertex -96.5 -89.343 -249.01
      vertex -96.5 -88.6906 -249.28
    endloop
  endfacet
  facet normal 0 0.382402 0.923996
    outer loop
      vertex -96.5 -89.343 -249.01
      vertex -99 -88.6906 -249.28
      vertex -99 -89.343 -249.01
    endloop
  endfacet
  facet normal 0 -0.0778877 0.996962
    outer loop
      vertex -99 -86.596 -249.445
      vertex -96.5 -87.3 -249.5
      vertex -96.5 -86.596 -249.445
    endloop
  endfacet
  facet normal 0 -0.0778877 0.996962
    outer loop
      vertex -96.5 -87.3 -249.5
      vertex -99 -86.596 -249.445
      vertex -99 -87.3 -249.5
    endloop
  endfacet
  facet normal 0 -0.760435 -0.649414
    outer loop
      vertex -99 -83.6594 -242.355
      vertex -93.5 -84.118 -241.818
      vertex -99 -84.118 -241.818
    endloop
  endfacet
  facet normal 0 -0.760435 -0.649414
    outer loop
      vertex -93.5 -84.118 -241.818
      vertex -99 -83.6594 -242.355
      vertex -93.5 -83.6594 -242.355
    endloop
  endfacet
  facet normal -0 0.522595 0.852581
    outer loop
      vertex -99 -89.343 -249.01
      vertex -96.5 -89.945 -248.641
      vertex -96.5 -89.343 -249.01
    endloop
  endfacet
  facet normal 0 0.522595 0.852581
    outer loop
      vertex -96.5 -89.945 -248.641
      vertex -99 -89.343 -249.01
      vertex -99 -89.945 -248.641
    endloop
  endfacet
  facet normal -0 0.649742 0.760155
    outer loop
      vertex -99 -89.945 -248.641
      vertex -96.5 -90.482 -248.182
      vertex -96.5 -89.945 -248.641
    endloop
  endfacet
  facet normal 0 0.649742 0.760155
    outer loop
      vertex -96.5 -90.482 -248.182
      vertex -99 -89.945 -248.641
      vertex -99 -90.482 -248.182
    endloop
  endfacet
  facet normal 0 -0.760435 0.649414
    outer loop
      vertex -99 -84.118 -248.182
      vertex -96.5 -83.6594 -247.645
      vertex -99 -83.6594 -247.645
    endloop
  endfacet
  facet normal 0 -0.760435 0.649414
    outer loop
      vertex -96.5 -83.6594 -247.645
      vertex -99 -84.118 -248.182
      vertex -96.5 -84.118 -248.182
    endloop
  endfacet
  facet normal 0 0.852644 -0.522492
    outer loop
      vertex -93.5 -91.3095 -242.957
      vertex -99 -90.9406 -242.355
      vertex -93.5 -90.9406 -242.355
    endloop
  endfacet
  facet normal 0 0.852644 -0.522492
    outer loop
      vertex -99 -90.9406 -242.355
      vertex -93.5 -91.3095 -242.957
      vertex -99 -91.3095 -242.957
    endloop
  endfacet
  facet normal 0 0.522595 -0.852581
    outer loop
      vertex -99 -89.945 -241.359
      vertex -93.5 -89.343 -240.99
      vertex -93.5 -89.945 -241.359
    endloop
  endfacet
  facet normal 0 0.522595 -0.852581
    outer loop
      vertex -93.5 -89.343 -240.99
      vertex -99 -89.945 -241.359
      vertex -99 -89.343 -240.99
    endloop
  endfacet
  facet normal 0 0.0778877 -0.996962
    outer loop
      vertex -99 -88.004 -240.555
      vertex -93.5 -87.3 -240.5
      vertex -93.5 -88.004 -240.555
    endloop
  endfacet
  facet normal 0 0.0778877 -0.996962
    outer loop
      vertex -93.5 -87.3 -240.5
      vertex -99 -88.004 -240.555
      vertex -99 -87.3 -240.5
    endloop
  endfacet
  facet normal 0 -0.923763 0.382965
    outer loop
      vertex -99 -83.2905 -247.043
      vertex -96.5 -83.0202 -246.391
      vertex -99 -83.0202 -246.391
    endloop
  endfacet
  facet normal 0 -0.923763 0.382965
    outer loop
      vertex -96.5 -83.0202 -246.391
      vertex -99 -83.2905 -247.043
      vertex -96.5 -83.2905 -247.043
    endloop
  endfacet
  facet normal -0 -0.996918 -0.0784506
    outer loop
      vertex -96.5 -82.8 -245
      vertex -99 -82.8554 -244.296
      vertex -99 -82.8 -245
    endloop
  endfacet
  facet normal 0 -0.996918 -0.0784506
    outer loop
      vertex -99 -82.8554 -244.296
      vertex -96.5 -82.8 -245
      vertex -93.5 -82.8554 -244.296
    endloop
  endfacet
  facet normal 0 -0.996918 -0.0784506
    outer loop
      vertex -93.5 -82.8554 -244.296
      vertex -96.5 -82.8 -245
      vertex -93.5 -82.8 -245
    endloop
  endfacet
  facet normal 0 0.996918 0.0784506
    outer loop
      vertex -96.5 -91.7446 -245.704
      vertex -99 -91.8 -245
      vertex -96.5 -91.8 -245
    endloop
  endfacet
  facet normal 0 0.996918 0.0784506
    outer loop
      vertex -99 -91.8 -245
      vertex -96.5 -91.7446 -245.704
      vertex -99 -91.7446 -245.704
    endloop
  endfacet
  facet normal 0 -0.382402 0.923996
    outer loop
      vertex -99 -85.257 -249.01
      vertex -96.5 -85.9094 -249.28
      vertex -96.5 -85.257 -249.01
    endloop
  endfacet
  facet normal 0 -0.382402 0.923996
    outer loop
      vertex -96.5 -85.9094 -249.28
      vertex -99 -85.257 -249.01
      vertex -99 -85.9094 -249.28
    endloop
  endfacet
  facet normal 0 0.972413 0.233266
    outer loop
      vertex -96.5 -91.5798 -246.391
      vertex -99 -91.7446 -245.704
      vertex -96.5 -91.7446 -245.704
    endloop
  endfacet
  facet normal 0 0.972413 0.233266
    outer loop
      vertex -99 -91.7446 -245.704
      vertex -96.5 -91.5798 -246.391
      vertex -99 -91.5798 -246.391
    endloop
  endfacet
  facet normal 0 -0.0778877 -0.996962
    outer loop
      vertex -99 -87.3 -240.5
      vertex -93.5 -86.596 -240.555
      vertex -93.5 -87.3 -240.5
    endloop
  endfacet
  facet normal -0 -0.0778877 -0.996962
    outer loop
      vertex -93.5 -86.596 -240.555
      vertex -99 -87.3 -240.5
      vertex -99 -86.596 -240.555
    endloop
  endfacet
  facet normal 0 -0.649742 0.760155
    outer loop
      vertex -99 -84.118 -248.182
      vertex -96.5 -84.655 -248.641
      vertex -96.5 -84.118 -248.182
    endloop
  endfacet
  facet normal 0 -0.649742 0.760155
    outer loop
      vertex -96.5 -84.655 -248.641
      vertex -99 -84.118 -248.182
      vertex -99 -84.655 -248.641
    endloop
  endfacet
  facet normal 0 -0.233662 -0.972318
    outer loop
      vertex -99 -86.596 -240.555
      vertex -93.5 -85.9094 -240.72
      vertex -93.5 -86.596 -240.555
    endloop
  endfacet
  facet normal -0 -0.233662 -0.972318
    outer loop
      vertex -93.5 -85.9094 -240.72
      vertex -99 -86.596 -240.555
      vertex -99 -85.9094 -240.72
    endloop
  endfacet
  facet normal 0 0.852644 0.522492
    outer loop
      vertex -96.5 -90.9406 -247.645
      vertex -99 -91.3095 -247.043
      vertex -96.5 -91.3095 -247.043
    endloop
  endfacet
  facet normal 0 0.852644 0.522492
    outer loop
      vertex -99 -91.3095 -247.043
      vertex -96.5 -90.9406 -247.645
      vertex -99 -90.9406 -247.645
    endloop
  endfacet
  facet normal 0 -0.972413 0.233266
    outer loop
      vertex -99 -83.0202 -246.391
      vertex -96.5 -82.8554 -245.704
      vertex -99 -82.8554 -245.704
    endloop
  endfacet
  facet normal 0 -0.972413 0.233266
    outer loop
      vertex -96.5 -82.8554 -245.704
      vertex -99 -83.0202 -246.391
      vertex -96.5 -83.0202 -246.391
    endloop
  endfacet
  facet normal 0 0.760435 -0.649414
    outer loop
      vertex -93.5 -90.9406 -242.355
      vertex -99 -90.482 -241.818
      vertex -93.5 -90.482 -241.818
    endloop
  endfacet
  facet normal 0 0.760435 -0.649414
    outer loop
      vertex -99 -90.482 -241.818
      vertex -93.5 -90.9406 -242.355
      vertex -99 -90.9406 -242.355
    endloop
  endfacet
  facet normal 0 0.923763 -0.382965
    outer loop
      vertex -93.5 -91.5798 -243.609
      vertex -99 -91.3095 -242.957
      vertex -93.5 -91.3095 -242.957
    endloop
  endfacet
  facet normal 0 0.923763 -0.382965
    outer loop
      vertex -99 -91.3095 -242.957
      vertex -93.5 -91.5798 -243.609
      vertex -99 -91.5798 -243.609
    endloop
  endfacet
  facet normal 0 0.233662 -0.972318
    outer loop
      vertex -99 -88.6906 -240.72
      vertex -93.5 -88.004 -240.555
      vertex -93.5 -88.6906 -240.72
    endloop
  endfacet
  facet normal 0 0.233662 -0.972318
    outer loop
      vertex -93.5 -88.004 -240.555
      vertex -99 -88.6906 -240.72
      vertex -99 -88.004 -240.555
    endloop
  endfacet
  facet normal 0 0.760435 0.649414
    outer loop
      vertex -96.5 -90.482 -248.182
      vertex -99 -90.9406 -247.645
      vertex -96.5 -90.9406 -247.645
    endloop
  endfacet
  facet normal 0 0.760435 0.649414
    outer loop
      vertex -99 -90.9406 -247.645
      vertex -96.5 -90.482 -248.182
      vertex -99 -90.482 -248.182
    endloop
  endfacet
  facet normal 0 0.923763 0.382965
    outer loop
      vertex -96.5 -91.3095 -247.043
      vertex -99 -91.5798 -246.391
      vertex -96.5 -91.5798 -246.391
    endloop
  endfacet
  facet normal 0 0.923763 0.382965
    outer loop
      vertex -99 -91.5798 -246.391
      vertex -96.5 -91.3095 -247.043
      vertex -99 -91.3095 -247.043
    endloop
  endfacet
  facet normal 0 0.996918 -0.0784506
    outer loop
      vertex -96.5 -91.8 -245
      vertex -93.5 -91.7446 -244.296
      vertex -93.5 -91.8 -245
    endloop
  endfacet
  facet normal 0 0.996918 -0.0784506
    outer loop
      vertex -93.5 -91.7446 -244.296
      vertex -96.5 -91.8 -245
      vertex -99 -91.7446 -244.296
    endloop
  endfacet
  facet normal 0 0.996918 -0.0784506
    outer loop
      vertex -99 -91.7446 -244.296
      vertex -96.5 -91.8 -245
      vertex -99 -91.8 -245
    endloop
  endfacet
  facet normal 0 -0.522595 -0.852581
    outer loop
      vertex -99 -85.257 -240.99
      vertex -93.5 -84.655 -241.359
      vertex -93.5 -85.257 -240.99
    endloop
  endfacet
  facet normal -0 -0.522595 -0.852581
    outer loop
      vertex -93.5 -84.655 -241.359
      vertex -99 -85.257 -240.99
      vertex -99 -84.655 -241.359
    endloop
  endfacet
  facet normal 0 -0.233662 0.972318
    outer loop
      vertex -99 -85.9094 -249.28
      vertex -96.5 -86.596 -249.445
      vertex -96.5 -85.9094 -249.28
    endloop
  endfacet
  facet normal 0 -0.233662 0.972318
    outer loop
      vertex -96.5 -86.596 -249.445
      vertex -99 -85.9094 -249.28
      vertex -99 -86.596 -249.445
    endloop
  endfacet
  facet normal 0 -0.649742 -0.760155
    outer loop
      vertex -99 -84.655 -241.359
      vertex -93.5 -84.118 -241.818
      vertex -93.5 -84.655 -241.359
    endloop
  endfacet
  facet normal -0 -0.649742 -0.760155
    outer loop
      vertex -93.5 -84.118 -241.818
      vertex -99 -84.655 -241.359
      vertex -99 -84.118 -241.818
    endloop
  endfacet
  facet normal 0 -0.852644 0.522492
    outer loop
      vertex -99 -83.6594 -247.645
      vertex -96.5 -83.2905 -247.043
      vertex -99 -83.2905 -247.043
    endloop
  endfacet
  facet normal 0 -0.852644 0.522492
    outer loop
      vertex -96.5 -83.2905 -247.043
      vertex -99 -83.6594 -247.645
      vertex -96.5 -83.6594 -247.645
    endloop
  endfacet
  facet normal 0 -0.522595 0.852581
    outer loop
      vertex -99 -84.655 -248.641
      vertex -96.5 -85.257 -249.01
      vertex -96.5 -84.655 -248.641
    endloop
  endfacet
  facet normal 0 -0.522595 0.852581
    outer loop
      vertex -96.5 -85.257 -249.01
      vertex -99 -84.655 -248.641
      vertex -99 -85.257 -249.01
    endloop
  endfacet
  facet normal 0 0.972413 -0.233266
    outer loop
      vertex -93.5 -91.7446 -244.296
      vertex -99 -91.5798 -243.609
      vertex -93.5 -91.5798 -243.609
    endloop
  endfacet
  facet normal 0 0.972413 -0.233266
    outer loop
      vertex -99 -91.5798 -243.609
      vertex -93.5 -91.7446 -244.296
      vertex -99 -91.7446 -244.296
    endloop
  endfacet
  facet normal 0 0.382402 -0.923996
    outer loop
      vertex -99 -89.343 -240.99
      vertex -93.5 -88.6906 -240.72
      vertex -93.5 -89.343 -240.99
    endloop
  endfacet
  facet normal 0 0.382402 -0.923996
    outer loop
      vertex -93.5 -88.6906 -240.72
      vertex -99 -89.343 -240.99
      vertex -99 -88.6906 -240.72
    endloop
  endfacet
  facet normal 1 0 0
    outer loop
      vertex -99 -84.3 -245
      vertex -99 -82.8 -245
      vertex -99 -82.8554 -244.296
    endloop
  endfacet
  facet normal 1 0 0
    outer loop
      vertex -99 -84.3369 -244.531
      vertex -99 -82.8554 -244.296
      vertex -99 -83.0202 -243.609
    endloop
  endfacet
  facet normal 1 0 0
    outer loop
      vertex -99 -82.8 -245
      vertex -99 -84.3 -245
      vertex -99 -82.8554 -245.704
    endloop
  endfacet
  facet normal 1 0 0
    outer loop
      vertex -99 -84.4468 -244.073
      vertex -99 -83.0202 -243.609
      vertex -99 -83.2905 -242.957
    endloop
  endfacet
  facet normal 1 -0 0
    outer loop
      vertex -99 -84.3369 -245.469
      vertex -99 -82.8554 -245.704
      vertex -99 -84.3 -245
    endloop
  endfacet
  facet normal 1 0 0
    outer loop
      vertex -99 -84.627 -243.638
      vertex -99 -83.2905 -242.957
      vertex -99 -83.6594 -242.355
    endloop
  endfacet
  facet normal 1 0 0
    outer loop
      vertex -99 -82.8554 -245.704
      vertex -99 -84.3369 -245.469
      vertex -99 -83.0202 -246.391
    endloop
  endfacet
  facet normal 1 0 0
    outer loop
      vertex -99 -84.8729 -243.237
      vertex -99 -83.6594 -242.355
      vertex -99 -84.118 -241.818
    endloop
  endfacet
  facet normal 1 -0 0
    outer loop
      vertex -99 -84.4468 -245.927
      vertex -99 -83.0202 -246.391
      vertex -99 -84.3369 -245.469
    endloop
  endfacet
  facet normal 1 0 0
    outer loop
      vertex -99 -83.0202 -246.391
      vertex -99 -84.4468 -245.927
      vertex -99 -83.2905 -247.043
    endloop
  endfacet
  facet normal 1 0 0
    outer loop
      vertex -99 -82.8554 -244.296
      vertex -99 -84.3369 -244.531
      vertex -99 -84.3 -245
    endloop
  endfacet
  facet normal 1 0 0
    outer loop
      vertex -99 -83.0202 -243.609
      vertex -99 -84.4468 -244.073
      vertex -99 -84.3369 -244.531
    endloop
  endfacet
  facet normal 1 0 0
    outer loop
      vertex -99 -83.2905 -242.957
      vertex -99 -84.627 -243.638
      vertex -99 -84.4468 -244.073
    endloop
  endfacet
  facet normal 1 0 0
    outer loop
      vertex -99 -85.1787 -242.879
      vertex -99 -84.118 -241.818
      vertex -99 -84.655 -241.359
    endloop
  endfacet
  facet normal 1 0 0
    outer loop
      vertex -99 -83.6594 -242.355
      vertex -99 -84.8729 -243.237
      vertex -99 -84.627 -243.638
    endloop
  endfacet
  facet normal 1 0 0
    outer loop
      vertex -99 -84.118 -241.818
      vertex -99 -85.1787 -242.879
      vertex -99 -84.8729 -243.237
    endloop
  endfacet
  facet normal 1 0 0
    outer loop
      vertex -99 -85.5366 -242.573
      vertex -99 -84.655 -241.359
      vertex -99 -85.257 -240.99
    endloop
  endfacet
  facet normal 1 0 0
    outer loop
      vertex -99 -84.655 -241.359
      vertex -99 -85.5366 -242.573
      vertex -99 -85.1787 -242.879
    endloop
  endfacet
  facet normal 1 0 0
    outer loop
      vertex -99 -85.938 -242.327
      vertex -99 -85.257 -240.99
      vertex -99 -85.9094 -240.72
    endloop
  endfacet
  facet normal 1 0 0
    outer loop
      vertex -99 -85.257 -240.99
      vertex -99 -85.938 -242.327
      vertex -99 -85.5366 -242.573
    endloop
  endfacet
  facet normal 1 0 0
    outer loop
      vertex -99 -85.9094 -240.72
      vertex -99 -86.3729 -242.147
      vertex -99 -85.938 -242.327
    endloop
  endfacet
  facet normal 1 0 0
    outer loop
      vertex -99 -86.596 -240.555
      vertex -99 -86.3729 -242.147
      vertex -99 -85.9094 -240.72
    endloop
  endfacet
  facet normal 1 0 0
    outer loop
      vertex -99 -86.596 -240.555
      vertex -99 -86.8307 -242.037
      vertex -99 -86.3729 -242.147
    endloop
  endfacet
  facet normal 1 0 0
    outer loop
      vertex -99 -87.3 -240.5
      vertex -99 -86.8307 -242.037
      vertex -99 -86.596 -240.555
    endloop
  endfacet
  facet normal 1 0 0
    outer loop
      vertex -99 -87.3 -240.5
      vertex -99 -87.3 -242
      vertex -99 -86.8307 -242.037
    endloop
  endfacet
  facet normal 1 0 0
    outer loop
      vertex -99 -87.3 -240.5
      vertex -99 -87.7693 -242.037
      vertex -99 -87.3 -242
    endloop
  endfacet
  facet normal 1 -0 0
    outer loop
      vertex -99 -88.004 -240.555
      vertex -99 -87.7693 -242.037
      vertex -99 -87.3 -240.5
    endloop
  endfacet
  facet normal 1 0 0
    outer loop
      vertex -99 -88.004 -240.555
      vertex -99 -88.2271 -242.147
      vertex -99 -87.7693 -242.037
    endloop
  endfacet
  facet normal 1 -0 0
    outer loop
      vertex -99 -88.6906 -240.72
      vertex -99 -88.2271 -242.147
      vertex -99 -88.004 -240.555
    endloop
  endfacet
  facet normal 1 0 0
    outer loop
      vertex -99 -88.2271 -242.147
      vertex -99 -88.6906 -240.72
      vertex -99 -88.662 -242.327
    endloop
  endfacet
  facet normal 1 -0 0
    outer loop
      vertex -99 -89.343 -240.99
      vertex -99 -88.662 -242.327
      vertex -99 -88.6906 -240.72
    endloop
  endfacet
  facet normal 1 0 0
    outer loop
      vertex -99 -88.662 -242.327
      vertex -99 -89.343 -240.99
      vertex -99 -89.0634 -242.573
    endloop
  endfacet
  facet normal 1 -0 0
    outer loop
      vertex -99 -89.945 -241.359
      vertex -99 -89.0634 -242.573
      vertex -99 -89.343 -240.99
    endloop
  endfacet
  facet normal 1 0 0
    outer loop
      vertex -99 -89.0634 -242.573
      vertex -99 -89.945 -241.359
      vertex -99 -89.4213 -242.879
    endloop
  endfacet
  facet normal 1 -0 0
    outer loop
      vertex -99 -90.482 -241.818
      vertex -99 -89.4213 -242.879
      vertex -99 -89.945 -241.359
    endloop
  endfacet
  facet normal 1 0 0
    outer loop
      vertex -99 -89.4213 -242.879
      vertex -99 -90.482 -241.818
      vertex -99 -89.7271 -243.237
    endloop
  endfacet
  facet normal 1 -0 0
    outer loop
      vertex -99 -90.9406 -242.355
      vertex -99 -89.7271 -243.237
      vertex -99 -90.482 -241.818
    endloop
  endfacet
  facet normal 1 0 0
    outer loop
      vertex -99 -89.7271 -243.237
      vertex -99 -90.9406 -242.355
      vertex -99 -89.973 -243.638
    endloop
  endfacet
  facet normal 1 0 0
    outer loop
      vertex -99 -89.973 -243.638
      vertex -99 -91.3095 -242.957
      vertex -99 -90.1532 -244.073
    endloop
  endfacet
  facet normal 1 -0 0
    outer loop
      vertex -99 -91.3095 -242.957
      vertex -99 -89.973 -243.638
      vertex -99 -90.9406 -242.355
    endloop
  endfacet
  facet normal 1 -0 0
    outer loop
      vertex -99 -84.627 -246.362
      vertex -99 -83.2905 -247.043
      vertex -99 -84.4468 -245.927
    endloop
  endfacet
  facet normal 1 0 0
    outer loop
      vertex -99 -83.2905 -247.043
      vertex -99 -84.627 -246.362
      vertex -99 -83.6594 -247.645
    endloop
  endfacet
  facet normal 1 -0 0
    outer loop
      vertex -99 -84.8729 -246.763
      vertex -99 -83.6594 -247.645
      vertex -99 -84.627 -246.362
    endloop
  endfacet
  facet normal 1 0 0
    outer loop
      vertex -99 -83.6594 -247.645
      vertex -99 -84.8729 -246.763
      vertex -99 -84.118 -248.182
    endloop
  endfacet
  facet normal 1 -0 0
    outer loop
      vertex -99 -85.1787 -247.121
      vertex -99 -84.118 -248.182
      vertex -99 -84.8729 -246.763
    endloop
  endfacet
  facet normal 1 0 0
    outer loop
      vertex -99 -84.118 -248.182
      vertex -99 -85.1787 -247.121
      vertex -99 -84.655 -248.641
    endloop
  endfacet
  facet normal 1 -0 0
    outer loop
      vertex -99 -85.5366 -247.427
      vertex -99 -84.655 -248.641
      vertex -99 -85.1787 -247.121
    endloop
  endfacet
  facet normal 1 0 0
    outer loop
      vertex -99 -84.655 -248.641
      vertex -99 -85.5366 -247.427
      vertex -99 -85.257 -249.01
    endloop
  endfacet
  facet normal 1 -0 0
    outer loop
      vertex -99 -85.938 -247.673
      vertex -99 -85.257 -249.01
      vertex -99 -85.5366 -247.427
    endloop
  endfacet
  facet normal 1 0 0
    outer loop
      vertex -99 -85.257 -249.01
      vertex -99 -85.938 -247.673
      vertex -99 -85.9094 -249.28
    endloop
  endfacet
  facet normal 1 -0 0
    outer loop
      vertex -99 -86.3729 -247.853
      vertex -99 -85.9094 -249.28
      vertex -99 -85.938 -247.673
    endloop
  endfacet
  facet normal 1 0 0
    outer loop
      vertex -99 -86.3729 -247.853
      vertex -99 -86.596 -249.445
      vertex -99 -85.9094 -249.28
    endloop
  endfacet
  facet normal 1 -0 0
    outer loop
      vertex -99 -86.8307 -247.963
      vertex -99 -86.596 -249.445
      vertex -99 -86.3729 -247.853
    endloop
  endfacet
  facet normal 1 -0 0
    outer loop
      vertex -99 -87.3 -248
      vertex -99 -86.596 -249.445
      vertex -99 -86.8307 -247.963
    endloop
  endfacet
  facet normal 1 0 0
    outer loop
      vertex -99 -87.3 -248
      vertex -99 -87.3 -249.5
      vertex -99 -86.596 -249.445
    endloop
  endfacet
  facet normal 1 0 0
    outer loop
      vertex -99 -87.7693 -247.963
      vertex -99 -87.3 -249.5
      vertex -99 -87.3 -248
    endloop
  endfacet
  facet normal 1 0 0
    outer loop
      vertex -99 -87.7693 -247.963
      vertex -99 -88.004 -249.445
      vertex -99 -87.3 -249.5
    endloop
  endfacet
  facet normal 1 0 0
    outer loop
      vertex -99 -88.2271 -247.853
      vertex -99 -88.004 -249.445
      vertex -99 -87.7693 -247.963
    endloop
  endfacet
  facet normal 1 0 0
    outer loop
      vertex -99 -88.6906 -249.28
      vertex -99 -88.2271 -247.853
      vertex -99 -88.662 -247.673
    endloop
  endfacet
  facet normal 1 0 0
    outer loop
      vertex -99 -88.2271 -247.853
      vertex -99 -88.6906 -249.28
      vertex -99 -88.004 -249.445
    endloop
  endfacet
  facet normal 1 0 0
    outer loop
      vertex -99 -89.343 -249.01
      vertex -99 -88.662 -247.673
      vertex -99 -89.0634 -247.427
    endloop
  endfacet
  facet normal 1 0 0
    outer loop
      vertex -99 -88.662 -247.673
      vertex -99 -89.343 -249.01
      vertex -99 -88.6906 -249.28
    endloop
  endfacet
  facet normal 1 0 0
    outer loop
      vertex -99 -89.945 -248.641
      vertex -99 -89.0634 -247.427
      vertex -99 -89.4213 -247.121
    endloop
  endfacet
  facet normal 1 0 0
    outer loop
      vertex -99 -90.482 -248.182
      vertex -99 -89.4213 -247.121
      vertex -99 -89.7271 -246.763
    endloop
  endfacet
  facet normal 1 0 0
    outer loop
      vertex -99 -89.0634 -247.427
      vertex -99 -89.945 -248.641
      vertex -99 -89.343 -249.01
    endloop
  endfacet
  facet normal 1 0 0
    outer loop
      vertex -99 -90.9406 -247.645
      vertex -99 -89.7271 -246.763
      vertex -99 -89.973 -246.362
    endloop
  endfacet
  facet normal 1 0 0
    outer loop
      vertex -99 -91.3095 -247.043
      vertex -99 -89.973 -246.362
      vertex -99 -90.1532 -245.927
    endloop
  endfacet
  facet normal 1 0 0
    outer loop
      vertex -99 -91.5798 -246.391
      vertex -99 -90.1532 -245.927
      vertex -99 -90.2631 -245.469
    endloop
  endfacet
  facet normal 1 0 0
    outer loop
      vertex -99 -89.4213 -247.121
      vertex -99 -90.482 -248.182
      vertex -99 -89.945 -248.641
    endloop
  endfacet
  facet normal 1 0 0
    outer loop
      vertex -99 -91.7446 -245.704
      vertex -99 -90.2631 -245.469
      vertex -99 -90.3 -245
    endloop
  endfacet
  facet normal 1 -0 0
    outer loop
      vertex -99 -91.5798 -243.609
      vertex -99 -90.1532 -244.073
      vertex -99 -91.3095 -242.957
    endloop
  endfacet
  facet normal 1 0 0
    outer loop
      vertex -99 -90.1532 -244.073
      vertex -99 -91.5798 -243.609
      vertex -99 -90.2631 -244.531
    endloop
  endfacet
  facet normal 1 0 0
    outer loop
      vertex -99 -89.7271 -246.763
      vertex -99 -90.9406 -247.645
      vertex -99 -90.482 -248.182
    endloop
  endfacet
  facet normal 1 -0 0
    outer loop
      vertex -99 -91.7446 -244.296
      vertex -99 -90.2631 -244.531
      vertex -99 -91.5798 -243.609
    endloop
  endfacet
  facet normal 1 0 0
    outer loop
      vertex -99 -89.973 -246.362
      vertex -99 -91.3095 -247.043
      vertex -99 -90.9406 -247.645
    endloop
  endfacet
  facet normal 1 0 0
    outer loop
      vertex -99 -90.2631 -244.531
      vertex -99 -91.7446 -244.296
      vertex -99 -90.3 -245
    endloop
  endfacet
  facet normal 1 0 0
    outer loop
      vertex -99 -90.1532 -245.927
      vertex -99 -91.5798 -246.391
      vertex -99 -91.3095 -247.043
    endloop
  endfacet
  facet normal 1 0 0
    outer loop
      vertex -99 -91.8 -245
      vertex -99 -90.3 -245
      vertex -99 -91.7446 -244.296
    endloop
  endfacet
  facet normal 1 0 0
    outer loop
      vertex -99 -90.2631 -245.469
      vertex -99 -91.7446 -245.704
      vertex -99 -91.5798 -246.391
    endloop
  endfacet
  facet normal 1 0 0
    outer loop
      vertex -99 -90.3 -245
      vertex -99 -91.8 -245
      vertex -99 -91.7446 -245.704
    endloop
  endfacet
  facet normal 0 -0.923763 -0.382965
    outer loop
      vertex -99 -83.0202 -243.609
      vertex -93.5 -83.2905 -242.957
      vertex -99 -83.2905 -242.957
    endloop
  endfacet
  facet normal 0 -0.923763 -0.382965
    outer loop
      vertex -93.5 -83.2905 -242.957
      vertex -99 -83.0202 -243.609
      vertex -93.5 -83.0202 -243.609
    endloop
  endfacet
  facet normal 0 -0.972413 -0.233266
    outer loop
      vertex -99 -82.8554 -244.296
      vertex -93.5 -83.0202 -243.609
      vertex -99 -83.0202 -243.609
    endloop
  endfacet
  facet normal 0 -0.972413 -0.233266
    outer loop
      vertex -93.5 -83.0202 -243.609
      vertex -99 -82.8554 -244.296
      vertex -93.5 -82.8554 -244.296
    endloop
  endfacet
  facet normal 0 -0.852644 -0.522492
    outer loop
      vertex -99 -83.2905 -242.957
      vertex -93.5 -83.6594 -242.355
      vertex -99 -83.6594 -242.355
    endloop
  endfacet
  facet normal 0 -0.852644 -0.522492
    outer loop
      vertex -93.5 -83.6594 -242.355
      vertex -99 -83.2905 -242.957
      vertex -93.5 -83.2905 -242.957
    endloop
  endfacet
  facet normal 0 0.649742 -0.760155
    outer loop
      vertex -99 -90.482 -241.818
      vertex -93.5 -89.945 -241.359
      vertex -93.5 -90.482 -241.818
    endloop
  endfacet
  facet normal 0 0.649742 -0.760155
    outer loop
      vertex -93.5 -89.945 -241.359
      vertex -99 -90.482 -241.818
      vertex -99 -89.945 -241.359
    endloop
  endfacet
  facet normal 0 -1 0
    outer loop
      vertex -96.5 -82.8 -249.5
      vertex -93.5 -82.8 -245
      vertex -96.5 -82.8 -245
    endloop
  endfacet
  facet normal 0 -1 -0
    outer loop
      vertex -93.5 -82.8 -245
      vertex -96.5 -82.8 -249.5
      vertex -93.5 -82.8 -249.5
    endloop
  endfacet
  facet normal 0 1 -0
    outer loop
      vertex -93.5 -91.8 -249.5
      vertex -96.5 -91.8 -245
      vertex -93.5 -91.8 -245
    endloop
  endfacet
  facet normal 0 1 0
    outer loop
      vertex -96.5 -91.8 -245
      vertex -93.5 -91.8 -249.5
      vertex -96.5 -91.8 -249.5
    endloop
  endfacet
  facet normal 1 0 0
    outer loop
      vertex -96.5 -88.004 -249.445
      vertex -96.5 -91.8 -249.5
      vertex -96.5 -87.3 -249.5
    endloop
  endfacet
  facet normal 1 0 0
    outer loop
      vertex -96.5 -88.6906 -249.28
      vertex -96.5 -91.8 -249.5
      vertex -96.5 -88.004 -249.445
    endloop
  endfacet
  facet normal 1 0 0
    outer loop
      vertex -96.5 -89.343 -249.01
      vertex -96.5 -91.8 -249.5
      vertex -96.5 -88.6906 -249.28
    endloop
  endfacet
  facet normal 1 0 0
    outer loop
      vertex -96.5 -89.945 -248.641
      vertex -96.5 -91.8 -249.5
      vertex -96.5 -89.343 -249.01
    endloop
  endfacet
  facet normal 1 0 0
    outer loop
      vertex -96.5 -90.482 -248.182
      vertex -96.5 -91.8 -249.5
      vertex -96.5 -89.945 -248.641
    endloop
  endfacet
  facet normal 1 0 0
    outer loop
      vertex -96.5 -90.9406 -247.645
      vertex -96.5 -91.8 -249.5
      vertex -96.5 -90.482 -248.182
    endloop
  endfacet
  facet normal 1 0 0
    outer loop
      vertex -96.5 -91.3095 -247.043
      vertex -96.5 -91.8 -249.5
      vertex -96.5 -90.9406 -247.645
    endloop
  endfacet
  facet normal 1 0 0
    outer loop
      vertex -96.5 -91.5798 -246.391
      vertex -96.5 -91.8 -249.5
      vertex -96.5 -91.3095 -247.043
    endloop
  endfacet
  facet normal 1 0 0
    outer loop
      vertex -96.5 -91.7446 -245.704
      vertex -96.5 -91.8 -249.5
      vertex -96.5 -91.5798 -246.391
    endloop
  endfacet
  facet normal 1 0 0
    outer loop
      vertex -96.5 -91.8 -249.5
      vertex -96.5 -91.7446 -245.704
      vertex -96.5 -91.8 -245
    endloop
  endfacet
  facet normal 1 -0 0
    outer loop
      vertex -96.5 -82.8554 -245.704
      vertex -96.5 -82.8 -249.5
      vertex -96.5 -82.8 -245
    endloop
  endfacet
  facet normal 1 -0 0
    outer loop
      vertex -96.5 -83.0202 -246.391
      vertex -96.5 -82.8 -249.5
      vertex -96.5 -82.8554 -245.704
    endloop
  endfacet
  facet normal 1 -0 0
    outer loop
      vertex -96.5 -83.2905 -247.043
      vertex -96.5 -82.8 -249.5
      vertex -96.5 -83.0202 -246.391
    endloop
  endfacet
  facet normal 1 -0 0
    outer loop
      vertex -96.5 -83.6594 -247.645
      vertex -96.5 -82.8 -249.5
      vertex -96.5 -83.2905 -247.043
    endloop
  endfacet
  facet normal 1 -0 0
    outer loop
      vertex -96.5 -84.118 -248.182
      vertex -96.5 -82.8 -249.5
      vertex -96.5 -83.6594 -247.645
    endloop
  endfacet
  facet normal 1 -0 0
    outer loop
      vertex -96.5 -84.655 -248.641
      vertex -96.5 -82.8 -249.5
      vertex -96.5 -84.118 -248.182
    endloop
  endfacet
  facet normal 1 -0 0
    outer loop
      vertex -96.5 -85.257 -249.01
      vertex -96.5 -82.8 -249.5
      vertex -96.5 -84.655 -248.641
    endloop
  endfacet
  facet normal 1 -0 0
    outer loop
      vertex -96.5 -85.9094 -249.28
      vertex -96.5 -82.8 -249.5
      vertex -96.5 -85.257 -249.01
    endloop
  endfacet
  facet normal 1 -0 0
    outer loop
      vertex -96.5 -86.596 -249.445
      vertex -96.5 -82.8 -249.5
      vertex -96.5 -85.9094 -249.28
    endloop
  endfacet
  facet normal 1 0 0
    outer loop
      vertex -96.5 -82.8 -249.5
      vertex -96.5 -86.596 -249.445
      vertex -96.5 -87.3 -249.5
    endloop
  endfacet
  facet normal 0 -0.649846 0.760066
    outer loop
      vertex -103.5 -85.1787 -247.121
      vertex -99 -85.5366 -247.427
      vertex -99 -85.1787 -247.121
    endloop
  endfacet
  facet normal 0 -0.649846 0.760066
    outer loop
      vertex -99 -85.5366 -247.427
      vertex -103.5 -85.1787 -247.121
      vertex -103.5 -85.5366 -247.427
    endloop
  endfacet
  facet normal 0 -0.23363 0.972326
    outer loop
      vertex -103.5 -86.3729 -247.853
      vertex -99 -86.8307 -247.963
      vertex -99 -86.3729 -247.853
    endloop
  endfacet
  facet normal 0 -0.23363 0.972326
    outer loop
      vertex -99 -86.8307 -247.963
      vertex -103.5 -86.3729 -247.853
      vertex -103.5 -86.8307 -247.963
    endloop
  endfacet
  facet normal -0 0.23363 0.972326
    outer loop
      vertex -103.5 -87.7693 -247.963
      vertex -99 -88.2271 -247.853
      vertex -99 -87.7693 -247.963
    endloop
  endfacet
  facet normal 0 0.23363 0.972326
    outer loop
      vertex -99 -88.2271 -247.853
      vertex -103.5 -87.7693 -247.963
      vertex -103.5 -88.2271 -247.853
    endloop
  endfacet
  facet normal 0 -0.852482 0.522756
    outer loop
      vertex -103.5 -84.8729 -246.763
      vertex -99 -84.627 -246.362
      vertex -103.5 -84.627 -246.362
    endloop
  endfacet
  facet normal 0 -0.852482 0.522756
    outer loop
      vertex -99 -84.627 -246.362
      vertex -103.5 -84.8729 -246.763
      vertex -99 -84.8729 -246.763
    endloop
  endfacet
  facet normal 0 0.923867 0.382714
    outer loop
      vertex -99 -89.973 -246.362
      vertex -103.5 -90.1532 -245.927
      vertex -99 -90.1532 -245.927
    endloop
  endfacet
  facet normal 0 0.923867 0.382714
    outer loop
      vertex -103.5 -90.1532 -245.927
      vertex -99 -89.973 -246.362
      vertex -103.5 -89.973 -246.362
    endloop
  endfacet
  facet normal 0 -0.382427 0.923986
    outer loop
      vertex -103.5 -85.938 -247.673
      vertex -99 -86.3729 -247.853
      vertex -99 -85.938 -247.673
    endloop
  endfacet
  facet normal 0 -0.382427 0.923986
    outer loop
      vertex -99 -86.3729 -247.853
      vertex -103.5 -85.938 -247.673
      vertex -103.5 -86.3729 -247.853
    endloop
  endfacet
  facet normal -0 0.649846 0.760066
    outer loop
      vertex -103.5 -89.0634 -247.427
      vertex -99 -89.4213 -247.121
      vertex -99 -89.0634 -247.427
    endloop
  endfacet
  facet normal 0 0.649846 0.760066
    outer loop
      vertex -99 -89.4213 -247.121
      vertex -103.5 -89.0634 -247.427
      vertex -103.5 -89.4213 -247.121
    endloop
  endfacet
  facet normal 0 -0.0785969 0.996906
    outer loop
      vertex -103.5 -86.8307 -247.963
      vertex -99 -87.3 -248
      vertex -99 -86.8307 -247.963
    endloop
  endfacet
  facet normal 0 -0.0785969 0.996906
    outer loop
      vertex -99 -87.3 -248
      vertex -103.5 -86.8307 -247.963
      vertex -103.5 -87.3 -248
    endloop
  endfacet
  facet normal 0 0.649846 -0.760066
    outer loop
      vertex -103.5 -89.4213 -242.879
      vertex -99 -89.0634 -242.573
      vertex -99 -89.4213 -242.879
    endloop
  endfacet
  facet normal 0 0.649846 -0.760066
    outer loop
      vertex -99 -89.0634 -242.573
      vertex -103.5 -89.4213 -242.879
      vertex -103.5 -89.0634 -242.573
    endloop
  endfacet
  facet normal 0 0.382427 -0.923986
    outer loop
      vertex -103.5 -88.662 -242.327
      vertex -99 -88.2271 -242.147
      vertex -99 -88.662 -242.327
    endloop
  endfacet
  facet normal 0 0.382427 -0.923986
    outer loop
      vertex -99 -88.2271 -242.147
      vertex -103.5 -88.662 -242.327
      vertex -103.5 -88.2271 -242.147
    endloop
  endfacet
  facet normal -0 0.0785969 0.996906
    outer loop
      vertex -103.5 -87.3 -248
      vertex -99 -87.7693 -247.963
      vertex -99 -87.3 -248
    endloop
  endfacet
  facet normal 0 0.0785969 0.996906
    outer loop
      vertex -99 -87.7693 -247.963
      vertex -103.5 -87.3 -248
      vertex -103.5 -87.7693 -247.963
    endloop
  endfacet
  facet normal 0 0.760365 -0.649496
    outer loop
      vertex -99 -89.7271 -243.237
      vertex -103.5 -89.4213 -242.879
      vertex -99 -89.4213 -242.879
    endloop
  endfacet
  facet normal 0 0.760365 -0.649496
    outer loop
      vertex -103.5 -89.4213 -242.879
      vertex -99 -89.7271 -243.237
      vertex -103.5 -89.7271 -243.237
    endloop
  endfacet
  facet normal -0 0.382427 0.923986
    outer loop
      vertex -103.5 -88.2271 -247.853
      vertex -99 -88.662 -247.673
      vertex -99 -88.2271 -247.853
    endloop
  endfacet
  facet normal 0 0.382427 0.923986
    outer loop
      vertex -99 -88.662 -247.673
      vertex -103.5 -88.2271 -247.853
      vertex -103.5 -88.662 -247.673
    endloop
  endfacet
  facet normal 0 0.852482 -0.522756
    outer loop
      vertex -99 -89.973 -243.638
      vertex -103.5 -89.7271 -243.237
      vertex -99 -89.7271 -243.237
    endloop
  endfacet
  facet normal 0 0.852482 -0.522756
    outer loop
      vertex -103.5 -89.7271 -243.237
      vertex -99 -89.973 -243.638
      vertex -103.5 -89.973 -243.638
    endloop
  endfacet
  facet normal 0 0.996919 0.0784356
    outer loop
      vertex -99 -90.2631 -245.469
      vertex -103.5 -90.3 -245
      vertex -99 -90.3 -245
    endloop
  endfacet
  facet normal 0 0.996919 0.0784356
    outer loop
      vertex -103.5 -90.3 -245
      vertex -99 -90.2631 -245.469
      vertex -103.5 -90.2631 -245.469
    endloop
  endfacet
  facet normal 0 -0.996919 0.0784356
    outer loop
      vertex -103.5 -84.3369 -245.469
      vertex -99 -84.3 -245
      vertex -103.5 -84.3 -245
    endloop
  endfacet
  facet normal 0 -0.996919 0.0784356
    outer loop
      vertex -99 -84.3 -245
      vertex -103.5 -84.3369 -245.469
      vertex -99 -84.3369 -245.469
    endloop
  endfacet
  facet normal 0 -0.923867 -0.382714
    outer loop
      vertex -103.5 -84.4468 -244.073
      vertex -99 -84.627 -243.638
      vertex -103.5 -84.627 -243.638
    endloop
  endfacet
  facet normal 0 -0.923867 -0.382714
    outer loop
      vertex -99 -84.627 -243.638
      vertex -103.5 -84.4468 -244.073
      vertex -99 -84.4468 -244.073
    endloop
  endfacet
  facet normal 0 -0.522532 0.85262
    outer loop
      vertex -103.5 -85.5366 -247.427
      vertex -99 -85.938 -247.673
      vertex -99 -85.5366 -247.427
    endloop
  endfacet
  facet normal 0 -0.522532 0.85262
    outer loop
      vertex -99 -85.938 -247.673
      vertex -103.5 -85.5366 -247.427
      vertex -103.5 -85.938 -247.673
    endloop
  endfacet
  facet normal 0 0.996919 -0.0784356
    outer loop
      vertex -99 -90.3 -245
      vertex -103.5 -90.2631 -244.531
      vertex -99 -90.2631 -244.531
    endloop
  endfacet
  facet normal 0 0.996919 -0.0784356
    outer loop
      vertex -103.5 -90.2631 -244.531
      vertex -99 -90.3 -245
      vertex -103.5 -90.3 -245
    endloop
  endfacet
  facet normal 0 -0.972397 -0.233333
    outer loop
      vertex -103.5 -84.3369 -244.531
      vertex -99 -84.4468 -244.073
      vertex -103.5 -84.4468 -244.073
    endloop
  endfacet
  facet normal 0 -0.972397 -0.233333
    outer loop
      vertex -99 -84.4468 -244.073
      vertex -103.5 -84.3369 -244.531
      vertex -99 -84.3369 -244.531
    endloop
  endfacet
  facet normal 0 0.522532 -0.85262
    outer loop
      vertex -103.5 -89.0634 -242.573
      vertex -99 -88.662 -242.327
      vertex -99 -89.0634 -242.573
    endloop
  endfacet
  facet normal 0 0.522532 -0.85262
    outer loop
      vertex -99 -88.662 -242.327
      vertex -103.5 -89.0634 -242.573
      vertex -103.5 -88.662 -242.327
    endloop
  endfacet
  facet normal 0 -0.382427 -0.923986
    outer loop
      vertex -103.5 -86.3729 -242.147
      vertex -99 -85.938 -242.327
      vertex -99 -86.3729 -242.147
    endloop
  endfacet
  facet normal -0 -0.382427 -0.923986
    outer loop
      vertex -99 -85.938 -242.327
      vertex -103.5 -86.3729 -242.147
      vertex -103.5 -85.938 -242.327
    endloop
  endfacet
  facet normal 0 -0.649846 -0.760066
    outer loop
      vertex -103.5 -85.5366 -242.573
      vertex -99 -85.1787 -242.879
      vertex -99 -85.5366 -242.573
    endloop
  endfacet
  facet normal -0 -0.649846 -0.760066
    outer loop
      vertex -99 -85.1787 -242.879
      vertex -103.5 -85.5366 -242.573
      vertex -103.5 -85.1787 -242.879
    endloop
  endfacet
  facet normal 0 -0.923867 0.382714
    outer loop
      vertex -103.5 -84.627 -246.362
      vertex -99 -84.4468 -245.927
      vertex -103.5 -84.4468 -245.927
    endloop
  endfacet
  facet normal 0 -0.923867 0.382714
    outer loop
      vertex -99 -84.4468 -245.927
      vertex -103.5 -84.627 -246.362
      vertex -99 -84.627 -246.362
    endloop
  endfacet
  facet normal -0 0.522532 0.85262
    outer loop
      vertex -103.5 -88.662 -247.673
      vertex -99 -89.0634 -247.427
      vertex -99 -88.662 -247.673
    endloop
  endfacet
  facet normal 0 0.522532 0.85262
    outer loop
      vertex -99 -89.0634 -247.427
      vertex -103.5 -88.662 -247.673
      vertex -103.5 -89.0634 -247.427
    endloop
  endfacet
  facet normal 0 0.852482 0.522756
    outer loop
      vertex -99 -89.7271 -246.763
      vertex -103.5 -89.973 -246.362
      vertex -99 -89.973 -246.362
    endloop
  endfacet
  facet normal 0 0.852482 0.522756
    outer loop
      vertex -103.5 -89.973 -246.362
      vertex -99 -89.7271 -246.763
      vertex -103.5 -89.7271 -246.763
    endloop
  endfacet
  facet normal 0 -0.852482 -0.522756
    outer loop
      vertex -103.5 -84.627 -243.638
      vertex -99 -84.8729 -243.237
      vertex -103.5 -84.8729 -243.237
    endloop
  endfacet
  facet normal 0 -0.852482 -0.522756
    outer loop
      vertex -99 -84.8729 -243.237
      vertex -103.5 -84.627 -243.638
      vertex -99 -84.627 -243.638
    endloop
  endfacet
  facet normal 0 0.760365 0.649496
    outer loop
      vertex -99 -89.4213 -247.121
      vertex -103.5 -89.7271 -246.763
      vertex -99 -89.7271 -246.763
    endloop
  endfacet
  facet normal 0 0.760365 0.649496
    outer loop
      vertex -103.5 -89.7271 -246.763
      vertex -99 -89.4213 -247.121
      vertex -103.5 -89.4213 -247.121
    endloop
  endfacet
  facet normal 0 0.923867 -0.382714
    outer loop
      vertex -99 -90.1532 -244.073
      vertex -103.5 -89.973 -243.638
      vertex -99 -89.973 -243.638
    endloop
  endfacet
  facet normal 0 0.923867 -0.382714
    outer loop
      vertex -103.5 -89.973 -243.638
      vertex -99 -90.1532 -244.073
      vertex -103.5 -90.1532 -244.073
    endloop
  endfacet
  facet normal 0 -0.23363 -0.972326
    outer loop
      vertex -103.5 -86.8307 -242.037
      vertex -99 -86.3729 -242.147
      vertex -99 -86.8307 -242.037
    endloop
  endfacet
  facet normal -0 -0.23363 -0.972326
    outer loop
      vertex -99 -86.3729 -242.147
      vertex -103.5 -86.8307 -242.037
      vertex -103.5 -86.3729 -242.147
    endloop
  endfacet
  facet normal 0 0.972397 -0.233333
    outer loop
      vertex -99 -90.2631 -244.531
      vertex -103.5 -90.1532 -244.073
      vertex -99 -90.1532 -244.073
    endloop
  endfacet
  facet normal 0 0.972397 -0.233333
    outer loop
      vertex -103.5 -90.1532 -244.073
      vertex -99 -90.2631 -244.531
      vertex -103.5 -90.2631 -244.531
    endloop
  endfacet
  facet normal 0 0.972397 0.233333
    outer loop
      vertex -99 -90.1532 -245.927
      vertex -103.5 -90.2631 -245.469
      vertex -99 -90.2631 -245.469
    endloop
  endfacet
  facet normal 0 0.972397 0.233333
    outer loop
      vertex -103.5 -90.2631 -245.469
      vertex -99 -90.1532 -245.927
      vertex -103.5 -90.1532 -245.927
    endloop
  endfacet
  facet normal 0 -0.522532 -0.85262
    outer loop
      vertex -103.5 -85.938 -242.327
      vertex -99 -85.5366 -242.573
      vertex -99 -85.938 -242.327
    endloop
  endfacet
  facet normal -0 -0.522532 -0.85262
    outer loop
      vertex -99 -85.5366 -242.573
      vertex -103.5 -85.938 -242.327
      vertex -103.5 -85.5366 -242.573
    endloop
  endfacet
  facet normal 0 -0.972397 0.233333
    outer loop
      vertex -103.5 -84.4468 -245.927
      vertex -99 -84.3369 -245.469
      vertex -103.5 -84.3369 -245.469
    endloop
  endfacet
  facet normal 0 -0.972397 0.233333
    outer loop
      vertex -99 -84.3369 -245.469
      vertex -103.5 -84.4468 -245.927
      vertex -99 -84.4468 -245.927
    endloop
  endfacet
  facet normal 0 0.23363 -0.972326
    outer loop
      vertex -103.5 -88.2271 -242.147
      vertex -99 -87.7693 -242.037
      vertex -99 -88.2271 -242.147
    endloop
  endfacet
  facet normal 0 0.23363 -0.972326
    outer loop
      vertex -99 -87.7693 -242.037
      vertex -103.5 -88.2271 -242.147
      vertex -103.5 -87.7693 -242.037
    endloop
  endfacet
  facet normal 0 -0.0785969 -0.996906
    outer loop
      vertex -103.5 -87.3 -242
      vertex -99 -86.8307 -242.037
      vertex -99 -87.3 -242
    endloop
  endfacet
  facet normal -0 -0.0785969 -0.996906
    outer loop
      vertex -99 -86.8307 -242.037
      vertex -103.5 -87.3 -242
      vertex -103.5 -86.8307 -242.037
    endloop
  endfacet
  facet normal 0 -0.996919 -0.0784356
    outer loop
      vertex -103.5 -84.3 -245
      vertex -99 -84.3369 -244.531
      vertex -103.5 -84.3369 -244.531
    endloop
  endfacet
  facet normal 0 -0.996919 -0.0784356
    outer loop
      vertex -99 -84.3369 -244.531
      vertex -103.5 -84.3 -245
      vertex -99 -84.3 -245
    endloop
  endfacet
  facet normal 0 0.0785969 -0.996906
    outer loop
      vertex -103.5 -87.7693 -242.037
      vertex -99 -87.3 -242
      vertex -99 -87.7693 -242.037
    endloop
  endfacet
  facet normal 0 0.0785969 -0.996906
    outer loop
      vertex -99 -87.3 -242
      vertex -103.5 -87.7693 -242.037
      vertex -103.5 -87.3 -242
    endloop
  endfacet
  facet normal 0 -0.760365 -0.649496
    outer loop
      vertex -103.5 -84.8729 -243.237
      vertex -99 -85.1787 -242.879
      vertex -103.5 -85.1787 -242.879
    endloop
  endfacet
  facet normal 0 -0.760365 -0.649496
    outer loop
      vertex -99 -85.1787 -242.879
      vertex -103.5 -84.8729 -243.237
      vertex -99 -84.8729 -243.237
    endloop
  endfacet
  facet normal 0 -0.760365 0.649496
    outer loop
      vertex -103.5 -85.1787 -247.121
      vertex -99 -84.8729 -246.763
      vertex -103.5 -84.8729 -246.763
    endloop
  endfacet
  facet normal 0 -0.760365 0.649496
    outer loop
      vertex -99 -84.8729 -246.763
      vertex -103.5 -85.1787 -247.121
      vertex -99 -85.1787 -247.121
    endloop
  endfacet
  facet normal 0 1 -0
    outer loop
      vertex -103.5 -94.3 -247.9
      vertex -104.5 -94.3 -242.1
      vertex -103.5 -94.3 -242.1
    endloop
  endfacet
  facet normal 0 1 0
    outer loop
      vertex -104.5 -94.3 -242.1
      vertex -103.5 -94.3 -247.9
      vertex -104.5 -94.3 -247.9
    endloop
  endfacet
  facet normal -0.890979 0.454044 0
    outer loop
      vertex -95.9247 -97.2992 -249.5
      vertex -95.6832 -96.8253 -244.5
      vertex -95.6832 -96.8253 -249.5
    endloop
  endfacet
  facet normal -0.890979 0.454044 0
    outer loop
      vertex -95.6832 -96.8253 -244.5
      vertex -95.9247 -97.2992 -249.5
      vertex -95.9247 -97.2992 -244.5
    endloop
  endfacet
  facet normal -0.987688 0.156436 0
    outer loop
      vertex -95.6832 -96.8253 -249.5
      vertex -95.6 -96.3 -244.5
      vertex -95.6 -96.3 -249.5
    endloop
  endfacet
  facet normal -0.987688 0.156436 0
    outer loop
      vertex -95.6 -96.3 -244.5
      vertex -95.6832 -96.8253 -249.5
      vertex -95.6832 -96.8253 -244.5
    endloop
  endfacet
  facet normal -0.707107 0.707107 0
    outer loop
      vertex -96.3008 -97.6753 -249.5
      vertex -95.9247 -97.2992 -244.5
      vertex -95.9247 -97.2992 -249.5
    endloop
  endfacet
  facet normal -0.707107 0.707107 0
    outer loop
      vertex -95.9247 -97.2992 -244.5
      vertex -96.3008 -97.6753 -249.5
      vertex -96.3008 -97.6753 -244.5
    endloop
  endfacet
  facet normal -0.156436 -0.987688 0
    outer loop
      vertex -97.3 -94.6 -249.5
      vertex -96.7747 -94.6832 -244.5
      vertex -97.3 -94.6 -244.5
    endloop
  endfacet
  facet normal -0.156436 -0.987688 -0
    outer loop
      vertex -96.7747 -94.6832 -244.5
      vertex -97.3 -94.6 -249.5
      vertex -96.7747 -94.6832 -249.5
    endloop
  endfacet
  facet normal 0.454044 0.890979 -0
    outer loop
      vertex -97.8253 -97.9168 -249.5
      vertex -98.2992 -97.6753 -244.5
      vertex -97.8253 -97.9168 -244.5
    endloop
  endfacet
  facet normal 0.454044 0.890979 0
    outer loop
      vertex -98.2992 -97.6753 -244.5
      vertex -97.8253 -97.9168 -249.5
      vertex -98.2992 -97.6753 -249.5
    endloop
  endfacet
  facet normal -0.454044 -0.890979 0
    outer loop
      vertex -96.7747 -94.6832 -249.5
      vertex -96.3008 -94.9247 -244.5
      vertex -96.7747 -94.6832 -244.5
    endloop
  endfacet
  facet normal -0.454044 -0.890979 -0
    outer loop
      vertex -96.3008 -94.9247 -244.5
      vertex -96.7747 -94.6832 -249.5
      vertex -96.3008 -94.9247 -249.5
    endloop
  endfacet
  facet normal -0.707107 -0.707107 0
    outer loop
      vertex -95.9247 -95.3008 -249.5
      vertex -96.3008 -94.9247 -244.5
      vertex -96.3008 -94.9247 -249.5
    endloop
  endfacet
  facet normal -0.707107 -0.707107 0
    outer loop
      vertex -96.3008 -94.9247 -244.5
      vertex -95.9247 -95.3008 -249.5
      vertex -95.9247 -95.3008 -244.5
    endloop
  endfacet
  facet normal 0.156436 -0.987688 0
    outer loop
      vertex -97.8253 -94.6832 -249.5
      vertex -97.3 -94.6 -244.5
      vertex -97.8253 -94.6832 -244.5
    endloop
  endfacet
  facet normal 0.156436 -0.987688 0
    outer loop
      vertex -97.3 -94.6 -244.5
      vertex -97.8253 -94.6832 -249.5
      vertex -97.3 -94.6 -249.5
    endloop
  endfacet
  facet normal 0.890979 0.454044 0
    outer loop
      vertex -98.6753 -97.2992 -244.5
      vertex -98.9168 -96.8253 -249.5
      vertex -98.9168 -96.8253 -244.5
    endloop
  endfacet
  facet normal 0.890979 0.454044 0
    outer loop
      vertex -98.9168 -96.8253 -249.5
      vertex -98.6753 -97.2992 -244.5
      vertex -98.6753 -97.2992 -249.5
    endloop
  endfacet
  facet normal -0.987688 -0.156436 0
    outer loop
      vertex -95.6 -96.3 -249.5
      vertex -95.6832 -95.7747 -244.5
      vertex -95.6832 -95.7747 -249.5
    endloop
  endfacet
  facet normal -0.987688 -0.156436 0
    outer loop
      vertex -95.6832 -95.7747 -244.5
      vertex -95.6 -96.3 -249.5
      vertex -95.6 -96.3 -244.5
    endloop
  endfacet
  facet normal 0.987688 0.156436 0
    outer loop
      vertex -98.9168 -96.8253 -244.5
      vertex -99 -96.3 -249.5
      vertex -99 -96.3 -244.5
    endloop
  endfacet
  facet normal 0.987688 0.156436 0
    outer loop
      vertex -99 -96.3 -249.5
      vertex -98.9168 -96.8253 -244.5
      vertex -98.9168 -96.8253 -249.5
    endloop
  endfacet
  facet normal -0.890979 -0.454044 0
    outer loop
      vertex -95.6832 -95.7747 -249.5
      vertex -95.9247 -95.3008 -244.5
      vertex -95.9247 -95.3008 -249.5
    endloop
  endfacet
  facet normal -0.890979 -0.454044 0
    outer loop
      vertex -95.9247 -95.3008 -244.5
      vertex -95.6832 -95.7747 -249.5
      vertex -95.6832 -95.7747 -244.5
    endloop
  endfacet
  facet normal -0.156436 0.987688 0
    outer loop
      vertex -96.7747 -97.9168 -249.5
      vertex -97.3 -98 -244.5
      vertex -96.7747 -97.9168 -244.5
    endloop
  endfacet
  facet normal -0.156436 0.987688 0
    outer loop
      vertex -97.3 -98 -244.5
      vertex -96.7747 -97.9168 -249.5
      vertex -97.3 -98 -249.5
    endloop
  endfacet
  facet normal -0.454044 0.890979 0
    outer loop
      vertex -96.3008 -97.6753 -249.5
      vertex -96.7747 -97.9168 -244.5
      vertex -96.3008 -97.6753 -244.5
    endloop
  endfacet
  facet normal -0.454044 0.890979 0
    outer loop
      vertex -96.7747 -97.9168 -244.5
      vertex -96.3008 -97.6753 -249.5
      vertex -96.7747 -97.9168 -249.5
    endloop
  endfacet
  facet normal 0.890979 -0.454044 0
    outer loop
      vertex -98.9168 -95.7747 -244.5
      vertex -98.6753 -95.3008 -249.5
      vertex -98.6753 -95.3008 -244.5
    endloop
  endfacet
  facet normal 0.890979 -0.454044 0
    outer loop
      vertex -98.6753 -95.3008 -249.5
      vertex -98.9168 -95.7747 -244.5
      vertex -98.9168 -95.7747 -249.5
    endloop
  endfacet
  facet normal 0.156436 0.987688 -0
    outer loop
      vertex -97.3 -98 -249.5
      vertex -97.8253 -97.9168 -244.5
      vertex -97.3 -98 -244.5
    endloop
  endfacet
  facet normal 0.156436 0.987688 0
    outer loop
      vertex -97.8253 -97.9168 -244.5
      vertex -97.3 -98 -249.5
      vertex -97.8253 -97.9168 -249.5
    endloop
  endfacet
  facet normal 0.707107 -0.707107 0
    outer loop
      vertex -98.6753 -95.3008 -249.5
      vertex -98.2992 -94.9247 -244.5
      vertex -98.6753 -95.3008 -244.5
    endloop
  endfacet
  facet normal 0.707107 -0.707107 0
    outer loop
      vertex -98.2992 -94.9247 -244.5
      vertex -98.6753 -95.3008 -249.5
      vertex -98.2992 -94.9247 -249.5
    endloop
  endfacet
  facet normal 0.707107 0.707107 0
    outer loop
      vertex -98.2992 -97.6753 -244.5
      vertex -98.6753 -97.2992 -249.5
      vertex -98.6753 -97.2992 -244.5
    endloop
  endfacet
  facet normal 0.707107 0.707107 0
    outer loop
      vertex -98.6753 -97.2992 -249.5
      vertex -98.2992 -97.6753 -244.5
      vertex -98.2992 -97.6753 -249.5
    endloop
  endfacet
  facet normal 0.987688 -0.156436 0
    outer loop
      vertex -99 -96.3 -244.5
      vertex -98.9168 -95.7747 -249.5
      vertex -98.9168 -95.7747 -244.5
    endloop
  endfacet
  facet normal 0.987688 -0.156436 0
    outer loop
      vertex -98.9168 -95.7747 -249.5
      vertex -99 -96.3 -244.5
      vertex -99 -96.3 -249.5
    endloop
  endfacet
  facet normal 0.454044 -0.890979 0
    outer loop
      vertex -98.2992 -94.9247 -249.5
      vertex -97.8253 -94.6832 -244.5
      vertex -98.2992 -94.9247 -244.5
    endloop
  endfacet
  facet normal 0.454044 -0.890979 0
    outer loop
      vertex -97.8253 -94.6832 -244.5
      vertex -98.2992 -94.9247 -249.5
      vertex -97.8253 -94.6832 -249.5
    endloop
  endfacet
  facet normal 0.86583 0.500339 0
    outer loop
      vertex -99.7271 -98.0634 -235
      vertex -100.041 -97.5202 -244.5
      vertex -100.041 -97.5202 -235
    endloop
  endfacet
  facet normal 0.86583 0.500339 0
    outer loop
      vertex -100.041 -97.5202 -244.5
      vertex -99.7271 -98.0634 -235
      vertex -99.7271 -98.0634 -244.5
    endloop
  endfacet
  facet normal -0.743056 0.669229 0
    outer loop
      vertex -95.2926 -98.5294 -244.5
      vertex -94.8729 -98.0634 -235
      vertex -94.8729 -98.0634 -244.5
    endloop
  endfacet
  facet normal -0.743056 0.669229 0
    outer loop
      vertex -94.8729 -98.0634 -235
      vertex -95.2926 -98.5294 -244.5
      vertex -95.2926 -98.5294 -235
    endloop
  endfacet
  facet normal -0.406775 -0.913529 0
    outer loop
      vertex -96.3729 -93.4468 -244.5
      vertex -95.8 -93.7019 -235
      vertex -96.3729 -93.4468 -235
    endloop
  endfacet
  facet normal -0.406775 -0.913529 -0
    outer loop
      vertex -95.8 -93.7019 -235
      vertex -96.3729 -93.4468 -244.5
      vertex -95.8 -93.7019 -244.5
    endloop
  endfacet
  facet normal 0 1 -0
    outer loop
      vertex -96.9864 -99.2836 -244.5
      vertex -97.6136 -99.2836 -235
      vertex -96.9864 -99.2836 -235
    endloop
  endfacet
  facet normal 0 1 0
    outer loop
      vertex -97.6136 -99.2836 -235
      vertex -96.9864 -99.2836 -244.5
      vertex -97.6136 -99.2836 -244.5
    endloop
  endfacet
  facet normal 0.58784 0.808977 -0
    outer loop
      vertex -98.8 -98.8981 -244.5
      vertex -99.3074 -98.5294 -235
      vertex -98.8 -98.8981 -235
    endloop
  endfacet
  facet normal 0.58784 0.808977 0
    outer loop
      vertex -99.3074 -98.5294 -235
      vertex -98.8 -98.8981 -244.5
      vertex -99.3074 -98.5294 -244.5
    endloop
  endfacet
  facet normal 0.743056 0.669229 0
    outer loop
      vertex -99.3074 -98.5294 -235
      vertex -99.7271 -98.0634 -244.5
      vertex -99.7271 -98.0634 -235
    endloop
  endfacet
  facet normal 0.743056 0.669229 0
    outer loop
      vertex -99.7271 -98.0634 -244.5
      vertex -99.3074 -98.5294 -235
      vertex -99.3074 -98.5294 -244.5
    endloop
  endfacet
  facet normal 0.951438 0.307842 0
    outer loop
      vertex -100.041 -97.5202 -235
      vertex -100.234 -96.9237 -244.5
      vertex -100.234 -96.9237 -235
    endloop
  endfacet
  facet normal 0.951438 0.307842 0
    outer loop
      vertex -100.234 -96.9237 -244.5
      vertex -100.041 -97.5202 -235
      vertex -100.041 -97.5202 -244.5
    endloop
  endfacet
  facet normal 0.86583 -0.500339 0
    outer loop
      vertex -100.041 -95.0798 -235
      vertex -99.7271 -94.5366 -244.5
      vertex -99.7271 -94.5366 -235
    endloop
  endfacet
  facet normal 0.86583 -0.500339 0
    outer loop
      vertex -99.7271 -94.5366 -244.5
      vertex -100.041 -95.0798 -235
      vertex -100.041 -95.0798 -244.5
    endloop
  endfacet
  facet normal -0.207906 -0.978149 0
    outer loop
      vertex -96.9864 -93.3164 -244.5
      vertex -96.3729 -93.4468 -235
      vertex -96.9864 -93.3164 -235
    endloop
  endfacet
  facet normal -0.207906 -0.978149 -0
    outer loop
      vertex -96.3729 -93.4468 -235
      vertex -96.9864 -93.3164 -244.5
      vertex -96.3729 -93.4468 -244.5
    endloop
  endfacet
  facet normal -0.951063 -0.308996 0
    outer loop
      vertex -94.3656 -95.6763 -244.5
      vertex -94.5594 -95.0798 -235
      vertex -94.5594 -95.0798 -244.5
    endloop
  endfacet
  facet normal -0.951063 -0.308996 0
    outer loop
      vertex -94.5594 -95.0798 -235
      vertex -94.3656 -95.6763 -244.5
      vertex -94.3656 -95.6763 -235
    endloop
  endfacet
  facet normal 0.951438 -0.307842 0
    outer loop
      vertex -100.234 -95.6763 -235
      vertex -100.041 -95.0798 -244.5
      vertex -100.041 -95.0798 -235
    endloop
  endfacet
  facet normal 0.951438 -0.307842 0
    outer loop
      vertex -100.041 -95.0798 -244.5
      vertex -100.234 -95.6763 -235
      vertex -100.234 -95.6763 -244.5
    endloop
  endfacet
  facet normal 0 -1 0
    outer loop
      vertex -97.6136 -93.3164 -244.5
      vertex -96.9864 -93.3164 -235
      vertex -97.6136 -93.3164 -235
    endloop
  endfacet
  facet normal 0 -1 -0
    outer loop
      vertex -96.9864 -93.3164 -235
      vertex -97.6136 -93.3164 -244.5
      vertex -96.9864 -93.3164 -244.5
    endloop
  endfacet
  facet normal 0.406775 0.913529 -0
    outer loop
      vertex -98.2271 -99.1532 -244.5
      vertex -98.8 -98.8981 -235
      vertex -98.2271 -99.1532 -235
    endloop
  endfacet
  facet normal 0.406775 0.913529 0
    outer loop
      vertex -98.8 -98.8981 -235
      vertex -98.2271 -99.1532 -244.5
      vertex -98.8 -98.8981 -244.5
    endloop
  endfacet
  facet normal -0.406775 0.913529 0
    outer loop
      vertex -95.8 -98.8981 -244.5
      vertex -96.3729 -99.1532 -235
      vertex -95.8 -98.8981 -235
    endloop
  endfacet
  facet normal -0.406775 0.913529 0
    outer loop
      vertex -96.3729 -99.1532 -235
      vertex -95.8 -98.8981 -244.5
      vertex -96.3729 -99.1532 -244.5
    endloop
  endfacet
  facet normal 0.743056 -0.669229 0
    outer loop
      vertex -99.7271 -94.5366 -235
      vertex -99.3074 -94.0706 -244.5
      vertex -99.3074 -94.0706 -235
    endloop
  endfacet
  facet normal 0.743056 -0.669229 0
    outer loop
      vertex -99.3074 -94.0706 -244.5
      vertex -99.7271 -94.5366 -235
      vertex -99.7271 -94.5366 -244.5
    endloop
  endfacet
  facet normal 0.994448 0.105233 0
    outer loop
      vertex -100.234 -96.9237 -235
      vertex -100.3 -96.3 -244.5
      vertex -100.3 -96.3 -235
    endloop
  endfacet
  facet normal 0.994448 0.105233 0
    outer loop
      vertex -100.3 -96.3 -244.5
      vertex -100.234 -96.9237 -235
      vertex -100.234 -96.9237 -244.5
    endloop
  endfacet
  facet normal 0.406775 -0.913529 0
    outer loop
      vertex -98.8 -93.7019 -244.5
      vertex -98.2271 -93.4468 -235
      vertex -98.8 -93.7019 -235
    endloop
  endfacet
  facet normal 0.406775 -0.913529 0
    outer loop
      vertex -98.2271 -93.4468 -235
      vertex -98.8 -93.7019 -244.5
      vertex -98.2271 -93.4468 -244.5
    endloop
  endfacet
  facet normal -0.866106 0.49986 0
    outer loop
      vertex -94.8729 -98.0634 -244.5
      vertex -94.5594 -97.5202 -235
      vertex -94.5594 -97.5202 -244.5
    endloop
  endfacet
  facet normal -0.866106 0.49986 0
    outer loop
      vertex -94.5594 -97.5202 -235
      vertex -94.8729 -98.0634 -244.5
      vertex -94.8729 -98.0634 -235
    endloop
  endfacet
  facet normal -0.994514 0.104602 0
    outer loop
      vertex -94.3656 -96.9237 -244.5
      vertex -94.3 -96.3 -235
      vertex -94.3 -96.3 -244.5
    endloop
  endfacet
  facet normal -0.994514 0.104602 0
    outer loop
      vertex -94.3 -96.3 -235
      vertex -94.3656 -96.9237 -244.5
      vertex -94.3656 -96.9237 -235
    endloop
  endfacet
  facet normal 0.994448 -0.105233 0
    outer loop
      vertex -100.3 -96.3 -235
      vertex -100.234 -95.6763 -244.5
      vertex -100.234 -95.6763 -235
    endloop
  endfacet
  facet normal 0.994448 -0.105233 0
    outer loop
      vertex -100.234 -95.6763 -244.5
      vertex -100.3 -96.3 -235
      vertex -100.3 -96.3 -244.5
    endloop
  endfacet
  facet normal 0.58784 -0.808977 0
    outer loop
      vertex -99.3074 -94.0706 -244.5
      vertex -98.8 -93.7019 -235
      vertex -99.3074 -94.0706 -235
    endloop
  endfacet
  facet normal 0.58784 -0.808977 0
    outer loop
      vertex -98.8 -93.7019 -235
      vertex -99.3074 -94.0706 -244.5
      vertex -98.8 -93.7019 -244.5
    endloop
  endfacet
  facet normal -0.866106 -0.49986 0
    outer loop
      vertex -94.5594 -95.0798 -244.5
      vertex -94.8729 -94.5366 -235
      vertex -94.8729 -94.5366 -244.5
    endloop
  endfacet
  facet normal -0.866106 -0.49986 0
    outer loop
      vertex -94.8729 -94.5366 -235
      vertex -94.5594 -95.0798 -244.5
      vertex -94.5594 -95.0798 -235
    endloop
  endfacet
  facet normal -0.58784 0.808977 0
    outer loop
      vertex -95.2926 -98.5294 -244.5
      vertex -95.8 -98.8981 -235
      vertex -95.2926 -98.5294 -235
    endloop
  endfacet
  facet normal -0.58784 0.808977 0
    outer loop
      vertex -95.8 -98.8981 -235
      vertex -95.2926 -98.5294 -244.5
      vertex -95.8 -98.8981 -244.5
    endloop
  endfacet
  facet normal -0.994514 -0.104602 0
    outer loop
      vertex -94.3 -96.3 -244.5
      vertex -94.3656 -95.6763 -235
      vertex -94.3656 -95.6763 -244.5
    endloop
  endfacet
  facet normal -0.994514 -0.104602 0
    outer loop
      vertex -94.3656 -95.6763 -235
      vertex -94.3 -96.3 -244.5
      vertex -94.3 -96.3 -235
    endloop
  endfacet
  facet normal 0.207906 0.978149 -0
    outer loop
      vertex -97.6136 -99.2836 -244.5
      vertex -98.2271 -99.1532 -235
      vertex -97.6136 -99.2836 -235
    endloop
  endfacet
  facet normal 0.207906 0.978149 0
    outer loop
      vertex -98.2271 -99.1532 -235
      vertex -97.6136 -99.2836 -244.5
      vertex -98.2271 -99.1532 -244.5
    endloop
  endfacet
  facet normal -0.951063 0.308996 0
    outer loop
      vertex -94.5594 -97.5202 -244.5
      vertex -94.3656 -96.9237 -235
      vertex -94.3656 -96.9237 -244.5
    endloop
  endfacet
  facet normal -0.951063 0.308996 0
    outer loop
      vertex -94.3656 -96.9237 -235
      vertex -94.5594 -97.5202 -244.5
      vertex -94.5594 -97.5202 -235
    endloop
  endfacet
  facet normal 0.207906 -0.978149 0
    outer loop
      vertex -98.2271 -93.4468 -244.5
      vertex -97.6136 -93.3164 -235
      vertex -98.2271 -93.4468 -235
    endloop
  endfacet
  facet normal 0.207906 -0.978149 0
    outer loop
      vertex -97.6136 -93.3164 -235
      vertex -98.2271 -93.4468 -244.5
      vertex -97.6136 -93.3164 -244.5
    endloop
  endfacet
  facet normal -0.207906 0.978149 0
    outer loop
      vertex -96.3729 -99.1532 -244.5
      vertex -96.9864 -99.2836 -235
      vertex -96.3729 -99.1532 -235
    endloop
  endfacet
  facet normal -0.207906 0.978149 0
    outer loop
      vertex -96.9864 -99.2836 -235
      vertex -96.3729 -99.1532 -244.5
      vertex -96.9864 -99.2836 -244.5
    endloop
  endfacet
  facet normal 0 0 1
    outer loop
      vertex -95.6 -96.3 -244.5
      vertex -94.3 -96.3 -244.5
      vertex -94.3656 -95.6763 -244.5
    endloop
  endfacet
  facet normal 0 0 1
    outer loop
      vertex -95.6832 -95.7747 -244.5
      vertex -94.3656 -95.6763 -244.5
      vertex -94.5594 -95.0798 -244.5
    endloop
  endfacet
  facet normal 0 0 1
    outer loop
      vertex -94.3 -96.3 -244.5
      vertex -95.6 -96.3 -244.5
      vertex -94.3656 -96.9237 -244.5
    endloop
  endfacet
  facet normal 0 0 1
    outer loop
      vertex -95.9247 -95.3008 -244.5
      vertex -94.5594 -95.0798 -244.5
      vertex -94.8729 -94.5366 -244.5
    endloop
  endfacet
  facet normal -0 0 1
    outer loop
      vertex -95.6832 -96.8253 -244.5
      vertex -94.3656 -96.9237 -244.5
      vertex -95.6 -96.3 -244.5
    endloop
  endfacet
  facet normal 0 0 1
    outer loop
      vertex -95.9247 -95.3008 -244.5
      vertex -94.8729 -94.5366 -244.5
      vertex -95.2926 -94.0706 -244.5
    endloop
  endfacet
  facet normal 0 0 1
    outer loop
      vertex -94.3656 -96.9237 -244.5
      vertex -95.6832 -96.8253 -244.5
      vertex -94.5594 -97.5202 -244.5
    endloop
  endfacet
  facet normal -0 0 1
    outer loop
      vertex -95.9247 -97.2992 -244.5
      vertex -94.5594 -97.5202 -244.5
      vertex -95.6832 -96.8253 -244.5
    endloop
  endfacet
  facet normal 0 0 1
    outer loop
      vertex -94.3656 -95.6763 -244.5
      vertex -95.6832 -95.7747 -244.5
      vertex -95.6 -96.3 -244.5
    endloop
  endfacet
  facet normal 0 0 1
    outer loop
      vertex -96.3008 -94.9247 -244.5
      vertex -95.2926 -94.0706 -244.5
      vertex -95.8 -93.7019 -244.5
    endloop
  endfacet
  facet normal 0 0 1
    outer loop
      vertex -94.5594 -95.0798 -244.5
      vertex -95.9247 -95.3008 -244.5
      vertex -95.6832 -95.7747 -244.5
    endloop
  endfacet
  facet normal 0 0 1
    outer loop
      vertex -95.2926 -94.0706 -244.5
      vertex -96.3008 -94.9247 -244.5
      vertex -95.9247 -95.3008 -244.5
    endloop
  endfacet
  facet normal 0 0 1
    outer loop
      vertex -96.7747 -94.6832 -244.5
      vertex -95.8 -93.7019 -244.5
      vertex -96.3729 -93.4468 -244.5
    endloop
  endfacet
  facet normal 0 0 1
    outer loop
      vertex -95.8 -93.7019 -244.5
      vertex -96.7747 -94.6832 -244.5
      vertex -96.3008 -94.9247 -244.5
    endloop
  endfacet
  facet normal 0 0 1
    outer loop
      vertex -96.9864 -93.3164 -244.5
      vertex -96.7747 -94.6832 -244.5
      vertex -96.3729 -93.4468 -244.5
    endloop
  endfacet
  facet normal 0 0 1
    outer loop
      vertex -96.9864 -93.3164 -244.5
      vertex -97.3 -94.6 -244.5
      vertex -96.7747 -94.6832 -244.5
    endloop
  endfacet
  facet normal -0 0 1
    outer loop
      vertex -97.6136 -93.3164 -244.5
      vertex -97.3 -94.6 -244.5
      vertex -96.9864 -93.3164 -244.5
    endloop
  endfacet
  facet normal 0 0 1
    outer loop
      vertex -97.6136 -93.3164 -244.5
      vertex -97.8253 -94.6832 -244.5
      vertex -97.3 -94.6 -244.5
    endloop
  endfacet
  facet normal -0 0 1
    outer loop
      vertex -98.2271 -93.4468 -244.5
      vertex -97.8253 -94.6832 -244.5
      vertex -97.6136 -93.3164 -244.5
    endloop
  endfacet
  facet normal -0 0 1
    outer loop
      vertex -98.8 -93.7019 -244.5
      vertex -97.8253 -94.6832 -244.5
      vertex -98.2271 -93.4468 -244.5
    endloop
  endfacet
  facet normal 0 0 1
    outer loop
      vertex -97.8253 -94.6832 -244.5
      vertex -98.8 -93.7019 -244.5
      vertex -98.2992 -94.9247 -244.5
    endloop
  endfacet
  facet normal -0 0 1
    outer loop
      vertex -99.3074 -94.0706 -244.5
      vertex -98.2992 -94.9247 -244.5
      vertex -98.8 -93.7019 -244.5
    endloop
  endfacet
  facet normal 0 0 1
    outer loop
      vertex -98.2992 -94.9247 -244.5
      vertex -99.3074 -94.0706 -244.5
      vertex -98.6753 -95.3008 -244.5
    endloop
  endfacet
  facet normal -0 0 1
    outer loop
      vertex -99.7271 -94.5366 -244.5
      vertex -98.6753 -95.3008 -244.5
      vertex -99.3074 -94.0706 -244.5
    endloop
  endfacet
  facet normal -0 0 1
    outer loop
      vertex -100.041 -95.0798 -244.5
      vertex -98.6753 -95.3008 -244.5
      vertex -99.7271 -94.5366 -244.5
    endloop
  endfacet
  facet normal 0 0 1
    outer loop
      vertex -94.5594 -97.5202 -244.5
      vertex -95.9247 -97.2992 -244.5
      vertex -94.8729 -98.0634 -244.5
    endloop
  endfacet
  facet normal 0 0 1
    outer loop
      vertex -94.8729 -98.0634 -244.5
      vertex -95.9247 -97.2992 -244.5
      vertex -95.2926 -98.5294 -244.5
    endloop
  endfacet
  facet normal -0 0 1
    outer loop
      vertex -96.3008 -97.6753 -244.5
      vertex -95.2926 -98.5294 -244.5
      vertex -95.9247 -97.2992 -244.5
    endloop
  endfacet
  facet normal 0 0 1
    outer loop
      vertex -95.2926 -98.5294 -244.5
      vertex -96.3008 -97.6753 -244.5
      vertex -95.8 -98.8981 -244.5
    endloop
  endfacet
  facet normal -0 0 1
    outer loop
      vertex -96.7747 -97.9168 -244.5
      vertex -95.8 -98.8981 -244.5
      vertex -96.3008 -97.6753 -244.5
    endloop
  endfacet
  facet normal 0 0 1
    outer loop
      vertex -95.8 -98.8981 -244.5
      vertex -96.7747 -97.9168 -244.5
      vertex -96.3729 -99.1532 -244.5
    endloop
  endfacet
  facet normal 0 0 1
    outer loop
      vertex -96.7747 -97.9168 -244.5
      vertex -96.9864 -99.2836 -244.5
      vertex -96.3729 -99.1532 -244.5
    endloop
  endfacet
  facet normal -0 0 1
    outer loop
      vertex -97.3 -98 -244.5
      vertex -96.9864 -99.2836 -244.5
      vertex -96.7747 -97.9168 -244.5
    endloop
  endfacet
  facet normal 0 0 1
    outer loop
      vertex -97.3 -98 -244.5
      vertex -97.6136 -99.2836 -244.5
      vertex -96.9864 -99.2836 -244.5
    endloop
  endfacet
  facet normal 0 0 1
    outer loop
      vertex -97.8253 -97.9168 -244.5
      vertex -97.6136 -99.2836 -244.5
      vertex -97.3 -98 -244.5
    endloop
  endfacet
  facet normal 0 0 1
    outer loop
      vertex -97.8253 -97.9168 -244.5
      vertex -98.2271 -99.1532 -244.5
      vertex -97.6136 -99.2836 -244.5
    endloop
  endfacet
  facet normal 0 0 1
    outer loop
      vertex -98.8 -98.8981 -244.5
      vertex -97.8253 -97.9168 -244.5
      vertex -98.2992 -97.6753 -244.5
    endloop
  endfacet
  facet normal 0 0 1
    outer loop
      vertex -99.3074 -98.5294 -244.5
      vertex -98.2992 -97.6753 -244.5
      vertex -98.6753 -97.2992 -244.5
    endloop
  endfacet
  facet normal 0 0 1
    outer loop
      vertex -97.8253 -97.9168 -244.5
      vertex -98.8 -98.8981 -244.5
      vertex -98.2271 -99.1532 -244.5
    endloop
  endfacet
  facet normal 0 0 1
    outer loop
      vertex -100.041 -97.5202 -244.5
      vertex -98.6753 -97.2992 -244.5
      vertex -98.9168 -96.8253 -244.5
    endloop
  endfacet
  facet normal 0 0 1
    outer loop
      vertex -100.234 -96.9237 -244.5
      vertex -98.9168 -96.8253 -244.5
      vertex -99 -96.3 -244.5
    endloop
  endfacet
  facet normal 0 0 1
    outer loop
      vertex -98.6753 -95.3008 -244.5
      vertex -100.041 -95.0798 -244.5
      vertex -98.9168 -95.7747 -244.5
    endloop
  endfacet
  facet normal 0 0 1
    outer loop
      vertex -98.2992 -97.6753 -244.5
      vertex -99.3074 -98.5294 -244.5
      vertex -98.8 -98.8981 -244.5
    endloop
  endfacet
  facet normal -0 0 1
    outer loop
      vertex -100.234 -95.6763 -244.5
      vertex -98.9168 -95.7747 -244.5
      vertex -100.041 -95.0798 -244.5
    endloop
  endfacet
  facet normal 0 0 1
    outer loop
      vertex -98.6753 -97.2992 -244.5
      vertex -99.7271 -98.0634 -244.5
      vertex -99.3074 -98.5294 -244.5
    endloop
  endfacet
  facet normal 0 0 1
    outer loop
      vertex -98.9168 -95.7747 -244.5
      vertex -100.234 -95.6763 -244.5
      vertex -99 -96.3 -244.5
    endloop
  endfacet
  facet normal 0 0 1
    outer loop
      vertex -98.6753 -97.2992 -244.5
      vertex -100.041 -97.5202 -244.5
      vertex -99.7271 -98.0634 -244.5
    endloop
  endfacet
  facet normal 0 0 1
    outer loop
      vertex -100.3 -96.3 -244.5
      vertex -99 -96.3 -244.5
      vertex -100.234 -95.6763 -244.5
    endloop
  endfacet
  facet normal 0 0 1
    outer loop
      vertex -98.9168 -96.8253 -244.5
      vertex -100.234 -96.9237 -244.5
      vertex -100.041 -97.5202 -244.5
    endloop
  endfacet
  facet normal 0 0 1
    outer loop
      vertex -99 -96.3 -244.5
      vertex -100.3 -96.3 -244.5
      vertex -100.234 -96.9237 -244.5
    endloop
  endfacet
  facet normal -0.743056 -0.669229 0
    outer loop
      vertex -94.8729 -94.5366 -244.5
      vertex -95.2926 -94.0706 -235
      vertex -95.2926 -94.0706 -244.5
    endloop
  endfacet
  facet normal -0.743056 -0.669229 0
    outer loop
      vertex -95.2926 -94.0706 -235
      vertex -94.8729 -94.5366 -244.5
      vertex -94.8729 -94.5366 -235
    endloop
  endfacet
  facet normal -0.58784 -0.808977 0
    outer loop
      vertex -95.8 -93.7019 -244.5
      vertex -95.2926 -94.0706 -235
      vertex -95.8 -93.7019 -235
    endloop
  endfacet
  facet normal -0.58784 -0.808977 -0
    outer loop
      vertex -95.2926 -94.0706 -235
      vertex -95.8 -93.7019 -244.5
      vertex -95.2926 -94.0706 -244.5
    endloop
  endfacet
endsolid OpenSCAD_Model
