solid OpenSCAD_Model
  facet normal 0.98769 0.156425 0
    outer loop
      vertex 2.23767 0.235188 5
      vertex 2.20083 0.467801 0
      vertex 2.20083 0.467801 5
    endloop
  endfacet
  facet normal 0.98769 0.156425 0
    outer loop
      vertex 2.20083 0.467801 0
      vertex 2.23767 0.235188 5
      vertex 2.23767 0.235188 0
    endloop
  endfacet
  facet normal 0.998629 0.0523542 0
    outer loop
      vertex 2.25 0 5
      vertex 2.23767 0.235188 0
      vertex 2.23767 0.235188 5
    endloop
  endfacet
  facet normal 0.998629 0.0523542 0
    outer loop
      vertex 2.23767 0.235188 0
      vertex 2.25 0 5
      vertex 2.25 0 0
    endloop
  endfacet
  facet normal 0.358369 -0.93358 0
    outer loop
      vertex 0.695288 -2.13988 0
      vertex 0.915157 -2.05548 5
      vertex 0.695288 -2.13988 5
    endloop
  endfacet
  facet normal 0.358369 -0.93358 0
    outer loop
      vertex 0.915157 -2.05548 5
      vertex 0.695288 -2.13988 0
      vertex 0.915157 -2.05548 0
    endloop
  endfacet
  facet normal 0.629329 -0.777139 0
    outer loop
      vertex 1.32252 -1.82029 0
      vertex 1.50554 -1.67208 5
      vertex 1.32252 -1.82029 5
    endloop
  endfacet
  facet normal 0.629329 -0.777139 0
    outer loop
      vertex 1.50554 -1.67208 5
      vertex 1.32252 -1.82029 0
      vertex 1.50554 -1.67208 0
    endloop
  endfacet
  facet normal 0.98769 -0.156425 0
    outer loop
      vertex 2.20083 -0.467801 5
      vertex 2.23767 -0.235188 0
      vertex 2.23767 -0.235188 5
    endloop
  endfacet
  facet normal 0.98769 -0.156425 0
    outer loop
      vertex 2.23767 -0.235188 0
      vertex 2.20083 -0.467801 5
      vertex 2.20083 -0.467801 0
    endloop
  endfacet
  facet normal -0.358369 0.93358 0
    outer loop
      vertex -0.695288 2.13988 0
      vertex -0.915157 2.05548 5
      vertex -0.695288 2.13988 5
    endloop
  endfacet
  facet normal -0.358369 0.93358 0
    outer loop
      vertex -0.915157 2.05548 5
      vertex -0.695288 2.13988 0
      vertex -0.915157 2.05548 0
    endloop
  endfacet
  facet normal 0.156425 0.98769 -0
    outer loop
      vertex 0.467801 2.20083 0
      vertex 0.235188 2.23767 5
      vertex 0.467801 2.20083 5
    endloop
  endfacet
  facet normal 0.156425 0.98769 0
    outer loop
      vertex 0.235188 2.23767 5
      vertex 0.467801 2.20083 0
      vertex 0.235188 2.23767 0
    endloop
  endfacet
  facet normal 0.258799 -0.965931 0
    outer loop
      vertex 0.467801 -2.20083 0
      vertex 0.695288 -2.13988 5
      vertex 0.467801 -2.20083 5
    endloop
  endfacet
  facet normal 0.258799 -0.965931 0
    outer loop
      vertex 0.695288 -2.13988 5
      vertex 0.467801 -2.20083 0
      vertex 0.695288 -2.13988 0
    endloop
  endfacet
  facet normal 0.998629 -0.0523542 0
    outer loop
      vertex 2.23767 -0.235188 5
      vertex 2.25 0 0
      vertex 2.25 0 5
    endloop
  endfacet
  facet normal 0.998629 -0.0523542 0
    outer loop
      vertex 2.25 0 0
      vertex 2.23767 -0.235188 5
      vertex 2.23767 -0.235188 0
    endloop
  endfacet
  facet normal -0.98769 -0.156425 0
    outer loop
      vertex -2.20083 -0.467801 0
      vertex -2.23767 -0.235188 5
      vertex -2.23767 -0.235188 0
    endloop
  endfacet
  facet normal -0.98769 -0.156425 0
    outer loop
      vertex -2.23767 -0.235188 5
      vertex -2.20083 -0.467801 0
      vertex -2.20083 -0.467801 5
    endloop
  endfacet
  facet normal -0.156425 -0.98769 0
    outer loop
      vertex -0.467801 -2.20083 0
      vertex -0.235188 -2.23767 5
      vertex -0.467801 -2.20083 5
    endloop
  endfacet
  facet normal -0.156425 -0.98769 -0
    outer loop
      vertex -0.235188 -2.23767 5
      vertex -0.467801 -2.20083 0
      vertex -0.235188 -2.23767 0
    endloop
  endfacet
  facet normal 0.258799 0.965931 -0
    outer loop
      vertex 0.695288 2.13988 0
      vertex 0.467801 2.20083 5
      vertex 0.695288 2.13988 5
    endloop
  endfacet
  facet normal 0.258799 0.965931 0
    outer loop
      vertex 0.467801 2.20083 5
      vertex 0.695288 2.13988 0
      vertex 0.467801 2.20083 0
    endloop
  endfacet
  facet normal -0.544636 0.838672 0
    outer loop
      vertex -1.125 1.94856 0
      vertex -1.32252 1.82029 5
      vertex -1.125 1.94856 5
    endloop
  endfacet
  facet normal -0.544636 0.838672 0
    outer loop
      vertex -1.32252 1.82029 5
      vertex -1.125 1.94856 0
      vertex -1.32252 1.82029 0
    endloop
  endfacet
  facet normal -0.453989 0.891007 0
    outer loop
      vertex -0.915157 2.05548 0
      vertex -1.125 1.94856 5
      vertex -0.915157 2.05548 5
    endloop
  endfacet
  facet normal -0.453989 0.891007 0
    outer loop
      vertex -1.125 1.94856 5
      vertex -0.915157 2.05548 0
      vertex -1.125 1.94856 0
    endloop
  endfacet
  facet normal -0.93358 -0.358369 0
    outer loop
      vertex -2.05548 -0.915157 0
      vertex -2.13988 -0.695288 5
      vertex -2.13988 -0.695288 0
    endloop
  endfacet
  facet normal -0.93358 -0.358369 0
    outer loop
      vertex -2.13988 -0.695288 5
      vertex -2.05548 -0.915157 0
      vertex -2.05548 -0.915157 5
    endloop
  endfacet
  facet normal 0.544636 -0.838672 0
    outer loop
      vertex 1.125 -1.94856 0
      vertex 1.32252 -1.82029 5
      vertex 1.125 -1.94856 5
    endloop
  endfacet
  facet normal 0.544636 -0.838672 0
    outer loop
      vertex 1.32252 -1.82029 5
      vertex 1.125 -1.94856 0
      vertex 1.32252 -1.82029 0
    endloop
  endfacet
  facet normal 0.965931 -0.258799 0
    outer loop
      vertex 2.13988 -0.695288 5
      vertex 2.20083 -0.467801 0
      vertex 2.20083 -0.467801 5
    endloop
  endfacet
  facet normal 0.965931 -0.258799 0
    outer loop
      vertex 2.20083 -0.467801 0
      vertex 2.13988 -0.695288 5
      vertex 2.13988 -0.695288 0
    endloop
  endfacet
  facet normal 0.629329 0.777139 -0
    outer loop
      vertex 1.50554 1.67208 0
      vertex 1.32252 1.82029 5
      vertex 1.50554 1.67208 5
    endloop
  endfacet
  facet normal 0.629329 0.777139 0
    outer loop
      vertex 1.32252 1.82029 5
      vertex 1.50554 1.67208 0
      vertex 1.32252 1.82029 0
    endloop
  endfacet
  facet normal -0.258799 -0.965931 0
    outer loop
      vertex -0.695288 -2.13988 0
      vertex -0.467801 -2.20083 5
      vertex -0.695288 -2.13988 5
    endloop
  endfacet
  facet normal -0.258799 -0.965931 -0
    outer loop
      vertex -0.467801 -2.20083 5
      vertex -0.695288 -2.13988 0
      vertex -0.467801 -2.20083 0
    endloop
  endfacet
  facet normal 0.838672 0.544636 0
    outer loop
      vertex 1.94856 1.125 5
      vertex 1.82029 1.32252 0
      vertex 1.82029 1.32252 5
    endloop
  endfacet
  facet normal 0.838672 0.544636 0
    outer loop
      vertex 1.82029 1.32252 0
      vertex 1.94856 1.125 5
      vertex 1.94856 1.125 0
    endloop
  endfacet
  facet normal 0.453989 0.891007 -0
    outer loop
      vertex 1.125 1.94856 0
      vertex 0.915157 2.05548 5
      vertex 1.125 1.94856 5
    endloop
  endfacet
  facet normal 0.453989 0.891007 0
    outer loop
      vertex 0.915157 2.05548 5
      vertex 1.125 1.94856 0
      vertex 0.915157 2.05548 0
    endloop
  endfacet
  facet normal 0.777139 0.629329 0
    outer loop
      vertex 1.82029 1.32252 5
      vertex 1.67208 1.50554 0
      vertex 1.67208 1.50554 5
    endloop
  endfacet
  facet normal 0.777139 0.629329 0
    outer loop
      vertex 1.67208 1.50554 0
      vertex 1.82029 1.32252 5
      vertex 1.82029 1.32252 0
    endloop
  endfacet
  facet normal -0.838672 -0.544636 0
    outer loop
      vertex -1.82029 -1.32252 0
      vertex -1.94856 -1.125 5
      vertex -1.94856 -1.125 0
    endloop
  endfacet
  facet normal -0.838672 -0.544636 0
    outer loop
      vertex -1.94856 -1.125 5
      vertex -1.82029 -1.32252 0
      vertex -1.82029 -1.32252 5
    endloop
  endfacet
  facet normal -0.98769 0.156425 0
    outer loop
      vertex -2.23767 0.235188 0
      vertex -2.20083 0.467801 5
      vertex -2.20083 0.467801 0
    endloop
  endfacet
  facet normal -0.98769 0.156425 0
    outer loop
      vertex -2.20083 0.467801 5
      vertex -2.23767 0.235188 0
      vertex -2.23767 0.235188 5
    endloop
  endfacet
  facet normal 0.707107 -0.707107 0
    outer loop
      vertex 1.50554 -1.67208 5
      vertex 1.67208 -1.50554 0
      vertex 1.67208 -1.50554 5
    endloop
  endfacet
  facet normal 0.707107 -0.707107 0
    outer loop
      vertex 1.67208 -1.50554 0
      vertex 1.50554 -1.67208 5
      vertex 1.50554 -1.67208 0
    endloop
  endfacet
  facet normal -0.838672 0.544636 0
    outer loop
      vertex -1.94856 1.125 0
      vertex -1.82029 1.32252 5
      vertex -1.82029 1.32252 0
    endloop
  endfacet
  facet normal -0.838672 0.544636 0
    outer loop
      vertex -1.82029 1.32252 5
      vertex -1.94856 1.125 0
      vertex -1.94856 1.125 5
    endloop
  endfacet
  facet normal -0.707107 -0.707107 0
    outer loop
      vertex -1.50554 -1.67208 0
      vertex -1.67208 -1.50554 5
      vertex -1.67208 -1.50554 0
    endloop
  endfacet
  facet normal -0.707107 -0.707107 0
    outer loop
      vertex -1.67208 -1.50554 5
      vertex -1.50554 -1.67208 0
      vertex -1.50554 -1.67208 5
    endloop
  endfacet
  facet normal 0.544636 0.838672 -0
    outer loop
      vertex 1.32252 1.82029 0
      vertex 1.125 1.94856 5
      vertex 1.32252 1.82029 5
    endloop
  endfacet
  facet normal 0.544636 0.838672 0
    outer loop
      vertex 1.125 1.94856 5
      vertex 1.32252 1.82029 0
      vertex 1.125 1.94856 0
    endloop
  endfacet
  facet normal 0.0523542 -0.998629 0
    outer loop
      vertex 0 -2.25 0
      vertex 0.235188 -2.23767 5
      vertex 0 -2.25 5
    endloop
  endfacet
  facet normal 0.0523542 -0.998629 0
    outer loop
      vertex 0.235188 -2.23767 5
      vertex 0 -2.25 0
      vertex 0.235188 -2.23767 0
    endloop
  endfacet
  facet normal 0.891007 0.453989 0
    outer loop
      vertex 2.05548 0.915157 5
      vertex 1.94856 1.125 0
      vertex 1.94856 1.125 5
    endloop
  endfacet
  facet normal 0.891007 0.453989 0
    outer loop
      vertex 1.94856 1.125 0
      vertex 2.05548 0.915157 5
      vertex 2.05548 0.915157 0
    endloop
  endfacet
  facet normal -0.965931 -0.258799 0
    outer loop
      vertex -2.13988 -0.695288 0
      vertex -2.20083 -0.467801 5
      vertex -2.20083 -0.467801 0
    endloop
  endfacet
  facet normal -0.965931 -0.258799 0
    outer loop
      vertex -2.20083 -0.467801 5
      vertex -2.13988 -0.695288 0
      vertex -2.13988 -0.695288 5
    endloop
  endfacet
  facet normal 0.707107 0.707107 0
    outer loop
      vertex 1.67208 1.50554 5
      vertex 1.50554 1.67208 0
      vertex 1.50554 1.67208 5
    endloop
  endfacet
  facet normal 0.707107 0.707107 0
    outer loop
      vertex 1.50554 1.67208 0
      vertex 1.67208 1.50554 5
      vertex 1.67208 1.50554 0
    endloop
  endfacet
  facet normal -0.707107 0.707107 0
    outer loop
      vertex -1.67208 1.50554 0
      vertex -1.50554 1.67208 5
      vertex -1.50554 1.67208 0
    endloop
  endfacet
  facet normal -0.707107 0.707107 0
    outer loop
      vertex -1.50554 1.67208 5
      vertex -1.67208 1.50554 0
      vertex -1.67208 1.50554 5
    endloop
  endfacet
  facet normal -0.891007 -0.453989 0
    outer loop
      vertex -1.94856 -1.125 0
      vertex -2.05548 -0.915157 5
      vertex -2.05548 -0.915157 0
    endloop
  endfacet
  facet normal -0.891007 -0.453989 0
    outer loop
      vertex -2.05548 -0.915157 5
      vertex -1.94856 -1.125 0
      vertex -1.94856 -1.125 5
    endloop
  endfacet
  facet normal 0.777139 -0.629329 0
    outer loop
      vertex 1.67208 -1.50554 5
      vertex 1.82029 -1.32252 0
      vertex 1.82029 -1.32252 5
    endloop
  endfacet
  facet normal 0.777139 -0.629329 0
    outer loop
      vertex 1.82029 -1.32252 0
      vertex 1.67208 -1.50554 5
      vertex 1.67208 -1.50554 0
    endloop
  endfacet
  facet normal 0.453989 -0.891007 0
    outer loop
      vertex 0.915157 -2.05548 0
      vertex 1.125 -1.94856 5
      vertex 0.915157 -2.05548 5
    endloop
  endfacet
  facet normal 0.453989 -0.891007 0
    outer loop
      vertex 1.125 -1.94856 5
      vertex 0.915157 -2.05548 0
      vertex 1.125 -1.94856 0
    endloop
  endfacet
  facet normal 0.358369 0.93358 -0
    outer loop
      vertex 0.915157 2.05548 0
      vertex 0.695288 2.13988 5
      vertex 0.915157 2.05548 5
    endloop
  endfacet
  facet normal 0.358369 0.93358 0
    outer loop
      vertex 0.695288 2.13988 5
      vertex 0.915157 2.05548 0
      vertex 0.695288 2.13988 0
    endloop
  endfacet
  facet normal 0.891007 -0.453989 0
    outer loop
      vertex 1.94856 -1.125 5
      vertex 2.05548 -0.915157 0
      vertex 2.05548 -0.915157 5
    endloop
  endfacet
  facet normal 0.891007 -0.453989 0
    outer loop
      vertex 2.05548 -0.915157 0
      vertex 1.94856 -1.125 5
      vertex 1.94856 -1.125 0
    endloop
  endfacet
  facet normal 0.838672 -0.544636 0
    outer loop
      vertex 1.82029 -1.32252 5
      vertex 1.94856 -1.125 0
      vertex 1.94856 -1.125 5
    endloop
  endfacet
  facet normal 0.838672 -0.544636 0
    outer loop
      vertex 1.94856 -1.125 0
      vertex 1.82029 -1.32252 5
      vertex 1.82029 -1.32252 0
    endloop
  endfacet
  facet normal 0.156425 -0.98769 0
    outer loop
      vertex 0.235188 -2.23767 0
      vertex 0.467801 -2.20083 5
      vertex 0.235188 -2.23767 5
    endloop
  endfacet
  facet normal 0.156425 -0.98769 0
    outer loop
      vertex 0.467801 -2.20083 5
      vertex 0.235188 -2.23767 0
      vertex 0.467801 -2.20083 0
    endloop
  endfacet
  facet normal 0.93358 0.358369 0
    outer loop
      vertex 2.13988 0.695288 5
      vertex 2.05548 0.915157 0
      vertex 2.05548 0.915157 5
    endloop
  endfacet
  facet normal 0.93358 0.358369 0
    outer loop
      vertex 2.05548 0.915157 0
      vertex 2.13988 0.695288 5
      vertex 2.13988 0.695288 0
    endloop
  endfacet
  facet normal 0 0 -1
    outer loop
      vertex 1.5 0 0
      vertex 2.25 0 0
      vertex 2.23767 -0.235188 0
    endloop
  endfacet
  facet normal 0 0 -1
    outer loop
      vertex 1.49178 -0.156793 0
      vertex 2.23767 -0.235188 0
      vertex 2.20083 -0.467801 0
    endloop
  endfacet
  facet normal 0 0 -1
    outer loop
      vertex 2.25 0 0
      vertex 1.5 0 0
      vertex 2.23767 0.235188 0
    endloop
  endfacet
  facet normal 0 0 -1
    outer loop
      vertex 1.46722 -0.311867 0
      vertex 2.20083 -0.467801 0
      vertex 2.13988 -0.695288 0
    endloop
  endfacet
  facet normal 0 0 -1
    outer loop
      vertex 1.49178 0.156793 0
      vertex 2.23767 0.235188 0
      vertex 1.5 0 0
    endloop
  endfacet
  facet normal 0 0 -1
    outer loop
      vertex 1.42658 -0.463525 0
      vertex 2.13988 -0.695288 0
      vertex 2.05548 -0.915157 0
    endloop
  endfacet
  facet normal -0 0 -1
    outer loop
      vertex 2.23767 0.235188 0
      vertex 1.49178 0.156793 0
      vertex 2.20083 0.467801 0
    endloop
  endfacet
  facet normal 0 0 -1
    outer loop
      vertex 1.37032 -0.610105 0
      vertex 2.05548 -0.915157 0
      vertex 1.94856 -1.125 0
    endloop
  endfacet
  facet normal 0 0 -1
    outer loop
      vertex 1.46722 0.311867 0
      vertex 2.20083 0.467801 0
      vertex 1.49178 0.156793 0
    endloop
  endfacet
  facet normal 0 0 -1
    outer loop
      vertex 1.29904 -0.75 0
      vertex 1.94856 -1.125 0
      vertex 1.82029 -1.32252 0
    endloop
  endfacet
  facet normal -0 0 -1
    outer loop
      vertex 2.20083 0.467801 0
      vertex 1.46722 0.311867 0
      vertex 2.13988 0.695288 0
    endloop
  endfacet
  facet normal 0 0 -1
    outer loop
      vertex 1.21352 -0.881678 0
      vertex 1.82029 -1.32252 0
      vertex 1.67208 -1.50554 0
    endloop
  endfacet
  facet normal 0 0 -1
    outer loop
      vertex 1.42658 0.463525 0
      vertex 2.13988 0.695288 0
      vertex 1.46722 0.311867 0
    endloop
  endfacet
  facet normal 0 0 -1
    outer loop
      vertex 1.11472 -1.0037 0
      vertex 1.67208 -1.50554 0
      vertex 1.50554 -1.67208 0
    endloop
  endfacet
  facet normal -0 0 -1
    outer loop
      vertex 2.13988 0.695288 0
      vertex 1.42658 0.463525 0
      vertex 2.05548 0.915157 0
    endloop
  endfacet
  facet normal 0 0 -1
    outer loop
      vertex 1.37032 0.610105 0
      vertex 2.05548 0.915157 0
      vertex 1.42658 0.463525 0
    endloop
  endfacet
  facet normal 0 0 -1
    outer loop
      vertex 2.23767 -0.235188 0
      vertex 1.49178 -0.156793 0
      vertex 1.5 0 0
    endloop
  endfacet
  facet normal 0 0 -1
    outer loop
      vertex 2.20083 -0.467801 0
      vertex 1.46722 -0.311867 0
      vertex 1.49178 -0.156793 0
    endloop
  endfacet
  facet normal 0 0 -1
    outer loop
      vertex 2.13988 -0.695288 0
      vertex 1.42658 -0.463525 0
      vertex 1.46722 -0.311867 0
    endloop
  endfacet
  facet normal 0 0 -1
    outer loop
      vertex 2.05548 -0.915157 0
      vertex 1.37032 -0.610105 0
      vertex 1.42658 -0.463525 0
    endloop
  endfacet
  facet normal 0 0 -1
    outer loop
      vertex 1.0037 -1.11472 0
      vertex 1.50554 -1.67208 0
      vertex 1.32252 -1.82029 0
    endloop
  endfacet
  facet normal 0 0 -1
    outer loop
      vertex 1.94856 -1.125 0
      vertex 1.29904 -0.75 0
      vertex 1.37032 -0.610105 0
    endloop
  endfacet
  facet normal 0 0 -1
    outer loop
      vertex 1.82029 -1.32252 0
      vertex 1.21352 -0.881678 0
      vertex 1.29904 -0.75 0
    endloop
  endfacet
  facet normal 0 0 -1
    outer loop
      vertex 0.881678 -1.21352 0
      vertex 1.32252 -1.82029 0
      vertex 1.125 -1.94856 0
    endloop
  endfacet
  facet normal 0 0 -1
    outer loop
      vertex 1.67208 -1.50554 0
      vertex 1.11472 -1.0037 0
      vertex 1.21352 -0.881678 0
    endloop
  endfacet
  facet normal 0 0 -1
    outer loop
      vertex 1.50554 -1.67208 0
      vertex 1.0037 -1.11472 0
      vertex 1.11472 -1.0037 0
    endloop
  endfacet
  facet normal 0 0 -1
    outer loop
      vertex 0.75 -1.29904 0
      vertex 1.125 -1.94856 0
      vertex 0.915157 -2.05548 0
    endloop
  endfacet
  facet normal 0 0 -1
    outer loop
      vertex 1.32252 -1.82029 0
      vertex 0.881678 -1.21352 0
      vertex 1.0037 -1.11472 0
    endloop
  endfacet
  facet normal 0 0 -1
    outer loop
      vertex 1.125 -1.94856 0
      vertex 0.75 -1.29904 0
      vertex 0.881678 -1.21352 0
    endloop
  endfacet
  facet normal 0 0 -1
    outer loop
      vertex 0.610105 -1.37032 0
      vertex 0.915157 -2.05548 0
      vertex 0.695288 -2.13988 0
    endloop
  endfacet
  facet normal 0 0 -1
    outer loop
      vertex 0.915157 -2.05548 0
      vertex 0.610105 -1.37032 0
      vertex 0.75 -1.29904 0
    endloop
  endfacet
  facet normal 0 0 -1
    outer loop
      vertex 0.463525 -1.42658 0
      vertex 0.695288 -2.13988 0
      vertex 0.467801 -2.20083 0
    endloop
  endfacet
  facet normal 0 0 -1
    outer loop
      vertex 0.695288 -2.13988 0
      vertex 0.463525 -1.42658 0
      vertex 0.610105 -1.37032 0
    endloop
  endfacet
  facet normal 0 0 -1
    outer loop
      vertex 0.467801 -2.20083 0
      vertex 0.311867 -1.46722 0
      vertex 0.463525 -1.42658 0
    endloop
  endfacet
  facet normal 0 0 -1
    outer loop
      vertex 0.235188 -2.23767 0
      vertex 0.311867 -1.46722 0
      vertex 0.467801 -2.20083 0
    endloop
  endfacet
  facet normal 0 0 -1
    outer loop
      vertex 0.235188 -2.23767 0
      vertex 0.156793 -1.49178 0
      vertex 0.311867 -1.46722 0
    endloop
  endfacet
  facet normal 0 0 -1
    outer loop
      vertex 0 -2.25 0
      vertex 0.156793 -1.49178 0
      vertex 0.235188 -2.23767 0
    endloop
  endfacet
  facet normal 0 0 -1
    outer loop
      vertex 0 -2.25 0
      vertex 0 -1.5 0
      vertex 0.156793 -1.49178 0
    endloop
  endfacet
  facet normal 0 0 -1
    outer loop
      vertex 0 -2.25 0
      vertex -0.156793 -1.49178 0
      vertex 0 -1.5 0
    endloop
  endfacet
  facet normal 0 0 -1
    outer loop
      vertex -0.235188 -2.23767 0
      vertex -0.156793 -1.49178 0
      vertex 0 -2.25 0
    endloop
  endfacet
  facet normal 0 0 -1
    outer loop
      vertex -0.235188 -2.23767 0
      vertex -0.311867 -1.46722 0
      vertex -0.156793 -1.49178 0
    endloop
  endfacet
  facet normal 0 0 -1
    outer loop
      vertex -0.467801 -2.20083 0
      vertex -0.311867 -1.46722 0
      vertex -0.235188 -2.23767 0
    endloop
  endfacet
  facet normal -0 0 -1
    outer loop
      vertex -0.311867 -1.46722 0
      vertex -0.467801 -2.20083 0
      vertex -0.463525 -1.42658 0
    endloop
  endfacet
  facet normal 0 0 -1
    outer loop
      vertex -0.695288 -2.13988 0
      vertex -0.463525 -1.42658 0
      vertex -0.467801 -2.20083 0
    endloop
  endfacet
  facet normal -0 0 -1
    outer loop
      vertex -0.463525 -1.42658 0
      vertex -0.695288 -2.13988 0
      vertex -0.610105 -1.37032 0
    endloop
  endfacet
  facet normal 0 0 -1
    outer loop
      vertex -0.915157 -2.05548 0
      vertex -0.610105 -1.37032 0
      vertex -0.695288 -2.13988 0
    endloop
  endfacet
  facet normal -0 0 -1
    outer loop
      vertex -0.610105 -1.37032 0
      vertex -0.915157 -2.05548 0
      vertex -0.75 -1.29904 0
    endloop
  endfacet
  facet normal 0 0 -1
    outer loop
      vertex -1.125 -1.94856 0
      vertex -0.75 -1.29904 0
      vertex -0.915157 -2.05548 0
    endloop
  endfacet
  facet normal -0 0 -1
    outer loop
      vertex -0.75 -1.29904 0
      vertex -1.125 -1.94856 0
      vertex -0.881678 -1.21352 0
    endloop
  endfacet
  facet normal 0 0 -1
    outer loop
      vertex -1.32252 -1.82029 0
      vertex -0.881678 -1.21352 0
      vertex -1.125 -1.94856 0
    endloop
  endfacet
  facet normal -0 0 -1
    outer loop
      vertex -0.881678 -1.21352 0
      vertex -1.32252 -1.82029 0
      vertex -1.0037 -1.11472 0
    endloop
  endfacet
  facet normal 0 0 -1
    outer loop
      vertex -1.50554 -1.67208 0
      vertex -1.0037 -1.11472 0
      vertex -1.32252 -1.82029 0
    endloop
  endfacet
  facet normal -0 0 -1
    outer loop
      vertex -1.0037 -1.11472 0
      vertex -1.50554 -1.67208 0
      vertex -1.11472 -1.0037 0
    endloop
  endfacet
  facet normal 0 0 -1
    outer loop
      vertex -1.67208 -1.50554 0
      vertex -1.11472 -1.0037 0
      vertex -1.50554 -1.67208 0
    endloop
  endfacet
  facet normal -0 0 -1
    outer loop
      vertex -1.11472 -1.0037 0
      vertex -1.67208 -1.50554 0
      vertex -1.21352 -0.881678 0
    endloop
  endfacet
  facet normal 0 0 -1
    outer loop
      vertex -1.82029 -1.32252 0
      vertex -1.21352 -0.881678 0
      vertex -1.67208 -1.50554 0
    endloop
  endfacet
  facet normal -0 0 -1
    outer loop
      vertex -1.21352 -0.881678 0
      vertex -1.82029 -1.32252 0
      vertex -1.29904 -0.75 0
    endloop
  endfacet
  facet normal 0 0 -1
    outer loop
      vertex -1.94856 -1.125 0
      vertex -1.29904 -0.75 0
      vertex -1.82029 -1.32252 0
    endloop
  endfacet
  facet normal 0 0 -1
    outer loop
      vertex -2.05548 -0.915157 0
      vertex -1.37032 -0.610105 0
      vertex -1.94856 -1.125 0
    endloop
  endfacet
  facet normal -0 0 -1
    outer loop
      vertex -1.29904 -0.75 0
      vertex -1.94856 -1.125 0
      vertex -1.37032 -0.610105 0
    endloop
  endfacet
  facet normal -0 0 -1
    outer loop
      vertex 2.05548 0.915157 0
      vertex 1.37032 0.610105 0
      vertex 1.94856 1.125 0
    endloop
  endfacet
  facet normal 0 0 -1
    outer loop
      vertex 1.29904 0.75 0
      vertex 1.94856 1.125 0
      vertex 1.37032 0.610105 0
    endloop
  endfacet
  facet normal -0 0 -1
    outer loop
      vertex 1.94856 1.125 0
      vertex 1.29904 0.75 0
      vertex 1.82029 1.32252 0
    endloop
  endfacet
  facet normal 0 0 -1
    outer loop
      vertex 1.21352 0.881678 0
      vertex 1.82029 1.32252 0
      vertex 1.29904 0.75 0
    endloop
  endfacet
  facet normal -0 0 -1
    outer loop
      vertex 1.82029 1.32252 0
      vertex 1.21352 0.881678 0
      vertex 1.67208 1.50554 0
    endloop
  endfacet
  facet normal 0 0 -1
    outer loop
      vertex 1.11472 1.0037 0
      vertex 1.67208 1.50554 0
      vertex 1.21352 0.881678 0
    endloop
  endfacet
  facet normal -0 0 -1
    outer loop
      vertex 1.67208 1.50554 0
      vertex 1.11472 1.0037 0
      vertex 1.50554 1.67208 0
    endloop
  endfacet
  facet normal 0 0 -1
    outer loop
      vertex 1.0037 1.11472 0
      vertex 1.50554 1.67208 0
      vertex 1.11472 1.0037 0
    endloop
  endfacet
  facet normal -0 0 -1
    outer loop
      vertex 1.50554 1.67208 0
      vertex 1.0037 1.11472 0
      vertex 1.32252 1.82029 0
    endloop
  endfacet
  facet normal 0 0 -1
    outer loop
      vertex 0.881678 1.21352 0
      vertex 1.32252 1.82029 0
      vertex 1.0037 1.11472 0
    endloop
  endfacet
  facet normal -0 0 -1
    outer loop
      vertex 1.32252 1.82029 0
      vertex 0.881678 1.21352 0
      vertex 1.125 1.94856 0
    endloop
  endfacet
  facet normal 0 0 -1
    outer loop
      vertex 0.75 1.29904 0
      vertex 1.125 1.94856 0
      vertex 0.881678 1.21352 0
    endloop
  endfacet
  facet normal -0 0 -1
    outer loop
      vertex 1.125 1.94856 0
      vertex 0.75 1.29904 0
      vertex 0.915157 2.05548 0
    endloop
  endfacet
  facet normal 0 0 -1
    outer loop
      vertex 0.610105 1.37032 0
      vertex 0.915157 2.05548 0
      vertex 0.75 1.29904 0
    endloop
  endfacet
  facet normal -0 0 -1
    outer loop
      vertex 0.915157 2.05548 0
      vertex 0.610105 1.37032 0
      vertex 0.695288 2.13988 0
    endloop
  endfacet
  facet normal 0 0 -1
    outer loop
      vertex 0.463525 1.42658 0
      vertex 0.695288 2.13988 0
      vertex 0.610105 1.37032 0
    endloop
  endfacet
  facet normal -0 0 -1
    outer loop
      vertex 0.695288 2.13988 0
      vertex 0.463525 1.42658 0
      vertex 0.467801 2.20083 0
    endloop
  endfacet
  facet normal 0 0 -1
    outer loop
      vertex 0.311867 1.46722 0
      vertex 0.467801 2.20083 0
      vertex 0.463525 1.42658 0
    endloop
  endfacet
  facet normal 0 0 -1
    outer loop
      vertex 0.311867 1.46722 0
      vertex 0.235188 2.23767 0
      vertex 0.467801 2.20083 0
    endloop
  endfacet
  facet normal 0 0 -1
    outer loop
      vertex 0.156793 1.49178 0
      vertex 0.235188 2.23767 0
      vertex 0.311867 1.46722 0
    endloop
  endfacet
  facet normal 0 0 -1
    outer loop
      vertex 0 1.5 0
      vertex 0.235188 2.23767 0
      vertex 0.156793 1.49178 0
    endloop
  endfacet
  facet normal 0 0 -1
    outer loop
      vertex 0 1.5 0
      vertex 0 2.25 0
      vertex 0.235188 2.23767 0
    endloop
  endfacet
  facet normal 0 0 -1
    outer loop
      vertex -0.156793 1.49178 0
      vertex 0 2.25 0
      vertex 0 1.5 0
    endloop
  endfacet
  facet normal 0 0 -1
    outer loop
      vertex -0.156793 1.49178 0
      vertex -0.235188 2.23767 0
      vertex 0 2.25 0
    endloop
  endfacet
  facet normal 0 0 -1
    outer loop
      vertex -0.311867 1.46722 0
      vertex -0.235188 2.23767 0
      vertex -0.156793 1.49178 0
    endloop
  endfacet
  facet normal 0 0 -1
    outer loop
      vertex -0.467801 2.20083 0
      vertex -0.311867 1.46722 0
      vertex -0.463525 1.42658 0
    endloop
  endfacet
  facet normal 0 0 -1
    outer loop
      vertex -0.311867 1.46722 0
      vertex -0.467801 2.20083 0
      vertex -0.235188 2.23767 0
    endloop
  endfacet
  facet normal 0 0 -1
    outer loop
      vertex -0.695288 2.13988 0
      vertex -0.463525 1.42658 0
      vertex -0.610105 1.37032 0
    endloop
  endfacet
  facet normal 0 0 -1
    outer loop
      vertex -0.463525 1.42658 0
      vertex -0.695288 2.13988 0
      vertex -0.467801 2.20083 0
    endloop
  endfacet
  facet normal 0 0 -1
    outer loop
      vertex -0.915157 2.05548 0
      vertex -0.610105 1.37032 0
      vertex -0.75 1.29904 0
    endloop
  endfacet
  facet normal 0 0 -1
    outer loop
      vertex -1.125 1.94856 0
      vertex -0.75 1.29904 0
      vertex -0.881678 1.21352 0
    endloop
  endfacet
  facet normal 0 0 -1
    outer loop
      vertex -0.610105 1.37032 0
      vertex -0.915157 2.05548 0
      vertex -0.695288 2.13988 0
    endloop
  endfacet
  facet normal 0 0 -1
    outer loop
      vertex -1.32252 1.82029 0
      vertex -0.881678 1.21352 0
      vertex -1.0037 1.11472 0
    endloop
  endfacet
  facet normal 0 0 -1
    outer loop
      vertex -1.50554 1.67208 0
      vertex -1.0037 1.11472 0
      vertex -1.11472 1.0037 0
    endloop
  endfacet
  facet normal 0 0 -1
    outer loop
      vertex -0.75 1.29904 0
      vertex -1.125 1.94856 0
      vertex -0.915157 2.05548 0
    endloop
  endfacet
  facet normal 0 0 -1
    outer loop
      vertex -1.67208 1.50554 0
      vertex -1.11472 1.0037 0
      vertex -1.21352 0.881678 0
    endloop
  endfacet
  facet normal 0 0 -1
    outer loop
      vertex -1.82029 1.32252 0
      vertex -1.21352 0.881678 0
      vertex -1.29904 0.75 0
    endloop
  endfacet
  facet normal 0 0 -1
    outer loop
      vertex -0.881678 1.21352 0
      vertex -1.32252 1.82029 0
      vertex -1.125 1.94856 0
    endloop
  endfacet
  facet normal 0 0 -1
    outer loop
      vertex -1.94856 1.125 0
      vertex -1.29904 0.75 0
      vertex -1.37032 0.610105 0
    endloop
  endfacet
  facet normal 0 0 -1
    outer loop
      vertex -2.05548 0.915157 0
      vertex -1.37032 0.610105 0
      vertex -1.42658 0.463525 0
    endloop
  endfacet
  facet normal 0 0 -1
    outer loop
      vertex -2.13988 0.695288 0
      vertex -1.42658 0.463525 0
      vertex -1.46722 0.311867 0
    endloop
  endfacet
  facet normal 0 0 -1
    outer loop
      vertex -2.20083 0.467801 0
      vertex -1.46722 0.311867 0
      vertex -1.49178 0.156793 0
    endloop
  endfacet
  facet normal 0 0 -1
    outer loop
      vertex -1.0037 1.11472 0
      vertex -1.50554 1.67208 0
      vertex -1.32252 1.82029 0
    endloop
  endfacet
  facet normal 0 0 -1
    outer loop
      vertex -2.23767 0.235188 0
      vertex -1.49178 0.156793 0
      vertex -1.5 0 0
    endloop
  endfacet
  facet normal -0 0 -1
    outer loop
      vertex -1.37032 -0.610105 0
      vertex -2.05548 -0.915157 0
      vertex -1.42658 -0.463525 0
    endloop
  endfacet
  facet normal 0 0 -1
    outer loop
      vertex -2.13988 -0.695288 0
      vertex -1.42658 -0.463525 0
      vertex -2.05548 -0.915157 0
    endloop
  endfacet
  facet normal 0 0 -1
    outer loop
      vertex -1.11472 1.0037 0
      vertex -1.67208 1.50554 0
      vertex -1.50554 1.67208 0
    endloop
  endfacet
  facet normal -0 0 -1
    outer loop
      vertex -1.42658 -0.463525 0
      vertex -2.13988 -0.695288 0
      vertex -1.46722 -0.311867 0
    endloop
  endfacet
  facet normal 0 0 -1
    outer loop
      vertex -1.21352 0.881678 0
      vertex -1.82029 1.32252 0
      vertex -1.67208 1.50554 0
    endloop
  endfacet
  facet normal 0 0 -1
    outer loop
      vertex -2.20083 -0.467801 0
      vertex -1.46722 -0.311867 0
      vertex -2.13988 -0.695288 0
    endloop
  endfacet
  facet normal 0 0 -1
    outer loop
      vertex -1.29904 0.75 0
      vertex -1.94856 1.125 0
      vertex -1.82029 1.32252 0
    endloop
  endfacet
  facet normal -0 0 -1
    outer loop
      vertex -1.46722 -0.311867 0
      vertex -2.20083 -0.467801 0
      vertex -1.49178 -0.156793 0
    endloop
  endfacet
  facet normal 0 0 -1
    outer loop
      vertex -1.37032 0.610105 0
      vertex -2.05548 0.915157 0
      vertex -1.94856 1.125 0
    endloop
  endfacet
  facet normal 0 0 -1
    outer loop
      vertex -2.23767 -0.235188 0
      vertex -1.49178 -0.156793 0
      vertex -2.20083 -0.467801 0
    endloop
  endfacet
  facet normal 0 0 -1
    outer loop
      vertex -1.42658 0.463525 0
      vertex -2.13988 0.695288 0
      vertex -2.05548 0.915157 0
    endloop
  endfacet
  facet normal -0 0 -1
    outer loop
      vertex -1.49178 -0.156793 0
      vertex -2.23767 -0.235188 0
      vertex -1.5 0 0
    endloop
  endfacet
  facet normal 0 0 -1
    outer loop
      vertex -1.46722 0.311867 0
      vertex -2.20083 0.467801 0
      vertex -2.13988 0.695288 0
    endloop
  endfacet
  facet normal 0 0 -1
    outer loop
      vertex -2.25 0 0
      vertex -1.5 0 0
      vertex -2.23767 -0.235188 0
    endloop
  endfacet
  facet normal 0 0 -1
    outer loop
      vertex -1.49178 0.156793 0
      vertex -2.23767 0.235188 0
      vertex -2.20083 0.467801 0
    endloop
  endfacet
  facet normal 0 0 -1
    outer loop
      vertex -1.5 0 0
      vertex -2.25 0 0
      vertex -2.23767 0.235188 0
    endloop
  endfacet
  facet normal -0.258799 0.965931 0
    outer loop
      vertex -0.467801 2.20083 0
      vertex -0.695288 2.13988 5
      vertex -0.467801 2.20083 5
    endloop
  endfacet
  facet normal -0.258799 0.965931 0
    outer loop
      vertex -0.695288 2.13988 5
      vertex -0.467801 2.20083 0
      vertex -0.695288 2.13988 0
    endloop
  endfacet
  facet normal -0.0523542 -0.998629 0
    outer loop
      vertex -0.235188 -2.23767 0
      vertex 0 -2.25 5
      vertex -0.235188 -2.23767 5
    endloop
  endfacet
  facet normal -0.0523542 -0.998629 -0
    outer loop
      vertex 0 -2.25 5
      vertex -0.235188 -2.23767 0
      vertex 0 -2.25 0
    endloop
  endfacet
  facet normal -0.777139 0.629329 0
    outer loop
      vertex -1.82029 1.32252 0
      vertex -1.67208 1.50554 5
      vertex -1.67208 1.50554 0
    endloop
  endfacet
  facet normal -0.777139 0.629329 0
    outer loop
      vertex -1.67208 1.50554 5
      vertex -1.82029 1.32252 0
      vertex -1.82029 1.32252 5
    endloop
  endfacet
  facet normal -0.453989 -0.891007 0
    outer loop
      vertex -1.125 -1.94856 0
      vertex -0.915157 -2.05548 5
      vertex -1.125 -1.94856 5
    endloop
  endfacet
  facet normal -0.453989 -0.891007 -0
    outer loop
      vertex -0.915157 -2.05548 5
      vertex -1.125 -1.94856 0
      vertex -0.915157 -2.05548 0
    endloop
  endfacet
  facet normal -0.156425 0.98769 0
    outer loop
      vertex -0.235188 2.23767 0
      vertex -0.467801 2.20083 5
      vertex -0.235188 2.23767 5
    endloop
  endfacet
  facet normal -0.156425 0.98769 0
    outer loop
      vertex -0.467801 2.20083 5
      vertex -0.235188 2.23767 0
      vertex -0.467801 2.20083 0
    endloop
  endfacet
  facet normal 0.0523542 0.998629 -0
    outer loop
      vertex 0.235188 2.23767 0
      vertex 0 2.25 5
      vertex 0.235188 2.23767 5
    endloop
  endfacet
  facet normal 0.0523542 0.998629 0
    outer loop
      vertex 0 2.25 5
      vertex 0.235188 2.23767 0
      vertex 0 2.25 0
    endloop
  endfacet
  facet normal 0.965931 0.258799 0
    outer loop
      vertex 2.20083 0.467801 5
      vertex 2.13988 0.695288 0
      vertex 2.13988 0.695288 5
    endloop
  endfacet
  facet normal 0.965931 0.258799 0
    outer loop
      vertex 2.13988 0.695288 0
      vertex 2.20083 0.467801 5
      vertex 2.20083 0.467801 0
    endloop
  endfacet
  facet normal -0.629329 0.777139 0
    outer loop
      vertex -1.32252 1.82029 0
      vertex -1.50554 1.67208 5
      vertex -1.32252 1.82029 5
    endloop
  endfacet
  facet normal -0.629329 0.777139 0
    outer loop
      vertex -1.50554 1.67208 5
      vertex -1.32252 1.82029 0
      vertex -1.50554 1.67208 0
    endloop
  endfacet
  facet normal -0.93358 0.358369 0
    outer loop
      vertex -2.13988 0.695288 0
      vertex -2.05548 0.915157 5
      vertex -2.05548 0.915157 0
    endloop
  endfacet
  facet normal -0.93358 0.358369 0
    outer loop
      vertex -2.05548 0.915157 5
      vertex -2.13988 0.695288 0
      vertex -2.13988 0.695288 5
    endloop
  endfacet
  facet normal -0.0523542 0.998629 0
    outer loop
      vertex 0 2.25 0
      vertex -0.235188 2.23767 5
      vertex 0 2.25 5
    endloop
  endfacet
  facet normal -0.0523542 0.998629 0
    outer loop
      vertex -0.235188 2.23767 5
      vertex 0 2.25 0
      vertex -0.235188 2.23767 0
    endloop
  endfacet
  facet normal -0.998629 -0.0523542 0
    outer loop
      vertex -2.23767 -0.235188 0
      vertex -2.25 0 5
      vertex -2.25 0 0
    endloop
  endfacet
  facet normal -0.998629 -0.0523542 0
    outer loop
      vertex -2.25 0 5
      vertex -2.23767 -0.235188 0
      vertex -2.23767 -0.235188 5
    endloop
  endfacet
  facet normal -0.777139 -0.629329 0
    outer loop
      vertex -1.67208 -1.50554 0
      vertex -1.82029 -1.32252 5
      vertex -1.82029 -1.32252 0
    endloop
  endfacet
  facet normal -0.777139 -0.629329 0
    outer loop
      vertex -1.82029 -1.32252 5
      vertex -1.67208 -1.50554 0
      vertex -1.67208 -1.50554 5
    endloop
  endfacet
  facet normal -0.965931 0.258799 0
    outer loop
      vertex -2.20083 0.467801 0
      vertex -2.13988 0.695288 5
      vertex -2.13988 0.695288 0
    endloop
  endfacet
  facet normal -0.965931 0.258799 0
    outer loop
      vertex -2.13988 0.695288 5
      vertex -2.20083 0.467801 0
      vertex -2.20083 0.467801 5
    endloop
  endfacet
  facet normal -0.629329 -0.777139 0
    outer loop
      vertex -1.50554 -1.67208 0
      vertex -1.32252 -1.82029 5
      vertex -1.50554 -1.67208 5
    endloop
  endfacet
  facet normal -0.629329 -0.777139 -0
    outer loop
      vertex -1.32252 -1.82029 5
      vertex -1.50554 -1.67208 0
      vertex -1.32252 -1.82029 0
    endloop
  endfacet
  facet normal 0.93358 -0.358369 0
    outer loop
      vertex 2.05548 -0.915157 5
      vertex 2.13988 -0.695288 0
      vertex 2.13988 -0.695288 5
    endloop
  endfacet
  facet normal 0.93358 -0.358369 0
    outer loop
      vertex 2.13988 -0.695288 0
      vertex 2.05548 -0.915157 5
      vertex 2.05548 -0.915157 0
    endloop
  endfacet
  facet normal -0.544636 -0.838672 0
    outer loop
      vertex -1.32252 -1.82029 0
      vertex -1.125 -1.94856 5
      vertex -1.32252 -1.82029 5
    endloop
  endfacet
  facet normal -0.544636 -0.838672 -0
    outer loop
      vertex -1.125 -1.94856 5
      vertex -1.32252 -1.82029 0
      vertex -1.125 -1.94856 0
    endloop
  endfacet
  facet normal -0.358369 -0.93358 0
    outer loop
      vertex -0.915157 -2.05548 0
      vertex -0.695288 -2.13988 5
      vertex -0.915157 -2.05548 5
    endloop
  endfacet
  facet normal -0.358369 -0.93358 -0
    outer loop
      vertex -0.695288 -2.13988 5
      vertex -0.915157 -2.05548 0
      vertex -0.695288 -2.13988 0
    endloop
  endfacet
  facet normal -0.998629 0.0523542 0
    outer loop
      vertex -2.25 0 0
      vertex -2.23767 0.235188 5
      vertex -2.23767 0.235188 0
    endloop
  endfacet
  facet normal -0.998629 0.0523542 0
    outer loop
      vertex -2.23767 0.235188 5
      vertex -2.25 0 0
      vertex -2.25 0 5
    endloop
  endfacet
  facet normal 0 0 1
    outer loop
      vertex 1.5 0 5
      vertex 2.25 0 5
      vertex 2.23767 0.235188 5
    endloop
  endfacet
  facet normal 0 0 1
    outer loop
      vertex 1.49178 0.156793 5
      vertex 2.23767 0.235188 5
      vertex 2.20083 0.467801 5
    endloop
  endfacet
  facet normal 0 0 1
    outer loop
      vertex 2.25 0 5
      vertex 1.5 0 5
      vertex 2.23767 -0.235188 5
    endloop
  endfacet
  facet normal 0 0 1
    outer loop
      vertex 1.46722 0.311867 5
      vertex 2.20083 0.467801 5
      vertex 2.13988 0.695288 5
    endloop
  endfacet
  facet normal -0 0 1
    outer loop
      vertex 1.49178 -0.156793 5
      vertex 2.23767 -0.235188 5
      vertex 1.5 0 5
    endloop
  endfacet
  facet normal 0 0 1
    outer loop
      vertex 1.42658 0.463525 5
      vertex 2.13988 0.695288 5
      vertex 2.05548 0.915157 5
    endloop
  endfacet
  facet normal 0 0 1
    outer loop
      vertex 2.23767 -0.235188 5
      vertex 1.49178 -0.156793 5
      vertex 2.20083 -0.467801 5
    endloop
  endfacet
  facet normal 0 0 1
    outer loop
      vertex 1.37032 0.610105 5
      vertex 2.05548 0.915157 5
      vertex 1.94856 1.125 5
    endloop
  endfacet
  facet normal -0 0 1
    outer loop
      vertex 1.46722 -0.311867 5
      vertex 2.20083 -0.467801 5
      vertex 1.49178 -0.156793 5
    endloop
  endfacet
  facet normal 0 0 1
    outer loop
      vertex 1.29904 0.75 5
      vertex 1.94856 1.125 5
      vertex 1.82029 1.32252 5
    endloop
  endfacet
  facet normal 0 0 1
    outer loop
      vertex 2.20083 -0.467801 5
      vertex 1.46722 -0.311867 5
      vertex 2.13988 -0.695288 5
    endloop
  endfacet
  facet normal 0 0 1
    outer loop
      vertex 1.21352 0.881678 5
      vertex 1.82029 1.32252 5
      vertex 1.67208 1.50554 5
    endloop
  endfacet
  facet normal -0 0 1
    outer loop
      vertex 1.42658 -0.463525 5
      vertex 2.13988 -0.695288 5
      vertex 1.46722 -0.311867 5
    endloop
  endfacet
  facet normal 0 0 1
    outer loop
      vertex 1.11472 1.0037 5
      vertex 1.67208 1.50554 5
      vertex 1.50554 1.67208 5
    endloop
  endfacet
  facet normal 0 0 1
    outer loop
      vertex 2.13988 -0.695288 5
      vertex 1.42658 -0.463525 5
      vertex 2.05548 -0.915157 5
    endloop
  endfacet
  facet normal -0 0 1
    outer loop
      vertex 1.37032 -0.610105 5
      vertex 2.05548 -0.915157 5
      vertex 1.42658 -0.463525 5
    endloop
  endfacet
  facet normal 0 0 1
    outer loop
      vertex 2.23767 0.235188 5
      vertex 1.49178 0.156793 5
      vertex 1.5 0 5
    endloop
  endfacet
  facet normal 0 0 1
    outer loop
      vertex 2.20083 0.467801 5
      vertex 1.46722 0.311867 5
      vertex 1.49178 0.156793 5
    endloop
  endfacet
  facet normal 0 0 1
    outer loop
      vertex 2.13988 0.695288 5
      vertex 1.42658 0.463525 5
      vertex 1.46722 0.311867 5
    endloop
  endfacet
  facet normal 0 0 1
    outer loop
      vertex 2.05548 0.915157 5
      vertex 1.37032 0.610105 5
      vertex 1.42658 0.463525 5
    endloop
  endfacet
  facet normal 0 0 1
    outer loop
      vertex 1.0037 1.11472 5
      vertex 1.50554 1.67208 5
      vertex 1.32252 1.82029 5
    endloop
  endfacet
  facet normal 0 0 1
    outer loop
      vertex 1.94856 1.125 5
      vertex 1.29904 0.75 5
      vertex 1.37032 0.610105 5
    endloop
  endfacet
  facet normal 0 0 1
    outer loop
      vertex 1.82029 1.32252 5
      vertex 1.21352 0.881678 5
      vertex 1.29904 0.75 5
    endloop
  endfacet
  facet normal 0 0 1
    outer loop
      vertex 0.881678 1.21352 5
      vertex 1.32252 1.82029 5
      vertex 1.125 1.94856 5
    endloop
  endfacet
  facet normal 0 0 1
    outer loop
      vertex 1.67208 1.50554 5
      vertex 1.11472 1.0037 5
      vertex 1.21352 0.881678 5
    endloop
  endfacet
  facet normal 0 0 1
    outer loop
      vertex 1.50554 1.67208 5
      vertex 1.0037 1.11472 5
      vertex 1.11472 1.0037 5
    endloop
  endfacet
  facet normal 0 0 1
    outer loop
      vertex 0.75 1.29904 5
      vertex 1.125 1.94856 5
      vertex 0.915157 2.05548 5
    endloop
  endfacet
  facet normal 0 0 1
    outer loop
      vertex 1.32252 1.82029 5
      vertex 0.881678 1.21352 5
      vertex 1.0037 1.11472 5
    endloop
  endfacet
  facet normal 0 0 1
    outer loop
      vertex 1.125 1.94856 5
      vertex 0.75 1.29904 5
      vertex 0.881678 1.21352 5
    endloop
  endfacet
  facet normal 0 0 1
    outer loop
      vertex 0.610105 1.37032 5
      vertex 0.915157 2.05548 5
      vertex 0.695288 2.13988 5
    endloop
  endfacet
  facet normal 0 0 1
    outer loop
      vertex 0.915157 2.05548 5
      vertex 0.610105 1.37032 5
      vertex 0.75 1.29904 5
    endloop
  endfacet
  facet normal 0 0 1
    outer loop
      vertex 0.463525 1.42658 5
      vertex 0.695288 2.13988 5
      vertex 0.467801 2.20083 5
    endloop
  endfacet
  facet normal 0 0 1
    outer loop
      vertex 0.695288 2.13988 5
      vertex 0.463525 1.42658 5
      vertex 0.610105 1.37032 5
    endloop
  endfacet
  facet normal 0 0 1
    outer loop
      vertex 0.467801 2.20083 5
      vertex 0.311867 1.46722 5
      vertex 0.463525 1.42658 5
    endloop
  endfacet
  facet normal 0 0 1
    outer loop
      vertex 0.235188 2.23767 5
      vertex 0.311867 1.46722 5
      vertex 0.467801 2.20083 5
    endloop
  endfacet
  facet normal 0 0 1
    outer loop
      vertex 0.235188 2.23767 5
      vertex 0.156793 1.49178 5
      vertex 0.311867 1.46722 5
    endloop
  endfacet
  facet normal 0 0 1
    outer loop
      vertex 0 2.25 5
      vertex 0.156793 1.49178 5
      vertex 0.235188 2.23767 5
    endloop
  endfacet
  facet normal 0 0 1
    outer loop
      vertex 0 2.25 5
      vertex 0 1.5 5
      vertex 0.156793 1.49178 5
    endloop
  endfacet
  facet normal 0 0 1
    outer loop
      vertex 0 2.25 5
      vertex -0.156793 1.49178 5
      vertex 0 1.5 5
    endloop
  endfacet
  facet normal -0 0 1
    outer loop
      vertex -0.235188 2.23767 5
      vertex -0.156793 1.49178 5
      vertex 0 2.25 5
    endloop
  endfacet
  facet normal 0 0 1
    outer loop
      vertex -0.235188 2.23767 5
      vertex -0.311867 1.46722 5
      vertex -0.156793 1.49178 5
    endloop
  endfacet
  facet normal -0 0 1
    outer loop
      vertex -0.467801 2.20083 5
      vertex -0.311867 1.46722 5
      vertex -0.235188 2.23767 5
    endloop
  endfacet
  facet normal 0 0 1
    outer loop
      vertex -0.311867 1.46722 5
      vertex -0.467801 2.20083 5
      vertex -0.463525 1.42658 5
    endloop
  endfacet
  facet normal -0 0 1
    outer loop
      vertex -0.695288 2.13988 5
      vertex -0.463525 1.42658 5
      vertex -0.467801 2.20083 5
    endloop
  endfacet
  facet normal 0 0 1
    outer loop
      vertex -0.463525 1.42658 5
      vertex -0.695288 2.13988 5
      vertex -0.610105 1.37032 5
    endloop
  endfacet
  facet normal -0 0 1
    outer loop
      vertex -0.915157 2.05548 5
      vertex -0.610105 1.37032 5
      vertex -0.695288 2.13988 5
    endloop
  endfacet
  facet normal 0 0 1
    outer loop
      vertex -0.610105 1.37032 5
      vertex -0.915157 2.05548 5
      vertex -0.75 1.29904 5
    endloop
  endfacet
  facet normal -0 0 1
    outer loop
      vertex -1.125 1.94856 5
      vertex -0.75 1.29904 5
      vertex -0.915157 2.05548 5
    endloop
  endfacet
  facet normal 0 0 1
    outer loop
      vertex -0.75 1.29904 5
      vertex -1.125 1.94856 5
      vertex -0.881678 1.21352 5
    endloop
  endfacet
  facet normal -0 0 1
    outer loop
      vertex -1.32252 1.82029 5
      vertex -0.881678 1.21352 5
      vertex -1.125 1.94856 5
    endloop
  endfacet
  facet normal 0 0 1
    outer loop
      vertex -0.881678 1.21352 5
      vertex -1.32252 1.82029 5
      vertex -1.0037 1.11472 5
    endloop
  endfacet
  facet normal -0 0 1
    outer loop
      vertex -1.50554 1.67208 5
      vertex -1.0037 1.11472 5
      vertex -1.32252 1.82029 5
    endloop
  endfacet
  facet normal 0 0 1
    outer loop
      vertex -1.0037 1.11472 5
      vertex -1.50554 1.67208 5
      vertex -1.11472 1.0037 5
    endloop
  endfacet
  facet normal -0 0 1
    outer loop
      vertex -1.67208 1.50554 5
      vertex -1.11472 1.0037 5
      vertex -1.50554 1.67208 5
    endloop
  endfacet
  facet normal 0 0 1
    outer loop
      vertex -1.11472 1.0037 5
      vertex -1.67208 1.50554 5
      vertex -1.21352 0.881678 5
    endloop
  endfacet
  facet normal -0 0 1
    outer loop
      vertex -1.82029 1.32252 5
      vertex -1.21352 0.881678 5
      vertex -1.67208 1.50554 5
    endloop
  endfacet
  facet normal 0 0 1
    outer loop
      vertex -1.21352 0.881678 5
      vertex -1.82029 1.32252 5
      vertex -1.29904 0.75 5
    endloop
  endfacet
  facet normal -0 0 1
    outer loop
      vertex -1.94856 1.125 5
      vertex -1.29904 0.75 5
      vertex -1.82029 1.32252 5
    endloop
  endfacet
  facet normal -0 0 1
    outer loop
      vertex -2.05548 0.915157 5
      vertex -1.37032 0.610105 5
      vertex -1.94856 1.125 5
    endloop
  endfacet
  facet normal 0 0 1
    outer loop
      vertex -1.29904 0.75 5
      vertex -1.94856 1.125 5
      vertex -1.37032 0.610105 5
    endloop
  endfacet
  facet normal 0 0 1
    outer loop
      vertex 2.05548 -0.915157 5
      vertex 1.37032 -0.610105 5
      vertex 1.94856 -1.125 5
    endloop
  endfacet
  facet normal -0 0 1
    outer loop
      vertex 1.29904 -0.75 5
      vertex 1.94856 -1.125 5
      vertex 1.37032 -0.610105 5
    endloop
  endfacet
  facet normal 0 0 1
    outer loop
      vertex 1.94856 -1.125 5
      vertex 1.29904 -0.75 5
      vertex 1.82029 -1.32252 5
    endloop
  endfacet
  facet normal -0 0 1
    outer loop
      vertex 1.21352 -0.881678 5
      vertex 1.82029 -1.32252 5
      vertex 1.29904 -0.75 5
    endloop
  endfacet
  facet normal 0 0 1
    outer loop
      vertex 1.82029 -1.32252 5
      vertex 1.21352 -0.881678 5
      vertex 1.67208 -1.50554 5
    endloop
  endfacet
  facet normal -0 0 1
    outer loop
      vertex 1.11472 -1.0037 5
      vertex 1.67208 -1.50554 5
      vertex 1.21352 -0.881678 5
    endloop
  endfacet
  facet normal 0 0 1
    outer loop
      vertex 1.67208 -1.50554 5
      vertex 1.11472 -1.0037 5
      vertex 1.50554 -1.67208 5
    endloop
  endfacet
  facet normal -0 0 1
    outer loop
      vertex 1.0037 -1.11472 5
      vertex 1.50554 -1.67208 5
      vertex 1.11472 -1.0037 5
    endloop
  endfacet
  facet normal 0 0 1
    outer loop
      vertex 1.50554 -1.67208 5
      vertex 1.0037 -1.11472 5
      vertex 1.32252 -1.82029 5
    endloop
  endfacet
  facet normal -0 0 1
    outer loop
      vertex 0.881678 -1.21352 5
      vertex 1.32252 -1.82029 5
      vertex 1.0037 -1.11472 5
    endloop
  endfacet
  facet normal 0 0 1
    outer loop
      vertex 1.32252 -1.82029 5
      vertex 0.881678 -1.21352 5
      vertex 1.125 -1.94856 5
    endloop
  endfacet
  facet normal -0 0 1
    outer loop
      vertex 0.75 -1.29904 5
      vertex 1.125 -1.94856 5
      vertex 0.881678 -1.21352 5
    endloop
  endfacet
  facet normal 0 0 1
    outer loop
      vertex 1.125 -1.94856 5
      vertex 0.75 -1.29904 5
      vertex 0.915157 -2.05548 5
    endloop
  endfacet
  facet normal -0 0 1
    outer loop
      vertex 0.610105 -1.37032 5
      vertex 0.915157 -2.05548 5
      vertex 0.75 -1.29904 5
    endloop
  endfacet
  facet normal 0 0 1
    outer loop
      vertex 0.915157 -2.05548 5
      vertex 0.610105 -1.37032 5
      vertex 0.695288 -2.13988 5
    endloop
  endfacet
  facet normal -0 0 1
    outer loop
      vertex 0.463525 -1.42658 5
      vertex 0.695288 -2.13988 5
      vertex 0.610105 -1.37032 5
    endloop
  endfacet
  facet normal 0 0 1
    outer loop
      vertex 0.695288 -2.13988 5
      vertex 0.463525 -1.42658 5
      vertex 0.467801 -2.20083 5
    endloop
  endfacet
  facet normal -0 0 1
    outer loop
      vertex 0.311867 -1.46722 5
      vertex 0.467801 -2.20083 5
      vertex 0.463525 -1.42658 5
    endloop
  endfacet
  facet normal 0 0 1
    outer loop
      vertex 0.311867 -1.46722 5
      vertex 0.235188 -2.23767 5
      vertex 0.467801 -2.20083 5
    endloop
  endfacet
  facet normal -0 0 1
    outer loop
      vertex 0.156793 -1.49178 5
      vertex 0.235188 -2.23767 5
      vertex 0.311867 -1.46722 5
    endloop
  endfacet
  facet normal -0 0 1
    outer loop
      vertex 0 -1.5 5
      vertex 0.235188 -2.23767 5
      vertex 0.156793 -1.49178 5
    endloop
  endfacet
  facet normal 0 0 1
    outer loop
      vertex 0 -1.5 5
      vertex 0 -2.25 5
      vertex 0.235188 -2.23767 5
    endloop
  endfacet
  facet normal 0 0 1
    outer loop
      vertex -0.156793 -1.49178 5
      vertex 0 -2.25 5
      vertex 0 -1.5 5
    endloop
  endfacet
  facet normal 0 0 1
    outer loop
      vertex -0.156793 -1.49178 5
      vertex -0.235188 -2.23767 5
      vertex 0 -2.25 5
    endloop
  endfacet
  facet normal 0 0 1
    outer loop
      vertex -0.311867 -1.46722 5
      vertex -0.235188 -2.23767 5
      vertex -0.156793 -1.49178 5
    endloop
  endfacet
  facet normal 0 0 1
    outer loop
      vertex -0.467801 -2.20083 5
      vertex -0.311867 -1.46722 5
      vertex -0.463525 -1.42658 5
    endloop
  endfacet
  facet normal 0 0 1
    outer loop
      vertex -0.311867 -1.46722 5
      vertex -0.467801 -2.20083 5
      vertex -0.235188 -2.23767 5
    endloop
  endfacet
  facet normal 0 0 1
    outer loop
      vertex -0.695288 -2.13988 5
      vertex -0.463525 -1.42658 5
      vertex -0.610105 -1.37032 5
    endloop
  endfacet
  facet normal 0 0 1
    outer loop
      vertex -0.463525 -1.42658 5
      vertex -0.695288 -2.13988 5
      vertex -0.467801 -2.20083 5
    endloop
  endfacet
  facet normal 0 0 1
    outer loop
      vertex -0.915157 -2.05548 5
      vertex -0.610105 -1.37032 5
      vertex -0.75 -1.29904 5
    endloop
  endfacet
  facet normal 0 0 1
    outer loop
      vertex -1.125 -1.94856 5
      vertex -0.75 -1.29904 5
      vertex -0.881678 -1.21352 5
    endloop
  endfacet
  facet normal 0 0 1
    outer loop
      vertex -0.610105 -1.37032 5
      vertex -0.915157 -2.05548 5
      vertex -0.695288 -2.13988 5
    endloop
  endfacet
  facet normal 0 0 1
    outer loop
      vertex -1.32252 -1.82029 5
      vertex -0.881678 -1.21352 5
      vertex -1.0037 -1.11472 5
    endloop
  endfacet
  facet normal 0 0 1
    outer loop
      vertex -1.50554 -1.67208 5
      vertex -1.0037 -1.11472 5
      vertex -1.11472 -1.0037 5
    endloop
  endfacet
  facet normal 0 0 1
    outer loop
      vertex -0.75 -1.29904 5
      vertex -1.125 -1.94856 5
      vertex -0.915157 -2.05548 5
    endloop
  endfacet
  facet normal 0 0 1
    outer loop
      vertex -1.67208 -1.50554 5
      vertex -1.11472 -1.0037 5
      vertex -1.21352 -0.881678 5
    endloop
  endfacet
  facet normal 0 0 1
    outer loop
      vertex -1.82029 -1.32252 5
      vertex -1.21352 -0.881678 5
      vertex -1.29904 -0.75 5
    endloop
  endfacet
  facet normal 0 0 1
    outer loop
      vertex -0.881678 -1.21352 5
      vertex -1.32252 -1.82029 5
      vertex -1.125 -1.94856 5
    endloop
  endfacet
  facet normal 0 0 1
    outer loop
      vertex -1.94856 -1.125 5
      vertex -1.29904 -0.75 5
      vertex -1.37032 -0.610105 5
    endloop
  endfacet
  facet normal 0 0 1
    outer loop
      vertex -2.05548 -0.915157 5
      vertex -1.37032 -0.610105 5
      vertex -1.42658 -0.463525 5
    endloop
  endfacet
  facet normal 0 0 1
    outer loop
      vertex -2.13988 -0.695288 5
      vertex -1.42658 -0.463525 5
      vertex -1.46722 -0.311867 5
    endloop
  endfacet
  facet normal 0 0 1
    outer loop
      vertex -2.20083 -0.467801 5
      vertex -1.46722 -0.311867 5
      vertex -1.49178 -0.156793 5
    endloop
  endfacet
  facet normal 0 0 1
    outer loop
      vertex -1.0037 -1.11472 5
      vertex -1.50554 -1.67208 5
      vertex -1.32252 -1.82029 5
    endloop
  endfacet
  facet normal 0 0 1
    outer loop
      vertex -2.23767 -0.235188 5
      vertex -1.49178 -0.156793 5
      vertex -1.5 0 5
    endloop
  endfacet
  facet normal 0 0 1
    outer loop
      vertex -1.37032 0.610105 5
      vertex -2.05548 0.915157 5
      vertex -1.42658 0.463525 5
    endloop
  endfacet
  facet normal -0 0 1
    outer loop
      vertex -2.13988 0.695288 5
      vertex -1.42658 0.463525 5
      vertex -2.05548 0.915157 5
    endloop
  endfacet
  facet normal 0 0 1
    outer loop
      vertex -1.11472 -1.0037 5
      vertex -1.67208 -1.50554 5
      vertex -1.50554 -1.67208 5
    endloop
  endfacet
  facet normal 0 0 1
    outer loop
      vertex -1.42658 0.463525 5
      vertex -2.13988 0.695288 5
      vertex -1.46722 0.311867 5
    endloop
  endfacet
  facet normal 0 0 1
    outer loop
      vertex -1.21352 -0.881678 5
      vertex -1.82029 -1.32252 5
      vertex -1.67208 -1.50554 5
    endloop
  endfacet
  facet normal -0 0 1
    outer loop
      vertex -2.20083 0.467801 5
      vertex -1.46722 0.311867 5
      vertex -2.13988 0.695288 5
    endloop
  endfacet
  facet normal 0 0 1
    outer loop
      vertex -1.29904 -0.75 5
      vertex -1.94856 -1.125 5
      vertex -1.82029 -1.32252 5
    endloop
  endfacet
  facet normal 0 0 1
    outer loop
      vertex -1.46722 0.311867 5
      vertex -2.20083 0.467801 5
      vertex -1.49178 0.156793 5
    endloop
  endfacet
  facet normal 0 0 1
    outer loop
      vertex -1.37032 -0.610105 5
      vertex -2.05548 -0.915157 5
      vertex -1.94856 -1.125 5
    endloop
  endfacet
  facet normal -0 0 1
    outer loop
      vertex -2.23767 0.235188 5
      vertex -1.49178 0.156793 5
      vertex -2.20083 0.467801 5
    endloop
  endfacet
  facet normal 0 0 1
    outer loop
      vertex -1.42658 -0.463525 5
      vertex -2.13988 -0.695288 5
      vertex -2.05548 -0.915157 5
    endloop
  endfacet
  facet normal 0 0 1
    outer loop
      vertex -1.49178 0.156793 5
      vertex -2.23767 0.235188 5
      vertex -1.5 0 5
    endloop
  endfacet
  facet normal 0 0 1
    outer loop
      vertex -1.46722 -0.311867 5
      vertex -2.20083 -0.467801 5
      vertex -2.13988 -0.695288 5
    endloop
  endfacet
  facet normal 0 0 1
    outer loop
      vertex -2.25 0 5
      vertex -1.5 0 5
      vertex -2.23767 0.235188 5
    endloop
  endfacet
  facet normal 0 0 1
    outer loop
      vertex -1.49178 -0.156793 5
      vertex -2.23767 -0.235188 5
      vertex -2.20083 -0.467801 5
    endloop
  endfacet
  facet normal 0 0 1
    outer loop
      vertex -1.5 0 5
      vertex -2.25 0 5
      vertex -2.23767 -0.235188 5
    endloop
  endfacet
  facet normal -0.891007 0.453989 0
    outer loop
      vertex -2.05548 0.915157 0
      vertex -1.94856 1.125 5
      vertex -1.94856 1.125 0
    endloop
  endfacet
  facet normal -0.891007 0.453989 0
    outer loop
      vertex -1.94856 1.125 5
      vertex -2.05548 0.915157 0
      vertex -2.05548 0.915157 5
    endloop
  endfacet
  facet normal 0.0523539 0.998629 -0
    outer loop
      vertex 0 -1.5 0
      vertex -0.156793 -1.49178 5
      vertex 0 -1.5 5
    endloop
  endfacet
  facet normal 0.0523539 0.998629 0
    outer loop
      vertex -0.156793 -1.49178 5
      vertex 0 -1.5 0
      vertex -0.156793 -1.49178 0
    endloop
  endfacet
  facet normal -0.998629 -0.0523539 0
    outer loop
      vertex 1.5 0 0
      vertex 1.49178 0.156793 5
      vertex 1.49178 0.156793 0
    endloop
  endfacet
  facet normal -0.998629 -0.0523539 0
    outer loop
      vertex 1.49178 0.156793 5
      vertex 1.5 0 0
      vertex 1.5 0 5
    endloop
  endfacet
  facet normal -0.707107 -0.707107 0
    outer loop
      vertex 1.11472 1.0037 0
      vertex 1.0037 1.11472 5
      vertex 1.0037 1.11472 0
    endloop
  endfacet
  facet normal -0.707107 -0.707107 0
    outer loop
      vertex 1.0037 1.11472 5
      vertex 1.11472 1.0037 0
      vertex 1.11472 1.0037 5
    endloop
  endfacet
  facet normal 0.998629 -0.0523539 0
    outer loop
      vertex -1.5 0 5
      vertex -1.49178 0.156793 0
      vertex -1.49178 0.156793 5
    endloop
  endfacet
  facet normal 0.998629 -0.0523539 0
    outer loop
      vertex -1.49178 0.156793 0
      vertex -1.5 0 5
      vertex -1.5 0 0
    endloop
  endfacet
  facet normal -0.98769 -0.156426 0
    outer loop
      vertex 1.49178 0.156793 0
      vertex 1.46722 0.311867 5
      vertex 1.46722 0.311867 0
    endloop
  endfacet
  facet normal -0.98769 -0.156426 0
    outer loop
      vertex 1.46722 0.311867 5
      vertex 1.49178 0.156793 0
      vertex 1.49178 0.156793 5
    endloop
  endfacet
  facet normal 0.777182 0.629276 0
    outer loop
      vertex -1.11472 -1.0037 5
      vertex -1.21352 -0.881678 0
      vertex -1.21352 -0.881678 5
    endloop
  endfacet
  facet normal 0.777182 0.629276 0
    outer loop
      vertex -1.21352 -0.881678 0
      vertex -1.11472 -1.0037 5
      vertex -1.11472 -1.0037 0
    endloop
  endfacet
  facet normal 0.0523539 -0.998629 0
    outer loop
      vertex -0.156793 1.49178 0
      vertex 0 1.5 5
      vertex -0.156793 1.49178 5
    endloop
  endfacet
  facet normal 0.0523539 -0.998629 0
    outer loop
      vertex 0 1.5 5
      vertex -0.156793 1.49178 0
      vertex 0 1.5 0
    endloop
  endfacet
  facet normal 0.45399 -0.891007 0
    outer loop
      vertex -0.75 1.29904 0
      vertex -0.610105 1.37032 5
      vertex -0.75 1.29904 5
    endloop
  endfacet
  facet normal 0.45399 -0.891007 0
    outer loop
      vertex -0.610105 1.37032 5
      vertex -0.75 1.29904 0
      vertex -0.610105 1.37032 0
    endloop
  endfacet
  facet normal -0.838649 0.544672 0
    outer loop
      vertex 1.21352 -0.881678 0
      vertex 1.29904 -0.75 5
      vertex 1.29904 -0.75 0
    endloop
  endfacet
  facet normal -0.838649 0.544672 0
    outer loop
      vertex 1.29904 -0.75 5
      vertex 1.21352 -0.881678 0
      vertex 1.21352 -0.881678 5
    endloop
  endfacet
  facet normal -0.891007 -0.45399 0
    outer loop
      vertex 1.37032 0.610105 0
      vertex 1.29904 0.75 5
      vertex 1.29904 0.75 0
    endloop
  endfacet
  facet normal -0.891007 -0.45399 0
    outer loop
      vertex 1.29904 0.75 5
      vertex 1.37032 0.610105 0
      vertex 1.37032 0.610105 5
    endloop
  endfacet
  facet normal -0.96592 -0.258839 0
    outer loop
      vertex 1.46722 0.311867 0
      vertex 1.42658 0.463525 5
      vertex 1.42658 0.463525 0
    endloop
  endfacet
  facet normal -0.96592 -0.258839 0
    outer loop
      vertex 1.42658 0.463525 5
      vertex 1.46722 0.311867 0
      vertex 1.46722 0.311867 5
    endloop
  endfacet
  facet normal -0.777182 -0.629276 0
    outer loop
      vertex 1.21352 0.881678 0
      vertex 1.11472 1.0037 5
      vertex 1.11472 1.0037 0
    endloop
  endfacet
  facet normal -0.777182 -0.629276 0
    outer loop
      vertex 1.11472 1.0037 5
      vertex 1.21352 0.881678 0
      vertex 1.21352 0.881678 5
    endloop
  endfacet
  facet normal 0.96592 0.258839 0
    outer loop
      vertex -1.42658 -0.463525 5
      vertex -1.46722 -0.311867 0
      vertex -1.46722 -0.311867 5
    endloop
  endfacet
  facet normal 0.96592 0.258839 0
    outer loop
      vertex -1.46722 -0.311867 0
      vertex -1.42658 -0.463525 5
      vertex -1.42658 -0.463525 0
    endloop
  endfacet
  facet normal -0.45399 -0.891007 0
    outer loop
      vertex 0.610105 1.37032 0
      vertex 0.75 1.29904 5
      vertex 0.610105 1.37032 5
    endloop
  endfacet
  facet normal -0.45399 -0.891007 -0
    outer loop
      vertex 0.75 1.29904 5
      vertex 0.610105 1.37032 0
      vertex 0.75 1.29904 0
    endloop
  endfacet
  facet normal 0.98769 0.156426 0
    outer loop
      vertex -1.46722 -0.311867 5
      vertex -1.49178 -0.156793 0
      vertex -1.49178 -0.156793 5
    endloop
  endfacet
  facet normal 0.98769 0.156426 0
    outer loop
      vertex -1.49178 -0.156793 0
      vertex -1.46722 -0.311867 5
      vertex -1.46722 -0.311867 0
    endloop
  endfacet
  facet normal -0.544672 -0.838649 0
    outer loop
      vertex 0.75 1.29904 0
      vertex 0.881678 1.21352 5
      vertex 0.75 1.29904 5
    endloop
  endfacet
  facet normal -0.544672 -0.838649 -0
    outer loop
      vertex 0.881678 1.21352 5
      vertex 0.75 1.29904 0
      vertex 0.881678 1.21352 0
    endloop
  endfacet
  facet normal -0.998629 0.0523539 0
    outer loop
      vertex 1.49178 -0.156793 0
      vertex 1.5 0 5
      vertex 1.5 0 0
    endloop
  endfacet
  facet normal -0.998629 0.0523539 0
    outer loop
      vertex 1.5 0 5
      vertex 1.49178 -0.156793 0
      vertex 1.49178 -0.156793 5
    endloop
  endfacet
  facet normal -0.544672 0.838649 0
    outer loop
      vertex 0.881678 -1.21352 0
      vertex 0.75 -1.29904 5
      vertex 0.881678 -1.21352 5
    endloop
  endfacet
  facet normal -0.544672 0.838649 0
    outer loop
      vertex 0.75 -1.29904 5
      vertex 0.881678 -1.21352 0
      vertex 0.75 -1.29904 0
    endloop
  endfacet
  facet normal -0.96592 0.258839 0
    outer loop
      vertex 1.42658 -0.463525 0
      vertex 1.46722 -0.311867 5
      vertex 1.46722 -0.311867 0
    endloop
  endfacet
  facet normal -0.96592 0.258839 0
    outer loop
      vertex 1.46722 -0.311867 5
      vertex 1.42658 -0.463525 0
      vertex 1.42658 -0.463525 5
    endloop
  endfacet
  facet normal -0.156426 0.98769 0
    outer loop
      vertex 0.311867 -1.46722 0
      vertex 0.156793 -1.49178 5
      vertex 0.311867 -1.46722 5
    endloop
  endfacet
  facet normal -0.156426 0.98769 0
    outer loop
      vertex 0.156793 -1.49178 5
      vertex 0.311867 -1.46722 0
      vertex 0.156793 -1.49178 0
    endloop
  endfacet
  facet normal -0.933595 -0.35833 0
    outer loop
      vertex 1.42658 0.463525 0
      vertex 1.37032 0.610105 5
      vertex 1.37032 0.610105 0
    endloop
  endfacet
  facet normal -0.933595 -0.35833 0
    outer loop
      vertex 1.37032 0.610105 5
      vertex 1.42658 0.463525 0
      vertex 1.42658 0.463525 5
    endloop
  endfacet
  facet normal 0.35833 0.933595 -0
    outer loop
      vertex -0.463525 -1.42658 0
      vertex -0.610105 -1.37032 5
      vertex -0.463525 -1.42658 5
    endloop
  endfacet
  facet normal 0.35833 0.933595 0
    outer loop
      vertex -0.610105 -1.37032 5
      vertex -0.463525 -1.42658 0
      vertex -0.610105 -1.37032 0
    endloop
  endfacet
  facet normal 0.156426 0.98769 -0
    outer loop
      vertex -0.156793 -1.49178 0
      vertex -0.311867 -1.46722 5
      vertex -0.156793 -1.49178 5
    endloop
  endfacet
  facet normal 0.156426 0.98769 0
    outer loop
      vertex -0.311867 -1.46722 5
      vertex -0.156793 -1.49178 0
      vertex -0.311867 -1.46722 0
    endloop
  endfacet
  facet normal -0.838649 -0.544672 0
    outer loop
      vertex 1.29904 0.75 0
      vertex 1.21352 0.881678 5
      vertex 1.21352 0.881678 0
    endloop
  endfacet
  facet normal -0.838649 -0.544672 0
    outer loop
      vertex 1.21352 0.881678 5
      vertex 1.29904 0.75 0
      vertex 1.29904 0.75 5
    endloop
  endfacet
  facet normal -0.35833 -0.933595 0
    outer loop
      vertex 0.463525 1.42658 0
      vertex 0.610105 1.37032 5
      vertex 0.463525 1.42658 5
    endloop
  endfacet
  facet normal -0.35833 -0.933595 -0
    outer loop
      vertex 0.610105 1.37032 5
      vertex 0.463525 1.42658 0
      vertex 0.610105 1.37032 0
    endloop
  endfacet
  facet normal -0.98769 0.156426 0
    outer loop
      vertex 1.46722 -0.311867 0
      vertex 1.49178 -0.156793 5
      vertex 1.49178 -0.156793 0
    endloop
  endfacet
  facet normal -0.98769 0.156426 0
    outer loop
      vertex 1.49178 -0.156793 5
      vertex 1.46722 -0.311867 0
      vertex 1.46722 -0.311867 5
    endloop
  endfacet
  facet normal 0.258839 0.96592 -0
    outer loop
      vertex -0.311867 -1.46722 0
      vertex -0.463525 -1.42658 5
      vertex -0.311867 -1.46722 5
    endloop
  endfacet
  facet normal 0.258839 0.96592 0
    outer loop
      vertex -0.463525 -1.42658 5
      vertex -0.311867 -1.46722 0
      vertex -0.463525 -1.42658 0
    endloop
  endfacet
  facet normal -0.777182 0.629276 0
    outer loop
      vertex 1.11472 -1.0037 0
      vertex 1.21352 -0.881678 5
      vertex 1.21352 -0.881678 0
    endloop
  endfacet
  facet normal -0.777182 0.629276 0
    outer loop
      vertex 1.21352 -0.881678 5
      vertex 1.11472 -1.0037 0
      vertex 1.11472 -1.0037 5
    endloop
  endfacet
  facet normal 0.629276 0.777182 -0
    outer loop
      vertex -0.881678 -1.21352 0
      vertex -1.0037 -1.11472 5
      vertex -0.881678 -1.21352 5
    endloop
  endfacet
  facet normal 0.629276 0.777182 0
    outer loop
      vertex -1.0037 -1.11472 5
      vertex -0.881678 -1.21352 0
      vertex -1.0037 -1.11472 0
    endloop
  endfacet
  facet normal 0.998629 0.0523539 0
    outer loop
      vertex -1.49178 -0.156793 5
      vertex -1.5 0 0
      vertex -1.5 0 5
    endloop
  endfacet
  facet normal 0.998629 0.0523539 0
    outer loop
      vertex -1.5 0 0
      vertex -1.49178 -0.156793 5
      vertex -1.49178 -0.156793 0
    endloop
  endfacet
  facet normal 0.544672 -0.838649 0
    outer loop
      vertex -0.881678 1.21352 0
      vertex -0.75 1.29904 5
      vertex -0.881678 1.21352 5
    endloop
  endfacet
  facet normal 0.544672 -0.838649 0
    outer loop
      vertex -0.75 1.29904 5
      vertex -0.881678 1.21352 0
      vertex -0.75 1.29904 0
    endloop
  endfacet
  facet normal -0.707107 0.707107 0
    outer loop
      vertex 1.0037 -1.11472 0
      vertex 1.11472 -1.0037 5
      vertex 1.11472 -1.0037 0
    endloop
  endfacet
  facet normal -0.707107 0.707107 0
    outer loop
      vertex 1.11472 -1.0037 5
      vertex 1.0037 -1.11472 0
      vertex 1.0037 -1.11472 5
    endloop
  endfacet
  facet normal 0.707107 -0.707107 0
    outer loop
      vertex -1.11472 1.0037 5
      vertex -1.0037 1.11472 0
      vertex -1.0037 1.11472 5
    endloop
  endfacet
  facet normal 0.707107 -0.707107 0
    outer loop
      vertex -1.0037 1.11472 0
      vertex -1.11472 1.0037 5
      vertex -1.11472 1.0037 0
    endloop
  endfacet
  facet normal -0.45399 0.891007 0
    outer loop
      vertex 0.75 -1.29904 0
      vertex 0.610105 -1.37032 5
      vertex 0.75 -1.29904 5
    endloop
  endfacet
  facet normal -0.45399 0.891007 0
    outer loop
      vertex 0.610105 -1.37032 5
      vertex 0.75 -1.29904 0
      vertex 0.610105 -1.37032 0
    endloop
  endfacet
  facet normal 0.891007 0.45399 0
    outer loop
      vertex -1.29904 -0.75 5
      vertex -1.37032 -0.610105 0
      vertex -1.37032 -0.610105 5
    endloop
  endfacet
  facet normal 0.891007 0.45399 0
    outer loop
      vertex -1.37032 -0.610105 0
      vertex -1.29904 -0.75 5
      vertex -1.29904 -0.75 0
    endloop
  endfacet
  facet normal 0.544672 0.838649 -0
    outer loop
      vertex -0.75 -1.29904 0
      vertex -0.881678 -1.21352 5
      vertex -0.75 -1.29904 5
    endloop
  endfacet
  facet normal 0.544672 0.838649 0
    outer loop
      vertex -0.881678 -1.21352 5
      vertex -0.75 -1.29904 0
      vertex -0.881678 -1.21352 0
    endloop
  endfacet
  facet normal 0.629276 -0.777182 0
    outer loop
      vertex -1.0037 1.11472 0
      vertex -0.881678 1.21352 5
      vertex -1.0037 1.11472 5
    endloop
  endfacet
  facet normal 0.629276 -0.777182 0
    outer loop
      vertex -0.881678 1.21352 5
      vertex -1.0037 1.11472 0
      vertex -0.881678 1.21352 0
    endloop
  endfacet
  facet normal 0.707107 0.707107 0
    outer loop
      vertex -1.0037 -1.11472 5
      vertex -1.11472 -1.0037 0
      vertex -1.11472 -1.0037 5
    endloop
  endfacet
  facet normal 0.707107 0.707107 0
    outer loop
      vertex -1.11472 -1.0037 0
      vertex -1.0037 -1.11472 5
      vertex -1.0037 -1.11472 0
    endloop
  endfacet
  facet normal -0.0523539 0.998629 0
    outer loop
      vertex 0.156793 -1.49178 0
      vertex 0 -1.5 5
      vertex 0.156793 -1.49178 5
    endloop
  endfacet
  facet normal -0.0523539 0.998629 0
    outer loop
      vertex 0 -1.5 5
      vertex 0.156793 -1.49178 0
      vertex 0 -1.5 0
    endloop
  endfacet
  facet normal 0.96592 -0.258839 0
    outer loop
      vertex -1.46722 0.311867 5
      vertex -1.42658 0.463525 0
      vertex -1.42658 0.463525 5
    endloop
  endfacet
  facet normal 0.96592 -0.258839 0
    outer loop
      vertex -1.42658 0.463525 0
      vertex -1.46722 0.311867 5
      vertex -1.46722 0.311867 0
    endloop
  endfacet
  facet normal 0.45399 0.891007 -0
    outer loop
      vertex -0.610105 -1.37032 0
      vertex -0.75 -1.29904 5
      vertex -0.610105 -1.37032 5
    endloop
  endfacet
  facet normal 0.45399 0.891007 0
    outer loop
      vertex -0.75 -1.29904 5
      vertex -0.610105 -1.37032 0
      vertex -0.75 -1.29904 0
    endloop
  endfacet
  facet normal 0.891007 -0.45399 0
    outer loop
      vertex -1.37032 0.610105 5
      vertex -1.29904 0.75 0
      vertex -1.29904 0.75 5
    endloop
  endfacet
  facet normal 0.891007 -0.45399 0
    outer loop
      vertex -1.29904 0.75 0
      vertex -1.37032 0.610105 5
      vertex -1.37032 0.610105 0
    endloop
  endfacet
  facet normal 0.258839 -0.96592 0
    outer loop
      vertex -0.463525 1.42658 0
      vertex -0.311867 1.46722 5
      vertex -0.463525 1.42658 5
    endloop
  endfacet
  facet normal 0.258839 -0.96592 0
    outer loop
      vertex -0.311867 1.46722 5
      vertex -0.463525 1.42658 0
      vertex -0.311867 1.46722 0
    endloop
  endfacet
  facet normal 0.933595 0.35833 0
    outer loop
      vertex -1.37032 -0.610105 5
      vertex -1.42658 -0.463525 0
      vertex -1.42658 -0.463525 5
    endloop
  endfacet
  facet normal 0.933595 0.35833 0
    outer loop
      vertex -1.42658 -0.463525 0
      vertex -1.37032 -0.610105 5
      vertex -1.37032 -0.610105 0
    endloop
  endfacet
  facet normal 0.838649 0.544672 0
    outer loop
      vertex -1.21352 -0.881678 5
      vertex -1.29904 -0.75 0
      vertex -1.29904 -0.75 5
    endloop
  endfacet
  facet normal 0.838649 0.544672 0
    outer loop
      vertex -1.29904 -0.75 0
      vertex -1.21352 -0.881678 5
      vertex -1.21352 -0.881678 0
    endloop
  endfacet
  facet normal -0.629276 -0.777182 0
    outer loop
      vertex 0.881678 1.21352 0
      vertex 1.0037 1.11472 5
      vertex 0.881678 1.21352 5
    endloop
  endfacet
  facet normal -0.629276 -0.777182 -0
    outer loop
      vertex 1.0037 1.11472 5
      vertex 0.881678 1.21352 0
      vertex 1.0037 1.11472 0
    endloop
  endfacet
  facet normal 0.156426 -0.98769 0
    outer loop
      vertex -0.311867 1.46722 0
      vertex -0.156793 1.49178 5
      vertex -0.311867 1.46722 5
    endloop
  endfacet
  facet normal 0.156426 -0.98769 0
    outer loop
      vertex -0.156793 1.49178 5
      vertex -0.311867 1.46722 0
      vertex -0.156793 1.49178 0
    endloop
  endfacet
  facet normal 0.98769 -0.156426 0
    outer loop
      vertex -1.49178 0.156793 5
      vertex -1.46722 0.311867 0
      vertex -1.46722 0.311867 5
    endloop
  endfacet
  facet normal 0.98769 -0.156426 0
    outer loop
      vertex -1.46722 0.311867 0
      vertex -1.49178 0.156793 5
      vertex -1.49178 0.156793 0
    endloop
  endfacet
  facet normal -0.258839 -0.96592 0
    outer loop
      vertex 0.311867 1.46722 0
      vertex 0.463525 1.42658 5
      vertex 0.311867 1.46722 5
    endloop
  endfacet
  facet normal -0.258839 -0.96592 -0
    outer loop
      vertex 0.463525 1.42658 5
      vertex 0.311867 1.46722 0
      vertex 0.463525 1.42658 0
    endloop
  endfacet
  facet normal 0.933595 -0.35833 0
    outer loop
      vertex -1.42658 0.463525 5
      vertex -1.37032 0.610105 0
      vertex -1.37032 0.610105 5
    endloop
  endfacet
  facet normal 0.933595 -0.35833 0
    outer loop
      vertex -1.37032 0.610105 0
      vertex -1.42658 0.463525 5
      vertex -1.42658 0.463525 0
    endloop
  endfacet
  facet normal 0.35833 -0.933595 0
    outer loop
      vertex -0.610105 1.37032 0
      vertex -0.463525 1.42658 5
      vertex -0.610105 1.37032 5
    endloop
  endfacet
  facet normal 0.35833 -0.933595 0
    outer loop
      vertex -0.463525 1.42658 5
      vertex -0.610105 1.37032 0
      vertex -0.463525 1.42658 0
    endloop
  endfacet
  facet normal -0.35833 0.933595 0
    outer loop
      vertex 0.610105 -1.37032 0
      vertex 0.463525 -1.42658 5
      vertex 0.610105 -1.37032 5
    endloop
  endfacet
  facet normal -0.35833 0.933595 0
    outer loop
      vertex 0.463525 -1.42658 5
      vertex 0.610105 -1.37032 0
      vertex 0.463525 -1.42658 0
    endloop
  endfacet
  facet normal 0.838649 -0.544672 0
    outer loop
      vertex -1.29904 0.75 5
      vertex -1.21352 0.881678 0
      vertex -1.21352 0.881678 5
    endloop
  endfacet
  facet normal 0.838649 -0.544672 0
    outer loop
      vertex -1.21352 0.881678 0
      vertex -1.29904 0.75 5
      vertex -1.29904 0.75 0
    endloop
  endfacet
  facet normal -0.258839 0.96592 0
    outer loop
      vertex 0.463525 -1.42658 0
      vertex 0.311867 -1.46722 5
      vertex 0.463525 -1.42658 5
    endloop
  endfacet
  facet normal -0.258839 0.96592 0
    outer loop
      vertex 0.311867 -1.46722 5
      vertex 0.463525 -1.42658 0
      vertex 0.311867 -1.46722 0
    endloop
  endfacet
  facet normal -0.891007 0.45399 0
    outer loop
      vertex 1.29904 -0.75 0
      vertex 1.37032 -0.610105 5
      vertex 1.37032 -0.610105 0
    endloop
  endfacet
  facet normal -0.891007 0.45399 0
    outer loop
      vertex 1.37032 -0.610105 5
      vertex 1.29904 -0.75 0
      vertex 1.29904 -0.75 5
    endloop
  endfacet
  facet normal -0.933595 0.35833 0
    outer loop
      vertex 1.37032 -0.610105 0
      vertex 1.42658 -0.463525 5
      vertex 1.42658 -0.463525 0
    endloop
  endfacet
  facet normal -0.933595 0.35833 0
    outer loop
      vertex 1.42658 -0.463525 5
      vertex 1.37032 -0.610105 0
      vertex 1.37032 -0.610105 5
    endloop
  endfacet
  facet normal -0.156426 -0.98769 0
    outer loop
      vertex 0.156793 1.49178 0
      vertex 0.311867 1.46722 5
      vertex 0.156793 1.49178 5
    endloop
  endfacet
  facet normal -0.156426 -0.98769 -0
    outer loop
      vertex 0.311867 1.46722 5
      vertex 0.156793 1.49178 0
      vertex 0.311867 1.46722 0
    endloop
  endfacet
  facet normal -0.0523539 -0.998629 0
    outer loop
      vertex 0 1.5 0
      vertex 0.156793 1.49178 5
      vertex 0 1.5 5
    endloop
  endfacet
  facet normal -0.0523539 -0.998629 -0
    outer loop
      vertex 0.156793 1.49178 5
      vertex 0 1.5 0
      vertex 0.156793 1.49178 0
    endloop
  endfacet
  facet normal 0.777182 -0.629276 0
    outer loop
      vertex -1.21352 0.881678 5
      vertex -1.11472 1.0037 0
      vertex -1.11472 1.0037 5
    endloop
  endfacet
  facet normal 0.777182 -0.629276 0
    outer loop
      vertex -1.11472 1.0037 0
      vertex -1.21352 0.881678 5
      vertex -1.21352 0.881678 0
    endloop
  endfacet
  facet normal -0.629276 0.777182 0
    outer loop
      vertex 1.0037 -1.11472 0
      vertex 0.881678 -1.21352 5
      vertex 1.0037 -1.11472 5
    endloop
  endfacet
  facet normal -0.629276 0.777182 0
    outer loop
      vertex 0.881678 -1.21352 5
      vertex 1.0037 -1.11472 0
      vertex 0.881678 -1.21352 0
    endloop
  endfacet
endsolid OpenSCAD_Model
