solid OpenSCAD_Model
  facet normal 1 0 0
    outer loop
      vertex 11 -53.1 -90
      vertex 11 -66 -91.5
      vertex 11 -62 -91.5
    endloop
  endfacet
  facet normal 1 0 0
    outer loop
      vertex 11 -78.7931 -96.9435
      vertex 11 -66 -94.5
      vertex 11 -66 -91.5
    endloop
  endfacet
  facet normal 1 0 -0
    outer loop
      vertex 11 -77.8 -100
      vertex 11 -66 -94.5
      vertex 11 -77.864 -99.1865
    endloop
  endfacet
  facet normal 1 -0 0
    outer loop
      vertex 11 -77.864 -100.813
      vertex 11 -66 -105.5
      vertex 11 -77.8 -100
    endloop
  endfacet
  facet normal 1 0 0
    outer loop
      vertex 11 -66 -94.5
      vertex 11 -77.8 -100
      vertex 11 -66 -105.5
    endloop
  endfacet
  facet normal 1 0 0
    outer loop
      vertex 11 -66 -94.5
      vertex 11 -78.0545 -98.3931
      vertex 11 -77.864 -99.1865
    endloop
  endfacet
  facet normal 1 0 0
    outer loop
      vertex 11 -66 -94.5
      vertex 11 -78.3668 -97.6393
      vertex 11 -78.0545 -98.3931
    endloop
  endfacet
  facet normal 1 0 0
    outer loop
      vertex 11 -66 -94.5
      vertex 11 -78.7931 -96.9435
      vertex 11 -78.3668 -97.6393
    endloop
  endfacet
  facet normal 1 0 0
    outer loop
      vertex 11 -66 -91.5
      vertex 11 -79.323 -96.323
      vertex 11 -78.7931 -96.9435
    endloop
  endfacet
  facet normal 1 0 0
    outer loop
      vertex 11 -66 -91.5
      vertex 11 -79.9435 -95.7931
      vertex 11 -79.323 -96.323
    endloop
  endfacet
  facet normal 1 0 0
    outer loop
      vertex 11 -66 -91.5
      vertex 11 -80.6393 -95.3668
      vertex 11 -79.9435 -95.7931
    endloop
  endfacet
  facet normal 1 0 0
    outer loop
      vertex 11 -66 -91.5
      vertex 11 -81.3931 -95.0545
      vertex 11 -80.6393 -95.3668
    endloop
  endfacet
  facet normal 1 0 0
    outer loop
      vertex 11 -89.9 -90
      vertex 11 -81.3931 -95.0545
      vertex 11 -66 -91.5
    endloop
  endfacet
  facet normal 1 0 0
    outer loop
      vertex 11 -81.3931 -95.0545
      vertex 11 -89.9 -90
      vertex 11 -82.1865 -94.864
    endloop
  endfacet
  facet normal 1 0 0
    outer loop
      vertex 11 -82.1865 -94.864
      vertex 11 -89.9 -90
      vertex 11 -83 -94.8
    endloop
  endfacet
  facet normal 1 0 0
    outer loop
      vertex 11 -87.9455 -98.3931
      vertex 11 -99.9 -100
      vertex 11 -88.136 -99.1865
    endloop
  endfacet
  facet normal 1 0 0
    outer loop
      vertex 11 -99.9 -100
      vertex 11 -87.9455 -98.3931
      vertex 11 -89.9 -90
    endloop
  endfacet
  facet normal 1 0 0
    outer loop
      vertex 11 -87.6332 -97.6393
      vertex 11 -89.9 -90
      vertex 11 -87.9455 -98.3931
    endloop
  endfacet
  facet normal 1 0 0
    outer loop
      vertex 11 -87.2069 -96.9435
      vertex 11 -89.9 -90
      vertex 11 -87.6332 -97.6393
    endloop
  endfacet
  facet normal 1 0 0
    outer loop
      vertex 11 -86.677 -96.323
      vertex 11 -89.9 -90
      vertex 11 -87.2069 -96.9435
    endloop
  endfacet
  facet normal 1 0 0
    outer loop
      vertex 11 -86.0565 -95.7931
      vertex 11 -89.9 -90
      vertex 11 -86.677 -96.323
    endloop
  endfacet
  facet normal 1 0 0
    outer loop
      vertex 11 -85.3607 -95.3668
      vertex 11 -89.9 -90
      vertex 11 -86.0565 -95.7931
    endloop
  endfacet
  facet normal 1 0 0
    outer loop
      vertex 11 -84.6069 -95.0545
      vertex 11 -89.9 -90
      vertex 11 -85.3607 -95.3668
    endloop
  endfacet
  facet normal 1 0 0
    outer loop
      vertex 11 -83.8135 -94.864
      vertex 11 -89.9 -90
      vertex 11 -84.6069 -95.0545
    endloop
  endfacet
  facet normal 1 0 0
    outer loop
      vertex 11 -83 -94.8
      vertex 11 -89.9 -90
      vertex 11 -83.8135 -94.864
    endloop
  endfacet
  facet normal 1 -0 0
    outer loop
      vertex 11 -89.9 -90
      vertex 11 -66 -91.5
      vertex 11 -53.1 -90
    endloop
  endfacet
  facet normal 1 0 0
    outer loop
      vertex 11 -62 -94.5
      vertex 11 -53.1 -90
      vertex 11 -62 -91.5
    endloop
  endfacet
  facet normal 1 -0 0
    outer loop
      vertex 11 -62 -94.5
      vertex 11 -63.1 -100
      vertex 11 -53.1 -90
    endloop
  endfacet
  facet normal 1 0 -0
    outer loop
      vertex 11 -63.1 -100
      vertex 11 -62 -94.5
      vertex 11 -66 -94.5
    endloop
  endfacet
  facet normal 1 0 0
    outer loop
      vertex 11 -63.1 -100
      vertex 11 -62 -105.5
      vertex 11 -53.1 -110
    endloop
  endfacet
  facet normal 1 0 0
    outer loop
      vertex 11 -66 -105.5
      vertex 11 -63.1 -100
      vertex 11 -66 -94.5
    endloop
  endfacet
  facet normal 1 0 0
    outer loop
      vertex 11 -63.1 -100
      vertex 11 -66 -105.5
      vertex 11 -62 -105.5
    endloop
  endfacet
  facet normal 1 -0 0
    outer loop
      vertex 11 -62 -108.5
      vertex 11 -53.1 -110
      vertex 11 -62 -105.5
    endloop
  endfacet
  facet normal 1 -0 0
    outer loop
      vertex 11 -66 -108.5
      vertex 11 -53.1 -110
      vertex 11 -62 -108.5
    endloop
  endfacet
  facet normal 1 -0 0
    outer loop
      vertex 11 -78.0545 -101.607
      vertex 11 -66 -105.5
      vertex 11 -77.864 -100.813
    endloop
  endfacet
  facet normal 1 -0 0
    outer loop
      vertex 11 -78.3668 -102.361
      vertex 11 -66 -105.5
      vertex 11 -78.0545 -101.607
    endloop
  endfacet
  facet normal 1 -0 0
    outer loop
      vertex 11 -78.7931 -103.056
      vertex 11 -66 -105.5
      vertex 11 -78.3668 -102.361
    endloop
  endfacet
  facet normal 1 0 0
    outer loop
      vertex 11 -66 -105.5
      vertex 11 -78.7931 -103.056
      vertex 11 -66 -108.5
    endloop
  endfacet
  facet normal 1 -0 0
    outer loop
      vertex 11 -79.323 -103.677
      vertex 11 -66 -108.5
      vertex 11 -78.7931 -103.056
    endloop
  endfacet
  facet normal 1 -0 0
    outer loop
      vertex 11 -79.9435 -104.207
      vertex 11 -66 -108.5
      vertex 11 -79.323 -103.677
    endloop
  endfacet
  facet normal 1 -0 0
    outer loop
      vertex 11 -80.6393 -104.633
      vertex 11 -66 -108.5
      vertex 11 -79.9435 -104.207
    endloop
  endfacet
  facet normal 1 -0 0
    outer loop
      vertex 11 -81.3931 -104.945
      vertex 11 -66 -108.5
      vertex 11 -80.6393 -104.633
    endloop
  endfacet
  facet normal 1 0 0
    outer loop
      vertex 11 -89.9 -110
      vertex 11 -81.3931 -104.945
      vertex 11 -82.1865 -105.136
    endloop
  endfacet
  facet normal 1 0 0
    outer loop
      vertex 11 -89.9 -110
      vertex 11 -82.1865 -105.136
      vertex 11 -83 -105.2
    endloop
  endfacet
  facet normal 1 0 0
    outer loop
      vertex 11 -89.9 -110
      vertex 11 -83 -105.2
      vertex 11 -83.8135 -105.136
    endloop
  endfacet
  facet normal 1 0 0
    outer loop
      vertex 11 -88.136 -99.1865
      vertex 11 -99.9 -100
      vertex 11 -88.2 -100
    endloop
  endfacet
  facet normal 1 0 0
    outer loop
      vertex 11 -66 -108.5
      vertex 11 -89.9 -110
      vertex 11 -53.1 -110
    endloop
  endfacet
  facet normal 1 0 0
    outer loop
      vertex 11 -81.3931 -104.945
      vertex 11 -89.9 -110
      vertex 11 -66 -108.5
    endloop
  endfacet
  facet normal 1 0 0
    outer loop
      vertex 11 -84.6069 -104.945
      vertex 11 -89.9 -110
      vertex 11 -83.8135 -105.136
    endloop
  endfacet
  facet normal 1 0 0
    outer loop
      vertex 11 -85.3607 -104.633
      vertex 11 -89.9 -110
      vertex 11 -84.6069 -104.945
    endloop
  endfacet
  facet normal 1 0 0
    outer loop
      vertex 11 -86.0565 -104.207
      vertex 11 -89.9 -110
      vertex 11 -85.3607 -104.633
    endloop
  endfacet
  facet normal 1 0 0
    outer loop
      vertex 11 -86.677 -103.677
      vertex 11 -89.9 -110
      vertex 11 -86.0565 -104.207
    endloop
  endfacet
  facet normal 1 0 0
    outer loop
      vertex 11 -87.2069 -103.056
      vertex 11 -89.9 -110
      vertex 11 -86.677 -103.677
    endloop
  endfacet
  facet normal 1 0 0
    outer loop
      vertex 11 -87.6332 -102.361
      vertex 11 -89.9 -110
      vertex 11 -87.2069 -103.056
    endloop
  endfacet
  facet normal 1 0 0
    outer loop
      vertex 11 -87.9455 -101.607
      vertex 11 -89.9 -110
      vertex 11 -87.6332 -102.361
    endloop
  endfacet
  facet normal 1 0 0
    outer loop
      vertex 11 -99.9 -100
      vertex 11 -87.9455 -101.607
      vertex 11 -88.136 -100.813
    endloop
  endfacet
  facet normal 1 0 0
    outer loop
      vertex 11 -88.2 -100
      vertex 11 -99.9 -100
      vertex 11 -88.136 -100.813
    endloop
  endfacet
  facet normal 1 0 0
    outer loop
      vertex 11 -87.9455 -101.607
      vertex 11 -99.9 -100
      vertex 11 -89.9 -110
    endloop
  endfacet
  facet normal -1 0 0
    outer loop
      vertex -11 -62 -105.5
      vertex -11 -65.9 -100
      vertex -11 -62 -94.5
    endloop
  endfacet
  facet normal -1 0 0
    outer loop
      vertex -11 -66 -105.5
      vertex -11 -65.9 -100
      vertex -11 -62 -105.5
    endloop
  endfacet
  facet normal -1 0 0
    outer loop
      vertex -11 -65.9 -100
      vertex -11 -66 -105.5
      vertex -11 -75.9 -110
    endloop
  endfacet
  facet normal -1 0 0
    outer loop
      vertex -11 -41.5 -100
      vertex -11 -29.1 -100
      vertex -11 -39.1 -110
    endloop
  endfacet
  facet normal -1 0 0
    outer loop
      vertex -11 -29.1 -100
      vertex -11 -41.5 -100
      vertex -11 -39.1 -90
    endloop
  endfacet
  facet normal -1 0 0
    outer loop
      vertex -11 -39.1 -110
      vertex -11 -43.75 -103.897
      vertex -11 -41.5 -100
    endloop
  endfacet
  facet normal -1 0 0
    outer loop
      vertex -11 -39.1 -110
      vertex -11 -48.25 -103.897
      vertex -11 -43.75 -103.897
    endloop
  endfacet
  facet normal -1 0 0
    outer loop
      vertex -11 -62 -105.5
      vertex -11 -48.25 -103.897
      vertex -11 -62 -108.5
    endloop
  endfacet
  facet normal -1 0 0
    outer loop
      vertex -11 -39.1 -110
      vertex -11 -62 -108.5
      vertex -11 -48.25 -103.897
    endloop
  endfacet
  facet normal -1 0 0
    outer loop
      vertex -11 -75.9 -110
      vertex -11 -62 -108.5
      vertex -11 -39.1 -110
    endloop
  endfacet
  facet normal -1 -0 0
    outer loop
      vertex -11 -66 -108.5
      vertex -11 -75.9 -110
      vertex -11 -66 -105.5
    endloop
  endfacet
  facet normal -1 -0 0
    outer loop
      vertex -11 -62 -108.5
      vertex -11 -75.9 -110
      vertex -11 -66 -108.5
    endloop
  endfacet
  facet normal -1 0 0
    outer loop
      vertex -11 -43.75 -96.103
      vertex -11 -39.1 -90
      vertex -11 -41.5 -100
    endloop
  endfacet
  facet normal -1 0 0
    outer loop
      vertex -11 -48.25 -96.103
      vertex -11 -39.1 -90
      vertex -11 -43.75 -96.103
    endloop
  endfacet
  facet normal -1 -0 0
    outer loop
      vertex -11 -48.25 -103.897
      vertex -11 -62 -105.5
      vertex -11 -50.5 -100
    endloop
  endfacet
  facet normal -1 0 0
    outer loop
      vertex -11 -62 -94.5
      vertex -11 -50.5 -100
      vertex -11 -62 -105.5
    endloop
  endfacet
  facet normal -1 0 0
    outer loop
      vertex -11 -50.5 -100
      vertex -11 -62 -94.5
      vertex -11 -48.25 -96.103
    endloop
  endfacet
  facet normal -1 0 0
    outer loop
      vertex -11 -62 -91.5
      vertex -11 -48.25 -96.103
      vertex -11 -62 -94.5
    endloop
  endfacet
  facet normal -1 0 0
    outer loop
      vertex -11 -48.25 -96.103
      vertex -11 -62 -91.5
      vertex -11 -39.1 -90
    endloop
  endfacet
  facet normal -1 0 0
    outer loop
      vertex -11 -75.9 -90
      vertex -11 -62 -91.5
      vertex -11 -66 -91.5
    endloop
  endfacet
  facet normal -1 0 0
    outer loop
      vertex -11 -62 -91.5
      vertex -11 -75.9 -90
      vertex -11 -39.1 -90
    endloop
  endfacet
  facet normal -1 0 0
    outer loop
      vertex -11 -65.9 -100
      vertex -11 -66 -94.5
      vertex -11 -62 -94.5
    endloop
  endfacet
  facet normal -1 0 0
    outer loop
      vertex -11 -66 -94.5
      vertex -11 -75.9 -90
      vertex -11 -66 -91.5
    endloop
  endfacet
  facet normal -1 0 0
    outer loop
      vertex -11 -75.9 -90
      vertex -11 -66 -94.5
      vertex -11 -65.9 -100
    endloop
  endfacet
  facet normal 0 0 1
    outer loop
      vertex -0.1 -39.1 -90
      vertex -11 -39.1 -90
      vertex -0.1 -53.1 -90
    endloop
  endfacet
  facet normal 0 0 1
    outer loop
      vertex 11 -53.1 -90
      vertex 0.1 -75.9 -90
      vertex 11 -89.9 -90
    endloop
  endfacet
  facet normal -0 0 1
    outer loop
      vertex -0.1 -53.1 -90
      vertex 0.1 -75.9 -90
      vertex 11 -53.1 -90
    endloop
  endfacet
  facet normal 0 0 1
    outer loop
      vertex -11 -75.9 -90
      vertex -0.1 -53.1 -90
      vertex -11 -39.1 -90
    endloop
  endfacet
  facet normal 0 0 1
    outer loop
      vertex -0.1 -53.1 -90
      vertex -11 -75.9 -90
      vertex 0.1 -75.9 -90
    endloop
  endfacet
  facet normal 0 0 1
    outer loop
      vertex 11 -89.9 -90
      vertex 0.1 -75.9 -90
      vertex 0.1 -89.9 -90
    endloop
  endfacet
  facet normal 0 0 -1
    outer loop
      vertex 0.1 -75.9 -110
      vertex 11 -89.9 -110
      vertex 0.1 -89.9 -110
    endloop
  endfacet
  facet normal 0 0 -1
    outer loop
      vertex 11 -89.9 -110
      vertex 0.1 -75.9 -110
      vertex 11 -53.1 -110
    endloop
  endfacet
  facet normal 0 0 -1
    outer loop
      vertex 0.1 -75.9 -110
      vertex -0.1 -53.1 -110
      vertex 11 -53.1 -110
    endloop
  endfacet
  facet normal 0 0 -1
    outer loop
      vertex -11 -75.9 -110
      vertex -0.1 -53.1 -110
      vertex 0.1 -75.9 -110
    endloop
  endfacet
  facet normal 0 0 -1
    outer loop
      vertex -11 -39.1 -110
      vertex -0.1 -53.1 -110
      vertex -11 -75.9 -110
    endloop
  endfacet
  facet normal 0 0 -1
    outer loop
      vertex -0.1 -53.1 -110
      vertex -11 -39.1 -110
      vertex -0.1 -39.1 -110
    endloop
  endfacet
  facet normal 0 1 -0
    outer loop
      vertex 11 -66 -108.5
      vertex -11 -66 -105.5
      vertex 11 -66 -105.5
    endloop
  endfacet
  facet normal 0 1 0
    outer loop
      vertex -11 -66 -105.5
      vertex 11 -66 -108.5
      vertex -11 -66 -108.5
    endloop
  endfacet
  facet normal 0 -1 0
    outer loop
      vertex -11 -62 -108.5
      vertex 11 -62 -105.5
      vertex -11 -62 -105.5
    endloop
  endfacet
  facet normal 0 -1 -0
    outer loop
      vertex 11 -62 -105.5
      vertex -11 -62 -108.5
      vertex 11 -62 -108.5
    endloop
  endfacet
  facet normal 0 0 -1
    outer loop
      vertex -11 -66 -105.5
      vertex 11 -62 -105.5
      vertex 11 -66 -105.5
    endloop
  endfacet
  facet normal -0 0 -1
    outer loop
      vertex 11 -62 -105.5
      vertex -11 -66 -105.5
      vertex -11 -62 -105.5
    endloop
  endfacet
  facet normal -0 0 1
    outer loop
      vertex -11 -62 -108.5
      vertex 11 -66 -108.5
      vertex 11 -62 -108.5
    endloop
  endfacet
  facet normal 0 0 1
    outer loop
      vertex 11 -66 -108.5
      vertex -11 -62 -108.5
      vertex -11 -66 -108.5
    endloop
  endfacet
  facet normal 0 1 -0
    outer loop
      vertex 11 -66 -94.5
      vertex -11 -66 -91.5
      vertex 11 -66 -91.5
    endloop
  endfacet
  facet normal 0 1 0
    outer loop
      vertex -11 -66 -91.5
      vertex 11 -66 -94.5
      vertex -11 -66 -94.5
    endloop
  endfacet
  facet normal 0 -1 0
    outer loop
      vertex -11 -62 -94.5
      vertex 11 -62 -91.5
      vertex -11 -62 -91.5
    endloop
  endfacet
  facet normal 0 -1 -0
    outer loop
      vertex 11 -62 -91.5
      vertex -11 -62 -94.5
      vertex 11 -62 -94.5
    endloop
  endfacet
  facet normal 0 0 -1
    outer loop
      vertex -11 -66 -91.5
      vertex 11 -62 -91.5
      vertex 11 -66 -91.5
    endloop
  endfacet
  facet normal -0 0 -1
    outer loop
      vertex 11 -62 -91.5
      vertex -11 -66 -91.5
      vertex -11 -62 -91.5
    endloop
  endfacet
  facet normal -0 0 1
    outer loop
      vertex -11 -62 -94.5
      vertex 11 -66 -94.5
      vertex 11 -62 -94.5
    endloop
  endfacet
  facet normal 0 0 1
    outer loop
      vertex 11 -66 -94.5
      vertex -11 -62 -94.5
      vertex -11 -66 -94.5
    endloop
  endfacet
  facet normal 1 -0 0
    outer loop
      vertex -0.1 -43.1468 -99.073
      vertex -0.1 -29.1 -100
      vertex -0.1 -39.1 -90
    endloop
  endfacet
  facet normal 1 0 0
    outer loop
      vertex -0.1 -43.0369 -100.469
      vertex -0.1 -29.1 -100
      vertex -0.1 -43 -100
    endloop
  endfacet
  facet normal 1 0 0
    outer loop
      vertex -0.1 -29.1 -100
      vertex -0.1 -43.0369 -99.5307
      vertex -0.1 -43 -100
    endloop
  endfacet
  facet normal 1 0 0
    outer loop
      vertex -0.1 -29.1 -100
      vertex -0.1 -43.1468 -99.073
      vertex -0.1 -43.0369 -99.5307
    endloop
  endfacet
  facet normal 1 0 0
    outer loop
      vertex -0.1 -39.1 -90
      vertex -0.1 -43.327 -98.638
      vertex -0.1 -43.1468 -99.073
    endloop
  endfacet
  facet normal 1 0 0
    outer loop
      vertex -0.1 -39.1 -90
      vertex -0.1 -43.5729 -98.2366
      vertex -0.1 -43.327 -98.638
    endloop
  endfacet
  facet normal 1 0 0
    outer loop
      vertex -0.1 -39.1 -90
      vertex -0.1 -43.8787 -97.8787
      vertex -0.1 -43.5729 -98.2366
    endloop
  endfacet
  facet normal 1 0 0
    outer loop
      vertex -0.1 -39.1 -90
      vertex -0.1 -44.2366 -97.573
      vertex -0.1 -43.8787 -97.8787
    endloop
  endfacet
  facet normal 1 0 0
    outer loop
      vertex -0.1 -39.1 -90
      vertex -0.1 -44.638 -97.327
      vertex -0.1 -44.2366 -97.573
    endloop
  endfacet
  facet normal 1 0 0
    outer loop
      vertex -0.1 -39.1 -90
      vertex -0.1 -45.0729 -97.1468
      vertex -0.1 -44.638 -97.327
    endloop
  endfacet
  facet normal 1 0 0
    outer loop
      vertex -0.1 -39.1 -90
      vertex -0.1 -45.5307 -97.0369
      vertex -0.1 -45.0729 -97.1468
    endloop
  endfacet
  facet normal 1 0 0
    outer loop
      vertex -0.1 -39.1 -90
      vertex -0.1 -46 -97
      vertex -0.1 -45.5307 -97.0369
    endloop
  endfacet
  facet normal 1 -0 0
    outer loop
      vertex -0.1 -53.1 -90
      vertex -0.1 -46 -97
      vertex -0.1 -39.1 -90
    endloop
  endfacet
  facet normal 1 0 0
    outer loop
      vertex -0.1 -46 -97
      vertex -0.1 -53.1 -90
      vertex -0.1 -46.4693 -97.0369
    endloop
  endfacet
  facet normal 1 0 0
    outer loop
      vertex -0.1 -46.4693 -97.0369
      vertex -0.1 -53.1 -90
      vertex -0.1 -46.9271 -97.1468
    endloop
  endfacet
  facet normal 1 0 0
    outer loop
      vertex -0.1 -46.9271 -97.1468
      vertex -0.1 -53.1 -90
      vertex -0.1 -47.362 -97.327
    endloop
  endfacet
  facet normal 1 0 0
    outer loop
      vertex -0.1 -47.362 -97.327
      vertex -0.1 -53.1 -90
      vertex -0.1 -47.7634 -97.573
    endloop
  endfacet
  facet normal 1 0 0
    outer loop
      vertex -0.1 -48.8532 -99.073
      vertex -0.1 -63.1 -100
      vertex -0.1 -48.9631 -99.5307
    endloop
  endfacet
  facet normal 1 0 0
    outer loop
      vertex -0.1 -63.1 -100
      vertex -0.1 -48.8532 -99.073
      vertex -0.1 -53.1 -90
    endloop
  endfacet
  facet normal 1 0 0
    outer loop
      vertex -0.1 -48.673 -98.638
      vertex -0.1 -53.1 -90
      vertex -0.1 -48.8532 -99.073
    endloop
  endfacet
  facet normal 1 0 0
    outer loop
      vertex -0.1 -48.4271 -98.2366
      vertex -0.1 -53.1 -90
      vertex -0.1 -48.673 -98.638
    endloop
  endfacet
  facet normal 1 0 0
    outer loop
      vertex -0.1 -48.1213 -97.8787
      vertex -0.1 -53.1 -90
      vertex -0.1 -48.4271 -98.2366
    endloop
  endfacet
  facet normal 1 0 0
    outer loop
      vertex -0.1 -47.7634 -97.573
      vertex -0.1 -53.1 -90
      vertex -0.1 -48.1213 -97.8787
    endloop
  endfacet
  facet normal 1 0 0
    outer loop
      vertex -0.1 -43.1468 -100.927
      vertex -0.1 -29.1 -100
      vertex -0.1 -43.0369 -100.469
    endloop
  endfacet
  facet normal 1 0 0
    outer loop
      vertex -0.1 -29.1 -100
      vertex -0.1 -43.1468 -100.927
      vertex -0.1 -39.1 -110
    endloop
  endfacet
  facet normal 1 -0 0
    outer loop
      vertex -0.1 -43.327 -101.362
      vertex -0.1 -39.1 -110
      vertex -0.1 -43.1468 -100.927
    endloop
  endfacet
  facet normal 1 -0 0
    outer loop
      vertex -0.1 -43.5729 -101.763
      vertex -0.1 -39.1 -110
      vertex -0.1 -43.327 -101.362
    endloop
  endfacet
  facet normal 1 -0 0
    outer loop
      vertex -0.1 -43.8787 -102.121
      vertex -0.1 -39.1 -110
      vertex -0.1 -43.5729 -101.763
    endloop
  endfacet
  facet normal 1 -0 0
    outer loop
      vertex -0.1 -44.2366 -102.427
      vertex -0.1 -39.1 -110
      vertex -0.1 -43.8787 -102.121
    endloop
  endfacet
  facet normal 1 -0 0
    outer loop
      vertex -0.1 -44.638 -102.673
      vertex -0.1 -39.1 -110
      vertex -0.1 -44.2366 -102.427
    endloop
  endfacet
  facet normal 1 -0 0
    outer loop
      vertex -0.1 -45.0729 -102.853
      vertex -0.1 -39.1 -110
      vertex -0.1 -44.638 -102.673
    endloop
  endfacet
  facet normal 1 -0 0
    outer loop
      vertex -0.1 -45.5307 -102.963
      vertex -0.1 -39.1 -110
      vertex -0.1 -45.0729 -102.853
    endloop
  endfacet
  facet normal 1 -0 0
    outer loop
      vertex -0.1 -46 -103
      vertex -0.1 -39.1 -110
      vertex -0.1 -45.5307 -102.963
    endloop
  endfacet
  facet normal 1 0 0
    outer loop
      vertex -0.1 -53.1 -110
      vertex -0.1 -46 -103
      vertex -0.1 -46.4693 -102.963
    endloop
  endfacet
  facet normal 1 0 0
    outer loop
      vertex -0.1 -53.1 -110
      vertex -0.1 -46.4693 -102.963
      vertex -0.1 -46.9271 -102.853
    endloop
  endfacet
  facet normal 1 0 0
    outer loop
      vertex -0.1 -53.1 -110
      vertex -0.1 -46.9271 -102.853
      vertex -0.1 -47.362 -102.673
    endloop
  endfacet
  facet normal 1 0 0
    outer loop
      vertex -0.1 -53.1 -110
      vertex -0.1 -47.362 -102.673
      vertex -0.1 -47.7634 -102.427
    endloop
  endfacet
  facet normal 1 0 0
    outer loop
      vertex -0.1 -53.1 -110
      vertex -0.1 -47.7634 -102.427
      vertex -0.1 -48.1213 -102.121
    endloop
  endfacet
  facet normal 1 0 0
    outer loop
      vertex -0.1 -48.9631 -99.5307
      vertex -0.1 -63.1 -100
      vertex -0.1 -49 -100
    endloop
  endfacet
  facet normal 1 0 0
    outer loop
      vertex -0.1 -49 -100
      vertex -0.1 -63.1 -100
      vertex -0.1 -48.9631 -100.469
    endloop
  endfacet
  facet normal 1 0 0
    outer loop
      vertex -0.1 -46 -103
      vertex -0.1 -53.1 -110
      vertex -0.1 -39.1 -110
    endloop
  endfacet
  facet normal 1 0 0
    outer loop
      vertex -0.1 -48.4271 -101.763
      vertex -0.1 -53.1 -110
      vertex -0.1 -48.1213 -102.121
    endloop
  endfacet
  facet normal 1 0 0
    outer loop
      vertex -0.1 -48.673 -101.362
      vertex -0.1 -53.1 -110
      vertex -0.1 -48.4271 -101.763
    endloop
  endfacet
  facet normal 1 0 0
    outer loop
      vertex -0.1 -48.8532 -100.927
      vertex -0.1 -53.1 -110
      vertex -0.1 -48.673 -101.362
    endloop
  endfacet
  facet normal 1 0 0
    outer loop
      vertex -0.1 -48.9631 -100.469
      vertex -0.1 -63.1 -100
      vertex -0.1 -48.8532 -100.927
    endloop
  endfacet
  facet normal 1 0 0
    outer loop
      vertex -0.1 -48.8532 -100.927
      vertex -0.1 -63.1 -100
      vertex -0.1 -53.1 -110
    endloop
  endfacet
  facet normal 0 0.707107 0.707107
    outer loop
      vertex 11 -53.1 -110
      vertex -0.1 -63.1 -100
      vertex 11 -63.1 -100
    endloop
  endfacet
  facet normal 0 0.707107 0.707107
    outer loop
      vertex -0.1 -63.1 -100
      vertex 11 -53.1 -110
      vertex -0.1 -53.1 -110
    endloop
  endfacet
  facet normal 0 0.707107 -0.707107
    outer loop
      vertex 11 -63.1 -100
      vertex -0.1 -53.1 -90
      vertex 11 -53.1 -90
    endloop
  endfacet
  facet normal 0 0.707107 -0.707107
    outer loop
      vertex -0.1 -53.1 -90
      vertex 11 -63.1 -100
      vertex -0.1 -63.1 -100
    endloop
  endfacet
  facet normal 0 0.707107 0.707107
    outer loop
      vertex -0.1 -29.1 -100
      vertex -11 -39.1 -90
      vertex -0.1 -39.1 -90
    endloop
  endfacet
  facet normal 0 0.707107 0.707107
    outer loop
      vertex -11 -39.1 -90
      vertex -0.1 -29.1 -100
      vertex -11 -29.1 -100
    endloop
  endfacet
  facet normal 0 0.707107 -0.707107
    outer loop
      vertex -0.1 -39.1 -110
      vertex -11 -29.1 -100
      vertex -0.1 -29.1 -100
    endloop
  endfacet
  facet normal 0 0.707107 -0.707107
    outer loop
      vertex -11 -29.1 -100
      vertex -0.1 -39.1 -110
      vertex -11 -39.1 -110
    endloop
  endfacet
  facet normal 0 0.923867 -0.382714
    outer loop
      vertex -0.1 -48.8532 -99.073
      vertex -5.155 -48.673 -98.638
      vertex -0.1 -48.673 -98.638
    endloop
  endfacet
  facet normal 0 0.923867 -0.382714
    outer loop
      vertex -5.155 -48.673 -98.638
      vertex -0.1 -48.8532 -99.073
      vertex -5.155 -48.8532 -99.073
    endloop
  endfacet
  facet normal 0 -0.972362 -0.233477
    outer loop
      vertex -5.155 -43.0369 -99.5307
      vertex -0.1 -43.1468 -99.073
      vertex -5.155 -43.1468 -99.073
    endloop
  endfacet
  facet normal 0 -0.972362 -0.233477
    outer loop
      vertex -0.1 -43.1468 -99.073
      vertex -5.155 -43.0369 -99.5307
      vertex -0.1 -43.0369 -99.5307
    endloop
  endfacet
  facet normal 0 -0.996923 -0.0783858
    outer loop
      vertex -5.155 -43 -100
      vertex -0.1 -43.0369 -99.5307
      vertex -5.155 -43.0369 -99.5307
    endloop
  endfacet
  facet normal 0 -0.996923 -0.0783858
    outer loop
      vertex -0.1 -43.0369 -99.5307
      vertex -5.155 -43 -100
      vertex -0.1 -43 -100
    endloop
  endfacet
  facet normal 0 -0.923867 -0.382714
    outer loop
      vertex -5.155 -43.1468 -99.073
      vertex -0.1 -43.327 -98.638
      vertex -5.155 -43.327 -98.638
    endloop
  endfacet
  facet normal 0 -0.923867 -0.382714
    outer loop
      vertex -0.1 -43.327 -98.638
      vertex -5.155 -43.1468 -99.073
      vertex -0.1 -43.1468 -99.073
    endloop
  endfacet
  facet normal 0 -0.522532 0.85262
    outer loop
      vertex -5.155 -44.2366 -102.427
      vertex -0.1 -44.638 -102.673
      vertex -0.1 -44.2366 -102.427
    endloop
  endfacet
  facet normal 0 -0.522532 0.85262
    outer loop
      vertex -0.1 -44.638 -102.673
      vertex -5.155 -44.2366 -102.427
      vertex -5.155 -44.638 -102.673
    endloop
  endfacet
  facet normal 0 -0.972397 0.233333
    outer loop
      vertex -5.155 -43.1468 -100.927
      vertex -0.1 -43.0369 -100.469
      vertex -5.155 -43.0369 -100.469
    endloop
  endfacet
  facet normal 0 -0.972397 0.233333
    outer loop
      vertex -0.1 -43.0369 -100.469
      vertex -5.155 -43.1468 -100.927
      vertex -0.1 -43.1468 -100.927
    endloop
  endfacet
  facet normal 0 -0.382427 0.923986
    outer loop
      vertex -5.155 -44.638 -102.673
      vertex -0.1 -45.0729 -102.853
      vertex -0.1 -44.638 -102.673
    endloop
  endfacet
  facet normal 0 -0.382427 0.923986
    outer loop
      vertex -0.1 -45.0729 -102.853
      vertex -5.155 -44.638 -102.673
      vertex -5.155 -45.0729 -102.853
    endloop
  endfacet
  facet normal 0 0.38279 -0.923836
    outer loop
      vertex -5.155 -47.362 -97.327
      vertex -0.1 -46.9271 -97.1468
      vertex -0.1 -47.362 -97.327
    endloop
  endfacet
  facet normal 0 0.38279 -0.923836
    outer loop
      vertex -0.1 -46.9271 -97.1468
      vertex -5.155 -47.362 -97.327
      vertex -5.155 -46.9271 -97.1468
    endloop
  endfacet
  facet normal -0 0.382427 0.923986
    outer loop
      vertex -5.155 -46.9271 -102.853
      vertex -0.1 -47.362 -102.673
      vertex -0.1 -46.9271 -102.853
    endloop
  endfacet
  facet normal 0 0.382427 0.923986
    outer loop
      vertex -0.1 -47.362 -102.673
      vertex -5.155 -46.9271 -102.853
      vertex -5.155 -47.362 -102.673
    endloop
  endfacet
  facet normal 0 0.522532 -0.85262
    outer loop
      vertex -5.155 -47.7634 -97.573
      vertex -0.1 -47.362 -97.327
      vertex -0.1 -47.7634 -97.573
    endloop
  endfacet
  facet normal 0 0.522532 -0.85262
    outer loop
      vertex -0.1 -47.362 -97.327
      vertex -5.155 -47.7634 -97.573
      vertex -5.155 -47.362 -97.327
    endloop
  endfacet
  facet normal 0 -0.649478 -0.76038
    outer loop
      vertex -5.155 -44.2366 -97.573
      vertex -0.1 -43.8787 -97.8787
      vertex -0.1 -44.2366 -97.573
    endloop
  endfacet
  facet normal -0 -0.649478 -0.76038
    outer loop
      vertex -0.1 -43.8787 -97.8787
      vertex -5.155 -44.2366 -97.573
      vertex -5.155 -43.8787 -97.8787
    endloop
  endfacet
  facet normal 0 0.233429 -0.972374
    outer loop
      vertex -5.155 -46.9271 -97.1468
      vertex -0.1 -46.4693 -97.0369
      vertex -0.1 -46.9271 -97.1468
    endloop
  endfacet
  facet normal 0 0.233429 -0.972374
    outer loop
      vertex -0.1 -46.4693 -97.0369
      vertex -5.155 -46.9271 -97.1468
      vertex -5.155 -46.4693 -97.0369
    endloop
  endfacet
  facet normal 0 0.923867 0.382714
    outer loop
      vertex -0.1 -48.673 -101.362
      vertex -5.155 -48.8532 -100.927
      vertex -0.1 -48.8532 -100.927
    endloop
  endfacet
  facet normal 0 0.923867 0.382714
    outer loop
      vertex -5.155 -48.8532 -100.927
      vertex -0.1 -48.673 -101.362
      vertex -5.155 -48.673 -101.362
    endloop
  endfacet
  facet normal 0 0.0783858 -0.996923
    outer loop
      vertex -5.155 -46.4693 -97.0369
      vertex -0.1 -46 -97
      vertex -0.1 -46.4693 -97.0369
    endloop
  endfacet
  facet normal 0 0.0783858 -0.996923
    outer loop
      vertex -0.1 -46 -97
      vertex -5.155 -46.4693 -97.0369
      vertex -5.155 -46 -97
    endloop
  endfacet
  facet normal -0 0.23363 0.972326
    outer loop
      vertex -5.155 -46.4693 -102.963
      vertex -0.1 -46.9271 -102.853
      vertex -0.1 -46.4693 -102.963
    endloop
  endfacet
  facet normal 0 0.23363 0.972326
    outer loop
      vertex -0.1 -46.9271 -102.853
      vertex -5.155 -46.4693 -102.963
      vertex -5.155 -46.9271 -102.853
    endloop
  endfacet
  facet normal 0 -0.923867 0.382714
    outer loop
      vertex -5.155 -43.327 -101.362
      vertex -0.1 -43.1468 -100.927
      vertex -5.155 -43.1468 -100.927
    endloop
  endfacet
  facet normal 0 -0.923867 0.382714
    outer loop
      vertex -0.1 -43.1468 -100.927
      vertex -5.155 -43.327 -101.362
      vertex -0.1 -43.327 -101.362
    endloop
  endfacet
  facet normal 0 0.760365 0.649496
    outer loop
      vertex -0.1 -48.1213 -102.121
      vertex -5.155 -48.4271 -101.763
      vertex -0.1 -48.4271 -101.763
    endloop
  endfacet
  facet normal 0 0.760365 0.649496
    outer loop
      vertex -5.155 -48.4271 -101.763
      vertex -0.1 -48.1213 -102.121
      vertex -5.155 -48.1213 -102.121
    endloop
  endfacet
  facet normal 0 0.649478 -0.76038
    outer loop
      vertex -5.155 -48.1213 -97.8787
      vertex -0.1 -47.7634 -97.573
      vertex -0.1 -48.1213 -97.8787
    endloop
  endfacet
  facet normal 0 0.649478 -0.76038
    outer loop
      vertex -0.1 -47.7634 -97.573
      vertex -5.155 -48.1213 -97.8787
      vertex -5.155 -47.7634 -97.573
    endloop
  endfacet
  facet normal 0 -0.0785969 0.996906
    outer loop
      vertex -5.155 -45.5307 -102.963
      vertex -0.1 -46 -103
      vertex -0.1 -45.5307 -102.963
    endloop
  endfacet
  facet normal 0 -0.0785969 0.996906
    outer loop
      vertex -0.1 -46 -103
      vertex -5.155 -45.5307 -102.963
      vertex -5.155 -46 -103
    endloop
  endfacet
  facet normal -0 0.649846 0.760066
    outer loop
      vertex -5.155 -47.7634 -102.427
      vertex -0.1 -48.1213 -102.121
      vertex -0.1 -47.7634 -102.427
    endloop
  endfacet
  facet normal 0 0.649846 0.760066
    outer loop
      vertex -0.1 -48.1213 -102.121
      vertex -5.155 -47.7634 -102.427
      vertex -5.155 -48.1213 -102.121
    endloop
  endfacet
  facet normal 0 -0.852482 0.522756
    outer loop
      vertex -5.155 -43.5729 -101.763
      vertex -0.1 -43.327 -101.362
      vertex -5.155 -43.327 -101.362
    endloop
  endfacet
  facet normal 0 -0.852482 0.522756
    outer loop
      vertex -0.1 -43.327 -101.362
      vertex -5.155 -43.5729 -101.763
      vertex -0.1 -43.5729 -101.763
    endloop
  endfacet
  facet normal 0 -0.852714 -0.522378
    outer loop
      vertex -5.155 -43.327 -98.638
      vertex -0.1 -43.5729 -98.2366
      vertex -5.155 -43.5729 -98.2366
    endloop
  endfacet
  facet normal 0 -0.852714 -0.522378
    outer loop
      vertex -0.1 -43.5729 -98.2366
      vertex -5.155 -43.327 -98.638
      vertex -0.1 -43.327 -98.638
    endloop
  endfacet
  facet normal 0 -0.760275 -0.649601
    outer loop
      vertex -5.155 -43.5729 -98.2366
      vertex -0.1 -43.8787 -97.8787
      vertex -5.155 -43.8787 -97.8787
    endloop
  endfacet
  facet normal 0 -0.760275 -0.649601
    outer loop
      vertex -0.1 -43.8787 -97.8787
      vertex -5.155 -43.5729 -98.2366
      vertex -0.1 -43.5729 -98.2366
    endloop
  endfacet
  facet normal 0 0.760275 -0.649601
    outer loop
      vertex -0.1 -48.4271 -98.2366
      vertex -5.155 -48.1213 -97.8787
      vertex -0.1 -48.1213 -97.8787
    endloop
  endfacet
  facet normal 0 0.760275 -0.649601
    outer loop
      vertex -5.155 -48.1213 -97.8787
      vertex -0.1 -48.4271 -98.2366
      vertex -5.155 -48.4271 -98.2366
    endloop
  endfacet
  facet normal 0 -0.0783858 -0.996923
    outer loop
      vertex -5.155 -46 -97
      vertex -0.1 -45.5307 -97.0369
      vertex -0.1 -46 -97
    endloop
  endfacet
  facet normal -0 -0.0783858 -0.996923
    outer loop
      vertex -0.1 -45.5307 -97.0369
      vertex -5.155 -46 -97
      vertex -5.155 -45.5307 -97.0369
    endloop
  endfacet
  facet normal 0 -0.38279 -0.923836
    outer loop
      vertex -5.155 -45.0729 -97.1468
      vertex -0.1 -44.638 -97.327
      vertex -0.1 -45.0729 -97.1468
    endloop
  endfacet
  facet normal -0 -0.38279 -0.923836
    outer loop
      vertex -0.1 -44.638 -97.327
      vertex -5.155 -45.0729 -97.1468
      vertex -5.155 -44.638 -97.327
    endloop
  endfacet
  facet normal 0 0.972362 -0.233477
    outer loop
      vertex -0.1 -48.9631 -99.5307
      vertex -5.155 -48.8532 -99.073
      vertex -0.1 -48.8532 -99.073
    endloop
  endfacet
  facet normal 0 0.972362 -0.233477
    outer loop
      vertex -5.155 -48.8532 -99.073
      vertex -0.1 -48.9631 -99.5307
      vertex -5.155 -48.9631 -99.5307
    endloop
  endfacet
  facet normal 0 -0.522532 -0.85262
    outer loop
      vertex -5.155 -44.638 -97.327
      vertex -0.1 -44.2366 -97.573
      vertex -0.1 -44.638 -97.327
    endloop
  endfacet
  facet normal -0 -0.522532 -0.85262
    outer loop
      vertex -0.1 -44.2366 -97.573
      vertex -5.155 -44.638 -97.327
      vertex -5.155 -44.2366 -97.573
    endloop
  endfacet
  facet normal 0 -0.23363 0.972326
    outer loop
      vertex -5.155 -45.0729 -102.853
      vertex -0.1 -45.5307 -102.963
      vertex -0.1 -45.0729 -102.853
    endloop
  endfacet
  facet normal 0 -0.23363 0.972326
    outer loop
      vertex -0.1 -45.5307 -102.963
      vertex -5.155 -45.0729 -102.853
      vertex -5.155 -45.5307 -102.963
    endloop
  endfacet
  facet normal 0 -0.996919 0.0784356
    outer loop
      vertex -5.155 -43.0369 -100.469
      vertex -0.1 -43 -100
      vertex -5.155 -43 -100
    endloop
  endfacet
  facet normal 0 -0.996919 0.0784356
    outer loop
      vertex -0.1 -43 -100
      vertex -5.155 -43.0369 -100.469
      vertex -0.1 -43.0369 -100.469
    endloop
  endfacet
  facet normal 0 -0.760365 0.649496
    outer loop
      vertex -5.155 -43.8787 -102.121
      vertex -0.1 -43.5729 -101.763
      vertex -5.155 -43.5729 -101.763
    endloop
  endfacet
  facet normal 0 -0.760365 0.649496
    outer loop
      vertex -0.1 -43.5729 -101.763
      vertex -5.155 -43.8787 -102.121
      vertex -0.1 -43.8787 -102.121
    endloop
  endfacet
  facet normal 0 0.852482 0.522756
    outer loop
      vertex -0.1 -48.4271 -101.763
      vertex -5.155 -48.673 -101.362
      vertex -0.1 -48.673 -101.362
    endloop
  endfacet
  facet normal 0 0.852482 0.522756
    outer loop
      vertex -5.155 -48.673 -101.362
      vertex -0.1 -48.4271 -101.763
      vertex -5.155 -48.4271 -101.763
    endloop
  endfacet
  facet normal 0 0.996919 0.0784356
    outer loop
      vertex -0.1 -48.9631 -100.469
      vertex -5.155 -49 -100
      vertex -0.1 -49 -100
    endloop
  endfacet
  facet normal 0 0.996919 0.0784356
    outer loop
      vertex -5.155 -49 -100
      vertex -0.1 -48.9631 -100.469
      vertex -5.155 -48.9631 -100.469
    endloop
  endfacet
  facet normal -0 0.0785969 0.996906
    outer loop
      vertex -5.155 -46 -103
      vertex -0.1 -46.4693 -102.963
      vertex -0.1 -46 -103
    endloop
  endfacet
  facet normal 0 0.0785969 0.996906
    outer loop
      vertex -0.1 -46.4693 -102.963
      vertex -5.155 -46 -103
      vertex -5.155 -46.4693 -102.963
    endloop
  endfacet
  facet normal 0 0.972397 0.233333
    outer loop
      vertex -0.1 -48.8532 -100.927
      vertex -5.155 -48.9631 -100.469
      vertex -0.1 -48.9631 -100.469
    endloop
  endfacet
  facet normal 0 0.972397 0.233333
    outer loop
      vertex -5.155 -48.9631 -100.469
      vertex -0.1 -48.8532 -100.927
      vertex -5.155 -48.8532 -100.927
    endloop
  endfacet
  facet normal 0 -0.233429 -0.972374
    outer loop
      vertex -5.155 -45.5307 -97.0369
      vertex -0.1 -45.0729 -97.1468
      vertex -0.1 -45.5307 -97.0369
    endloop
  endfacet
  facet normal -0 -0.233429 -0.972374
    outer loop
      vertex -0.1 -45.0729 -97.1468
      vertex -5.155 -45.5307 -97.0369
      vertex -5.155 -45.0729 -97.1468
    endloop
  endfacet
  facet normal -0 0.522532 0.85262
    outer loop
      vertex -5.155 -47.362 -102.673
      vertex -0.1 -47.7634 -102.427
      vertex -0.1 -47.362 -102.673
    endloop
  endfacet
  facet normal 0 0.522532 0.85262
    outer loop
      vertex -0.1 -47.7634 -102.427
      vertex -5.155 -47.362 -102.673
      vertex -5.155 -47.7634 -102.427
    endloop
  endfacet
  facet normal 0 0.996923 -0.0783858
    outer loop
      vertex -0.1 -49 -100
      vertex -5.155 -48.9631 -99.5307
      vertex -0.1 -48.9631 -99.5307
    endloop
  endfacet
  facet normal 0 0.996923 -0.0783858
    outer loop
      vertex -5.155 -48.9631 -99.5307
      vertex -0.1 -49 -100
      vertex -5.155 -49 -100
    endloop
  endfacet
  facet normal 0 0.852714 -0.522378
    outer loop
      vertex -0.1 -48.673 -98.638
      vertex -5.155 -48.4271 -98.2366
      vertex -0.1 -48.4271 -98.2366
    endloop
  endfacet
  facet normal 0 0.852714 -0.522378
    outer loop
      vertex -5.155 -48.4271 -98.2366
      vertex -0.1 -48.673 -98.638
      vertex -5.155 -48.673 -98.638
    endloop
  endfacet
  facet normal 0 -0.649846 0.760066
    outer loop
      vertex -5.155 -43.8787 -102.121
      vertex -0.1 -44.2366 -102.427
      vertex -0.1 -43.8787 -102.121
    endloop
  endfacet
  facet normal 0 -0.649846 0.760066
    outer loop
      vertex -0.1 -44.2366 -102.427
      vertex -5.155 -43.8787 -102.121
      vertex -5.155 -44.2366 -102.427
    endloop
  endfacet
  facet normal 0 0.866019 -0.500011
    outer loop
      vertex -5.155 -50.5 -100
      vertex -11 -48.25 -96.103
      vertex -5.155 -48.25 -96.103
    endloop
  endfacet
  facet normal 0 0.866019 -0.500011
    outer loop
      vertex -11 -48.25 -96.103
      vertex -5.155 -50.5 -100
      vertex -11 -50.5 -100
    endloop
  endfacet
  facet normal -1 -0 0
    outer loop
      vertex -5.155 -41.5 -100
      vertex -5.155 -43.0369 -100.469
      vertex -5.155 -43 -100
    endloop
  endfacet
  facet normal -1 0 0
    outer loop
      vertex -5.155 -41.5 -100
      vertex -5.155 -43.1468 -100.927
      vertex -5.155 -43.0369 -100.469
    endloop
  endfacet
  facet normal -1 0 0
    outer loop
      vertex -5.155 -41.5 -100
      vertex -5.155 -43.327 -101.362
      vertex -5.155 -43.1468 -100.927
    endloop
  endfacet
  facet normal -1 0 0
    outer loop
      vertex -5.155 -43.75 -103.897
      vertex -5.155 -43.327 -101.362
      vertex -5.155 -41.5 -100
    endloop
  endfacet
  facet normal -1 0 0
    outer loop
      vertex -5.155 -43.327 -101.362
      vertex -5.155 -43.75 -103.897
      vertex -5.155 -43.5729 -101.763
    endloop
  endfacet
  facet normal -1 0 0
    outer loop
      vertex -5.155 -43.75 -103.897
      vertex -5.155 -43.8787 -102.121
      vertex -5.155 -43.5729 -101.763
    endloop
  endfacet
  facet normal -1 0 0
    outer loop
      vertex -5.155 -43.75 -103.897
      vertex -5.155 -44.2366 -102.427
      vertex -5.155 -43.8787 -102.121
    endloop
  endfacet
  facet normal -1 0 0
    outer loop
      vertex -5.155 -43.75 -103.897
      vertex -5.155 -44.638 -102.673
      vertex -5.155 -44.2366 -102.427
    endloop
  endfacet
  facet normal -1 0 0
    outer loop
      vertex -5.155 -43.75 -103.897
      vertex -5.155 -45.0729 -102.853
      vertex -5.155 -44.638 -102.673
    endloop
  endfacet
  facet normal -1 0 0
    outer loop
      vertex -5.155 -43.75 -103.897
      vertex -5.155 -45.5307 -102.963
      vertex -5.155 -45.0729 -102.853
    endloop
  endfacet
  facet normal -1 0 0
    outer loop
      vertex -5.155 -43.75 -103.897
      vertex -5.155 -46 -103
      vertex -5.155 -45.5307 -102.963
    endloop
  endfacet
  facet normal -1 0 0
    outer loop
      vertex -5.155 -48.25 -103.897
      vertex -5.155 -46 -103
      vertex -5.155 -43.75 -103.897
    endloop
  endfacet
  facet normal -1 -0 0
    outer loop
      vertex -5.155 -46 -103
      vertex -5.155 -48.25 -103.897
      vertex -5.155 -46.4693 -102.963
    endloop
  endfacet
  facet normal -1 -0 0
    outer loop
      vertex -5.155 -46.4693 -102.963
      vertex -5.155 -48.25 -103.897
      vertex -5.155 -46.9271 -102.853
    endloop
  endfacet
  facet normal -1 0 0
    outer loop
      vertex -5.155 -48.25 -103.897
      vertex -5.155 -47.362 -102.673
      vertex -5.155 -46.9271 -102.853
    endloop
  endfacet
  facet normal -1 0 0
    outer loop
      vertex -5.155 -48.25 -103.897
      vertex -5.155 -47.7634 -102.427
      vertex -5.155 -47.362 -102.673
    endloop
  endfacet
  facet normal -1 0 0
    outer loop
      vertex -5.155 -48.25 -103.897
      vertex -5.155 -48.1213 -102.121
      vertex -5.155 -47.7634 -102.427
    endloop
  endfacet
  facet normal -1 0 0
    outer loop
      vertex -5.155 -48.25 -103.897
      vertex -5.155 -48.4271 -101.763
      vertex -5.155 -48.1213 -102.121
    endloop
  endfacet
  facet normal -1 0 0
    outer loop
      vertex -5.155 -48.25 -103.897
      vertex -5.155 -48.673 -101.362
      vertex -5.155 -48.4271 -101.763
    endloop
  endfacet
  facet normal -1 0 0
    outer loop
      vertex -5.155 -50.5 -100
      vertex -5.155 -48.673 -101.362
      vertex -5.155 -48.25 -103.897
    endloop
  endfacet
  facet normal -1 0 0
    outer loop
      vertex -5.155 -48.673 -101.362
      vertex -5.155 -50.5 -100
      vertex -5.155 -48.8532 -100.927
    endloop
  endfacet
  facet normal -1 0 0
    outer loop
      vertex -5.155 -48.9631 -100.469
      vertex -5.155 -50.5 -100
      vertex -5.155 -49 -100
    endloop
  endfacet
  facet normal -1 0 0
    outer loop
      vertex -5.155 -48.8532 -100.927
      vertex -5.155 -50.5 -100
      vertex -5.155 -48.9631 -100.469
    endloop
  endfacet
  facet normal -1 0 0
    outer loop
      vertex -5.155 -43.0369 -99.5307
      vertex -5.155 -41.5 -100
      vertex -5.155 -43 -100
    endloop
  endfacet
  facet normal -1 0 0
    outer loop
      vertex -5.155 -43.1468 -99.073
      vertex -5.155 -41.5 -100
      vertex -5.155 -43.0369 -99.5307
    endloop
  endfacet
  facet normal -1 0 0
    outer loop
      vertex -5.155 -43.327 -98.638
      vertex -5.155 -41.5 -100
      vertex -5.155 -43.1468 -99.073
    endloop
  endfacet
  facet normal -1 0 0
    outer loop
      vertex -5.155 -43.75 -96.103
      vertex -5.155 -43.327 -98.638
      vertex -5.155 -43.5729 -98.2366
    endloop
  endfacet
  facet normal -1 0 0
    outer loop
      vertex -5.155 -43.327 -98.638
      vertex -5.155 -43.75 -96.103
      vertex -5.155 -41.5 -100
    endloop
  endfacet
  facet normal -1 0 0
    outer loop
      vertex -5.155 -43.8787 -97.8787
      vertex -5.155 -43.75 -96.103
      vertex -5.155 -43.5729 -98.2366
    endloop
  endfacet
  facet normal -1 0 0
    outer loop
      vertex -5.155 -44.2366 -97.573
      vertex -5.155 -43.75 -96.103
      vertex -5.155 -43.8787 -97.8787
    endloop
  endfacet
  facet normal -1 0 0
    outer loop
      vertex -5.155 -44.638 -97.327
      vertex -5.155 -43.75 -96.103
      vertex -5.155 -44.2366 -97.573
    endloop
  endfacet
  facet normal -1 0 0
    outer loop
      vertex -5.155 -45.0729 -97.1468
      vertex -5.155 -43.75 -96.103
      vertex -5.155 -44.638 -97.327
    endloop
  endfacet
  facet normal -1 0 0
    outer loop
      vertex -5.155 -45.5307 -97.0369
      vertex -5.155 -43.75 -96.103
      vertex -5.155 -45.0729 -97.1468
    endloop
  endfacet
  facet normal -1 0 0
    outer loop
      vertex -5.155 -46 -97
      vertex -5.155 -43.75 -96.103
      vertex -5.155 -45.5307 -97.0369
    endloop
  endfacet
  facet normal -1 0 0
    outer loop
      vertex -5.155 -48.25 -96.103
      vertex -5.155 -46 -97
      vertex -5.155 -46.4693 -97.0369
    endloop
  endfacet
  facet normal -1 0 0
    outer loop
      vertex -5.155 -48.25 -96.103
      vertex -5.155 -46.4693 -97.0369
      vertex -5.155 -46.9271 -97.1468
    endloop
  endfacet
  facet normal -1 0 0
    outer loop
      vertex -5.155 -46 -97
      vertex -5.155 -48.25 -96.103
      vertex -5.155 -43.75 -96.103
    endloop
  endfacet
  facet normal -1 0 0
    outer loop
      vertex -5.155 -47.362 -97.327
      vertex -5.155 -48.25 -96.103
      vertex -5.155 -46.9271 -97.1468
    endloop
  endfacet
  facet normal -1 0 0
    outer loop
      vertex -5.155 -47.7634 -97.573
      vertex -5.155 -48.25 -96.103
      vertex -5.155 -47.362 -97.327
    endloop
  endfacet
  facet normal -1 0 0
    outer loop
      vertex -5.155 -48.1213 -97.8787
      vertex -5.155 -48.25 -96.103
      vertex -5.155 -47.7634 -97.573
    endloop
  endfacet
  facet normal -1 0 0
    outer loop
      vertex -5.155 -48.4271 -98.2366
      vertex -5.155 -48.25 -96.103
      vertex -5.155 -48.1213 -97.8787
    endloop
  endfacet
  facet normal -1 0 0
    outer loop
      vertex -5.155 -48.673 -98.638
      vertex -5.155 -48.25 -96.103
      vertex -5.155 -48.4271 -98.2366
    endloop
  endfacet
  facet normal -1 0 0
    outer loop
      vertex -5.155 -50.5 -100
      vertex -5.155 -48.673 -98.638
      vertex -5.155 -48.8532 -99.073
    endloop
  endfacet
  facet normal -1 0 0
    outer loop
      vertex -5.155 -50.5 -100
      vertex -5.155 -48.8532 -99.073
      vertex -5.155 -48.9631 -99.5307
    endloop
  endfacet
  facet normal -1 -0 0
    outer loop
      vertex -5.155 -48.673 -98.638
      vertex -5.155 -50.5 -100
      vertex -5.155 -48.25 -96.103
    endloop
  endfacet
  facet normal -1 0 0
    outer loop
      vertex -5.155 -50.5 -100
      vertex -5.155 -48.9631 -99.5307
      vertex -5.155 -49 -100
    endloop
  endfacet
  facet normal 0 -0.866019 0.500011
    outer loop
      vertex -11 -43.75 -103.897
      vertex -5.155 -41.5 -100
      vertex -11 -41.5 -100
    endloop
  endfacet
  facet normal 0 -0.866019 0.500011
    outer loop
      vertex -5.155 -41.5 -100
      vertex -11 -43.75 -103.897
      vertex -5.155 -43.75 -103.897
    endloop
  endfacet
  facet normal 0 0 -1
    outer loop
      vertex -11 -48.25 -96.103
      vertex -5.155 -43.75 -96.103
      vertex -5.155 -48.25 -96.103
    endloop
  endfacet
  facet normal -0 0 -1
    outer loop
      vertex -5.155 -43.75 -96.103
      vertex -11 -48.25 -96.103
      vertex -11 -43.75 -96.103
    endloop
  endfacet
  facet normal 0 0.866019 0.500011
    outer loop
      vertex -5.155 -48.25 -103.897
      vertex -11 -50.5 -100
      vertex -5.155 -50.5 -100
    endloop
  endfacet
  facet normal 0 0.866019 0.500011
    outer loop
      vertex -11 -50.5 -100
      vertex -5.155 -48.25 -103.897
      vertex -11 -48.25 -103.897
    endloop
  endfacet
  facet normal -0 0 1
    outer loop
      vertex -11 -43.75 -103.897
      vertex -5.155 -48.25 -103.897
      vertex -5.155 -43.75 -103.897
    endloop
  endfacet
  facet normal 0 0 1
    outer loop
      vertex -5.155 -48.25 -103.897
      vertex -11 -43.75 -103.897
      vertex -11 -48.25 -103.897
    endloop
  endfacet
  facet normal 0 -0.866019 -0.500011
    outer loop
      vertex -11 -41.5 -100
      vertex -5.155 -43.75 -96.103
      vertex -11 -43.75 -96.103
    endloop
  endfacet
  facet normal 0 -0.866019 -0.500011
    outer loop
      vertex -5.155 -43.75 -96.103
      vertex -11 -41.5 -100
      vertex -5.155 -41.5 -100
    endloop
  endfacet
  facet normal -1 0 0
    outer loop
      vertex 0.1 -80.1468 -100.927
      vertex 0.1 -65.9 -100
      vertex 0.1 -75.9 -110
    endloop
  endfacet
  facet normal -1 0 0
    outer loop
      vertex 0.1 -80.0369 -99.5307
      vertex 0.1 -65.9 -100
      vertex 0.1 -80 -100
    endloop
  endfacet
  facet normal -1 -0 0
    outer loop
      vertex 0.1 -65.9 -100
      vertex 0.1 -80.0369 -100.469
      vertex 0.1 -80 -100
    endloop
  endfacet
  facet normal -1 0 0
    outer loop
      vertex 0.1 -65.9 -100
      vertex 0.1 -80.1468 -100.927
      vertex 0.1 -80.0369 -100.469
    endloop
  endfacet
  facet normal -1 0 0
    outer loop
      vertex 0.1 -75.9 -110
      vertex 0.1 -80.327 -101.362
      vertex 0.1 -80.1468 -100.927
    endloop
  endfacet
  facet normal -1 0 0
    outer loop
      vertex 0.1 -75.9 -110
      vertex 0.1 -80.573 -101.763
      vertex 0.1 -80.327 -101.362
    endloop
  endfacet
  facet normal -1 0 0
    outer loop
      vertex 0.1 -75.9 -110
      vertex 0.1 -80.8787 -102.121
      vertex 0.1 -80.573 -101.763
    endloop
  endfacet
  facet normal -1 0 0
    outer loop
      vertex 0.1 -75.9 -110
      vertex 0.1 -81.2366 -102.427
      vertex 0.1 -80.8787 -102.121
    endloop
  endfacet
  facet normal -1 0 0
    outer loop
      vertex 0.1 -75.9 -110
      vertex 0.1 -81.638 -102.673
      vertex 0.1 -81.2366 -102.427
    endloop
  endfacet
  facet normal -1 0 0
    outer loop
      vertex 0.1 -75.9 -110
      vertex 0.1 -82.073 -102.853
      vertex 0.1 -81.638 -102.673
    endloop
  endfacet
  facet normal -1 0 0
    outer loop
      vertex 0.1 -75.9 -110
      vertex 0.1 -82.5307 -102.963
      vertex 0.1 -82.073 -102.853
    endloop
  endfacet
  facet normal -1 0 0
    outer loop
      vertex 0.1 -75.9 -110
      vertex 0.1 -83 -103
      vertex 0.1 -82.5307 -102.963
    endloop
  endfacet
  facet normal -1 0 0
    outer loop
      vertex 0.1 -89.9 -110
      vertex 0.1 -83 -103
      vertex 0.1 -75.9 -110
    endloop
  endfacet
  facet normal -1 -0 0
    outer loop
      vertex 0.1 -83 -103
      vertex 0.1 -89.9 -110
      vertex 0.1 -83.4693 -102.963
    endloop
  endfacet
  facet normal -1 -0 0
    outer loop
      vertex 0.1 -83.4693 -102.963
      vertex 0.1 -89.9 -110
      vertex 0.1 -83.927 -102.853
    endloop
  endfacet
  facet normal -1 -0 0
    outer loop
      vertex 0.1 -83.927 -102.853
      vertex 0.1 -89.9 -110
      vertex 0.1 -84.362 -102.673
    endloop
  endfacet
  facet normal -1 -0 0
    outer loop
      vertex 0.1 -84.362 -102.673
      vertex 0.1 -89.9 -110
      vertex 0.1 -84.7634 -102.427
    endloop
  endfacet
  facet normal -1 0 0
    outer loop
      vertex 0.1 -85.8532 -100.927
      vertex 0.1 -99.9 -100
      vertex 0.1 -85.9631 -100.469
    endloop
  endfacet
  facet normal -1 0 0
    outer loop
      vertex 0.1 -99.9 -100
      vertex 0.1 -85.8532 -100.927
      vertex 0.1 -89.9 -110
    endloop
  endfacet
  facet normal -1 -0 0
    outer loop
      vertex 0.1 -85.673 -101.362
      vertex 0.1 -89.9 -110
      vertex 0.1 -85.8532 -100.927
    endloop
  endfacet
  facet normal -1 -0 0
    outer loop
      vertex 0.1 -85.427 -101.763
      vertex 0.1 -89.9 -110
      vertex 0.1 -85.673 -101.362
    endloop
  endfacet
  facet normal -1 -0 0
    outer loop
      vertex 0.1 -85.1213 -102.121
      vertex 0.1 -89.9 -110
      vertex 0.1 -85.427 -101.763
    endloop
  endfacet
  facet normal -1 -0 0
    outer loop
      vertex 0.1 -84.7634 -102.427
      vertex 0.1 -89.9 -110
      vertex 0.1 -85.1213 -102.121
    endloop
  endfacet
  facet normal -1 0 0
    outer loop
      vertex 0.1 -80.1468 -99.073
      vertex 0.1 -65.9 -100
      vertex 0.1 -80.0369 -99.5307
    endloop
  endfacet
  facet normal -1 0 0
    outer loop
      vertex 0.1 -65.9 -100
      vertex 0.1 -80.1468 -99.073
      vertex 0.1 -75.9 -90
    endloop
  endfacet
  facet normal -1 0 0
    outer loop
      vertex 0.1 -80.327 -98.638
      vertex 0.1 -75.9 -90
      vertex 0.1 -80.1468 -99.073
    endloop
  endfacet
  facet normal -1 0 0
    outer loop
      vertex 0.1 -80.573 -98.2366
      vertex 0.1 -75.9 -90
      vertex 0.1 -80.327 -98.638
    endloop
  endfacet
  facet normal -1 0 0
    outer loop
      vertex 0.1 -80.8787 -97.8787
      vertex 0.1 -75.9 -90
      vertex 0.1 -80.573 -98.2366
    endloop
  endfacet
  facet normal -1 0 0
    outer loop
      vertex 0.1 -81.2366 -97.573
      vertex 0.1 -75.9 -90
      vertex 0.1 -80.8787 -97.8787
    endloop
  endfacet
  facet normal -1 0 0
    outer loop
      vertex 0.1 -81.638 -97.327
      vertex 0.1 -75.9 -90
      vertex 0.1 -81.2366 -97.573
    endloop
  endfacet
  facet normal -1 0 0
    outer loop
      vertex 0.1 -82.073 -97.1468
      vertex 0.1 -75.9 -90
      vertex 0.1 -81.638 -97.327
    endloop
  endfacet
  facet normal -1 0 0
    outer loop
      vertex 0.1 -82.5307 -97.0369
      vertex 0.1 -75.9 -90
      vertex 0.1 -82.073 -97.1468
    endloop
  endfacet
  facet normal -1 0 0
    outer loop
      vertex 0.1 -83 -97
      vertex 0.1 -75.9 -90
      vertex 0.1 -82.5307 -97.0369
    endloop
  endfacet
  facet normal -1 0 0
    outer loop
      vertex 0.1 -89.9 -90
      vertex 0.1 -83 -97
      vertex 0.1 -83.4693 -97.0369
    endloop
  endfacet
  facet normal -1 0 0
    outer loop
      vertex 0.1 -89.9 -90
      vertex 0.1 -83.4693 -97.0369
      vertex 0.1 -83.927 -97.1468
    endloop
  endfacet
  facet normal -1 0 0
    outer loop
      vertex 0.1 -89.9 -90
      vertex 0.1 -83.927 -97.1468
      vertex 0.1 -84.362 -97.327
    endloop
  endfacet
  facet normal -1 0 0
    outer loop
      vertex 0.1 -89.9 -90
      vertex 0.1 -84.362 -97.327
      vertex 0.1 -84.7634 -97.573
    endloop
  endfacet
  facet normal -1 0 0
    outer loop
      vertex 0.1 -89.9 -90
      vertex 0.1 -84.7634 -97.573
      vertex 0.1 -85.1213 -97.8787
    endloop
  endfacet
  facet normal -1 0 0
    outer loop
      vertex 0.1 -85.9631 -100.469
      vertex 0.1 -99.9 -100
      vertex 0.1 -86 -100
    endloop
  endfacet
  facet normal -1 0 0
    outer loop
      vertex 0.1 -86 -100
      vertex 0.1 -99.9 -100
      vertex 0.1 -85.9631 -99.5307
    endloop
  endfacet
  facet normal -1 0 0
    outer loop
      vertex 0.1 -83 -97
      vertex 0.1 -89.9 -90
      vertex 0.1 -75.9 -90
    endloop
  endfacet
  facet normal -1 0 0
    outer loop
      vertex 0.1 -85.427 -98.2366
      vertex 0.1 -89.9 -90
      vertex 0.1 -85.1213 -97.8787
    endloop
  endfacet
  facet normal -1 0 0
    outer loop
      vertex 0.1 -85.673 -98.638
      vertex 0.1 -89.9 -90
      vertex 0.1 -85.427 -98.2366
    endloop
  endfacet
  facet normal -1 0 0
    outer loop
      vertex 0.1 -85.8532 -99.073
      vertex 0.1 -89.9 -90
      vertex 0.1 -85.673 -98.638
    endloop
  endfacet
  facet normal -1 -0 0
    outer loop
      vertex 0.1 -85.9631 -99.5307
      vertex 0.1 -99.9 -100
      vertex 0.1 -85.8532 -99.073
    endloop
  endfacet
  facet normal -1 -0 0
    outer loop
      vertex 0.1 -85.8532 -99.073
      vertex 0.1 -99.9 -100
      vertex 0.1 -89.9 -90
    endloop
  endfacet
  facet normal 0 -0.707107 -0.707107
    outer loop
      vertex 0.1 -89.9 -110
      vertex 11 -99.9 -100
      vertex 0.1 -99.9 -100
    endloop
  endfacet
  facet normal 0 -0.707107 -0.707107
    outer loop
      vertex 11 -99.9 -100
      vertex 0.1 -89.9 -110
      vertex 11 -89.9 -110
    endloop
  endfacet
  facet normal 0 -0.707107 0.707107
    outer loop
      vertex 0.1 -99.9 -100
      vertex 11 -89.9 -90
      vertex 0.1 -89.9 -90
    endloop
  endfacet
  facet normal 0 -0.707107 0.707107
    outer loop
      vertex 11 -89.9 -90
      vertex 0.1 -99.9 -100
      vertex 11 -99.9 -100
    endloop
  endfacet
  facet normal 0 -0.707107 -0.707107
    outer loop
      vertex -11 -65.9 -100
      vertex 0.1 -75.9 -90
      vertex -11 -75.9 -90
    endloop
  endfacet
  facet normal 0 -0.707107 -0.707107
    outer loop
      vertex 0.1 -75.9 -90
      vertex -11 -65.9 -100
      vertex 0.1 -65.9 -100
    endloop
  endfacet
  facet normal 0 -0.707107 0.707107
    outer loop
      vertex -11 -75.9 -110
      vertex 0.1 -65.9 -100
      vertex -11 -65.9 -100
    endloop
  endfacet
  facet normal 0 -0.707107 0.707107
    outer loop
      vertex 0.1 -65.9 -100
      vertex -11 -75.9 -110
      vertex 0.1 -75.9 -110
    endloop
  endfacet
  facet normal 0 0.923867 -0.382714
    outer loop
      vertex 5.655 -85.8532 -99.073
      vertex 0.1 -85.673 -98.638
      vertex 5.655 -85.673 -98.638
    endloop
  endfacet
  facet normal 0 0.923867 -0.382714
    outer loop
      vertex 0.1 -85.673 -98.638
      vertex 5.655 -85.8532 -99.073
      vertex 0.1 -85.8532 -99.073
    endloop
  endfacet
  facet normal 0 -0.972362 -0.233477
    outer loop
      vertex 0.1 -80.0369 -99.5307
      vertex 5.655 -80.1468 -99.073
      vertex 0.1 -80.1468 -99.073
    endloop
  endfacet
  facet normal 0 -0.972362 -0.233477
    outer loop
      vertex 5.655 -80.1468 -99.073
      vertex 0.1 -80.0369 -99.5307
      vertex 5.655 -80.0369 -99.5307
    endloop
  endfacet
  facet normal 0 -0.996923 -0.0783858
    outer loop
      vertex 0.1 -80 -100
      vertex 5.655 -80.0369 -99.5307
      vertex 0.1 -80.0369 -99.5307
    endloop
  endfacet
  facet normal 0 -0.996923 -0.0783858
    outer loop
      vertex 5.655 -80.0369 -99.5307
      vertex 0.1 -80 -100
      vertex 5.655 -80 -100
    endloop
  endfacet
  facet normal 0 -0.923867 -0.382714
    outer loop
      vertex 0.1 -80.1468 -99.073
      vertex 5.655 -80.327 -98.638
      vertex 0.1 -80.327 -98.638
    endloop
  endfacet
  facet normal 0 -0.923867 -0.382714
    outer loop
      vertex 5.655 -80.327 -98.638
      vertex 0.1 -80.1468 -99.073
      vertex 5.655 -80.1468 -99.073
    endloop
  endfacet
  facet normal 0 -0.522532 0.85262
    outer loop
      vertex 0.1 -81.2366 -102.427
      vertex 5.655 -81.638 -102.673
      vertex 5.655 -81.2366 -102.427
    endloop
  endfacet
  facet normal 0 -0.522532 0.85262
    outer loop
      vertex 5.655 -81.638 -102.673
      vertex 0.1 -81.2366 -102.427
      vertex 0.1 -81.638 -102.673
    endloop
  endfacet
  facet normal 0 -0.972397 0.233333
    outer loop
      vertex 0.1 -80.1468 -100.927
      vertex 5.655 -80.0369 -100.469
      vertex 0.1 -80.0369 -100.469
    endloop
  endfacet
  facet normal 0 -0.972397 0.233333
    outer loop
      vertex 5.655 -80.0369 -100.469
      vertex 0.1 -80.1468 -100.927
      vertex 5.655 -80.1468 -100.927
    endloop
  endfacet
  facet normal 0 -0.382352 0.924017
    outer loop
      vertex 0.1 -81.638 -102.673
      vertex 5.655 -82.073 -102.853
      vertex 5.655 -81.638 -102.673
    endloop
  endfacet
  facet normal 0 -0.382352 0.924017
    outer loop
      vertex 5.655 -82.073 -102.853
      vertex 0.1 -81.638 -102.673
      vertex 0.1 -82.073 -102.853
    endloop
  endfacet
  facet normal 0 0.382714 -0.923867
    outer loop
      vertex 0.1 -84.362 -97.327
      vertex 5.655 -83.927 -97.1468
      vertex 5.655 -84.362 -97.327
    endloop
  endfacet
  facet normal 0 0.382714 -0.923867
    outer loop
      vertex 5.655 -83.927 -97.1468
      vertex 0.1 -84.362 -97.327
      vertex 0.1 -83.927 -97.1468
    endloop
  endfacet
  facet normal -0 0.382352 0.924017
    outer loop
      vertex 0.1 -83.927 -102.853
      vertex 5.655 -84.362 -102.673
      vertex 5.655 -83.927 -102.853
    endloop
  endfacet
  facet normal 0 0.382352 0.924017
    outer loop
      vertex 5.655 -84.362 -102.673
      vertex 0.1 -83.927 -102.853
      vertex 0.1 -84.362 -102.673
    endloop
  endfacet
  facet normal 0 0.522532 -0.85262
    outer loop
      vertex 0.1 -84.7634 -97.573
      vertex 5.655 -84.362 -97.327
      vertex 5.655 -84.7634 -97.573
    endloop
  endfacet
  facet normal 0 0.522532 -0.85262
    outer loop
      vertex 5.655 -84.362 -97.327
      vertex 0.1 -84.7634 -97.573
      vertex 0.1 -84.362 -97.327
    endloop
  endfacet
  facet normal 0 -0.649478 -0.76038
    outer loop
      vertex 0.1 -81.2366 -97.573
      vertex 5.655 -80.8787 -97.8787
      vertex 5.655 -81.2366 -97.573
    endloop
  endfacet
  facet normal -0 -0.649478 -0.76038
    outer loop
      vertex 5.655 -80.8787 -97.8787
      vertex 0.1 -81.2366 -97.573
      vertex 0.1 -80.8787 -97.8787
    endloop
  endfacet
  facet normal 0 0.233477 -0.972362
    outer loop
      vertex 0.1 -83.927 -97.1468
      vertex 5.655 -83.4693 -97.0369
      vertex 5.655 -83.927 -97.1468
    endloop
  endfacet
  facet normal 0 0.233477 -0.972362
    outer loop
      vertex 5.655 -83.4693 -97.0369
      vertex 0.1 -83.927 -97.1468
      vertex 0.1 -83.4693 -97.0369
    endloop
  endfacet
  facet normal 0 0.923867 0.382714
    outer loop
      vertex 5.655 -85.673 -101.362
      vertex 0.1 -85.8532 -100.927
      vertex 5.655 -85.8532 -100.927
    endloop
  endfacet
  facet normal 0 0.923867 0.382714
    outer loop
      vertex 0.1 -85.8532 -100.927
      vertex 5.655 -85.673 -101.362
      vertex 0.1 -85.673 -101.362
    endloop
  endfacet
  facet normal 0 0.0783858 -0.996923
    outer loop
      vertex 0.1 -83.4693 -97.0369
      vertex 5.655 -83 -97
      vertex 5.655 -83.4693 -97.0369
    endloop
  endfacet
  facet normal 0 0.0783858 -0.996923
    outer loop
      vertex 5.655 -83 -97
      vertex 0.1 -83.4693 -97.0369
      vertex 0.1 -83 -97
    endloop
  endfacet
  facet normal -0 0.233678 0.972314
    outer loop
      vertex 0.1 -83.4693 -102.963
      vertex 5.655 -83.927 -102.853
      vertex 5.655 -83.4693 -102.963
    endloop
  endfacet
  facet normal 0 0.233678 0.972314
    outer loop
      vertex 5.655 -83.927 -102.853
      vertex 0.1 -83.4693 -102.963
      vertex 0.1 -83.927 -102.853
    endloop
  endfacet
  facet normal 0 -0.923867 0.382714
    outer loop
      vertex 0.1 -80.327 -101.362
      vertex 5.655 -80.1468 -100.927
      vertex 0.1 -80.1468 -100.927
    endloop
  endfacet
  facet normal 0 -0.923867 0.382714
    outer loop
      vertex 5.655 -80.1468 -100.927
      vertex 0.1 -80.327 -101.362
      vertex 5.655 -80.327 -101.362
    endloop
  endfacet
  facet normal 0 0.76047 0.649373
    outer loop
      vertex 5.655 -85.1213 -102.121
      vertex 0.1 -85.427 -101.763
      vertex 5.655 -85.427 -101.763
    endloop
  endfacet
  facet normal 0 0.76047 0.649373
    outer loop
      vertex 0.1 -85.427 -101.763
      vertex 5.655 -85.1213 -102.121
      vertex 0.1 -85.1213 -102.121
    endloop
  endfacet
  facet normal 0 0.649478 -0.76038
    outer loop
      vertex 0.1 -85.1213 -97.8787
      vertex 5.655 -84.7634 -97.573
      vertex 5.655 -85.1213 -97.8787
    endloop
  endfacet
  facet normal 0 0.649478 -0.76038
    outer loop
      vertex 5.655 -84.7634 -97.573
      vertex 0.1 -85.1213 -97.8787
      vertex 0.1 -84.7634 -97.573
    endloop
  endfacet
  facet normal 0 -0.0785969 0.996906
    outer loop
      vertex 0.1 -82.5307 -102.963
      vertex 5.655 -83 -103
      vertex 5.655 -82.5307 -102.963
    endloop
  endfacet
  facet normal 0 -0.0785969 0.996906
    outer loop
      vertex 5.655 -83 -103
      vertex 0.1 -82.5307 -102.963
      vertex 0.1 -83 -103
    endloop
  endfacet
  facet normal -0 0.649846 0.760066
    outer loop
      vertex 0.1 -84.7634 -102.427
      vertex 5.655 -85.1213 -102.121
      vertex 5.655 -84.7634 -102.427
    endloop
  endfacet
  facet normal 0 0.649846 0.760066
    outer loop
      vertex 5.655 -85.1213 -102.121
      vertex 0.1 -84.7634 -102.427
      vertex 0.1 -85.1213 -102.121
    endloop
  endfacet
  facet normal 0 -0.852387 0.522911
    outer loop
      vertex 0.1 -80.573 -101.763
      vertex 5.655 -80.327 -101.362
      vertex 0.1 -80.327 -101.362
    endloop
  endfacet
  facet normal 0 -0.852387 0.522911
    outer loop
      vertex 5.655 -80.327 -101.362
      vertex 0.1 -80.573 -101.763
      vertex 5.655 -80.573 -101.763
    endloop
  endfacet
  facet normal 0 -0.85262 -0.522532
    outer loop
      vertex 0.1 -80.327 -98.638
      vertex 5.655 -80.573 -98.2366
      vertex 0.1 -80.573 -98.2366
    endloop
  endfacet
  facet normal 0 -0.85262 -0.522532
    outer loop
      vertex 5.655 -80.573 -98.2366
      vertex 0.1 -80.327 -98.638
      vertex 5.655 -80.327 -98.638
    endloop
  endfacet
  facet normal 0 -0.76038 -0.649478
    outer loop
      vertex 0.1 -80.573 -98.2366
      vertex 5.655 -80.8787 -97.8787
      vertex 0.1 -80.8787 -97.8787
    endloop
  endfacet
  facet normal 0 -0.76038 -0.649478
    outer loop
      vertex 5.655 -80.8787 -97.8787
      vertex 0.1 -80.573 -98.2366
      vertex 5.655 -80.573 -98.2366
    endloop
  endfacet
  facet normal 0 0.76038 -0.649478
    outer loop
      vertex 5.655 -85.427 -98.2366
      vertex 0.1 -85.1213 -97.8787
      vertex 5.655 -85.1213 -97.8787
    endloop
  endfacet
  facet normal 0 0.76038 -0.649478
    outer loop
      vertex 0.1 -85.1213 -97.8787
      vertex 5.655 -85.427 -98.2366
      vertex 0.1 -85.427 -98.2366
    endloop
  endfacet
  facet normal 0 -0.0783858 -0.996923
    outer loop
      vertex 0.1 -83 -97
      vertex 5.655 -82.5307 -97.0369
      vertex 5.655 -83 -97
    endloop
  endfacet
  facet normal -0 -0.0783858 -0.996923
    outer loop
      vertex 5.655 -82.5307 -97.0369
      vertex 0.1 -83 -97
      vertex 0.1 -82.5307 -97.0369
    endloop
  endfacet
  facet normal 0 -0.382714 -0.923867
    outer loop
      vertex 0.1 -82.073 -97.1468
      vertex 5.655 -81.638 -97.327
      vertex 5.655 -82.073 -97.1468
    endloop
  endfacet
  facet normal -0 -0.382714 -0.923867
    outer loop
      vertex 5.655 -81.638 -97.327
      vertex 0.1 -82.073 -97.1468
      vertex 0.1 -81.638 -97.327
    endloop
  endfacet
  facet normal 0 0.972362 -0.233477
    outer loop
      vertex 5.655 -85.9631 -99.5307
      vertex 0.1 -85.8532 -99.073
      vertex 5.655 -85.8532 -99.073
    endloop
  endfacet
  facet normal 0 0.972362 -0.233477
    outer loop
      vertex 0.1 -85.8532 -99.073
      vertex 5.655 -85.9631 -99.5307
      vertex 0.1 -85.9631 -99.5307
    endloop
  endfacet
  facet normal 0 -0.522532 -0.85262
    outer loop
      vertex 0.1 -81.638 -97.327
      vertex 5.655 -81.2366 -97.573
      vertex 5.655 -81.638 -97.327
    endloop
  endfacet
  facet normal -0 -0.522532 -0.85262
    outer loop
      vertex 5.655 -81.2366 -97.573
      vertex 0.1 -81.638 -97.327
      vertex 0.1 -81.2366 -97.573
    endloop
  endfacet
  facet normal 0 -0.233678 0.972314
    outer loop
      vertex 0.1 -82.073 -102.853
      vertex 5.655 -82.5307 -102.963
      vertex 5.655 -82.073 -102.853
    endloop
  endfacet
  facet normal 0 -0.233678 0.972314
    outer loop
      vertex 5.655 -82.5307 -102.963
      vertex 0.1 -82.073 -102.853
      vertex 0.1 -82.5307 -102.963
    endloop
  endfacet
  facet normal 0 -0.996919 0.0784356
    outer loop
      vertex 0.1 -80.0369 -100.469
      vertex 5.655 -80 -100
      vertex 0.1 -80 -100
    endloop
  endfacet
  facet normal 0 -0.996919 0.0784356
    outer loop
      vertex 5.655 -80 -100
      vertex 0.1 -80.0369 -100.469
      vertex 5.655 -80.0369 -100.469
    endloop
  endfacet
  facet normal 0 -0.76047 0.649373
    outer loop
      vertex 0.1 -80.8787 -102.121
      vertex 5.655 -80.573 -101.763
      vertex 0.1 -80.573 -101.763
    endloop
  endfacet
  facet normal 0 -0.76047 0.649373
    outer loop
      vertex 5.655 -80.573 -101.763
      vertex 0.1 -80.8787 -102.121
      vertex 5.655 -80.8787 -102.121
    endloop
  endfacet
  facet normal 0 0.852387 0.522911
    outer loop
      vertex 5.655 -85.427 -101.763
      vertex 0.1 -85.673 -101.362
      vertex 5.655 -85.673 -101.362
    endloop
  endfacet
  facet normal 0 0.852387 0.522911
    outer loop
      vertex 0.1 -85.673 -101.362
      vertex 5.655 -85.427 -101.763
      vertex 0.1 -85.427 -101.763
    endloop
  endfacet
  facet normal 0 0.996919 0.0784356
    outer loop
      vertex 5.655 -85.9631 -100.469
      vertex 0.1 -86 -100
      vertex 5.655 -86 -100
    endloop
  endfacet
  facet normal 0 0.996919 0.0784356
    outer loop
      vertex 0.1 -86 -100
      vertex 5.655 -85.9631 -100.469
      vertex 0.1 -85.9631 -100.469
    endloop
  endfacet
  facet normal -0 0.0785969 0.996906
    outer loop
      vertex 0.1 -83 -103
      vertex 5.655 -83.4693 -102.963
      vertex 5.655 -83 -103
    endloop
  endfacet
  facet normal 0 0.0785969 0.996906
    outer loop
      vertex 5.655 -83.4693 -102.963
      vertex 0.1 -83 -103
      vertex 0.1 -83.4693 -102.963
    endloop
  endfacet
  facet normal 0 0.972397 0.233333
    outer loop
      vertex 5.655 -85.8532 -100.927
      vertex 0.1 -85.9631 -100.469
      vertex 5.655 -85.9631 -100.469
    endloop
  endfacet
  facet normal 0 0.972397 0.233333
    outer loop
      vertex 0.1 -85.9631 -100.469
      vertex 5.655 -85.8532 -100.927
      vertex 0.1 -85.8532 -100.927
    endloop
  endfacet
  facet normal 0 -0.233477 -0.972362
    outer loop
      vertex 0.1 -82.5307 -97.0369
      vertex 5.655 -82.073 -97.1468
      vertex 5.655 -82.5307 -97.0369
    endloop
  endfacet
  facet normal -0 -0.233477 -0.972362
    outer loop
      vertex 5.655 -82.073 -97.1468
      vertex 0.1 -82.5307 -97.0369
      vertex 0.1 -82.073 -97.1468
    endloop
  endfacet
  facet normal -0 0.522532 0.85262
    outer loop
      vertex 0.1 -84.362 -102.673
      vertex 5.655 -84.7634 -102.427
      vertex 5.655 -84.362 -102.673
    endloop
  endfacet
  facet normal 0 0.522532 0.85262
    outer loop
      vertex 5.655 -84.7634 -102.427
      vertex 0.1 -84.362 -102.673
      vertex 0.1 -84.7634 -102.427
    endloop
  endfacet
  facet normal 0 0.996923 -0.0783858
    outer loop
      vertex 5.655 -86 -100
      vertex 0.1 -85.9631 -99.5307
      vertex 5.655 -85.9631 -99.5307
    endloop
  endfacet
  facet normal 0 0.996923 -0.0783858
    outer loop
      vertex 0.1 -85.9631 -99.5307
      vertex 5.655 -86 -100
      vertex 0.1 -86 -100
    endloop
  endfacet
  facet normal 0 0.85262 -0.522532
    outer loop
      vertex 5.655 -85.673 -98.638
      vertex 0.1 -85.427 -98.2366
      vertex 5.655 -85.427 -98.2366
    endloop
  endfacet
  facet normal 0 0.85262 -0.522532
    outer loop
      vertex 0.1 -85.427 -98.2366
      vertex 5.655 -85.673 -98.638
      vertex 0.1 -85.673 -98.638
    endloop
  endfacet
  facet normal 0 -0.649846 0.760066
    outer loop
      vertex 0.1 -80.8787 -102.121
      vertex 5.655 -81.2366 -102.427
      vertex 5.655 -80.8787 -102.121
    endloop
  endfacet
  facet normal 0 -0.649846 0.760066
    outer loop
      vertex 5.655 -81.2366 -102.427
      vertex 0.1 -80.8787 -102.121
      vertex 0.1 -81.2366 -102.427
    endloop
  endfacet
  facet normal 0 -0.0784301 0.99692
    outer loop
      vertex 5.655 -82.1865 -105.136
      vertex 11 -83 -105.2
      vertex 11 -82.1865 -105.136
    endloop
  endfacet
  facet normal 0 -0.0784301 0.99692
    outer loop
      vertex 11 -83 -105.2
      vertex 5.655 -82.1865 -105.136
      vertex 5.655 -83 -105.2
    endloop
  endfacet
  facet normal 0 -0.972364 -0.23347
    outer loop
      vertex 5.655 -77.864 -99.1865
      vertex 11 -78.0545 -98.3931
      vertex 5.655 -78.0545 -98.3931
    endloop
  endfacet
  facet normal 0 -0.972364 -0.23347
    outer loop
      vertex 11 -78.0545 -98.3931
      vertex 5.655 -77.864 -99.1865
      vertex 11 -77.864 -99.1865
    endloop
  endfacet
  facet normal 0 -0.99692 -0.0784301
    outer loop
      vertex 5.655 -77.8 -100
      vertex 11 -77.864 -99.1865
      vertex 5.655 -77.864 -99.1865
    endloop
  endfacet
  facet normal 0 -0.99692 -0.0784301
    outer loop
      vertex 11 -77.864 -99.1865
      vertex 5.655 -77.8 -100
      vertex 11 -77.8 -100
    endloop
  endfacet
  facet normal 0 -0.923851 -0.382752
    outer loop
      vertex 5.655 -78.0545 -98.3931
      vertex 11 -78.3668 -97.6393
      vertex 5.655 -78.3668 -97.6393
    endloop
  endfacet
  facet normal 0 -0.923851 -0.382752
    outer loop
      vertex 11 -78.3668 -97.6393
      vertex 5.655 -78.0545 -98.3931
      vertex 11 -78.0545 -98.3931
    endloop
  endfacet
  facet normal 0 -0.522154 0.852851
    outer loop
      vertex 5.655 -79.9435 -104.207
      vertex 11 -80.6393 -104.633
      vertex 11 -79.9435 -104.207
    endloop
  endfacet
  facet normal 0 -0.522154 0.852851
    outer loop
      vertex 11 -80.6393 -104.633
      vertex 5.655 -79.9435 -104.207
      vertex 5.655 -80.6393 -104.633
    endloop
  endfacet
  facet normal 0 -0.852688 -0.522421
    outer loop
      vertex 5.655 -78.3668 -97.6393
      vertex 11 -78.7931 -96.9435
      vertex 5.655 -78.7931 -96.9435
    endloop
  endfacet
  facet normal 0 -0.852688 -0.522421
    outer loop
      vertex 11 -78.7931 -96.9435
      vertex 5.655 -78.3668 -97.6393
      vertex 11 -78.3668 -97.6393
    endloop
  endfacet
  facet normal 0 -0.760441 -0.649408
    outer loop
      vertex 5.655 -78.7931 -96.9435
      vertex 11 -79.323 -96.323
      vertex 5.655 -79.323 -96.323
    endloop
  endfacet
  facet normal 0 -0.760441 -0.649408
    outer loop
      vertex 11 -79.323 -96.323
      vertex 5.655 -78.7931 -96.9435
      vertex 11 -78.7931 -96.9435
    endloop
  endfacet
  facet normal 0 0.99692 -0.0784301
    outer loop
      vertex 11 -88.2 -100
      vertex 5.655 -88.136 -99.1865
      vertex 11 -88.136 -99.1865
    endloop
  endfacet
  facet normal 0 0.99692 -0.0784301
    outer loop
      vertex 5.655 -88.136 -99.1865
      vertex 11 -88.2 -100
      vertex 5.655 -88.2 -100
    endloop
  endfacet
  facet normal 0 -0.23405 0.972225
    outer loop
      vertex 5.655 -81.3931 -104.945
      vertex 11 -82.1865 -105.136
      vertex 11 -81.3931 -104.945
    endloop
  endfacet
  facet normal 0 -0.23405 0.972225
    outer loop
      vertex 11 -82.1865 -105.136
      vertex 5.655 -81.3931 -104.945
      vertex 5.655 -82.1865 -105.136
    endloop
  endfacet
  facet normal 0 0.85242 0.522858
    outer loop
      vertex 11 -87.2069 -103.056
      vertex 5.655 -87.6332 -102.361
      vertex 11 -87.6332 -102.361
    endloop
  endfacet
  facet normal 0 0.85242 0.522858
    outer loop
      vertex 5.655 -87.6332 -102.361
      vertex 11 -87.2069 -103.056
      vertex 5.655 -87.2069 -103.056
    endloop
  endfacet
  facet normal 0 0.923887 0.382666
    outer loop
      vertex 11 -87.6332 -102.361
      vertex 5.655 -87.9455 -101.607
      vertex 11 -87.9455 -101.607
    endloop
  endfacet
  facet normal 0 0.923887 0.382666
    outer loop
      vertex 5.655 -87.9455 -101.607
      vertex 11 -87.6332 -102.361
      vertex 5.655 -87.6332 -102.361
    endloop
  endfacet
  facet normal 0 -0.522421 -0.852688
    outer loop
      vertex 5.655 -80.6393 -95.3668
      vertex 11 -79.9435 -95.7931
      vertex 11 -80.6393 -95.3668
    endloop
  endfacet
  facet normal -0 -0.522421 -0.852688
    outer loop
      vertex 11 -79.9435 -95.7931
      vertex 5.655 -80.6393 -95.3668
      vertex 5.655 -79.9435 -95.7931
    endloop
  endfacet
  facet normal 0 0.760441 -0.649408
    outer loop
      vertex 11 -87.2069 -96.9435
      vertex 5.655 -86.677 -96.323
      vertex 11 -86.677 -96.323
    endloop
  endfacet
  facet normal 0 0.760441 -0.649408
    outer loop
      vertex 5.655 -86.677 -96.323
      vertex 11 -87.2069 -96.9435
      vertex 5.655 -87.2069 -96.9435
    endloop
  endfacet
  facet normal 0 0.996916 0.078478
    outer loop
      vertex 11 -88.136 -100.813
      vertex 5.655 -88.2 -100
      vertex 11 -88.2 -100
    endloop
  endfacet
  facet normal 0 0.996916 0.078478
    outer loop
      vertex 5.655 -88.2 -100
      vertex 11 -88.136 -100.813
      vertex 5.655 -88.136 -100.813
    endloop
  endfacet
  facet normal 0 -0.760699 0.649105
    outer loop
      vertex 5.655 -79.323 -103.677
      vertex 11 -78.7931 -103.056
      vertex 5.655 -78.7931 -103.056
    endloop
  endfacet
  facet normal 0 -0.760699 0.649105
    outer loop
      vertex 11 -78.7931 -103.056
      vertex 5.655 -79.323 -103.677
      vertex 11 -79.323 -103.677
    endloop
  endfacet
  facet normal 0 -0.85242 0.522858
    outer loop
      vertex 5.655 -78.7931 -103.056
      vertex 11 -78.3668 -102.361
      vertex 5.655 -78.3668 -102.361
    endloop
  endfacet
  facet normal 0 -0.85242 0.522858
    outer loop
      vertex 11 -78.3668 -102.361
      vertex 5.655 -78.7931 -103.056
      vertex 11 -78.7931 -103.056
    endloop
  endfacet
  facet normal -0 0.23405 0.972225
    outer loop
      vertex 5.655 -83.8135 -105.136
      vertex 11 -84.6069 -104.945
      vertex 11 -83.8135 -105.136
    endloop
  endfacet
  facet normal 0 0.23405 0.972225
    outer loop
      vertex 11 -84.6069 -104.945
      vertex 5.655 -83.8135 -105.136
      vertex 5.655 -84.6069 -104.945
    endloop
  endfacet
  facet normal 1 0 0
    outer loop
      vertex 5.655 -80 -100
      vertex 5.655 -77.8 -100
      vertex 5.655 -77.864 -99.1865
    endloop
  endfacet
  facet normal 1 0 0
    outer loop
      vertex 5.655 -80.0369 -99.5307
      vertex 5.655 -77.864 -99.1865
      vertex 5.655 -78.0545 -98.3931
    endloop
  endfacet
  facet normal 1 0 0
    outer loop
      vertex 5.655 -77.8 -100
      vertex 5.655 -80 -100
      vertex 5.655 -77.864 -100.813
    endloop
  endfacet
  facet normal 1 0 0
    outer loop
      vertex 5.655 -80.1468 -99.073
      vertex 5.655 -78.0545 -98.3931
      vertex 5.655 -78.3668 -97.6393
    endloop
  endfacet
  facet normal 1 -0 0
    outer loop
      vertex 5.655 -80.0369 -100.469
      vertex 5.655 -77.864 -100.813
      vertex 5.655 -80 -100
    endloop
  endfacet
  facet normal 1 0 0
    outer loop
      vertex 5.655 -80.327 -98.638
      vertex 5.655 -78.3668 -97.6393
      vertex 5.655 -78.7931 -96.9435
    endloop
  endfacet
  facet normal 1 0 0
    outer loop
      vertex 5.655 -77.864 -100.813
      vertex 5.655 -80.0369 -100.469
      vertex 5.655 -78.0545 -101.607
    endloop
  endfacet
  facet normal 1 0 0
    outer loop
      vertex 5.655 -80.573 -98.2366
      vertex 5.655 -78.7931 -96.9435
      vertex 5.655 -79.323 -96.323
    endloop
  endfacet
  facet normal 1 -0 0
    outer loop
      vertex 5.655 -80.1468 -100.927
      vertex 5.655 -78.0545 -101.607
      vertex 5.655 -80.0369 -100.469
    endloop
  endfacet
  facet normal 1 0 0
    outer loop
      vertex 5.655 -80.8787 -97.8787
      vertex 5.655 -79.323 -96.323
      vertex 5.655 -79.9435 -95.7931
    endloop
  endfacet
  facet normal 1 0 0
    outer loop
      vertex 5.655 -78.0545 -101.607
      vertex 5.655 -80.1468 -100.927
      vertex 5.655 -78.3668 -102.361
    endloop
  endfacet
  facet normal 1 -0 0
    outer loop
      vertex 5.655 -80.327 -101.362
      vertex 5.655 -78.3668 -102.361
      vertex 5.655 -80.1468 -100.927
    endloop
  endfacet
  facet normal 1 0 0
    outer loop
      vertex 5.655 -77.864 -99.1865
      vertex 5.655 -80.0369 -99.5307
      vertex 5.655 -80 -100
    endloop
  endfacet
  facet normal 1 0 0
    outer loop
      vertex 5.655 -78.0545 -98.3931
      vertex 5.655 -80.1468 -99.073
      vertex 5.655 -80.0369 -99.5307
    endloop
  endfacet
  facet normal 1 0 0
    outer loop
      vertex 5.655 -78.3668 -97.6393
      vertex 5.655 -80.327 -98.638
      vertex 5.655 -80.1468 -99.073
    endloop
  endfacet
  facet normal 1 0 0
    outer loop
      vertex 5.655 -78.7931 -96.9435
      vertex 5.655 -80.573 -98.2366
      vertex 5.655 -80.327 -98.638
    endloop
  endfacet
  facet normal 1 0 0
    outer loop
      vertex 5.655 -81.2366 -97.573
      vertex 5.655 -79.9435 -95.7931
      vertex 5.655 -80.6393 -95.3668
    endloop
  endfacet
  facet normal 1 0 0
    outer loop
      vertex 5.655 -79.323 -96.323
      vertex 5.655 -80.8787 -97.8787
      vertex 5.655 -80.573 -98.2366
    endloop
  endfacet
  facet normal 1 0 0
    outer loop
      vertex 5.655 -79.9435 -95.7931
      vertex 5.655 -81.2366 -97.573
      vertex 5.655 -80.8787 -97.8787
    endloop
  endfacet
  facet normal 1 0 0
    outer loop
      vertex 5.655 -81.638 -97.327
      vertex 5.655 -80.6393 -95.3668
      vertex 5.655 -81.3931 -95.0545
    endloop
  endfacet
  facet normal 1 0 0
    outer loop
      vertex 5.655 -80.6393 -95.3668
      vertex 5.655 -81.638 -97.327
      vertex 5.655 -81.2366 -97.573
    endloop
  endfacet
  facet normal 1 0 0
    outer loop
      vertex 5.655 -81.3931 -95.0545
      vertex 5.655 -82.073 -97.1468
      vertex 5.655 -81.638 -97.327
    endloop
  endfacet
  facet normal 1 0 0
    outer loop
      vertex 5.655 -82.1865 -94.864
      vertex 5.655 -82.073 -97.1468
      vertex 5.655 -81.3931 -95.0545
    endloop
  endfacet
  facet normal 1 0 0
    outer loop
      vertex 5.655 -82.1865 -94.864
      vertex 5.655 -82.5307 -97.0369
      vertex 5.655 -82.073 -97.1468
    endloop
  endfacet
  facet normal 1 0 0
    outer loop
      vertex 5.655 -83 -94.8
      vertex 5.655 -82.5307 -97.0369
      vertex 5.655 -82.1865 -94.864
    endloop
  endfacet
  facet normal 1 0 0
    outer loop
      vertex 5.655 -83 -94.8
      vertex 5.655 -83 -97
      vertex 5.655 -82.5307 -97.0369
    endloop
  endfacet
  facet normal 1 0 0
    outer loop
      vertex 5.655 -83 -94.8
      vertex 5.655 -83.4693 -97.0369
      vertex 5.655 -83 -97
    endloop
  endfacet
  facet normal 1 -0 0
    outer loop
      vertex 5.655 -83.8135 -94.864
      vertex 5.655 -83.4693 -97.0369
      vertex 5.655 -83 -94.8
    endloop
  endfacet
  facet normal 1 0 0
    outer loop
      vertex 5.655 -83.8135 -94.864
      vertex 5.655 -83.927 -97.1468
      vertex 5.655 -83.4693 -97.0369
    endloop
  endfacet
  facet normal 1 -0 0
    outer loop
      vertex 5.655 -84.6069 -95.0545
      vertex 5.655 -83.927 -97.1468
      vertex 5.655 -83.8135 -94.864
    endloop
  endfacet
  facet normal 1 0 0
    outer loop
      vertex 5.655 -83.927 -97.1468
      vertex 5.655 -84.6069 -95.0545
      vertex 5.655 -84.362 -97.327
    endloop
  endfacet
  facet normal 1 -0 0
    outer loop
      vertex 5.655 -85.3607 -95.3668
      vertex 5.655 -84.362 -97.327
      vertex 5.655 -84.6069 -95.0545
    endloop
  endfacet
  facet normal 1 0 0
    outer loop
      vertex 5.655 -84.362 -97.327
      vertex 5.655 -85.3607 -95.3668
      vertex 5.655 -84.7634 -97.573
    endloop
  endfacet
  facet normal 1 -0 0
    outer loop
      vertex 5.655 -86.0565 -95.7931
      vertex 5.655 -84.7634 -97.573
      vertex 5.655 -85.3607 -95.3668
    endloop
  endfacet
  facet normal 1 0 0
    outer loop
      vertex 5.655 -84.7634 -97.573
      vertex 5.655 -86.0565 -95.7931
      vertex 5.655 -85.1213 -97.8787
    endloop
  endfacet
  facet normal 1 -0 0
    outer loop
      vertex 5.655 -86.677 -96.323
      vertex 5.655 -85.1213 -97.8787
      vertex 5.655 -86.0565 -95.7931
    endloop
  endfacet
  facet normal 1 0 0
    outer loop
      vertex 5.655 -85.1213 -97.8787
      vertex 5.655 -86.677 -96.323
      vertex 5.655 -85.427 -98.2366
    endloop
  endfacet
  facet normal 1 -0 0
    outer loop
      vertex 5.655 -87.2069 -96.9435
      vertex 5.655 -85.427 -98.2366
      vertex 5.655 -86.677 -96.323
    endloop
  endfacet
  facet normal 1 -0 0
    outer loop
      vertex 5.655 -87.6332 -97.6393
      vertex 5.655 -85.673 -98.638
      vertex 5.655 -87.2069 -96.9435
    endloop
  endfacet
  facet normal 1 0 0
    outer loop
      vertex 5.655 -85.427 -98.2366
      vertex 5.655 -87.2069 -96.9435
      vertex 5.655 -85.673 -98.638
    endloop
  endfacet
  facet normal 1 0 0
    outer loop
      vertex 5.655 -78.3668 -102.361
      vertex 5.655 -80.327 -101.362
      vertex 5.655 -78.7931 -103.056
    endloop
  endfacet
  facet normal 1 -0 0
    outer loop
      vertex 5.655 -80.573 -101.763
      vertex 5.655 -78.7931 -103.056
      vertex 5.655 -80.327 -101.362
    endloop
  endfacet
  facet normal 1 0 0
    outer loop
      vertex 5.655 -78.7931 -103.056
      vertex 5.655 -80.573 -101.763
      vertex 5.655 -79.323 -103.677
    endloop
  endfacet
  facet normal 1 -0 0
    outer loop
      vertex 5.655 -80.8787 -102.121
      vertex 5.655 -79.323 -103.677
      vertex 5.655 -80.573 -101.763
    endloop
  endfacet
  facet normal 1 0 0
    outer loop
      vertex 5.655 -79.323 -103.677
      vertex 5.655 -80.8787 -102.121
      vertex 5.655 -79.9435 -104.207
    endloop
  endfacet
  facet normal 1 -0 0
    outer loop
      vertex 5.655 -81.2366 -102.427
      vertex 5.655 -79.9435 -104.207
      vertex 5.655 -80.8787 -102.121
    endloop
  endfacet
  facet normal 1 0 0
    outer loop
      vertex 5.655 -79.9435 -104.207
      vertex 5.655 -81.2366 -102.427
      vertex 5.655 -80.6393 -104.633
    endloop
  endfacet
  facet normal 1 -0 0
    outer loop
      vertex 5.655 -81.638 -102.673
      vertex 5.655 -80.6393 -104.633
      vertex 5.655 -81.2366 -102.427
    endloop
  endfacet
  facet normal 1 0 0
    outer loop
      vertex 5.655 -80.6393 -104.633
      vertex 5.655 -81.638 -102.673
      vertex 5.655 -81.3931 -104.945
    endloop
  endfacet
  facet normal 1 -0 0
    outer loop
      vertex 5.655 -82.073 -102.853
      vertex 5.655 -81.3931 -104.945
      vertex 5.655 -81.638 -102.673
    endloop
  endfacet
  facet normal 1 0 0
    outer loop
      vertex 5.655 -82.073 -102.853
      vertex 5.655 -82.1865 -105.136
      vertex 5.655 -81.3931 -104.945
    endloop
  endfacet
  facet normal 1 -0 0
    outer loop
      vertex 5.655 -82.5307 -102.963
      vertex 5.655 -82.1865 -105.136
      vertex 5.655 -82.073 -102.853
    endloop
  endfacet
  facet normal 1 -0 0
    outer loop
      vertex 5.655 -83 -103
      vertex 5.655 -82.1865 -105.136
      vertex 5.655 -82.5307 -102.963
    endloop
  endfacet
  facet normal 1 0 0
    outer loop
      vertex 5.655 -83 -103
      vertex 5.655 -83 -105.2
      vertex 5.655 -82.1865 -105.136
    endloop
  endfacet
  facet normal 1 0 0
    outer loop
      vertex 5.655 -83.4693 -102.963
      vertex 5.655 -83 -105.2
      vertex 5.655 -83 -103
    endloop
  endfacet
  facet normal 1 0 0
    outer loop
      vertex 5.655 -83.4693 -102.963
      vertex 5.655 -83.8135 -105.136
      vertex 5.655 -83 -105.2
    endloop
  endfacet
  facet normal 1 0 0
    outer loop
      vertex 5.655 -83.927 -102.853
      vertex 5.655 -83.8135 -105.136
      vertex 5.655 -83.4693 -102.963
    endloop
  endfacet
  facet normal 1 0 0
    outer loop
      vertex 5.655 -84.6069 -104.945
      vertex 5.655 -83.927 -102.853
      vertex 5.655 -84.362 -102.673
    endloop
  endfacet
  facet normal 1 0 0
    outer loop
      vertex 5.655 -83.927 -102.853
      vertex 5.655 -84.6069 -104.945
      vertex 5.655 -83.8135 -105.136
    endloop
  endfacet
  facet normal 1 0 0
    outer loop
      vertex 5.655 -85.3607 -104.633
      vertex 5.655 -84.362 -102.673
      vertex 5.655 -84.7634 -102.427
    endloop
  endfacet
  facet normal 1 0 0
    outer loop
      vertex 5.655 -86.0565 -104.207
      vertex 5.655 -84.7634 -102.427
      vertex 5.655 -85.1213 -102.121
    endloop
  endfacet
  facet normal 1 0 0
    outer loop
      vertex 5.655 -84.362 -102.673
      vertex 5.655 -85.3607 -104.633
      vertex 5.655 -84.6069 -104.945
    endloop
  endfacet
  facet normal 1 0 0
    outer loop
      vertex 5.655 -86.677 -103.677
      vertex 5.655 -85.1213 -102.121
      vertex 5.655 -85.427 -101.763
    endloop
  endfacet
  facet normal 1 0 0
    outer loop
      vertex 5.655 -87.2069 -103.056
      vertex 5.655 -85.427 -101.763
      vertex 5.655 -85.673 -101.362
    endloop
  endfacet
  facet normal 1 0 0
    outer loop
      vertex 5.655 -87.6332 -102.361
      vertex 5.655 -85.673 -101.362
      vertex 5.655 -85.8532 -100.927
    endloop
  endfacet
  facet normal 1 0 0
    outer loop
      vertex 5.655 -87.9455 -101.607
      vertex 5.655 -85.8532 -100.927
      vertex 5.655 -85.9631 -100.469
    endloop
  endfacet
  facet normal 1 0 0
    outer loop
      vertex 5.655 -84.7634 -102.427
      vertex 5.655 -86.0565 -104.207
      vertex 5.655 -85.3607 -104.633
    endloop
  endfacet
  facet normal 1 0 0
    outer loop
      vertex 5.655 -88.136 -100.813
      vertex 5.655 -85.9631 -100.469
      vertex 5.655 -86 -100
    endloop
  endfacet
  facet normal 1 0 0
    outer loop
      vertex 5.655 -85.673 -98.638
      vertex 5.655 -87.6332 -97.6393
      vertex 5.655 -85.8532 -99.073
    endloop
  endfacet
  facet normal 1 -0 0
    outer loop
      vertex 5.655 -87.9455 -98.3931
      vertex 5.655 -85.8532 -99.073
      vertex 5.655 -87.6332 -97.6393
    endloop
  endfacet
  facet normal 1 0 0
    outer loop
      vertex 5.655 -85.1213 -102.121
      vertex 5.655 -86.677 -103.677
      vertex 5.655 -86.0565 -104.207
    endloop
  endfacet
  facet normal 1 0 0
    outer loop
      vertex 5.655 -85.8532 -99.073
      vertex 5.655 -87.9455 -98.3931
      vertex 5.655 -85.9631 -99.5307
    endloop
  endfacet
  facet normal 1 0 0
    outer loop
      vertex 5.655 -85.427 -101.763
      vertex 5.655 -87.2069 -103.056
      vertex 5.655 -86.677 -103.677
    endloop
  endfacet
  facet normal 1 -0 0
    outer loop
      vertex 5.655 -88.136 -99.1865
      vertex 5.655 -85.9631 -99.5307
      vertex 5.655 -87.9455 -98.3931
    endloop
  endfacet
  facet normal 1 0 0
    outer loop
      vertex 5.655 -85.673 -101.362
      vertex 5.655 -87.6332 -102.361
      vertex 5.655 -87.2069 -103.056
    endloop
  endfacet
  facet normal 1 0 0
    outer loop
      vertex 5.655 -85.9631 -99.5307
      vertex 5.655 -88.136 -99.1865
      vertex 5.655 -86 -100
    endloop
  endfacet
  facet normal 1 0 0
    outer loop
      vertex 5.655 -85.8532 -100.927
      vertex 5.655 -87.9455 -101.607
      vertex 5.655 -87.6332 -102.361
    endloop
  endfacet
  facet normal 1 0 0
    outer loop
      vertex 5.655 -88.2 -100
      vertex 5.655 -86 -100
      vertex 5.655 -88.136 -99.1865
    endloop
  endfacet
  facet normal 1 0 0
    outer loop
      vertex 5.655 -85.9631 -100.469
      vertex 5.655 -88.136 -100.813
      vertex 5.655 -87.9455 -101.607
    endloop
  endfacet
  facet normal 1 0 0
    outer loop
      vertex 5.655 -86 -100
      vertex 5.655 -88.2 -100
      vertex 5.655 -88.136 -100.813
    endloop
  endfacet
  facet normal 0 0.972404 0.233303
    outer loop
      vertex 11 -87.9455 -101.607
      vertex 5.655 -88.136 -100.813
      vertex 11 -88.136 -100.813
    endloop
  endfacet
  facet normal 0 0.972404 0.233303
    outer loop
      vertex 5.655 -88.136 -100.813
      vertex 11 -87.9455 -101.607
      vertex 5.655 -87.9455 -101.607
    endloop
  endfacet
  facet normal -0 0.382438 0.923981
    outer loop
      vertex 5.655 -84.6069 -104.945
      vertex 11 -85.3607 -104.633
      vertex 11 -84.6069 -104.945
    endloop
  endfacet
  facet normal 0 0.382438 0.923981
    outer loop
      vertex 11 -85.3607 -104.633
      vertex 5.655 -84.6069 -104.945
      vertex 5.655 -85.3607 -104.633
    endloop
  endfacet
  facet normal 0 -0.996916 0.078478
    outer loop
      vertex 5.655 -77.864 -100.813
      vertex 11 -77.8 -100
      vertex 5.655 -77.8 -100
    endloop
  endfacet
  facet normal 0 -0.996916 0.078478
    outer loop
      vertex 11 -77.8 -100
      vertex 5.655 -77.864 -100.813
      vertex 11 -77.864 -100.813
    endloop
  endfacet
  facet normal 0 -0.972404 0.233303
    outer loop
      vertex 5.655 -78.0545 -101.607
      vertex 11 -77.864 -100.813
      vertex 5.655 -77.864 -100.813
    endloop
  endfacet
  facet normal 0 -0.972404 0.233303
    outer loop
      vertex 11 -77.864 -100.813
      vertex 5.655 -78.0545 -101.607
      vertex 11 -78.0545 -101.607
    endloop
  endfacet
  facet normal 0 0.649408 -0.760441
    outer loop
      vertex 5.655 -86.677 -96.323
      vertex 11 -86.0565 -95.7931
      vertex 11 -86.677 -96.323
    endloop
  endfacet
  facet normal 0 0.649408 -0.760441
    outer loop
      vertex 11 -86.0565 -95.7931
      vertex 5.655 -86.677 -96.323
      vertex 5.655 -86.0565 -95.7931
    endloop
  endfacet
  facet normal 0 0.382752 -0.923851
    outer loop
      vertex 5.655 -85.3607 -95.3668
      vertex 11 -84.6069 -95.0545
      vertex 11 -85.3607 -95.3668
    endloop
  endfacet
  facet normal 0 0.382752 -0.923851
    outer loop
      vertex 11 -84.6069 -95.0545
      vertex 5.655 -85.3607 -95.3668
      vertex 5.655 -84.6069 -95.0545
    endloop
  endfacet
  facet normal 0 -0.649408 -0.760441
    outer loop
      vertex 5.655 -79.9435 -95.7931
      vertex 11 -79.323 -96.323
      vertex 11 -79.9435 -95.7931
    endloop
  endfacet
  facet normal -0 -0.649408 -0.760441
    outer loop
      vertex 11 -79.323 -96.323
      vertex 5.655 -79.9435 -95.7931
      vertex 5.655 -79.323 -96.323
    endloop
  endfacet
  facet normal 0 0.852688 -0.522421
    outer loop
      vertex 11 -87.6332 -97.6393
      vertex 5.655 -87.2069 -96.9435
      vertex 11 -87.2069 -96.9435
    endloop
  endfacet
  facet normal 0 0.852688 -0.522421
    outer loop
      vertex 5.655 -87.2069 -96.9435
      vertex 11 -87.6332 -97.6393
      vertex 5.655 -87.6332 -97.6393
    endloop
  endfacet
  facet normal 0 0.923851 -0.382752
    outer loop
      vertex 11 -87.9455 -98.3931
      vertex 5.655 -87.6332 -97.6393
      vertex 11 -87.6332 -97.6393
    endloop
  endfacet
  facet normal 0 0.923851 -0.382752
    outer loop
      vertex 5.655 -87.6332 -97.6393
      vertex 11 -87.9455 -98.3931
      vertex 5.655 -87.9455 -98.3931
    endloop
  endfacet
  facet normal 0 0.23347 -0.972364
    outer loop
      vertex 5.655 -84.6069 -95.0545
      vertex 11 -83.8135 -94.864
      vertex 11 -84.6069 -95.0545
    endloop
  endfacet
  facet normal 0 0.23347 -0.972364
    outer loop
      vertex 11 -83.8135 -94.864
      vertex 5.655 -84.6069 -95.0545
      vertex 5.655 -83.8135 -94.864
    endloop
  endfacet
  facet normal 0 0.0784301 -0.99692
    outer loop
      vertex 5.655 -83.8135 -94.864
      vertex 11 -83 -94.8
      vertex 11 -83.8135 -94.864
    endloop
  endfacet
  facet normal 0 0.0784301 -0.99692
    outer loop
      vertex 11 -83 -94.8
      vertex 5.655 -83.8135 -94.864
      vertex 5.655 -83 -94.8
    endloop
  endfacet
  facet normal -0 0.649478 0.76038
    outer loop
      vertex 5.655 -86.0565 -104.207
      vertex 11 -86.677 -103.677
      vertex 11 -86.0565 -104.207
    endloop
  endfacet
  facet normal 0 0.649478 0.76038
    outer loop
      vertex 11 -86.677 -103.677
      vertex 5.655 -86.0565 -104.207
      vertex 5.655 -86.677 -103.677
    endloop
  endfacet
  facet normal 0 -0.0784301 -0.99692
    outer loop
      vertex 5.655 -83 -94.8
      vertex 11 -82.1865 -94.864
      vertex 11 -83 -94.8
    endloop
  endfacet
  facet normal -0 -0.0784301 -0.99692
    outer loop
      vertex 11 -82.1865 -94.864
      vertex 5.655 -83 -94.8
      vertex 5.655 -82.1865 -94.864
    endloop
  endfacet
  facet normal 0 0.760699 0.649105
    outer loop
      vertex 11 -86.677 -103.677
      vertex 5.655 -87.2069 -103.056
      vertex 11 -87.2069 -103.056
    endloop
  endfacet
  facet normal 0 0.760699 0.649105
    outer loop
      vertex 5.655 -87.2069 -103.056
      vertex 11 -86.677 -103.677
      vertex 5.655 -86.677 -103.677
    endloop
  endfacet
  facet normal 0 -0.649478 0.76038
    outer loop
      vertex 5.655 -79.323 -103.677
      vertex 11 -79.9435 -104.207
      vertex 11 -79.323 -103.677
    endloop
  endfacet
  facet normal 0 -0.649478 0.76038
    outer loop
      vertex 11 -79.9435 -104.207
      vertex 5.655 -79.323 -103.677
      vertex 5.655 -79.9435 -104.207
    endloop
  endfacet
  facet normal 0 -0.382752 -0.923851
    outer loop
      vertex 5.655 -81.3931 -95.0545
      vertex 11 -80.6393 -95.3668
      vertex 11 -81.3931 -95.0545
    endloop
  endfacet
  facet normal -0 -0.382752 -0.923851
    outer loop
      vertex 11 -80.6393 -95.3668
      vertex 5.655 -81.3931 -95.0545
      vertex 5.655 -80.6393 -95.3668
    endloop
  endfacet
  facet normal 0 0.972364 -0.23347
    outer loop
      vertex 11 -88.136 -99.1865
      vertex 5.655 -87.9455 -98.3931
      vertex 11 -87.9455 -98.3931
    endloop
  endfacet
  facet normal 0 0.972364 -0.23347
    outer loop
      vertex 5.655 -87.9455 -98.3931
      vertex 11 -88.136 -99.1865
      vertex 5.655 -88.136 -99.1865
    endloop
  endfacet
  facet normal 0 -0.23347 -0.972364
    outer loop
      vertex 5.655 -82.1865 -94.864
      vertex 11 -81.3931 -95.0545
      vertex 11 -82.1865 -94.864
    endloop
  endfacet
  facet normal -0 -0.23347 -0.972364
    outer loop
      vertex 11 -81.3931 -95.0545
      vertex 5.655 -82.1865 -94.864
      vertex 5.655 -81.3931 -95.0545
    endloop
  endfacet
  facet normal 0 -0.923887 0.382666
    outer loop
      vertex 5.655 -78.3668 -102.361
      vertex 11 -78.0545 -101.607
      vertex 5.655 -78.0545 -101.607
    endloop
  endfacet
  facet normal 0 -0.923887 0.382666
    outer loop
      vertex 11 -78.0545 -101.607
      vertex 5.655 -78.3668 -102.361
      vertex 11 -78.3668 -102.361
    endloop
  endfacet
  facet normal 0 -0.382438 0.923981
    outer loop
      vertex 5.655 -80.6393 -104.633
      vertex 11 -81.3931 -104.945
      vertex 11 -80.6393 -104.633
    endloop
  endfacet
  facet normal 0 -0.382438 0.923981
    outer loop
      vertex 11 -81.3931 -104.945
      vertex 5.655 -80.6393 -104.633
      vertex 5.655 -81.3931 -104.945
    endloop
  endfacet
  facet normal 0 0.522421 -0.852688
    outer loop
      vertex 5.655 -86.0565 -95.7931
      vertex 11 -85.3607 -95.3668
      vertex 11 -86.0565 -95.7931
    endloop
  endfacet
  facet normal 0 0.522421 -0.852688
    outer loop
      vertex 11 -85.3607 -95.3668
      vertex 5.655 -86.0565 -95.7931
      vertex 5.655 -85.3607 -95.3668
    endloop
  endfacet
  facet normal -0 0.0784301 0.99692
    outer loop
      vertex 5.655 -83 -105.2
      vertex 11 -83.8135 -105.136
      vertex 11 -83 -105.2
    endloop
  endfacet
  facet normal 0 0.0784301 0.99692
    outer loop
      vertex 11 -83.8135 -105.136
      vertex 5.655 -83 -105.2
      vertex 5.655 -83.8135 -105.136
    endloop
  endfacet
  facet normal -0 0.522154 0.852851
    outer loop
      vertex 5.655 -85.3607 -104.633
      vertex 11 -86.0565 -104.207
      vertex 11 -85.3607 -104.633
    endloop
  endfacet
  facet normal 0 0.522154 0.852851
    outer loop
      vertex 11 -86.0565 -104.207
      vertex 5.655 -85.3607 -104.633
      vertex 5.655 -86.0565 -104.207
    endloop
  endfacet
endsolid OpenSCAD_Model
