solid OpenSCAD_Model
  facet normal 0 0 -1
    outer loop
      vertex 10 -3 0
      vertex 8.86691 -2.97845 0
      vertex 8.87 -2.89999 0
    endloop
  endfacet
  facet normal 0 0 -1
    outer loop
      vertex 9.04498 -4.70528 0
      vertex 8.85768 -3.05643 0
      vertex 8.86691 -2.97845 0
    endloop
  endfacet
  facet normal 0 0 -1
    outer loop
      vertex 9.04498 -4.70528 0
      vertex 8.84236 -3.13344 0
      vertex 8.85768 -3.05643 0
    endloop
  endfacet
  facet normal 0 0 -1
    outer loop
      vertex 9.04498 -4.70528 0
      vertex 8.82104 -3.20901 0
      vertex 8.84236 -3.13344 0
    endloop
  endfacet
  facet normal 0 0 -1
    outer loop
      vertex 9.04498 -4.70528 0
      vertex 8.79387 -3.28267 0
      vertex 8.82104 -3.20901 0
    endloop
  endfacet
  facet normal 0 0 -1
    outer loop
      vertex 8.32399 -3.791 0
      vertex 8.90797 -4.78201 0
      vertex 8.76537 -4.84775 0
    endloop
  endfacet
  facet normal 0 0 -1
    outer loop
      vertex 9.04498 -4.70528 0
      vertex 8.761 -3.35399 0
      vertex 8.79387 -3.28267 0
    endloop
  endfacet
  facet normal 0 0 -1
    outer loop
      vertex 9.04498 -4.70528 0
      vertex 8.72263 -3.42249 0
      vertex 8.761 -3.35399 0
    endloop
  endfacet
  facet normal 0 0 -1
    outer loop
      vertex 9.04498 -4.70528 0
      vertex 8.67902 -3.48778 0
      vertex 8.72263 -3.42249 0
    endloop
  endfacet
  facet normal 0 0 -1
    outer loop
      vertex 9.04498 -4.70528 0
      vertex 8.6304 -3.54944 0
      vertex 8.67902 -3.48778 0
    endloop
  endfacet
  facet normal 0 0 -1
    outer loop
      vertex 8.25267 -3.82387 0
      vertex 8.76537 -4.84775 0
      vertex 8.61803 -4.9021 0
    endloop
  endfacet
  facet normal 0 0 -1
    outer loop
      vertex 9.04498 -4.70528 0
      vertex 8.5771 -3.6071 0
      vertex 8.6304 -3.54944 0
    endloop
  endfacet
  facet normal 0 0 -1
    outer loop
      vertex 9.04498 -4.70528 0
      vertex 8.51944 -3.6604 0
      vertex 8.5771 -3.6071 0
    endloop
  endfacet
  facet normal 0 0 -1
    outer loop
      vertex 8.17902 -3.85104 0
      vertex 8.61803 -4.9021 0
      vertex 8.46689 -4.94473 0
    endloop
  endfacet
  facet normal 0 0 -1
    outer loop
      vertex 9.04498 -4.70528 0
      vertex 8.45778 -3.70901 0
      vertex 8.51944 -3.6604 0
    endloop
  endfacet
  facet normal 0 0 -1
    outer loop
      vertex 9.04498 -4.70528 0
      vertex 8.39249 -3.75264 0
      vertex 8.45778 -3.70901 0
    endloop
  endfacet
  facet normal 0 0 -1
    outer loop
      vertex 8.90797 -4.78201 0
      vertex 8.32399 -3.791 0
      vertex 8.39249 -3.75264 0
    endloop
  endfacet
  facet normal 0 0 -1
    outer loop
      vertex 8.10344 -3.87236 0
      vertex 8.46689 -4.94473 0
      vertex 8.31287 -4.97537 0
    endloop
  endfacet
  facet normal 0 0 -1
    outer loop
      vertex 8.76537 -4.84775 0
      vertex 8.25267 -3.82387 0
      vertex 8.32399 -3.791 0
    endloop
  endfacet
  facet normal 0 0 -1
    outer loop
      vertex 8.61803 -4.9021 0
      vertex 8.17902 -3.85104 0
      vertex 8.25267 -3.82387 0
    endloop
  endfacet
  facet normal 0 0 -1
    outer loop
      vertex 8.10344 -3.87236 0
      vertex 8.31287 -4.97537 0
      vertex 8.15691 -4.99382 0
    endloop
  endfacet
  facet normal 0 0 -1
    outer loop
      vertex 8.46689 -4.94473 0
      vertex 8.10344 -3.87236 0
      vertex 8.17902 -3.85104 0
    endloop
  endfacet
  facet normal 0 0 -1
    outer loop
      vertex 8.15691 -4.99382 0
      vertex 8.02643 -3.88768 0
      vertex 8.10344 -3.87236 0
    endloop
  endfacet
  facet normal 0 0 -1
    outer loop
      vertex 8 -5 0
      vertex 8.02643 -3.88768 0
      vertex 8.15691 -4.99382 0
    endloop
  endfacet
  facet normal 0 0 -1
    outer loop
      vertex 8 -5 0
      vertex 7.94846 -3.89691 0
      vertex 8.02643 -3.88768 0
    endloop
  endfacet
  facet normal 0 0 -1
    outer loop
      vertex 8 -5 0
      vertex 7.87 -3.89999 0
      vertex 7.94846 -3.89691 0
    endloop
  endfacet
  facet normal 0 0 -1
    outer loop
      vertex 8 -5 0
      vertex -7.87 -3.89999 0
      vertex 7.87 -3.89999 0
    endloop
  endfacet
  facet normal 0 0 -1
    outer loop
      vertex -8 -5 0
      vertex -7.87 -3.89999 0
      vertex 8 -5 0
    endloop
  endfacet
  facet normal -0 0 -1
    outer loop
      vertex -7.87 -3.89999 0
      vertex -8 -5 0
      vertex -7.94846 -3.89691 0
    endloop
  endfacet
  facet normal 0 0 -1
    outer loop
      vertex -8 -5 0
      vertex -8.02643 -3.88768 0
      vertex -7.94846 -3.89691 0
    endloop
  endfacet
  facet normal 0 0 -1
    outer loop
      vertex -8.15691 -4.99382 0
      vertex -8.02643 -3.88768 0
      vertex -8 -5 0
    endloop
  endfacet
  facet normal -0 0 -1
    outer loop
      vertex -8.02643 -3.88768 0
      vertex -8.15691 -4.99382 0
      vertex -8.10344 -3.87236 0
    endloop
  endfacet
  facet normal 0 0 -1
    outer loop
      vertex -8.31287 -4.97537 0
      vertex -8.10344 -3.87236 0
      vertex -8.15691 -4.99382 0
    endloop
  endfacet
  facet normal 0 0 -1
    outer loop
      vertex -8.46689 -4.94473 0
      vertex -8.10344 -3.87236 0
      vertex -8.31287 -4.97537 0
    endloop
  endfacet
  facet normal -0 0 -1
    outer loop
      vertex -8.10344 -3.87236 0
      vertex -8.46689 -4.94473 0
      vertex -8.17902 -3.85104 0
    endloop
  endfacet
  facet normal 0 0 -1
    outer loop
      vertex -8.61803 -4.9021 0
      vertex -8.17902 -3.85104 0
      vertex -8.46689 -4.94473 0
    endloop
  endfacet
  facet normal -0 0 -1
    outer loop
      vertex -8.17902 -3.85104 0
      vertex -8.61803 -4.9021 0
      vertex -8.25267 -3.82387 0
    endloop
  endfacet
  facet normal 0 0 -1
    outer loop
      vertex -8.76537 -4.84775 0
      vertex -8.25267 -3.82387 0
      vertex -8.61803 -4.9021 0
    endloop
  endfacet
  facet normal -0 0 -1
    outer loop
      vertex -8.25267 -3.82387 0
      vertex -8.76537 -4.84775 0
      vertex -8.32399 -3.791 0
    endloop
  endfacet
  facet normal 0 0 -1
    outer loop
      vertex -8.90797 -4.78201 0
      vertex -8.32399 -3.791 0
      vertex -8.76537 -4.84775 0
    endloop
  endfacet
  facet normal -0 0 -1
    outer loop
      vertex -8.32399 -3.791 0
      vertex -8.90797 -4.78201 0
      vertex -8.39249 -3.75264 0
    endloop
  endfacet
  facet normal 0 0 -1
    outer loop
      vertex -9.04498 -4.70528 0
      vertex -8.39249 -3.75264 0
      vertex -8.90797 -4.78201 0
    endloop
  endfacet
  facet normal -0 0 -1
    outer loop
      vertex -8.39249 -3.75264 0
      vertex -9.04498 -4.70528 0
      vertex -8.45778 -3.70901 0
    endloop
  endfacet
  facet normal 0 0 -1
    outer loop
      vertex -9.17557 -4.61803 0
      vertex -8.45778 -3.70901 0
      vertex -9.04498 -4.70528 0
    endloop
  endfacet
  facet normal -0 0 -1
    outer loop
      vertex -8.45778 -3.70901 0
      vertex -9.17557 -4.61803 0
      vertex -8.51944 -3.6604 0
    endloop
  endfacet
  facet normal 0 0 -1
    outer loop
      vertex -9.29889 -4.5208 0
      vertex -8.51944 -3.6604 0
      vertex -9.17557 -4.61803 0
    endloop
  endfacet
  facet normal -0 0 -1
    outer loop
      vertex -8.51944 -3.6604 0
      vertex -9.29889 -4.5208 0
      vertex -8.5771 -3.6071 0
    endloop
  endfacet
  facet normal 0 0 -1
    outer loop
      vertex -9.4142 -4.4142 0
      vertex -8.5771 -3.6071 0
      vertex -9.29889 -4.5208 0
    endloop
  endfacet
  facet normal -0 0 -1
    outer loop
      vertex -8.5771 -3.6071 0
      vertex -9.4142 -4.4142 0
      vertex -8.6304 -3.54944 0
    endloop
  endfacet
  facet normal 0 0 -1
    outer loop
      vertex -9.5208 -4.29889 0
      vertex -8.6304 -3.54944 0
      vertex -9.4142 -4.4142 0
    endloop
  endfacet
  facet normal -0 0 -1
    outer loop
      vertex -8.6304 -3.54944 0
      vertex -9.5208 -4.29889 0
      vertex -8.67902 -3.48778 0
    endloop
  endfacet
  facet normal 0 0 -1
    outer loop
      vertex -9.61803 -4.17557 0
      vertex -8.67902 -3.48778 0
      vertex -9.5208 -4.29889 0
    endloop
  endfacet
  facet normal 0 0 -1
    outer loop
      vertex -9.78201 -3.90797 0
      vertex -8.72263 -3.42249 0
      vertex -9.70528 -4.04498 0
    endloop
  endfacet
  facet normal -0 0 -1
    outer loop
      vertex -8.67902 -3.48778 0
      vertex -9.70528 -4.04498 0
      vertex -8.72263 -3.42249 0
    endloop
  endfacet
  facet normal 0 0 -1
    outer loop
      vertex -9.70528 -4.04498 0
      vertex -8.67902 -3.48778 0
      vertex -9.61803 -4.17557 0
    endloop
  endfacet
  facet normal 0 0 -1
    outer loop
      vertex 8.86691 -2.97845 0
      vertex 10 -3 0
      vertex 9.99382 -3.15691 0
    endloop
  endfacet
  facet normal 0 0 -1
    outer loop
      vertex 8.86691 -2.97845 0
      vertex 9.99382 -3.15691 0
      vertex 9.97537 -3.31287 0
    endloop
  endfacet
  facet normal 0 0 -1
    outer loop
      vertex 8.86691 -2.97845 0
      vertex 9.97537 -3.31287 0
      vertex 9.94473 -3.46689 0
    endloop
  endfacet
  facet normal 0 0 -1
    outer loop
      vertex 8.86691 -2.97845 0
      vertex 9.94473 -3.46689 0
      vertex 9.9021 -3.61803 0
    endloop
  endfacet
  facet normal 0 0 -1
    outer loop
      vertex 8.86691 -2.97845 0
      vertex 9.9021 -3.61803 0
      vertex 9.84775 -3.76537 0
    endloop
  endfacet
  facet normal 0 0 -1
    outer loop
      vertex 8.86691 -2.97845 0
      vertex 9.84775 -3.76537 0
      vertex 9.78201 -3.90797 0
    endloop
  endfacet
  facet normal 0 0 -1
    outer loop
      vertex 8.86691 -2.97845 0
      vertex 9.78201 -3.90797 0
      vertex 9.70528 -4.04498 0
    endloop
  endfacet
  facet normal 0 0 -1
    outer loop
      vertex 8.86691 -2.97845 0
      vertex 9.70528 -4.04498 0
      vertex 9.61803 -4.17557 0
    endloop
  endfacet
  facet normal 0 0 -1
    outer loop
      vertex 8.86691 -2.97845 0
      vertex 9.61803 -4.17557 0
      vertex 9.5208 -4.29889 0
    endloop
  endfacet
  facet normal 0 0 -1
    outer loop
      vertex 8.86691 -2.97845 0
      vertex 9.5208 -4.29889 0
      vertex 9.4142 -4.4142 0
    endloop
  endfacet
  facet normal 0 0 -1
    outer loop
      vertex 8.86691 -2.97845 0
      vertex 9.4142 -4.4142 0
      vertex 9.29889 -4.5208 0
    endloop
  endfacet
  facet normal 0 0 -1
    outer loop
      vertex 8.86691 -2.97845 0
      vertex 9.29889 -4.5208 0
      vertex 9.17557 -4.61803 0
    endloop
  endfacet
  facet normal 0 0 -1
    outer loop
      vertex 8.86691 -2.97845 0
      vertex 9.17557 -4.61803 0
      vertex 9.04498 -4.70528 0
    endloop
  endfacet
  facet normal 0 0 -1
    outer loop
      vertex 8.39249 -3.75264 0
      vertex 9.04498 -4.70528 0
      vertex 8.90797 -4.78201 0
    endloop
  endfacet
  facet normal 0 0 -1
    outer loop
      vertex 10 -3 0
      vertex 8.87 -2.89999 0
      vertex 8.87 -0.159988 0
    endloop
  endfacet
  facet normal 0 0 -1
    outer loop
      vertex 10 -3 0
      vertex 8.87 -0.159988 0
      vertex 10 0.839996 0
    endloop
  endfacet
  facet normal 0 0 -1
    outer loop
      vertex 8.87 -0.159988 0
      vertex 3.7 0.839996 0
      vertex 10 0.839996 0
    endloop
  endfacet
  facet normal 0 0 -1
    outer loop
      vertex 2.17 -0.159988 0
      vertex 3.7 0.839996 0
      vertex 8.87 -0.159988 0
    endloop
  endfacet
  facet normal 0 0 -1
    outer loop
      vertex 2.17 -0.159988 0
      vertex 3.14 1.62999 0
      vertex 3.7 0.839996 0
    endloop
  endfacet
  facet normal 0 0 -1
    outer loop
      vertex 2.17 4 0
      vertex 3.14 1.62999 0
      vertex 2.17 -0.159988 0
    endloop
  endfacet
  facet normal 0 0 -1
    outer loop
      vertex 3.14 1.62999 0
      vertex 2.17 4 0
      vertex 2.95 4 0
    endloop
  endfacet
  facet normal -0 0 -1
    outer loop
      vertex 3.29999 2.38499 0
      vertex 3.14 1.62999 0
      vertex 2.95 4 0
    endloop
  endfacet
  facet normal 0 0 -1
    outer loop
      vertex -3.14 1.62999 0
      vertex -2.17 4 0
      vertex -2.17 -0.159988 0
    endloop
  endfacet
  facet normal 0 0 -1
    outer loop
      vertex -3.29999 2.38499 0
      vertex -2.17 4 0
      vertex -3.14 1.62999 0
    endloop
  endfacet
  facet normal 0 0 -1
    outer loop
      vertex -2.17 -0.159988 0
      vertex -3.7 0.839996 0
      vertex -3.14 1.62999 0
    endloop
  endfacet
  facet normal 0 0 -1
    outer loop
      vertex -8.87 -0.159988 0
      vertex -3.7 0.839996 0
      vertex -2.17 -0.159988 0
    endloop
  endfacet
  facet normal -0 0 -1
    outer loop
      vertex -8.72263 -3.42249 0
      vertex -9.78201 -3.90797 0
      vertex -8.761 -3.35399 0
    endloop
  endfacet
  facet normal 0 0 -1
    outer loop
      vertex -9.84775 -3.76537 0
      vertex -8.761 -3.35399 0
      vertex -9.78201 -3.90797 0
    endloop
  endfacet
  facet normal -0 0 -1
    outer loop
      vertex -8.761 -3.35399 0
      vertex -9.84775 -3.76537 0
      vertex -8.79387 -3.28267 0
    endloop
  endfacet
  facet normal 0 0 -1
    outer loop
      vertex -9.9021 -3.61803 0
      vertex -8.79387 -3.28267 0
      vertex -9.84775 -3.76537 0
    endloop
  endfacet
  facet normal -0 0 -1
    outer loop
      vertex -8.79387 -3.28267 0
      vertex -9.9021 -3.61803 0
      vertex -8.82104 -3.20901 0
    endloop
  endfacet
  facet normal 0 0 -1
    outer loop
      vertex -9.94473 -3.46689 0
      vertex -8.82104 -3.20901 0
      vertex -9.9021 -3.61803 0
    endloop
  endfacet
  facet normal -0 0 -1
    outer loop
      vertex -8.82104 -3.20901 0
      vertex -9.94473 -3.46689 0
      vertex -8.84236 -3.13344 0
    endloop
  endfacet
  facet normal 0 0 -1
    outer loop
      vertex -9.97537 -3.31287 0
      vertex -8.84236 -3.13344 0
      vertex -9.94473 -3.46689 0
    endloop
  endfacet
  facet normal -0 0 -1
    outer loop
      vertex -8.84236 -3.13344 0
      vertex -9.97537 -3.31287 0
      vertex -8.85768 -3.05643 0
    endloop
  endfacet
  facet normal 0 0 -1
    outer loop
      vertex -9.99382 -3.15691 0
      vertex -8.85768 -3.05643 0
      vertex -9.97537 -3.31287 0
    endloop
  endfacet
  facet normal -0 0 -1
    outer loop
      vertex -8.85768 -3.05643 0
      vertex -9.99382 -3.15691 0
      vertex -8.86691 -2.97845 0
    endloop
  endfacet
  facet normal 0 0 -1
    outer loop
      vertex -10 -3 0
      vertex -8.86691 -2.97845 0
      vertex -9.99382 -3.15691 0
    endloop
  endfacet
  facet normal -0 0 -1
    outer loop
      vertex -8.86691 -2.97845 0
      vertex -10 -3 0
      vertex -8.87 -2.89999 0
    endloop
  endfacet
  facet normal -0 0 -1
    outer loop
      vertex -8.87 -2.89999 0
      vertex -10 -3 0
      vertex -8.87 -0.159988 0
    endloop
  endfacet
  facet normal 0 0 -1
    outer loop
      vertex -8.87 -0.159988 0
      vertex -10 0.839996 0
      vertex -3.7 0.839996 0
    endloop
  endfacet
  facet normal 0 0 -1
    outer loop
      vertex -10 0.839996 0
      vertex -8.87 -0.159988 0
      vertex -10 -3 0
    endloop
  endfacet
  facet normal -0 0 -1
    outer loop
      vertex -2.17 4 0
      vertex -3.29999 2.38499 0
      vertex -2.95 4 0
    endloop
  endfacet
  facet normal -0 0 1
    outer loop
      vertex 2.17 4 1
      vertex 3.29999 2.38499 1
      vertex 2.95 4 1
    endloop
  endfacet
  facet normal -0 0 1
    outer loop
      vertex 8.87 -0.159988 1
      vertex 10 -3 1
      vertex 10 0.839996 1
    endloop
  endfacet
  facet normal -0 0 1
    outer loop
      vertex 8.87 -2.89999 1
      vertex 10 -3 1
      vertex 8.87 -0.159988 1
    endloop
  endfacet
  facet normal -0 0 1
    outer loop
      vertex 8.86691 -2.97845 1
      vertex 10 -3 1
      vertex 8.87 -2.89999 1
    endloop
  endfacet
  facet normal 0 0 1
    outer loop
      vertex 10 -3 1
      vertex 8.86691 -2.97845 1
      vertex 9.99382 -3.15691 1
    endloop
  endfacet
  facet normal -0 0 1
    outer loop
      vertex 8.85768 -3.05643 1
      vertex 9.99382 -3.15691 1
      vertex 8.86691 -2.97845 1
    endloop
  endfacet
  facet normal 0 0 1
    outer loop
      vertex 9.99382 -3.15691 1
      vertex 8.85768 -3.05643 1
      vertex 9.97537 -3.31287 1
    endloop
  endfacet
  facet normal 0 0 1
    outer loop
      vertex 9.97537 -3.31287 1
      vertex 8.84236 -3.13344 1
      vertex 9.94473 -3.46689 1
    endloop
  endfacet
  facet normal -0 0 1
    outer loop
      vertex 8.82104 -3.20901 1
      vertex 9.94473 -3.46689 1
      vertex 8.84236 -3.13344 1
    endloop
  endfacet
  facet normal 0 0 1
    outer loop
      vertex 9.94473 -3.46689 1
      vertex 8.82104 -3.20901 1
      vertex 9.9021 -3.61803 1
    endloop
  endfacet
  facet normal -0 0 1
    outer loop
      vertex 8.79387 -3.28267 1
      vertex 9.9021 -3.61803 1
      vertex 8.82104 -3.20901 1
    endloop
  endfacet
  facet normal 0 0 1
    outer loop
      vertex 9.9021 -3.61803 1
      vertex 8.79387 -3.28267 1
      vertex 9.84775 -3.76537 1
    endloop
  endfacet
  facet normal -0 0 1
    outer loop
      vertex 8.761 -3.35399 1
      vertex 9.84775 -3.76537 1
      vertex 8.79387 -3.28267 1
    endloop
  endfacet
  facet normal 0 0 1
    outer loop
      vertex 9.84775 -3.76537 1
      vertex 8.761 -3.35399 1
      vertex 9.78201 -3.90797 1
    endloop
  endfacet
  facet normal -0 0 1
    outer loop
      vertex 8.72263 -3.42249 1
      vertex 9.78201 -3.90797 1
      vertex 8.761 -3.35399 1
    endloop
  endfacet
  facet normal -0 0 1
    outer loop
      vertex 8.84236 -3.13344 1
      vertex 9.97537 -3.31287 1
      vertex 8.85768 -3.05643 1
    endloop
  endfacet
  facet normal -0 0 1
    outer loop
      vertex 3.7 0.839996 1
      vertex 8.87 -0.159988 1
      vertex 10 0.839996 1
    endloop
  endfacet
  facet normal 0 0 1
    outer loop
      vertex 3.29999 2.38499 1
      vertex 2.17 4 1
      vertex 3.14 1.62999 1
    endloop
  endfacet
  facet normal 0 0 1
    outer loop
      vertex 3.7 0.839996 1
      vertex 2.17 -0.159988 1
      vertex 8.87 -0.159988 1
    endloop
  endfacet
  facet normal 0 0 1
    outer loop
      vertex 3.14 1.62999 1
      vertex 2.17 -0.159988 1
      vertex 3.7 0.839996 1
    endloop
  endfacet
  facet normal 0 0 1
    outer loop
      vertex 2.17 -0.159988 1
      vertex 3.14 1.62999 1
      vertex 2.17 4 1
    endloop
  endfacet
  facet normal 0 0 1
    outer loop
      vertex 9.78201 -3.90797 1
      vertex 8.72263 -3.42249 1
      vertex 9.70528 -4.04498 1
    endloop
  endfacet
  facet normal -0 0 1
    outer loop
      vertex 8.67902 -3.48778 1
      vertex 9.70528 -4.04498 1
      vertex 8.72263 -3.42249 1
    endloop
  endfacet
  facet normal 0 0 1
    outer loop
      vertex 9.70528 -4.04498 1
      vertex 8.67902 -3.48778 1
      vertex 9.61803 -4.17557 1
    endloop
  endfacet
  facet normal 0 0 1
    outer loop
      vertex 9.61803 -4.17557 1
      vertex 8.67902 -3.48778 1
      vertex 9.5208 -4.29889 1
    endloop
  endfacet
  facet normal -0 0 1
    outer loop
      vertex 8.6304 -3.54944 1
      vertex 9.5208 -4.29889 1
      vertex 8.67902 -3.48778 1
    endloop
  endfacet
  facet normal 0 0 1
    outer loop
      vertex 9.5208 -4.29889 1
      vertex 8.6304 -3.54944 1
      vertex 9.4142 -4.4142 1
    endloop
  endfacet
  facet normal -0 0 1
    outer loop
      vertex 8.5771 -3.6071 1
      vertex 9.4142 -4.4142 1
      vertex 8.6304 -3.54944 1
    endloop
  endfacet
  facet normal 0 0 1
    outer loop
      vertex 9.4142 -4.4142 1
      vertex 8.5771 -3.6071 1
      vertex 9.29889 -4.5208 1
    endloop
  endfacet
  facet normal -0 0 1
    outer loop
      vertex 8.51944 -3.6604 1
      vertex 9.29889 -4.5208 1
      vertex 8.5771 -3.6071 1
    endloop
  endfacet
  facet normal 0 0 1
    outer loop
      vertex 9.29889 -4.5208 1
      vertex 8.51944 -3.6604 1
      vertex 9.17557 -4.61803 1
    endloop
  endfacet
  facet normal -0 0 1
    outer loop
      vertex 8.45778 -3.70901 1
      vertex 9.17557 -4.61803 1
      vertex 8.51944 -3.6604 1
    endloop
  endfacet
  facet normal 0 0 1
    outer loop
      vertex 9.17557 -4.61803 1
      vertex 8.45778 -3.70901 1
      vertex 9.04498 -4.70528 1
    endloop
  endfacet
  facet normal -0 0 1
    outer loop
      vertex 8.39249 -3.75264 1
      vertex 9.04498 -4.70528 1
      vertex 8.45778 -3.70901 1
    endloop
  endfacet
  facet normal 0 0 1
    outer loop
      vertex 9.04498 -4.70528 1
      vertex 8.39249 -3.75264 1
      vertex 8.90797 -4.78201 1
    endloop
  endfacet
  facet normal -0 0 1
    outer loop
      vertex 8.32399 -3.791 1
      vertex 8.90797 -4.78201 1
      vertex 8.39249 -3.75264 1
    endloop
  endfacet
  facet normal 0 0 1
    outer loop
      vertex 8.90797 -4.78201 1
      vertex 8.32399 -3.791 1
      vertex 8.76537 -4.84775 1
    endloop
  endfacet
  facet normal -0 0 1
    outer loop
      vertex 8.25267 -3.82387 1
      vertex 8.76537 -4.84775 1
      vertex 8.32399 -3.791 1
    endloop
  endfacet
  facet normal 0 0 1
    outer loop
      vertex 8.76537 -4.84775 1
      vertex 8.25267 -3.82387 1
      vertex 8.61803 -4.9021 1
    endloop
  endfacet
  facet normal -0 0 1
    outer loop
      vertex 8.17902 -3.85104 1
      vertex 8.61803 -4.9021 1
      vertex 8.25267 -3.82387 1
    endloop
  endfacet
  facet normal 0 0 1
    outer loop
      vertex 8.61803 -4.9021 1
      vertex 8.17902 -3.85104 1
      vertex 8.46689 -4.94473 1
    endloop
  endfacet
  facet normal -0 0 1
    outer loop
      vertex 8.10344 -3.87236 1
      vertex 8.46689 -4.94473 1
      vertex 8.17902 -3.85104 1
    endloop
  endfacet
  facet normal 0 0 1
    outer loop
      vertex 8.46689 -4.94473 1
      vertex 8.10344 -3.87236 1
      vertex 8.31287 -4.97537 1
    endloop
  endfacet
  facet normal 0 0 1
    outer loop
      vertex 8.31287 -4.97537 1
      vertex 8.10344 -3.87236 1
      vertex 8.15691 -4.99382 1
    endloop
  endfacet
  facet normal -0 0 1
    outer loop
      vertex 8.02643 -3.88768 1
      vertex 8.15691 -4.99382 1
      vertex 8.10344 -3.87236 1
    endloop
  endfacet
  facet normal 0 0 1
    outer loop
      vertex 8.02643 -3.88768 1
      vertex 8 -5 1
      vertex 8.15691 -4.99382 1
    endloop
  endfacet
  facet normal -0 0 1
    outer loop
      vertex 7.94846 -3.89691 1
      vertex 8 -5 1
      vertex 8.02643 -3.88768 1
    endloop
  endfacet
  facet normal -0 0 1
    outer loop
      vertex 7.87 -3.89999 1
      vertex 8 -5 1
      vertex 7.94846 -3.89691 1
    endloop
  endfacet
  facet normal -0 0 1
    outer loop
      vertex -7.87 -3.89999 1
      vertex 8 -5 1
      vertex 7.87 -3.89999 1
    endloop
  endfacet
  facet normal 0 0 1
    outer loop
      vertex -8 -5 1
      vertex -7.87 -3.89999 1
      vertex -7.94846 -3.89691 1
    endloop
  endfacet
  facet normal 0 0 1
    outer loop
      vertex -7.87 -3.89999 1
      vertex -8 -5 1
      vertex 8 -5 1
    endloop
  endfacet
  facet normal 0 0 1
    outer loop
      vertex -8.02643 -3.88768 1
      vertex -8 -5 1
      vertex -7.94846 -3.89691 1
    endloop
  endfacet
  facet normal 0 0 1
    outer loop
      vertex -8.15691 -4.99382 1
      vertex -8.02643 -3.88768 1
      vertex -8.10344 -3.87236 1
    endloop
  endfacet
  facet normal 0 0 1
    outer loop
      vertex -8.02643 -3.88768 1
      vertex -8.15691 -4.99382 1
      vertex -8 -5 1
    endloop
  endfacet
  facet normal 0 0 1
    outer loop
      vertex -8.46689 -4.94473 1
      vertex -8.10344 -3.87236 1
      vertex -8.17902 -3.85104 1
    endloop
  endfacet
  facet normal 0 0 1
    outer loop
      vertex -8.61803 -4.9021 1
      vertex -8.17902 -3.85104 1
      vertex -8.25267 -3.82387 1
    endloop
  endfacet
  facet normal 0 0 1
    outer loop
      vertex -8.10344 -3.87236 1
      vertex -8.31287 -4.97537 1
      vertex -8.15691 -4.99382 1
    endloop
  endfacet
  facet normal 0 0 1
    outer loop
      vertex -8.76537 -4.84775 1
      vertex -8.25267 -3.82387 1
      vertex -8.32399 -3.791 1
    endloop
  endfacet
  facet normal 0 0 1
    outer loop
      vertex -8.90797 -4.78201 1
      vertex -8.32399 -3.791 1
      vertex -8.39249 -3.75264 1
    endloop
  endfacet
  facet normal 0 0 1
    outer loop
      vertex -9.04498 -4.70528 1
      vertex -8.39249 -3.75264 1
      vertex -8.45778 -3.70901 1
    endloop
  endfacet
  facet normal 0 0 1
    outer loop
      vertex -8.10344 -3.87236 1
      vertex -8.46689 -4.94473 1
      vertex -8.31287 -4.97537 1
    endloop
  endfacet
  facet normal 0 0 1
    outer loop
      vertex -9.17557 -4.61803 1
      vertex -8.45778 -3.70901 1
      vertex -8.51944 -3.6604 1
    endloop
  endfacet
  facet normal 0 0 1
    outer loop
      vertex -9.29889 -4.5208 1
      vertex -8.51944 -3.6604 1
      vertex -8.5771 -3.6071 1
    endloop
  endfacet
  facet normal 0 0 1
    outer loop
      vertex -8.17902 -3.85104 1
      vertex -8.61803 -4.9021 1
      vertex -8.46689 -4.94473 1
    endloop
  endfacet
  facet normal 0 0 1
    outer loop
      vertex -9.4142 -4.4142 1
      vertex -8.5771 -3.6071 1
      vertex -8.6304 -3.54944 1
    endloop
  endfacet
  facet normal 0 0 1
    outer loop
      vertex -9.5208 -4.29889 1
      vertex -8.6304 -3.54944 1
      vertex -8.67902 -3.48778 1
    endloop
  endfacet
  facet normal 0 0 1
    outer loop
      vertex -9.70528 -4.04498 1
      vertex -8.67902 -3.48778 1
      vertex -8.72263 -3.42249 1
    endloop
  endfacet
  facet normal 0 0 1
    outer loop
      vertex -9.78201 -3.90797 1
      vertex -8.72263 -3.42249 1
      vertex -8.761 -3.35399 1
    endloop
  endfacet
  facet normal 0 0 1
    outer loop
      vertex -8.25267 -3.82387 1
      vertex -8.76537 -4.84775 1
      vertex -8.61803 -4.9021 1
    endloop
  endfacet
  facet normal 0 0 1
    outer loop
      vertex -9.84775 -3.76537 1
      vertex -8.761 -3.35399 1
      vertex -8.79387 -3.28267 1
    endloop
  endfacet
  facet normal 0 0 1
    outer loop
      vertex -9.9021 -3.61803 1
      vertex -8.79387 -3.28267 1
      vertex -8.82104 -3.20901 1
    endloop
  endfacet
  facet normal 0 0 1
    outer loop
      vertex -9.94473 -3.46689 1
      vertex -8.82104 -3.20901 1
      vertex -8.84236 -3.13344 1
    endloop
  endfacet
  facet normal 0 0 1
    outer loop
      vertex -9.97537 -3.31287 1
      vertex -8.84236 -3.13344 1
      vertex -8.85768 -3.05643 1
    endloop
  endfacet
  facet normal 0 0 1
    outer loop
      vertex -9.99382 -3.15691 1
      vertex -8.85768 -3.05643 1
      vertex -8.86691 -2.97845 1
    endloop
  endfacet
  facet normal 0 0 1
    outer loop
      vertex -8.32399 -3.791 1
      vertex -8.90797 -4.78201 1
      vertex -8.76537 -4.84775 1
    endloop
  endfacet
  facet normal 0 0 1
    outer loop
      vertex -10 -3 1
      vertex -8.86691 -2.97845 1
      vertex -8.87 -2.89999 1
    endloop
  endfacet
  facet normal 0 0 1
    outer loop
      vertex -2.17 4 1
      vertex -3.29999 2.38499 1
      vertex -3.14 1.62999 1
    endloop
  endfacet
  facet normal 0 0 1
    outer loop
      vertex -3.29999 2.38499 1
      vertex -2.17 4 1
      vertex -2.95 4 1
    endloop
  endfacet
  facet normal 0 0 1
    outer loop
      vertex -2.17 4 1
      vertex -3.14 1.62999 1
      vertex -2.17 -0.159988 1
    endloop
  endfacet
  facet normal -0 0 1
    outer loop
      vertex -3.7 0.839996 1
      vertex -2.17 -0.159988 1
      vertex -3.14 1.62999 1
    endloop
  endfacet
  facet normal 0 0 1
    outer loop
      vertex -3.7 0.839996 1
      vertex -8.87 -0.159988 1
      vertex -2.17 -0.159988 1
    endloop
  endfacet
  facet normal 0 0 1
    outer loop
      vertex -10 -3 1
      vertex -8.87 -2.89999 1
      vertex -8.87 -0.159988 1
    endloop
  endfacet
  facet normal 0 0 1
    outer loop
      vertex -8.86691 -2.97845 1
      vertex -10 -3 1
      vertex -9.99382 -3.15691 1
    endloop
  endfacet
  facet normal 0 0 1
    outer loop
      vertex -8.39249 -3.75264 1
      vertex -9.04498 -4.70528 1
      vertex -8.90797 -4.78201 1
    endloop
  endfacet
  facet normal 0 0 1
    outer loop
      vertex -8.45778 -3.70901 1
      vertex -9.17557 -4.61803 1
      vertex -9.04498 -4.70528 1
    endloop
  endfacet
  facet normal 0 0 1
    outer loop
      vertex -8.51944 -3.6604 1
      vertex -9.29889 -4.5208 1
      vertex -9.17557 -4.61803 1
    endloop
  endfacet
  facet normal 0 0 1
    outer loop
      vertex -8.5771 -3.6071 1
      vertex -9.4142 -4.4142 1
      vertex -9.29889 -4.5208 1
    endloop
  endfacet
  facet normal 0 0 1
    outer loop
      vertex -8.6304 -3.54944 1
      vertex -9.5208 -4.29889 1
      vertex -9.4142 -4.4142 1
    endloop
  endfacet
  facet normal 0 0 1
    outer loop
      vertex -8.67902 -3.48778 1
      vertex -9.61803 -4.17557 1
      vertex -9.5208 -4.29889 1
    endloop
  endfacet
  facet normal 0 0 1
    outer loop
      vertex -8.67902 -3.48778 1
      vertex -9.70528 -4.04498 1
      vertex -9.61803 -4.17557 1
    endloop
  endfacet
  facet normal 0 0 1
    outer loop
      vertex -8.72263 -3.42249 1
      vertex -9.78201 -3.90797 1
      vertex -9.70528 -4.04498 1
    endloop
  endfacet
  facet normal 0 0 1
    outer loop
      vertex -8.761 -3.35399 1
      vertex -9.84775 -3.76537 1
      vertex -9.78201 -3.90797 1
    endloop
  endfacet
  facet normal 0 0 1
    outer loop
      vertex -8.79387 -3.28267 1
      vertex -9.9021 -3.61803 1
      vertex -9.84775 -3.76537 1
    endloop
  endfacet
  facet normal 0 0 1
    outer loop
      vertex -8.82104 -3.20901 1
      vertex -9.94473 -3.46689 1
      vertex -9.9021 -3.61803 1
    endloop
  endfacet
  facet normal 0 0 1
    outer loop
      vertex -8.84236 -3.13344 1
      vertex -9.97537 -3.31287 1
      vertex -9.94473 -3.46689 1
    endloop
  endfacet
  facet normal -0 0 1
    outer loop
      vertex -10 0.839996 1
      vertex -8.87 -0.159988 1
      vertex -3.7 0.839996 1
    endloop
  endfacet
  facet normal 0 0 1
    outer loop
      vertex -10 -3 1
      vertex -8.87 -0.159988 1
      vertex -10 0.839996 1
    endloop
  endfacet
  facet normal 0 0 1
    outer loop
      vertex -8.85768 -3.05643 1
      vertex -9.99382 -3.15691 1
      vertex -9.97537 -3.31287 1
    endloop
  endfacet
  facet normal 0.11748 -0.993075 0
    outer loop
      vertex 8.15691 -4.99382 0
      vertex 8.31287 -4.97537 1
      vertex 8.15691 -4.99382 1
    endloop
  endfacet
  facet normal 0.11748 -0.993075 0
    outer loop
      vertex 8.31287 -4.97537 1
      vertex 8.15691 -4.99382 0
      vertex 8.31287 -4.97537 0
    endloop
  endfacet
  facet normal 0.195112 -0.980781 0
    outer loop
      vertex 8.31287 -4.97537 0
      vertex 8.46689 -4.94473 1
      vertex 8.31287 -4.97537 1
    endloop
  endfacet
  facet normal 0.195112 -0.980781 0
    outer loop
      vertex 8.46689 -4.94473 1
      vertex 8.31287 -4.97537 0
      vertex 8.46689 -4.94473 0
    endloop
  endfacet
  facet normal 0.271465 -0.962448 0
    outer loop
      vertex 8.46689 -4.94473 0
      vertex 8.61803 -4.9021 1
      vertex 8.46689 -4.94473 1
    endloop
  endfacet
  facet normal 0.271465 -0.962448 0
    outer loop
      vertex 8.61803 -4.9021 1
      vertex 8.46689 -4.94473 0
      vertex 8.61803 -4.9021 0
    endloop
  endfacet
  facet normal 0.34608 -0.938205 0
    outer loop
      vertex 8.61803 -4.9021 0
      vertex 8.76537 -4.84775 1
      vertex 8.61803 -4.9021 1
    endloop
  endfacet
  facet normal 0.34608 -0.938205 0
    outer loop
      vertex 8.76537 -4.84775 1
      vertex 8.61803 -4.9021 0
      vertex 8.76537 -4.84775 0
    endloop
  endfacet
  facet normal 0.418662 -0.908142 0
    outer loop
      vertex 8.76537 -4.84775 0
      vertex 8.90797 -4.78201 1
      vertex 8.76537 -4.84775 1
    endloop
  endfacet
  facet normal 0.418662 -0.908142 0
    outer loop
      vertex 8.90797 -4.78201 1
      vertex 8.76537 -4.84775 0
      vertex 8.90797 -4.78201 0
    endloop
  endfacet
  facet normal 0.488625 -0.872494 0
    outer loop
      vertex 8.90797 -4.78201 0
      vertex 9.04498 -4.70528 1
      vertex 8.90797 -4.78201 1
    endloop
  endfacet
  facet normal 0.488625 -0.872494 0
    outer loop
      vertex 9.04498 -4.70528 1
      vertex 8.90797 -4.78201 0
      vertex 9.04498 -4.70528 0
    endloop
  endfacet
  facet normal 0.555537 -0.831492 0
    outer loop
      vertex 9.04498 -4.70528 0
      vertex 9.17557 -4.61803 1
      vertex 9.04498 -4.70528 1
    endloop
  endfacet
  facet normal 0.555537 -0.831492 0
    outer loop
      vertex 9.17557 -4.61803 1
      vertex 9.04498 -4.70528 0
      vertex 9.17557 -4.61803 0
    endloop
  endfacet
  facet normal 0.619142 -0.785279 0
    outer loop
      vertex 9.17557 -4.61803 0
      vertex 9.29889 -4.5208 1
      vertex 9.17557 -4.61803 1
    endloop
  endfacet
  facet normal 0.619142 -0.785279 0
    outer loop
      vertex 9.29889 -4.5208 1
      vertex 9.17557 -4.61803 0
      vertex 9.29889 -4.5208 0
    endloop
  endfacet
  facet normal 0.67883 -0.734295 0
    outer loop
      vertex 9.29889 -4.5208 0
      vertex 9.4142 -4.4142 1
      vertex 9.29889 -4.5208 1
    endloop
  endfacet
  facet normal 0.67883 -0.734295 0
    outer loop
      vertex 9.4142 -4.4142 1
      vertex 9.29889 -4.5208 0
      vertex 9.4142 -4.4142 0
    endloop
  endfacet
  facet normal 0.734295 -0.67883 0
    outer loop
      vertex 9.4142 -4.4142 1
      vertex 9.5208 -4.29889 0
      vertex 9.5208 -4.29889 1
    endloop
  endfacet
  facet normal 0.734295 -0.67883 0
    outer loop
      vertex 9.5208 -4.29889 0
      vertex 9.4142 -4.4142 1
      vertex 9.4142 -4.4142 0
    endloop
  endfacet
  facet normal 0.785279 -0.619142 0
    outer loop
      vertex 9.5208 -4.29889 1
      vertex 9.61803 -4.17557 0
      vertex 9.61803 -4.17557 1
    endloop
  endfacet
  facet normal 0.785279 -0.619142 0
    outer loop
      vertex 9.61803 -4.17557 0
      vertex 9.5208 -4.29889 1
      vertex 9.5208 -4.29889 0
    endloop
  endfacet
  facet normal 0.831492 -0.555537 0
    outer loop
      vertex 9.61803 -4.17557 1
      vertex 9.70528 -4.04498 0
      vertex 9.70528 -4.04498 1
    endloop
  endfacet
  facet normal 0.831492 -0.555537 0
    outer loop
      vertex 9.70528 -4.04498 0
      vertex 9.61803 -4.17557 1
      vertex 9.61803 -4.17557 0
    endloop
  endfacet
  facet normal 0.872494 -0.488625 0
    outer loop
      vertex 9.70528 -4.04498 1
      vertex 9.78201 -3.90797 0
      vertex 9.78201 -3.90797 1
    endloop
  endfacet
  facet normal 0.872494 -0.488625 0
    outer loop
      vertex 9.78201 -3.90797 0
      vertex 9.70528 -4.04498 1
      vertex 9.70528 -4.04498 0
    endloop
  endfacet
  facet normal 0.908142 -0.418662 0
    outer loop
      vertex 9.78201 -3.90797 1
      vertex 9.84775 -3.76537 0
      vertex 9.84775 -3.76537 1
    endloop
  endfacet
  facet normal 0.908142 -0.418662 0
    outer loop
      vertex 9.84775 -3.76537 0
      vertex 9.78201 -3.90797 1
      vertex 9.78201 -3.90797 0
    endloop
  endfacet
  facet normal 0.938205 -0.34608 0
    outer loop
      vertex 9.84775 -3.76537 1
      vertex 9.9021 -3.61803 0
      vertex 9.9021 -3.61803 1
    endloop
  endfacet
  facet normal 0.938205 -0.34608 0
    outer loop
      vertex 9.9021 -3.61803 0
      vertex 9.84775 -3.76537 1
      vertex 9.84775 -3.76537 0
    endloop
  endfacet
  facet normal 0.962448 -0.271465 0
    outer loop
      vertex 9.9021 -3.61803 1
      vertex 9.94473 -3.46689 0
      vertex 9.94473 -3.46689 1
    endloop
  endfacet
  facet normal 0.962448 -0.271465 0
    outer loop
      vertex 9.94473 -3.46689 0
      vertex 9.9021 -3.61803 1
      vertex 9.9021 -3.61803 0
    endloop
  endfacet
  facet normal 0.980781 -0.195112 0
    outer loop
      vertex 9.94473 -3.46689 1
      vertex 9.97537 -3.31287 0
      vertex 9.97537 -3.31287 1
    endloop
  endfacet
  facet normal 0.980781 -0.195112 0
    outer loop
      vertex 9.97537 -3.31287 0
      vertex 9.94473 -3.46689 1
      vertex 9.94473 -3.46689 0
    endloop
  endfacet
  facet normal 0.993075 -0.11748 0
    outer loop
      vertex 9.97537 -3.31287 1
      vertex 9.99382 -3.15691 0
      vertex 9.99382 -3.15691 1
    endloop
  endfacet
  facet normal 0.993075 -0.11748 0
    outer loop
      vertex 9.99382 -3.15691 0
      vertex 9.97537 -3.31287 1
      vertex 9.97537 -3.31287 0
    endloop
  endfacet
  facet normal 0.999225 -0.0393551 0
    outer loop
      vertex 9.99382 -3.15691 1
      vertex 10 -3 0
      vertex 10 -3 1
    endloop
  endfacet
  facet normal 0.999225 -0.0393551 0
    outer loop
      vertex 10 -3 0
      vertex 9.99382 -3.15691 1
      vertex 9.99382 -3.15691 0
    endloop
  endfacet
  facet normal 1 -0 0
    outer loop
      vertex 10 -3 1
      vertex 10 0.839996 0
      vertex 10 0.839996 1
    endloop
  endfacet
  facet normal 1 0 0
    outer loop
      vertex 10 0.839996 0
      vertex 10 -3 1
      vertex 10 -3 0
    endloop
  endfacet
  facet normal 0 1 -0
    outer loop
      vertex 10 0.839996 0
      vertex 3.7 0.839996 1
      vertex 10 0.839996 1
    endloop
  endfacet
  facet normal 0 1 0
    outer loop
      vertex 3.7 0.839996 1
      vertex 10 0.839996 0
      vertex 3.7 0.839996 0
    endloop
  endfacet
  facet normal 0.815819 0.578307 0
    outer loop
      vertex 3.7 0.839996 1
      vertex 3.14 1.62999 0
      vertex 3.14 1.62999 1
    endloop
  endfacet
  facet normal 0.815819 0.578307 0
    outer loop
      vertex 3.14 1.62999 0
      vertex 3.7 0.839996 1
      vertex 3.7 0.839996 0
    endloop
  endfacet
  facet normal 0.978277 -0.207304 0
    outer loop
      vertex 3.14 1.62999 1
      vertex 3.29999 2.38499 0
      vertex 3.29999 2.38499 1
    endloop
  endfacet
  facet normal 0.978277 -0.207304 0
    outer loop
      vertex 3.29999 2.38499 0
      vertex 3.14 1.62999 1
      vertex 3.14 1.62999 0
    endloop
  endfacet
  facet normal 0.977314 0.211794 0
    outer loop
      vertex 3.29999 2.38499 1
      vertex 2.95 4 0
      vertex 2.95 4 1
    endloop
  endfacet
  facet normal 0.977314 0.211794 0
    outer loop
      vertex 2.95 4 0
      vertex 3.29999 2.38499 1
      vertex 3.29999 2.38499 0
    endloop
  endfacet
  facet normal 0 1 -0
    outer loop
      vertex 2.95 4 0
      vertex 2.17 4 1
      vertex 2.95 4 1
    endloop
  endfacet
  facet normal 0 1 0
    outer loop
      vertex 2.17 4 1
      vertex 2.95 4 0
      vertex 2.17 4 0
    endloop
  endfacet
  facet normal -1 0 0
    outer loop
      vertex 2.17 -0.159988 0
      vertex 2.17 4 1
      vertex 2.17 4 0
    endloop
  endfacet
  facet normal -1 -0 0
    outer loop
      vertex 2.17 4 1
      vertex 2.17 -0.159988 0
      vertex 2.17 -0.159988 1
    endloop
  endfacet
  facet normal 0 -1 0
    outer loop
      vertex 2.17 -0.159988 0
      vertex 8.87 -0.159988 1
      vertex 2.17 -0.159988 1
    endloop
  endfacet
  facet normal 0 -1 -0
    outer loop
      vertex 8.87 -0.159988 1
      vertex 2.17 -0.159988 0
      vertex 8.87 -0.159988 0
    endloop
  endfacet
  facet normal -1 0 0
    outer loop
      vertex 8.87 -2.89999 0
      vertex 8.87 -0.159988 1
      vertex 8.87 -0.159988 0
    endloop
  endfacet
  facet normal -1 -0 0
    outer loop
      vertex 8.87 -0.159988 1
      vertex 8.87 -2.89999 0
      vertex 8.87 -2.89999 1
    endloop
  endfacet
  facet normal -0.999225 0.0393526 0
    outer loop
      vertex 8.86691 -2.97845 0
      vertex 8.87 -2.89999 1
      vertex 8.87 -2.89999 0
    endloop
  endfacet
  facet normal -0.999225 0.0393526 0
    outer loop
      vertex 8.87 -2.89999 1
      vertex 8.86691 -2.97845 0
      vertex 8.86691 -2.97845 1
    endloop
  endfacet
  facet normal -0.993068 0.117543 0
    outer loop
      vertex 8.85768 -3.05643 0
      vertex 8.86691 -2.97845 1
      vertex 8.86691 -2.97845 0
    endloop
  endfacet
  facet normal -0.993068 0.117543 0
    outer loop
      vertex 8.86691 -2.97845 1
      vertex 8.85768 -3.05643 0
      vertex 8.85768 -3.05643 1
    endloop
  endfacet
  facet normal -0.980781 0.195112 0
    outer loop
      vertex 8.84236 -3.13344 0
      vertex 8.85768 -3.05643 1
      vertex 8.85768 -3.05643 0
    endloop
  endfacet
  facet normal -0.980781 0.195112 0
    outer loop
      vertex 8.85768 -3.05643 1
      vertex 8.84236 -3.13344 0
      vertex 8.84236 -3.13344 1
    endloop
  endfacet
  facet normal -0.962432 0.271524 0
    outer loop
      vertex 8.82104 -3.20901 0
      vertex 8.84236 -3.13344 1
      vertex 8.84236 -3.13344 0
    endloop
  endfacet
  facet normal -0.962432 0.271524 0
    outer loop
      vertex 8.84236 -3.13344 1
      vertex 8.82104 -3.20901 0
      vertex 8.82104 -3.20901 1
    endloop
  endfacet
  facet normal -0.93821 0.346065 0
    outer loop
      vertex 8.79387 -3.28267 0
      vertex 8.82104 -3.20901 1
      vertex 8.82104 -3.20901 0
    endloop
  endfacet
  facet normal -0.93821 0.346065 0
    outer loop
      vertex 8.82104 -3.20901 1
      vertex 8.79387 -3.28267 0
      vertex 8.79387 -3.28267 1
    endloop
  endfacet
  facet normal -0.908187 0.418566 0
    outer loop
      vertex 8.761 -3.35399 0
      vertex 8.79387 -3.28267 1
      vertex 8.79387 -3.28267 0
    endloop
  endfacet
  facet normal -0.908187 0.418566 0
    outer loop
      vertex 8.79387 -3.28267 1
      vertex 8.761 -3.35399 0
      vertex 8.761 -3.35399 1
    endloop
  endfacet
  facet normal -0.872452 0.4887 0
    outer loop
      vertex 8.72263 -3.42249 0
      vertex 8.761 -3.35399 1
      vertex 8.761 -3.35399 0
    endloop
  endfacet
  facet normal -0.872452 0.4887 0
    outer loop
      vertex 8.761 -3.35399 1
      vertex 8.72263 -3.42249 0
      vertex 8.72263 -3.42249 1
    endloop
  endfacet
  facet normal -0.83156 0.555435 0
    outer loop
      vertex 8.67902 -3.48778 0
      vertex 8.72263 -3.42249 1
      vertex 8.72263 -3.42249 0
    endloop
  endfacet
  facet normal -0.83156 0.555435 0
    outer loop
      vertex 8.72263 -3.42249 1
      vertex 8.67902 -3.48778 0
      vertex 8.67902 -3.48778 1
    endloop
  endfacet
  facet normal -0.785248 0.619182 0
    outer loop
      vertex 8.6304 -3.54944 0
      vertex 8.67902 -3.48778 1
      vertex 8.67902 -3.48778 0
    endloop
  endfacet
  facet normal -0.785248 0.619182 0
    outer loop
      vertex 8.67902 -3.48778 1
      vertex 8.6304 -3.54944 0
      vertex 8.6304 -3.54944 1
    endloop
  endfacet
  facet normal -0.734325 0.678798 0
    outer loop
      vertex 8.5771 -3.6071 0
      vertex 8.6304 -3.54944 1
      vertex 8.6304 -3.54944 0
    endloop
  endfacet
  facet normal -0.734325 0.678798 0
    outer loop
      vertex 8.6304 -3.54944 1
      vertex 8.5771 -3.6071 0
      vertex 8.5771 -3.6071 1
    endloop
  endfacet
  facet normal -0.678798 0.734325 0
    outer loop
      vertex 8.5771 -3.6071 0
      vertex 8.51944 -3.6604 1
      vertex 8.5771 -3.6071 1
    endloop
  endfacet
  facet normal -0.678798 0.734325 0
    outer loop
      vertex 8.51944 -3.6604 1
      vertex 8.5771 -3.6071 0
      vertex 8.51944 -3.6604 0
    endloop
  endfacet
  facet normal -0.619103 0.78531 0
    outer loop
      vertex 8.51944 -3.6604 0
      vertex 8.45778 -3.70901 1
      vertex 8.51944 -3.6604 1
    endloop
  endfacet
  facet normal -0.619103 0.78531 0
    outer loop
      vertex 8.45778 -3.70901 1
      vertex 8.51944 -3.6604 0
      vertex 8.45778 -3.70901 0
    endloop
  endfacet
  facet normal -0.555611 0.831442 0
    outer loop
      vertex 8.45778 -3.70901 0
      vertex 8.39249 -3.75264 1
      vertex 8.45778 -3.70901 1
    endloop
  endfacet
  facet normal -0.555611 0.831442 0
    outer loop
      vertex 8.39249 -3.75264 1
      vertex 8.45778 -3.70901 0
      vertex 8.39249 -3.75264 0
    endloop
  endfacet
  facet normal -0.488603 0.872506 0
    outer loop
      vertex 8.39249 -3.75264 0
      vertex 8.32399 -3.791 1
      vertex 8.39249 -3.75264 1
    endloop
  endfacet
  facet normal -0.488603 0.872506 0
    outer loop
      vertex 8.32399 -3.791 1
      vertex 8.39249 -3.75264 0
      vertex 8.32399 -3.791 0
    endloop
  endfacet
  facet normal -0.418566 0.908187 0
    outer loop
      vertex 8.32399 -3.791 0
      vertex 8.25267 -3.82387 1
      vertex 8.32399 -3.791 1
    endloop
  endfacet
  facet normal -0.418566 0.908187 0
    outer loop
      vertex 8.25267 -3.82387 1
      vertex 8.32399 -3.791 0
      vertex 8.25267 -3.82387 0
    endloop
  endfacet
  facet normal -0.346107 0.938195 0
    outer loop
      vertex 8.25267 -3.82387 0
      vertex 8.17902 -3.85104 1
      vertex 8.25267 -3.82387 1
    endloop
  endfacet
  facet normal -0.346107 0.938195 0
    outer loop
      vertex 8.17902 -3.85104 1
      vertex 8.25267 -3.82387 0
      vertex 8.17902 -3.85104 0
    endloop
  endfacet
  facet normal -0.27149 0.962441 0
    outer loop
      vertex 8.17902 -3.85104 0
      vertex 8.10344 -3.87236 1
      vertex 8.17902 -3.85104 1
    endloop
  endfacet
  facet normal -0.27149 0.962441 0
    outer loop
      vertex 8.10344 -3.87236 1
      vertex 8.17902 -3.85104 0
      vertex 8.10344 -3.87236 0
    endloop
  endfacet
  facet normal -0.195112 0.980781 0
    outer loop
      vertex 8.10344 -3.87236 0
      vertex 8.02643 -3.88768 1
      vertex 8.10344 -3.87236 1
    endloop
  endfacet
  facet normal -0.195112 0.980781 0
    outer loop
      vertex 8.02643 -3.88768 1
      vertex 8.10344 -3.87236 0
      vertex 8.02643 -3.88768 0
    endloop
  endfacet
  facet normal -0.117558 0.993066 0
    outer loop
      vertex 8.02643 -3.88768 0
      vertex 7.94846 -3.89691 1
      vertex 8.02643 -3.88768 1
    endloop
  endfacet
  facet normal -0.117558 0.993066 0
    outer loop
      vertex 7.94846 -3.89691 1
      vertex 8.02643 -3.88768 0
      vertex 7.94846 -3.89691 0
    endloop
  endfacet
  facet normal -0.0392255 0.99923 0
    outer loop
      vertex 7.94846 -3.89691 0
      vertex 7.87 -3.89999 1
      vertex 7.94846 -3.89691 1
    endloop
  endfacet
  facet normal -0.0392255 0.99923 0
    outer loop
      vertex 7.87 -3.89999 1
      vertex 7.94846 -3.89691 0
      vertex 7.87 -3.89999 0
    endloop
  endfacet
  facet normal 0 1 -0
    outer loop
      vertex 7.87 -3.89999 0
      vertex -7.87 -3.89999 1
      vertex 7.87 -3.89999 1
    endloop
  endfacet
  facet normal 0 1 0
    outer loop
      vertex -7.87 -3.89999 1
      vertex 7.87 -3.89999 0
      vertex -7.87 -3.89999 0
    endloop
  endfacet
  facet normal 0 -1 0
    outer loop
      vertex -8 -5 0
      vertex 8 -5 1
      vertex -8 -5 1
    endloop
  endfacet
  facet normal 0 -1 -0
    outer loop
      vertex 8 -5 1
      vertex -8 -5 0
      vertex 8 -5 0
    endloop
  endfacet
  facet normal 0.0393551 -0.999225 0
    outer loop
      vertex 8 -5 0
      vertex 8.15691 -4.99382 1
      vertex 8 -5 1
    endloop
  endfacet
  facet normal 0.0393551 -0.999225 0
    outer loop
      vertex 8.15691 -4.99382 1
      vertex 8 -5 0
      vertex 8.15691 -4.99382 0
    endloop
  endfacet
  facet normal -0.11748 -0.993075 0
    outer loop
      vertex -8.31287 -4.97537 0
      vertex -8.15691 -4.99382 1
      vertex -8.31287 -4.97537 1
    endloop
  endfacet
  facet normal -0.11748 -0.993075 -0
    outer loop
      vertex -8.15691 -4.99382 1
      vertex -8.31287 -4.97537 0
      vertex -8.15691 -4.99382 0
    endloop
  endfacet
  facet normal -0.195112 -0.980781 0
    outer loop
      vertex -8.46689 -4.94473 0
      vertex -8.31287 -4.97537 1
      vertex -8.46689 -4.94473 1
    endloop
  endfacet
  facet normal -0.195112 -0.980781 -0
    outer loop
      vertex -8.31287 -4.97537 1
      vertex -8.46689 -4.94473 0
      vertex -8.31287 -4.97537 0
    endloop
  endfacet
  facet normal -0.271465 -0.962448 0
    outer loop
      vertex -8.61803 -4.9021 0
      vertex -8.46689 -4.94473 1
      vertex -8.61803 -4.9021 1
    endloop
  endfacet
  facet normal -0.271465 -0.962448 -0
    outer loop
      vertex -8.46689 -4.94473 1
      vertex -8.61803 -4.9021 0
      vertex -8.46689 -4.94473 0
    endloop
  endfacet
  facet normal -0.34608 -0.938205 0
    outer loop
      vertex -8.76537 -4.84775 0
      vertex -8.61803 -4.9021 1
      vertex -8.76537 -4.84775 1
    endloop
  endfacet
  facet normal -0.34608 -0.938205 -0
    outer loop
      vertex -8.61803 -4.9021 1
      vertex -8.76537 -4.84775 0
      vertex -8.61803 -4.9021 0
    endloop
  endfacet
  facet normal -0.418662 -0.908142 0
    outer loop
      vertex -8.90797 -4.78201 0
      vertex -8.76537 -4.84775 1
      vertex -8.90797 -4.78201 1
    endloop
  endfacet
  facet normal -0.418662 -0.908142 -0
    outer loop
      vertex -8.76537 -4.84775 1
      vertex -8.90797 -4.78201 0
      vertex -8.76537 -4.84775 0
    endloop
  endfacet
  facet normal -0.488625 -0.872494 0
    outer loop
      vertex -9.04498 -4.70528 0
      vertex -8.90797 -4.78201 1
      vertex -9.04498 -4.70528 1
    endloop
  endfacet
  facet normal -0.488625 -0.872494 -0
    outer loop
      vertex -8.90797 -4.78201 1
      vertex -9.04498 -4.70528 0
      vertex -8.90797 -4.78201 0
    endloop
  endfacet
  facet normal -0.555537 -0.831492 0
    outer loop
      vertex -9.17557 -4.61803 0
      vertex -9.04498 -4.70528 1
      vertex -9.17557 -4.61803 1
    endloop
  endfacet
  facet normal -0.555537 -0.831492 -0
    outer loop
      vertex -9.04498 -4.70528 1
      vertex -9.17557 -4.61803 0
      vertex -9.04498 -4.70528 0
    endloop
  endfacet
  facet normal -0.619142 -0.785279 0
    outer loop
      vertex -9.29889 -4.5208 0
      vertex -9.17557 -4.61803 1
      vertex -9.29889 -4.5208 1
    endloop
  endfacet
  facet normal -0.619142 -0.785279 -0
    outer loop
      vertex -9.17557 -4.61803 1
      vertex -9.29889 -4.5208 0
      vertex -9.17557 -4.61803 0
    endloop
  endfacet
  facet normal -0.67883 -0.734295 0
    outer loop
      vertex -9.4142 -4.4142 0
      vertex -9.29889 -4.5208 1
      vertex -9.4142 -4.4142 1
    endloop
  endfacet
  facet normal -0.67883 -0.734295 -0
    outer loop
      vertex -9.29889 -4.5208 1
      vertex -9.4142 -4.4142 0
      vertex -9.29889 -4.5208 0
    endloop
  endfacet
  facet normal -0.734295 -0.67883 0
    outer loop
      vertex -9.4142 -4.4142 0
      vertex -9.5208 -4.29889 1
      vertex -9.5208 -4.29889 0
    endloop
  endfacet
  facet normal -0.734295 -0.67883 0
    outer loop
      vertex -9.5208 -4.29889 1
      vertex -9.4142 -4.4142 0
      vertex -9.4142 -4.4142 1
    endloop
  endfacet
  facet normal -0.785279 -0.619142 0
    outer loop
      vertex -9.5208 -4.29889 0
      vertex -9.61803 -4.17557 1
      vertex -9.61803 -4.17557 0
    endloop
  endfacet
  facet normal -0.785279 -0.619142 0
    outer loop
      vertex -9.61803 -4.17557 1
      vertex -9.5208 -4.29889 0
      vertex -9.5208 -4.29889 1
    endloop
  endfacet
  facet normal -0.831492 -0.555537 0
    outer loop
      vertex -9.61803 -4.17557 0
      vertex -9.70528 -4.04498 1
      vertex -9.70528 -4.04498 0
    endloop
  endfacet
  facet normal -0.831492 -0.555537 0
    outer loop
      vertex -9.70528 -4.04498 1
      vertex -9.61803 -4.17557 0
      vertex -9.61803 -4.17557 1
    endloop
  endfacet
  facet normal -0.872494 -0.488625 0
    outer loop
      vertex -9.70528 -4.04498 0
      vertex -9.78201 -3.90797 1
      vertex -9.78201 -3.90797 0
    endloop
  endfacet
  facet normal -0.872494 -0.488625 0
    outer loop
      vertex -9.78201 -3.90797 1
      vertex -9.70528 -4.04498 0
      vertex -9.70528 -4.04498 1
    endloop
  endfacet
  facet normal -0.908142 -0.418662 0
    outer loop
      vertex -9.78201 -3.90797 0
      vertex -9.84775 -3.76537 1
      vertex -9.84775 -3.76537 0
    endloop
  endfacet
  facet normal -0.908142 -0.418662 0
    outer loop
      vertex -9.84775 -3.76537 1
      vertex -9.78201 -3.90797 0
      vertex -9.78201 -3.90797 1
    endloop
  endfacet
  facet normal -0.938205 -0.34608 0
    outer loop
      vertex -9.84775 -3.76537 0
      vertex -9.9021 -3.61803 1
      vertex -9.9021 -3.61803 0
    endloop
  endfacet
  facet normal -0.938205 -0.34608 0
    outer loop
      vertex -9.9021 -3.61803 1
      vertex -9.84775 -3.76537 0
      vertex -9.84775 -3.76537 1
    endloop
  endfacet
  facet normal -0.962448 -0.271465 0
    outer loop
      vertex -9.9021 -3.61803 0
      vertex -9.94473 -3.46689 1
      vertex -9.94473 -3.46689 0
    endloop
  endfacet
  facet normal -0.962448 -0.271465 0
    outer loop
      vertex -9.94473 -3.46689 1
      vertex -9.9021 -3.61803 0
      vertex -9.9021 -3.61803 1
    endloop
  endfacet
  facet normal -0.980781 -0.195112 0
    outer loop
      vertex -9.94473 -3.46689 0
      vertex -9.97537 -3.31287 1
      vertex -9.97537 -3.31287 0
    endloop
  endfacet
  facet normal -0.980781 -0.195112 0
    outer loop
      vertex -9.97537 -3.31287 1
      vertex -9.94473 -3.46689 0
      vertex -9.94473 -3.46689 1
    endloop
  endfacet
  facet normal -0.993075 -0.11748 0
    outer loop
      vertex -9.97537 -3.31287 0
      vertex -9.99382 -3.15691 1
      vertex -9.99382 -3.15691 0
    endloop
  endfacet
  facet normal -0.993075 -0.11748 0
    outer loop
      vertex -9.99382 -3.15691 1
      vertex -9.97537 -3.31287 0
      vertex -9.97537 -3.31287 1
    endloop
  endfacet
  facet normal -0.999225 -0.0393551 0
    outer loop
      vertex -9.99382 -3.15691 0
      vertex -10 -3 1
      vertex -10 -3 0
    endloop
  endfacet
  facet normal -0.999225 -0.0393551 0
    outer loop
      vertex -10 -3 1
      vertex -9.99382 -3.15691 0
      vertex -9.99382 -3.15691 1
    endloop
  endfacet
  facet normal -1 0 0
    outer loop
      vertex -10 -3 0
      vertex -10 0.839996 1
      vertex -10 0.839996 0
    endloop
  endfacet
  facet normal -1 -0 0
    outer loop
      vertex -10 0.839996 1
      vertex -10 -3 0
      vertex -10 -3 1
    endloop
  endfacet
  facet normal 0 1 -0
    outer loop
      vertex -3.7 0.839996 0
      vertex -10 0.839996 1
      vertex -3.7 0.839996 1
    endloop
  endfacet
  facet normal 0 1 0
    outer loop
      vertex -10 0.839996 1
      vertex -3.7 0.839996 0
      vertex -10 0.839996 0
    endloop
  endfacet
  facet normal -0.815819 0.578307 0
    outer loop
      vertex -3.7 0.839996 0
      vertex -3.14 1.62999 1
      vertex -3.14 1.62999 0
    endloop
  endfacet
  facet normal -0.815819 0.578307 0
    outer loop
      vertex -3.14 1.62999 1
      vertex -3.7 0.839996 0
      vertex -3.7 0.839996 1
    endloop
  endfacet
  facet normal -0.978277 -0.207304 0
    outer loop
      vertex -3.14 1.62999 0
      vertex -3.29999 2.38499 1
      vertex -3.29999 2.38499 0
    endloop
  endfacet
  facet normal -0.978277 -0.207304 0
    outer loop
      vertex -3.29999 2.38499 1
      vertex -3.14 1.62999 0
      vertex -3.14 1.62999 1
    endloop
  endfacet
  facet normal -0.977314 0.211794 0
    outer loop
      vertex -3.29999 2.38499 0
      vertex -2.95 4 1
      vertex -2.95 4 0
    endloop
  endfacet
  facet normal -0.977314 0.211794 0
    outer loop
      vertex -2.95 4 1
      vertex -3.29999 2.38499 0
      vertex -3.29999 2.38499 1
    endloop
  endfacet
  facet normal 0 1 -0
    outer loop
      vertex -2.17 4 0
      vertex -2.95 4 1
      vertex -2.17 4 1
    endloop
  endfacet
  facet normal 0 1 0
    outer loop
      vertex -2.95 4 1
      vertex -2.17 4 0
      vertex -2.95 4 0
    endloop
  endfacet
  facet normal 1 -0 0
    outer loop
      vertex -2.17 -0.159988 1
      vertex -2.17 4 0
      vertex -2.17 4 1
    endloop
  endfacet
  facet normal 1 0 0
    outer loop
      vertex -2.17 4 0
      vertex -2.17 -0.159988 1
      vertex -2.17 -0.159988 0
    endloop
  endfacet
  facet normal 0 -1 0
    outer loop
      vertex -8.87 -0.159988 0
      vertex -2.17 -0.159988 1
      vertex -8.87 -0.159988 1
    endloop
  endfacet
  facet normal 0 -1 -0
    outer loop
      vertex -2.17 -0.159988 1
      vertex -8.87 -0.159988 0
      vertex -2.17 -0.159988 0
    endloop
  endfacet
  facet normal 1 -0 0
    outer loop
      vertex -8.87 -2.89999 1
      vertex -8.87 -0.159988 0
      vertex -8.87 -0.159988 1
    endloop
  endfacet
  facet normal 1 0 0
    outer loop
      vertex -8.87 -0.159988 0
      vertex -8.87 -2.89999 1
      vertex -8.87 -2.89999 0
    endloop
  endfacet
  facet normal 0.999225 0.0393526 0
    outer loop
      vertex -8.86691 -2.97845 1
      vertex -8.87 -2.89999 0
      vertex -8.87 -2.89999 1
    endloop
  endfacet
  facet normal 0.999225 0.0393526 0
    outer loop
      vertex -8.87 -2.89999 0
      vertex -8.86691 -2.97845 1
      vertex -8.86691 -2.97845 0
    endloop
  endfacet
  facet normal 0.993068 0.117543 0
    outer loop
      vertex -8.85768 -3.05643 1
      vertex -8.86691 -2.97845 0
      vertex -8.86691 -2.97845 1
    endloop
  endfacet
  facet normal 0.993068 0.117543 0
    outer loop
      vertex -8.86691 -2.97845 0
      vertex -8.85768 -3.05643 1
      vertex -8.85768 -3.05643 0
    endloop
  endfacet
  facet normal 0.980781 0.195112 0
    outer loop
      vertex -8.84236 -3.13344 1
      vertex -8.85768 -3.05643 0
      vertex -8.85768 -3.05643 1
    endloop
  endfacet
  facet normal 0.980781 0.195112 0
    outer loop
      vertex -8.85768 -3.05643 0
      vertex -8.84236 -3.13344 1
      vertex -8.84236 -3.13344 0
    endloop
  endfacet
  facet normal 0.962432 0.271524 0
    outer loop
      vertex -8.82104 -3.20901 1
      vertex -8.84236 -3.13344 0
      vertex -8.84236 -3.13344 1
    endloop
  endfacet
  facet normal 0.962432 0.271524 0
    outer loop
      vertex -8.84236 -3.13344 0
      vertex -8.82104 -3.20901 1
      vertex -8.82104 -3.20901 0
    endloop
  endfacet
  facet normal 0.93821 0.346065 0
    outer loop
      vertex -8.79387 -3.28267 1
      vertex -8.82104 -3.20901 0
      vertex -8.82104 -3.20901 1
    endloop
  endfacet
  facet normal 0.93821 0.346065 0
    outer loop
      vertex -8.82104 -3.20901 0
      vertex -8.79387 -3.28267 1
      vertex -8.79387 -3.28267 0
    endloop
  endfacet
  facet normal 0.908187 0.418566 0
    outer loop
      vertex -8.761 -3.35399 1
      vertex -8.79387 -3.28267 0
      vertex -8.79387 -3.28267 1
    endloop
  endfacet
  facet normal 0.908187 0.418566 0
    outer loop
      vertex -8.79387 -3.28267 0
      vertex -8.761 -3.35399 1
      vertex -8.761 -3.35399 0
    endloop
  endfacet
  facet normal 0.872452 0.4887 0
    outer loop
      vertex -8.72263 -3.42249 1
      vertex -8.761 -3.35399 0
      vertex -8.761 -3.35399 1
    endloop
  endfacet
  facet normal 0.872452 0.4887 0
    outer loop
      vertex -8.761 -3.35399 0
      vertex -8.72263 -3.42249 1
      vertex -8.72263 -3.42249 0
    endloop
  endfacet
  facet normal 0.83156 0.555435 0
    outer loop
      vertex -8.67902 -3.48778 1
      vertex -8.72263 -3.42249 0
      vertex -8.72263 -3.42249 1
    endloop
  endfacet
  facet normal 0.83156 0.555435 0
    outer loop
      vertex -8.72263 -3.42249 0
      vertex -8.67902 -3.48778 1
      vertex -8.67902 -3.48778 0
    endloop
  endfacet
  facet normal 0.785248 0.619182 0
    outer loop
      vertex -8.6304 -3.54944 1
      vertex -8.67902 -3.48778 0
      vertex -8.67902 -3.48778 1
    endloop
  endfacet
  facet normal 0.785248 0.619182 0
    outer loop
      vertex -8.67902 -3.48778 0
      vertex -8.6304 -3.54944 1
      vertex -8.6304 -3.54944 0
    endloop
  endfacet
  facet normal 0.734325 0.678798 0
    outer loop
      vertex -8.5771 -3.6071 1
      vertex -8.6304 -3.54944 0
      vertex -8.6304 -3.54944 1
    endloop
  endfacet
  facet normal 0.734325 0.678798 0
    outer loop
      vertex -8.6304 -3.54944 0
      vertex -8.5771 -3.6071 1
      vertex -8.5771 -3.6071 0
    endloop
  endfacet
  facet normal 0.678798 0.734325 -0
    outer loop
      vertex -8.51944 -3.6604 0
      vertex -8.5771 -3.6071 1
      vertex -8.51944 -3.6604 1
    endloop
  endfacet
  facet normal 0.678798 0.734325 0
    outer loop
      vertex -8.5771 -3.6071 1
      vertex -8.51944 -3.6604 0
      vertex -8.5771 -3.6071 0
    endloop
  endfacet
  facet normal 0.619103 0.78531 -0
    outer loop
      vertex -8.45778 -3.70901 0
      vertex -8.51944 -3.6604 1
      vertex -8.45778 -3.70901 1
    endloop
  endfacet
  facet normal 0.619103 0.78531 0
    outer loop
      vertex -8.51944 -3.6604 1
      vertex -8.45778 -3.70901 0
      vertex -8.51944 -3.6604 0
    endloop
  endfacet
  facet normal 0.555611 0.831442 -0
    outer loop
      vertex -8.39249 -3.75264 0
      vertex -8.45778 -3.70901 1
      vertex -8.39249 -3.75264 1
    endloop
  endfacet
  facet normal 0.555611 0.831442 0
    outer loop
      vertex -8.45778 -3.70901 1
      vertex -8.39249 -3.75264 0
      vertex -8.45778 -3.70901 0
    endloop
  endfacet
  facet normal 0.488603 0.872506 -0
    outer loop
      vertex -8.32399 -3.791 0
      vertex -8.39249 -3.75264 1
      vertex -8.32399 -3.791 1
    endloop
  endfacet
  facet normal 0.488603 0.872506 0
    outer loop
      vertex -8.39249 -3.75264 1
      vertex -8.32399 -3.791 0
      vertex -8.39249 -3.75264 0
    endloop
  endfacet
  facet normal 0.418566 0.908187 -0
    outer loop
      vertex -8.25267 -3.82387 0
      vertex -8.32399 -3.791 1
      vertex -8.25267 -3.82387 1
    endloop
  endfacet
  facet normal 0.418566 0.908187 0
    outer loop
      vertex -8.32399 -3.791 1
      vertex -8.25267 -3.82387 0
      vertex -8.32399 -3.791 0
    endloop
  endfacet
  facet normal 0.346107 0.938195 -0
    outer loop
      vertex -8.17902 -3.85104 0
      vertex -8.25267 -3.82387 1
      vertex -8.17902 -3.85104 1
    endloop
  endfacet
  facet normal 0.346107 0.938195 0
    outer loop
      vertex -8.25267 -3.82387 1
      vertex -8.17902 -3.85104 0
      vertex -8.25267 -3.82387 0
    endloop
  endfacet
  facet normal 0.27149 0.962441 -0
    outer loop
      vertex -8.10344 -3.87236 0
      vertex -8.17902 -3.85104 1
      vertex -8.10344 -3.87236 1
    endloop
  endfacet
  facet normal 0.27149 0.962441 0
    outer loop
      vertex -8.17902 -3.85104 1
      vertex -8.10344 -3.87236 0
      vertex -8.17902 -3.85104 0
    endloop
  endfacet
  facet normal 0.195112 0.980781 -0
    outer loop
      vertex -8.02643 -3.88768 0
      vertex -8.10344 -3.87236 1
      vertex -8.02643 -3.88768 1
    endloop
  endfacet
  facet normal 0.195112 0.980781 0
    outer loop
      vertex -8.10344 -3.87236 1
      vertex -8.02643 -3.88768 0
      vertex -8.10344 -3.87236 0
    endloop
  endfacet
  facet normal 0.117558 0.993066 -0
    outer loop
      vertex -7.94846 -3.89691 0
      vertex -8.02643 -3.88768 1
      vertex -7.94846 -3.89691 1
    endloop
  endfacet
  facet normal 0.117558 0.993066 0
    outer loop
      vertex -8.02643 -3.88768 1
      vertex -7.94846 -3.89691 0
      vertex -8.02643 -3.88768 0
    endloop
  endfacet
  facet normal 0.0392255 0.99923 -0
    outer loop
      vertex -7.87 -3.89999 0
      vertex -7.94846 -3.89691 1
      vertex -7.87 -3.89999 1
    endloop
  endfacet
  facet normal 0.0392255 0.99923 0
    outer loop
      vertex -7.94846 -3.89691 1
      vertex -7.87 -3.89999 0
      vertex -7.94846 -3.89691 0
    endloop
  endfacet
  facet normal -0.0393551 -0.999225 0
    outer loop
      vertex -8.15691 -4.99382 0
      vertex -8 -5 1
      vertex -8.15691 -4.99382 1
    endloop
  endfacet
  facet normal -0.0393551 -0.999225 -0
    outer loop
      vertex -8 -5 1
      vertex -8.15691 -4.99382 0
      vertex -8 -5 0
    endloop
  endfacet
endsolid OpenSCAD_Model
