solid OpenSCAD_Model
  facet normal 0 1 0
    outer loop
      vertex 3.29999 0 2.38499
      vertex 2.17 0 4
      vertex 2.95 0 4
    endloop
  endfacet
  facet normal 0 1 0
    outer loop
      vertex 2.17 0 0.899994
      vertex 3.29999 0 2.38499
      vertex 3.14 0 1.62999
    endloop
  endfacet
  facet normal 0 1 0
    outer loop
      vertex 3.29999 0 2.38499
      vertex 2.17 0 0.899994
      vertex 2.17 0 4
    endloop
  endfacet
  facet normal 0 1 -0
    outer loop
      vertex 3.7 0 0
      vertex 2.17 0 0.899994
      vertex 3.7 0 0.839996
    endloop
  endfacet
  facet normal 0 1 0
    outer loop
      vertex 3.7 0 0.839996
      vertex 2.17 0 0.899994
      vertex 3.14 0 1.62999
    endloop
  endfacet
  facet normal 0 1 0
    outer loop
      vertex -2.17 0 4
      vertex -3.29999 0 2.38499
      vertex -2.95 0 4
    endloop
  endfacet
  facet normal 0 1 -0
    outer loop
      vertex -2.17 0 0.899994
      vertex -3.29999 0 2.38499
      vertex -2.17 0 4
    endloop
  endfacet
  facet normal 0 1 0
    outer loop
      vertex -3.29999 0 2.38499
      vertex -2.17 0 0.899994
      vertex -3.14 0 1.62999
    endloop
  endfacet
  facet normal 0 1 0
    outer loop
      vertex -2.17 0 0.899994
      vertex -3.7 0 0.839996
      vertex -3.14 0 1.62999
    endloop
  endfacet
  facet normal 0 1 0
    outer loop
      vertex 2.17 0 0.899994
      vertex 3.7 0 0
      vertex -2.17 0 0.899994
    endloop
  endfacet
  facet normal 0 1 0
    outer loop
      vertex -3.7 0 0
      vertex -2.17 0 0.899994
      vertex 3.7 0 0
    endloop
  endfacet
  facet normal 0 1 0
    outer loop
      vertex -2.17 0 0.899994
      vertex -3.7 0 0
      vertex -3.7 0 0.839996
    endloop
  endfacet
  facet normal 0 -1 0
    outer loop
      vertex -3.29999 -1 2.38499
      vertex -2.17 -1 4
      vertex -2.95 -1 4
    endloop
  endfacet
  facet normal 0 -1 0
    outer loop
      vertex -2.17 -1 0.899994
      vertex -3.29999 -1 2.38499
      vertex -3.14 -1 1.62999
    endloop
  endfacet
  facet normal 0 -1 0
    outer loop
      vertex -3.29999 -1 2.38499
      vertex -2.17 -1 0.899994
      vertex -2.17 -1 4
    endloop
  endfacet
  facet normal 0 -1 0
    outer loop
      vertex -3.7 -1 0
      vertex -2.17 -1 0.899994
      vertex -3.7 -1 0.839996
    endloop
  endfacet
  facet normal 0 -1 0
    outer loop
      vertex -3.7 -1 0.839996
      vertex -2.17 -1 0.899994
      vertex -3.14 -1 1.62999
    endloop
  endfacet
  facet normal 0 -1 0
    outer loop
      vertex 2.17 -1 4
      vertex 3.29999 -1 2.38499
      vertex 2.95 -1 4
    endloop
  endfacet
  facet normal 0 -1 0
    outer loop
      vertex 2.17 -1 0.899994
      vertex 3.29999 -1 2.38499
      vertex 2.17 -1 4
    endloop
  endfacet
  facet normal 0 -1 0
    outer loop
      vertex 3.29999 -1 2.38499
      vertex 2.17 -1 0.899994
      vertex 3.14 -1 1.62999
    endloop
  endfacet
  facet normal 0 -1 0
    outer loop
      vertex 2.17 -1 0.899994
      vertex 3.7 -1 0.839996
      vertex 3.14 -1 1.62999
    endloop
  endfacet
  facet normal 0 -1 -0
    outer loop
      vertex -2.17 -1 0.899994
      vertex -3.7 -1 0
      vertex 2.17 -1 0.899994
    endloop
  endfacet
  facet normal 0 -1 0
    outer loop
      vertex 3.7 -1 0
      vertex 2.17 -1 0.899994
      vertex -3.7 -1 0
    endloop
  endfacet
  facet normal 0 -1 0
    outer loop
      vertex 2.17 -1 0.899994
      vertex 3.7 -1 0
      vertex 3.7 -1 0.839996
    endloop
  endfacet
  facet normal 0.815819 -0 0.578307
    outer loop
      vertex 3.14 -1 1.62999
      vertex 3.7 0 0.839996
      vertex 3.14 0 1.62999
    endloop
  endfacet
  facet normal 0.815819 0 0.578307
    outer loop
      vertex 3.7 0 0.839996
      vertex 3.14 -1 1.62999
      vertex 3.7 -1 0.839996
    endloop
  endfacet
  facet normal 0.978277 0 -0.207304
    outer loop
      vertex 3.29999 -1 2.38499
      vertex 3.14 0 1.62999
      vertex 3.29999 0 2.38499
    endloop
  endfacet
  facet normal 0.978277 0 -0.207304
    outer loop
      vertex 3.14 0 1.62999
      vertex 3.29999 -1 2.38499
      vertex 3.14 -1 1.62999
    endloop
  endfacet
  facet normal 0.977314 -0 0.211794
    outer loop
      vertex 2.95 -1 4
      vertex 3.29999 0 2.38499
      vertex 2.95 0 4
    endloop
  endfacet
  facet normal 0.977314 0 0.211794
    outer loop
      vertex 3.29999 0 2.38499
      vertex 2.95 -1 4
      vertex 3.29999 -1 2.38499
    endloop
  endfacet
  facet normal -0 0 1
    outer loop
      vertex 2.17 0 4
      vertex 2.95 -1 4
      vertex 2.95 0 4
    endloop
  endfacet
  facet normal 0 0 1
    outer loop
      vertex 2.95 -1 4
      vertex 2.17 0 4
      vertex 2.17 -1 4
    endloop
  endfacet
  facet normal -1 0 0
    outer loop
      vertex 2.17 -1 0.899994
      vertex 2.17 0 4
      vertex 2.17 0 0.899994
    endloop
  endfacet
  facet normal -1 -0 0
    outer loop
      vertex 2.17 0 4
      vertex 2.17 -1 0.899994
      vertex 2.17 -1 4
    endloop
  endfacet
  facet normal -0 0 1
    outer loop
      vertex -2.17 0 0.899994
      vertex 2.17 -1 0.899994
      vertex 2.17 0 0.899994
    endloop
  endfacet
  facet normal 0 0 1
    outer loop
      vertex 2.17 -1 0.899994
      vertex -2.17 0 0.899994
      vertex -2.17 -1 0.899994
    endloop
  endfacet
  facet normal 0 0 -1
    outer loop
      vertex -3.7 -1 0
      vertex 3.7 0 0
      vertex 3.7 -1 0
    endloop
  endfacet
  facet normal -0 0 -1
    outer loop
      vertex 3.7 0 0
      vertex -3.7 -1 0
      vertex -3.7 0 0
    endloop
  endfacet
  facet normal 1 -0 0
    outer loop
      vertex 3.7 -1 0.839996
      vertex 3.7 0 0
      vertex 3.7 0 0.839996
    endloop
  endfacet
  facet normal 1 0 0
    outer loop
      vertex 3.7 0 0
      vertex 3.7 -1 0.839996
      vertex 3.7 -1 0
    endloop
  endfacet
  facet normal -0.815819 0 0.578307
    outer loop
      vertex -3.7 -1 0.839996
      vertex -3.14 0 1.62999
      vertex -3.7 0 0.839996
    endloop
  endfacet
  facet normal -0.815819 0 0.578307
    outer loop
      vertex -3.14 0 1.62999
      vertex -3.7 -1 0.839996
      vertex -3.14 -1 1.62999
    endloop
  endfacet
  facet normal -0.978277 0 -0.207304
    outer loop
      vertex -3.14 -1 1.62999
      vertex -3.29999 0 2.38499
      vertex -3.14 0 1.62999
    endloop
  endfacet
  facet normal -0.978277 -0 -0.207304
    outer loop
      vertex -3.29999 0 2.38499
      vertex -3.14 -1 1.62999
      vertex -3.29999 -1 2.38499
    endloop
  endfacet
  facet normal -0.977314 0 0.211794
    outer loop
      vertex -3.29999 -1 2.38499
      vertex -2.95 0 4
      vertex -3.29999 0 2.38499
    endloop
  endfacet
  facet normal -0.977314 0 0.211794
    outer loop
      vertex -2.95 0 4
      vertex -3.29999 -1 2.38499
      vertex -2.95 -1 4
    endloop
  endfacet
  facet normal -0 0 1
    outer loop
      vertex -2.95 0 4
      vertex -2.17 -1 4
      vertex -2.17 0 4
    endloop
  endfacet
  facet normal 0 0 1
    outer loop
      vertex -2.17 -1 4
      vertex -2.95 0 4
      vertex -2.95 -1 4
    endloop
  endfacet
  facet normal 1 -0 0
    outer loop
      vertex -2.17 -1 4
      vertex -2.17 0 0.899994
      vertex -2.17 0 4
    endloop
  endfacet
  facet normal 1 0 0
    outer loop
      vertex -2.17 0 0.899994
      vertex -2.17 -1 4
      vertex -2.17 -1 0.899994
    endloop
  endfacet
  facet normal -1 0 0
    outer loop
      vertex -3.7 -1 0
      vertex -3.7 0 0.839996
      vertex -3.7 0 0
    endloop
  endfacet
  facet normal -1 -0 0
    outer loop
      vertex -3.7 0 0.839996
      vertex -3.7 -1 0
      vertex -3.7 -1 0.839996
    endloop
  endfacet
endsolid OpenSCAD_Model
