solid OpenSCAD_Model
  facet normal 0 -1 0
    outer loop
      vertex 93.5 10 102.5
      vertex 123.235 10 104.26
      vertex 93.5 10 104.26
    endloop
  endfacet
  facet normal 0 -1 -0
    outer loop
      vertex 123.235 10 104.26
      vertex 93.5 10 102.5
      vertex 123.235 10 102.5
    endloop
  endfacet
  facet normal 1 -0 0
    outer loop
      vertex 123.235 10 104.26
      vertex 123.235 27.8 102.5
      vertex 123.235 27.8 104.26
    endloop
  endfacet
  facet normal 1 0 0
    outer loop
      vertex 123.235 27.8 102.5
      vertex 123.235 10 104.26
      vertex 123.235 10 102.5
    endloop
  endfacet
  facet normal 0 0 -1
    outer loop
      vertex 122.519 17.3136 102.5
      vertex 123.235 10 102.5
      vertex 122.519 16.6864 102.5
    endloop
  endfacet
  facet normal 0 0 -1
    outer loop
      vertex 123.235 10 102.5
      vertex 122.388 16.0729 102.5
      vertex 122.519 16.6864 102.5
    endloop
  endfacet
  facet normal 0 0 -1
    outer loop
      vertex 123.235 10 102.5
      vertex 122.133 15.5 102.5
      vertex 122.388 16.0729 102.5
    endloop
  endfacet
  facet normal 0 0 -1
    outer loop
      vertex 123.235 10 102.5
      vertex 121.764 14.9926 102.5
      vertex 122.133 15.5 102.5
    endloop
  endfacet
  facet normal 0 0 -1
    outer loop
      vertex 123.235 10 102.5
      vertex 121.298 14.5729 102.5
      vertex 121.764 14.9926 102.5
    endloop
  endfacet
  facet normal 0 0 -1
    outer loop
      vertex 123.235 10 102.5
      vertex 120.755 14.2594 102.5
      vertex 121.298 14.5729 102.5
    endloop
  endfacet
  facet normal 0 0 -1
    outer loop
      vertex 123.235 10 102.5
      vertex 120.159 14.0656 102.5
      vertex 120.755 14.2594 102.5
    endloop
  endfacet
  facet normal 0 0 -1
    outer loop
      vertex 123.235 10 102.5
      vertex 119.535 14 102.5
      vertex 120.159 14.0656 102.5
    endloop
  endfacet
  facet normal 0 0 -1
    outer loop
      vertex 123.235 10 102.5
      vertex 118.911 14.0656 102.5
      vertex 119.535 14 102.5
    endloop
  endfacet
  facet normal 0 0 -1
    outer loop
      vertex 123.235 10 102.5
      vertex 118.315 14.2594 102.5
      vertex 118.911 14.0656 102.5
    endloop
  endfacet
  facet normal 0 0 -1
    outer loop
      vertex 123.235 10 102.5
      vertex 117.772 14.5729 102.5
      vertex 118.315 14.2594 102.5
    endloop
  endfacet
  facet normal 0 0 -1
    outer loop
      vertex 109.753 21.86 102.5
      vertex 116.551 17.3136 102.5
      vertex 116.551 16.6864 102.5
    endloop
  endfacet
  facet normal 0 0 -1
    outer loop
      vertex 116.551 17.3136 102.5
      vertex 112.615 22.6209 102.5
      vertex 115.735 22.6209 102.5
    endloop
  endfacet
  facet normal 0 0 -1
    outer loop
      vertex 109.753 21.86 102.5
      vertex 116.551 16.6864 102.5
      vertex 116.682 16.0729 102.5
    endloop
  endfacet
  facet normal 0 0 -1
    outer loop
      vertex 101.276 15.7798 102.5
      vertex 116.682 16.0729 102.5
      vertex 116.937 15.5 102.5
    endloop
  endfacet
  facet normal -0 0 -1
    outer loop
      vertex 112.615 22.6209 102.5
      vertex 109.753 21.86 102.5
      vertex 112.615 25.7591 102.5
    endloop
  endfacet
  facet normal 0 0 -1
    outer loop
      vertex 116.551 17.3136 102.5
      vertex 109.753 21.86 102.5
      vertex 112.615 22.6209 102.5
    endloop
  endfacet
  facet normal 0 0 -1
    outer loop
      vertex 100.962 15.2366 102.5
      vertex 116.937 15.5 102.5
      vertex 117.306 14.9926 102.5
    endloop
  endfacet
  facet normal 0 0 -1
    outer loop
      vertex 116.682 16.0729 102.5
      vertex 101.469 16.3763 102.5
      vertex 109.753 21.86 102.5
    endloop
  endfacet
  facet normal 0 0 -1
    outer loop
      vertex 100.542 14.7706 102.5
      vertex 117.306 14.9926 102.5
      vertex 117.772 14.5729 102.5
    endloop
  endfacet
  facet normal 0 0 -1
    outer loop
      vertex 100.035 14.4019 102.5
      vertex 117.772 14.5729 102.5
      vertex 123.235 10 102.5
    endloop
  endfacet
  facet normal 0 0 -1
    outer loop
      vertex 109.753 21.86 102.5
      vertex 101.469 16.3763 102.5
      vertex 101.535 17 102.5
    endloop
  endfacet
  facet normal -0 0 -1
    outer loop
      vertex 116.682 16.0729 102.5
      vertex 101.276 15.7798 102.5
      vertex 101.469 16.3763 102.5
    endloop
  endfacet
  facet normal -0 0 -1
    outer loop
      vertex 116.937 15.5 102.5
      vertex 100.962 15.2366 102.5
      vertex 101.276 15.7798 102.5
    endloop
  endfacet
  facet normal -0 0 -1
    outer loop
      vertex 117.306 14.9926 102.5
      vertex 100.542 14.7706 102.5
      vertex 100.962 15.2366 102.5
    endloop
  endfacet
  facet normal -0 0 -1
    outer loop
      vertex 117.772 14.5729 102.5
      vertex 100.035 14.4019 102.5
      vertex 100.542 14.7706 102.5
    endloop
  endfacet
  facet normal 0 0 -1
    outer loop
      vertex 123.235 10 102.5
      vertex 99.4621 14.1468 102.5
      vertex 100.035 14.4019 102.5
    endloop
  endfacet
  facet normal 0 0 -1
    outer loop
      vertex 93.5 10 102.5
      vertex 99.4621 14.1468 102.5
      vertex 123.235 10 102.5
    endloop
  endfacet
  facet normal 0 0 -1
    outer loop
      vertex 99.4621 14.1468 102.5
      vertex 93.5 10 102.5
      vertex 98.8486 14.0164 102.5
    endloop
  endfacet
  facet normal -0 0 -1
    outer loop
      vertex 95.6006 16.3763 102.5
      vertex 93.5 10 102.5
      vertex 95.535 17 102.5
    endloop
  endfacet
  facet normal -0 0 -1
    outer loop
      vertex 95.7944 15.7798 102.5
      vertex 93.5 10 102.5
      vertex 95.6006 16.3763 102.5
    endloop
  endfacet
  facet normal -0 0 -1
    outer loop
      vertex 96.1079 15.2366 102.5
      vertex 93.5 10 102.5
      vertex 95.7944 15.7798 102.5
    endloop
  endfacet
  facet normal -0 0 -1
    outer loop
      vertex 96.5276 14.7706 102.5
      vertex 93.5 10 102.5
      vertex 96.1079 15.2366 102.5
    endloop
  endfacet
  facet normal -0 0 -1
    outer loop
      vertex 97.035 14.4019 102.5
      vertex 93.5 10 102.5
      vertex 96.5276 14.7706 102.5
    endloop
  endfacet
  facet normal -0 0 -1
    outer loop
      vertex 97.6079 14.1468 102.5
      vertex 93.5 10 102.5
      vertex 97.035 14.4019 102.5
    endloop
  endfacet
  facet normal -0 0 -1
    outer loop
      vertex 98.2214 14.0164 102.5
      vertex 93.5 10 102.5
      vertex 97.6079 14.1468 102.5
    endloop
  endfacet
  facet normal -0 0 -1
    outer loop
      vertex 98.8486 14.0164 102.5
      vertex 93.5 10 102.5
      vertex 98.2214 14.0164 102.5
    endloop
  endfacet
  facet normal 0 0 -1
    outer loop
      vertex 123.235 10 102.5
      vertex 122.519 17.3136 102.5
      vertex 123.235 27.8 102.5
    endloop
  endfacet
  facet normal 0 0 -1
    outer loop
      vertex 122.388 17.9271 102.5
      vertex 123.235 27.8 102.5
      vertex 122.519 17.3136 102.5
    endloop
  endfacet
  facet normal 0 0 -1
    outer loop
      vertex 122.133 18.5 102.5
      vertex 123.235 27.8 102.5
      vertex 122.388 17.9271 102.5
    endloop
  endfacet
  facet normal 0 0 -1
    outer loop
      vertex 121.764 19.0074 102.5
      vertex 123.235 27.8 102.5
      vertex 122.133 18.5 102.5
    endloop
  endfacet
  facet normal 0 0 -1
    outer loop
      vertex 121.298 19.4271 102.5
      vertex 123.235 27.8 102.5
      vertex 121.764 19.0074 102.5
    endloop
  endfacet
  facet normal 0 0 -1
    outer loop
      vertex 120.755 19.7406 102.5
      vertex 123.235 27.8 102.5
      vertex 121.298 19.4271 102.5
    endloop
  endfacet
  facet normal 0 0 -1
    outer loop
      vertex 120.159 19.9344 102.5
      vertex 123.235 27.8 102.5
      vertex 120.755 19.7406 102.5
    endloop
  endfacet
  facet normal 0 0 -1
    outer loop
      vertex 119.535 20 102.5
      vertex 123.235 27.8 102.5
      vertex 120.159 19.9344 102.5
    endloop
  endfacet
  facet normal 0 0 -1
    outer loop
      vertex 115.735 22.6209 102.5
      vertex 119.535 20 102.5
      vertex 118.911 19.9344 102.5
    endloop
  endfacet
  facet normal 0 0 -1
    outer loop
      vertex 115.735 22.6209 102.5
      vertex 118.911 19.9344 102.5
      vertex 118.315 19.7406 102.5
    endloop
  endfacet
  facet normal 0 0 -1
    outer loop
      vertex 115.735 22.6209 102.5
      vertex 118.315 19.7406 102.5
      vertex 117.772 19.4271 102.5
    endloop
  endfacet
  facet normal 0 0 -1
    outer loop
      vertex 115.735 22.6209 102.5
      vertex 117.772 19.4271 102.5
      vertex 117.306 19.0074 102.5
    endloop
  endfacet
  facet normal 0 0 -1
    outer loop
      vertex 115.735 22.6209 102.5
      vertex 117.306 19.0074 102.5
      vertex 116.937 18.5 102.5
    endloop
  endfacet
  facet normal 0 0 -1
    outer loop
      vertex 115.735 22.6209 102.5
      vertex 116.682 17.9271 102.5
      vertex 116.551 17.3136 102.5
    endloop
  endfacet
  facet normal 0 0 -1
    outer loop
      vertex 115.735 22.6209 102.5
      vertex 116.937 18.5 102.5
      vertex 116.682 17.9271 102.5
    endloop
  endfacet
  facet normal 0 0 -1
    outer loop
      vertex 119.535 20 102.5
      vertex 115.735 22.6209 102.5
      vertex 115.735 25.7591 102.5
    endloop
  endfacet
  facet normal 0 0 -1
    outer loop
      vertex 119.535 20 102.5
      vertex 115.735 25.7591 102.5
      vertex 123.235 27.8 102.5
    endloop
  endfacet
  facet normal 0 0 -1
    outer loop
      vertex 109.753 26.52 102.5
      vertex 115.735 25.7591 102.5
      vertex 112.615 25.7591 102.5
    endloop
  endfacet
  facet normal 0 0 -1
    outer loop
      vertex 109.753 26.52 102.5
      vertex 112.615 25.7591 102.5
      vertex 109.753 21.86 102.5
    endloop
  endfacet
  facet normal 0 0 -1
    outer loop
      vertex 115.735 25.7591 102.5
      vertex 109.753 26.52 102.5
      vertex 123.235 27.8 102.5
    endloop
  endfacet
  facet normal 0 0 -1
    outer loop
      vertex 93.5 27.8 102.5
      vertex 109.753 26.52 102.5
      vertex 96.615 26.52 102.5
    endloop
  endfacet
  facet normal 0 0 -1
    outer loop
      vertex 95.7944 18.2202 102.5
      vertex 96.615 21.86 102.5
      vertex 96.1079 18.7634 102.5
    endloop
  endfacet
  facet normal -0 0 -1
    outer loop
      vertex 96.615 21.86 102.5
      vertex 95.7944 18.2202 102.5
      vertex 93.5 27.8 102.5
    endloop
  endfacet
  facet normal 0 0 -1
    outer loop
      vertex 93.5 27.8 102.5
      vertex 95.7944 18.2202 102.5
      vertex 95.6006 17.6237 102.5
    endloop
  endfacet
  facet normal 0 0 -1
    outer loop
      vertex 93.5 27.8 102.5
      vertex 95.535 17 102.5
      vertex 93.5 10 102.5
    endloop
  endfacet
  facet normal 0 0 -1
    outer loop
      vertex 95.535 17 102.5
      vertex 93.5 27.8 102.5
      vertex 95.6006 17.6237 102.5
    endloop
  endfacet
  facet normal 0 0 -1
    outer loop
      vertex 109.753 26.52 102.5
      vertex 93.5 27.8 102.5
      vertex 123.235 27.8 102.5
    endloop
  endfacet
  facet normal 0 0 -1
    outer loop
      vertex 96.615 21.86 102.5
      vertex 93.5 27.8 102.5
      vertex 96.615 26.52 102.5
    endloop
  endfacet
  facet normal 0 0 -1
    outer loop
      vertex 101.469 17.6237 102.5
      vertex 109.753 21.86 102.5
      vertex 101.535 17 102.5
    endloop
  endfacet
  facet normal 0 0 -1
    outer loop
      vertex 101.276 18.2202 102.5
      vertex 109.753 21.86 102.5
      vertex 101.469 17.6237 102.5
    endloop
  endfacet
  facet normal 0 0 -1
    outer loop
      vertex 100.962 18.7634 102.5
      vertex 109.753 21.86 102.5
      vertex 101.276 18.2202 102.5
    endloop
  endfacet
  facet normal 0 0 -1
    outer loop
      vertex 100.542 19.2294 102.5
      vertex 109.753 21.86 102.5
      vertex 100.962 18.7634 102.5
    endloop
  endfacet
  facet normal 0 0 -1
    outer loop
      vertex 100.035 19.5981 102.5
      vertex 109.753 21.86 102.5
      vertex 100.542 19.2294 102.5
    endloop
  endfacet
  facet normal 0 0 -1
    outer loop
      vertex 99.4621 19.8532 102.5
      vertex 109.753 21.86 102.5
      vertex 100.035 19.5981 102.5
    endloop
  endfacet
  facet normal 0 0 -1
    outer loop
      vertex 96.615 21.86 102.5
      vertex 99.4621 19.8532 102.5
      vertex 98.8486 19.9836 102.5
    endloop
  endfacet
  facet normal 0 0 -1
    outer loop
      vertex 96.615 21.86 102.5
      vertex 98.8486 19.9836 102.5
      vertex 98.2214 19.9836 102.5
    endloop
  endfacet
  facet normal 0 0 -1
    outer loop
      vertex 99.4621 19.8532 102.5
      vertex 96.615 21.86 102.5
      vertex 109.753 21.86 102.5
    endloop
  endfacet
  facet normal 0 0 -1
    outer loop
      vertex 97.6079 19.8532 102.5
      vertex 96.615 21.86 102.5
      vertex 98.2214 19.9836 102.5
    endloop
  endfacet
  facet normal 0 0 -1
    outer loop
      vertex 97.035 19.5981 102.5
      vertex 96.615 21.86 102.5
      vertex 97.6079 19.8532 102.5
    endloop
  endfacet
  facet normal 0 0 -1
    outer loop
      vertex 96.1079 18.7634 102.5
      vertex 96.615 21.86 102.5
      vertex 96.5276 19.2294 102.5
    endloop
  endfacet
  facet normal 0 0 -1
    outer loop
      vertex 96.5276 19.2294 102.5
      vertex 96.615 21.86 102.5
      vertex 97.035 19.5981 102.5
    endloop
  endfacet
  facet normal 1 0 0
    outer loop
      vertex 112.615 26.409 103.222
      vertex 112.615 22.6209 102.5
      vertex 112.615 25.7591 102.5
    endloop
  endfacet
  facet normal 1 0 -0
    outer loop
      vertex 112.615 22.6209 102.5
      vertex 112.615 26.409 103.222
      vertex 112.615 21.971 103.222
    endloop
  endfacet
  facet normal -1 0 0
    outer loop
      vertex 115.735 25.7591 102.5
      vertex 115.735 26.52 104.26
      vertex 115.735 26.52 103.345
    endloop
  endfacet
  facet normal -1 0 0
    outer loop
      vertex 115.735 22.6209 102.5
      vertex 115.735 26.52 104.26
      vertex 115.735 25.7591 102.5
    endloop
  endfacet
  facet normal -1 0 0
    outer loop
      vertex 115.735 21.86 104.26
      vertex 115.735 22.6209 102.5
      vertex 115.735 21.86 103.345
    endloop
  endfacet
  facet normal -1 0 0
    outer loop
      vertex 115.735 22.6209 102.5
      vertex 115.735 21.86 104.26
      vertex 115.735 26.52 104.26
    endloop
  endfacet
  facet normal 0 -0.742393 0.669965
    outer loop
      vertex 112.625 26.409 103.222
      vertex 115.735 26.52 103.345
      vertex 112.625 26.52 103.345
    endloop
  endfacet
  facet normal 0 -0.743243 0.669022
    outer loop
      vertex 115.735 25.7591 102.5
      vertex 112.625 26.409 103.222
      vertex 112.615 25.7591 102.5
    endloop
  endfacet
  facet normal 5.7771e-05 -0.743119 0.669159
    outer loop
      vertex 112.625 26.409 103.222
      vertex 115.735 25.7591 102.5
      vertex 115.735 26.52 103.345
    endloop
  endfacet
  facet normal 0 -0.743243 0.669022
    outer loop
      vertex 112.615 26.409 103.222
      vertex 112.615 25.7591 102.5
      vertex 112.625 26.409 103.222
    endloop
  endfacet
  facet normal 0 -1 0
    outer loop
      vertex 109.753 26.52 104.26
      vertex 112.625 26.52 103.345
      vertex 115.735 26.52 104.26
    endloop
  endfacet
  facet normal 0 -1 0
    outer loop
      vertex 109.753 26.52 103.222
      vertex 112.625 26.52 103.345
      vertex 109.753 26.52 104.26
    endloop
  endfacet
  facet normal 0 -1 -0
    outer loop
      vertex 112.625 26.52 103.345
      vertex 109.753 26.52 103.222
      vertex 112.625 26.52 103.222
    endloop
  endfacet
  facet normal 0 -1 -0
    outer loop
      vertex 115.735 26.52 104.26
      vertex 112.625 26.52 103.345
      vertex 115.735 26.52 103.345
    endloop
  endfacet
  facet normal 0 1 0
    outer loop
      vertex 112.625 21.86 103.345
      vertex 115.735 21.86 104.26
      vertex 115.735 21.86 103.345
    endloop
  endfacet
  facet normal 0 1 0
    outer loop
      vertex 115.735 21.86 104.26
      vertex 112.625 21.86 103.345
      vertex 109.753 21.86 104.26
    endloop
  endfacet
  facet normal 0 1 0
    outer loop
      vertex 109.753 21.86 103.222
      vertex 112.625 21.86 103.345
      vertex 112.625 21.86 103.222
    endloop
  endfacet
  facet normal 0 1 0
    outer loop
      vertex 112.625 21.86 103.345
      vertex 109.753 21.86 103.222
      vertex 109.753 21.86 104.26
    endloop
  endfacet
  facet normal 0 0.742393 0.669965
    outer loop
      vertex 115.735 21.86 103.345
      vertex 112.625 21.971 103.222
      vertex 112.625 21.86 103.345
    endloop
  endfacet
  facet normal 5.7771e-05 0.743119 0.669159
    outer loop
      vertex 115.735 22.6209 102.5
      vertex 112.625 21.971 103.222
      vertex 115.735 21.86 103.345
    endloop
  endfacet
  facet normal -0 0.743243 0.669022
    outer loop
      vertex 112.615 22.6209 102.5
      vertex 112.625 21.971 103.222
      vertex 115.735 22.6209 102.5
    endloop
  endfacet
  facet normal 0 0.743243 0.669022
    outer loop
      vertex 112.625 21.971 103.222
      vertex 112.615 22.6209 102.5
      vertex 112.615 21.971 103.222
    endloop
  endfacet
  facet normal 0 0 1
    outer loop
      vertex 112.625 26.52 103.222
      vertex 112.615 26.409 103.222
      vertex 112.625 26.409 103.222
    endloop
  endfacet
  facet normal 0 0 1
    outer loop
      vertex 112.615 26.409 103.222
      vertex 109.753 26.52 103.222
      vertex 112.615 21.971 103.222
    endloop
  endfacet
  facet normal -0 0 1
    outer loop
      vertex 109.753 26.52 103.222
      vertex 112.615 26.409 103.222
      vertex 112.625 26.52 103.222
    endloop
  endfacet
  facet normal -0 0 1
    outer loop
      vertex 112.615 21.971 103.222
      vertex 112.625 21.86 103.222
      vertex 112.625 21.971 103.222
    endloop
  endfacet
  facet normal 0 0 1
    outer loop
      vertex 109.753 21.86 103.222
      vertex 112.615 21.971 103.222
      vertex 109.753 26.52 103.222
    endloop
  endfacet
  facet normal 0 0 1
    outer loop
      vertex 112.615 21.971 103.222
      vertex 109.753 21.86 103.222
      vertex 112.625 21.86 103.222
    endloop
  endfacet
  facet normal -1 0 0
    outer loop
      vertex 112.625 21.971 103.222
      vertex 112.625 21.86 103.222
      vertex 112.625 21.86 103.345
    endloop
  endfacet
  facet normal -1 0 0
    outer loop
      vertex 112.625 26.52 103.222
      vertex 112.625 26.409 103.222
      vertex 112.625 26.52 103.345
    endloop
  endfacet
  facet normal 0 -1 0
    outer loop
      vertex 96.615 26.52 102.5
      vertex 109.753 26.52 104.26
      vertex 96.615 26.52 104.26
    endloop
  endfacet
  facet normal 0 -1 -0
    outer loop
      vertex 109.753 26.52 104.26
      vertex 96.615 26.52 102.5
      vertex 109.753 26.52 102.5
    endloop
  endfacet
  facet normal 0 0 0
    outer loop
      vertex 109.753 26.52 102.5
      vertex 109.753 26.52 103.222
      vertex 109.753 26.52 104.26
    endloop
  endfacet
  facet normal -1 0 0
    outer loop
      vertex 109.753 26.52 102.5
      vertex 109.753 21.86 103.222
      vertex 109.753 26.52 103.222
    endloop
  endfacet
  facet normal -1 0 0
    outer loop
      vertex 109.753 21.86 102.5
      vertex 109.753 21.86 103.222
      vertex 109.753 26.52 102.5
    endloop
  endfacet
  facet normal 0 0 0
    outer loop
      vertex 109.753 21.86 104.26
      vertex 109.753 21.86 103.222
      vertex 109.753 21.86 102.5
    endloop
  endfacet
  facet normal 1 -0 0
    outer loop
      vertex 96.615 21.86 104.26
      vertex 96.615 26.52 102.5
      vertex 96.615 26.52 104.26
    endloop
  endfacet
  facet normal 1 0 0
    outer loop
      vertex 96.615 26.52 102.5
      vertex 96.615 21.86 104.26
      vertex 96.615 21.86 102.5
    endloop
  endfacet
  facet normal 0 1 -0
    outer loop
      vertex 109.753 21.86 102.5
      vertex 96.615 21.86 104.26
      vertex 109.753 21.86 104.26
    endloop
  endfacet
  facet normal 0 1 0
    outer loop
      vertex 96.615 21.86 104.26
      vertex 109.753 21.86 102.5
      vertex 96.615 21.86 102.5
    endloop
  endfacet
  facet normal -0.453968 0.891018 0
    outer loop
      vertex 120.534 15.6247 102.7
      vertex 120.06 15.3832 104.26
      vertex 120.534 15.6247 104.26
    endloop
  endfacet
  facet normal -0.453968 0.891018 0
    outer loop
      vertex 120.06 15.3832 104.26
      vertex 120.534 15.6247 102.7
      vertex 120.06 15.3832 102.7
    endloop
  endfacet
  facet normal -0.156523 0.987674 0
    outer loop
      vertex 120.06 15.3832 102.7
      vertex 119.535 15.3 104.26
      vertex 120.06 15.3832 104.26
    endloop
  endfacet
  facet normal -0.156523 0.987674 0
    outer loop
      vertex 119.535 15.3 104.26
      vertex 120.06 15.3832 102.7
      vertex 119.535 15.3 102.7
    endloop
  endfacet
  facet normal -0.707201 0.707013 0
    outer loop
      vertex 120.91 16.0008 102.7
      vertex 120.534 15.6247 104.26
      vertex 120.91 16.0008 104.26
    endloop
  endfacet
  facet normal -0.707201 0.707013 0
    outer loop
      vertex 120.534 15.6247 104.26
      vertex 120.91 16.0008 102.7
      vertex 120.534 15.6247 102.7
    endloop
  endfacet
  facet normal 0.987746 0.156069 0
    outer loop
      vertex 117.918 16.4747 104.26
      vertex 117.835 17 102.7
      vertex 117.835 17 104.26
    endloop
  endfacet
  facet normal 0.987746 0.156069 0
    outer loop
      vertex 117.835 17 102.7
      vertex 117.918 16.4747 104.26
      vertex 117.918 16.4747 102.7
    endloop
  endfacet
  facet normal -0.890599 -0.45479 0
    outer loop
      vertex 121.152 17.5253 102.7
      vertex 120.91 17.9992 104.26
      vertex 120.91 17.9992 102.7
    endloop
  endfacet
  facet normal -0.890599 -0.45479 0
    outer loop
      vertex 120.91 17.9992 104.26
      vertex 121.152 17.5253 102.7
      vertex 121.152 17.5253 104.26
    endloop
  endfacet
  facet normal 0.890599 0.45479 0
    outer loop
      vertex 118.16 16.0008 104.26
      vertex 117.918 16.4747 102.7
      vertex 117.918 16.4747 104.26
    endloop
  endfacet
  facet normal 0.890599 0.45479 0
    outer loop
      vertex 117.918 16.4747 102.7
      vertex 118.16 16.0008 104.26
      vertex 118.16 16.0008 102.7
    endloop
  endfacet
  facet normal 0.707201 0.707013 0
    outer loop
      vertex 118.536 15.6247 104.26
      vertex 118.16 16.0008 102.7
      vertex 118.16 16.0008 104.26
    endloop
  endfacet
  facet normal 0.707201 0.707013 0
    outer loop
      vertex 118.16 16.0008 102.7
      vertex 118.536 15.6247 104.26
      vertex 118.536 15.6247 102.7
    endloop
  endfacet
  facet normal 0.987746 -0.156069 0
    outer loop
      vertex 117.835 17 104.26
      vertex 117.918 17.5253 102.7
      vertex 117.918 17.5253 104.26
    endloop
  endfacet
  facet normal 0.987746 -0.156069 0
    outer loop
      vertex 117.918 17.5253 102.7
      vertex 117.835 17 104.26
      vertex 117.835 17 102.7
    endloop
  endfacet
  facet normal -0.453968 -0.891018 0
    outer loop
      vertex 120.06 18.6168 102.7
      vertex 120.534 18.3753 104.26
      vertex 120.06 18.6168 104.26
    endloop
  endfacet
  facet normal -0.453968 -0.891018 -0
    outer loop
      vertex 120.534 18.3753 104.26
      vertex 120.06 18.6168 102.7
      vertex 120.534 18.3753 102.7
    endloop
  endfacet
  facet normal 0.156523 0.987674 -0
    outer loop
      vertex 119.535 15.3 102.7
      vertex 119.01 15.3832 104.26
      vertex 119.535 15.3 104.26
    endloop
  endfacet
  facet normal 0.156523 0.987674 0
    outer loop
      vertex 119.01 15.3832 104.26
      vertex 119.535 15.3 102.7
      vertex 119.01 15.3832 102.7
    endloop
  endfacet
  facet normal -0.156523 -0.987674 0
    outer loop
      vertex 119.535 18.7 102.7
      vertex 120.06 18.6168 104.26
      vertex 119.535 18.7 104.26
    endloop
  endfacet
  facet normal -0.156523 -0.987674 -0
    outer loop
      vertex 120.06 18.6168 104.26
      vertex 119.535 18.7 102.7
      vertex 120.06 18.6168 102.7
    endloop
  endfacet
  facet normal 0.453968 0.891018 -0
    outer loop
      vertex 119.01 15.3832 102.7
      vertex 118.536 15.6247 104.26
      vertex 119.01 15.3832 104.26
    endloop
  endfacet
  facet normal 0.453968 0.891018 0
    outer loop
      vertex 118.536 15.6247 104.26
      vertex 119.01 15.3832 102.7
      vertex 118.536 15.6247 102.7
    endloop
  endfacet
  facet normal -0.987746 0.156069 0
    outer loop
      vertex 121.152 16.4747 102.7
      vertex 121.235 17 104.26
      vertex 121.235 17 102.7
    endloop
  endfacet
  facet normal -0.987746 0.156069 0
    outer loop
      vertex 121.235 17 104.26
      vertex 121.152 16.4747 102.7
      vertex 121.152 16.4747 104.26
    endloop
  endfacet
  facet normal -0.890599 0.45479 0
    outer loop
      vertex 120.91 16.0008 102.7
      vertex 121.152 16.4747 104.26
      vertex 121.152 16.4747 102.7
    endloop
  endfacet
  facet normal -0.890599 0.45479 0
    outer loop
      vertex 121.152 16.4747 104.26
      vertex 120.91 16.0008 102.7
      vertex 120.91 16.0008 104.26
    endloop
  endfacet
  facet normal 0.453968 -0.891018 0
    outer loop
      vertex 118.536 18.3753 102.7
      vertex 119.01 18.6168 104.26
      vertex 118.536 18.3753 104.26
    endloop
  endfacet
  facet normal 0.453968 -0.891018 0
    outer loop
      vertex 119.01 18.6168 104.26
      vertex 118.536 18.3753 102.7
      vertex 119.01 18.6168 102.7
    endloop
  endfacet
  facet normal -0.987746 -0.156069 0
    outer loop
      vertex 121.235 17 102.7
      vertex 121.152 17.5253 104.26
      vertex 121.152 17.5253 102.7
    endloop
  endfacet
  facet normal -0.987746 -0.156069 0
    outer loop
      vertex 121.152 17.5253 104.26
      vertex 121.235 17 102.7
      vertex 121.235 17 104.26
    endloop
  endfacet
  facet normal 0.707201 -0.707013 0
    outer loop
      vertex 118.16 17.9992 104.26
      vertex 118.536 18.3753 102.7
      vertex 118.536 18.3753 104.26
    endloop
  endfacet
  facet normal 0.707201 -0.707013 0
    outer loop
      vertex 118.536 18.3753 102.7
      vertex 118.16 17.9992 104.26
      vertex 118.16 17.9992 102.7
    endloop
  endfacet
  facet normal -0.707201 -0.707013 0
    outer loop
      vertex 120.534 18.3753 102.7
      vertex 120.91 17.9992 104.26
      vertex 120.534 18.3753 104.26
    endloop
  endfacet
  facet normal -0.707201 -0.707013 -0
    outer loop
      vertex 120.91 17.9992 104.26
      vertex 120.534 18.3753 102.7
      vertex 120.91 17.9992 102.7
    endloop
  endfacet
  facet normal 0.156523 -0.987674 0
    outer loop
      vertex 119.01 18.6168 102.7
      vertex 119.535 18.7 104.26
      vertex 119.01 18.6168 104.26
    endloop
  endfacet
  facet normal 0.156523 -0.987674 0
    outer loop
      vertex 119.535 18.7 104.26
      vertex 119.01 18.6168 102.7
      vertex 119.535 18.7 102.7
    endloop
  endfacet
  facet normal 0.890599 -0.45479 0
    outer loop
      vertex 117.918 17.5253 104.26
      vertex 118.16 17.9992 102.7
      vertex 118.16 17.9992 104.26
    endloop
  endfacet
  facet normal 0.890599 -0.45479 0
    outer loop
      vertex 118.16 17.9992 102.7
      vertex 117.918 17.5253 104.26
      vertex 117.918 17.5253 102.7
    endloop
  endfacet
  facet normal -0.499999 -0.866026 0
    outer loop
      vertex 120.755 19.7406 102.5
      vertex 121.298 19.4271 102.7
      vertex 120.755 19.7406 102.7
    endloop
  endfacet
  facet normal -0.499999 -0.866026 -0
    outer loop
      vertex 121.298 19.4271 102.7
      vertex 120.755 19.7406 102.5
      vertex 121.298 19.4271 102.5
    endloop
  endfacet
  facet normal -0.669229 0.743056 0
    outer loop
      vertex 121.764 14.9926 102.5
      vertex 121.298 14.5729 102.7
      vertex 121.764 14.9926 102.7
    endloop
  endfacet
  facet normal -0.669229 0.743056 0
    outer loop
      vertex 121.298 14.5729 102.7
      vertex 121.764 14.9926 102.5
      vertex 121.298 14.5729 102.5
    endloop
  endfacet
  facet normal 0.913588 0.406641 0
    outer loop
      vertex 116.937 15.5 102.7
      vertex 116.682 16.0729 102.5
      vertex 116.682 16.0729 102.7
    endloop
  endfacet
  facet normal 0.913588 0.406641 0
    outer loop
      vertex 116.682 16.0729 102.5
      vertex 116.937 15.5 102.7
      vertex 116.937 15.5 102.5
    endloop
  endfacet
  facet normal -1 0 0
    outer loop
      vertex 122.519 16.6864 102.5
      vertex 122.519 17.3136 102.7
      vertex 122.519 17.3136 102.5
    endloop
  endfacet
  facet normal -1 -0 0
    outer loop
      vertex 122.519 17.3136 102.7
      vertex 122.519 16.6864 102.5
      vertex 122.519 16.6864 102.7
    endloop
  endfacet
  facet normal -0.80875 -0.588153 0
    outer loop
      vertex 122.133 18.5 102.5
      vertex 121.764 19.0074 102.7
      vertex 121.764 19.0074 102.5
    endloop
  endfacet
  facet normal -0.80875 -0.588153 0
    outer loop
      vertex 121.764 19.0074 102.7
      vertex 122.133 18.5 102.5
      vertex 122.133 18.5 102.7
    endloop
  endfacet
  facet normal -0.669229 -0.743056 0
    outer loop
      vertex 121.298 19.4271 102.5
      vertex 121.764 19.0074 102.7
      vertex 121.298 19.4271 102.7
    endloop
  endfacet
  facet normal -0.669229 -0.743056 -0
    outer loop
      vertex 121.764 19.0074 102.7
      vertex 121.298 19.4271 102.5
      vertex 121.764 19.0074 102.5
    endloop
  endfacet
  facet normal -0.30923 -0.950987 0
    outer loop
      vertex 120.159 19.9344 102.5
      vertex 120.755 19.7406 102.7
      vertex 120.159 19.9344 102.7
    endloop
  endfacet
  facet normal -0.30923 -0.950987 -0
    outer loop
      vertex 120.755 19.7406 102.7
      vertex 120.159 19.9344 102.5
      vertex 120.755 19.7406 102.5
    endloop
  endfacet
  facet normal 0.499999 -0.866026 0
    outer loop
      vertex 117.772 19.4271 102.5
      vertex 118.315 19.7406 102.7
      vertex 117.772 19.4271 102.7
    endloop
  endfacet
  facet normal 0.499999 -0.866026 0
    outer loop
      vertex 118.315 19.7406 102.7
      vertex 117.772 19.4271 102.5
      vertex 118.315 19.7406 102.5
    endloop
  endfacet
  facet normal 0.977954 0.208821 0
    outer loop
      vertex 116.682 16.0729 102.7
      vertex 116.551 16.6864 102.5
      vertex 116.551 16.6864 102.7
    endloop
  endfacet
  facet normal 0.977954 0.208821 0
    outer loop
      vertex 116.551 16.6864 102.5
      vertex 116.682 16.0729 102.7
      vertex 116.682 16.0729 102.5
    endloop
  endfacet
  facet normal 0.30923 0.950987 -0
    outer loop
      vertex 118.911 14.0656 102.5
      vertex 118.315 14.2594 102.7
      vertex 118.911 14.0656 102.7
    endloop
  endfacet
  facet normal 0.30923 0.950987 0
    outer loop
      vertex 118.315 14.2594 102.7
      vertex 118.911 14.0656 102.5
      vertex 118.315 14.2594 102.5
    endloop
  endfacet
  facet normal 0.30923 -0.950987 0
    outer loop
      vertex 118.315 19.7406 102.5
      vertex 118.911 19.9344 102.7
      vertex 118.315 19.7406 102.7
    endloop
  endfacet
  facet normal 0.30923 -0.950987 0
    outer loop
      vertex 118.911 19.9344 102.7
      vertex 118.315 19.7406 102.5
      vertex 118.911 19.9344 102.5
    endloop
  endfacet
  facet normal 1 -0 0
    outer loop
      vertex 116.551 16.6864 102.7
      vertex 116.551 17.3136 102.5
      vertex 116.551 17.3136 102.7
    endloop
  endfacet
  facet normal 1 0 0
    outer loop
      vertex 116.551 17.3136 102.5
      vertex 116.551 16.6864 102.7
      vertex 116.551 16.6864 102.5
    endloop
  endfacet
  facet normal -0.913588 -0.406641 0
    outer loop
      vertex 122.388 17.9271 102.5
      vertex 122.133 18.5 102.7
      vertex 122.133 18.5 102.5
    endloop
  endfacet
  facet normal -0.913588 -0.406641 0
    outer loop
      vertex 122.133 18.5 102.7
      vertex 122.388 17.9271 102.5
      vertex 122.388 17.9271 102.7
    endloop
  endfacet
  facet normal -0.913588 0.406641 0
    outer loop
      vertex 122.133 15.5 102.5
      vertex 122.388 16.0729 102.7
      vertex 122.388 16.0729 102.5
    endloop
  endfacet
  facet normal -0.913588 0.406641 0
    outer loop
      vertex 122.388 16.0729 102.7
      vertex 122.133 15.5 102.5
      vertex 122.133 15.5 102.7
    endloop
  endfacet
  facet normal 0.669229 -0.743056 0
    outer loop
      vertex 117.306 19.0074 102.5
      vertex 117.772 19.4271 102.7
      vertex 117.306 19.0074 102.7
    endloop
  endfacet
  facet normal 0.669229 -0.743056 0
    outer loop
      vertex 117.772 19.4271 102.7
      vertex 117.306 19.0074 102.5
      vertex 117.772 19.4271 102.5
    endloop
  endfacet
  facet normal -0.104552 -0.994519 0
    outer loop
      vertex 119.535 20 102.5
      vertex 120.159 19.9344 102.7
      vertex 119.535 20 102.7
    endloop
  endfacet
  facet normal -0.104552 -0.994519 -0
    outer loop
      vertex 120.159 19.9344 102.7
      vertex 119.535 20 102.5
      vertex 120.159 19.9344 102.5
    endloop
  endfacet
  facet normal 0.913588 -0.406641 0
    outer loop
      vertex 116.682 17.9271 102.7
      vertex 116.937 18.5 102.5
      vertex 116.937 18.5 102.7
    endloop
  endfacet
  facet normal 0.913588 -0.406641 0
    outer loop
      vertex 116.937 18.5 102.5
      vertex 116.682 17.9271 102.7
      vertex 116.682 17.9271 102.5
    endloop
  endfacet
  facet normal -0.499999 0.866026 0
    outer loop
      vertex 121.298 14.5729 102.5
      vertex 120.755 14.2594 102.7
      vertex 121.298 14.5729 102.7
    endloop
  endfacet
  facet normal -0.499999 0.866026 0
    outer loop
      vertex 120.755 14.2594 102.7
      vertex 121.298 14.5729 102.5
      vertex 120.755 14.2594 102.5
    endloop
  endfacet
  facet normal -0.104552 0.994519 0
    outer loop
      vertex 120.159 14.0656 102.5
      vertex 119.535 14 102.7
      vertex 120.159 14.0656 102.7
    endloop
  endfacet
  facet normal -0.104552 0.994519 0
    outer loop
      vertex 119.535 14 102.7
      vertex 120.159 14.0656 102.5
      vertex 119.535 14 102.5
    endloop
  endfacet
  facet normal 0.104552 -0.994519 0
    outer loop
      vertex 118.911 19.9344 102.5
      vertex 119.535 20 102.7
      vertex 118.911 19.9344 102.7
    endloop
  endfacet
  facet normal 0.104552 -0.994519 0
    outer loop
      vertex 119.535 20 102.7
      vertex 118.911 19.9344 102.5
      vertex 119.535 20 102.5
    endloop
  endfacet
  facet normal 0.80875 -0.588153 0
    outer loop
      vertex 116.937 18.5 102.7
      vertex 117.306 19.0074 102.5
      vertex 117.306 19.0074 102.7
    endloop
  endfacet
  facet normal 0.80875 -0.588153 0
    outer loop
      vertex 117.306 19.0074 102.5
      vertex 116.937 18.5 102.7
      vertex 116.937 18.5 102.5
    endloop
  endfacet
  facet normal 0.499999 0.866026 -0
    outer loop
      vertex 118.315 14.2594 102.5
      vertex 117.772 14.5729 102.7
      vertex 118.315 14.2594 102.7
    endloop
  endfacet
  facet normal 0.499999 0.866026 0
    outer loop
      vertex 117.772 14.5729 102.7
      vertex 118.315 14.2594 102.5
      vertex 117.772 14.5729 102.5
    endloop
  endfacet
  facet normal -0.80875 0.588153 0
    outer loop
      vertex 121.764 14.9926 102.5
      vertex 122.133 15.5 102.7
      vertex 122.133 15.5 102.5
    endloop
  endfacet
  facet normal -0.80875 0.588153 0
    outer loop
      vertex 122.133 15.5 102.7
      vertex 121.764 14.9926 102.5
      vertex 121.764 14.9926 102.7
    endloop
  endfacet
  facet normal 0.104552 0.994519 -0
    outer loop
      vertex 119.535 14 102.5
      vertex 118.911 14.0656 102.7
      vertex 119.535 14 102.7
    endloop
  endfacet
  facet normal 0.104552 0.994519 0
    outer loop
      vertex 118.911 14.0656 102.7
      vertex 119.535 14 102.5
      vertex 118.911 14.0656 102.5
    endloop
  endfacet
  facet normal -0.977954 -0.208821 0
    outer loop
      vertex 122.519 17.3136 102.5
      vertex 122.388 17.9271 102.7
      vertex 122.388 17.9271 102.5
    endloop
  endfacet
  facet normal -0.977954 -0.208821 0
    outer loop
      vertex 122.388 17.9271 102.7
      vertex 122.519 17.3136 102.5
      vertex 122.519 17.3136 102.7
    endloop
  endfacet
  facet normal -0.30923 0.950987 0
    outer loop
      vertex 120.755 14.2594 102.5
      vertex 120.159 14.0656 102.7
      vertex 120.755 14.2594 102.7
    endloop
  endfacet
  facet normal -0.30923 0.950987 0
    outer loop
      vertex 120.159 14.0656 102.7
      vertex 120.755 14.2594 102.5
      vertex 120.159 14.0656 102.5
    endloop
  endfacet
  facet normal 0.977954 -0.208821 0
    outer loop
      vertex 116.551 17.3136 102.7
      vertex 116.682 17.9271 102.5
      vertex 116.682 17.9271 102.7
    endloop
  endfacet
  facet normal 0.977954 -0.208821 0
    outer loop
      vertex 116.682 17.9271 102.5
      vertex 116.551 17.3136 102.7
      vertex 116.551 17.3136 102.5
    endloop
  endfacet
  facet normal -0.977954 0.208821 0
    outer loop
      vertex 122.388 16.0729 102.5
      vertex 122.519 16.6864 102.7
      vertex 122.519 16.6864 102.5
    endloop
  endfacet
  facet normal -0.977954 0.208821 0
    outer loop
      vertex 122.519 16.6864 102.7
      vertex 122.388 16.0729 102.5
      vertex 122.388 16.0729 102.7
    endloop
  endfacet
  facet normal 0 0 -1
    outer loop
      vertex 121.152 16.4747 102.7
      vertex 122.519 16.6864 102.7
      vertex 122.388 16.0729 102.7
    endloop
  endfacet
  facet normal 0 0 -1
    outer loop
      vertex 122.519 16.6864 102.7
      vertex 121.235 17 102.7
      vertex 122.519 17.3136 102.7
    endloop
  endfacet
  facet normal 0 0 -1
    outer loop
      vertex 121.152 16.4747 102.7
      vertex 122.388 16.0729 102.7
      vertex 122.133 15.5 102.7
    endloop
  endfacet
  facet normal 0 0 -1
    outer loop
      vertex 121.152 17.5253 102.7
      vertex 122.519 17.3136 102.7
      vertex 121.235 17 102.7
    endloop
  endfacet
  facet normal 0 0 -1
    outer loop
      vertex 120.91 16.0008 102.7
      vertex 122.133 15.5 102.7
      vertex 121.764 14.9926 102.7
    endloop
  endfacet
  facet normal 0 0 -1
    outer loop
      vertex 122.519 17.3136 102.7
      vertex 121.152 17.5253 102.7
      vertex 122.388 17.9271 102.7
    endloop
  endfacet
  facet normal 0 0 -1
    outer loop
      vertex 120.534 15.6247 102.7
      vertex 121.764 14.9926 102.7
      vertex 121.298 14.5729 102.7
    endloop
  endfacet
  facet normal -0 0 -1
    outer loop
      vertex 122.388 17.9271 102.7
      vertex 121.152 17.5253 102.7
      vertex 122.133 18.5 102.7
    endloop
  endfacet
  facet normal 0 0 -1
    outer loop
      vertex 120.91 17.9992 102.7
      vertex 122.133 18.5 102.7
      vertex 121.152 17.5253 102.7
    endloop
  endfacet
  facet normal -0 0 -1
    outer loop
      vertex 122.519 16.6864 102.7
      vertex 121.152 16.4747 102.7
      vertex 121.235 17 102.7
    endloop
  endfacet
  facet normal 0 0 -1
    outer loop
      vertex 122.133 15.5 102.7
      vertex 120.91 16.0008 102.7
      vertex 121.152 16.4747 102.7
    endloop
  endfacet
  facet normal 0 0 -1
    outer loop
      vertex 120.534 15.6247 102.7
      vertex 121.298 14.5729 102.7
      vertex 120.755 14.2594 102.7
    endloop
  endfacet
  facet normal 0 0 -1
    outer loop
      vertex 121.764 14.9926 102.7
      vertex 120.534 15.6247 102.7
      vertex 120.91 16.0008 102.7
    endloop
  endfacet
  facet normal 0 0 -1
    outer loop
      vertex 120.06 15.3832 102.7
      vertex 120.755 14.2594 102.7
      vertex 120.159 14.0656 102.7
    endloop
  endfacet
  facet normal 0 0 -1
    outer loop
      vertex 120.755 14.2594 102.7
      vertex 120.06 15.3832 102.7
      vertex 120.534 15.6247 102.7
    endloop
  endfacet
  facet normal 0 0 -1
    outer loop
      vertex 119.535 15.3 102.7
      vertex 120.159 14.0656 102.7
      vertex 119.535 14 102.7
    endloop
  endfacet
  facet normal 0 0 -1
    outer loop
      vertex 120.159 14.0656 102.7
      vertex 119.535 15.3 102.7
      vertex 120.06 15.3832 102.7
    endloop
  endfacet
  facet normal 0 0 -1
    outer loop
      vertex 118.911 14.0656 102.7
      vertex 119.535 15.3 102.7
      vertex 119.535 14 102.7
    endloop
  endfacet
  facet normal -0 0 -1
    outer loop
      vertex 119.535 15.3 102.7
      vertex 118.911 14.0656 102.7
      vertex 119.01 15.3832 102.7
    endloop
  endfacet
  facet normal 0 0 -1
    outer loop
      vertex 118.315 14.2594 102.7
      vertex 119.01 15.3832 102.7
      vertex 118.911 14.0656 102.7
    endloop
  endfacet
  facet normal -0 0 -1
    outer loop
      vertex 119.01 15.3832 102.7
      vertex 118.315 14.2594 102.7
      vertex 118.536 15.6247 102.7
    endloop
  endfacet
  facet normal 0 0 -1
    outer loop
      vertex 117.772 14.5729 102.7
      vertex 118.536 15.6247 102.7
      vertex 118.315 14.2594 102.7
    endloop
  endfacet
  facet normal 0 0 -1
    outer loop
      vertex 117.306 14.9926 102.7
      vertex 118.536 15.6247 102.7
      vertex 117.772 14.5729 102.7
    endloop
  endfacet
  facet normal 0 0 -1
    outer loop
      vertex 116.937 15.5 102.7
      vertex 118.16 16.0008 102.7
      vertex 117.306 14.9926 102.7
    endloop
  endfacet
  facet normal -0 0 -1
    outer loop
      vertex 118.536 15.6247 102.7
      vertex 117.306 14.9926 102.7
      vertex 118.16 16.0008 102.7
    endloop
  endfacet
  facet normal -0 0 -1
    outer loop
      vertex 122.133 18.5 102.7
      vertex 120.91 17.9992 102.7
      vertex 121.764 19.0074 102.7
    endloop
  endfacet
  facet normal 0 0 -1
    outer loop
      vertex 120.534 18.3753 102.7
      vertex 121.764 19.0074 102.7
      vertex 120.91 17.9992 102.7
    endloop
  endfacet
  facet normal -0 0 -1
    outer loop
      vertex 121.764 19.0074 102.7
      vertex 120.534 18.3753 102.7
      vertex 121.298 19.4271 102.7
    endloop
  endfacet
  facet normal -0 0 -1
    outer loop
      vertex 121.298 19.4271 102.7
      vertex 120.534 18.3753 102.7
      vertex 120.755 19.7406 102.7
    endloop
  endfacet
  facet normal 0 0 -1
    outer loop
      vertex 120.06 18.6168 102.7
      vertex 120.755 19.7406 102.7
      vertex 120.534 18.3753 102.7
    endloop
  endfacet
  facet normal -0 0 -1
    outer loop
      vertex 120.755 19.7406 102.7
      vertex 120.06 18.6168 102.7
      vertex 120.159 19.9344 102.7
    endloop
  endfacet
  facet normal 0 0 -1
    outer loop
      vertex 119.535 18.7 102.7
      vertex 120.159 19.9344 102.7
      vertex 120.06 18.6168 102.7
    endloop
  endfacet
  facet normal 0 0 -1
    outer loop
      vertex 119.535 18.7 102.7
      vertex 119.535 20 102.7
      vertex 120.159 19.9344 102.7
    endloop
  endfacet
  facet normal 0 0 -1
    outer loop
      vertex 118.911 19.9344 102.7
      vertex 119.535 18.7 102.7
      vertex 119.01 18.6168 102.7
    endloop
  endfacet
  facet normal 0 0 -1
    outer loop
      vertex 119.535 18.7 102.7
      vertex 118.911 19.9344 102.7
      vertex 119.535 20 102.7
    endloop
  endfacet
  facet normal 0 0 -1
    outer loop
      vertex 118.315 19.7406 102.7
      vertex 119.01 18.6168 102.7
      vertex 118.536 18.3753 102.7
    endloop
  endfacet
  facet normal 0 0 -1
    outer loop
      vertex 119.01 18.6168 102.7
      vertex 118.315 19.7406 102.7
      vertex 118.911 19.9344 102.7
    endloop
  endfacet
  facet normal 0 0 -1
    outer loop
      vertex 117.306 19.0074 102.7
      vertex 118.536 18.3753 102.7
      vertex 118.16 17.9992 102.7
    endloop
  endfacet
  facet normal 0 0 -1
    outer loop
      vertex 116.937 18.5 102.7
      vertex 118.16 17.9992 102.7
      vertex 117.918 17.5253 102.7
    endloop
  endfacet
  facet normal 0 0 -1
    outer loop
      vertex 118.536 18.3753 102.7
      vertex 117.772 19.4271 102.7
      vertex 118.315 19.7406 102.7
    endloop
  endfacet
  facet normal 0 0 -1
    outer loop
      vertex 116.551 17.3136 102.7
      vertex 117.918 17.5253 102.7
      vertex 117.835 17 102.7
    endloop
  endfacet
  facet normal -0 0 -1
    outer loop
      vertex 118.16 16.0008 102.7
      vertex 116.937 15.5 102.7
      vertex 117.918 16.4747 102.7
    endloop
  endfacet
  facet normal 0 0 -1
    outer loop
      vertex 116.682 16.0729 102.7
      vertex 117.918 16.4747 102.7
      vertex 116.937 15.5 102.7
    endloop
  endfacet
  facet normal 0 0 -1
    outer loop
      vertex 118.536 18.3753 102.7
      vertex 117.306 19.0074 102.7
      vertex 117.772 19.4271 102.7
    endloop
  endfacet
  facet normal 0 0 -1
    outer loop
      vertex 116.551 16.6864 102.7
      vertex 117.918 16.4747 102.7
      vertex 116.682 16.0729 102.7
    endloop
  endfacet
  facet normal 0 0 -1
    outer loop
      vertex 118.16 17.9992 102.7
      vertex 116.937 18.5 102.7
      vertex 117.306 19.0074 102.7
    endloop
  endfacet
  facet normal 0 0 -1
    outer loop
      vertex 117.918 16.4747 102.7
      vertex 116.551 16.6864 102.7
      vertex 117.835 17 102.7
    endloop
  endfacet
  facet normal 0 0 -1
    outer loop
      vertex 117.918 17.5253 102.7
      vertex 116.682 17.9271 102.7
      vertex 116.937 18.5 102.7
    endloop
  endfacet
  facet normal 0 0 -1
    outer loop
      vertex 116.551 17.3136 102.7
      vertex 117.835 17 102.7
      vertex 116.551 16.6864 102.7
    endloop
  endfacet
  facet normal -0 0 -1
    outer loop
      vertex 117.918 17.5253 102.7
      vertex 116.551 17.3136 102.7
      vertex 116.682 17.9271 102.7
    endloop
  endfacet
  facet normal 0.669229 0.743056 -0
    outer loop
      vertex 117.772 14.5729 102.5
      vertex 117.306 14.9926 102.7
      vertex 117.772 14.5729 102.7
    endloop
  endfacet
  facet normal 0.669229 0.743056 0
    outer loop
      vertex 117.306 14.9926 102.7
      vertex 117.772 14.5729 102.5
      vertex 117.306 14.9926 102.5
    endloop
  endfacet
  facet normal 0.80875 0.588153 0
    outer loop
      vertex 117.306 14.9926 102.7
      vertex 116.937 15.5 102.5
      vertex 116.937 15.5 102.7
    endloop
  endfacet
  facet normal 0.80875 0.588153 0
    outer loop
      vertex 116.937 15.5 102.5
      vertex 117.306 14.9926 102.7
      vertex 117.306 14.9926 102.5
    endloop
  endfacet
  facet normal 0.890979 0.454044 0
    outer loop
      vertex 97.1597 16.0008 104.26
      vertex 96.9182 16.4747 102.7
      vertex 96.9182 16.4747 104.26
    endloop
  endfacet
  facet normal 0.890979 0.454044 0
    outer loop
      vertex 96.9182 16.4747 102.7
      vertex 97.1597 16.0008 104.26
      vertex 97.1597 16.0008 102.7
    endloop
  endfacet
  facet normal 0.987688 0.156436 0
    outer loop
      vertex 96.9182 16.4747 104.26
      vertex 96.835 17 102.7
      vertex 96.835 17 104.26
    endloop
  endfacet
  facet normal 0.987688 0.156436 0
    outer loop
      vertex 96.835 17 102.7
      vertex 96.9182 16.4747 104.26
      vertex 96.9182 16.4747 102.7
    endloop
  endfacet
  facet normal 0.707107 0.707107 0
    outer loop
      vertex 97.5358 15.6247 104.26
      vertex 97.1597 16.0008 102.7
      vertex 97.1597 16.0008 104.26
    endloop
  endfacet
  facet normal 0.707107 0.707107 0
    outer loop
      vertex 97.1597 16.0008 102.7
      vertex 97.5358 15.6247 104.26
      vertex 97.5358 15.6247 102.7
    endloop
  endfacet
  facet normal 0.156436 -0.987688 0
    outer loop
      vertex 98.0097 18.6168 102.7
      vertex 98.535 18.7 104.26
      vertex 98.0097 18.6168 104.26
    endloop
  endfacet
  facet normal 0.156436 -0.987688 0
    outer loop
      vertex 98.535 18.7 104.26
      vertex 98.0097 18.6168 102.7
      vertex 98.535 18.7 102.7
    endloop
  endfacet
  facet normal -0.454044 0.890979 0
    outer loop
      vertex 99.5342 15.6247 102.7
      vertex 99.0603 15.3832 104.26
      vertex 99.5342 15.6247 104.26
    endloop
  endfacet
  facet normal -0.454044 0.890979 0
    outer loop
      vertex 99.0603 15.3832 104.26
      vertex 99.5342 15.6247 102.7
      vertex 99.0603 15.3832 102.7
    endloop
  endfacet
  facet normal 0.454044 -0.890979 0
    outer loop
      vertex 97.5358 18.3753 102.7
      vertex 98.0097 18.6168 104.26
      vertex 97.5358 18.3753 104.26
    endloop
  endfacet
  facet normal 0.454044 -0.890979 0
    outer loop
      vertex 98.0097 18.6168 104.26
      vertex 97.5358 18.3753 102.7
      vertex 98.0097 18.6168 102.7
    endloop
  endfacet
  facet normal 0.707107 -0.707107 0
    outer loop
      vertex 97.1597 17.9992 104.26
      vertex 97.5358 18.3753 102.7
      vertex 97.5358 18.3753 104.26
    endloop
  endfacet
  facet normal 0.707107 -0.707107 0
    outer loop
      vertex 97.5358 18.3753 102.7
      vertex 97.1597 17.9992 104.26
      vertex 97.1597 17.9992 102.7
    endloop
  endfacet
  facet normal -0.156436 -0.987688 0
    outer loop
      vertex 98.535 18.7 102.7
      vertex 99.0603 18.6168 104.26
      vertex 98.535 18.7 104.26
    endloop
  endfacet
  facet normal -0.156436 -0.987688 -0
    outer loop
      vertex 99.0603 18.6168 104.26
      vertex 98.535 18.7 102.7
      vertex 99.0603 18.6168 102.7
    endloop
  endfacet
  facet normal -0.890827 0.454342 0
    outer loop
      vertex 99.9103 16.0008 102.7
      vertex 100.152 16.4747 104.26
      vertex 100.152 16.4747 102.7
    endloop
  endfacet
  facet normal -0.890827 0.454342 0
    outer loop
      vertex 100.152 16.4747 104.26
      vertex 99.9103 16.0008 102.7
      vertex 99.9103 16.0008 104.26
    endloop
  endfacet
  facet normal 0.987688 -0.156436 0
    outer loop
      vertex 96.835 17 104.26
      vertex 96.9182 17.5253 102.7
      vertex 96.9182 17.5253 104.26
    endloop
  endfacet
  facet normal 0.987688 -0.156436 0
    outer loop
      vertex 96.9182 17.5253 102.7
      vertex 96.835 17 104.26
      vertex 96.835 17 102.7
    endloop
  endfacet
  facet normal -0.987746 0.156069 0
    outer loop
      vertex 100.152 16.4747 102.7
      vertex 100.235 17 104.26
      vertex 100.235 17 102.7
    endloop
  endfacet
  facet normal -0.987746 0.156069 0
    outer loop
      vertex 100.235 17 104.26
      vertex 100.152 16.4747 102.7
      vertex 100.152 16.4747 104.26
    endloop
  endfacet
  facet normal 0.890979 -0.454044 0
    outer loop
      vertex 96.9182 17.5253 104.26
      vertex 97.1597 17.9992 102.7
      vertex 97.1597 17.9992 104.26
    endloop
  endfacet
  facet normal 0.890979 -0.454044 0
    outer loop
      vertex 97.1597 17.9992 102.7
      vertex 96.9182 17.5253 104.26
      vertex 96.9182 17.5253 102.7
    endloop
  endfacet
  facet normal 0.156436 0.987688 -0
    outer loop
      vertex 98.535 15.3 102.7
      vertex 98.0097 15.3832 104.26
      vertex 98.535 15.3 104.26
    endloop
  endfacet
  facet normal 0.156436 0.987688 0
    outer loop
      vertex 98.0097 15.3832 104.26
      vertex 98.535 15.3 102.7
      vertex 98.0097 15.3832 102.7
    endloop
  endfacet
  facet normal 0.454044 0.890979 -0
    outer loop
      vertex 98.0097 15.3832 102.7
      vertex 97.5358 15.6247 104.26
      vertex 98.0097 15.3832 104.26
    endloop
  endfacet
  facet normal 0.454044 0.890979 0
    outer loop
      vertex 97.5358 15.6247 104.26
      vertex 98.0097 15.3832 102.7
      vertex 97.5358 15.6247 102.7
    endloop
  endfacet
  facet normal -0.890827 -0.454342 0
    outer loop
      vertex 100.152 17.5253 102.7
      vertex 99.9103 17.9992 104.26
      vertex 99.9103 17.9992 102.7
    endloop
  endfacet
  facet normal -0.890827 -0.454342 0
    outer loop
      vertex 99.9103 17.9992 104.26
      vertex 100.152 17.5253 102.7
      vertex 100.152 17.5253 104.26
    endloop
  endfacet
  facet normal -0.156436 0.987688 0
    outer loop
      vertex 99.0603 15.3832 102.7
      vertex 98.535 15.3 104.26
      vertex 99.0603 15.3832 104.26
    endloop
  endfacet
  facet normal -0.156436 0.987688 0
    outer loop
      vertex 98.535 15.3 104.26
      vertex 99.0603 15.3832 102.7
      vertex 98.535 15.3 102.7
    endloop
  endfacet
  facet normal -0.707107 -0.707107 0
    outer loop
      vertex 99.5342 18.3753 102.7
      vertex 99.9103 17.9992 104.26
      vertex 99.5342 18.3753 104.26
    endloop
  endfacet
  facet normal -0.707107 -0.707107 -0
    outer loop
      vertex 99.9103 17.9992 104.26
      vertex 99.5342 18.3753 102.7
      vertex 99.9103 17.9992 102.7
    endloop
  endfacet
  facet normal -0.707107 0.707107 0
    outer loop
      vertex 99.9103 16.0008 102.7
      vertex 99.5342 15.6247 104.26
      vertex 99.9103 16.0008 104.26
    endloop
  endfacet
  facet normal -0.707107 0.707107 0
    outer loop
      vertex 99.5342 15.6247 104.26
      vertex 99.9103 16.0008 102.7
      vertex 99.5342 15.6247 102.7
    endloop
  endfacet
  facet normal -0.987746 -0.156069 0
    outer loop
      vertex 100.235 17 102.7
      vertex 100.152 17.5253 104.26
      vertex 100.152 17.5253 102.7
    endloop
  endfacet
  facet normal -0.987746 -0.156069 0
    outer loop
      vertex 100.152 17.5253 104.26
      vertex 100.235 17 102.7
      vertex 100.235 17 104.26
    endloop
  endfacet
  facet normal -0.454044 -0.890979 0
    outer loop
      vertex 99.0603 18.6168 102.7
      vertex 99.5342 18.3753 104.26
      vertex 99.0603 18.6168 104.26
    endloop
  endfacet
  facet normal -0.454044 -0.890979 -0
    outer loop
      vertex 99.5342 18.3753 104.26
      vertex 99.0603 18.6168 102.7
      vertex 99.5342 18.3753 102.7
    endloop
  endfacet
  facet normal -0.865761 0.500458 0
    outer loop
      vertex 100.962 15.2366 102.5
      vertex 101.276 15.7798 102.7
      vertex 101.276 15.7798 102.5
    endloop
  endfacet
  facet normal -0.865761 0.500458 0
    outer loop
      vertex 101.276 15.7798 102.7
      vertex 100.962 15.2366 102.5
      vertex 100.962 15.2366 102.7
    endloop
  endfacet
  facet normal 0.743056 0.669229 0
    outer loop
      vertex 96.5276 14.7706 102.7
      vertex 96.1079 15.2366 102.5
      vertex 96.1079 15.2366 102.7
    endloop
  endfacet
  facet normal 0.743056 0.669229 0
    outer loop
      vertex 96.1079 15.2366 102.5
      vertex 96.5276 14.7706 102.7
      vertex 96.5276 14.7706 102.5
    endloop
  endfacet
  facet normal 0.406775 -0.913529 0
    outer loop
      vertex 97.035 19.5981 102.5
      vertex 97.6079 19.8532 102.7
      vertex 97.035 19.5981 102.7
    endloop
  endfacet
  facet normal 0.406775 -0.913529 0
    outer loop
      vertex 97.6079 19.8532 102.7
      vertex 97.035 19.5981 102.5
      vertex 97.6079 19.8532 102.5
    endloop
  endfacet
  facet normal 0 1 -0
    outer loop
      vertex 98.8486 14.0164 102.5
      vertex 98.2214 14.0164 102.7
      vertex 98.8486 14.0164 102.7
    endloop
  endfacet
  facet normal 0 1 0
    outer loop
      vertex 98.2214 14.0164 102.7
      vertex 98.8486 14.0164 102.5
      vertex 98.2214 14.0164 102.5
    endloop
  endfacet
  facet normal -0.588143 0.808757 0
    outer loop
      vertex 100.542 14.7706 102.5
      vertex 100.035 14.4019 102.7
      vertex 100.542 14.7706 102.7
    endloop
  endfacet
  facet normal -0.588143 0.808757 0
    outer loop
      vertex 100.035 14.4019 102.7
      vertex 100.542 14.7706 102.5
      vertex 100.035 14.4019 102.5
    endloop
  endfacet
  facet normal -0.742818 0.669493 0
    outer loop
      vertex 100.542 14.7706 102.5
      vertex 100.962 15.2366 102.7
      vertex 100.962 15.2366 102.5
    endloop
  endfacet
  facet normal -0.742818 0.669493 0
    outer loop
      vertex 100.962 15.2366 102.7
      vertex 100.542 14.7706 102.5
      vertex 100.542 14.7706 102.7
    endloop
  endfacet
  facet normal -0.951438 0.307842 0
    outer loop
      vertex 101.276 15.7798 102.5
      vertex 101.469 16.3763 102.7
      vertex 101.469 16.3763 102.5
    endloop
  endfacet
  facet normal -0.951438 0.307842 0
    outer loop
      vertex 101.469 16.3763 102.7
      vertex 101.276 15.7798 102.5
      vertex 101.276 15.7798 102.7
    endloop
  endfacet
  facet normal -0.865761 -0.500458 0
    outer loop
      vertex 101.276 18.2202 102.5
      vertex 100.962 18.7634 102.7
      vertex 100.962 18.7634 102.5
    endloop
  endfacet
  facet normal -0.865761 -0.500458 0
    outer loop
      vertex 100.962 18.7634 102.7
      vertex 101.276 18.2202 102.5
      vertex 101.276 18.2202 102.7
    endloop
  endfacet
  facet normal 0.207906 -0.978149 0
    outer loop
      vertex 97.6079 19.8532 102.5
      vertex 98.2214 19.9836 102.7
      vertex 97.6079 19.8532 102.7
    endloop
  endfacet
  facet normal 0.207906 -0.978149 0
    outer loop
      vertex 98.2214 19.9836 102.7
      vertex 97.6079 19.8532 102.5
      vertex 98.2214 19.9836 102.5
    endloop
  endfacet
  facet normal 0.951063 -0.308996 0
    outer loop
      vertex 95.6006 17.6237 102.7
      vertex 95.7944 18.2202 102.5
      vertex 95.7944 18.2202 102.7
    endloop
  endfacet
  facet normal 0.951063 -0.308996 0
    outer loop
      vertex 95.7944 18.2202 102.5
      vertex 95.6006 17.6237 102.7
      vertex 95.6006 17.6237 102.5
    endloop
  endfacet
  facet normal -0.951438 -0.307842 0
    outer loop
      vertex 101.469 17.6237 102.5
      vertex 101.276 18.2202 102.7
      vertex 101.276 18.2202 102.5
    endloop
  endfacet
  facet normal -0.951438 -0.307842 0
    outer loop
      vertex 101.276 18.2202 102.7
      vertex 101.469 17.6237 102.5
      vertex 101.469 17.6237 102.7
    endloop
  endfacet
  facet normal 0 -1 0
    outer loop
      vertex 98.2214 19.9836 102.5
      vertex 98.8486 19.9836 102.7
      vertex 98.2214 19.9836 102.7
    endloop
  endfacet
  facet normal 0 -1 -0
    outer loop
      vertex 98.8486 19.9836 102.7
      vertex 98.2214 19.9836 102.5
      vertex 98.8486 19.9836 102.5
    endloop
  endfacet
  facet normal -0.406775 0.913529 0
    outer loop
      vertex 100.035 14.4019 102.5
      vertex 99.4621 14.1468 102.7
      vertex 100.035 14.4019 102.7
    endloop
  endfacet
  facet normal -0.406775 0.913529 0
    outer loop
      vertex 99.4621 14.1468 102.7
      vertex 100.035 14.4019 102.5
      vertex 99.4621 14.1468 102.5
    endloop
  endfacet
  facet normal 0.406775 0.913529 -0
    outer loop
      vertex 97.6079 14.1468 102.5
      vertex 97.035 14.4019 102.7
      vertex 97.6079 14.1468 102.7
    endloop
  endfacet
  facet normal 0.406775 0.913529 0
    outer loop
      vertex 97.035 14.4019 102.7
      vertex 97.6079 14.1468 102.5
      vertex 97.035 14.4019 102.5
    endloop
  endfacet
  facet normal -0.742818 -0.669493 0
    outer loop
      vertex 100.962 18.7634 102.5
      vertex 100.542 19.2294 102.7
      vertex 100.542 19.2294 102.5
    endloop
  endfacet
  facet normal -0.742818 -0.669493 0
    outer loop
      vertex 100.542 19.2294 102.7
      vertex 100.962 18.7634 102.5
      vertex 100.962 18.7634 102.7
    endloop
  endfacet
  facet normal -0.994448 0.105233 0
    outer loop
      vertex 101.469 16.3763 102.5
      vertex 101.535 17 102.7
      vertex 101.535 17 102.5
    endloop
  endfacet
  facet normal -0.994448 0.105233 0
    outer loop
      vertex 101.535 17 102.7
      vertex 101.469 16.3763 102.5
      vertex 101.469 16.3763 102.7
    endloop
  endfacet
  facet normal -0.406775 -0.913529 0
    outer loop
      vertex 99.4621 19.8532 102.5
      vertex 100.035 19.5981 102.7
      vertex 99.4621 19.8532 102.7
    endloop
  endfacet
  facet normal -0.406775 -0.913529 -0
    outer loop
      vertex 100.035 19.5981 102.7
      vertex 99.4621 19.8532 102.5
      vertex 100.035 19.5981 102.5
    endloop
  endfacet
  facet normal 0.866106 0.49986 0
    outer loop
      vertex 96.1079 15.2366 102.7
      vertex 95.7944 15.7798 102.5
      vertex 95.7944 15.7798 102.7
    endloop
  endfacet
  facet normal 0.866106 0.49986 0
    outer loop
      vertex 95.7944 15.7798 102.5
      vertex 96.1079 15.2366 102.7
      vertex 96.1079 15.2366 102.5
    endloop
  endfacet
  facet normal 0.994514 0.104602 0
    outer loop
      vertex 95.6006 16.3763 102.7
      vertex 95.535 17 102.5
      vertex 95.535 17 102.7
    endloop
  endfacet
  facet normal 0.994514 0.104602 0
    outer loop
      vertex 95.535 17 102.5
      vertex 95.6006 16.3763 102.7
      vertex 95.6006 16.3763 102.5
    endloop
  endfacet
  facet normal -0.994448 -0.105233 0
    outer loop
      vertex 101.535 17 102.5
      vertex 101.469 17.6237 102.7
      vertex 101.469 17.6237 102.5
    endloop
  endfacet
  facet normal -0.994448 -0.105233 0
    outer loop
      vertex 101.469 17.6237 102.7
      vertex 101.535 17 102.5
      vertex 101.535 17 102.7
    endloop
  endfacet
  facet normal -0.588143 -0.808757 0
    outer loop
      vertex 100.035 19.5981 102.5
      vertex 100.542 19.2294 102.7
      vertex 100.035 19.5981 102.7
    endloop
  endfacet
  facet normal -0.588143 -0.808757 -0
    outer loop
      vertex 100.542 19.2294 102.7
      vertex 100.035 19.5981 102.5
      vertex 100.542 19.2294 102.5
    endloop
  endfacet
  facet normal 0.866106 -0.49986 0
    outer loop
      vertex 95.7944 18.2202 102.7
      vertex 96.1079 18.7634 102.5
      vertex 96.1079 18.7634 102.7
    endloop
  endfacet
  facet normal 0.866106 -0.49986 0
    outer loop
      vertex 96.1079 18.7634 102.5
      vertex 95.7944 18.2202 102.7
      vertex 95.7944 18.2202 102.5
    endloop
  endfacet
  facet normal 0.58784 0.808977 -0
    outer loop
      vertex 97.035 14.4019 102.5
      vertex 96.5276 14.7706 102.7
      vertex 97.035 14.4019 102.7
    endloop
  endfacet
  facet normal 0.58784 0.808977 0
    outer loop
      vertex 96.5276 14.7706 102.7
      vertex 97.035 14.4019 102.5
      vertex 96.5276 14.7706 102.5
    endloop
  endfacet
  facet normal 0.994514 -0.104602 0
    outer loop
      vertex 95.535 17 102.7
      vertex 95.6006 17.6237 102.5
      vertex 95.6006 17.6237 102.7
    endloop
  endfacet
  facet normal 0.994514 -0.104602 0
    outer loop
      vertex 95.6006 17.6237 102.5
      vertex 95.535 17 102.7
      vertex 95.535 17 102.5
    endloop
  endfacet
  facet normal -0.207906 0.978149 0
    outer loop
      vertex 99.4621 14.1468 102.5
      vertex 98.8486 14.0164 102.7
      vertex 99.4621 14.1468 102.7
    endloop
  endfacet
  facet normal -0.207906 0.978149 0
    outer loop
      vertex 98.8486 14.0164 102.7
      vertex 99.4621 14.1468 102.5
      vertex 98.8486 14.0164 102.5
    endloop
  endfacet
  facet normal 0.951063 0.308996 0
    outer loop
      vertex 95.7944 15.7798 102.7
      vertex 95.6006 16.3763 102.5
      vertex 95.6006 16.3763 102.7
    endloop
  endfacet
  facet normal 0.951063 0.308996 0
    outer loop
      vertex 95.6006 16.3763 102.5
      vertex 95.7944 15.7798 102.7
      vertex 95.7944 15.7798 102.5
    endloop
  endfacet
  facet normal -0.207906 -0.978149 0
    outer loop
      vertex 98.8486 19.9836 102.5
      vertex 99.4621 19.8532 102.7
      vertex 98.8486 19.9836 102.7
    endloop
  endfacet
  facet normal -0.207906 -0.978149 -0
    outer loop
      vertex 99.4621 19.8532 102.7
      vertex 98.8486 19.9836 102.5
      vertex 99.4621 19.8532 102.5
    endloop
  endfacet
  facet normal 0.207906 0.978149 -0
    outer loop
      vertex 98.2214 14.0164 102.5
      vertex 97.6079 14.1468 102.7
      vertex 98.2214 14.0164 102.7
    endloop
  endfacet
  facet normal 0.207906 0.978149 0
    outer loop
      vertex 97.6079 14.1468 102.7
      vertex 98.2214 14.0164 102.5
      vertex 97.6079 14.1468 102.5
    endloop
  endfacet
  facet normal 0 0 -1
    outer loop
      vertex 100.235 17 102.7
      vertex 101.535 17 102.7
      vertex 101.469 16.3763 102.7
    endloop
  endfacet
  facet normal 0 0 -1
    outer loop
      vertex 100.152 16.4747 102.7
      vertex 101.469 16.3763 102.7
      vertex 101.276 15.7798 102.7
    endloop
  endfacet
  facet normal 0 0 -1
    outer loop
      vertex 101.535 17 102.7
      vertex 100.235 17 102.7
      vertex 101.469 17.6237 102.7
    endloop
  endfacet
  facet normal 0 0 -1
    outer loop
      vertex 99.9103 16.0008 102.7
      vertex 101.276 15.7798 102.7
      vertex 100.962 15.2366 102.7
    endloop
  endfacet
  facet normal 0 0 -1
    outer loop
      vertex 100.152 17.5253 102.7
      vertex 101.469 17.6237 102.7
      vertex 100.235 17 102.7
    endloop
  endfacet
  facet normal 0 0 -1
    outer loop
      vertex 99.9103 16.0008 102.7
      vertex 100.962 15.2366 102.7
      vertex 100.542 14.7706 102.7
    endloop
  endfacet
  facet normal -0 0 -1
    outer loop
      vertex 101.469 17.6237 102.7
      vertex 100.152 17.5253 102.7
      vertex 101.276 18.2202 102.7
    endloop
  endfacet
  facet normal 0 0 -1
    outer loop
      vertex 99.9103 17.9992 102.7
      vertex 101.276 18.2202 102.7
      vertex 100.152 17.5253 102.7
    endloop
  endfacet
  facet normal 0 0 -1
    outer loop
      vertex 101.469 16.3763 102.7
      vertex 100.152 16.4747 102.7
      vertex 100.235 17 102.7
    endloop
  endfacet
  facet normal 0 0 -1
    outer loop
      vertex 99.5342 15.6247 102.7
      vertex 100.542 14.7706 102.7
      vertex 100.035 14.4019 102.7
    endloop
  endfacet
  facet normal 0 0 -1
    outer loop
      vertex 101.276 15.7798 102.7
      vertex 99.9103 16.0008 102.7
      vertex 100.152 16.4747 102.7
    endloop
  endfacet
  facet normal 0 0 -1
    outer loop
      vertex 100.542 14.7706 102.7
      vertex 99.5342 15.6247 102.7
      vertex 99.9103 16.0008 102.7
    endloop
  endfacet
  facet normal 0 0 -1
    outer loop
      vertex 99.0603 15.3832 102.7
      vertex 100.035 14.4019 102.7
      vertex 99.4621 14.1468 102.7
    endloop
  endfacet
  facet normal 0 0 -1
    outer loop
      vertex 100.035 14.4019 102.7
      vertex 99.0603 15.3832 102.7
      vertex 99.5342 15.6247 102.7
    endloop
  endfacet
  facet normal 0 0 -1
    outer loop
      vertex 98.8486 14.0164 102.7
      vertex 99.0603 15.3832 102.7
      vertex 99.4621 14.1468 102.7
    endloop
  endfacet
  facet normal 0 0 -1
    outer loop
      vertex 98.8486 14.0164 102.7
      vertex 98.535 15.3 102.7
      vertex 99.0603 15.3832 102.7
    endloop
  endfacet
  facet normal 0 0 -1
    outer loop
      vertex 98.2214 14.0164 102.7
      vertex 98.535 15.3 102.7
      vertex 98.8486 14.0164 102.7
    endloop
  endfacet
  facet normal 0 0 -1
    outer loop
      vertex 98.2214 14.0164 102.7
      vertex 98.0097 15.3832 102.7
      vertex 98.535 15.3 102.7
    endloop
  endfacet
  facet normal 0 0 -1
    outer loop
      vertex 97.6079 14.1468 102.7
      vertex 98.0097 15.3832 102.7
      vertex 98.2214 14.0164 102.7
    endloop
  endfacet
  facet normal 0 0 -1
    outer loop
      vertex 97.035 14.4019 102.7
      vertex 98.0097 15.3832 102.7
      vertex 97.6079 14.1468 102.7
    endloop
  endfacet
  facet normal -0 0 -1
    outer loop
      vertex 98.0097 15.3832 102.7
      vertex 97.035 14.4019 102.7
      vertex 97.5358 15.6247 102.7
    endloop
  endfacet
  facet normal 0 0 -1
    outer loop
      vertex 96.5276 14.7706 102.7
      vertex 97.5358 15.6247 102.7
      vertex 97.035 14.4019 102.7
    endloop
  endfacet
  facet normal -0 0 -1
    outer loop
      vertex 97.5358 15.6247 102.7
      vertex 96.5276 14.7706 102.7
      vertex 97.1597 16.0008 102.7
    endloop
  endfacet
  facet normal 0 0 -1
    outer loop
      vertex 96.1079 15.2366 102.7
      vertex 97.1597 16.0008 102.7
      vertex 96.5276 14.7706 102.7
    endloop
  endfacet
  facet normal 0 0 -1
    outer loop
      vertex 95.7944 15.7798 102.7
      vertex 97.1597 16.0008 102.7
      vertex 96.1079 15.2366 102.7
    endloop
  endfacet
  facet normal -0 0 -1
    outer loop
      vertex 101.276 18.2202 102.7
      vertex 99.9103 17.9992 102.7
      vertex 100.962 18.7634 102.7
    endloop
  endfacet
  facet normal -0 0 -1
    outer loop
      vertex 100.962 18.7634 102.7
      vertex 99.9103 17.9992 102.7
      vertex 100.542 19.2294 102.7
    endloop
  endfacet
  facet normal 0 0 -1
    outer loop
      vertex 99.5342 18.3753 102.7
      vertex 100.542 19.2294 102.7
      vertex 99.9103 17.9992 102.7
    endloop
  endfacet
  facet normal -0 0 -1
    outer loop
      vertex 100.542 19.2294 102.7
      vertex 99.5342 18.3753 102.7
      vertex 100.035 19.5981 102.7
    endloop
  endfacet
  facet normal 0 0 -1
    outer loop
      vertex 99.0603 18.6168 102.7
      vertex 100.035 19.5981 102.7
      vertex 99.5342 18.3753 102.7
    endloop
  endfacet
  facet normal -0 0 -1
    outer loop
      vertex 100.035 19.5981 102.7
      vertex 99.0603 18.6168 102.7
      vertex 99.4621 19.8532 102.7
    endloop
  endfacet
  facet normal 0 0 -1
    outer loop
      vertex 99.0603 18.6168 102.7
      vertex 98.8486 19.9836 102.7
      vertex 99.4621 19.8532 102.7
    endloop
  endfacet
  facet normal 0 0 -1
    outer loop
      vertex 98.535 18.7 102.7
      vertex 98.8486 19.9836 102.7
      vertex 99.0603 18.6168 102.7
    endloop
  endfacet
  facet normal 0 0 -1
    outer loop
      vertex 98.535 18.7 102.7
      vertex 98.2214 19.9836 102.7
      vertex 98.8486 19.9836 102.7
    endloop
  endfacet
  facet normal 0 0 -1
    outer loop
      vertex 98.0097 18.6168 102.7
      vertex 98.2214 19.9836 102.7
      vertex 98.535 18.7 102.7
    endloop
  endfacet
  facet normal 0 0 -1
    outer loop
      vertex 98.0097 18.6168 102.7
      vertex 97.6079 19.8532 102.7
      vertex 98.2214 19.9836 102.7
    endloop
  endfacet
  facet normal 0 0 -1
    outer loop
      vertex 97.035 19.5981 102.7
      vertex 98.0097 18.6168 102.7
      vertex 97.5358 18.3753 102.7
    endloop
  endfacet
  facet normal 0 0 -1
    outer loop
      vertex 96.5276 19.2294 102.7
      vertex 97.5358 18.3753 102.7
      vertex 97.1597 17.9992 102.7
    endloop
  endfacet
  facet normal 0 0 -1
    outer loop
      vertex 98.0097 18.6168 102.7
      vertex 97.035 19.5981 102.7
      vertex 97.6079 19.8532 102.7
    endloop
  endfacet
  facet normal 0 0 -1
    outer loop
      vertex 95.7944 18.2202 102.7
      vertex 97.1597 17.9992 102.7
      vertex 96.9182 17.5253 102.7
    endloop
  endfacet
  facet normal 0 0 -1
    outer loop
      vertex 95.6006 17.6237 102.7
      vertex 96.9182 17.5253 102.7
      vertex 96.835 17 102.7
    endloop
  endfacet
  facet normal -0 0 -1
    outer loop
      vertex 97.1597 16.0008 102.7
      vertex 95.7944 15.7798 102.7
      vertex 96.9182 16.4747 102.7
    endloop
  endfacet
  facet normal 0 0 -1
    outer loop
      vertex 97.5358 18.3753 102.7
      vertex 96.5276 19.2294 102.7
      vertex 97.035 19.5981 102.7
    endloop
  endfacet
  facet normal 0 0 -1
    outer loop
      vertex 95.6006 16.3763 102.7
      vertex 96.9182 16.4747 102.7
      vertex 95.7944 15.7798 102.7
    endloop
  endfacet
  facet normal 0 0 -1
    outer loop
      vertex 97.1597 17.9992 102.7
      vertex 96.1079 18.7634 102.7
      vertex 96.5276 19.2294 102.7
    endloop
  endfacet
  facet normal -0 0 -1
    outer loop
      vertex 96.9182 16.4747 102.7
      vertex 95.6006 16.3763 102.7
      vertex 96.835 17 102.7
    endloop
  endfacet
  facet normal 0 0 -1
    outer loop
      vertex 97.1597 17.9992 102.7
      vertex 95.7944 18.2202 102.7
      vertex 96.1079 18.7634 102.7
    endloop
  endfacet
  facet normal 0 0 -1
    outer loop
      vertex 95.535 17 102.7
      vertex 96.835 17 102.7
      vertex 95.6006 16.3763 102.7
    endloop
  endfacet
  facet normal 0 0 -1
    outer loop
      vertex 96.9182 17.5253 102.7
      vertex 95.6006 17.6237 102.7
      vertex 95.7944 18.2202 102.7
    endloop
  endfacet
  facet normal 0 0 -1
    outer loop
      vertex 96.835 17 102.7
      vertex 95.535 17 102.7
      vertex 95.6006 17.6237 102.7
    endloop
  endfacet
  facet normal 0.743056 -0.669229 0
    outer loop
      vertex 96.1079 18.7634 102.7
      vertex 96.5276 19.2294 102.5
      vertex 96.5276 19.2294 102.7
    endloop
  endfacet
  facet normal 0.743056 -0.669229 0
    outer loop
      vertex 96.5276 19.2294 102.5
      vertex 96.1079 18.7634 102.7
      vertex 96.1079 18.7634 102.5
    endloop
  endfacet
  facet normal 0.58784 -0.808977 0
    outer loop
      vertex 96.5276 19.2294 102.5
      vertex 97.035 19.5981 102.7
      vertex 96.5276 19.2294 102.7
    endloop
  endfacet
  facet normal 0.58784 -0.808977 0
    outer loop
      vertex 97.035 19.5981 102.7
      vertex 96.5276 19.2294 102.5
      vertex 97.035 19.5981 102.5
    endloop
  endfacet
  facet normal 0 1 -0
    outer loop
      vertex 123.235 27.8 102.5
      vertex 93.5 27.8 104.26
      vertex 123.235 27.8 104.26
    endloop
  endfacet
  facet normal 0 1 0
    outer loop
      vertex 93.5 27.8 104.26
      vertex 123.235 27.8 102.5
      vertex 93.5 27.8 102.5
    endloop
  endfacet
  facet normal 0 0 1
    outer loop
      vertex 109.753 21.86 104.26
      vertex 100.152 17.5253 104.26
      vertex 100.235 17 104.26
    endloop
  endfacet
  facet normal 0 0 1
    outer loop
      vertex 109.753 21.86 104.26
      vertex 99.9103 17.9992 104.26
      vertex 100.152 17.5253 104.26
    endloop
  endfacet
  facet normal 0 0 1
    outer loop
      vertex 109.753 21.86 104.26
      vertex 99.5342 18.3753 104.26
      vertex 99.9103 17.9992 104.26
    endloop
  endfacet
  facet normal -0 0 1
    outer loop
      vertex 96.615 21.86 104.26
      vertex 99.5342 18.3753 104.26
      vertex 109.753 21.86 104.26
    endloop
  endfacet
  facet normal 0 0 1
    outer loop
      vertex 99.5342 18.3753 104.26
      vertex 96.615 21.86 104.26
      vertex 99.0603 18.6168 104.26
    endloop
  endfacet
  facet normal 0 0 1
    outer loop
      vertex 99.0603 18.6168 104.26
      vertex 96.615 21.86 104.26
      vertex 98.535 18.7 104.26
    endloop
  endfacet
  facet normal 0 0 1
    outer loop
      vertex 96.9182 17.5253 104.26
      vertex 96.615 21.86 104.26
      vertex 96.835 17 104.26
    endloop
  endfacet
  facet normal 0 0 1
    outer loop
      vertex 97.1597 17.9992 104.26
      vertex 96.615 21.86 104.26
      vertex 96.9182 17.5253 104.26
    endloop
  endfacet
  facet normal 0 0 1
    outer loop
      vertex 97.5358 18.3753 104.26
      vertex 96.615 21.86 104.26
      vertex 97.1597 17.9992 104.26
    endloop
  endfacet
  facet normal 0 0 1
    outer loop
      vertex 98.0097 18.6168 104.26
      vertex 96.615 21.86 104.26
      vertex 97.5358 18.3753 104.26
    endloop
  endfacet
  facet normal 0 0 1
    outer loop
      vertex 98.535 18.7 104.26
      vertex 96.615 21.86 104.26
      vertex 98.0097 18.6168 104.26
    endloop
  endfacet
  facet normal 0 0 1
    outer loop
      vertex 123.235 27.8 104.26
      vertex 121.235 17 104.26
      vertex 123.235 10 104.26
    endloop
  endfacet
  facet normal 0 0 1
    outer loop
      vertex 123.235 27.8 104.26
      vertex 121.152 17.5253 104.26
      vertex 121.235 17 104.26
    endloop
  endfacet
  facet normal 0 0 1
    outer loop
      vertex 123.235 27.8 104.26
      vertex 120.91 17.9992 104.26
      vertex 121.152 17.5253 104.26
    endloop
  endfacet
  facet normal 0 0 1
    outer loop
      vertex 123.235 27.8 104.26
      vertex 120.534 18.3753 104.26
      vertex 120.91 17.9992 104.26
    endloop
  endfacet
  facet normal 0 0 1
    outer loop
      vertex 123.235 27.8 104.26
      vertex 120.06 18.6168 104.26
      vertex 120.534 18.3753 104.26
    endloop
  endfacet
  facet normal 0 0 1
    outer loop
      vertex 123.235 27.8 104.26
      vertex 119.535 18.7 104.26
      vertex 120.06 18.6168 104.26
    endloop
  endfacet
  facet normal -0 0 1
    outer loop
      vertex 115.735 21.86 104.26
      vertex 119.535 18.7 104.26
      vertex 123.235 27.8 104.26
    endloop
  endfacet
  facet normal 0 0 1
    outer loop
      vertex 119.535 18.7 104.26
      vertex 115.735 21.86 104.26
      vertex 119.01 18.6168 104.26
    endloop
  endfacet
  facet normal 0 0 1
    outer loop
      vertex 119.01 18.6168 104.26
      vertex 115.735 21.86 104.26
      vertex 118.536 18.3753 104.26
    endloop
  endfacet
  facet normal 0 0 1
    outer loop
      vertex 118.16 17.9992 104.26
      vertex 115.735 21.86 104.26
      vertex 117.918 17.5253 104.26
    endloop
  endfacet
  facet normal 0 0 1
    outer loop
      vertex 118.536 18.3753 104.26
      vertex 115.735 21.86 104.26
      vertex 118.16 17.9992 104.26
    endloop
  endfacet
  facet normal 0 0 1
    outer loop
      vertex 115.735 21.86 104.26
      vertex 123.235 27.8 104.26
      vertex 115.735 26.52 104.26
    endloop
  endfacet
  facet normal 0 0 1
    outer loop
      vertex 123.235 27.8 104.26
      vertex 109.753 26.52 104.26
      vertex 115.735 26.52 104.26
    endloop
  endfacet
  facet normal -0 0 1
    outer loop
      vertex 93.5 27.8 104.26
      vertex 109.753 26.52 104.26
      vertex 123.235 27.8 104.26
    endloop
  endfacet
  facet normal 0 0 1
    outer loop
      vertex 96.615 26.52 104.26
      vertex 93.5 27.8 104.26
      vertex 96.615 21.86 104.26
    endloop
  endfacet
  facet normal 0 0 1
    outer loop
      vertex 109.753 26.52 104.26
      vertex 93.5 27.8 104.26
      vertex 96.615 26.52 104.26
    endloop
  endfacet
  facet normal -0 0 1
    outer loop
      vertex 121.152 16.4747 104.26
      vertex 123.235 10 104.26
      vertex 121.235 17 104.26
    endloop
  endfacet
  facet normal -0 0 1
    outer loop
      vertex 120.91 16.0008 104.26
      vertex 123.235 10 104.26
      vertex 121.152 16.4747 104.26
    endloop
  endfacet
  facet normal -0 0 1
    outer loop
      vertex 120.534 15.6247 104.26
      vertex 123.235 10 104.26
      vertex 120.91 16.0008 104.26
    endloop
  endfacet
  facet normal -0 0 1
    outer loop
      vertex 120.06 15.3832 104.26
      vertex 123.235 10 104.26
      vertex 120.534 15.6247 104.26
    endloop
  endfacet
  facet normal -0 0 1
    outer loop
      vertex 119.535 15.3 104.26
      vertex 123.235 10 104.26
      vertex 120.06 15.3832 104.26
    endloop
  endfacet
  facet normal 0 0 1
    outer loop
      vertex 119.01 15.3832 104.26
      vertex 123.235 10 104.26
      vertex 119.535 15.3 104.26
    endloop
  endfacet
  facet normal 0 0 1
    outer loop
      vertex 118.536 15.6247 104.26
      vertex 123.235 10 104.26
      vertex 119.01 15.3832 104.26
    endloop
  endfacet
  facet normal 0 0 1
    outer loop
      vertex 99.5342 15.6247 104.26
      vertex 118.536 15.6247 104.26
      vertex 118.16 16.0008 104.26
    endloop
  endfacet
  facet normal 0 0 1
    outer loop
      vertex 117.918 17.5253 104.26
      vertex 115.735 21.86 104.26
      vertex 117.835 17 104.26
    endloop
  endfacet
  facet normal -0 0 1
    outer loop
      vertex 109.753 21.86 104.26
      vertex 117.835 17 104.26
      vertex 115.735 21.86 104.26
    endloop
  endfacet
  facet normal 0 0 1
    outer loop
      vertex 117.835 17 104.26
      vertex 109.753 21.86 104.26
      vertex 117.918 16.4747 104.26
    endloop
  endfacet
  facet normal 0 0 1
    outer loop
      vertex 100.152 16.4747 104.26
      vertex 117.918 16.4747 104.26
      vertex 109.753 21.86 104.26
    endloop
  endfacet
  facet normal 0 0 1
    outer loop
      vertex 117.918 16.4747 104.26
      vertex 100.152 16.4747 104.26
      vertex 118.16 16.0008 104.26
    endloop
  endfacet
  facet normal 0 0 1
    outer loop
      vertex 100.152 16.4747 104.26
      vertex 109.753 21.86 104.26
      vertex 100.235 17 104.26
    endloop
  endfacet
  facet normal 0 0 1
    outer loop
      vertex 118.16 16.0008 104.26
      vertex 100.152 16.4747 104.26
      vertex 99.9103 16.0008 104.26
    endloop
  endfacet
  facet normal 0 0 1
    outer loop
      vertex 99.5342 15.6247 104.26
      vertex 118.16 16.0008 104.26
      vertex 99.9103 16.0008 104.26
    endloop
  endfacet
  facet normal 0 0 1
    outer loop
      vertex 118.536 15.6247 104.26
      vertex 99.5342 15.6247 104.26
      vertex 123.235 10 104.26
    endloop
  endfacet
  facet normal 0 0 1
    outer loop
      vertex 93.5 10 104.26
      vertex 99.5342 15.6247 104.26
      vertex 99.0603 15.3832 104.26
    endloop
  endfacet
  facet normal 0 0 1
    outer loop
      vertex 93.5 10 104.26
      vertex 99.0603 15.3832 104.26
      vertex 98.535 15.3 104.26
    endloop
  endfacet
  facet normal 0 0 1
    outer loop
      vertex 93.5 10 104.26
      vertex 98.535 15.3 104.26
      vertex 98.0097 15.3832 104.26
    endloop
  endfacet
  facet normal 0 0 1
    outer loop
      vertex 93.5 27.8 104.26
      vertex 96.835 17 104.26
      vertex 96.615 21.86 104.26
    endloop
  endfacet
  facet normal 0 0 1
    outer loop
      vertex 93.5 10 104.26
      vertex 96.835 17 104.26
      vertex 93.5 27.8 104.26
    endloop
  endfacet
  facet normal 0 0 1
    outer loop
      vertex 99.5342 15.6247 104.26
      vertex 93.5 10 104.26
      vertex 123.235 10 104.26
    endloop
  endfacet
  facet normal 0 0 1
    outer loop
      vertex 97.5358 15.6247 104.26
      vertex 93.5 10 104.26
      vertex 98.0097 15.3832 104.26
    endloop
  endfacet
  facet normal 0 0 1
    outer loop
      vertex 97.1597 16.0008 104.26
      vertex 93.5 10 104.26
      vertex 97.5358 15.6247 104.26
    endloop
  endfacet
  facet normal 0 0 1
    outer loop
      vertex 96.9182 16.4747 104.26
      vertex 93.5 10 104.26
      vertex 97.1597 16.0008 104.26
    endloop
  endfacet
  facet normal 0 0 1
    outer loop
      vertex 96.835 17 104.26
      vertex 93.5 10 104.26
      vertex 96.9182 16.4747 104.26
    endloop
  endfacet
  facet normal -1 0 0
    outer loop
      vertex 93.5 10 102.5
      vertex 93.5 27.8 104.26
      vertex 93.5 27.8 102.5
    endloop
  endfacet
  facet normal -1 -0 0
    outer loop
      vertex 93.5 27.8 104.26
      vertex 93.5 10 102.5
      vertex 93.5 10 104.26
    endloop
  endfacet
endsolid OpenSCAD_Model
