solid OpenSCAD_Model
  facet normal 0 -1 0
    outer loop
      vertex 93.9 87.5 -43.6
      vertex 102.49 87.5 -38.24
      vertex 93.9 87.5 -38.24
    endloop
  endfacet
  facet normal 0 -1 -0
    outer loop
      vertex 102.49 87.5 -38.24
      vertex 93.9 87.5 -43.6
      vertex 102.49 87.5 -43.6
    endloop
  endfacet
  facet normal -1.26343e-14 -0.707107 -0.707107
    outer loop
      vertex 93.9 87.9 -44
      vertex 93.9 87.5 -43.6
      vertex 93.7 87.7 -43.8
    endloop
  endfacet
  facet normal 0 -0.707107 -0.707107
    outer loop
      vertex 93.9 87.5 -43.6
      vertex 93.9 87.9 -44
      vertex 102.49 87.5 -43.6
    endloop
  endfacet
  facet normal 0 -0.707107 -0.707107
    outer loop
      vertex 102.49 87.5 -43.6
      vertex 93.9 87.9 -44
      vertex 102.49 87.9 -44
    endloop
  endfacet
  facet normal -1 0 0
    outer loop
      vertex 93.5 107.51 -43.6
      vertex 93.5 95.74 -42.24
      vertex 93.5 107.51 -42.24
    endloop
  endfacet
  facet normal -1 0 0
    outer loop
      vertex 93.5 87.9 -43.6
      vertex 93.5 95.74 -42.24
      vertex 93.5 107.51 -43.6
    endloop
  endfacet
  facet normal -1 0 0
    outer loop
      vertex 93.5 87.9 -38.24
      vertex 93.5 95.74 -42.24
      vertex 93.5 87.9 -43.6
    endloop
  endfacet
  facet normal -1 0 0
    outer loop
      vertex 93.5 95.74 -42.24
      vertex 93.5 87.9 -38.24
      vertex 93.5 95.74 -38.24
    endloop
  endfacet
  facet normal 0 0 -1
    outer loop
      vertex 99.7202 94.2406 -44
      vertex 100.259 96.265 -44
      vertex 100.263 93.927 -44
    endloop
  endfacet
  facet normal 0 0 -1
    outer loop
      vertex 99.1237 94.4344 -44
      vertex 100.259 96.265 -44
      vertex 99.7202 94.2406 -44
    endloop
  endfacet
  facet normal 0 0 -1
    outer loop
      vertex 98.5 94.5 -44
      vertex 100.259 96.265 -44
      vertex 99.1237 94.4344 -44
    endloop
  endfacet
  facet normal 0 0 -1
    outer loop
      vertex 97.1209 96.265 -44
      vertex 98.5 94.5 -44
      vertex 97.8763 94.4344 -44
    endloop
  endfacet
  facet normal 0 0 -1
    outer loop
      vertex 97.1209 96.265 -44
      vertex 97.8763 94.4344 -44
      vertex 97.2798 94.2406 -44
    endloop
  endfacet
  facet normal 0 0 -1
    outer loop
      vertex 98.5 94.5 -44
      vertex 97.1209 96.265 -44
      vertex 100.259 96.265 -44
    endloop
  endfacet
  facet normal 0 0 -1
    outer loop
      vertex 96.2706 93.5074 -44
      vertex 97.1209 96.265 -44
      vertex 96.7366 93.927 -44
    endloop
  endfacet
  facet normal 0 0 -1
    outer loop
      vertex 96.7366 93.927 -44
      vertex 97.1209 96.265 -44
      vertex 97.2798 94.2406 -44
    endloop
  endfacet
  facet normal 0 0 -1
    outer loop
      vertex 101.484 91.8136 -44
      vertex 102.49 87.9 -44
      vertex 101.484 91.1864 -44
    endloop
  endfacet
  facet normal 0 0 -1
    outer loop
      vertex 102.49 87.9 -44
      vertex 101.353 90.573 -44
      vertex 101.484 91.1864 -44
    endloop
  endfacet
  facet normal 0 0 -1
    outer loop
      vertex 102.49 87.9 -44
      vertex 101.098 90 -44
      vertex 101.353 90.573 -44
    endloop
  endfacet
  facet normal 0 0 -1
    outer loop
      vertex 102.49 87.9 -44
      vertex 100.729 89.4926 -44
      vertex 101.098 90 -44
    endloop
  endfacet
  facet normal 0 0 -1
    outer loop
      vertex 102.49 87.9 -44
      vertex 100.263 89.073 -44
      vertex 100.729 89.4926 -44
    endloop
  endfacet
  facet normal 0 0 -1
    outer loop
      vertex 102.49 87.9 -44
      vertex 99.7202 88.7594 -44
      vertex 100.263 89.073 -44
    endloop
  endfacet
  facet normal 0 0 -1
    outer loop
      vertex 102.49 87.9 -44
      vertex 99.1237 88.5656 -44
      vertex 99.7202 88.7594 -44
    endloop
  endfacet
  facet normal 0 0 -1
    outer loop
      vertex 102.49 87.9 -44
      vertex 98.5 88.5 -44
      vertex 99.1237 88.5656 -44
    endloop
  endfacet
  facet normal 0 0 -1
    outer loop
      vertex 93.9 87.9 -44
      vertex 98.5 88.5 -44
      vertex 102.49 87.9 -44
    endloop
  endfacet
  facet normal -0 0 -1
    outer loop
      vertex 95.5164 91.1864 -44
      vertex 93.9 87.9 -44
      vertex 95.5164 91.8136 -44
    endloop
  endfacet
  facet normal -0 0 -1
    outer loop
      vertex 95.6468 90.573 -44
      vertex 93.9 87.9 -44
      vertex 95.5164 91.1864 -44
    endloop
  endfacet
  facet normal -0 0 -1
    outer loop
      vertex 95.9019 90 -44
      vertex 93.9 87.9 -44
      vertex 95.6468 90.573 -44
    endloop
  endfacet
  facet normal -0 0 -1
    outer loop
      vertex 96.2706 89.4926 -44
      vertex 93.9 87.9 -44
      vertex 95.9019 90 -44
    endloop
  endfacet
  facet normal -0 0 -1
    outer loop
      vertex 96.7366 89.073 -44
      vertex 93.9 87.9 -44
      vertex 96.2706 89.4926 -44
    endloop
  endfacet
  facet normal -0 0 -1
    outer loop
      vertex 97.2798 88.7594 -44
      vertex 93.9 87.9 -44
      vertex 96.7366 89.073 -44
    endloop
  endfacet
  facet normal -0 0 -1
    outer loop
      vertex 97.8763 88.5656 -44
      vertex 93.9 87.9 -44
      vertex 97.2798 88.7594 -44
    endloop
  endfacet
  facet normal -0 0 -1
    outer loop
      vertex 98.5 88.5 -44
      vertex 93.9 87.9 -44
      vertex 97.8763 88.5656 -44
    endloop
  endfacet
  facet normal 0 0 -1
    outer loop
      vertex 102.49 87.9 -44
      vertex 101.484 91.8136 -44
      vertex 102.49 107.51 -44
    endloop
  endfacet
  facet normal 0 0 -1
    outer loop
      vertex 101.353 92.427 -44
      vertex 102.49 107.51 -44
      vertex 101.484 91.8136 -44
    endloop
  endfacet
  facet normal 0 0 -1
    outer loop
      vertex 100.259 96.265 -44
      vertex 101.353 92.427 -44
      vertex 101.098 93 -44
    endloop
  endfacet
  facet normal 0 0 -1
    outer loop
      vertex 100.259 96.265 -44
      vertex 101.098 93 -44
      vertex 100.729 93.5074 -44
    endloop
  endfacet
  facet normal 0 0 -1
    outer loop
      vertex 100.259 96.265 -44
      vertex 100.729 93.5074 -44
      vertex 100.263 93.927 -44
    endloop
  endfacet
  facet normal 0 0 -1
    outer loop
      vertex 101.353 92.427 -44
      vertex 100.259 96.265 -44
      vertex 100.259 99.385 -44
    endloop
  endfacet
  facet normal 0 0 -1
    outer loop
      vertex 101.353 92.427 -44
      vertex 100.259 99.385 -44
      vertex 102.49 107.51 -44
    endloop
  endfacet
  facet normal 0 0 -1
    outer loop
      vertex 97.1209 99.385 -44
      vertex 102.49 107.51 -44
      vertex 100.259 99.385 -44
    endloop
  endfacet
  facet normal 0 0 -1
    outer loop
      vertex 95.9019 93 -44
      vertex 97.1209 96.265 -44
      vertex 96.2706 93.5074 -44
    endloop
  endfacet
  facet normal -0 0 -1
    outer loop
      vertex 97.1209 96.265 -44
      vertex 95.9019 93 -44
      vertex 97.1209 99.385 -44
    endloop
  endfacet
  facet normal 0 0 -1
    outer loop
      vertex 93.9 107.51 -44
      vertex 95.9019 93 -44
      vertex 95.6468 92.427 -44
    endloop
  endfacet
  facet normal 0 0 -1
    outer loop
      vertex 93.9 87.9 -44
      vertex 95.6468 92.427 -44
      vertex 95.5164 91.8136 -44
    endloop
  endfacet
  facet normal -0 0 -1
    outer loop
      vertex 95.6468 92.427 -44
      vertex 93.9 87.9 -44
      vertex 93.9 107.51 -44
    endloop
  endfacet
  facet normal 0 0 -1
    outer loop
      vertex 97.1209 99.385 -44
      vertex 93.9 107.51 -44
      vertex 102.49 107.51 -44
    endloop
  endfacet
  facet normal 0 0 -1
    outer loop
      vertex 95.9019 93 -44
      vertex 93.9 107.51 -44
      vertex 97.1209 99.385 -44
    endloop
  endfacet
  facet normal -0.707107 0 -0.707107
    outer loop
      vertex 93.9 87.9 -44
      vertex 93.5 107.51 -43.6
      vertex 93.9 107.51 -44
    endloop
  endfacet
  facet normal -0.707107 0 -0.707107
    outer loop
      vertex 93.9 87.9 -44
      vertex 93.5 87.9 -43.6
      vertex 93.5 107.51 -43.6
    endloop
  endfacet
  facet normal -0.707107 -1.25117e-14 -0.707107
    outer loop
      vertex 93.5 87.9 -43.6
      vertex 93.9 87.9 -44
      vertex 93.7 87.7 -43.8
    endloop
  endfacet
  facet normal -0.707107 -0.707107 0
    outer loop
      vertex 93.5 87.9 -43.6
      vertex 93.9 87.5 -38.24
      vertex 93.5 87.9 -38.24
    endloop
  endfacet
  facet normal -0.707107 -0.707107 0
    outer loop
      vertex 93.5 87.9 -43.6
      vertex 93.9 87.5 -43.6
      vertex 93.9 87.5 -38.24
    endloop
  endfacet
  facet normal -0.707107 -0.707107 0
    outer loop
      vertex 93.9 87.5 -43.6
      vertex 93.5 87.9 -43.6
      vertex 93.7 87.7 -43.8
    endloop
  endfacet
  facet normal 0 -1 0
    outer loop
      vertex 97.1209 99.385 -44
      vertex 100.909 99.385 -43.2782
      vertex 96.471 99.385 -43.2782
    endloop
  endfacet
  facet normal 0 -1 0
    outer loop
      vertex 100.909 99.385 -43.2782
      vertex 97.1209 99.385 -44
      vertex 100.259 99.385 -44
    endloop
  endfacet
  facet normal 0 1 0
    outer loop
      vertex 100.259 96.265 -44
      vertex 101.02 96.265 -42.24
      vertex 101.02 96.265 -43.155
    endloop
  endfacet
  facet normal 0 1 0
    outer loop
      vertex 101.02 96.265 -42.24
      vertex 100.259 96.265 -44
      vertex 96.36 96.265 -42.24
    endloop
  endfacet
  facet normal 0 1 -0
    outer loop
      vertex 97.1209 96.265 -44
      vertex 96.36 96.265 -42.24
      vertex 100.259 96.265 -44
    endloop
  endfacet
  facet normal 0 1 0
    outer loop
      vertex 96.36 96.265 -42.24
      vertex 97.1209 96.265 -44
      vertex 96.36 96.265 -43.155
    endloop
  endfacet
  facet normal -0.7431 0 0.669181
    outer loop
      vertex 100.259 99.385 -44
      vertex 100.909 99.375 -43.2782
      vertex 100.909 99.385 -43.2782
    endloop
  endfacet
  facet normal -0.7431 0 0.669181
    outer loop
      vertex 100.259 96.265 -44
      vertex 100.909 99.375 -43.2782
      vertex 100.259 99.385 -44
    endloop
  endfacet
  facet normal -0.743075 -1.12538e-05 0.669208
    outer loop
      vertex 101.02 96.265 -43.155
      vertex 100.909 99.375 -43.2782
      vertex 100.259 96.265 -44
    endloop
  endfacet
  facet normal -0.742934 0 0.669364
    outer loop
      vertex 100.909 99.375 -43.2782
      vertex 101.02 96.265 -43.155
      vertex 101.02 99.375 -43.155
    endloop
  endfacet
  facet normal -1 0 0
    outer loop
      vertex 101.02 99.375 -43.155
      vertex 101.02 103.52 -43.2782
      vertex 101.02 99.375 -43.2782
    endloop
  endfacet
  facet normal -1 0 0
    outer loop
      vertex 101.02 103.52 -43.2782
      vertex 101.02 99.375 -43.155
      vertex 101.02 103.52 -42.24
    endloop
  endfacet
  facet normal -1 0 0
    outer loop
      vertex 101.02 96.265 -42.24
      vertex 101.02 99.375 -43.155
      vertex 101.02 96.265 -43.155
    endloop
  endfacet
  facet normal -1 0 0
    outer loop
      vertex 101.02 99.375 -43.155
      vertex 101.02 96.265 -42.24
      vertex 101.02 103.52 -42.24
    endloop
  endfacet
  facet normal 1 0 0
    outer loop
      vertex 96.36 103.52 -42.24
      vertex 96.36 99.375 -43.155
      vertex 96.36 103.52 -43.2782
    endloop
  endfacet
  facet normal 1 -0 0
    outer loop
      vertex 96.36 96.265 -42.24
      vertex 96.36 99.375 -43.155
      vertex 96.36 103.52 -42.24
    endloop
  endfacet
  facet normal 1 0 0
    outer loop
      vertex 96.36 99.375 -43.155
      vertex 96.36 96.265 -42.24
      vertex 96.36 96.265 -43.155
    endloop
  endfacet
  facet normal 1 0 0
    outer loop
      vertex 96.36 103.52 -43.2782
      vertex 96.36 99.375 -43.155
      vertex 96.36 99.375 -43.2782
    endloop
  endfacet
  facet normal 0.742934 0 0.669364
    outer loop
      vertex 96.36 99.375 -43.155
      vertex 96.36 96.265 -43.155
      vertex 96.471 99.375 -43.2782
    endloop
  endfacet
  facet normal 0.743151 -0 0.669124
    outer loop
      vertex 96.471 99.375 -43.2782
      vertex 97.1209 99.385 -44
      vertex 96.471 99.385 -43.2782
    endloop
  endfacet
  facet normal 0.743119 -1.47382e-05 0.669159
    outer loop
      vertex 97.1209 96.265 -44
      vertex 96.471 99.375 -43.2782
      vertex 96.36 96.265 -43.155
    endloop
  endfacet
  facet normal 0.743151 0 0.669124
    outer loop
      vertex 96.471 99.375 -43.2782
      vertex 97.1209 96.265 -44
      vertex 97.1209 99.385 -44
    endloop
  endfacet
  facet normal 0 -1 0
    outer loop
      vertex 96.36 103.52 -43.2782
      vertex 101.02 103.52 -42.24
      vertex 96.36 103.52 -42.24
    endloop
  endfacet
  facet normal 0 -1 -0
    outer loop
      vertex 101.02 103.52 -42.24
      vertex 96.36 103.52 -43.2782
      vertex 101.02 103.52 -43.2782
    endloop
  endfacet
  facet normal 0 0 1
    outer loop
      vertex 101.02 103.52 -43.2782
      vertex 100.909 99.385 -43.2782
      vertex 101.02 99.375 -43.2782
    endloop
  endfacet
  facet normal 0 0 1
    outer loop
      vertex 101.02 103.52 -43.2782
      vertex 96.471 99.385 -43.2782
      vertex 100.909 99.385 -43.2782
    endloop
  endfacet
  facet normal -0 0 1
    outer loop
      vertex 96.36 103.52 -43.2782
      vertex 96.471 99.385 -43.2782
      vertex 101.02 103.52 -43.2782
    endloop
  endfacet
  facet normal 0 0 1
    outer loop
      vertex 96.36 99.375 -43.2782
      vertex 96.471 99.385 -43.2782
      vertex 96.36 103.52 -43.2782
    endloop
  endfacet
  facet normal 0 0 1
    outer loop
      vertex 96.471 99.385 -43.2782
      vertex 96.36 99.375 -43.2782
      vertex 96.471 99.375 -43.2782
    endloop
  endfacet
  facet normal 0 0 1
    outer loop
      vertex 101.02 99.375 -43.2782
      vertex 100.909 99.385 -43.2782
      vertex 100.909 99.375 -43.2782
    endloop
  endfacet
  facet normal 0 1 0
    outer loop
      vertex 96.36 99.375 -43.155
      vertex 96.471 99.375 -43.2782
      vertex 96.36 99.375 -43.2782
    endloop
  endfacet
  facet normal 0 1 0
    outer loop
      vertex 101.02 99.375 -43.155
      vertex 101.02 99.375 -43.2782
      vertex 100.909 99.375 -43.2782
    endloop
  endfacet
  facet normal 0.454044 -0.890979 0
    outer loop
      vertex 97.5008 92.8753 -39.6
      vertex 97.9747 93.1168 -38.24
      vertex 97.5008 92.8753 -38.24
    endloop
  endfacet
  facet normal 0.454044 -0.890979 0
    outer loop
      vertex 97.9747 93.1168 -38.24
      vertex 97.5008 92.8753 -39.6
      vertex 97.9747 93.1168 -39.6
    endloop
  endfacet
  facet normal 0.156436 -0.987688 0
    outer loop
      vertex 97.9747 93.1168 -39.6
      vertex 98.5 93.2 -38.24
      vertex 97.9747 93.1168 -38.24
    endloop
  endfacet
  facet normal 0.156436 -0.987688 0
    outer loop
      vertex 98.5 93.2 -38.24
      vertex 97.9747 93.1168 -39.6
      vertex 98.5 93.2 -39.6
    endloop
  endfacet
  facet normal 0.707107 -0.707107 0
    outer loop
      vertex 97.1247 92.4992 -38.24
      vertex 97.5008 92.8753 -39.6
      vertex 97.5008 92.8753 -38.24
    endloop
  endfacet
  facet normal 0.707107 -0.707107 0
    outer loop
      vertex 97.5008 92.8753 -39.6
      vertex 97.1247 92.4992 -38.24
      vertex 97.1247 92.4992 -39.6
    endloop
  endfacet
  facet normal -0.987746 -0.156069 0
    outer loop
      vertex 100.2 91.5 -39.6
      vertex 100.117 92.0253 -38.24
      vertex 100.117 92.0253 -39.6
    endloop
  endfacet
  facet normal -0.987746 -0.156069 0
    outer loop
      vertex 100.117 92.0253 -38.24
      vertex 100.2 91.5 -39.6
      vertex 100.2 91.5 -38.24
    endloop
  endfacet
  facet normal 0.890979 0.454044 0
    outer loop
      vertex 97.1247 90.5008 -38.24
      vertex 96.8832 90.9747 -39.6
      vertex 96.8832 90.9747 -38.24
    endloop
  endfacet
  facet normal 0.890979 0.454044 0
    outer loop
      vertex 96.8832 90.9747 -39.6
      vertex 97.1247 90.5008 -38.24
      vertex 97.1247 90.5008 -39.6
    endloop
  endfacet
  facet normal -0.890827 -0.454342 0
    outer loop
      vertex 100.117 92.0253 -39.6
      vertex 99.8753 92.4992 -38.24
      vertex 99.8753 92.4992 -39.6
    endloop
  endfacet
  facet normal -0.890827 -0.454342 0
    outer loop
      vertex 99.8753 92.4992 -38.24
      vertex 100.117 92.0253 -39.6
      vertex 100.117 92.0253 -38.24
    endloop
  endfacet
  facet normal -0.707107 -0.707107 0
    outer loop
      vertex 99.8753 92.4992 -39.6
      vertex 99.4992 92.8753 -38.24
      vertex 99.4992 92.8753 -39.6
    endloop
  endfacet
  facet normal -0.707107 -0.707107 0
    outer loop
      vertex 99.4992 92.8753 -38.24
      vertex 99.8753 92.4992 -39.6
      vertex 99.8753 92.4992 -38.24
    endloop
  endfacet
  facet normal -0.987746 0.156069 0
    outer loop
      vertex 100.117 90.9747 -39.6
      vertex 100.2 91.5 -38.24
      vertex 100.2 91.5 -39.6
    endloop
  endfacet
  facet normal -0.987746 0.156069 0
    outer loop
      vertex 100.2 91.5 -38.24
      vertex 100.117 90.9747 -39.6
      vertex 100.117 90.9747 -38.24
    endloop
  endfacet
  facet normal 0.454044 0.890979 -0
    outer loop
      vertex 97.9747 89.8832 -39.6
      vertex 97.5008 90.1247 -38.24
      vertex 97.9747 89.8832 -38.24
    endloop
  endfacet
  facet normal 0.454044 0.890979 0
    outer loop
      vertex 97.5008 90.1247 -38.24
      vertex 97.9747 89.8832 -39.6
      vertex 97.5008 90.1247 -39.6
    endloop
  endfacet
  facet normal -0.156436 -0.987688 0
    outer loop
      vertex 98.5 93.2 -39.6
      vertex 99.0253 93.1168 -38.24
      vertex 98.5 93.2 -38.24
    endloop
  endfacet
  facet normal -0.156436 -0.987688 -0
    outer loop
      vertex 99.0253 93.1168 -38.24
      vertex 98.5 93.2 -39.6
      vertex 99.0253 93.1168 -39.6
    endloop
  endfacet
  facet normal 0.156436 0.987688 -0
    outer loop
      vertex 98.5 89.8 -39.6
      vertex 97.9747 89.8832 -38.24
      vertex 98.5 89.8 -38.24
    endloop
  endfacet
  facet normal 0.156436 0.987688 0
    outer loop
      vertex 97.9747 89.8832 -38.24
      vertex 98.5 89.8 -39.6
      vertex 97.9747 89.8832 -39.6
    endloop
  endfacet
  facet normal -0.454044 -0.890979 0
    outer loop
      vertex 99.0253 93.1168 -39.6
      vertex 99.4992 92.8753 -38.24
      vertex 99.0253 93.1168 -38.24
    endloop
  endfacet
  facet normal -0.454044 -0.890979 -0
    outer loop
      vertex 99.4992 92.8753 -38.24
      vertex 99.0253 93.1168 -39.6
      vertex 99.4992 92.8753 -39.6
    endloop
  endfacet
  facet normal 0.987688 -0.156436 0
    outer loop
      vertex 96.8 91.5 -38.24
      vertex 96.8832 92.0253 -39.6
      vertex 96.8832 92.0253 -38.24
    endloop
  endfacet
  facet normal 0.987688 -0.156436 0
    outer loop
      vertex 96.8832 92.0253 -39.6
      vertex 96.8 91.5 -38.24
      vertex 96.8 91.5 -39.6
    endloop
  endfacet
  facet normal 0.890979 -0.454044 0
    outer loop
      vertex 96.8832 92.0253 -38.24
      vertex 97.1247 92.4992 -39.6
      vertex 97.1247 92.4992 -38.24
    endloop
  endfacet
  facet normal 0.890979 -0.454044 0
    outer loop
      vertex 97.1247 92.4992 -39.6
      vertex 96.8832 92.0253 -38.24
      vertex 96.8832 92.0253 -39.6
    endloop
  endfacet
  facet normal -0.454044 0.890979 0
    outer loop
      vertex 99.4992 90.1247 -39.6
      vertex 99.0253 89.8832 -38.24
      vertex 99.4992 90.1247 -38.24
    endloop
  endfacet
  facet normal -0.454044 0.890979 0
    outer loop
      vertex 99.0253 89.8832 -38.24
      vertex 99.4992 90.1247 -39.6
      vertex 99.0253 89.8832 -39.6
    endloop
  endfacet
  facet normal 0.987688 0.156436 0
    outer loop
      vertex 96.8832 90.9747 -38.24
      vertex 96.8 91.5 -39.6
      vertex 96.8 91.5 -38.24
    endloop
  endfacet
  facet normal 0.987688 0.156436 0
    outer loop
      vertex 96.8 91.5 -39.6
      vertex 96.8832 90.9747 -38.24
      vertex 96.8832 90.9747 -39.6
    endloop
  endfacet
  facet normal -0.707107 0.707107 0
    outer loop
      vertex 99.4992 90.1247 -39.6
      vertex 99.8753 90.5008 -38.24
      vertex 99.8753 90.5008 -39.6
    endloop
  endfacet
  facet normal -0.707107 0.707107 0
    outer loop
      vertex 99.8753 90.5008 -38.24
      vertex 99.4992 90.1247 -39.6
      vertex 99.4992 90.1247 -38.24
    endloop
  endfacet
  facet normal 0.707107 0.707107 0
    outer loop
      vertex 97.5008 90.1247 -38.24
      vertex 97.1247 90.5008 -39.6
      vertex 97.1247 90.5008 -38.24
    endloop
  endfacet
  facet normal 0.707107 0.707107 0
    outer loop
      vertex 97.1247 90.5008 -39.6
      vertex 97.5008 90.1247 -38.24
      vertex 97.5008 90.1247 -39.6
    endloop
  endfacet
  facet normal -0.156436 0.987688 0
    outer loop
      vertex 99.0253 89.8832 -39.6
      vertex 98.5 89.8 -38.24
      vertex 99.0253 89.8832 -38.24
    endloop
  endfacet
  facet normal -0.156436 0.987688 0
    outer loop
      vertex 98.5 89.8 -38.24
      vertex 99.0253 89.8832 -39.6
      vertex 98.5 89.8 -39.6
    endloop
  endfacet
  facet normal -0.890827 0.454342 0
    outer loop
      vertex 99.8753 90.5008 -39.6
      vertex 100.117 90.9747 -38.24
      vertex 100.117 90.9747 -39.6
    endloop
  endfacet
  facet normal -0.890827 0.454342 0
    outer loop
      vertex 100.117 90.9747 -38.24
      vertex 99.8753 90.5008 -39.6
      vertex 99.8753 90.5008 -38.24
    endloop
  endfacet
  facet normal 0.49998 0.866037 -0
    outer loop
      vertex 97.2798 88.7594 -44
      vertex 96.7366 89.073 -40
      vertex 97.2798 88.7594 -40
    endloop
  endfacet
  facet normal 0.49998 0.866037 0
    outer loop
      vertex 96.7366 89.073 -40
      vertex 97.2798 88.7594 -44
      vertex 96.7366 89.073 -44
    endloop
  endfacet
  facet normal 0.669141 -0.743136 0
    outer loop
      vertex 96.2706 93.5074 -44
      vertex 96.7366 93.927 -40
      vertex 96.2706 93.5074 -40
    endloop
  endfacet
  facet normal 0.669141 -0.743136 0
    outer loop
      vertex 96.7366 93.927 -40
      vertex 96.2706 93.5074 -44
      vertex 96.7366 93.927 -44
    endloop
  endfacet
  facet normal -0.913614 -0.406582 0
    outer loop
      vertex 101.353 92.427 -44
      vertex 101.098 93 -40
      vertex 101.098 93 -44
    endloop
  endfacet
  facet normal -0.913614 -0.406582 0
    outer loop
      vertex 101.098 93 -40
      vertex 101.353 92.427 -44
      vertex 101.353 92.427 -40
    endloop
  endfacet
  facet normal 1 -0 0
    outer loop
      vertex 95.5164 91.1864 -40
      vertex 95.5164 91.8136 -44
      vertex 95.5164 91.8136 -40
    endloop
  endfacet
  facet normal 1 0 0
    outer loop
      vertex 95.5164 91.8136 -44
      vertex 95.5164 91.1864 -40
      vertex 95.5164 91.1864 -44
    endloop
  endfacet
  facet normal 0.808977 0.58784 0
    outer loop
      vertex 96.2706 89.4926 -40
      vertex 95.9019 90 -44
      vertex 95.9019 90 -40
    endloop
  endfacet
  facet normal 0.808977 0.58784 0
    outer loop
      vertex 95.9019 90 -44
      vertex 96.2706 89.4926 -40
      vertex 96.2706 89.4926 -44
    endloop
  endfacet
  facet normal 0.669141 0.743136 -0
    outer loop
      vertex 96.7366 89.073 -44
      vertex 96.2706 89.4926 -40
      vertex 96.7366 89.073 -40
    endloop
  endfacet
  facet normal 0.669141 0.743136 0
    outer loop
      vertex 96.2706 89.4926 -40
      vertex 96.7366 89.073 -44
      vertex 96.2706 89.4926 -44
    endloop
  endfacet
  facet normal 0.308996 0.951063 -0
    outer loop
      vertex 97.8763 88.5656 -44
      vertex 97.2798 88.7594 -40
      vertex 97.8763 88.5656 -40
    endloop
  endfacet
  facet normal 0.308996 0.951063 0
    outer loop
      vertex 97.2798 88.7594 -40
      vertex 97.8763 88.5656 -44
      vertex 97.2798 88.7594 -44
    endloop
  endfacet
  facet normal -0.500256 0.865877 0
    outer loop
      vertex 100.263 89.073 -44
      vertex 99.7202 88.7594 -40
      vertex 100.263 89.073 -40
    endloop
  endfacet
  facet normal -0.500256 0.865877 0
    outer loop
      vertex 99.7202 88.7594 -40
      vertex 100.263 89.073 -44
      vertex 99.7202 88.7594 -44
    endloop
  endfacet
  facet normal -0.977947 -0.208854 0
    outer loop
      vertex 101.484 91.8136 -44
      vertex 101.353 92.427 -40
      vertex 101.353 92.427 -44
    endloop
  endfacet
  facet normal -0.977947 -0.208854 0
    outer loop
      vertex 101.353 92.427 -40
      vertex 101.484 91.8136 -44
      vertex 101.484 91.8136 -40
    endloop
  endfacet
  facet normal -0.308996 -0.951063 0
    outer loop
      vertex 99.1237 94.4344 -44
      vertex 99.7202 94.2406 -40
      vertex 99.1237 94.4344 -40
    endloop
  endfacet
  facet normal -0.308996 -0.951063 -0
    outer loop
      vertex 99.7202 94.2406 -40
      vertex 99.1237 94.4344 -44
      vertex 99.7202 94.2406 -44
    endloop
  endfacet
  facet normal -0.308996 0.951063 0
    outer loop
      vertex 99.7202 88.7594 -44
      vertex 99.1237 88.5656 -40
      vertex 99.7202 88.7594 -40
    endloop
  endfacet
  facet normal -0.308996 0.951063 0
    outer loop
      vertex 99.1237 88.5656 -40
      vertex 99.7202 88.7594 -44
      vertex 99.1237 88.5656 -44
    endloop
  endfacet
  facet normal -1 0 0
    outer loop
      vertex 101.484 91.1864 -44
      vertex 101.484 91.8136 -40
      vertex 101.484 91.8136 -44
    endloop
  endfacet
  facet normal -1 -0 0
    outer loop
      vertex 101.484 91.8136 -40
      vertex 101.484 91.1864 -44
      vertex 101.484 91.1864 -40
    endloop
  endfacet
  facet normal 0.913555 0.406715 0
    outer loop
      vertex 95.9019 90 -40
      vertex 95.6468 90.573 -44
      vertex 95.6468 90.573 -40
    endloop
  endfacet
  facet normal 0.913555 0.406715 0
    outer loop
      vertex 95.6468 90.573 -44
      vertex 95.9019 90 -40
      vertex 95.9019 90 -44
    endloop
  endfacet
  facet normal 0.913555 -0.406715 0
    outer loop
      vertex 95.6468 92.427 -40
      vertex 95.9019 93 -44
      vertex 95.9019 93 -40
    endloop
  endfacet
  facet normal 0.913555 -0.406715 0
    outer loop
      vertex 95.9019 93 -44
      vertex 95.6468 92.427 -40
      vertex 95.6468 92.427 -44
    endloop
  endfacet
  facet normal -0.669141 0.743136 0
    outer loop
      vertex 100.729 89.4926 -44
      vertex 100.263 89.073 -40
      vertex 100.729 89.4926 -40
    endloop
  endfacet
  facet normal -0.669141 0.743136 0
    outer loop
      vertex 100.263 89.073 -40
      vertex 100.729 89.4926 -44
      vertex 100.263 89.073 -44
    endloop
  endfacet
  facet normal 0.104602 0.994514 -0
    outer loop
      vertex 98.5 88.5 -44
      vertex 97.8763 88.5656 -40
      vertex 98.5 88.5 -40
    endloop
  endfacet
  facet normal 0.104602 0.994514 0
    outer loop
      vertex 97.8763 88.5656 -40
      vertex 98.5 88.5 -44
      vertex 97.8763 88.5656 -44
    endloop
  endfacet
  facet normal -0.913614 0.406582 0
    outer loop
      vertex 101.098 90 -44
      vertex 101.353 90.573 -40
      vertex 101.353 90.573 -44
    endloop
  endfacet
  facet normal -0.913614 0.406582 0
    outer loop
      vertex 101.353 90.573 -40
      vertex 101.098 90 -44
      vertex 101.098 90 -40
    endloop
  endfacet
  facet normal 0.49998 -0.866037 0
    outer loop
      vertex 96.7366 93.927 -44
      vertex 97.2798 94.2406 -40
      vertex 96.7366 93.927 -40
    endloop
  endfacet
  facet normal 0.49998 -0.866037 0
    outer loop
      vertex 97.2798 94.2406 -40
      vertex 96.7366 93.927 -44
      vertex 97.2798 94.2406 -44
    endloop
  endfacet
  facet normal 0.104602 -0.994514 0
    outer loop
      vertex 97.8763 94.4344 -44
      vertex 98.5 94.5 -40
      vertex 97.8763 94.4344 -40
    endloop
  endfacet
  facet normal 0.104602 -0.994514 0
    outer loop
      vertex 98.5 94.5 -40
      vertex 97.8763 94.4344 -44
      vertex 98.5 94.5 -44
    endloop
  endfacet
  facet normal -0.104602 0.994514 0
    outer loop
      vertex 99.1237 88.5656 -44
      vertex 98.5 88.5 -40
      vertex 99.1237 88.5656 -40
    endloop
  endfacet
  facet normal -0.104602 0.994514 0
    outer loop
      vertex 98.5 88.5 -40
      vertex 99.1237 88.5656 -44
      vertex 98.5 88.5 -44
    endloop
  endfacet
  facet normal -0.500256 -0.865877 0
    outer loop
      vertex 99.7202 94.2406 -44
      vertex 100.263 93.927 -40
      vertex 99.7202 94.2406 -40
    endloop
  endfacet
  facet normal -0.500256 -0.865877 -0
    outer loop
      vertex 100.263 93.927 -40
      vertex 99.7202 94.2406 -44
      vertex 100.263 93.927 -44
    endloop
  endfacet
  facet normal -0.80875 0.588153 0
    outer loop
      vertex 100.729 89.4926 -44
      vertex 101.098 90 -40
      vertex 101.098 90 -44
    endloop
  endfacet
  facet normal -0.80875 0.588153 0
    outer loop
      vertex 101.098 90 -40
      vertex 100.729 89.4926 -44
      vertex 100.729 89.4926 -40
    endloop
  endfacet
  facet normal 0.808977 -0.58784 0
    outer loop
      vertex 95.9019 93 -40
      vertex 96.2706 93.5074 -44
      vertex 96.2706 93.5074 -40
    endloop
  endfacet
  facet normal 0.808977 -0.58784 0
    outer loop
      vertex 96.2706 93.5074 -44
      vertex 95.9019 93 -40
      vertex 95.9019 93 -44
    endloop
  endfacet
  facet normal -0.669141 -0.743136 0
    outer loop
      vertex 100.263 93.927 -44
      vertex 100.729 93.5074 -40
      vertex 100.263 93.927 -40
    endloop
  endfacet
  facet normal -0.669141 -0.743136 -0
    outer loop
      vertex 100.729 93.5074 -40
      vertex 100.263 93.927 -44
      vertex 100.729 93.5074 -44
    endloop
  endfacet
  facet normal -0.104602 -0.994514 0
    outer loop
      vertex 98.5 94.5 -44
      vertex 99.1237 94.4344 -40
      vertex 98.5 94.5 -40
    endloop
  endfacet
  facet normal -0.104602 -0.994514 -0
    outer loop
      vertex 99.1237 94.4344 -40
      vertex 98.5 94.5 -44
      vertex 99.1237 94.4344 -44
    endloop
  endfacet
  facet normal 0.978142 0.207939 0
    outer loop
      vertex 95.6468 90.573 -40
      vertex 95.5164 91.1864 -44
      vertex 95.5164 91.1864 -40
    endloop
  endfacet
  facet normal 0.978142 0.207939 0
    outer loop
      vertex 95.5164 91.1864 -44
      vertex 95.6468 90.573 -40
      vertex 95.6468 90.573 -44
    endloop
  endfacet
  facet normal 0.308996 -0.951063 0
    outer loop
      vertex 97.2798 94.2406 -44
      vertex 97.8763 94.4344 -40
      vertex 97.2798 94.2406 -40
    endloop
  endfacet
  facet normal 0.308996 -0.951063 0
    outer loop
      vertex 97.8763 94.4344 -40
      vertex 97.2798 94.2406 -44
      vertex 97.8763 94.4344 -44
    endloop
  endfacet
  facet normal -0.977947 0.208854 0
    outer loop
      vertex 101.353 90.573 -44
      vertex 101.484 91.1864 -40
      vertex 101.484 91.1864 -44
    endloop
  endfacet
  facet normal -0.977947 0.208854 0
    outer loop
      vertex 101.484 91.1864 -40
      vertex 101.353 90.573 -44
      vertex 101.353 90.573 -40
    endloop
  endfacet
  facet normal 0.978142 -0.207939 0
    outer loop
      vertex 95.5164 91.8136 -40
      vertex 95.6468 92.427 -44
      vertex 95.6468 92.427 -40
    endloop
  endfacet
  facet normal 0.978142 -0.207939 0
    outer loop
      vertex 95.6468 92.427 -44
      vertex 95.5164 91.8136 -40
      vertex 95.5164 91.8136 -44
    endloop
  endfacet
  facet normal 0 0 -1
    outer loop
      vertex 101.353 90.573 -40
      vertex 101.484 91.8136 -40
      vertex 101.484 91.1864 -40
    endloop
  endfacet
  facet normal 0 0 -1
    outer loop
      vertex 101.353 90.573 -40
      vertex 101.353 92.427 -40
      vertex 101.484 91.8136 -40
    endloop
  endfacet
  facet normal 0 0 -1
    outer loop
      vertex 101.098 90 -40
      vertex 101.353 92.427 -40
      vertex 101.353 90.573 -40
    endloop
  endfacet
  facet normal 0 0 -1
    outer loop
      vertex 101.098 90 -40
      vertex 101.098 93 -40
      vertex 101.353 92.427 -40
    endloop
  endfacet
  facet normal 0 0 -1
    outer loop
      vertex 100.729 89.4926 -40
      vertex 101.098 93 -40
      vertex 101.098 90 -40
    endloop
  endfacet
  facet normal 0 0 -1
    outer loop
      vertex 100.729 89.4926 -40
      vertex 100.729 93.5074 -40
      vertex 101.098 93 -40
    endloop
  endfacet
  facet normal 0 0 -1
    outer loop
      vertex 100.263 89.073 -40
      vertex 100.729 93.5074 -40
      vertex 100.729 89.4926 -40
    endloop
  endfacet
  facet normal 0 0 -1
    outer loop
      vertex 100.263 89.073 -40
      vertex 100.263 93.927 -40
      vertex 100.729 93.5074 -40
    endloop
  endfacet
  facet normal 0 0 -1
    outer loop
      vertex 99.7202 88.7594 -40
      vertex 100.263 93.927 -40
      vertex 100.263 89.073 -40
    endloop
  endfacet
  facet normal 0 0 -1
    outer loop
      vertex 99.7202 88.7594 -40
      vertex 99.7202 94.2406 -40
      vertex 100.263 93.927 -40
    endloop
  endfacet
  facet normal 0 0 -1
    outer loop
      vertex 99.1237 88.5656 -40
      vertex 99.7202 94.2406 -40
      vertex 99.7202 88.7594 -40
    endloop
  endfacet
  facet normal 0 0 -1
    outer loop
      vertex 99.1237 88.5656 -40
      vertex 99.1237 94.4344 -40
      vertex 99.7202 94.2406 -40
    endloop
  endfacet
  facet normal 0 0 -1
    outer loop
      vertex 98.5 88.5 -40
      vertex 99.1237 94.4344 -40
      vertex 99.1237 88.5656 -40
    endloop
  endfacet
  facet normal 0 0 -1
    outer loop
      vertex 98.5 88.5 -40
      vertex 98.5 94.5 -40
      vertex 99.1237 94.4344 -40
    endloop
  endfacet
  facet normal 0 0 -1
    outer loop
      vertex 97.8763 88.5656 -40
      vertex 98.5 94.5 -40
      vertex 98.5 88.5 -40
    endloop
  endfacet
  facet normal 0 0 -1
    outer loop
      vertex 97.8763 88.5656 -40
      vertex 97.8763 94.4344 -40
      vertex 98.5 94.5 -40
    endloop
  endfacet
  facet normal 0 0 -1
    outer loop
      vertex 97.2798 88.7594 -40
      vertex 97.8763 94.4344 -40
      vertex 97.8763 88.5656 -40
    endloop
  endfacet
  facet normal 0 0 -1
    outer loop
      vertex 97.2798 88.7594 -40
      vertex 97.2798 94.2406 -40
      vertex 97.8763 94.4344 -40
    endloop
  endfacet
  facet normal 0 0 -1
    outer loop
      vertex 96.7366 89.073 -40
      vertex 97.2798 94.2406 -40
      vertex 97.2798 88.7594 -40
    endloop
  endfacet
  facet normal 0 0 -1
    outer loop
      vertex 96.7366 89.073 -40
      vertex 96.7366 93.927 -40
      vertex 97.2798 94.2406 -40
    endloop
  endfacet
  facet normal 0 0 -1
    outer loop
      vertex 96.2706 89.4926 -40
      vertex 96.7366 93.927 -40
      vertex 96.7366 89.073 -40
    endloop
  endfacet
  facet normal 0 0 -1
    outer loop
      vertex 96.2706 89.4926 -40
      vertex 96.2706 93.5074 -40
      vertex 96.7366 93.927 -40
    endloop
  endfacet
  facet normal 0 0 -1
    outer loop
      vertex 95.9019 90 -40
      vertex 96.2706 93.5074 -40
      vertex 96.2706 89.4926 -40
    endloop
  endfacet
  facet normal 0 0 -1
    outer loop
      vertex 95.9019 90 -40
      vertex 95.9019 93 -40
      vertex 96.2706 93.5074 -40
    endloop
  endfacet
  facet normal 0 0 -1
    outer loop
      vertex 95.6468 90.573 -40
      vertex 95.9019 93 -40
      vertex 95.9019 90 -40
    endloop
  endfacet
  facet normal 0 0 -1
    outer loop
      vertex 95.6468 90.573 -40
      vertex 95.6468 92.427 -40
      vertex 95.9019 93 -40
    endloop
  endfacet
  facet normal 0 0 -1
    outer loop
      vertex 95.5164 91.1864 -40
      vertex 95.6468 92.427 -40
      vertex 95.6468 90.573 -40
    endloop
  endfacet
  facet normal 0 0 -1
    outer loop
      vertex 95.6468 92.427 -40
      vertex 95.5164 91.1864 -40
      vertex 95.5164 91.8136 -40
    endloop
  endfacet
  facet normal -0.80875 -0.588153 0
    outer loop
      vertex 101.098 93 -44
      vertex 100.729 93.5074 -40
      vertex 100.729 93.5074 -44
    endloop
  endfacet
  facet normal -0.80875 -0.588153 0
    outer loop
      vertex 100.729 93.5074 -40
      vertex 101.098 93 -44
      vertex 101.098 93 -40
    endloop
  endfacet
  facet normal 0 0 1
    outer loop
      vertex 100.117 92.0253 -39.6
      vertex 100.117 90.9747 -39.6
      vertex 100.2 91.5 -39.6
    endloop
  endfacet
  facet normal 0 0 1
    outer loop
      vertex 99.8753 92.4992 -39.6
      vertex 100.117 90.9747 -39.6
      vertex 100.117 92.0253 -39.6
    endloop
  endfacet
  facet normal 0 0 1
    outer loop
      vertex 99.8753 92.4992 -39.6
      vertex 99.8753 90.5008 -39.6
      vertex 100.117 90.9747 -39.6
    endloop
  endfacet
  facet normal 0 0 1
    outer loop
      vertex 99.4992 92.8753 -39.6
      vertex 99.8753 90.5008 -39.6
      vertex 99.8753 92.4992 -39.6
    endloop
  endfacet
  facet normal 0 0 1
    outer loop
      vertex 99.4992 92.8753 -39.6
      vertex 99.4992 90.1247 -39.6
      vertex 99.8753 90.5008 -39.6
    endloop
  endfacet
  facet normal 0 0 1
    outer loop
      vertex 99.0253 93.1168 -39.6
      vertex 99.4992 90.1247 -39.6
      vertex 99.4992 92.8753 -39.6
    endloop
  endfacet
  facet normal 0 0 1
    outer loop
      vertex 99.0253 93.1168 -39.6
      vertex 99.0253 89.8832 -39.6
      vertex 99.4992 90.1247 -39.6
    endloop
  endfacet
  facet normal 0 0 1
    outer loop
      vertex 98.5 93.2 -39.6
      vertex 99.0253 89.8832 -39.6
      vertex 99.0253 93.1168 -39.6
    endloop
  endfacet
  facet normal 0 0 1
    outer loop
      vertex 98.5 93.2 -39.6
      vertex 98.5 89.8 -39.6
      vertex 99.0253 89.8832 -39.6
    endloop
  endfacet
  facet normal -0 0 1
    outer loop
      vertex 97.9747 93.1168 -39.6
      vertex 98.5 89.8 -39.6
      vertex 98.5 93.2 -39.6
    endloop
  endfacet
  facet normal 0 0 1
    outer loop
      vertex 97.9747 93.1168 -39.6
      vertex 97.9747 89.8832 -39.6
      vertex 98.5 89.8 -39.6
    endloop
  endfacet
  facet normal -0 0 1
    outer loop
      vertex 97.5008 92.8753 -39.6
      vertex 97.9747 89.8832 -39.6
      vertex 97.9747 93.1168 -39.6
    endloop
  endfacet
  facet normal 0 0 1
    outer loop
      vertex 97.5008 92.8753 -39.6
      vertex 97.5008 90.1247 -39.6
      vertex 97.9747 89.8832 -39.6
    endloop
  endfacet
  facet normal -0 0 1
    outer loop
      vertex 97.1247 92.4992 -39.6
      vertex 97.5008 90.1247 -39.6
      vertex 97.5008 92.8753 -39.6
    endloop
  endfacet
  facet normal 0 0 1
    outer loop
      vertex 97.1247 92.4992 -39.6
      vertex 97.1247 90.5008 -39.6
      vertex 97.5008 90.1247 -39.6
    endloop
  endfacet
  facet normal -0 0 1
    outer loop
      vertex 96.8832 92.0253 -39.6
      vertex 97.1247 90.5008 -39.6
      vertex 97.1247 92.4992 -39.6
    endloop
  endfacet
  facet normal 0 0 1
    outer loop
      vertex 96.8832 92.0253 -39.6
      vertex 96.8832 90.9747 -39.6
      vertex 97.1247 90.5008 -39.6
    endloop
  endfacet
  facet normal 0 -0 1
    outer loop
      vertex 96.8832 90.9747 -39.6
      vertex 96.8832 92.0253 -39.6
      vertex 96.8 91.5 -39.6
    endloop
  endfacet
  facet normal 1 -0 0
    outer loop
      vertex 102.49 87.5 -38.24
      vertex 102.49 95.74 -42.24
      vertex 102.49 95.74 -38.24
    endloop
  endfacet
  facet normal 1 0 0
    outer loop
      vertex 102.49 95.74 -42.24
      vertex 102.49 87.5 -38.24
      vertex 102.49 87.9 -44
    endloop
  endfacet
  facet normal 1 0 0
    outer loop
      vertex 102.49 87.9 -44
      vertex 102.49 87.5 -38.24
      vertex 102.49 87.5 -43.6
    endloop
  endfacet
  facet normal 1 -0 0
    outer loop
      vertex 102.49 95.74 -42.24
      vertex 102.49 107.51 -44
      vertex 102.49 107.51 -42.24
    endloop
  endfacet
  facet normal 1 0 0
    outer loop
      vertex 102.49 107.51 -44
      vertex 102.49 95.74 -42.24
      vertex 102.49 87.9 -44
    endloop
  endfacet
  facet normal 0 1 -0
    outer loop
      vertex 93.9 107.51 -44
      vertex 93.5 107.51 -42.24
      vertex 102.49 107.51 -42.24
    endloop
  endfacet
  facet normal 0 1 0
    outer loop
      vertex 93.9 107.51 -44
      vertex 102.49 107.51 -42.24
      vertex 102.49 107.51 -44
    endloop
  endfacet
  facet normal 0 1 0
    outer loop
      vertex 93.5 107.51 -42.24
      vertex 93.9 107.51 -44
      vertex 93.5 107.51 -43.6
    endloop
  endfacet
  facet normal 0 0 1
    outer loop
      vertex 102.49 107.51 -42.24
      vertex 101.02 103.52 -42.24
      vertex 102.49 95.74 -42.24
    endloop
  endfacet
  facet normal 0 0 1
    outer loop
      vertex 102.49 107.51 -42.24
      vertex 96.36 103.52 -42.24
      vertex 101.02 103.52 -42.24
    endloop
  endfacet
  facet normal 0 0 1
    outer loop
      vertex 93.5 95.74 -42.24
      vertex 96.36 103.52 -42.24
      vertex 93.5 107.51 -42.24
    endloop
  endfacet
  facet normal -0 0 1
    outer loop
      vertex 93.5 107.51 -42.24
      vertex 96.36 103.52 -42.24
      vertex 102.49 107.51 -42.24
    endloop
  endfacet
  facet normal -0 0 1
    outer loop
      vertex 101.02 96.265 -42.24
      vertex 102.49 95.74 -42.24
      vertex 101.02 103.52 -42.24
    endloop
  endfacet
  facet normal -0 0 1
    outer loop
      vertex 96.36 96.265 -42.24
      vertex 102.49 95.74 -42.24
      vertex 101.02 96.265 -42.24
    endloop
  endfacet
  facet normal 0 0 1
    outer loop
      vertex 96.36 96.265 -42.24
      vertex 93.5 95.74 -42.24
      vertex 102.49 95.74 -42.24
    endloop
  endfacet
  facet normal 0 0 1
    outer loop
      vertex 96.36 103.52 -42.24
      vertex 93.5 95.74 -42.24
      vertex 96.36 96.265 -42.24
    endloop
  endfacet
  facet normal 0 1 -0
    outer loop
      vertex 102.49 95.74 -42.24
      vertex 93.5 95.74 -38.24
      vertex 102.49 95.74 -38.24
    endloop
  endfacet
  facet normal 0 1 0
    outer loop
      vertex 93.5 95.74 -38.24
      vertex 102.49 95.74 -42.24
      vertex 93.5 95.74 -42.24
    endloop
  endfacet
  facet normal 0 0 1
    outer loop
      vertex 102.49 95.74 -38.24
      vertex 100.2 91.5 -38.24
      vertex 102.49 87.5 -38.24
    endloop
  endfacet
  facet normal 0 0 1
    outer loop
      vertex 102.49 95.74 -38.24
      vertex 100.117 92.0253 -38.24
      vertex 100.2 91.5 -38.24
    endloop
  endfacet
  facet normal 0 0 1
    outer loop
      vertex 102.49 95.74 -38.24
      vertex 99.8753 92.4992 -38.24
      vertex 100.117 92.0253 -38.24
    endloop
  endfacet
  facet normal 0 0 1
    outer loop
      vertex 102.49 95.74 -38.24
      vertex 99.4992 92.8753 -38.24
      vertex 99.8753 92.4992 -38.24
    endloop
  endfacet
  facet normal 0 0 1
    outer loop
      vertex 102.49 95.74 -38.24
      vertex 99.0253 93.1168 -38.24
      vertex 99.4992 92.8753 -38.24
    endloop
  endfacet
  facet normal 0 0 1
    outer loop
      vertex 102.49 95.74 -38.24
      vertex 98.5 93.2 -38.24
      vertex 99.0253 93.1168 -38.24
    endloop
  endfacet
  facet normal -0 0 1
    outer loop
      vertex 93.5 95.74 -38.24
      vertex 98.5 93.2 -38.24
      vertex 102.49 95.74 -38.24
    endloop
  endfacet
  facet normal 0 0 1
    outer loop
      vertex 98.5 93.2 -38.24
      vertex 93.5 95.74 -38.24
      vertex 97.9747 93.1168 -38.24
    endloop
  endfacet
  facet normal 0 0 1
    outer loop
      vertex 93.5 95.74 -38.24
      vertex 96.8 91.5 -38.24
      vertex 96.8832 92.0253 -38.24
    endloop
  endfacet
  facet normal 0 0 1
    outer loop
      vertex 93.5 95.74 -38.24
      vertex 96.8832 92.0253 -38.24
      vertex 97.1247 92.4992 -38.24
    endloop
  endfacet
  facet normal 0 0 1
    outer loop
      vertex 97.9747 93.1168 -38.24
      vertex 93.5 95.74 -38.24
      vertex 97.5008 92.8753 -38.24
    endloop
  endfacet
  facet normal 0 0 1
    outer loop
      vertex 93.5 95.74 -38.24
      vertex 97.1247 92.4992 -38.24
      vertex 97.5008 92.8753 -38.24
    endloop
  endfacet
  facet normal 0 0 1
    outer loop
      vertex 96.8 91.5 -38.24
      vertex 93.5 95.74 -38.24
      vertex 93.5 87.9 -38.24
    endloop
  endfacet
  facet normal 0 0 1
    outer loop
      vertex 96.8 91.5 -38.24
      vertex 93.5 87.9 -38.24
      vertex 93.9 87.5 -38.24
    endloop
  endfacet
  facet normal -0 0 1
    outer loop
      vertex 100.117 90.9747 -38.24
      vertex 102.49 87.5 -38.24
      vertex 100.2 91.5 -38.24
    endloop
  endfacet
  facet normal -0 0 1
    outer loop
      vertex 99.8753 90.5008 -38.24
      vertex 102.49 87.5 -38.24
      vertex 100.117 90.9747 -38.24
    endloop
  endfacet
  facet normal -0 0 1
    outer loop
      vertex 99.4992 90.1247 -38.24
      vertex 102.49 87.5 -38.24
      vertex 99.8753 90.5008 -38.24
    endloop
  endfacet
  facet normal -0 0 1
    outer loop
      vertex 99.0253 89.8832 -38.24
      vertex 102.49 87.5 -38.24
      vertex 99.4992 90.1247 -38.24
    endloop
  endfacet
  facet normal -0 0 1
    outer loop
      vertex 98.5 89.8 -38.24
      vertex 102.49 87.5 -38.24
      vertex 99.0253 89.8832 -38.24
    endloop
  endfacet
  facet normal 0 0 1
    outer loop
      vertex 93.9 87.5 -38.24
      vertex 98.5 89.8 -38.24
      vertex 97.9747 89.8832 -38.24
    endloop
  endfacet
  facet normal 0 0 1
    outer loop
      vertex 93.9 87.5 -38.24
      vertex 97.9747 89.8832 -38.24
      vertex 97.5008 90.1247 -38.24
    endloop
  endfacet
  facet normal 0 0 1
    outer loop
      vertex 98.5 89.8 -38.24
      vertex 93.9 87.5 -38.24
      vertex 102.49 87.5 -38.24
    endloop
  endfacet
  facet normal 0 0 1
    outer loop
      vertex 97.1247 90.5008 -38.24
      vertex 93.9 87.5 -38.24
      vertex 97.5008 90.1247 -38.24
    endloop
  endfacet
  facet normal 0 0 1
    outer loop
      vertex 96.8832 90.9747 -38.24
      vertex 93.9 87.5 -38.24
      vertex 97.1247 90.5008 -38.24
    endloop
  endfacet
  facet normal 0 0 1
    outer loop
      vertex 93.9 87.5 -38.24
      vertex 96.8832 90.9747 -38.24
      vertex 96.8 91.5 -38.24
    endloop
  endfacet
endsolid OpenSCAD_Model
