solid OpenSCAD_Model
  facet normal 0 0 -1
    outer loop
      vertex 62.035 10 90
      vertex 54.32 12.2409 90
      vertex 62.035 17.6 90
    endloop
  endfacet
  facet normal 0 0 -1
    outer loop
      vertex 47.362 11.1468 90
      vertex 54.32 12.2409 90
      vertex 62.035 10 90
    endloop
  endfacet
  facet normal 0 0 -1
    outer loop
      vertex 51.2 12.2409 90
      vertex 49.435 14 90
      vertex 51.2 15.3791 90
    endloop
  endfacet
  facet normal 0 0 -1
    outer loop
      vertex 51.2 12.2409 90
      vertex 49.3694 13.3763 90
      vertex 49.435 14 90
    endloop
  endfacet
  facet normal 0 0 -1
    outer loop
      vertex 51.2 12.2409 90
      vertex 49.1756 12.7798 90
      vertex 49.3694 13.3763 90
    endloop
  endfacet
  facet normal -0 0 -1
    outer loop
      vertex 51.2 12.2409 90
      vertex 48.862 12.2366 90
      vertex 49.1756 12.7798 90
    endloop
  endfacet
  facet normal -0 0 -1
    outer loop
      vertex 54.32 12.2409 90
      vertex 47.362 11.1468 90
      vertex 51.2 12.2409 90
    endloop
  endfacet
  facet normal 0 0 -1
    outer loop
      vertex 51.2 12.2409 90
      vertex 48.4424 11.7706 90
      vertex 48.862 12.2366 90
    endloop
  endfacet
  facet normal 0 0 -1
    outer loop
      vertex 51.2 12.2409 90
      vertex 47.935 11.4019 90
      vertex 48.4424 11.7706 90
    endloop
  endfacet
  facet normal 0 0 -1
    outer loop
      vertex 51.2 12.2409 90
      vertex 47.362 11.1468 90
      vertex 47.935 11.4019 90
    endloop
  endfacet
  facet normal 0 0 -1
    outer loop
      vertex 62.035 10 90
      vertex 46.7486 11.0164 90
      vertex 47.362 11.1468 90
    endloop
  endfacet
  facet normal 0 0 -1
    outer loop
      vertex 42.835 10 90
      vertex 46.7486 11.0164 90
      vertex 62.035 10 90
    endloop
  endfacet
  facet normal -0 0 -1
    outer loop
      vertex 43.5006 13.3763 90
      vertex 42.835 10 90
      vertex 43.435 14 90
    endloop
  endfacet
  facet normal -0 0 -1
    outer loop
      vertex 43.6944 12.7798 90
      vertex 42.835 10 90
      vertex 43.5006 13.3763 90
    endloop
  endfacet
  facet normal -0 0 -1
    outer loop
      vertex 44.0079 12.2366 90
      vertex 42.835 10 90
      vertex 43.6944 12.7798 90
    endloop
  endfacet
  facet normal -0 0 -1
    outer loop
      vertex 44.4276 11.7706 90
      vertex 42.835 10 90
      vertex 44.0079 12.2366 90
    endloop
  endfacet
  facet normal -0 0 -1
    outer loop
      vertex 44.935 11.4019 90
      vertex 42.835 10 90
      vertex 44.4276 11.7706 90
    endloop
  endfacet
  facet normal -0 0 -1
    outer loop
      vertex 45.5079 11.1468 90
      vertex 42.835 10 90
      vertex 44.935 11.4019 90
    endloop
  endfacet
  facet normal -0 0 -1
    outer loop
      vertex 46.1214 11.0164 90
      vertex 42.835 10 90
      vertex 45.5079 11.1468 90
    endloop
  endfacet
  facet normal -0 0 -1
    outer loop
      vertex 46.7486 11.0164 90
      vertex 42.835 10 90
      vertex 46.1214 11.0164 90
    endloop
  endfacet
  facet normal 0 0 -1
    outer loop
      vertex 54.32 15.3791 90
      vertex 62.035 17.6 90
      vertex 54.32 12.2409 90
    endloop
  endfacet
  facet normal 0 0 -1
    outer loop
      vertex 47.935 16.5981 90
      vertex 54.32 15.3791 90
      vertex 51.2 15.3791 90
    endloop
  endfacet
  facet normal 0 0 -1
    outer loop
      vertex 49.3694 14.6237 90
      vertex 51.2 15.3791 90
      vertex 49.435 14 90
    endloop
  endfacet
  facet normal 0 0 -1
    outer loop
      vertex 49.1756 15.2202 90
      vertex 51.2 15.3791 90
      vertex 49.3694 14.6237 90
    endloop
  endfacet
  facet normal 0 0 -1
    outer loop
      vertex 48.862 15.7634 90
      vertex 51.2 15.3791 90
      vertex 49.1756 15.2202 90
    endloop
  endfacet
  facet normal 0 0 -1
    outer loop
      vertex 48.4424 16.2294 90
      vertex 51.2 15.3791 90
      vertex 48.862 15.7634 90
    endloop
  endfacet
  facet normal 0 0 -1
    outer loop
      vertex 47.935 16.5981 90
      vertex 51.2 15.3791 90
      vertex 48.4424 16.2294 90
    endloop
  endfacet
  facet normal 0 0 -1
    outer loop
      vertex 54.32 15.3791 90
      vertex 47.935 16.5981 90
      vertex 62.035 17.6 90
    endloop
  endfacet
  facet normal 0 0 -1
    outer loop
      vertex 47.362 16.8532 90
      vertex 62.035 17.6 90
      vertex 47.935 16.5981 90
    endloop
  endfacet
  facet normal 0 0 -1
    outer loop
      vertex 46.7486 16.9836 90
      vertex 62.035 17.6 90
      vertex 47.362 16.8532 90
    endloop
  endfacet
  facet normal 0 0 -1
    outer loop
      vertex 42.835 17.6 90
      vertex 46.7486 16.9836 90
      vertex 46.1214 16.9836 90
    endloop
  endfacet
  facet normal 0 0 -1
    outer loop
      vertex 42.835 17.6 90
      vertex 43.435 14 90
      vertex 42.835 10 90
    endloop
  endfacet
  facet normal 0 0 -1
    outer loop
      vertex 46.7486 16.9836 90
      vertex 42.835 17.6 90
      vertex 62.035 17.6 90
    endloop
  endfacet
  facet normal 0 0 -1
    outer loop
      vertex 45.5079 16.8532 90
      vertex 42.835 17.6 90
      vertex 46.1214 16.9836 90
    endloop
  endfacet
  facet normal 0 0 -1
    outer loop
      vertex 44.935 16.5981 90
      vertex 42.835 17.6 90
      vertex 45.5079 16.8532 90
    endloop
  endfacet
  facet normal 0 0 -1
    outer loop
      vertex 44.4276 16.2294 90
      vertex 42.835 17.6 90
      vertex 44.935 16.5981 90
    endloop
  endfacet
  facet normal 0 0 -1
    outer loop
      vertex 44.0079 15.7634 90
      vertex 42.835 17.6 90
      vertex 44.4276 16.2294 90
    endloop
  endfacet
  facet normal 0 0 -1
    outer loop
      vertex 43.6944 15.2202 90
      vertex 42.835 17.6 90
      vertex 44.0079 15.7634 90
    endloop
  endfacet
  facet normal 0 0 -1
    outer loop
      vertex 43.5006 14.6237 90
      vertex 42.835 17.6 90
      vertex 43.6944 15.2202 90
    endloop
  endfacet
  facet normal 0 0 -1
    outer loop
      vertex 43.435 14 90
      vertex 42.835 17.6 90
      vertex 43.5006 14.6237 90
    endloop
  endfacet
  facet normal -1 0 0
    outer loop
      vertex 42.435 10 90.4
      vertex 42.435 17.6 95.85
      vertex 42.435 17.6 90.4
    endloop
  endfacet
  facet normal -1 -0 0
    outer loop
      vertex 42.435 17.6 95.85
      vertex 42.435 10 90.4
      vertex 42.435 10 95.85
    endloop
  endfacet
  facet normal 1 0 0
    outer loop
      vertex 62.435 10.9 95.85
      vertex 62.435 10 95.85
      vertex 62.435 10.9 91.85
    endloop
  endfacet
  facet normal 1 0 0
    outer loop
      vertex 62.435 11.48 91.85
      vertex 62.435 10.9 91.85
      vertex 62.435 11.48 90.7218
    endloop
  endfacet
  facet normal 1 0 0
    outer loop
      vertex 62.435 16.14 90.7218
      vertex 62.435 17.6 91.85
      vertex 62.435 16.14 91.85
    endloop
  endfacet
  facet normal 1 0 0
    outer loop
      vertex 62.435 17.6 91.85
      vertex 62.435 16.14 90.7218
      vertex 62.435 17.6 90.4
    endloop
  endfacet
  facet normal 1 -0 0
    outer loop
      vertex 62.435 11.48 90.7218
      vertex 62.435 17.6 90.4
      vertex 62.435 16.14 90.7218
    endloop
  endfacet
  facet normal 1 0 0
    outer loop
      vertex 62.435 11.48 90.7218
      vertex 62.435 10 90.4
      vertex 62.435 17.6 90.4
    endloop
  endfacet
  facet normal 1 0 0
    outer loop
      vertex 62.435 10.9 91.85
      vertex 62.435 10 90.4
      vertex 62.435 11.48 90.7218
    endloop
  endfacet
  facet normal 1 0 0
    outer loop
      vertex 62.435 10 90.4
      vertex 62.435 10.9 91.85
      vertex 62.435 10 95.85
    endloop
  endfacet
  facet normal 0 -1 0
    outer loop
      vertex 42.835 10 90
      vertex 42.435 10 95.85
      vertex 42.435 10 90.4
    endloop
  endfacet
  facet normal 0 -1 0
    outer loop
      vertex 42.435 10 95.85
      vertex 42.835 10 90
      vertex 62.435 10 95.85
    endloop
  endfacet
  facet normal 0 -1 0
    outer loop
      vertex 62.035 10 90
      vertex 62.435 10 95.85
      vertex 42.835 10 90
    endloop
  endfacet
  facet normal 0 -1 -0
    outer loop
      vertex 62.435 10 95.85
      vertex 62.035 10 90
      vertex 62.435 10 90.4
    endloop
  endfacet
  facet normal -0.707107 -1.26343e-14 -0.707107
    outer loop
      vertex 42.835 17.6 90
      vertex 42.435 17.6 90.4
      vertex 42.635 17.8 90.2
    endloop
  endfacet
  facet normal -0.707107 0 -0.707107
    outer loop
      vertex 42.835 10 90
      vertex 42.435 17.6 90.4
      vertex 42.835 17.6 90
    endloop
  endfacet
  facet normal -0.707107 -0 -0.707107
    outer loop
      vertex 42.435 17.6 90.4
      vertex 42.835 10 90
      vertex 42.435 10 90.4
    endloop
  endfacet
  facet normal 0.707107 0 -0.707107
    outer loop
      vertex 62.435 17.6 90.4
      vertex 62.035 17.6 90
      vertex 62.235 17.8 90.2
    endloop
  endfacet
  facet normal 0.707107 0 -0.707107
    outer loop
      vertex 62.435 10 90.4
      vertex 62.035 17.6 90
      vertex 62.435 17.6 90.4
    endloop
  endfacet
  facet normal 0.707107 0 -0.707107
    outer loop
      vertex 62.035 17.6 90
      vertex 62.435 10 90.4
      vertex 62.035 10 90
    endloop
  endfacet
  facet normal 0 1 0
    outer loop
      vertex 60.585 18 91.85
      vertex 62.035 18 90.4
      vertex 50.655 18 91.85
    endloop
  endfacet
  facet normal 0 1 -0
    outer loop
      vertex 50.655 18 91.85
      vertex 42.835 18 95.85
      vertex 50.655 18 95.85
    endloop
  endfacet
  facet normal 0 1 0
    outer loop
      vertex 50.655 18 91.85
      vertex 42.835 18 90.4
      vertex 42.835 18 95.85
    endloop
  endfacet
  facet normal 0 1 0
    outer loop
      vertex 42.835 18 90.4
      vertex 50.655 18 91.85
      vertex 62.035 18 90.4
    endloop
  endfacet
  facet normal 0 0.707107 -0.707107
    outer loop
      vertex 42.835 17.6 90
      vertex 42.835 18 90.4
      vertex 62.035 18 90.4
    endloop
  endfacet
  facet normal 0 0.707107 -0.707107
    outer loop
      vertex 62.035 17.6 90
      vertex 62.035 18 90.4
      vertex 62.235 17.8 90.2
    endloop
  endfacet
  facet normal 0 0.707107 -0.707107
    outer loop
      vertex 42.835 17.6 90
      vertex 62.035 18 90.4
      vertex 62.035 17.6 90
    endloop
  endfacet
  facet normal 0 0.707107 -0.707107
    outer loop
      vertex 42.835 18 90.4
      vertex 42.835 17.6 90
      vertex 42.635 17.8 90.2
    endloop
  endfacet
  facet normal 0 1 -0
    outer loop
      vertex 62.035 18 90.4
      vertex 60.585 18 91.85
      vertex 62.035 18 91.85
    endloop
  endfacet
  facet normal -0.707107 0.707107 1.25117e-14
    outer loop
      vertex 42.435 17.6 90.4
      vertex 42.835 18 90.4
      vertex 42.635 17.8 90.2
    endloop
  endfacet
  facet normal -0.707107 0.707107 0
    outer loop
      vertex 42.835 18 90.4
      vertex 42.435 17.6 90.4
      vertex 42.835 18 95.85
    endloop
  endfacet
  facet normal -0.707107 0.707107 0
    outer loop
      vertex 42.835 18 95.85
      vertex 42.435 17.6 90.4
      vertex 42.435 17.6 95.85
    endloop
  endfacet
  facet normal 0.707107 0.707107 -0
    outer loop
      vertex 62.435 17.6 90.4
      vertex 62.035 18 91.85
      vertex 62.435 17.6 91.85
    endloop
  endfacet
  facet normal 0.707107 0.707107 0
    outer loop
      vertex 62.435 17.6 90.4
      vertex 62.035 18 90.4
      vertex 62.035 18 91.85
    endloop
  endfacet
  facet normal 0.707107 0.707107 0
    outer loop
      vertex 62.035 18 90.4
      vertex 62.435 17.6 90.4
      vertex 62.235 17.8 90.2
    endloop
  endfacet
  facet normal -1 0 0
    outer loop
      vertex 54.32 12.2409 90
      vertex 54.32 16.029 90.7218
      vertex 54.32 15.3791 90
    endloop
  endfacet
  facet normal -1 -0 0
    outer loop
      vertex 54.32 16.029 90.7218
      vertex 54.32 12.2409 90
      vertex 54.32 11.591 90.7218
    endloop
  endfacet
  facet normal 1 0 0
    outer loop
      vertex 51.2 16.14 91.85
      vertex 51.2 15.3791 90
      vertex 51.2 16.14 90.845
    endloop
  endfacet
  facet normal 1 0 0
    outer loop
      vertex 51.2 16.14 91.85
      vertex 51.2 12.2409 90
      vertex 51.2 15.3791 90
    endloop
  endfacet
  facet normal 1 -0 0
    outer loop
      vertex 51.2 11.48 91.85
      vertex 51.2 12.2409 90
      vertex 51.2 16.14 91.85
    endloop
  endfacet
  facet normal 1 0 0
    outer loop
      vertex 51.2 12.2409 90
      vertex 51.2 11.48 91.85
      vertex 51.2 11.48 90.845
    endloop
  endfacet
  facet normal 0 0.743151 0.669124
    outer loop
      vertex 54.32 11.591 90.7218
      vertex 54.32 12.2409 90
      vertex 54.31 11.591 90.7218
    endloop
  endfacet
  facet normal 0 0.742934 0.669364
    outer loop
      vertex 54.31 11.591 90.7218
      vertex 51.2 11.48 90.845
      vertex 54.31 11.48 90.845
    endloop
  endfacet
  facet normal -0 0.743151 0.669124
    outer loop
      vertex 51.2 12.2409 90
      vertex 54.31 11.591 90.7218
      vertex 54.32 12.2409 90
    endloop
  endfacet
  facet normal -1.47382e-05 0.743119 0.669159
    outer loop
      vertex 54.31 11.591 90.7218
      vertex 51.2 12.2409 90
      vertex 51.2 11.48 90.845
    endloop
  endfacet
  facet normal 0 1 0
    outer loop
      vertex 62.435 11.48 91.85
      vertex 54.31 11.48 90.845
      vertex 51.2 11.48 91.85
    endloop
  endfacet
  facet normal 0 1 -0
    outer loop
      vertex 62.435 11.48 90.7218
      vertex 54.31 11.48 90.845
      vertex 62.435 11.48 91.85
    endloop
  endfacet
  facet normal 0 1 0
    outer loop
      vertex 54.31 11.48 90.845
      vertex 62.435 11.48 90.7218
      vertex 54.31 11.48 90.7218
    endloop
  endfacet
  facet normal 0 1 0
    outer loop
      vertex 51.2 11.48 91.85
      vertex 54.31 11.48 90.845
      vertex 51.2 11.48 90.845
    endloop
  endfacet
  facet normal 0 -1 0
    outer loop
      vertex 54.31 16.14 90.845
      vertex 51.2 16.14 91.85
      vertex 51.2 16.14 90.845
    endloop
  endfacet
  facet normal 0 -1 0
    outer loop
      vertex 51.2 16.14 91.85
      vertex 54.31 16.14 90.845
      vertex 62.435 16.14 91.85
    endloop
  endfacet
  facet normal 0 -1 0
    outer loop
      vertex 62.435 16.14 90.7218
      vertex 54.31 16.14 90.845
      vertex 54.31 16.14 90.7218
    endloop
  endfacet
  facet normal 0 -1 0
    outer loop
      vertex 54.31 16.14 90.845
      vertex 62.435 16.14 90.7218
      vertex 62.435 16.14 91.85
    endloop
  endfacet
  facet normal 0 -0.742934 0.669364
    outer loop
      vertex 51.2 16.14 90.845
      vertex 54.31 16.029 90.7218
      vertex 54.31 16.14 90.845
    endloop
  endfacet
  facet normal -1.47382e-05 -0.743119 0.669159
    outer loop
      vertex 51.2 15.3791 90
      vertex 54.31 16.029 90.7218
      vertex 51.2 16.14 90.845
    endloop
  endfacet
  facet normal 0 -0.743151 0.669124
    outer loop
      vertex 54.32 15.3791 90
      vertex 54.31 16.029 90.7218
      vertex 51.2 15.3791 90
    endloop
  endfacet
  facet normal 0 -0.743151 0.669124
    outer loop
      vertex 54.31 16.029 90.7218
      vertex 54.32 15.3791 90
      vertex 54.32 16.029 90.7218
    endloop
  endfacet
  facet normal 0 0 1
    outer loop
      vertex 62.435 16.14 90.7218
      vertex 54.32 16.029 90.7218
      vertex 62.435 11.48 90.7218
    endloop
  endfacet
  facet normal -0 0 1
    outer loop
      vertex 54.31 16.14 90.7218
      vertex 54.32 16.029 90.7218
      vertex 62.435 16.14 90.7218
    endloop
  endfacet
  facet normal 0 0 1
    outer loop
      vertex 54.32 16.029 90.7218
      vertex 54.31 16.14 90.7218
      vertex 54.31 16.029 90.7218
    endloop
  endfacet
  facet normal -0 0 1
    outer loop
      vertex 54.32 11.591 90.7218
      vertex 62.435 11.48 90.7218
      vertex 54.32 16.029 90.7218
    endloop
  endfacet
  facet normal 0 0 1
    outer loop
      vertex 54.31 11.48 90.7218
      vertex 54.32 11.591 90.7218
      vertex 54.31 11.591 90.7218
    endloop
  endfacet
  facet normal 0 0 1
    outer loop
      vertex 54.32 11.591 90.7218
      vertex 54.31 11.48 90.7218
      vertex 62.435 11.48 90.7218
    endloop
  endfacet
  facet normal 1 0 0
    outer loop
      vertex 54.31 16.029 90.7218
      vertex 54.31 16.14 90.7218
      vertex 54.31 16.14 90.845
    endloop
  endfacet
  facet normal 1 0 0
    outer loop
      vertex 54.31 11.48 90.7218
      vertex 54.31 11.591 90.7218
      vertex 54.31 11.48 90.845
    endloop
  endfacet
  facet normal -0.890979 -0.454044 0
    outer loop
      vertex 48.0518 14.5253 94.4
      vertex 47.8103 14.9992 95.85
      vertex 47.8103 14.9992 94.4
    endloop
  endfacet
  facet normal -0.890979 -0.454044 0
    outer loop
      vertex 47.8103 14.9992 95.85
      vertex 48.0518 14.5253 94.4
      vertex 48.0518 14.5253 95.85
    endloop
  endfacet
  facet normal -0.987688 -0.156436 0
    outer loop
      vertex 48.135 14 94.4
      vertex 48.0518 14.5253 95.85
      vertex 48.0518 14.5253 94.4
    endloop
  endfacet
  facet normal -0.987688 -0.156436 0
    outer loop
      vertex 48.0518 14.5253 95.85
      vertex 48.135 14 94.4
      vertex 48.135 14 95.85
    endloop
  endfacet
  facet normal -0.707107 -0.707107 0
    outer loop
      vertex 47.4342 15.3753 94.4
      vertex 47.8103 14.9992 95.85
      vertex 47.4342 15.3753 95.85
    endloop
  endfacet
  facet normal -0.707107 -0.707107 -0
    outer loop
      vertex 47.8103 14.9992 95.85
      vertex 47.4342 15.3753 94.4
      vertex 47.8103 14.9992 94.4
    endloop
  endfacet
  facet normal -0.156436 0.987688 0
    outer loop
      vertex 46.9603 12.3832 94.4
      vertex 46.435 12.3 95.85
      vertex 46.9603 12.3832 95.85
    endloop
  endfacet
  facet normal -0.156436 0.987688 0
    outer loop
      vertex 46.435 12.3 95.85
      vertex 46.9603 12.3832 94.4
      vertex 46.435 12.3 94.4
    endloop
  endfacet
  facet normal 0.454044 -0.890979 0
    outer loop
      vertex 45.4358 15.3753 94.4
      vertex 45.9097 15.6168 95.85
      vertex 45.4358 15.3753 95.85
    endloop
  endfacet
  facet normal 0.454044 -0.890979 0
    outer loop
      vertex 45.9097 15.6168 95.85
      vertex 45.4358 15.3753 94.4
      vertex 45.9097 15.6168 94.4
    endloop
  endfacet
  facet normal -0.454044 0.890979 0
    outer loop
      vertex 47.4342 12.6247 94.4
      vertex 46.9603 12.3832 95.85
      vertex 47.4342 12.6247 95.85
    endloop
  endfacet
  facet normal -0.454044 0.890979 0
    outer loop
      vertex 46.9603 12.3832 95.85
      vertex 47.4342 12.6247 94.4
      vertex 46.9603 12.3832 94.4
    endloop
  endfacet
  facet normal -0.707107 0.707107 0
    outer loop
      vertex 47.8103 13.0008 94.4
      vertex 47.4342 12.6247 95.85
      vertex 47.8103 13.0008 95.85
    endloop
  endfacet
  facet normal -0.707107 0.707107 0
    outer loop
      vertex 47.4342 12.6247 95.85
      vertex 47.8103 13.0008 94.4
      vertex 47.4342 12.6247 94.4
    endloop
  endfacet
  facet normal 0.156436 0.987688 -0
    outer loop
      vertex 46.435 12.3 94.4
      vertex 45.9097 12.3832 95.85
      vertex 46.435 12.3 95.85
    endloop
  endfacet
  facet normal 0.156436 0.987688 0
    outer loop
      vertex 45.9097 12.3832 95.85
      vertex 46.435 12.3 94.4
      vertex 45.9097 12.3832 94.4
    endloop
  endfacet
  facet normal 0.890979 -0.454044 0
    outer loop
      vertex 44.8182 14.5253 95.85
      vertex 45.0597 14.9992 94.4
      vertex 45.0597 14.9992 95.85
    endloop
  endfacet
  facet normal 0.890979 -0.454044 0
    outer loop
      vertex 45.0597 14.9992 94.4
      vertex 44.8182 14.5253 95.85
      vertex 44.8182 14.5253 94.4
    endloop
  endfacet
  facet normal -0.987688 0.156436 0
    outer loop
      vertex 48.0518 13.4747 94.4
      vertex 48.135 14 95.85
      vertex 48.135 14 94.4
    endloop
  endfacet
  facet normal -0.987688 0.156436 0
    outer loop
      vertex 48.135 14 95.85
      vertex 48.0518 13.4747 94.4
      vertex 48.0518 13.4747 95.85
    endloop
  endfacet
  facet normal 0.987688 -0.156436 0
    outer loop
      vertex 44.735 14 95.85
      vertex 44.8182 14.5253 94.4
      vertex 44.8182 14.5253 95.85
    endloop
  endfacet
  facet normal 0.987688 -0.156436 0
    outer loop
      vertex 44.8182 14.5253 94.4
      vertex 44.735 14 95.85
      vertex 44.735 14 94.4
    endloop
  endfacet
  facet normal -0.890979 0.454044 0
    outer loop
      vertex 47.8103 13.0008 94.4
      vertex 48.0518 13.4747 95.85
      vertex 48.0518 13.4747 94.4
    endloop
  endfacet
  facet normal -0.890979 0.454044 0
    outer loop
      vertex 48.0518 13.4747 95.85
      vertex 47.8103 13.0008 94.4
      vertex 47.8103 13.0008 95.85
    endloop
  endfacet
  facet normal -0.156436 -0.987688 0
    outer loop
      vertex 46.435 15.7 94.4
      vertex 46.9603 15.6168 95.85
      vertex 46.435 15.7 95.85
    endloop
  endfacet
  facet normal -0.156436 -0.987688 -0
    outer loop
      vertex 46.9603 15.6168 95.85
      vertex 46.435 15.7 94.4
      vertex 46.9603 15.6168 94.4
    endloop
  endfacet
  facet normal -0.454044 -0.890979 0
    outer loop
      vertex 46.9603 15.6168 94.4
      vertex 47.4342 15.3753 95.85
      vertex 46.9603 15.6168 95.85
    endloop
  endfacet
  facet normal -0.454044 -0.890979 -0
    outer loop
      vertex 47.4342 15.3753 95.85
      vertex 46.9603 15.6168 94.4
      vertex 47.4342 15.3753 94.4
    endloop
  endfacet
  facet normal 0.890979 0.454044 0
    outer loop
      vertex 45.0597 13.0008 95.85
      vertex 44.8182 13.4747 94.4
      vertex 44.8182 13.4747 95.85
    endloop
  endfacet
  facet normal 0.890979 0.454044 0
    outer loop
      vertex 44.8182 13.4747 94.4
      vertex 45.0597 13.0008 95.85
      vertex 45.0597 13.0008 94.4
    endloop
  endfacet
  facet normal 0.156436 -0.987688 0
    outer loop
      vertex 45.9097 15.6168 94.4
      vertex 46.435 15.7 95.85
      vertex 45.9097 15.6168 95.85
    endloop
  endfacet
  facet normal 0.156436 -0.987688 0
    outer loop
      vertex 46.435 15.7 95.85
      vertex 45.9097 15.6168 94.4
      vertex 46.435 15.7 94.4
    endloop
  endfacet
  facet normal 0.707107 0.707107 0
    outer loop
      vertex 45.4358 12.6247 95.85
      vertex 45.0597 13.0008 94.4
      vertex 45.0597 13.0008 95.85
    endloop
  endfacet
  facet normal 0.707107 0.707107 0
    outer loop
      vertex 45.0597 13.0008 94.4
      vertex 45.4358 12.6247 95.85
      vertex 45.4358 12.6247 94.4
    endloop
  endfacet
  facet normal 0.707107 -0.707107 0
    outer loop
      vertex 45.0597 14.9992 95.85
      vertex 45.4358 15.3753 94.4
      vertex 45.4358 15.3753 95.85
    endloop
  endfacet
  facet normal 0.707107 -0.707107 0
    outer loop
      vertex 45.4358 15.3753 94.4
      vertex 45.0597 14.9992 95.85
      vertex 45.0597 14.9992 94.4
    endloop
  endfacet
  facet normal 0.987688 0.156436 0
    outer loop
      vertex 44.8182 13.4747 95.85
      vertex 44.735 14 94.4
      vertex 44.735 14 95.85
    endloop
  endfacet
  facet normal 0.987688 0.156436 0
    outer loop
      vertex 44.735 14 94.4
      vertex 44.8182 13.4747 95.85
      vertex 44.8182 13.4747 94.4
    endloop
  endfacet
  facet normal 0.454044 0.890979 -0
    outer loop
      vertex 45.9097 12.3832 94.4
      vertex 45.4358 12.6247 95.85
      vertex 45.9097 12.3832 95.85
    endloop
  endfacet
  facet normal 0.454044 0.890979 0
    outer loop
      vertex 45.4358 12.6247 95.85
      vertex 45.9097 12.3832 94.4
      vertex 45.4358 12.6247 94.4
    endloop
  endfacet
  facet normal 0.866106 -0.49986 0
    outer loop
      vertex 43.6944 15.2202 94
      vertex 44.0079 15.7634 90
      vertex 44.0079 15.7634 94
    endloop
  endfacet
  facet normal 0.866106 -0.49986 0
    outer loop
      vertex 44.0079 15.7634 90
      vertex 43.6944 15.2202 94
      vertex 43.6944 15.2202 90
    endloop
  endfacet
  facet normal -0.743136 -0.669141 0
    outer loop
      vertex 48.862 15.7634 90
      vertex 48.4424 16.2294 94
      vertex 48.4424 16.2294 90
    endloop
  endfacet
  facet normal -0.743136 -0.669141 0
    outer loop
      vertex 48.4424 16.2294 94
      vertex 48.862 15.7634 90
      vertex 48.862 15.7634 94
    endloop
  endfacet
  facet normal 0.207906 0.978149 -0
    outer loop
      vertex 46.1214 11.0164 90
      vertex 45.5079 11.1468 94
      vertex 46.1214 11.0164 94
    endloop
  endfacet
  facet normal 0.207906 0.978149 0
    outer loop
      vertex 45.5079 11.1468 94
      vertex 46.1214 11.0164 90
      vertex 45.5079 11.1468 90
    endloop
  endfacet
  facet normal -0.406715 0.913555 0
    outer loop
      vertex 47.935 11.4019 90
      vertex 47.362 11.1468 94
      vertex 47.935 11.4019 94
    endloop
  endfacet
  facet normal -0.406715 0.913555 0
    outer loop
      vertex 47.362 11.1468 94
      vertex 47.935 11.4019 90
      vertex 47.362 11.1468 90
    endloop
  endfacet
  facet normal 0 -1 0
    outer loop
      vertex 46.1214 16.9836 90
      vertex 46.7486 16.9836 94
      vertex 46.1214 16.9836 94
    endloop
  endfacet
  facet normal 0 -1 -0
    outer loop
      vertex 46.7486 16.9836 94
      vertex 46.1214 16.9836 90
      vertex 46.7486 16.9836 90
    endloop
  endfacet
  facet normal 0.58784 -0.808977 0
    outer loop
      vertex 44.4276 16.2294 90
      vertex 44.935 16.5981 94
      vertex 44.4276 16.2294 94
    endloop
  endfacet
  facet normal 0.58784 -0.808977 0
    outer loop
      vertex 44.935 16.5981 94
      vertex 44.4276 16.2294 90
      vertex 44.935 16.5981 90
    endloop
  endfacet
  facet normal 0.743056 -0.669229 0
    outer loop
      vertex 44.0079 15.7634 94
      vertex 44.4276 16.2294 90
      vertex 44.4276 16.2294 94
    endloop
  endfacet
  facet normal 0.743056 -0.669229 0
    outer loop
      vertex 44.4276 16.2294 90
      vertex 44.0079 15.7634 94
      vertex 44.0079 15.7634 90
    endloop
  endfacet
  facet normal 0.951063 -0.308996 0
    outer loop
      vertex 43.5006 14.6237 94
      vertex 43.6944 15.2202 90
      vertex 43.6944 15.2202 94
    endloop
  endfacet
  facet normal 0.951063 -0.308996 0
    outer loop
      vertex 43.6944 15.2202 90
      vertex 43.5006 14.6237 94
      vertex 43.5006 14.6237 90
    endloop
  endfacet
  facet normal 0.866106 0.49986 0
    outer loop
      vertex 44.0079 12.2366 94
      vertex 43.6944 12.7798 90
      vertex 43.6944 12.7798 94
    endloop
  endfacet
  facet normal 0.866106 0.49986 0
    outer loop
      vertex 43.6944 12.7798 90
      vertex 44.0079 12.2366 94
      vertex 44.0079 12.2366 90
    endloop
  endfacet
  facet normal -0.207939 0.978142 0
    outer loop
      vertex 47.362 11.1468 90
      vertex 46.7486 11.0164 94
      vertex 47.362 11.1468 94
    endloop
  endfacet
  facet normal -0.207939 0.978142 0
    outer loop
      vertex 46.7486 11.0164 94
      vertex 47.362 11.1468 90
      vertex 46.7486 11.0164 90
    endloop
  endfacet
  facet normal -0.951063 0.308996 0
    outer loop
      vertex 49.1756 12.7798 90
      vertex 49.3694 13.3763 94
      vertex 49.3694 13.3763 90
    endloop
  endfacet
  facet normal -0.951063 0.308996 0
    outer loop
      vertex 49.3694 13.3763 94
      vertex 49.1756 12.7798 90
      vertex 49.1756 12.7798 94
    endloop
  endfacet
  facet normal 0.951063 0.308996 0
    outer loop
      vertex 43.6944 12.7798 94
      vertex 43.5006 13.3763 90
      vertex 43.5006 13.3763 94
    endloop
  endfacet
  facet normal 0.951063 0.308996 0
    outer loop
      vertex 43.5006 13.3763 90
      vertex 43.6944 12.7798 94
      vertex 43.6944 12.7798 90
    endloop
  endfacet
  facet normal 0 1 -0
    outer loop
      vertex 46.7486 11.0164 90
      vertex 46.1214 11.0164 94
      vertex 46.7486 11.0164 94
    endloop
  endfacet
  facet normal 0 1 0
    outer loop
      vertex 46.1214 11.0164 94
      vertex 46.7486 11.0164 90
      vertex 46.1214 11.0164 90
    endloop
  endfacet
  facet normal 0.406775 -0.913529 0
    outer loop
      vertex 44.935 16.5981 90
      vertex 45.5079 16.8532 94
      vertex 44.935 16.5981 94
    endloop
  endfacet
  facet normal 0.406775 -0.913529 0
    outer loop
      vertex 45.5079 16.8532 94
      vertex 44.935 16.5981 90
      vertex 45.5079 16.8532 90
    endloop
  endfacet
  facet normal -0.406715 -0.913555 0
    outer loop
      vertex 47.362 16.8532 90
      vertex 47.935 16.5981 94
      vertex 47.362 16.8532 94
    endloop
  endfacet
  facet normal -0.406715 -0.913555 -0
    outer loop
      vertex 47.935 16.5981 94
      vertex 47.362 16.8532 90
      vertex 47.935 16.5981 90
    endloop
  endfacet
  facet normal 0.743056 0.669229 0
    outer loop
      vertex 44.4276 11.7706 94
      vertex 44.0079 12.2366 90
      vertex 44.0079 12.2366 94
    endloop
  endfacet
  facet normal 0.743056 0.669229 0
    outer loop
      vertex 44.0079 12.2366 90
      vertex 44.4276 11.7706 94
      vertex 44.4276 11.7706 90
    endloop
  endfacet
  facet normal 0.994514 -0.104602 0
    outer loop
      vertex 43.435 14 94
      vertex 43.5006 14.6237 90
      vertex 43.5006 14.6237 94
    endloop
  endfacet
  facet normal 0.994514 -0.104602 0
    outer loop
      vertex 43.5006 14.6237 90
      vertex 43.435 14 94
      vertex 43.435 14 90
    endloop
  endfacet
  facet normal 0.406775 0.913529 -0
    outer loop
      vertex 45.5079 11.1468 90
      vertex 44.935 11.4019 94
      vertex 45.5079 11.1468 94
    endloop
  endfacet
  facet normal 0.406775 0.913529 0
    outer loop
      vertex 44.935 11.4019 94
      vertex 45.5079 11.1468 90
      vertex 44.935 11.4019 90
    endloop
  endfacet
  facet normal -0.866037 -0.49998 0
    outer loop
      vertex 49.1756 15.2202 90
      vertex 48.862 15.7634 94
      vertex 48.862 15.7634 90
    endloop
  endfacet
  facet normal -0.866037 -0.49998 0
    outer loop
      vertex 48.862 15.7634 94
      vertex 49.1756 15.2202 90
      vertex 49.1756 15.2202 94
    endloop
  endfacet
  facet normal -0.994514 -0.104602 0
    outer loop
      vertex 49.435 14 90
      vertex 49.3694 14.6237 94
      vertex 49.3694 14.6237 90
    endloop
  endfacet
  facet normal -0.994514 -0.104602 0
    outer loop
      vertex 49.3694 14.6237 94
      vertex 49.435 14 90
      vertex 49.435 14 94
    endloop
  endfacet
  facet normal 0.994514 0.104602 0
    outer loop
      vertex 43.5006 13.3763 94
      vertex 43.435 14 90
      vertex 43.435 14 94
    endloop
  endfacet
  facet normal 0.994514 0.104602 0
    outer loop
      vertex 43.435 14 90
      vertex 43.5006 13.3763 94
      vertex 43.5006 13.3763 90
    endloop
  endfacet
  facet normal -0.866037 0.49998 0
    outer loop
      vertex 48.862 12.2366 90
      vertex 49.1756 12.7798 94
      vertex 49.1756 12.7798 90
    endloop
  endfacet
  facet normal -0.866037 0.49998 0
    outer loop
      vertex 49.1756 12.7798 94
      vertex 48.862 12.2366 90
      vertex 48.862 12.2366 94
    endloop
  endfacet
  facet normal 0.58784 0.808977 -0
    outer loop
      vertex 44.935 11.4019 90
      vertex 44.4276 11.7706 94
      vertex 44.935 11.4019 94
    endloop
  endfacet
  facet normal 0.58784 0.808977 0
    outer loop
      vertex 44.4276 11.7706 94
      vertex 44.935 11.4019 90
      vertex 44.4276 11.7706 90
    endloop
  endfacet
  facet normal -0.58784 -0.808977 0
    outer loop
      vertex 47.935 16.5981 90
      vertex 48.4424 16.2294 94
      vertex 47.935 16.5981 94
    endloop
  endfacet
  facet normal -0.58784 -0.808977 -0
    outer loop
      vertex 48.4424 16.2294 94
      vertex 47.935 16.5981 90
      vertex 48.4424 16.2294 90
    endloop
  endfacet
  facet normal -0.994514 0.104602 0
    outer loop
      vertex 49.3694 13.3763 90
      vertex 49.435 14 94
      vertex 49.435 14 90
    endloop
  endfacet
  facet normal -0.994514 0.104602 0
    outer loop
      vertex 49.435 14 94
      vertex 49.3694 13.3763 90
      vertex 49.3694 13.3763 94
    endloop
  endfacet
  facet normal 0.207906 -0.978149 0
    outer loop
      vertex 45.5079 16.8532 90
      vertex 46.1214 16.9836 94
      vertex 45.5079 16.8532 94
    endloop
  endfacet
  facet normal 0.207906 -0.978149 0
    outer loop
      vertex 46.1214 16.9836 94
      vertex 45.5079 16.8532 90
      vertex 46.1214 16.9836 90
    endloop
  endfacet
  facet normal -0.951063 -0.308996 0
    outer loop
      vertex 49.3694 14.6237 90
      vertex 49.1756 15.2202 94
      vertex 49.1756 15.2202 90
    endloop
  endfacet
  facet normal -0.951063 -0.308996 0
    outer loop
      vertex 49.1756 15.2202 94
      vertex 49.3694 14.6237 90
      vertex 49.3694 14.6237 94
    endloop
  endfacet
  facet normal -0.207939 -0.978142 0
    outer loop
      vertex 46.7486 16.9836 90
      vertex 47.362 16.8532 94
      vertex 46.7486 16.9836 94
    endloop
  endfacet
  facet normal -0.207939 -0.978142 -0
    outer loop
      vertex 47.362 16.8532 94
      vertex 46.7486 16.9836 90
      vertex 47.362 16.8532 90
    endloop
  endfacet
  facet normal 0 0 -1
    outer loop
      vertex 49.3694 13.3763 94
      vertex 49.3694 14.6237 94
      vertex 49.435 14 94
    endloop
  endfacet
  facet normal 0 0 -1
    outer loop
      vertex 49.1756 12.7798 94
      vertex 49.3694 14.6237 94
      vertex 49.3694 13.3763 94
    endloop
  endfacet
  facet normal 0 0 -1
    outer loop
      vertex 49.1756 12.7798 94
      vertex 49.1756 15.2202 94
      vertex 49.3694 14.6237 94
    endloop
  endfacet
  facet normal 0 0 -1
    outer loop
      vertex 48.862 12.2366 94
      vertex 49.1756 15.2202 94
      vertex 49.1756 12.7798 94
    endloop
  endfacet
  facet normal 0 0 -1
    outer loop
      vertex 48.862 12.2366 94
      vertex 48.862 15.7634 94
      vertex 49.1756 15.2202 94
    endloop
  endfacet
  facet normal 0 0 -1
    outer loop
      vertex 48.4424 11.7706 94
      vertex 48.862 15.7634 94
      vertex 48.862 12.2366 94
    endloop
  endfacet
  facet normal 0 0 -1
    outer loop
      vertex 48.4424 11.7706 94
      vertex 48.4424 16.2294 94
      vertex 48.862 15.7634 94
    endloop
  endfacet
  facet normal 0 0 -1
    outer loop
      vertex 47.935 11.4019 94
      vertex 48.4424 16.2294 94
      vertex 48.4424 11.7706 94
    endloop
  endfacet
  facet normal 0 0 -1
    outer loop
      vertex 47.935 11.4019 94
      vertex 47.935 16.5981 94
      vertex 48.4424 16.2294 94
    endloop
  endfacet
  facet normal 0 0 -1
    outer loop
      vertex 47.362 11.1468 94
      vertex 47.935 16.5981 94
      vertex 47.935 11.4019 94
    endloop
  endfacet
  facet normal 0 0 -1
    outer loop
      vertex 47.362 11.1468 94
      vertex 47.362 16.8532 94
      vertex 47.935 16.5981 94
    endloop
  endfacet
  facet normal 0 0 -1
    outer loop
      vertex 46.7486 11.0164 94
      vertex 47.362 16.8532 94
      vertex 47.362 11.1468 94
    endloop
  endfacet
  facet normal 0 0 -1
    outer loop
      vertex 46.7486 11.0164 94
      vertex 46.7486 16.9836 94
      vertex 47.362 16.8532 94
    endloop
  endfacet
  facet normal 0 0 -1
    outer loop
      vertex 46.1214 11.0164 94
      vertex 46.7486 16.9836 94
      vertex 46.7486 11.0164 94
    endloop
  endfacet
  facet normal 0 0 -1
    outer loop
      vertex 46.1214 11.0164 94
      vertex 46.1214 16.9836 94
      vertex 46.7486 16.9836 94
    endloop
  endfacet
  facet normal 0 0 -1
    outer loop
      vertex 45.5079 11.1468 94
      vertex 46.1214 16.9836 94
      vertex 46.1214 11.0164 94
    endloop
  endfacet
  facet normal 0 0 -1
    outer loop
      vertex 45.5079 11.1468 94
      vertex 45.5079 16.8532 94
      vertex 46.1214 16.9836 94
    endloop
  endfacet
  facet normal 0 0 -1
    outer loop
      vertex 44.935 11.4019 94
      vertex 45.5079 16.8532 94
      vertex 45.5079 11.1468 94
    endloop
  endfacet
  facet normal 0 0 -1
    outer loop
      vertex 44.935 11.4019 94
      vertex 44.935 16.5981 94
      vertex 45.5079 16.8532 94
    endloop
  endfacet
  facet normal 0 0 -1
    outer loop
      vertex 44.4276 11.7706 94
      vertex 44.935 16.5981 94
      vertex 44.935 11.4019 94
    endloop
  endfacet
  facet normal 0 0 -1
    outer loop
      vertex 44.4276 11.7706 94
      vertex 44.4276 16.2294 94
      vertex 44.935 16.5981 94
    endloop
  endfacet
  facet normal 0 0 -1
    outer loop
      vertex 44.0079 12.2366 94
      vertex 44.4276 16.2294 94
      vertex 44.4276 11.7706 94
    endloop
  endfacet
  facet normal 0 0 -1
    outer loop
      vertex 44.0079 12.2366 94
      vertex 44.0079 15.7634 94
      vertex 44.4276 16.2294 94
    endloop
  endfacet
  facet normal 0 0 -1
    outer loop
      vertex 43.6944 12.7798 94
      vertex 44.0079 15.7634 94
      vertex 44.0079 12.2366 94
    endloop
  endfacet
  facet normal 0 0 -1
    outer loop
      vertex 43.6944 12.7798 94
      vertex 43.6944 15.2202 94
      vertex 44.0079 15.7634 94
    endloop
  endfacet
  facet normal 0 0 -1
    outer loop
      vertex 43.5006 13.3763 94
      vertex 43.6944 15.2202 94
      vertex 43.6944 12.7798 94
    endloop
  endfacet
  facet normal 0 0 -1
    outer loop
      vertex 43.5006 13.3763 94
      vertex 43.5006 14.6237 94
      vertex 43.6944 15.2202 94
    endloop
  endfacet
  facet normal 0 -0 -1
    outer loop
      vertex 43.5006 14.6237 94
      vertex 43.5006 13.3763 94
      vertex 43.435 14 94
    endloop
  endfacet
  facet normal -0.743136 0.669141 0
    outer loop
      vertex 48.4424 11.7706 90
      vertex 48.862 12.2366 94
      vertex 48.862 12.2366 90
    endloop
  endfacet
  facet normal -0.743136 0.669141 0
    outer loop
      vertex 48.862 12.2366 94
      vertex 48.4424 11.7706 90
      vertex 48.4424 11.7706 94
    endloop
  endfacet
  facet normal -0.58784 0.808977 0
    outer loop
      vertex 48.4424 11.7706 90
      vertex 47.935 11.4019 94
      vertex 48.4424 11.7706 94
    endloop
  endfacet
  facet normal -0.58784 0.808977 0
    outer loop
      vertex 47.935 11.4019 94
      vertex 48.4424 11.7706 90
      vertex 47.935 11.4019 90
    endloop
  endfacet
  facet normal 0 0 1
    outer loop
      vertex 48.0518 14.5253 94.4
      vertex 48.0518 13.4747 94.4
      vertex 48.135 14 94.4
    endloop
  endfacet
  facet normal 0 0 1
    outer loop
      vertex 47.8103 14.9992 94.4
      vertex 48.0518 13.4747 94.4
      vertex 48.0518 14.5253 94.4
    endloop
  endfacet
  facet normal 0 0 1
    outer loop
      vertex 47.8103 14.9992 94.4
      vertex 47.8103 13.0008 94.4
      vertex 48.0518 13.4747 94.4
    endloop
  endfacet
  facet normal 0 0 1
    outer loop
      vertex 47.4342 15.3753 94.4
      vertex 47.8103 13.0008 94.4
      vertex 47.8103 14.9992 94.4
    endloop
  endfacet
  facet normal 0 0 1
    outer loop
      vertex 47.4342 15.3753 94.4
      vertex 47.4342 12.6247 94.4
      vertex 47.8103 13.0008 94.4
    endloop
  endfacet
  facet normal 0 0 1
    outer loop
      vertex 46.9603 15.6168 94.4
      vertex 47.4342 12.6247 94.4
      vertex 47.4342 15.3753 94.4
    endloop
  endfacet
  facet normal 0 0 1
    outer loop
      vertex 46.9603 15.6168 94.4
      vertex 46.9603 12.3832 94.4
      vertex 47.4342 12.6247 94.4
    endloop
  endfacet
  facet normal 0 0 1
    outer loop
      vertex 46.435 15.7 94.4
      vertex 46.9603 12.3832 94.4
      vertex 46.9603 15.6168 94.4
    endloop
  endfacet
  facet normal 0 0 1
    outer loop
      vertex 46.435 15.7 94.4
      vertex 46.435 12.3 94.4
      vertex 46.9603 12.3832 94.4
    endloop
  endfacet
  facet normal -0 0 1
    outer loop
      vertex 45.9097 15.6168 94.4
      vertex 46.435 12.3 94.4
      vertex 46.435 15.7 94.4
    endloop
  endfacet
  facet normal 0 0 1
    outer loop
      vertex 45.9097 15.6168 94.4
      vertex 45.9097 12.3832 94.4
      vertex 46.435 12.3 94.4
    endloop
  endfacet
  facet normal -0 0 1
    outer loop
      vertex 45.4358 15.3753 94.4
      vertex 45.9097 12.3832 94.4
      vertex 45.9097 15.6168 94.4
    endloop
  endfacet
  facet normal 0 0 1
    outer loop
      vertex 45.4358 15.3753 94.4
      vertex 45.4358 12.6247 94.4
      vertex 45.9097 12.3832 94.4
    endloop
  endfacet
  facet normal -0 0 1
    outer loop
      vertex 45.0597 14.9992 94.4
      vertex 45.4358 12.6247 94.4
      vertex 45.4358 15.3753 94.4
    endloop
  endfacet
  facet normal 0 0 1
    outer loop
      vertex 45.0597 14.9992 94.4
      vertex 45.0597 13.0008 94.4
      vertex 45.4358 12.6247 94.4
    endloop
  endfacet
  facet normal -0 0 1
    outer loop
      vertex 44.8182 14.5253 94.4
      vertex 45.0597 13.0008 94.4
      vertex 45.0597 14.9992 94.4
    endloop
  endfacet
  facet normal 0 0 1
    outer loop
      vertex 44.8182 14.5253 94.4
      vertex 44.8182 13.4747 94.4
      vertex 45.0597 13.0008 94.4
    endloop
  endfacet
  facet normal 0 -0 1
    outer loop
      vertex 44.8182 13.4747 94.4
      vertex 44.8182 14.5253 94.4
      vertex 44.735 14 94.4
    endloop
  endfacet
  facet normal 0 0 1
    outer loop
      vertex 62.035 18 91.85
      vertex 62.435 16.14 91.85
      vertex 62.435 17.6 91.85
    endloop
  endfacet
  facet normal -0 0 1
    outer loop
      vertex 60.585 18 91.85
      vertex 62.435 16.14 91.85
      vertex 62.035 18 91.85
    endloop
  endfacet
  facet normal 0 0 1
    outer loop
      vertex 60.585 18 91.85
      vertex 51.2 16.14 91.85
      vertex 62.435 16.14 91.85
    endloop
  endfacet
  facet normal 0 0 1
    outer loop
      vertex 50.655 10.9 91.85
      vertex 51.2 16.14 91.85
      vertex 50.655 18 91.85
    endloop
  endfacet
  facet normal -0 0 1
    outer loop
      vertex 50.655 18 91.85
      vertex 51.2 16.14 91.85
      vertex 60.585 18 91.85
    endloop
  endfacet
  facet normal -0 0 1
    outer loop
      vertex 51.2 11.48 91.85
      vertex 62.435 10.9 91.85
      vertex 62.435 11.48 91.85
    endloop
  endfacet
  facet normal 0 0 1
    outer loop
      vertex 51.2 11.48 91.85
      vertex 50.655 10.9 91.85
      vertex 62.435 10.9 91.85
    endloop
  endfacet
  facet normal 0 0 1
    outer loop
      vertex 51.2 16.14 91.85
      vertex 50.655 10.9 91.85
      vertex 51.2 11.48 91.85
    endloop
  endfacet
  facet normal 1 -0 0
    outer loop
      vertex 50.655 10.9 95.85
      vertex 50.655 18 91.85
      vertex 50.655 18 95.85
    endloop
  endfacet
  facet normal 1 0 0
    outer loop
      vertex 50.655 18 91.85
      vertex 50.655 10.9 95.85
      vertex 50.655 10.9 91.85
    endloop
  endfacet
  facet normal 0 0 1
    outer loop
      vertex 50.655 18 95.85
      vertex 48.135 14 95.85
      vertex 50.655 10.9 95.85
    endloop
  endfacet
  facet normal 0 0 1
    outer loop
      vertex 50.655 18 95.85
      vertex 48.0518 14.5253 95.85
      vertex 48.135 14 95.85
    endloop
  endfacet
  facet normal 0 0 1
    outer loop
      vertex 50.655 18 95.85
      vertex 47.8103 14.9992 95.85
      vertex 48.0518 14.5253 95.85
    endloop
  endfacet
  facet normal 0 0 1
    outer loop
      vertex 50.655 18 95.85
      vertex 47.4342 15.3753 95.85
      vertex 47.8103 14.9992 95.85
    endloop
  endfacet
  facet normal 0 0 1
    outer loop
      vertex 50.655 18 95.85
      vertex 46.9603 15.6168 95.85
      vertex 47.4342 15.3753 95.85
    endloop
  endfacet
  facet normal 0 0 1
    outer loop
      vertex 50.655 18 95.85
      vertex 46.435 15.7 95.85
      vertex 46.9603 15.6168 95.85
    endloop
  endfacet
  facet normal -0 0 1
    outer loop
      vertex 42.835 18 95.85
      vertex 46.435 15.7 95.85
      vertex 50.655 18 95.85
    endloop
  endfacet
  facet normal 0 0 1
    outer loop
      vertex 45.0597 14.9992 95.85
      vertex 42.435 17.6 95.85
      vertex 44.8182 14.5253 95.85
    endloop
  endfacet
  facet normal -0 0 1
    outer loop
      vertex 42.435 17.6 95.85
      vertex 45.0597 14.9992 95.85
      vertex 42.835 18 95.85
    endloop
  endfacet
  facet normal 0 0 1
    outer loop
      vertex 45.4358 15.3753 95.85
      vertex 42.835 18 95.85
      vertex 45.0597 14.9992 95.85
    endloop
  endfacet
  facet normal 0 0 1
    outer loop
      vertex 45.9097 15.6168 95.85
      vertex 42.835 18 95.85
      vertex 45.4358 15.3753 95.85
    endloop
  endfacet
  facet normal 0 0 1
    outer loop
      vertex 46.435 15.7 95.85
      vertex 42.835 18 95.85
      vertex 45.9097 15.6168 95.85
    endloop
  endfacet
  facet normal -0 0 1
    outer loop
      vertex 50.655 10.9 95.85
      vertex 62.435 10 95.85
      vertex 62.435 10.9 95.85
    endloop
  endfacet
  facet normal -0 0 1
    outer loop
      vertex 48.0518 13.4747 95.85
      vertex 50.655 10.9 95.85
      vertex 48.135 14 95.85
    endloop
  endfacet
  facet normal -0 0 1
    outer loop
      vertex 47.8103 13.0008 95.85
      vertex 50.655 10.9 95.85
      vertex 48.0518 13.4747 95.85
    endloop
  endfacet
  facet normal -0 0 1
    outer loop
      vertex 47.4342 12.6247 95.85
      vertex 50.655 10.9 95.85
      vertex 47.8103 13.0008 95.85
    endloop
  endfacet
  facet normal -0 0 1
    outer loop
      vertex 46.9603 12.3832 95.85
      vertex 50.655 10.9 95.85
      vertex 47.4342 12.6247 95.85
    endloop
  endfacet
  facet normal -0 0 1
    outer loop
      vertex 46.435 12.3 95.85
      vertex 50.655 10.9 95.85
      vertex 46.9603 12.3832 95.85
    endloop
  endfacet
  facet normal 0 0 1
    outer loop
      vertex 42.435 10 95.85
      vertex 46.435 12.3 95.85
      vertex 45.9097 12.3832 95.85
    endloop
  endfacet
  facet normal 0 0 1
    outer loop
      vertex 44.8182 14.5253 95.85
      vertex 42.435 17.6 95.85
      vertex 44.735 14 95.85
    endloop
  endfacet
  facet normal 0 0 1
    outer loop
      vertex 42.435 10 95.85
      vertex 44.735 14 95.85
      vertex 42.435 17.6 95.85
    endloop
  endfacet
  facet normal 0 0 1
    outer loop
      vertex 44.735 14 95.85
      vertex 42.435 10 95.85
      vertex 44.8182 13.4747 95.85
    endloop
  endfacet
  facet normal 0 0 1
    outer loop
      vertex 50.655 10.9 95.85
      vertex 42.435 10 95.85
      vertex 62.435 10 95.85
    endloop
  endfacet
  facet normal 0 0 1
    outer loop
      vertex 46.435 12.3 95.85
      vertex 42.435 10 95.85
      vertex 50.655 10.9 95.85
    endloop
  endfacet
  facet normal 0 0 1
    outer loop
      vertex 45.4358 12.6247 95.85
      vertex 42.435 10 95.85
      vertex 45.9097 12.3832 95.85
    endloop
  endfacet
  facet normal 0 0 1
    outer loop
      vertex 45.0597 13.0008 95.85
      vertex 42.435 10 95.85
      vertex 45.4358 12.6247 95.85
    endloop
  endfacet
  facet normal 0 0 1
    outer loop
      vertex 44.8182 13.4747 95.85
      vertex 42.435 10 95.85
      vertex 45.0597 13.0008 95.85
    endloop
  endfacet
  facet normal 0 1 -0
    outer loop
      vertex 62.435 10.9 91.85
      vertex 50.655 10.9 95.85
      vertex 62.435 10.9 95.85
    endloop
  endfacet
  facet normal 0 1 0
    outer loop
      vertex 50.655 10.9 95.85
      vertex 62.435 10.9 91.85
      vertex 50.655 10.9 91.85
    endloop
  endfacet
endsolid OpenSCAD_Model
