solid OpenSCAD_Model
  facet normal -0.707107 -0.707107 0
    outer loop
      vertex -62.435 -109.6 -17.6
      vertex -62.035 -110 -10
      vertex -62.435 -109.6 -10
    endloop
  endfacet
  facet normal -0.707107 -0.707107 0
    outer loop
      vertex -62.435 -109.6 -17.6
      vertex -62.035 -110 -17.6
      vertex -62.035 -110 -10
    endloop
  endfacet
  facet normal -0.707107 -0.707107 0
    outer loop
      vertex -62.035 -110 -17.6
      vertex -62.435 -109.6 -17.6
      vertex -62.235 -109.8 -17.8
    endloop
  endfacet
  facet normal 1 -0 0
    outer loop
      vertex -42.435 -109.6 -10
      vertex -42.435 -95.96 -17.6
      vertex -42.435 -95.96 -10
    endloop
  endfacet
  facet normal 1 0 0
    outer loop
      vertex -42.435 -95.96 -17.6
      vertex -42.435 -109.6 -10
      vertex -42.435 -109.6 -17.6
    endloop
  endfacet
  facet normal -1 0 0
    outer loop
      vertex -62.435 -91.96 -17.6
      vertex -62.435 -95.96 -10.99
      vertex -62.435 -91.96 -10.99
    endloop
  endfacet
  facet normal -1 0 0
    outer loop
      vertex -62.435 -109.6 -17.6
      vertex -62.435 -95.96 -10.99
      vertex -62.435 -91.96 -17.6
    endloop
  endfacet
  facet normal -1 0 0
    outer loop
      vertex -62.435 -109.6 -10
      vertex -62.435 -95.96 -10.99
      vertex -62.435 -109.6 -17.6
    endloop
  endfacet
  facet normal -1 0 0
    outer loop
      vertex -62.435 -95.96 -10.99
      vertex -62.435 -109.6 -10
      vertex -62.435 -95.96 -10
    endloop
  endfacet
  facet normal 0.707107 -0.707107 0
    outer loop
      vertex -42.835 -110 -17.6
      vertex -42.435 -109.6 -17.6
      vertex -42.435 -109.6 -10
    endloop
  endfacet
  facet normal 0.707107 -0.707107 0
    outer loop
      vertex -42.835 -110 -17.6
      vertex -42.435 -109.6 -10
      vertex -42.835 -110 -10
    endloop
  endfacet
  facet normal 0.707107 -0.707107 1.25117e-14
    outer loop
      vertex -42.435 -109.6 -17.6
      vertex -42.835 -110 -17.6
      vertex -42.635 -109.8 -17.8
    endloop
  endfacet
  facet normal -0 0 1
    outer loop
      vertex -53.0818 -100.927 -10
      vertex -42.435 -109.6 -10
      vertex -42.435 -95.96 -10
    endloop
  endfacet
  facet normal 0 0 1
    outer loop
      vertex -52.9719 -100.469 -10
      vertex -42.435 -95.96 -10
      vertex -52.935 -100 -10
    endloop
  endfacet
  facet normal 0 0 1
    outer loop
      vertex -42.435 -95.96 -10
      vertex -52.9719 -99.5307 -10
      vertex -52.935 -100 -10
    endloop
  endfacet
  facet normal 0 0 1
    outer loop
      vertex -42.435 -95.96 -10
      vertex -53.0818 -99.073 -10
      vertex -52.9719 -99.5307 -10
    endloop
  endfacet
  facet normal 0 0 1
    outer loop
      vertex -42.435 -95.96 -10
      vertex -53.262 -98.638 -10
      vertex -53.0818 -99.073 -10
    endloop
  endfacet
  facet normal 0 0 1
    outer loop
      vertex -42.435 -95.96 -10
      vertex -53.5079 -98.2366 -10
      vertex -53.262 -98.638 -10
    endloop
  endfacet
  facet normal 0 0 1
    outer loop
      vertex -42.435 -95.96 -10
      vertex -53.8137 -97.8787 -10
      vertex -53.5079 -98.2366 -10
    endloop
  endfacet
  facet normal 0 0 1
    outer loop
      vertex -42.435 -95.96 -10
      vertex -54.1716 -97.573 -10
      vertex -53.8137 -97.8787 -10
    endloop
  endfacet
  facet normal 0 0 1
    outer loop
      vertex -42.435 -95.96 -10
      vertex -54.573 -97.327 -10
      vertex -54.1716 -97.573 -10
    endloop
  endfacet
  facet normal 0 0 1
    outer loop
      vertex -42.435 -95.96 -10
      vertex -55.0079 -97.1468 -10
      vertex -54.573 -97.327 -10
    endloop
  endfacet
  facet normal 0 0 1
    outer loop
      vertex -42.435 -95.96 -10
      vertex -55.4657 -97.0369 -10
      vertex -55.0079 -97.1468 -10
    endloop
  endfacet
  facet normal 0 0 1
    outer loop
      vertex -42.435 -95.96 -10
      vertex -55.935 -97 -10
      vertex -55.4657 -97.0369 -10
    endloop
  endfacet
  facet normal 0 0 1
    outer loop
      vertex -62.435 -95.96 -10
      vertex -58.935 -100 -10
      vertex -58.8981 -99.5307 -10
    endloop
  endfacet
  facet normal 0 0 1
    outer loop
      vertex -62.435 -95.96 -10
      vertex -58.8981 -99.5307 -10
      vertex -58.7882 -99.073 -10
    endloop
  endfacet
  facet normal -0 0 1
    outer loop
      vertex -62.435 -95.96 -10
      vertex -55.935 -97 -10
      vertex -42.435 -95.96 -10
    endloop
  endfacet
  facet normal 0 0 1
    outer loop
      vertex -62.435 -95.96 -10
      vertex -56.4043 -97.0369 -10
      vertex -55.935 -97 -10
    endloop
  endfacet
  facet normal 0 0 1
    outer loop
      vertex -62.435 -95.96 -10
      vertex -56.862 -97.1468 -10
      vertex -56.4043 -97.0369 -10
    endloop
  endfacet
  facet normal 0 0 1
    outer loop
      vertex -62.435 -95.96 -10
      vertex -57.297 -97.327 -10
      vertex -56.862 -97.1468 -10
    endloop
  endfacet
  facet normal 0 0 1
    outer loop
      vertex -62.435 -95.96 -10
      vertex -57.6984 -97.573 -10
      vertex -57.297 -97.327 -10
    endloop
  endfacet
  facet normal 0 0 1
    outer loop
      vertex -62.435 -95.96 -10
      vertex -58.0563 -97.8787 -10
      vertex -57.6984 -97.573 -10
    endloop
  endfacet
  facet normal 0 0 1
    outer loop
      vertex -62.435 -95.96 -10
      vertex -58.362 -98.2366 -10
      vertex -58.0563 -97.8787 -10
    endloop
  endfacet
  facet normal 0 0 1
    outer loop
      vertex -62.435 -95.96 -10
      vertex -58.608 -98.638 -10
      vertex -58.362 -98.2366 -10
    endloop
  endfacet
  facet normal 0 0 1
    outer loop
      vertex -62.435 -95.96 -10
      vertex -58.7882 -99.073 -10
      vertex -58.608 -98.638 -10
    endloop
  endfacet
  facet normal 0 0 1
    outer loop
      vertex -58.935 -100 -10
      vertex -62.435 -95.96 -10
      vertex -62.435 -109.6 -10
    endloop
  endfacet
  facet normal 0 0 1
    outer loop
      vertex -58.935 -100 -10
      vertex -62.435 -109.6 -10
      vertex -62.035 -110 -10
    endloop
  endfacet
  facet normal 0 0 1
    outer loop
      vertex -53.0818 -100.927 -10
      vertex -42.435 -95.96 -10
      vertex -52.9719 -100.469 -10
    endloop
  endfacet
  facet normal -0 0 1
    outer loop
      vertex -53.262 -101.362 -10
      vertex -42.435 -109.6 -10
      vertex -53.0818 -100.927 -10
    endloop
  endfacet
  facet normal 0 0 1
    outer loop
      vertex -42.435 -109.6 -10
      vertex -53.262 -101.362 -10
      vertex -42.835 -110 -10
    endloop
  endfacet
  facet normal -0 0 1
    outer loop
      vertex -53.5079 -101.763 -10
      vertex -42.835 -110 -10
      vertex -53.262 -101.362 -10
    endloop
  endfacet
  facet normal -0 0 1
    outer loop
      vertex -53.8137 -102.121 -10
      vertex -42.835 -110 -10
      vertex -53.5079 -101.763 -10
    endloop
  endfacet
  facet normal -0 0 1
    outer loop
      vertex -54.1716 -102.427 -10
      vertex -42.835 -110 -10
      vertex -53.8137 -102.121 -10
    endloop
  endfacet
  facet normal -0 0 1
    outer loop
      vertex -54.573 -102.673 -10
      vertex -42.835 -110 -10
      vertex -54.1716 -102.427 -10
    endloop
  endfacet
  facet normal -0 0 1
    outer loop
      vertex -55.0079 -102.853 -10
      vertex -42.835 -110 -10
      vertex -54.573 -102.673 -10
    endloop
  endfacet
  facet normal 0 0 1
    outer loop
      vertex -62.035 -110 -10
      vertex -55.0079 -102.853 -10
      vertex -55.4657 -102.963 -10
    endloop
  endfacet
  facet normal 0 0 1
    outer loop
      vertex -62.035 -110 -10
      vertex -55.4657 -102.963 -10
      vertex -55.935 -103 -10
    endloop
  endfacet
  facet normal 0 0 1
    outer loop
      vertex -62.035 -110 -10
      vertex -55.935 -103 -10
      vertex -56.4043 -102.963 -10
    endloop
  endfacet
  facet normal 0 0 1
    outer loop
      vertex -62.035 -110 -10
      vertex -56.4043 -102.963 -10
      vertex -56.862 -102.853 -10
    endloop
  endfacet
  facet normal 0 0 1
    outer loop
      vertex -62.035 -110 -10
      vertex -56.862 -102.853 -10
      vertex -57.297 -102.673 -10
    endloop
  endfacet
  facet normal 0 0 1
    outer loop
      vertex -55.0079 -102.853 -10
      vertex -62.035 -110 -10
      vertex -42.835 -110 -10
    endloop
  endfacet
  facet normal 0 0 1
    outer loop
      vertex -57.6984 -102.427 -10
      vertex -62.035 -110 -10
      vertex -57.297 -102.673 -10
    endloop
  endfacet
  facet normal 0 0 1
    outer loop
      vertex -58.0563 -102.121 -10
      vertex -62.035 -110 -10
      vertex -57.6984 -102.427 -10
    endloop
  endfacet
  facet normal 0 0 1
    outer loop
      vertex -58.362 -101.763 -10
      vertex -62.035 -110 -10
      vertex -58.0563 -102.121 -10
    endloop
  endfacet
  facet normal 0 0 1
    outer loop
      vertex -58.608 -101.362 -10
      vertex -62.035 -110 -10
      vertex -58.362 -101.763 -10
    endloop
  endfacet
  facet normal 0 0 1
    outer loop
      vertex -58.7882 -100.927 -10
      vertex -62.035 -110 -10
      vertex -58.608 -101.362 -10
    endloop
  endfacet
  facet normal 0 0 1
    outer loop
      vertex -58.8981 -100.469 -10
      vertex -62.035 -110 -10
      vertex -58.7882 -100.927 -10
    endloop
  endfacet
  facet normal 0 0 1
    outer loop
      vertex -62.035 -110 -10
      vertex -58.8981 -100.469 -10
      vertex -58.935 -100 -10
    endloop
  endfacet
  facet normal 0 -1 0
    outer loop
      vertex -62.035 -110 -17.6
      vertex -42.835 -110 -10
      vertex -62.035 -110 -10
    endloop
  endfacet
  facet normal 0 -1 -0
    outer loop
      vertex -42.835 -110 -10
      vertex -62.035 -110 -17.6
      vertex -42.835 -110 -17.6
    endloop
  endfacet
  facet normal 0 -0.707107 -0.707107
    outer loop
      vertex -62.035 -109.6 -18
      vertex -62.035 -110 -17.6
      vertex -62.235 -109.8 -17.8
    endloop
  endfacet
  facet normal 0 -0.707107 -0.707107
    outer loop
      vertex -62.035 -110 -17.6
      vertex -62.035 -109.6 -18
      vertex -42.835 -110 -17.6
    endloop
  endfacet
  facet normal -0 -0.707107 -0.707107
    outer loop
      vertex -42.835 -109.6 -18
      vertex -42.835 -110 -17.6
      vertex -62.035 -109.6 -18
    endloop
  endfacet
  facet normal 0 -0.707107 -0.707107
    outer loop
      vertex -42.835 -110 -17.6
      vertex -42.835 -109.6 -18
      vertex -42.635 -109.8 -17.8
    endloop
  endfacet
  facet normal 0 0 -1
    outer loop
      vertex -42.835 -109.6 -18
      vertex -49.585 -102.2 -18
      vertex -43.285 -102.2 -18
    endloop
  endfacet
  facet normal 0 0 -1
    outer loop
      vertex -50.799 -100.813 -18
      vertex -49.585 -99.8 -18
      vertex -49.585 -102.2 -18
    endloop
  endfacet
  facet normal 0 0 -1
    outer loop
      vertex -49.585 -99.8 -18
      vertex -50.799 -100.813 -18
      vertex -50.735 -100 -18
    endloop
  endfacet
  facet normal 0 0 -1
    outer loop
      vertex -49.585 -102.2 -18
      vertex -50.9583 -101.477 -18
      vertex -50.799 -100.813 -18
    endloop
  endfacet
  facet normal 0 0 -1
    outer loop
      vertex -50.9583 -101.477 -18
      vertex -49.585 -102.2 -18
      vertex -42.835 -109.6 -18
    endloop
  endfacet
  facet normal 0 0 -1
    outer loop
      vertex -43.285 -102.2 -18
      vertex -42.835 -95.96 -18
      vertex -42.835 -109.6 -18
    endloop
  endfacet
  facet normal 0 0 -1
    outer loop
      vertex -43.285 -99.8 -18
      vertex -42.835 -95.96 -18
      vertex -43.285 -102.2 -18
    endloop
  endfacet
  facet normal 0 0 -1
    outer loop
      vertex -49.585 -99.8 -18
      vertex -42.835 -95.96 -18
      vertex -43.285 -99.8 -18
    endloop
  endfacet
  facet normal 0 0 -1
    outer loop
      vertex -50.799 -99.1865 -18
      vertex -49.585 -99.8 -18
      vertex -50.735 -100 -18
    endloop
  endfacet
  facet normal 0 0 -1
    outer loop
      vertex -50.9895 -98.3931 -18
      vertex -49.585 -99.8 -18
      vertex -50.799 -99.1865 -18
    endloop
  endfacet
  facet normal 0 -0 -1
    outer loop
      vertex -50.765 -95.96 -18
      vertex -49.585 -99.8 -18
      vertex -50.9895 -98.3931 -18
    endloop
  endfacet
  facet normal 0 0 -1
    outer loop
      vertex -49.585 -99.8 -18
      vertex -50.765 -95.96 -18
      vertex -42.835 -95.96 -18
    endloop
  endfacet
  facet normal 0 0 -1
    outer loop
      vertex -51.3018 -97.6393 -18
      vertex -50.765 -95.96 -18
      vertex -50.9895 -98.3931 -18
    endloop
  endfacet
  facet normal 0 0 -1
    outer loop
      vertex -51.7281 -96.9435 -18
      vertex -50.765 -95.96 -18
      vertex -51.3018 -97.6393 -18
    endloop
  endfacet
  facet normal 0 0 -1
    outer loop
      vertex -52.258 -96.323 -18
      vertex -50.765 -95.96 -18
      vertex -51.7281 -96.9435 -18
    endloop
  endfacet
  facet normal 0 0 -1
    outer loop
      vertex -52.8785 -95.7931 -18
      vertex -50.765 -95.96 -18
      vertex -52.258 -96.323 -18
    endloop
  endfacet
  facet normal 0 0 -1
    outer loop
      vertex -50.765 -95.96 -18
      vertex -52.8785 -95.7931 -18
      vertex -50.765 -91.96 -18
    endloop
  endfacet
  facet normal 0 0 -1
    outer loop
      vertex -53.5742 -95.3668 -18
      vertex -50.765 -91.96 -18
      vertex -52.8785 -95.7931 -18
    endloop
  endfacet
  facet normal 0 0 -1
    outer loop
      vertex -54.3281 -95.0545 -18
      vertex -50.765 -91.96 -18
      vertex -53.5742 -95.3668 -18
    endloop
  endfacet
  facet normal 0 0 -1
    outer loop
      vertex -55.1215 -94.864 -18
      vertex -50.765 -91.96 -18
      vertex -54.3281 -95.0545 -18
    endloop
  endfacet
  facet normal 0 0 -1
    outer loop
      vertex -55.935 -94.8 -18
      vertex -50.765 -91.96 -18
      vertex -55.1215 -94.864 -18
    endloop
  endfacet
  facet normal 0 0 -1
    outer loop
      vertex -60.475 -91.96 -18
      vertex -55.935 -94.8 -18
      vertex -56.7485 -94.864 -18
    endloop
  endfacet
  facet normal 0 0 -1
    outer loop
      vertex -60.475 -91.96 -18
      vertex -56.7485 -94.864 -18
      vertex -57.4117 -95.0233 -18
    endloop
  endfacet
  facet normal 0 0 -1
    outer loop
      vertex -55.935 -94.8 -18
      vertex -60.475 -91.96 -18
      vertex -50.765 -91.96 -18
    endloop
  endfacet
  facet normal 0 0 -1
    outer loop
      vertex -42.835 -109.6 -18
      vertex -50.9895 -101.607 -18
      vertex -50.9583 -101.477 -18
    endloop
  endfacet
  facet normal 0 0 -1
    outer loop
      vertex -42.835 -109.6 -18
      vertex -51.3018 -102.361 -18
      vertex -50.9895 -101.607 -18
    endloop
  endfacet
  facet normal 0 0 -1
    outer loop
      vertex -42.835 -109.6 -18
      vertex -51.7281 -103.056 -18
      vertex -51.3018 -102.361 -18
    endloop
  endfacet
  facet normal 0 0 -1
    outer loop
      vertex -42.835 -109.6 -18
      vertex -52.258 -103.677 -18
      vertex -51.7281 -103.056 -18
    endloop
  endfacet
  facet normal 0 0 -1
    outer loop
      vertex -42.835 -109.6 -18
      vertex -52.8785 -104.207 -18
      vertex -52.258 -103.677 -18
    endloop
  endfacet
  facet normal 0 0 -1
    outer loop
      vertex -42.835 -109.6 -18
      vertex -53.5742 -104.633 -18
      vertex -52.8785 -104.207 -18
    endloop
  endfacet
  facet normal 0 0 -1
    outer loop
      vertex -42.835 -109.6 -18
      vertex -54.3281 -104.945 -18
      vertex -53.5742 -104.633 -18
    endloop
  endfacet
  facet normal 0 0 -1
    outer loop
      vertex -42.835 -109.6 -18
      vertex -55.1215 -105.136 -18
      vertex -54.3281 -104.945 -18
    endloop
  endfacet
  facet normal 0 0 -1
    outer loop
      vertex -62.035 -109.6 -18
      vertex -55.1215 -105.136 -18
      vertex -42.835 -109.6 -18
    endloop
  endfacet
  facet normal 0 0 -1
    outer loop
      vertex -55.1215 -105.136 -18
      vertex -62.035 -109.6 -18
      vertex -55.935 -105.2 -18
    endloop
  endfacet
  facet normal -0 0 -1
    outer loop
      vertex -55.935 -105.2 -18
      vertex -62.035 -109.6 -18
      vertex -56.7485 -105.136 -18
    endloop
  endfacet
  facet normal -0 0 -1
    outer loop
      vertex -61.071 -100.813 -18
      vertex -62.035 -109.6 -18
      vertex -61.135 -100 -18
    endloop
  endfacet
  facet normal -0 0 -1
    outer loop
      vertex -60.8805 -101.607 -18
      vertex -62.035 -109.6 -18
      vertex -61.071 -100.813 -18
    endloop
  endfacet
  facet normal -0 0 -1
    outer loop
      vertex -60.5682 -102.361 -18
      vertex -62.035 -109.6 -18
      vertex -60.8805 -101.607 -18
    endloop
  endfacet
  facet normal -0 0 -1
    outer loop
      vertex -60.1419 -103.056 -18
      vertex -62.035 -109.6 -18
      vertex -60.5682 -102.361 -18
    endloop
  endfacet
  facet normal -0 0 -1
    outer loop
      vertex -59.612 -103.677 -18
      vertex -62.035 -109.6 -18
      vertex -60.1419 -103.056 -18
    endloop
  endfacet
  facet normal -0 0 -1
    outer loop
      vertex -58.9915 -104.207 -18
      vertex -62.035 -109.6 -18
      vertex -59.612 -103.677 -18
    endloop
  endfacet
  facet normal -0 0 -1
    outer loop
      vertex -58.2957 -104.633 -18
      vertex -62.035 -109.6 -18
      vertex -58.9915 -104.207 -18
    endloop
  endfacet
  facet normal -0 0 -1
    outer loop
      vertex -57.5419 -104.945 -18
      vertex -62.035 -109.6 -18
      vertex -58.2957 -104.633 -18
    endloop
  endfacet
  facet normal -0 0 -1
    outer loop
      vertex -56.7485 -105.136 -18
      vertex -62.035 -109.6 -18
      vertex -57.5419 -104.945 -18
    endloop
  endfacet
  facet normal 0 0 -1
    outer loop
      vertex -57.5419 -95.0545 -18
      vertex -60.475 -91.96 -18
      vertex -57.4117 -95.0233 -18
    endloop
  endfacet
  facet normal 0 0 -1
    outer loop
      vertex -58.2957 -95.3668 -18
      vertex -60.475 -91.96 -18
      vertex -57.5419 -95.0545 -18
    endloop
  endfacet
  facet normal 0 0 -1
    outer loop
      vertex -58.9915 -95.7931 -18
      vertex -60.475 -91.96 -18
      vertex -58.2957 -95.3668 -18
    endloop
  endfacet
  facet normal 0 0 -1
    outer loop
      vertex -59.612 -96.323 -18
      vertex -60.475 -91.96 -18
      vertex -58.9915 -95.7931 -18
    endloop
  endfacet
  facet normal 0 0 -1
    outer loop
      vertex -62.035 -91.96 -18
      vertex -59.612 -96.323 -18
      vertex -60.1419 -96.9435 -18
    endloop
  endfacet
  facet normal 0 0 -1
    outer loop
      vertex -62.035 -91.96 -18
      vertex -60.1419 -96.9435 -18
      vertex -60.5682 -97.6393 -18
    endloop
  endfacet
  facet normal 0 0 -1
    outer loop
      vertex -62.035 -91.96 -18
      vertex -60.5682 -97.6393 -18
      vertex -60.8805 -98.3931 -18
    endloop
  endfacet
  facet normal 0 0 -1
    outer loop
      vertex -62.035 -91.96 -18
      vertex -60.8805 -98.3931 -18
      vertex -61.071 -99.1865 -18
    endloop
  endfacet
  facet normal 0 0 -1
    outer loop
      vertex -62.035 -91.96 -18
      vertex -61.135 -100 -18
      vertex -62.035 -109.6 -18
    endloop
  endfacet
  facet normal 0 0 -1
    outer loop
      vertex -61.135 -100 -18
      vertex -62.035 -91.96 -18
      vertex -61.071 -99.1865 -18
    endloop
  endfacet
  facet normal 0 0 -1
    outer loop
      vertex -59.612 -96.323 -18
      vertex -62.035 -91.96 -18
      vertex -60.475 -91.96 -18
    endloop
  endfacet
  facet normal 0.707107 0 -0.707107
    outer loop
      vertex -42.435 -109.6 -17.6
      vertex -42.835 -95.96 -18
      vertex -42.435 -95.96 -17.6
    endloop
  endfacet
  facet normal 0.707107 0 -0.707107
    outer loop
      vertex -42.435 -109.6 -17.6
      vertex -42.835 -109.6 -18
      vertex -42.835 -95.96 -18
    endloop
  endfacet
  facet normal 0.707107 1.25117e-14 -0.707107
    outer loop
      vertex -42.835 -109.6 -18
      vertex -42.435 -109.6 -17.6
      vertex -42.635 -109.8 -17.8
    endloop
  endfacet
  facet normal -0.707107 0 -0.707107
    outer loop
      vertex -62.435 -109.6 -17.6
      vertex -62.035 -109.6 -18
      vertex -62.235 -109.8 -17.8
    endloop
  endfacet
  facet normal -0.707107 0 -0.707107
    outer loop
      vertex -62.035 -109.6 -18
      vertex -62.435 -109.6 -17.6
      vertex -62.035 -91.96 -18
    endloop
  endfacet
  facet normal -0.707107 0 -0.707107
    outer loop
      vertex -62.035 -91.96 -18
      vertex -62.435 -109.6 -17.6
      vertex -62.435 -91.96 -17.6
    endloop
  endfacet
  facet normal 0.890979 -0 0.454044
    outer loop
      vertex -48.0518 -104 -14.5253
      vertex -47.8103 -102 -14.9992
      vertex -48.0518 -102 -14.5253
    endloop
  endfacet
  facet normal 0.890979 0 0.454044
    outer loop
      vertex -47.8103 -102 -14.9992
      vertex -48.0518 -104 -14.5253
      vertex -47.8103 -104 -14.9992
    endloop
  endfacet
  facet normal 0.890979 -0 0.454044
    outer loop
      vertex -48.0518 -100 -14.5253
      vertex -47.8103 -95.96 -14.9992
      vertex -48.0518 -95.96 -14.5253
    endloop
  endfacet
  facet normal 0.890979 0 0.454044
    outer loop
      vertex -47.8103 -95.96 -14.9992
      vertex -48.0518 -100 -14.5253
      vertex -47.8103 -100 -14.9992
    endloop
  endfacet
  facet normal 0.987688 -0 0.156436
    outer loop
      vertex -48.135 -104 -14
      vertex -48.0518 -102 -14.5253
      vertex -48.135 -102 -14
    endloop
  endfacet
  facet normal 0.987688 0 0.156436
    outer loop
      vertex -48.0518 -102 -14.5253
      vertex -48.135 -104 -14
      vertex -48.0518 -104 -14.5253
    endloop
  endfacet
  facet normal 0.987688 -0 0.156436
    outer loop
      vertex -48.135 -100 -14
      vertex -48.0518 -95.96 -14.5253
      vertex -48.135 -95.96 -14
    endloop
  endfacet
  facet normal 0.987688 0 0.156436
    outer loop
      vertex -48.0518 -95.96 -14.5253
      vertex -48.135 -100 -14
      vertex -48.0518 -100 -14.5253
    endloop
  endfacet
  facet normal 0.707107 0 0.707107
    outer loop
      vertex -47.8103 -102 -14.9992
      vertex -47.4342 -104 -15.3753
      vertex -47.4342 -102 -15.3753
    endloop
  endfacet
  facet normal 0.707107 0 0.707107
    outer loop
      vertex -47.4342 -104 -15.3753
      vertex -47.8103 -102 -14.9992
      vertex -47.8103 -104 -14.9992
    endloop
  endfacet
  facet normal 0.707107 0 0.707107
    outer loop
      vertex -47.8103 -95.96 -14.9992
      vertex -47.4342 -100 -15.3753
      vertex -47.4342 -95.96 -15.3753
    endloop
  endfacet
  facet normal 0.707107 0 0.707107
    outer loop
      vertex -47.4342 -100 -15.3753
      vertex -47.8103 -95.96 -14.9992
      vertex -47.8103 -100 -14.9992
    endloop
  endfacet
  facet normal 0.156436 0 -0.987688
    outer loop
      vertex -46.9603 -104 -12.3832
      vertex -46.435 -102 -12.3
      vertex -46.435 -104 -12.3
    endloop
  endfacet
  facet normal 0.156436 0 -0.987688
    outer loop
      vertex -46.435 -102 -12.3
      vertex -46.9603 -104 -12.3832
      vertex -46.9603 -102 -12.3832
    endloop
  endfacet
  facet normal 0.156436 0 -0.987688
    outer loop
      vertex -46.9603 -100 -12.3832
      vertex -46.435 -95.96 -12.3
      vertex -46.435 -100 -12.3
    endloop
  endfacet
  facet normal 0.156436 0 -0.987688
    outer loop
      vertex -46.435 -95.96 -12.3
      vertex -46.9603 -100 -12.3832
      vertex -46.9603 -95.96 -12.3832
    endloop
  endfacet
  facet normal -0.454044 0 0.890979
    outer loop
      vertex -45.9097 -102 -15.6168
      vertex -45.4358 -104 -15.3753
      vertex -45.4358 -102 -15.3753
    endloop
  endfacet
  facet normal -0.454044 0 0.890979
    outer loop
      vertex -45.4358 -104 -15.3753
      vertex -45.9097 -102 -15.6168
      vertex -45.9097 -104 -15.6168
    endloop
  endfacet
  facet normal -0.454044 0 0.890979
    outer loop
      vertex -45.9097 -95.96 -15.6168
      vertex -45.4358 -100 -15.3753
      vertex -45.4358 -95.96 -15.3753
    endloop
  endfacet
  facet normal -0.454044 0 0.890979
    outer loop
      vertex -45.4358 -100 -15.3753
      vertex -45.9097 -95.96 -15.6168
      vertex -45.9097 -100 -15.6168
    endloop
  endfacet
  facet normal 0.454044 0 -0.890979
    outer loop
      vertex -47.4342 -104 -12.6247
      vertex -46.9603 -102 -12.3832
      vertex -46.9603 -104 -12.3832
    endloop
  endfacet
  facet normal 0.454044 0 -0.890979
    outer loop
      vertex -46.9603 -102 -12.3832
      vertex -47.4342 -104 -12.6247
      vertex -47.4342 -102 -12.6247
    endloop
  endfacet
  facet normal 0.454044 0 -0.890979
    outer loop
      vertex -47.4342 -100 -12.6247
      vertex -46.9603 -95.96 -12.3832
      vertex -46.9603 -100 -12.3832
    endloop
  endfacet
  facet normal 0.454044 0 -0.890979
    outer loop
      vertex -46.9603 -95.96 -12.3832
      vertex -47.4342 -100 -12.6247
      vertex -47.4342 -95.96 -12.6247
    endloop
  endfacet
  facet normal 0.707107 0 -0.707107
    outer loop
      vertex -47.8103 -104 -13.0008
      vertex -47.4342 -102 -12.6247
      vertex -47.4342 -104 -12.6247
    endloop
  endfacet
  facet normal 0.707107 0 -0.707107
    outer loop
      vertex -47.4342 -102 -12.6247
      vertex -47.8103 -104 -13.0008
      vertex -47.8103 -102 -13.0008
    endloop
  endfacet
  facet normal 0.707107 0 -0.707107
    outer loop
      vertex -47.8103 -100 -13.0008
      vertex -47.4342 -95.96 -12.6247
      vertex -47.4342 -100 -12.6247
    endloop
  endfacet
  facet normal 0.707107 0 -0.707107
    outer loop
      vertex -47.4342 -95.96 -12.6247
      vertex -47.8103 -100 -13.0008
      vertex -47.8103 -95.96 -13.0008
    endloop
  endfacet
  facet normal -0.156436 0 -0.987688
    outer loop
      vertex -46.435 -104 -12.3
      vertex -45.9097 -102 -12.3832
      vertex -45.9097 -104 -12.3832
    endloop
  endfacet
  facet normal -0.156436 0 -0.987688
    outer loop
      vertex -45.9097 -102 -12.3832
      vertex -46.435 -104 -12.3
      vertex -46.435 -102 -12.3
    endloop
  endfacet
  facet normal -0.156436 0 -0.987688
    outer loop
      vertex -46.435 -100 -12.3
      vertex -45.9097 -95.96 -12.3832
      vertex -45.9097 -100 -12.3832
    endloop
  endfacet
  facet normal -0.156436 0 -0.987688
    outer loop
      vertex -45.9097 -95.96 -12.3832
      vertex -46.435 -100 -12.3
      vertex -46.435 -95.96 -12.3
    endloop
  endfacet
  facet normal -0.890979 0 0.454044
    outer loop
      vertex -45.0597 -104 -14.9992
      vertex -44.8182 -102 -14.5253
      vertex -45.0597 -102 -14.9992
    endloop
  endfacet
  facet normal -0.890979 0 0.454044
    outer loop
      vertex -44.8182 -102 -14.5253
      vertex -45.0597 -104 -14.9992
      vertex -44.8182 -104 -14.5253
    endloop
  endfacet
  facet normal -0.890979 0 0.454044
    outer loop
      vertex -45.0597 -100 -14.9992
      vertex -44.8182 -95.96 -14.5253
      vertex -45.0597 -95.96 -14.9992
    endloop
  endfacet
  facet normal -0.890979 0 0.454044
    outer loop
      vertex -44.8182 -95.96 -14.5253
      vertex -45.0597 -100 -14.9992
      vertex -44.8182 -100 -14.5253
    endloop
  endfacet
  facet normal 0.987688 0 -0.156436
    outer loop
      vertex -48.0518 -104 -13.4747
      vertex -48.135 -102 -14
      vertex -48.0518 -102 -13.4747
    endloop
  endfacet
  facet normal 0.987688 0 -0.156436
    outer loop
      vertex -48.135 -102 -14
      vertex -48.0518 -104 -13.4747
      vertex -48.135 -104 -14
    endloop
  endfacet
  facet normal 0.987688 0 -0.156436
    outer loop
      vertex -48.0518 -100 -13.4747
      vertex -48.135 -95.96 -14
      vertex -48.0518 -95.96 -13.4747
    endloop
  endfacet
  facet normal 0.987688 0 -0.156436
    outer loop
      vertex -48.135 -95.96 -14
      vertex -48.0518 -100 -13.4747
      vertex -48.135 -100 -14
    endloop
  endfacet
  facet normal -0.987688 0 0.156436
    outer loop
      vertex -44.8182 -104 -14.5253
      vertex -44.735 -102 -14
      vertex -44.8182 -102 -14.5253
    endloop
  endfacet
  facet normal -0.987688 0 0.156436
    outer loop
      vertex -44.735 -102 -14
      vertex -44.8182 -104 -14.5253
      vertex -44.735 -104 -14
    endloop
  endfacet
  facet normal -0.987688 0 0.156436
    outer loop
      vertex -44.8182 -100 -14.5253
      vertex -44.735 -95.96 -14
      vertex -44.8182 -95.96 -14.5253
    endloop
  endfacet
  facet normal -0.987688 0 0.156436
    outer loop
      vertex -44.735 -95.96 -14
      vertex -44.8182 -100 -14.5253
      vertex -44.735 -100 -14
    endloop
  endfacet
  facet normal 0.890979 0 -0.454044
    outer loop
      vertex -47.8103 -104 -13.0008
      vertex -48.0518 -102 -13.4747
      vertex -47.8103 -102 -13.0008
    endloop
  endfacet
  facet normal 0.890979 0 -0.454044
    outer loop
      vertex -48.0518 -102 -13.4747
      vertex -47.8103 -104 -13.0008
      vertex -48.0518 -104 -13.4747
    endloop
  endfacet
  facet normal 0.890979 0 -0.454044
    outer loop
      vertex -47.8103 -100 -13.0008
      vertex -48.0518 -95.96 -13.4747
      vertex -47.8103 -95.96 -13.0008
    endloop
  endfacet
  facet normal 0.890979 0 -0.454044
    outer loop
      vertex -48.0518 -95.96 -13.4747
      vertex -47.8103 -100 -13.0008
      vertex -48.0518 -100 -13.4747
    endloop
  endfacet
  facet normal 0.156436 0 0.987688
    outer loop
      vertex -46.9603 -102 -15.6168
      vertex -46.435 -104 -15.7
      vertex -46.435 -102 -15.7
    endloop
  endfacet
  facet normal 0.156436 0 0.987688
    outer loop
      vertex -46.435 -104 -15.7
      vertex -46.9603 -102 -15.6168
      vertex -46.9603 -104 -15.6168
    endloop
  endfacet
  facet normal 0.156436 0 0.987688
    outer loop
      vertex -46.9603 -95.96 -15.6168
      vertex -46.435 -100 -15.7
      vertex -46.435 -95.96 -15.7
    endloop
  endfacet
  facet normal 0.156436 0 0.987688
    outer loop
      vertex -46.435 -100 -15.7
      vertex -46.9603 -95.96 -15.6168
      vertex -46.9603 -100 -15.6168
    endloop
  endfacet
  facet normal 0.454044 0 0.890979
    outer loop
      vertex -47.4342 -102 -15.3753
      vertex -46.9603 -104 -15.6168
      vertex -46.9603 -102 -15.6168
    endloop
  endfacet
  facet normal 0.454044 0 0.890979
    outer loop
      vertex -46.9603 -104 -15.6168
      vertex -47.4342 -102 -15.3753
      vertex -47.4342 -104 -15.3753
    endloop
  endfacet
  facet normal 0.454044 0 0.890979
    outer loop
      vertex -47.4342 -95.96 -15.3753
      vertex -46.9603 -100 -15.6168
      vertex -46.9603 -95.96 -15.6168
    endloop
  endfacet
  facet normal 0.454044 0 0.890979
    outer loop
      vertex -46.9603 -100 -15.6168
      vertex -47.4342 -95.96 -15.3753
      vertex -47.4342 -100 -15.3753
    endloop
  endfacet
  facet normal -0.890979 0 -0.454044
    outer loop
      vertex -44.8182 -104 -13.4747
      vertex -45.0597 -102 -13.0008
      vertex -44.8182 -102 -13.4747
    endloop
  endfacet
  facet normal -0.890979 -0 -0.454044
    outer loop
      vertex -45.0597 -102 -13.0008
      vertex -44.8182 -104 -13.4747
      vertex -45.0597 -104 -13.0008
    endloop
  endfacet
  facet normal -0.890979 0 -0.454044
    outer loop
      vertex -44.8182 -100 -13.4747
      vertex -45.0597 -95.96 -13.0008
      vertex -44.8182 -95.96 -13.4747
    endloop
  endfacet
  facet normal -0.890979 -0 -0.454044
    outer loop
      vertex -45.0597 -95.96 -13.0008
      vertex -44.8182 -100 -13.4747
      vertex -45.0597 -100 -13.0008
    endloop
  endfacet
  facet normal -0.156436 0 0.987688
    outer loop
      vertex -46.435 -102 -15.7
      vertex -45.9097 -104 -15.6168
      vertex -45.9097 -102 -15.6168
    endloop
  endfacet
  facet normal -0.156436 0 0.987688
    outer loop
      vertex -45.9097 -104 -15.6168
      vertex -46.435 -102 -15.7
      vertex -46.435 -104 -15.7
    endloop
  endfacet
  facet normal -0.156436 0 0.987688
    outer loop
      vertex -46.435 -95.96 -15.7
      vertex -45.9097 -100 -15.6168
      vertex -45.9097 -95.96 -15.6168
    endloop
  endfacet
  facet normal -0.156436 0 0.987688
    outer loop
      vertex -45.9097 -100 -15.6168
      vertex -46.435 -95.96 -15.7
      vertex -46.435 -100 -15.7
    endloop
  endfacet
  facet normal -0.707107 0 -0.707107
    outer loop
      vertex -45.0597 -104 -13.0008
      vertex -45.4358 -102 -12.6247
      vertex -45.0597 -102 -13.0008
    endloop
  endfacet
  facet normal -0.707107 -0 -0.707107
    outer loop
      vertex -45.4358 -102 -12.6247
      vertex -45.0597 -104 -13.0008
      vertex -45.4358 -104 -12.6247
    endloop
  endfacet
  facet normal -0.707107 0 -0.707107
    outer loop
      vertex -45.0597 -100 -13.0008
      vertex -45.4358 -95.96 -12.6247
      vertex -45.0597 -95.96 -13.0008
    endloop
  endfacet
  facet normal -0.707107 -0 -0.707107
    outer loop
      vertex -45.4358 -95.96 -12.6247
      vertex -45.0597 -100 -13.0008
      vertex -45.4358 -100 -12.6247
    endloop
  endfacet
  facet normal 0 1 0
    outer loop
      vertex -45.9097 -104 -12.3832
      vertex -46.9603 -104 -12.3832
      vertex -46.435 -104 -12.3
    endloop
  endfacet
  facet normal 0 1 0
    outer loop
      vertex -45.4358 -104 -12.6247
      vertex -46.9603 -104 -12.3832
      vertex -45.9097 -104 -12.3832
    endloop
  endfacet
  facet normal 0 1 0
    outer loop
      vertex -45.4358 -104 -12.6247
      vertex -47.4342 -104 -12.6247
      vertex -46.9603 -104 -12.3832
    endloop
  endfacet
  facet normal 0 1 0
    outer loop
      vertex -45.0597 -104 -13.0008
      vertex -47.4342 -104 -12.6247
      vertex -45.4358 -104 -12.6247
    endloop
  endfacet
  facet normal 0 1 0
    outer loop
      vertex -45.0597 -104 -13.0008
      vertex -47.8103 -104 -13.0008
      vertex -47.4342 -104 -12.6247
    endloop
  endfacet
  facet normal 0 1 0
    outer loop
      vertex -44.8182 -104 -13.4747
      vertex -47.8103 -104 -13.0008
      vertex -45.0597 -104 -13.0008
    endloop
  endfacet
  facet normal 0 1 0
    outer loop
      vertex -44.8182 -104 -13.4747
      vertex -48.0518 -104 -13.4747
      vertex -47.8103 -104 -13.0008
    endloop
  endfacet
  facet normal 0 1 0
    outer loop
      vertex -44.735 -104 -14
      vertex -48.0518 -104 -13.4747
      vertex -44.8182 -104 -13.4747
    endloop
  endfacet
  facet normal 0 1 0
    outer loop
      vertex -44.735 -104 -14
      vertex -48.135 -104 -14
      vertex -48.0518 -104 -13.4747
    endloop
  endfacet
  facet normal 0 1 -0
    outer loop
      vertex -44.8182 -104 -14.5253
      vertex -48.135 -104 -14
      vertex -44.735 -104 -14
    endloop
  endfacet
  facet normal 0 1 0
    outer loop
      vertex -44.8182 -104 -14.5253
      vertex -48.0518 -104 -14.5253
      vertex -48.135 -104 -14
    endloop
  endfacet
  facet normal 0 1 -0
    outer loop
      vertex -45.0597 -104 -14.9992
      vertex -48.0518 -104 -14.5253
      vertex -44.8182 -104 -14.5253
    endloop
  endfacet
  facet normal 0 1 0
    outer loop
      vertex -45.0597 -104 -14.9992
      vertex -47.8103 -104 -14.9992
      vertex -48.0518 -104 -14.5253
    endloop
  endfacet
  facet normal 0 1 -0
    outer loop
      vertex -45.4358 -104 -15.3753
      vertex -47.8103 -104 -14.9992
      vertex -45.0597 -104 -14.9992
    endloop
  endfacet
  facet normal 0 1 0
    outer loop
      vertex -45.4358 -104 -15.3753
      vertex -47.4342 -104 -15.3753
      vertex -47.8103 -104 -14.9992
    endloop
  endfacet
  facet normal 0 1 -0
    outer loop
      vertex -45.9097 -104 -15.6168
      vertex -47.4342 -104 -15.3753
      vertex -45.4358 -104 -15.3753
    endloop
  endfacet
  facet normal 0 1 0
    outer loop
      vertex -45.9097 -104 -15.6168
      vertex -46.9603 -104 -15.6168
      vertex -47.4342 -104 -15.3753
    endloop
  endfacet
  facet normal -0 1 0
    outer loop
      vertex -46.9603 -104 -15.6168
      vertex -45.9097 -104 -15.6168
      vertex -46.435 -104 -15.7
    endloop
  endfacet
  facet normal -0.707107 0 0.707107
    outer loop
      vertex -45.4358 -104 -15.3753
      vertex -45.0597 -102 -14.9992
      vertex -45.4358 -102 -15.3753
    endloop
  endfacet
  facet normal -0.707107 0 0.707107
    outer loop
      vertex -45.0597 -102 -14.9992
      vertex -45.4358 -104 -15.3753
      vertex -45.0597 -104 -14.9992
    endloop
  endfacet
  facet normal -0.707107 0 0.707107
    outer loop
      vertex -45.4358 -100 -15.3753
      vertex -45.0597 -95.96 -14.9992
      vertex -45.4358 -95.96 -15.3753
    endloop
  endfacet
  facet normal -0.707107 0 0.707107
    outer loop
      vertex -45.0597 -95.96 -14.9992
      vertex -45.4358 -100 -15.3753
      vertex -45.0597 -100 -14.9992
    endloop
  endfacet
  facet normal -0.987688 0 -0.156436
    outer loop
      vertex -44.735 -104 -14
      vertex -44.8182 -102 -13.4747
      vertex -44.735 -102 -14
    endloop
  endfacet
  facet normal -0.987688 -0 -0.156436
    outer loop
      vertex -44.8182 -102 -13.4747
      vertex -44.735 -104 -14
      vertex -44.8182 -104 -13.4747
    endloop
  endfacet
  facet normal -0.987688 0 -0.156436
    outer loop
      vertex -44.735 -100 -14
      vertex -44.8182 -95.96 -13.4747
      vertex -44.735 -95.96 -14
    endloop
  endfacet
  facet normal -0.987688 -0 -0.156436
    outer loop
      vertex -44.8182 -95.96 -13.4747
      vertex -44.735 -100 -14
      vertex -44.8182 -100 -13.4747
    endloop
  endfacet
  facet normal -0.454044 0 -0.890979
    outer loop
      vertex -45.9097 -104 -12.3832
      vertex -45.4358 -102 -12.6247
      vertex -45.4358 -104 -12.6247
    endloop
  endfacet
  facet normal -0.454044 0 -0.890979
    outer loop
      vertex -45.4358 -102 -12.6247
      vertex -45.9097 -104 -12.3832
      vertex -45.9097 -102 -12.3832
    endloop
  endfacet
  facet normal -0.454044 0 -0.890979
    outer loop
      vertex -45.9097 -100 -12.3832
      vertex -45.4358 -95.96 -12.6247
      vertex -45.4358 -100 -12.6247
    endloop
  endfacet
  facet normal -0.454044 0 -0.890979
    outer loop
      vertex -45.4358 -95.96 -12.6247
      vertex -45.9097 -100 -12.3832
      vertex -45.9097 -95.96 -12.3832
    endloop
  endfacet
  facet normal 1 -0 0
    outer loop
      vertex -49.385 -102 -11.05
      vertex -49.385 -100 -16.75
      vertex -49.385 -100 -11.05
    endloop
  endfacet
  facet normal 1 0 0
    outer loop
      vertex -49.385 -100 -16.75
      vertex -49.385 -102 -11.05
      vertex -49.385 -102 -16.75
    endloop
  endfacet
  facet normal 0 1 0
    outer loop
      vertex -43.485 -102 -11.05
      vertex -46.435 -102 -12.3
      vertex -49.385 -102 -11.05
    endloop
  endfacet
  facet normal 0 1 0
    outer loop
      vertex -43.485 -102 -11.05
      vertex -45.9097 -102 -12.3832
      vertex -46.435 -102 -12.3
    endloop
  endfacet
  facet normal 0 1 0
    outer loop
      vertex -43.485 -102 -11.05
      vertex -45.4358 -102 -12.6247
      vertex -45.9097 -102 -12.3832
    endloop
  endfacet
  facet normal 0 1 0
    outer loop
      vertex -43.485 -102 -11.05
      vertex -45.0597 -102 -13.0008
      vertex -45.4358 -102 -12.6247
    endloop
  endfacet
  facet normal 0 1 0
    outer loop
      vertex -43.485 -102 -11.05
      vertex -44.8182 -102 -13.4747
      vertex -45.0597 -102 -13.0008
    endloop
  endfacet
  facet normal 0 1 0
    outer loop
      vertex -43.485 -102 -11.05
      vertex -44.735 -102 -14
      vertex -44.8182 -102 -13.4747
    endloop
  endfacet
  facet normal 0 1 -0
    outer loop
      vertex -43.485 -102 -16.75
      vertex -44.735 -102 -14
      vertex -43.485 -102 -11.05
    endloop
  endfacet
  facet normal 0 1 0
    outer loop
      vertex -45.9097 -102 -15.6168
      vertex -43.485 -102 -16.75
      vertex -46.435 -102 -15.7
    endloop
  endfacet
  facet normal 0 1 0
    outer loop
      vertex -45.4358 -102 -15.3753
      vertex -43.485 -102 -16.75
      vertex -45.9097 -102 -15.6168
    endloop
  endfacet
  facet normal 0 1 0
    outer loop
      vertex -45.0597 -102 -14.9992
      vertex -43.485 -102 -16.75
      vertex -45.4358 -102 -15.3753
    endloop
  endfacet
  facet normal 0 1 0
    outer loop
      vertex -44.8182 -102 -14.5253
      vertex -43.485 -102 -16.75
      vertex -45.0597 -102 -14.9992
    endloop
  endfacet
  facet normal 0 1 0
    outer loop
      vertex -44.735 -102 -14
      vertex -43.485 -102 -16.75
      vertex -44.8182 -102 -14.5253
    endloop
  endfacet
  facet normal 0 1 -0
    outer loop
      vertex -46.9603 -102 -12.3832
      vertex -49.385 -102 -11.05
      vertex -46.435 -102 -12.3
    endloop
  endfacet
  facet normal 0 1 -0
    outer loop
      vertex -47.4342 -102 -12.6247
      vertex -49.385 -102 -11.05
      vertex -46.9603 -102 -12.3832
    endloop
  endfacet
  facet normal 0 1 -0
    outer loop
      vertex -47.8103 -102 -13.0008
      vertex -49.385 -102 -11.05
      vertex -47.4342 -102 -12.6247
    endloop
  endfacet
  facet normal 0 1 -0
    outer loop
      vertex -48.0518 -102 -13.4747
      vertex -49.385 -102 -11.05
      vertex -47.8103 -102 -13.0008
    endloop
  endfacet
  facet normal 0 1 -0
    outer loop
      vertex -48.135 -102 -14
      vertex -49.385 -102 -11.05
      vertex -48.0518 -102 -13.4747
    endloop
  endfacet
  facet normal 0 1 0
    outer loop
      vertex -49.385 -102 -16.75
      vertex -48.135 -102 -14
      vertex -48.0518 -102 -14.5253
    endloop
  endfacet
  facet normal 0 1 0
    outer loop
      vertex -49.385 -102 -16.75
      vertex -46.435 -102 -15.7
      vertex -43.485 -102 -16.75
    endloop
  endfacet
  facet normal 0 1 0
    outer loop
      vertex -48.135 -102 -14
      vertex -49.385 -102 -16.75
      vertex -49.385 -102 -11.05
    endloop
  endfacet
  facet normal 0 1 0
    outer loop
      vertex -47.8103 -102 -14.9992
      vertex -49.385 -102 -16.75
      vertex -48.0518 -102 -14.5253
    endloop
  endfacet
  facet normal 0 1 0
    outer loop
      vertex -47.4342 -102 -15.3753
      vertex -49.385 -102 -16.75
      vertex -47.8103 -102 -14.9992
    endloop
  endfacet
  facet normal 0 1 0
    outer loop
      vertex -46.9603 -102 -15.6168
      vertex -49.385 -102 -16.75
      vertex -47.4342 -102 -15.3753
    endloop
  endfacet
  facet normal 0 1 0
    outer loop
      vertex -46.435 -102 -15.7
      vertex -49.385 -102 -16.75
      vertex -46.9603 -102 -15.6168
    endloop
  endfacet
  facet normal 0 -1 0
    outer loop
      vertex -49.385 -100 -11.05
      vertex -46.435 -100 -12.3
      vertex -43.485 -100 -11.05
    endloop
  endfacet
  facet normal 0 -1 0
    outer loop
      vertex -49.385 -100 -11.05
      vertex -46.9603 -100 -12.3832
      vertex -46.435 -100 -12.3
    endloop
  endfacet
  facet normal 0 -1 0
    outer loop
      vertex -49.385 -100 -11.05
      vertex -47.4342 -100 -12.6247
      vertex -46.9603 -100 -12.3832
    endloop
  endfacet
  facet normal 0 -1 0
    outer loop
      vertex -49.385 -100 -11.05
      vertex -47.8103 -100 -13.0008
      vertex -47.4342 -100 -12.6247
    endloop
  endfacet
  facet normal 0 -1 0
    outer loop
      vertex -49.385 -100 -11.05
      vertex -48.0518 -100 -13.4747
      vertex -47.8103 -100 -13.0008
    endloop
  endfacet
  facet normal 0 -1 0
    outer loop
      vertex -49.385 -100 -11.05
      vertex -48.135 -100 -14
      vertex -48.0518 -100 -13.4747
    endloop
  endfacet
  facet normal 0 -1 0
    outer loop
      vertex -49.385 -100 -16.75
      vertex -48.135 -100 -14
      vertex -49.385 -100 -11.05
    endloop
  endfacet
  facet normal 0 -1 -0
    outer loop
      vertex -46.9603 -100 -15.6168
      vertex -49.385 -100 -16.75
      vertex -46.435 -100 -15.7
    endloop
  endfacet
  facet normal 0 -1 -0
    outer loop
      vertex -47.4342 -100 -15.3753
      vertex -49.385 -100 -16.75
      vertex -46.9603 -100 -15.6168
    endloop
  endfacet
  facet normal 0 -1 -0
    outer loop
      vertex -47.8103 -100 -14.9992
      vertex -49.385 -100 -16.75
      vertex -47.4342 -100 -15.3753
    endloop
  endfacet
  facet normal 0 -1 -0
    outer loop
      vertex -48.0518 -100 -14.5253
      vertex -49.385 -100 -16.75
      vertex -47.8103 -100 -14.9992
    endloop
  endfacet
  facet normal 0 -1 -0
    outer loop
      vertex -48.135 -100 -14
      vertex -49.385 -100 -16.75
      vertex -48.0518 -100 -14.5253
    endloop
  endfacet
  facet normal 0 -1 0
    outer loop
      vertex -45.9097 -100 -12.3832
      vertex -43.485 -100 -11.05
      vertex -46.435 -100 -12.3
    endloop
  endfacet
  facet normal 0 -1 0
    outer loop
      vertex -45.4358 -100 -12.6247
      vertex -43.485 -100 -11.05
      vertex -45.9097 -100 -12.3832
    endloop
  endfacet
  facet normal 0 -1 0
    outer loop
      vertex -45.0597 -100 -13.0008
      vertex -43.485 -100 -11.05
      vertex -45.4358 -100 -12.6247
    endloop
  endfacet
  facet normal 0 -1 0
    outer loop
      vertex -44.8182 -100 -13.4747
      vertex -43.485 -100 -11.05
      vertex -45.0597 -100 -13.0008
    endloop
  endfacet
  facet normal 0 -1 0
    outer loop
      vertex -44.735 -100 -14
      vertex -43.485 -100 -11.05
      vertex -44.8182 -100 -13.4747
    endloop
  endfacet
  facet normal 0 -1 0
    outer loop
      vertex -43.485 -100 -16.75
      vertex -44.735 -100 -14
      vertex -44.8182 -100 -14.5253
    endloop
  endfacet
  facet normal 0 -1 0
    outer loop
      vertex -43.485 -100 -16.75
      vertex -46.435 -100 -15.7
      vertex -49.385 -100 -16.75
    endloop
  endfacet
  facet normal 0 -1 0
    outer loop
      vertex -44.735 -100 -14
      vertex -43.485 -100 -16.75
      vertex -43.485 -100 -11.05
    endloop
  endfacet
  facet normal 0 -1 0
    outer loop
      vertex -45.0597 -100 -14.9992
      vertex -43.485 -100 -16.75
      vertex -44.8182 -100 -14.5253
    endloop
  endfacet
  facet normal 0 -1 0
    outer loop
      vertex -45.4358 -100 -15.3753
      vertex -43.485 -100 -16.75
      vertex -45.0597 -100 -14.9992
    endloop
  endfacet
  facet normal 0 -1 0
    outer loop
      vertex -45.9097 -100 -15.6168
      vertex -43.485 -100 -16.75
      vertex -45.4358 -100 -15.3753
    endloop
  endfacet
  facet normal 0 -1 0
    outer loop
      vertex -46.435 -100 -15.7
      vertex -43.485 -100 -16.75
      vertex -45.9097 -100 -15.6168
    endloop
  endfacet
  facet normal -1 0 0
    outer loop
      vertex -43.485 -102 -16.75
      vertex -43.485 -100 -11.05
      vertex -43.485 -100 -16.75
    endloop
  endfacet
  facet normal -1 -0 0
    outer loop
      vertex -43.485 -100 -11.05
      vertex -43.485 -102 -16.75
      vertex -43.485 -102 -11.05
    endloop
  endfacet
  facet normal 0 0 -1
    outer loop
      vertex -49.385 -102 -11.05
      vertex -43.485 -100 -11.05
      vertex -43.485 -102 -11.05
    endloop
  endfacet
  facet normal -0 0 -1
    outer loop
      vertex -43.485 -100 -11.05
      vertex -49.385 -102 -11.05
      vertex -49.385 -100 -11.05
    endloop
  endfacet
  facet normal 1 -0 0
    outer loop
      vertex -49.585 -102.2 -16.75
      vertex -49.585 -99.8 -18
      vertex -49.585 -99.8 -16.75
    endloop
  endfacet
  facet normal 1 0 0
    outer loop
      vertex -49.585 -99.8 -18
      vertex -49.585 -102.2 -16.75
      vertex -49.585 -102.2 -18
    endloop
  endfacet
  facet normal 0 1 -0
    outer loop
      vertex -43.285 -102.2 -18
      vertex -49.585 -102.2 -16.75
      vertex -43.285 -102.2 -16.75
    endloop
  endfacet
  facet normal 0 1 0
    outer loop
      vertex -49.585 -102.2 -16.75
      vertex -43.285 -102.2 -18
      vertex -49.585 -102.2 -18
    endloop
  endfacet
  facet normal 0 -1 0
    outer loop
      vertex -49.585 -99.8 -18
      vertex -43.285 -99.8 -16.75
      vertex -49.585 -99.8 -16.75
    endloop
  endfacet
  facet normal 0 -1 -0
    outer loop
      vertex -43.285 -99.8 -16.75
      vertex -49.585 -99.8 -18
      vertex -43.285 -99.8 -18
    endloop
  endfacet
  facet normal -1 0 0
    outer loop
      vertex -43.285 -102.2 -18
      vertex -43.285 -99.8 -16.75
      vertex -43.285 -99.8 -18
    endloop
  endfacet
  facet normal -1 -0 0
    outer loop
      vertex -43.285 -99.8 -16.75
      vertex -43.285 -102.2 -18
      vertex -43.285 -102.2 -16.75
    endloop
  endfacet
  facet normal 0 0 -1
    outer loop
      vertex -43.285 -102.2 -16.75
      vertex -43.485 -102 -16.75
      vertex -43.285 -99.8 -16.75
    endloop
  endfacet
  facet normal 0 0 -1
    outer loop
      vertex -43.285 -102.2 -16.75
      vertex -49.385 -102 -16.75
      vertex -43.485 -102 -16.75
    endloop
  endfacet
  facet normal -0 0 -1
    outer loop
      vertex -49.385 -102 -16.75
      vertex -49.585 -102.2 -16.75
      vertex -49.385 -100 -16.75
    endloop
  endfacet
  facet normal 0 0 -1
    outer loop
      vertex -49.585 -102.2 -16.75
      vertex -49.385 -102 -16.75
      vertex -43.285 -102.2 -16.75
    endloop
  endfacet
  facet normal 0 0 -1
    outer loop
      vertex -43.485 -100 -16.75
      vertex -43.285 -99.8 -16.75
      vertex -43.485 -102 -16.75
    endloop
  endfacet
  facet normal 0 0 -1
    outer loop
      vertex -49.385 -100 -16.75
      vertex -43.285 -99.8 -16.75
      vertex -43.485 -100 -16.75
    endloop
  endfacet
  facet normal 0 0 -1
    outer loop
      vertex -49.385 -100 -16.75
      vertex -49.585 -99.8 -16.75
      vertex -43.285 -99.8 -16.75
    endloop
  endfacet
  facet normal 0 0 -1
    outer loop
      vertex -49.585 -99.8 -16.75
      vertex -49.385 -100 -16.75
      vertex -49.585 -102.2 -16.75
    endloop
  endfacet
  facet normal 0 1 -0
    outer loop
      vertex -60.475 -91.96 -18
      vertex -62.435 -91.96 -10.99
      vertex -50.765 -91.96 -10.99
    endloop
  endfacet
  facet normal 0 1 0
    outer loop
      vertex -62.435 -91.96 -10.99
      vertex -60.475 -91.96 -18
      vertex -62.435 -91.96 -17.6
    endloop
  endfacet
  facet normal 0 1 0
    outer loop
      vertex -60.475 -91.96 -18
      vertex -50.765 -91.96 -10.99
      vertex -50.765 -91.96 -18
    endloop
  endfacet
  facet normal 0 1 0
    outer loop
      vertex -62.435 -91.96 -17.6
      vertex -60.475 -91.96 -18
      vertex -62.035 -91.96 -18
    endloop
  endfacet
  facet normal 1 -0 0
    outer loop
      vertex -50.765 -95.96 -10.99
      vertex -50.765 -91.96 -18
      vertex -50.765 -91.96 -10.99
    endloop
  endfacet
  facet normal 1 0 0
    outer loop
      vertex -50.765 -91.96 -18
      vertex -50.765 -95.96 -10.99
      vertex -50.765 -95.96 -18
    endloop
  endfacet
  facet normal 0 1 0
    outer loop
      vertex -42.435 -95.96 -10
      vertex -50.765 -95.96 -10.99
      vertex -62.435 -95.96 -10
    endloop
  endfacet
  facet normal 0 1 0
    outer loop
      vertex -42.435 -95.96 -10
      vertex -46.435 -95.96 -12.3
      vertex -50.765 -95.96 -10.99
    endloop
  endfacet
  facet normal 0 1 0
    outer loop
      vertex -42.435 -95.96 -10
      vertex -45.9097 -95.96 -12.3832
      vertex -46.435 -95.96 -12.3
    endloop
  endfacet
  facet normal 0 1 0
    outer loop
      vertex -42.435 -95.96 -10
      vertex -45.4358 -95.96 -12.6247
      vertex -45.9097 -95.96 -12.3832
    endloop
  endfacet
  facet normal 0 1 0
    outer loop
      vertex -42.435 -95.96 -10
      vertex -45.0597 -95.96 -13.0008
      vertex -45.4358 -95.96 -12.6247
    endloop
  endfacet
  facet normal 0 1 0
    outer loop
      vertex -42.435 -95.96 -10
      vertex -44.8182 -95.96 -13.4747
      vertex -45.0597 -95.96 -13.0008
    endloop
  endfacet
  facet normal 0 1 0
    outer loop
      vertex -42.435 -95.96 -10
      vertex -44.735 -95.96 -14
      vertex -44.8182 -95.96 -13.4747
    endloop
  endfacet
  facet normal 0 1 -0
    outer loop
      vertex -42.435 -95.96 -17.6
      vertex -44.735 -95.96 -14
      vertex -42.435 -95.96 -10
    endloop
  endfacet
  facet normal 0 1 0
    outer loop
      vertex -44.735 -95.96 -14
      vertex -42.435 -95.96 -17.6
      vertex -44.8182 -95.96 -14.5253
    endloop
  endfacet
  facet normal 0 1 0
    outer loop
      vertex -45.4358 -95.96 -15.3753
      vertex -42.835 -95.96 -18
      vertex -45.9097 -95.96 -15.6168
    endloop
  endfacet
  facet normal 0 1 -0
    outer loop
      vertex -42.835 -95.96 -18
      vertex -45.4358 -95.96 -15.3753
      vertex -42.435 -95.96 -17.6
    endloop
  endfacet
  facet normal 0 1 0
    outer loop
      vertex -45.0597 -95.96 -14.9992
      vertex -42.435 -95.96 -17.6
      vertex -45.4358 -95.96 -15.3753
    endloop
  endfacet
  facet normal 0 1 0
    outer loop
      vertex -44.8182 -95.96 -14.5253
      vertex -42.435 -95.96 -17.6
      vertex -45.0597 -95.96 -14.9992
    endloop
  endfacet
  facet normal 0 1 0
    outer loop
      vertex -62.435 -95.96 -10
      vertex -50.765 -95.96 -10.99
      vertex -62.435 -95.96 -10.99
    endloop
  endfacet
  facet normal 0 1 -0
    outer loop
      vertex -46.9603 -95.96 -12.3832
      vertex -50.765 -95.96 -10.99
      vertex -46.435 -95.96 -12.3
    endloop
  endfacet
  facet normal 0 1 -0
    outer loop
      vertex -47.4342 -95.96 -12.6247
      vertex -50.765 -95.96 -10.99
      vertex -46.9603 -95.96 -12.3832
    endloop
  endfacet
  facet normal 0 1 -0
    outer loop
      vertex -47.8103 -95.96 -13.0008
      vertex -50.765 -95.96 -10.99
      vertex -47.4342 -95.96 -12.6247
    endloop
  endfacet
  facet normal 0 1 -0
    outer loop
      vertex -48.0518 -95.96 -13.4747
      vertex -50.765 -95.96 -10.99
      vertex -47.8103 -95.96 -13.0008
    endloop
  endfacet
  facet normal 0 1 -0
    outer loop
      vertex -48.135 -95.96 -14
      vertex -50.765 -95.96 -10.99
      vertex -48.0518 -95.96 -13.4747
    endloop
  endfacet
  facet normal 0 1 0
    outer loop
      vertex -50.765 -95.96 -18
      vertex -48.135 -95.96 -14
      vertex -48.0518 -95.96 -14.5253
    endloop
  endfacet
  facet normal 0 1 0
    outer loop
      vertex -50.765 -95.96 -18
      vertex -48.0518 -95.96 -14.5253
      vertex -47.8103 -95.96 -14.9992
    endloop
  endfacet
  facet normal 0 1 0
    outer loop
      vertex -45.9097 -95.96 -15.6168
      vertex -42.835 -95.96 -18
      vertex -46.435 -95.96 -15.7
    endloop
  endfacet
  facet normal 0 1 0
    outer loop
      vertex -50.765 -95.96 -18
      vertex -46.435 -95.96 -15.7
      vertex -42.835 -95.96 -18
    endloop
  endfacet
  facet normal 0 1 0
    outer loop
      vertex -46.435 -95.96 -15.7
      vertex -50.765 -95.96 -18
      vertex -46.9603 -95.96 -15.6168
    endloop
  endfacet
  facet normal 0 1 0
    outer loop
      vertex -48.135 -95.96 -14
      vertex -50.765 -95.96 -18
      vertex -50.765 -95.96 -10.99
    endloop
  endfacet
  facet normal 0 1 0
    outer loop
      vertex -47.4342 -95.96 -15.3753
      vertex -50.765 -95.96 -18
      vertex -47.8103 -95.96 -14.9992
    endloop
  endfacet
  facet normal 0 1 0
    outer loop
      vertex -46.9603 -95.96 -15.6168
      vertex -50.765 -95.96 -18
      vertex -47.4342 -95.96 -15.3753
    endloop
  endfacet
  facet normal -0 0 1
    outer loop
      vertex -62.435 -91.96 -10.99
      vertex -50.765 -95.96 -10.99
      vertex -50.765 -91.96 -10.99
    endloop
  endfacet
  facet normal 0 0 1
    outer loop
      vertex -50.765 -95.96 -10.99
      vertex -62.435 -91.96 -10.99
      vertex -62.435 -95.96 -10.99
    endloop
  endfacet
  facet normal 0.923867 -0.382714 0
    outer loop
      vertex -58.7882 -99.073 -10
      vertex -58.608 -98.638 -14.2
      vertex -58.608 -98.638 -10
    endloop
  endfacet
  facet normal 0.923867 -0.382714 0
    outer loop
      vertex -58.608 -98.638 -14.2
      vertex -58.7882 -99.073 -10
      vertex -58.7882 -99.073 -14.2
    endloop
  endfacet
  facet normal -0.972362 -0.233477 0
    outer loop
      vertex -52.9719 -99.5307 -14.2
      vertex -53.0818 -99.073 -10
      vertex -53.0818 -99.073 -14.2
    endloop
  endfacet
  facet normal -0.972362 -0.233477 0
    outer loop
      vertex -53.0818 -99.073 -10
      vertex -52.9719 -99.5307 -14.2
      vertex -52.9719 -99.5307 -10
    endloop
  endfacet
  facet normal -0.996923 -0.0783858 0
    outer loop
      vertex -52.935 -100 -14.2
      vertex -52.9719 -99.5307 -10
      vertex -52.9719 -99.5307 -14.2
    endloop
  endfacet
  facet normal -0.996923 -0.0783858 0
    outer loop
      vertex -52.9719 -99.5307 -10
      vertex -52.935 -100 -14.2
      vertex -52.935 -100 -10
    endloop
  endfacet
  facet normal -0.923867 -0.382714 0
    outer loop
      vertex -53.0818 -99.073 -14.2
      vertex -53.262 -98.638 -10
      vertex -53.262 -98.638 -14.2
    endloop
  endfacet
  facet normal -0.923867 -0.382714 0
    outer loop
      vertex -53.262 -98.638 -10
      vertex -53.0818 -99.073 -14.2
      vertex -53.0818 -99.073 -10
    endloop
  endfacet
  facet normal -0.522532 0.85262 0
    outer loop
      vertex -54.1716 -102.427 -14.2
      vertex -54.573 -102.673 -10
      vertex -54.1716 -102.427 -10
    endloop
  endfacet
  facet normal -0.522532 0.85262 0
    outer loop
      vertex -54.573 -102.673 -10
      vertex -54.1716 -102.427 -14.2
      vertex -54.573 -102.673 -14.2
    endloop
  endfacet
  facet normal -0.972397 0.233333 0
    outer loop
      vertex -53.0818 -100.927 -14.2
      vertex -52.9719 -100.469 -10
      vertex -52.9719 -100.469 -14.2
    endloop
  endfacet
  facet normal -0.972397 0.233333 0
    outer loop
      vertex -52.9719 -100.469 -10
      vertex -53.0818 -100.927 -14.2
      vertex -53.0818 -100.927 -10
    endloop
  endfacet
  facet normal -0.382427 0.923986 0
    outer loop
      vertex -54.573 -102.673 -14.2
      vertex -55.0079 -102.853 -10
      vertex -54.573 -102.673 -10
    endloop
  endfacet
  facet normal -0.382427 0.923986 0
    outer loop
      vertex -55.0079 -102.853 -10
      vertex -54.573 -102.673 -14.2
      vertex -55.0079 -102.853 -14.2
    endloop
  endfacet
  facet normal 0.382714 -0.923867 0
    outer loop
      vertex -57.297 -97.327 -14.2
      vertex -56.862 -97.1468 -10
      vertex -57.297 -97.327 -10
    endloop
  endfacet
  facet normal 0.382714 -0.923867 0
    outer loop
      vertex -56.862 -97.1468 -10
      vertex -57.297 -97.327 -14.2
      vertex -56.862 -97.1468 -14.2
    endloop
  endfacet
  facet normal 0.382352 0.924017 -0
    outer loop
      vertex -56.862 -102.853 -14.2
      vertex -57.297 -102.673 -10
      vertex -56.862 -102.853 -10
    endloop
  endfacet
  facet normal 0.382352 0.924017 0
    outer loop
      vertex -57.297 -102.673 -10
      vertex -56.862 -102.853 -14.2
      vertex -57.297 -102.673 -14.2
    endloop
  endfacet
  facet normal 0.522532 -0.85262 0
    outer loop
      vertex -57.6984 -97.573 -14.2
      vertex -57.297 -97.327 -10
      vertex -57.6984 -97.573 -10
    endloop
  endfacet
  facet normal 0.522532 -0.85262 0
    outer loop
      vertex -57.297 -97.327 -10
      vertex -57.6984 -97.573 -14.2
      vertex -57.297 -97.327 -14.2
    endloop
  endfacet
  facet normal -0.649478 -0.76038 0
    outer loop
      vertex -54.1716 -97.573 -14.2
      vertex -53.8137 -97.8787 -10
      vertex -54.1716 -97.573 -10
    endloop
  endfacet
  facet normal -0.649478 -0.76038 -0
    outer loop
      vertex -53.8137 -97.8787 -10
      vertex -54.1716 -97.573 -14.2
      vertex -53.8137 -97.8787 -14.2
    endloop
  endfacet
  facet normal 0.233477 -0.972362 0
    outer loop
      vertex -56.862 -97.1468 -14.2
      vertex -56.4043 -97.0369 -10
      vertex -56.862 -97.1468 -10
    endloop
  endfacet
  facet normal 0.233477 -0.972362 0
    outer loop
      vertex -56.4043 -97.0369 -10
      vertex -56.862 -97.1468 -14.2
      vertex -56.4043 -97.0369 -14.2
    endloop
  endfacet
  facet normal 0.923867 0.382714 0
    outer loop
      vertex -58.608 -101.362 -10
      vertex -58.7882 -100.927 -14.2
      vertex -58.7882 -100.927 -10
    endloop
  endfacet
  facet normal 0.923867 0.382714 0
    outer loop
      vertex -58.7882 -100.927 -14.2
      vertex -58.608 -101.362 -10
      vertex -58.608 -101.362 -14.2
    endloop
  endfacet
  facet normal 0.0783858 -0.996923 0
    outer loop
      vertex -56.4043 -97.0369 -14.2
      vertex -55.935 -97 -10
      vertex -56.4043 -97.0369 -10
    endloop
  endfacet
  facet normal 0.0783858 -0.996923 0
    outer loop
      vertex -55.935 -97 -10
      vertex -56.4043 -97.0369 -14.2
      vertex -55.935 -97 -14.2
    endloop
  endfacet
  facet normal 0.233678 0.972314 -0
    outer loop
      vertex -56.4043 -102.963 -14.2
      vertex -56.862 -102.853 -10
      vertex -56.4043 -102.963 -10
    endloop
  endfacet
  facet normal 0.233678 0.972314 0
    outer loop
      vertex -56.862 -102.853 -10
      vertex -56.4043 -102.963 -14.2
      vertex -56.862 -102.853 -14.2
    endloop
  endfacet
  facet normal -0.923867 0.382714 0
    outer loop
      vertex -53.262 -101.362 -14.2
      vertex -53.0818 -100.927 -10
      vertex -53.0818 -100.927 -14.2
    endloop
  endfacet
  facet normal -0.923867 0.382714 0
    outer loop
      vertex -53.0818 -100.927 -10
      vertex -53.262 -101.362 -14.2
      vertex -53.262 -101.362 -10
    endloop
  endfacet
  facet normal 0.76047 0.649373 0
    outer loop
      vertex -58.0563 -102.121 -10
      vertex -58.362 -101.763 -14.2
      vertex -58.362 -101.763 -10
    endloop
  endfacet
  facet normal 0.76047 0.649373 0
    outer loop
      vertex -58.362 -101.763 -14.2
      vertex -58.0563 -102.121 -10
      vertex -58.0563 -102.121 -14.2
    endloop
  endfacet
  facet normal 0.649478 -0.76038 0
    outer loop
      vertex -58.0563 -97.8787 -14.2
      vertex -57.6984 -97.573 -10
      vertex -58.0563 -97.8787 -10
    endloop
  endfacet
  facet normal 0.649478 -0.76038 0
    outer loop
      vertex -57.6984 -97.573 -10
      vertex -58.0563 -97.8787 -14.2
      vertex -57.6984 -97.573 -14.2
    endloop
  endfacet
  facet normal -0.0785969 0.996906 0
    outer loop
      vertex -55.4657 -102.963 -14.2
      vertex -55.935 -103 -10
      vertex -55.4657 -102.963 -10
    endloop
  endfacet
  facet normal -0.0785969 0.996906 0
    outer loop
      vertex -55.935 -103 -10
      vertex -55.4657 -102.963 -14.2
      vertex -55.935 -103 -14.2
    endloop
  endfacet
  facet normal 0.649846 0.760066 -0
    outer loop
      vertex -57.6984 -102.427 -14.2
      vertex -58.0563 -102.121 -10
      vertex -57.6984 -102.427 -10
    endloop
  endfacet
  facet normal 0.649846 0.760066 0
    outer loop
      vertex -58.0563 -102.121 -10
      vertex -57.6984 -102.427 -14.2
      vertex -58.0563 -102.121 -14.2
    endloop
  endfacet
  facet normal -0.852482 0.522756 0
    outer loop
      vertex -53.5079 -101.763 -14.2
      vertex -53.262 -101.362 -10
      vertex -53.262 -101.362 -14.2
    endloop
  endfacet
  facet normal -0.852482 0.522756 0
    outer loop
      vertex -53.262 -101.362 -10
      vertex -53.5079 -101.763 -14.2
      vertex -53.5079 -101.763 -10
    endloop
  endfacet
  facet normal -0.852714 -0.522378 0
    outer loop
      vertex -53.262 -98.638 -14.2
      vertex -53.5079 -98.2366 -10
      vertex -53.5079 -98.2366 -14.2
    endloop
  endfacet
  facet normal -0.852714 -0.522378 0
    outer loop
      vertex -53.5079 -98.2366 -10
      vertex -53.262 -98.638 -14.2
      vertex -53.262 -98.638 -10
    endloop
  endfacet
  facet normal -0.760275 -0.649601 0
    outer loop
      vertex -53.5079 -98.2366 -14.2
      vertex -53.8137 -97.8787 -10
      vertex -53.8137 -97.8787 -14.2
    endloop
  endfacet
  facet normal -0.760275 -0.649601 0
    outer loop
      vertex -53.8137 -97.8787 -10
      vertex -53.5079 -98.2366 -14.2
      vertex -53.5079 -98.2366 -10
    endloop
  endfacet
  facet normal 0.76038 -0.649478 0
    outer loop
      vertex -58.362 -98.2366 -10
      vertex -58.0563 -97.8787 -14.2
      vertex -58.0563 -97.8787 -10
    endloop
  endfacet
  facet normal 0.76038 -0.649478 0
    outer loop
      vertex -58.0563 -97.8787 -14.2
      vertex -58.362 -98.2366 -10
      vertex -58.362 -98.2366 -14.2
    endloop
  endfacet
  facet normal -0.0783858 -0.996923 0
    outer loop
      vertex -55.935 -97 -14.2
      vertex -55.4657 -97.0369 -10
      vertex -55.935 -97 -10
    endloop
  endfacet
  facet normal -0.0783858 -0.996923 -0
    outer loop
      vertex -55.4657 -97.0369 -10
      vertex -55.935 -97 -14.2
      vertex -55.4657 -97.0369 -14.2
    endloop
  endfacet
  facet normal -0.38279 -0.923836 0
    outer loop
      vertex -55.0079 -97.1468 -14.2
      vertex -54.573 -97.327 -10
      vertex -55.0079 -97.1468 -10
    endloop
  endfacet
  facet normal -0.38279 -0.923836 -0
    outer loop
      vertex -54.573 -97.327 -10
      vertex -55.0079 -97.1468 -14.2
      vertex -54.573 -97.327 -14.2
    endloop
  endfacet
  facet normal 0.972362 -0.233477 0
    outer loop
      vertex -58.8981 -99.5307 -10
      vertex -58.7882 -99.073 -14.2
      vertex -58.7882 -99.073 -10
    endloop
  endfacet
  facet normal 0.972362 -0.233477 0
    outer loop
      vertex -58.7882 -99.073 -14.2
      vertex -58.8981 -99.5307 -10
      vertex -58.8981 -99.5307 -14.2
    endloop
  endfacet
  facet normal 0.972397 0.233333 0
    outer loop
      vertex -58.7882 -100.927 -10
      vertex -58.8981 -100.469 -14.2
      vertex -58.8981 -100.469 -10
    endloop
  endfacet
  facet normal 0.972397 0.233333 0
    outer loop
      vertex -58.8981 -100.469 -14.2
      vertex -58.7882 -100.927 -10
      vertex -58.7882 -100.927 -14.2
    endloop
  endfacet
  facet normal -0.522532 -0.85262 0
    outer loop
      vertex -54.573 -97.327 -14.2
      vertex -54.1716 -97.573 -10
      vertex -54.573 -97.327 -10
    endloop
  endfacet
  facet normal -0.522532 -0.85262 -0
    outer loop
      vertex -54.1716 -97.573 -10
      vertex -54.573 -97.327 -14.2
      vertex -54.1716 -97.573 -14.2
    endloop
  endfacet
  facet normal -0.23363 0.972326 0
    outer loop
      vertex -55.0079 -102.853 -14.2
      vertex -55.4657 -102.963 -10
      vertex -55.0079 -102.853 -10
    endloop
  endfacet
  facet normal -0.23363 0.972326 0
    outer loop
      vertex -55.4657 -102.963 -10
      vertex -55.0079 -102.853 -14.2
      vertex -55.4657 -102.963 -14.2
    endloop
  endfacet
  facet normal -0.996919 0.0784356 0
    outer loop
      vertex -52.9719 -100.469 -14.2
      vertex -52.935 -100 -10
      vertex -52.935 -100 -14.2
    endloop
  endfacet
  facet normal -0.996919 0.0784356 0
    outer loop
      vertex -52.935 -100 -10
      vertex -52.9719 -100.469 -14.2
      vertex -52.9719 -100.469 -10
    endloop
  endfacet
  facet normal -0.760365 0.649496 0
    outer loop
      vertex -53.8137 -102.121 -14.2
      vertex -53.5079 -101.763 -10
      vertex -53.5079 -101.763 -14.2
    endloop
  endfacet
  facet normal -0.760365 0.649496 0
    outer loop
      vertex -53.5079 -101.763 -10
      vertex -53.8137 -102.121 -14.2
      vertex -53.8137 -102.121 -10
    endloop
  endfacet
  facet normal 0.852387 0.522911 0
    outer loop
      vertex -58.362 -101.763 -10
      vertex -58.608 -101.362 -14.2
      vertex -58.608 -101.362 -10
    endloop
  endfacet
  facet normal 0.852387 0.522911 0
    outer loop
      vertex -58.608 -101.362 -14.2
      vertex -58.362 -101.763 -10
      vertex -58.362 -101.763 -14.2
    endloop
  endfacet
  facet normal 0.996919 0.0784356 0
    outer loop
      vertex -58.8981 -100.469 -10
      vertex -58.935 -100 -14.2
      vertex -58.935 -100 -10
    endloop
  endfacet
  facet normal 0.996919 0.0784356 0
    outer loop
      vertex -58.935 -100 -14.2
      vertex -58.8981 -100.469 -10
      vertex -58.8981 -100.469 -14.2
    endloop
  endfacet
  facet normal 0.0785969 0.996906 -0
    outer loop
      vertex -55.935 -103 -14.2
      vertex -56.4043 -102.963 -10
      vertex -55.935 -103 -10
    endloop
  endfacet
  facet normal 0.0785969 0.996906 0
    outer loop
      vertex -56.4043 -102.963 -10
      vertex -55.935 -103 -14.2
      vertex -56.4043 -102.963 -14.2
    endloop
  endfacet
  facet normal -0.233429 -0.972374 0
    outer loop
      vertex -55.4657 -97.0369 -14.2
      vertex -55.0079 -97.1468 -10
      vertex -55.4657 -97.0369 -10
    endloop
  endfacet
  facet normal -0.233429 -0.972374 -0
    outer loop
      vertex -55.0079 -97.1468 -10
      vertex -55.4657 -97.0369 -14.2
      vertex -55.0079 -97.1468 -14.2
    endloop
  endfacet
  facet normal 0.522532 0.85262 -0
    outer loop
      vertex -57.297 -102.673 -14.2
      vertex -57.6984 -102.427 -10
      vertex -57.297 -102.673 -10
    endloop
  endfacet
  facet normal 0.522532 0.85262 0
    outer loop
      vertex -57.6984 -102.427 -10
      vertex -57.297 -102.673 -14.2
      vertex -57.6984 -102.427 -14.2
    endloop
  endfacet
  facet normal 0.996923 -0.0783858 0
    outer loop
      vertex -58.935 -100 -10
      vertex -58.8981 -99.5307 -14.2
      vertex -58.8981 -99.5307 -10
    endloop
  endfacet
  facet normal 0.996923 -0.0783858 0
    outer loop
      vertex -58.8981 -99.5307 -14.2
      vertex -58.935 -100 -10
      vertex -58.935 -100 -14.2
    endloop
  endfacet
  facet normal 0.85262 -0.522532 0
    outer loop
      vertex -58.608 -98.638 -10
      vertex -58.362 -98.2366 -14.2
      vertex -58.362 -98.2366 -10
    endloop
  endfacet
  facet normal 0.85262 -0.522532 0
    outer loop
      vertex -58.362 -98.2366 -14.2
      vertex -58.608 -98.638 -10
      vertex -58.608 -98.638 -14.2
    endloop
  endfacet
  facet normal -0.649846 0.760066 0
    outer loop
      vertex -53.8137 -102.121 -14.2
      vertex -54.1716 -102.427 -10
      vertex -53.8137 -102.121 -10
    endloop
  endfacet
  facet normal -0.649846 0.760066 0
    outer loop
      vertex -54.1716 -102.427 -10
      vertex -53.8137 -102.121 -14.2
      vertex -54.1716 -102.427 -14.2
    endloop
  endfacet
  facet normal -0.0784301 0.99692 0
    outer loop
      vertex -55.1215 -105.136 -18
      vertex -55.935 -105.2 -14.5
      vertex -55.1215 -105.136 -14.5
    endloop
  endfacet
  facet normal -0.0784301 0.99692 0
    outer loop
      vertex -55.935 -105.2 -14.5
      vertex -55.1215 -105.136 -18
      vertex -55.935 -105.2 -18
    endloop
  endfacet
  facet normal -0.972364 -0.23347 0
    outer loop
      vertex -50.799 -99.1865 -18
      vertex -50.9895 -98.3931 -14.5
      vertex -50.9895 -98.3931 -18
    endloop
  endfacet
  facet normal -0.972364 -0.23347 0
    outer loop
      vertex -50.9895 -98.3931 -14.5
      vertex -50.799 -99.1865 -18
      vertex -50.799 -99.1865 -14.5
    endloop
  endfacet
  facet normal -0.99692 -0.0784301 0
    outer loop
      vertex -50.735 -100 -18
      vertex -50.799 -99.1865 -14.5
      vertex -50.799 -99.1865 -18
    endloop
  endfacet
  facet normal -0.99692 -0.0784301 0
    outer loop
      vertex -50.799 -99.1865 -14.5
      vertex -50.735 -100 -18
      vertex -50.735 -100 -14.5
    endloop
  endfacet
  facet normal -0.923851 -0.382752 0
    outer loop
      vertex -50.9895 -98.3931 -18
      vertex -51.3018 -97.6393 -14.5
      vertex -51.3018 -97.6393 -18
    endloop
  endfacet
  facet normal -0.923851 -0.382752 0
    outer loop
      vertex -51.3018 -97.6393 -14.5
      vertex -50.9895 -98.3931 -18
      vertex -50.9895 -98.3931 -14.5
    endloop
  endfacet
  facet normal -0.522208 0.852818 0
    outer loop
      vertex -52.8785 -104.207 -18
      vertex -53.5742 -104.633 -14.5
      vertex -52.8785 -104.207 -14.5
    endloop
  endfacet
  facet normal -0.522208 0.852818 0
    outer loop
      vertex -53.5742 -104.633 -14.5
      vertex -52.8785 -104.207 -18
      vertex -53.5742 -104.633 -18
    endloop
  endfacet
  facet normal -0.852688 -0.522421 0
    outer loop
      vertex -51.3018 -97.6393 -18
      vertex -51.7281 -96.9435 -14.5
      vertex -51.7281 -96.9435 -18
    endloop
  endfacet
  facet normal -0.852688 -0.522421 0
    outer loop
      vertex -51.7281 -96.9435 -14.5
      vertex -51.3018 -97.6393 -18
      vertex -51.3018 -97.6393 -14.5
    endloop
  endfacet
  facet normal -0.760441 -0.649408 0
    outer loop
      vertex -51.7281 -96.9435 -18
      vertex -52.258 -96.323 -14.5
      vertex -52.258 -96.323 -18
    endloop
  endfacet
  facet normal -0.760441 -0.649408 0
    outer loop
      vertex -52.258 -96.323 -14.5
      vertex -51.7281 -96.9435 -18
      vertex -51.7281 -96.9435 -14.5
    endloop
  endfacet
  facet normal 0.99692 -0.0784301 0
    outer loop
      vertex -61.135 -100 -14.5
      vertex -61.071 -99.1865 -18
      vertex -61.071 -99.1865 -14.5
    endloop
  endfacet
  facet normal 0.99692 -0.0784301 0
    outer loop
      vertex -61.071 -99.1865 -18
      vertex -61.135 -100 -14.5
      vertex -61.135 -100 -18
    endloop
  endfacet
  facet normal -0.23405 0.972225 0
    outer loop
      vertex -54.3281 -104.945 -18
      vertex -55.1215 -105.136 -14.5
      vertex -54.3281 -104.945 -14.5
    endloop
  endfacet
  facet normal -0.23405 0.972225 0
    outer loop
      vertex -55.1215 -105.136 -14.5
      vertex -54.3281 -104.945 -18
      vertex -55.1215 -105.136 -18
    endloop
  endfacet
  facet normal 0.85242 0.522858 0
    outer loop
      vertex -60.1419 -103.056 -14.5
      vertex -60.5682 -102.361 -18
      vertex -60.5682 -102.361 -14.5
    endloop
  endfacet
  facet normal 0.85242 0.522858 0
    outer loop
      vertex -60.5682 -102.361 -18
      vertex -60.1419 -103.056 -14.5
      vertex -60.1419 -103.056 -18
    endloop
  endfacet
  facet normal 0.923887 0.382666 0
    outer loop
      vertex -60.5682 -102.361 -14.5
      vertex -60.8805 -101.607 -18
      vertex -60.8805 -101.607 -14.5
    endloop
  endfacet
  facet normal 0.923887 0.382666 0
    outer loop
      vertex -60.8805 -101.607 -18
      vertex -60.5682 -102.361 -14.5
      vertex -60.5682 -102.361 -18
    endloop
  endfacet
  facet normal -0.522476 -0.852654 0
    outer loop
      vertex -53.5742 -95.3668 -18
      vertex -52.8785 -95.7931 -14.5
      vertex -53.5742 -95.3668 -14.5
    endloop
  endfacet
  facet normal -0.522476 -0.852654 -0
    outer loop
      vertex -52.8785 -95.7931 -14.5
      vertex -53.5742 -95.3668 -18
      vertex -52.8785 -95.7931 -18
    endloop
  endfacet
  facet normal -0.923887 0.382666 0
    outer loop
      vertex -51.3018 -102.361 -18
      vertex -50.9895 -101.607 -14.5
      vertex -50.9895 -101.607 -18
    endloop
  endfacet
  facet normal -0.923887 0.382666 0
    outer loop
      vertex -50.9895 -101.607 -14.5
      vertex -51.3018 -102.361 -18
      vertex -51.3018 -102.361 -14.5
    endloop
  endfacet
  facet normal 0.760441 -0.649408 0
    outer loop
      vertex -60.1419 -96.9435 -14.5
      vertex -59.612 -96.323 -18
      vertex -59.612 -96.323 -14.5
    endloop
  endfacet
  facet normal 0.760441 -0.649408 0
    outer loop
      vertex -59.612 -96.323 -18
      vertex -60.1419 -96.9435 -14.5
      vertex -60.1419 -96.9435 -18
    endloop
  endfacet
  facet normal 0.996916 0.078478 0
    outer loop
      vertex -61.071 -100.813 -14.5
      vertex -61.135 -100 -18
      vertex -61.135 -100 -14.5
    endloop
  endfacet
  facet normal 0.996916 0.078478 0
    outer loop
      vertex -61.135 -100 -18
      vertex -61.071 -100.813 -14.5
      vertex -61.071 -100.813 -18
    endloop
  endfacet
  facet normal -0.760699 0.649105 0
    outer loop
      vertex -52.258 -103.677 -18
      vertex -51.7281 -103.056 -14.5
      vertex -51.7281 -103.056 -18
    endloop
  endfacet
  facet normal -0.760699 0.649105 0
    outer loop
      vertex -51.7281 -103.056 -14.5
      vertex -52.258 -103.677 -18
      vertex -52.258 -103.677 -14.5
    endloop
  endfacet
  facet normal -0.85242 0.522858 0
    outer loop
      vertex -51.7281 -103.056 -18
      vertex -51.3018 -102.361 -14.5
      vertex -51.3018 -102.361 -18
    endloop
  endfacet
  facet normal -0.85242 0.522858 0
    outer loop
      vertex -51.3018 -102.361 -14.5
      vertex -51.7281 -103.056 -18
      vertex -51.7281 -103.056 -14.5
    endloop
  endfacet
  facet normal 0.23405 0.972225 -0
    outer loop
      vertex -56.7485 -105.136 -18
      vertex -57.5419 -104.945 -14.5
      vertex -56.7485 -105.136 -14.5
    endloop
  endfacet
  facet normal 0.23405 0.972225 0
    outer loop
      vertex -57.5419 -104.945 -14.5
      vertex -56.7485 -105.136 -18
      vertex -57.5419 -104.945 -18
    endloop
  endfacet
  facet normal 0 0 -1
    outer loop
      vertex -50.799 -100.813 -14.5
      vertex -50.799 -99.1865 -14.5
      vertex -50.735 -100 -14.5
    endloop
  endfacet
  facet normal 0 0 -1
    outer loop
      vertex -50.9895 -101.607 -14.5
      vertex -50.799 -99.1865 -14.5
      vertex -50.799 -100.813 -14.5
    endloop
  endfacet
  facet normal 0 0 -1
    outer loop
      vertex -50.9895 -101.607 -14.5
      vertex -50.9895 -98.3931 -14.5
      vertex -50.799 -99.1865 -14.5
    endloop
  endfacet
  facet normal 0 0 -1
    outer loop
      vertex -51.3018 -102.361 -14.5
      vertex -50.9895 -98.3931 -14.5
      vertex -50.9895 -101.607 -14.5
    endloop
  endfacet
  facet normal 0 0 -1
    outer loop
      vertex -51.3018 -102.361 -14.5
      vertex -51.3018 -97.6393 -14.5
      vertex -50.9895 -98.3931 -14.5
    endloop
  endfacet
  facet normal 0 0 -1
    outer loop
      vertex -51.7281 -103.056 -14.5
      vertex -51.3018 -97.6393 -14.5
      vertex -51.3018 -102.361 -14.5
    endloop
  endfacet
  facet normal 0 0 -1
    outer loop
      vertex -51.7281 -103.056 -14.5
      vertex -51.7281 -96.9435 -14.5
      vertex -51.3018 -97.6393 -14.5
    endloop
  endfacet
  facet normal 0 0 -1
    outer loop
      vertex -52.258 -103.677 -14.5
      vertex -51.7281 -96.9435 -14.5
      vertex -51.7281 -103.056 -14.5
    endloop
  endfacet
  facet normal 0 0 -1
    outer loop
      vertex -52.258 -103.677 -14.5
      vertex -52.258 -96.323 -14.5
      vertex -51.7281 -96.9435 -14.5
    endloop
  endfacet
  facet normal 0 0 -1
    outer loop
      vertex -52.8785 -104.207 -14.5
      vertex -52.258 -96.323 -14.5
      vertex -52.258 -103.677 -14.5
    endloop
  endfacet
  facet normal 0 0 -1
    outer loop
      vertex -52.8785 -104.207 -14.5
      vertex -52.8785 -95.7931 -14.5
      vertex -52.258 -96.323 -14.5
    endloop
  endfacet
  facet normal 0 0 -1
    outer loop
      vertex -53.5742 -104.633 -14.5
      vertex -52.8785 -95.7931 -14.5
      vertex -52.8785 -104.207 -14.5
    endloop
  endfacet
  facet normal 0 0 -1
    outer loop
      vertex -53.5742 -104.633 -14.5
      vertex -53.5742 -95.3668 -14.5
      vertex -52.8785 -95.7931 -14.5
    endloop
  endfacet
  facet normal 0 0 -1
    outer loop
      vertex -54.3281 -104.945 -14.5
      vertex -53.5742 -95.3668 -14.5
      vertex -53.5742 -104.633 -14.5
    endloop
  endfacet
  facet normal 0 0 -1
    outer loop
      vertex -54.3281 -104.945 -14.5
      vertex -54.3281 -95.0545 -14.5
      vertex -53.5742 -95.3668 -14.5
    endloop
  endfacet
  facet normal 0 0 -1
    outer loop
      vertex -55.1215 -105.136 -14.5
      vertex -54.3281 -95.0545 -14.5
      vertex -54.3281 -104.945 -14.5
    endloop
  endfacet
  facet normal 0 0 -1
    outer loop
      vertex -55.1215 -105.136 -14.5
      vertex -55.1215 -94.864 -14.5
      vertex -54.3281 -95.0545 -14.5
    endloop
  endfacet
  facet normal 0 0 -1
    outer loop
      vertex -55.935 -105.2 -14.5
      vertex -55.1215 -94.864 -14.5
      vertex -55.1215 -105.136 -14.5
    endloop
  endfacet
  facet normal 0 0 -1
    outer loop
      vertex -55.935 -105.2 -14.5
      vertex -55.935 -94.8 -14.5
      vertex -55.1215 -94.864 -14.5
    endloop
  endfacet
  facet normal 0 0 -1
    outer loop
      vertex -56.7485 -105.136 -14.5
      vertex -55.935 -94.8 -14.5
      vertex -55.935 -105.2 -14.5
    endloop
  endfacet
  facet normal 0 0 -1
    outer loop
      vertex -56.7485 -105.136 -14.5
      vertex -56.7485 -94.864 -14.5
      vertex -55.935 -94.8 -14.5
    endloop
  endfacet
  facet normal 0 0 -1
    outer loop
      vertex -57.5419 -104.945 -14.5
      vertex -56.7485 -94.864 -14.5
      vertex -56.7485 -105.136 -14.5
    endloop
  endfacet
  facet normal 0 0 -1
    outer loop
      vertex -57.5419 -104.945 -14.5
      vertex -57.5419 -95.0545 -14.5
      vertex -56.7485 -94.864 -14.5
    endloop
  endfacet
  facet normal 0 0 -1
    outer loop
      vertex -58.2957 -104.633 -14.5
      vertex -57.5419 -95.0545 -14.5
      vertex -57.5419 -104.945 -14.5
    endloop
  endfacet
  facet normal 0 0 -1
    outer loop
      vertex -58.2957 -104.633 -14.5
      vertex -58.2957 -95.3668 -14.5
      vertex -57.5419 -95.0545 -14.5
    endloop
  endfacet
  facet normal 0 0 -1
    outer loop
      vertex -58.9915 -104.207 -14.5
      vertex -58.2957 -95.3668 -14.5
      vertex -58.2957 -104.633 -14.5
    endloop
  endfacet
  facet normal 0 0 -1
    outer loop
      vertex -58.9915 -104.207 -14.5
      vertex -58.9915 -95.7931 -14.5
      vertex -58.2957 -95.3668 -14.5
    endloop
  endfacet
  facet normal 0 0 -1
    outer loop
      vertex -59.612 -103.677 -14.5
      vertex -58.9915 -95.7931 -14.5
      vertex -58.9915 -104.207 -14.5
    endloop
  endfacet
  facet normal 0 0 -1
    outer loop
      vertex -59.612 -103.677 -14.5
      vertex -59.612 -96.323 -14.5
      vertex -58.9915 -95.7931 -14.5
    endloop
  endfacet
  facet normal 0 0 -1
    outer loop
      vertex -60.1419 -103.056 -14.5
      vertex -59.612 -96.323 -14.5
      vertex -59.612 -103.677 -14.5
    endloop
  endfacet
  facet normal 0 0 -1
    outer loop
      vertex -60.1419 -103.056 -14.5
      vertex -60.1419 -96.9435 -14.5
      vertex -59.612 -96.323 -14.5
    endloop
  endfacet
  facet normal 0 0 -1
    outer loop
      vertex -60.5682 -102.361 -14.5
      vertex -60.1419 -96.9435 -14.5
      vertex -60.1419 -103.056 -14.5
    endloop
  endfacet
  facet normal 0 0 -1
    outer loop
      vertex -60.5682 -102.361 -14.5
      vertex -60.5682 -97.6393 -14.5
      vertex -60.1419 -96.9435 -14.5
    endloop
  endfacet
  facet normal 0 0 -1
    outer loop
      vertex -60.8805 -101.607 -14.5
      vertex -60.5682 -97.6393 -14.5
      vertex -60.5682 -102.361 -14.5
    endloop
  endfacet
  facet normal 0 0 -1
    outer loop
      vertex -60.8805 -101.607 -14.5
      vertex -60.8805 -98.3931 -14.5
      vertex -60.5682 -97.6393 -14.5
    endloop
  endfacet
  facet normal 0 0 -1
    outer loop
      vertex -61.071 -100.813 -14.5
      vertex -60.8805 -98.3931 -14.5
      vertex -60.8805 -101.607 -14.5
    endloop
  endfacet
  facet normal 0 0 -1
    outer loop
      vertex -61.071 -100.813 -14.5
      vertex -61.071 -99.1865 -14.5
      vertex -60.8805 -98.3931 -14.5
    endloop
  endfacet
  facet normal 0 -0 -1
    outer loop
      vertex -61.071 -99.1865 -14.5
      vertex -61.071 -100.813 -14.5
      vertex -61.135 -100 -14.5
    endloop
  endfacet
  facet normal 0.972404 0.233303 0
    outer loop
      vertex -60.8805 -101.607 -14.5
      vertex -61.071 -100.813 -18
      vertex -61.071 -100.813 -14.5
    endloop
  endfacet
  facet normal 0.972404 0.233303 0
    outer loop
      vertex -61.071 -100.813 -18
      vertex -60.8805 -101.607 -14.5
      vertex -60.8805 -101.607 -18
    endloop
  endfacet
  facet normal 0.382438 0.923981 -0
    outer loop
      vertex -57.5419 -104.945 -18
      vertex -58.2957 -104.633 -14.5
      vertex -57.5419 -104.945 -14.5
    endloop
  endfacet
  facet normal 0.382438 0.923981 0
    outer loop
      vertex -58.2957 -104.633 -14.5
      vertex -57.5419 -104.945 -18
      vertex -58.2957 -104.633 -18
    endloop
  endfacet
  facet normal -0.996916 0.078478 0
    outer loop
      vertex -50.799 -100.813 -18
      vertex -50.735 -100 -14.5
      vertex -50.735 -100 -18
    endloop
  endfacet
  facet normal -0.996916 0.078478 0
    outer loop
      vertex -50.735 -100 -14.5
      vertex -50.799 -100.813 -18
      vertex -50.799 -100.813 -14.5
    endloop
  endfacet
  facet normal -0.972407 0.23329 0
    outer loop
      vertex -50.9583 -101.477 -18
      vertex -50.799 -100.813 -14.5
      vertex -50.799 -100.813 -18
    endloop
  endfacet
  facet normal -0.972387 0.233373 0
    outer loop
      vertex -50.9895 -101.607 -14.5
      vertex -50.9583 -101.477 -18
      vertex -50.9895 -101.607 -18
    endloop
  endfacet
  facet normal -0.972404 0.233303 -2.72931e-06
    outer loop
      vertex -50.9583 -101.477 -18
      vertex -50.9895 -101.607 -14.5
      vertex -50.799 -100.813 -14.5
    endloop
  endfacet
  facet normal 0.649408 -0.760441 0
    outer loop
      vertex -59.612 -96.323 -18
      vertex -58.9915 -95.7931 -14.5
      vertex -59.612 -96.323 -14.5
    endloop
  endfacet
  facet normal 0.649408 -0.760441 0
    outer loop
      vertex -58.9915 -95.7931 -14.5
      vertex -59.612 -96.323 -18
      vertex -58.9915 -95.7931 -18
    endloop
  endfacet
  facet normal 0.382752 -0.923851 0
    outer loop
      vertex -58.2957 -95.3668 -18
      vertex -57.5419 -95.0545 -14.5
      vertex -58.2957 -95.3668 -14.5
    endloop
  endfacet
  facet normal 0.382752 -0.923851 0
    outer loop
      vertex -57.5419 -95.0545 -14.5
      vertex -58.2957 -95.3668 -18
      vertex -57.5419 -95.0545 -18
    endloop
  endfacet
  facet normal -0.649408 -0.760441 0
    outer loop
      vertex -52.8785 -95.7931 -18
      vertex -52.258 -96.323 -14.5
      vertex -52.8785 -95.7931 -14.5
    endloop
  endfacet
  facet normal -0.649408 -0.760441 -0
    outer loop
      vertex -52.258 -96.323 -14.5
      vertex -52.8785 -95.7931 -18
      vertex -52.258 -96.323 -18
    endloop
  endfacet
  facet normal 0.852688 -0.522421 0
    outer loop
      vertex -60.5682 -97.6393 -14.5
      vertex -60.1419 -96.9435 -18
      vertex -60.1419 -96.9435 -14.5
    endloop
  endfacet
  facet normal 0.852688 -0.522421 0
    outer loop
      vertex -60.1419 -96.9435 -18
      vertex -60.5682 -97.6393 -14.5
      vertex -60.5682 -97.6393 -18
    endloop
  endfacet
  facet normal 0.923851 -0.382752 0
    outer loop
      vertex -60.8805 -98.3931 -14.5
      vertex -60.5682 -97.6393 -18
      vertex -60.5682 -97.6393 -14.5
    endloop
  endfacet
  facet normal 0.923851 -0.382752 0
    outer loop
      vertex -60.5682 -97.6393 -18
      vertex -60.8805 -98.3931 -14.5
      vertex -60.8805 -98.3931 -18
    endloop
  endfacet
  facet normal 0.233034 -0.972469 0
    outer loop
      vertex -57.4117 -95.0233 -18
      vertex -57.5419 -95.0545 -14.5
      vertex -57.5419 -95.0545 -18
    endloop
  endfacet
  facet normal 0.23347 -0.972364 1.71649e-05
    outer loop
      vertex -57.5419 -95.0545 -14.5
      vertex -57.4117 -95.0233 -18
      vertex -56.7485 -94.864 -14.5
    endloop
  endfacet
  facet normal 0.233556 -0.972343 0
    outer loop
      vertex -56.7485 -94.864 -14.5
      vertex -57.4117 -95.0233 -18
      vertex -56.7485 -94.864 -18
    endloop
  endfacet
  facet normal 0.0784301 -0.99692 0
    outer loop
      vertex -56.7485 -94.864 -18
      vertex -55.935 -94.8 -14.5
      vertex -56.7485 -94.864 -14.5
    endloop
  endfacet
  facet normal 0.0784301 -0.99692 0
    outer loop
      vertex -55.935 -94.8 -14.5
      vertex -56.7485 -94.864 -18
      vertex -55.935 -94.8 -18
    endloop
  endfacet
  facet normal 0.649478 0.76038 -0
    outer loop
      vertex -58.9915 -104.207 -18
      vertex -59.612 -103.677 -14.5
      vertex -58.9915 -104.207 -14.5
    endloop
  endfacet
  facet normal 0.649478 0.76038 0
    outer loop
      vertex -59.612 -103.677 -14.5
      vertex -58.9915 -104.207 -18
      vertex -59.612 -103.677 -18
    endloop
  endfacet
  facet normal -0.0784301 -0.99692 0
    outer loop
      vertex -55.935 -94.8 -18
      vertex -55.1215 -94.864 -14.5
      vertex -55.935 -94.8 -14.5
    endloop
  endfacet
  facet normal -0.0784301 -0.99692 -0
    outer loop
      vertex -55.1215 -94.864 -14.5
      vertex -55.935 -94.8 -18
      vertex -55.1215 -94.864 -18
    endloop
  endfacet
  facet normal 0.760699 0.649105 0
    outer loop
      vertex -59.612 -103.677 -14.5
      vertex -60.1419 -103.056 -18
      vertex -60.1419 -103.056 -14.5
    endloop
  endfacet
  facet normal 0.760699 0.649105 0
    outer loop
      vertex -60.1419 -103.056 -18
      vertex -59.612 -103.677 -14.5
      vertex -59.612 -103.677 -18
    endloop
  endfacet
  facet normal -0.649478 0.76038 0
    outer loop
      vertex -52.258 -103.677 -18
      vertex -52.8785 -104.207 -14.5
      vertex -52.258 -103.677 -14.5
    endloop
  endfacet
  facet normal -0.649478 0.76038 0
    outer loop
      vertex -52.8785 -104.207 -14.5
      vertex -52.258 -103.677 -18
      vertex -52.8785 -104.207 -18
    endloop
  endfacet
  facet normal -0.382709 -0.923869 0
    outer loop
      vertex -54.3281 -95.0545 -18
      vertex -53.5742 -95.3668 -14.5
      vertex -54.3281 -95.0545 -14.5
    endloop
  endfacet
  facet normal -0.382709 -0.923869 -0
    outer loop
      vertex -53.5742 -95.3668 -14.5
      vertex -54.3281 -95.0545 -18
      vertex -53.5742 -95.3668 -18
    endloop
  endfacet
  facet normal 0.972364 -0.23347 0
    outer loop
      vertex -61.071 -99.1865 -14.5
      vertex -60.8805 -98.3931 -18
      vertex -60.8805 -98.3931 -14.5
    endloop
  endfacet
  facet normal 0.972364 -0.23347 0
    outer loop
      vertex -60.8805 -98.3931 -18
      vertex -61.071 -99.1865 -14.5
      vertex -61.071 -99.1865 -18
    endloop
  endfacet
  facet normal -0.23347 -0.972364 0
    outer loop
      vertex -55.1215 -94.864 -18
      vertex -54.3281 -95.0545 -14.5
      vertex -55.1215 -94.864 -14.5
    endloop
  endfacet
  facet normal -0.23347 -0.972364 -0
    outer loop
      vertex -54.3281 -95.0545 -14.5
      vertex -55.1215 -94.864 -18
      vertex -54.3281 -95.0545 -18
    endloop
  endfacet
  facet normal -0.382395 0.923999 0
    outer loop
      vertex -53.5742 -104.633 -14.5
      vertex -54.3281 -104.945 -18
      vertex -54.3281 -104.945 -14.5
    endloop
  endfacet
  facet normal -0.382395 0.923999 0
    outer loop
      vertex -54.3281 -104.945 -18
      vertex -53.5742 -104.633 -14.5
      vertex -53.5742 -104.633 -18
    endloop
  endfacet
  facet normal 0.522421 -0.852688 0
    outer loop
      vertex -58.9915 -95.7931 -18
      vertex -58.2957 -95.3668 -14.5
      vertex -58.9915 -95.7931 -14.5
    endloop
  endfacet
  facet normal 0.522421 -0.852688 0
    outer loop
      vertex -58.2957 -95.3668 -14.5
      vertex -58.9915 -95.7931 -18
      vertex -58.2957 -95.3668 -18
    endloop
  endfacet
  facet normal 0.0784301 0.99692 0
    outer loop
      vertex -55.935 -105.2 -14.5
      vertex -56.7485 -105.136 -18
      vertex -56.7485 -105.136 -14.5
    endloop
  endfacet
  facet normal 0.0784301 0.99692 0
    outer loop
      vertex -56.7485 -105.136 -18
      vertex -55.935 -105.2 -14.5
      vertex -55.935 -105.2 -18
    endloop
  endfacet
  facet normal 0.522154 0.852851 0
    outer loop
      vertex -58.2957 -104.633 -14.5
      vertex -58.9915 -104.207 -18
      vertex -58.9915 -104.207 -14.5
    endloop
  endfacet
  facet normal 0.522154 0.852851 0
    outer loop
      vertex -58.9915 -104.207 -18
      vertex -58.2957 -104.633 -14.5
      vertex -58.2957 -104.633 -18
    endloop
  endfacet
  facet normal 0 0 1
    outer loop
      vertex -52.9719 -99.5307 -14.2
      vertex -52.9719 -100.469 -14.2
      vertex -52.935 -100 -14.2
    endloop
  endfacet
  facet normal 0 0 1
    outer loop
      vertex -53.0818 -99.073 -14.2
      vertex -52.9719 -100.469 -14.2
      vertex -52.9719 -99.5307 -14.2
    endloop
  endfacet
  facet normal 0 0 1
    outer loop
      vertex -53.0818 -99.073 -14.2
      vertex -53.0818 -100.927 -14.2
      vertex -52.9719 -100.469 -14.2
    endloop
  endfacet
  facet normal 0 0 1
    outer loop
      vertex -53.262 -98.638 -14.2
      vertex -53.0818 -100.927 -14.2
      vertex -53.0818 -99.073 -14.2
    endloop
  endfacet
  facet normal 0 0 1
    outer loop
      vertex -53.262 -98.638 -14.2
      vertex -53.262 -101.362 -14.2
      vertex -53.0818 -100.927 -14.2
    endloop
  endfacet
  facet normal 0 0 1
    outer loop
      vertex -53.5079 -98.2366 -14.2
      vertex -53.262 -101.362 -14.2
      vertex -53.262 -98.638 -14.2
    endloop
  endfacet
  facet normal 0 0 1
    outer loop
      vertex -53.5079 -98.2366 -14.2
      vertex -53.5079 -101.763 -14.2
      vertex -53.262 -101.362 -14.2
    endloop
  endfacet
  facet normal 0 0 1
    outer loop
      vertex -53.8137 -97.8787 -14.2
      vertex -53.5079 -101.763 -14.2
      vertex -53.5079 -98.2366 -14.2
    endloop
  endfacet
  facet normal 0 0 1
    outer loop
      vertex -53.8137 -97.8787 -14.2
      vertex -53.8137 -102.121 -14.2
      vertex -53.5079 -101.763 -14.2
    endloop
  endfacet
  facet normal 0 0 1
    outer loop
      vertex -54.1716 -97.573 -14.2
      vertex -53.8137 -102.121 -14.2
      vertex -53.8137 -97.8787 -14.2
    endloop
  endfacet
  facet normal 0 0 1
    outer loop
      vertex -54.1716 -97.573 -14.2
      vertex -54.1716 -102.427 -14.2
      vertex -53.8137 -102.121 -14.2
    endloop
  endfacet
  facet normal 0 0 1
    outer loop
      vertex -54.573 -97.327 -14.2
      vertex -54.1716 -102.427 -14.2
      vertex -54.1716 -97.573 -14.2
    endloop
  endfacet
  facet normal 0 0 1
    outer loop
      vertex -54.573 -97.327 -14.2
      vertex -54.573 -102.673 -14.2
      vertex -54.1716 -102.427 -14.2
    endloop
  endfacet
  facet normal 0 0 1
    outer loop
      vertex -55.0079 -97.1468 -14.2
      vertex -54.573 -102.673 -14.2
      vertex -54.573 -97.327 -14.2
    endloop
  endfacet
  facet normal 0 0 1
    outer loop
      vertex -55.0079 -97.1468 -14.2
      vertex -55.0079 -102.853 -14.2
      vertex -54.573 -102.673 -14.2
    endloop
  endfacet
  facet normal 0 0 1
    outer loop
      vertex -55.4657 -97.0369 -14.2
      vertex -55.0079 -102.853 -14.2
      vertex -55.0079 -97.1468 -14.2
    endloop
  endfacet
  facet normal 0 0 1
    outer loop
      vertex -55.4657 -97.0369 -14.2
      vertex -55.4657 -102.963 -14.2
      vertex -55.0079 -102.853 -14.2
    endloop
  endfacet
  facet normal 0 0 1
    outer loop
      vertex -55.935 -97 -14.2
      vertex -55.4657 -102.963 -14.2
      vertex -55.4657 -97.0369 -14.2
    endloop
  endfacet
  facet normal 0 0 1
    outer loop
      vertex -55.935 -97 -14.2
      vertex -55.935 -103 -14.2
      vertex -55.4657 -102.963 -14.2
    endloop
  endfacet
  facet normal -0 0 1
    outer loop
      vertex -56.4043 -97.0369 -14.2
      vertex -55.935 -103 -14.2
      vertex -55.935 -97 -14.2
    endloop
  endfacet
  facet normal 0 0 1
    outer loop
      vertex -56.4043 -97.0369 -14.2
      vertex -56.4043 -102.963 -14.2
      vertex -55.935 -103 -14.2
    endloop
  endfacet
  facet normal -0 0 1
    outer loop
      vertex -56.862 -97.1468 -14.2
      vertex -56.4043 -102.963 -14.2
      vertex -56.4043 -97.0369 -14.2
    endloop
  endfacet
  facet normal 0 0 1
    outer loop
      vertex -56.862 -97.1468 -14.2
      vertex -56.862 -102.853 -14.2
      vertex -56.4043 -102.963 -14.2
    endloop
  endfacet
  facet normal -0 0 1
    outer loop
      vertex -57.297 -97.327 -14.2
      vertex -56.862 -102.853 -14.2
      vertex -56.862 -97.1468 -14.2
    endloop
  endfacet
  facet normal 0 0 1
    outer loop
      vertex -57.297 -97.327 -14.2
      vertex -57.297 -102.673 -14.2
      vertex -56.862 -102.853 -14.2
    endloop
  endfacet
  facet normal -0 0 1
    outer loop
      vertex -57.6984 -97.573 -14.2
      vertex -57.297 -102.673 -14.2
      vertex -57.297 -97.327 -14.2
    endloop
  endfacet
  facet normal 0 0 1
    outer loop
      vertex -57.6984 -97.573 -14.2
      vertex -57.6984 -102.427 -14.2
      vertex -57.297 -102.673 -14.2
    endloop
  endfacet
  facet normal -0 0 1
    outer loop
      vertex -58.0563 -97.8787 -14.2
      vertex -57.6984 -102.427 -14.2
      vertex -57.6984 -97.573 -14.2
    endloop
  endfacet
  facet normal 0 0 1
    outer loop
      vertex -58.0563 -97.8787 -14.2
      vertex -58.0563 -102.121 -14.2
      vertex -57.6984 -102.427 -14.2
    endloop
  endfacet
  facet normal -0 0 1
    outer loop
      vertex -58.362 -98.2366 -14.2
      vertex -58.0563 -102.121 -14.2
      vertex -58.0563 -97.8787 -14.2
    endloop
  endfacet
  facet normal 0 0 1
    outer loop
      vertex -58.362 -98.2366 -14.2
      vertex -58.362 -101.763 -14.2
      vertex -58.0563 -102.121 -14.2
    endloop
  endfacet
  facet normal -0 0 1
    outer loop
      vertex -58.608 -98.638 -14.2
      vertex -58.362 -101.763 -14.2
      vertex -58.362 -98.2366 -14.2
    endloop
  endfacet
  facet normal 0 0 1
    outer loop
      vertex -58.608 -98.638 -14.2
      vertex -58.608 -101.362 -14.2
      vertex -58.362 -101.763 -14.2
    endloop
  endfacet
  facet normal -0 0 1
    outer loop
      vertex -58.7882 -99.073 -14.2
      vertex -58.608 -101.362 -14.2
      vertex -58.608 -98.638 -14.2
    endloop
  endfacet
  facet normal 0 0 1
    outer loop
      vertex -58.7882 -99.073 -14.2
      vertex -58.7882 -100.927 -14.2
      vertex -58.608 -101.362 -14.2
    endloop
  endfacet
  facet normal -0 0 1
    outer loop
      vertex -58.8981 -99.5307 -14.2
      vertex -58.7882 -100.927 -14.2
      vertex -58.7882 -99.073 -14.2
    endloop
  endfacet
  facet normal 0 0 1
    outer loop
      vertex -58.8981 -99.5307 -14.2
      vertex -58.8981 -100.469 -14.2
      vertex -58.7882 -100.927 -14.2
    endloop
  endfacet
  facet normal 0 -0 1
    outer loop
      vertex -58.8981 -100.469 -14.2
      vertex -58.8981 -99.5307 -14.2
      vertex -58.935 -100 -14.2
    endloop
  endfacet
endsolid OpenSCAD_Model
