solid OpenSCAD_Model
  facet normal 0 1 0
    outer loop
      vertex 62.035 -90 17.6
      vertex 46.7486 -90 16.9836
      vertex 42.835 -90 17.6
    endloop
  endfacet
  facet normal 0 1 0
    outer loop
      vertex 62.035 -90 17.6
      vertex 47.362 -90 16.8532
      vertex 46.7486 -90 16.9836
    endloop
  endfacet
  facet normal 0 1 0
    outer loop
      vertex 62.035 -90 17.6
      vertex 47.935 -90 16.5981
      vertex 47.362 -90 16.8532
    endloop
  endfacet
  facet normal 0 1 -0
    outer loop
      vertex 54.32 -90 15.3791
      vertex 47.935 -90 16.5981
      vertex 62.035 -90 17.6
    endloop
  endfacet
  facet normal 0 1 -0
    outer loop
      vertex 51.2 -90 15.3791
      vertex 47.935 -90 16.5981
      vertex 54.32 -90 15.3791
    endloop
  endfacet
  facet normal 0 1 0
    outer loop
      vertex 47.935 -90 16.5981
      vertex 51.2 -90 15.3791
      vertex 48.4424 -90 16.2294
    endloop
  endfacet
  facet normal 0 1 0
    outer loop
      vertex 62.035 -90 17.6
      vertex 54.32 -90 12.2409
      vertex 54.32 -90 15.3791
    endloop
  endfacet
  facet normal 0 1 0
    outer loop
      vertex 47.362 -90 11.1468
      vertex 51.2 -90 12.2409
      vertex 54.32 -90 12.2409
    endloop
  endfacet
  facet normal 0 1 0
    outer loop
      vertex 51.2 -90 12.2409
      vertex 48.4424 -90 11.7706
      vertex 48.862 -90 12.2366
    endloop
  endfacet
  facet normal 0 1 0
    outer loop
      vertex 51.2 -90 12.2409
      vertex 47.935 -90 11.4019
      vertex 48.4424 -90 11.7706
    endloop
  endfacet
  facet normal 0 1 0
    outer loop
      vertex 51.2 -90 12.2409
      vertex 47.362 -90 11.1468
      vertex 47.935 -90 11.4019
    endloop
  endfacet
  facet normal 0 1 0
    outer loop
      vertex 62.035 -90 10
      vertex 47.362 -90 11.1468
      vertex 54.32 -90 12.2409
    endloop
  endfacet
  facet normal 0 1 0
    outer loop
      vertex 42.835 -90 10
      vertex 46.7486 -90 11.0164
      vertex 62.035 -90 10
    endloop
  endfacet
  facet normal 0 1 0
    outer loop
      vertex 47.362 -90 11.1468
      vertex 62.035 -90 10
      vertex 46.7486 -90 11.0164
    endloop
  endfacet
  facet normal 0 1 -0
    outer loop
      vertex 62.035 -90 10
      vertex 54.32 -90 12.2409
      vertex 62.035 -90 17.6
    endloop
  endfacet
  facet normal 0 1 -0
    outer loop
      vertex 46.1214 -90 16.9836
      vertex 42.835 -90 17.6
      vertex 46.7486 -90 16.9836
    endloop
  endfacet
  facet normal 0 1 -0
    outer loop
      vertex 45.5079 -90 16.8532
      vertex 42.835 -90 17.6
      vertex 46.1214 -90 16.9836
    endloop
  endfacet
  facet normal 0 1 -0
    outer loop
      vertex 44.935 -90 16.5981
      vertex 42.835 -90 17.6
      vertex 45.5079 -90 16.8532
    endloop
  endfacet
  facet normal 0 1 -0
    outer loop
      vertex 44.4276 -90 16.2294
      vertex 42.835 -90 17.6
      vertex 44.935 -90 16.5981
    endloop
  endfacet
  facet normal 0 1 -0
    outer loop
      vertex 44.0079 -90 15.7634
      vertex 42.835 -90 17.6
      vertex 44.4276 -90 16.2294
    endloop
  endfacet
  facet normal 0 1 -0
    outer loop
      vertex 43.6944 -90 15.2202
      vertex 42.835 -90 17.6
      vertex 44.0079 -90 15.7634
    endloop
  endfacet
  facet normal 0 1 -0
    outer loop
      vertex 43.5006 -90 14.6237
      vertex 42.835 -90 17.6
      vertex 43.6944 -90 15.2202
    endloop
  endfacet
  facet normal 0 1 -0
    outer loop
      vertex 43.435 -90 14
      vertex 42.835 -90 17.6
      vertex 43.5006 -90 14.6237
    endloop
  endfacet
  facet normal 0 1 0
    outer loop
      vertex 42.835 -90 10
      vertex 43.435 -90 14
      vertex 43.5006 -90 13.3763
    endloop
  endfacet
  facet normal 0 1 0
    outer loop
      vertex 43.435 -90 14
      vertex 42.835 -90 10
      vertex 42.835 -90 17.6
    endloop
  endfacet
  facet normal 0 1 0
    outer loop
      vertex 43.6944 -90 12.7798
      vertex 42.835 -90 10
      vertex 43.5006 -90 13.3763
    endloop
  endfacet
  facet normal 0 1 0
    outer loop
      vertex 44.0079 -90 12.2366
      vertex 42.835 -90 10
      vertex 43.6944 -90 12.7798
    endloop
  endfacet
  facet normal 0 1 0
    outer loop
      vertex 44.4276 -90 11.7706
      vertex 42.835 -90 10
      vertex 44.0079 -90 12.2366
    endloop
  endfacet
  facet normal 0 1 0
    outer loop
      vertex 44.935 -90 11.4019
      vertex 42.835 -90 10
      vertex 44.4276 -90 11.7706
    endloop
  endfacet
  facet normal 0 1 0
    outer loop
      vertex 45.5079 -90 11.1468
      vertex 42.835 -90 10
      vertex 44.935 -90 11.4019
    endloop
  endfacet
  facet normal 0 1 0
    outer loop
      vertex 46.1214 -90 11.0164
      vertex 42.835 -90 10
      vertex 45.5079 -90 11.1468
    endloop
  endfacet
  facet normal 0 1 0
    outer loop
      vertex 46.7486 -90 11.0164
      vertex 42.835 -90 10
      vertex 46.1214 -90 11.0164
    endloop
  endfacet
  facet normal 0 1 0
    outer loop
      vertex 48.4424 -90 16.2294
      vertex 51.2 -90 15.3791
      vertex 48.862 -90 15.7634
    endloop
  endfacet
  facet normal 0 1 0
    outer loop
      vertex 51.2 -90 15.3791
      vertex 49.1756 -90 15.2202
      vertex 48.862 -90 15.7634
    endloop
  endfacet
  facet normal 0 1 0
    outer loop
      vertex 51.2 -90 15.3791
      vertex 49.3694 -90 14.6237
      vertex 49.1756 -90 15.2202
    endloop
  endfacet
  facet normal 0 1 0
    outer loop
      vertex 51.2 -90 15.3791
      vertex 49.435 -90 14
      vertex 49.3694 -90 14.6237
    endloop
  endfacet
  facet normal 0 1 -0
    outer loop
      vertex 51.2 -90 12.2409
      vertex 49.435 -90 14
      vertex 51.2 -90 15.3791
    endloop
  endfacet
  facet normal 0 1 0
    outer loop
      vertex 49.435 -90 14
      vertex 51.2 -90 12.2409
      vertex 49.3694 -90 13.3763
    endloop
  endfacet
  facet normal 0 1 0
    outer loop
      vertex 49.3694 -90 13.3763
      vertex 51.2 -90 12.2409
      vertex 49.1756 -90 12.7798
    endloop
  endfacet
  facet normal 0 1 0
    outer loop
      vertex 49.1756 -90 12.7798
      vertex 51.2 -90 12.2409
      vertex 48.862 -90 12.2366
    endloop
  endfacet
  facet normal -1 0 0
    outer loop
      vertex 42.435 -95.85 10
      vertex 42.435 -90.4 17.6
      vertex 42.435 -90.4 10
    endloop
  endfacet
  facet normal -1 -0 0
    outer loop
      vertex 42.435 -90.4 17.6
      vertex 42.435 -95.85 10
      vertex 42.435 -95.85 17.6
    endloop
  endfacet
  facet normal 0 0 -1
    outer loop
      vertex 62.435 -95.85 10
      vertex 62.035 -90 10
      vertex 62.435 -90.4 10
    endloop
  endfacet
  facet normal 0 0 -1
    outer loop
      vertex 62.435 -95.85 10
      vertex 42.835 -90 10
      vertex 62.035 -90 10
    endloop
  endfacet
  facet normal 0 0 -1
    outer loop
      vertex 42.435 -95.85 10
      vertex 42.835 -90 10
      vertex 62.435 -95.85 10
    endloop
  endfacet
  facet normal 0 0 -1
    outer loop
      vertex 42.835 -90 10
      vertex 42.435 -95.85 10
      vertex 42.435 -90.4 10
    endloop
  endfacet
  facet normal -0.707107 0.707107 0
    outer loop
      vertex 42.435 -90.4 17.6
      vertex 42.835 -90 17.6
      vertex 42.835 -90 10
    endloop
  endfacet
  facet normal -0.707107 0.707107 0
    outer loop
      vertex 42.435 -90.4 17.6
      vertex 42.835 -90 10
      vertex 42.435 -90.4 10
    endloop
  endfacet
  facet normal -0.707107 0.707107 -1.26343e-14
    outer loop
      vertex 42.835 -90 17.6
      vertex 42.435 -90.4 17.6
      vertex 42.635 -90.2 17.8
    endloop
  endfacet
  facet normal 0.707107 0.707107 0
    outer loop
      vertex 62.435 -90.4 17.6
      vertex 62.035 -90 17.6
      vertex 62.235 -90.2 17.8
    endloop
  endfacet
  facet normal 0.707107 0.707107 0
    outer loop
      vertex 62.035 -90 17.6
      vertex 62.435 -90.4 17.6
      vertex 62.035 -90 10
    endloop
  endfacet
  facet normal 0.707107 0.707107 0
    outer loop
      vertex 62.035 -90 10
      vertex 62.435 -90.4 17.6
      vertex 62.435 -90.4 10
    endloop
  endfacet
  facet normal 1 0 0
    outer loop
      vertex 62.435 -90.4 17.6
      vertex 62.435 -90.7218 16.14
      vertex 62.435 -90.4 10
    endloop
  endfacet
  facet normal 1 -0 0
    outer loop
      vertex 62.435 -91.85 17.6
      vertex 62.435 -90.7218 16.14
      vertex 62.435 -90.4 17.6
    endloop
  endfacet
  facet normal 1 0 0
    outer loop
      vertex 62.435 -90.7218 16.14
      vertex 62.435 -91.85 17.6
      vertex 62.435 -91.85 16.14
    endloop
  endfacet
  facet normal 1 -0 0
    outer loop
      vertex 62.435 -90.7218 11.48
      vertex 62.435 -90.4 10
      vertex 62.435 -90.7218 16.14
    endloop
  endfacet
  facet normal 1 0 0
    outer loop
      vertex 62.435 -91.85 10.9
      vertex 62.435 -90.7218 11.48
      vertex 62.435 -91.85 11.48
    endloop
  endfacet
  facet normal 1 0 0
    outer loop
      vertex 62.435 -90.7218 11.48
      vertex 62.435 -91.85 10.9
      vertex 62.435 -90.4 10
    endloop
  endfacet
  facet normal 1 0 0
    outer loop
      vertex 62.435 -95.85 10
      vertex 62.435 -91.85 10.9
      vertex 62.435 -95.85 10.9
    endloop
  endfacet
  facet normal 1 0 0
    outer loop
      vertex 62.435 -91.85 10.9
      vertex 62.435 -95.85 10
      vertex 62.435 -90.4 10
    endloop
  endfacet
  facet normal 0 0 1
    outer loop
      vertex 62.035 -90.4 18
      vertex 50.655 -91.85 18
      vertex 60.585 -91.85 18
    endloop
  endfacet
  facet normal 0 0 1
    outer loop
      vertex 50.655 -91.85 18
      vertex 42.835 -95.85 18
      vertex 50.655 -95.85 18
    endloop
  endfacet
  facet normal 0 0 1
    outer loop
      vertex 50.655 -91.85 18
      vertex 42.835 -90.4 18
      vertex 42.835 -95.85 18
    endloop
  endfacet
  facet normal -0 0 1
    outer loop
      vertex 42.835 -90.4 18
      vertex 50.655 -91.85 18
      vertex 62.035 -90.4 18
    endloop
  endfacet
  facet normal 0 0.707107 0.707107
    outer loop
      vertex 62.035 -90 17.6
      vertex 62.035 -90.4 18
      vertex 62.235 -90.2 17.8
    endloop
  endfacet
  facet normal -0 0.707107 0.707107
    outer loop
      vertex 42.835 -90 17.6
      vertex 62.035 -90.4 18
      vertex 62.035 -90 17.6
    endloop
  endfacet
  facet normal 0 0.707107 0.707107
    outer loop
      vertex 42.835 -90 17.6
      vertex 42.835 -90.4 18
      vertex 62.035 -90.4 18
    endloop
  endfacet
  facet normal 0 0.707107 0.707107
    outer loop
      vertex 42.835 -90.4 18
      vertex 42.835 -90 17.6
      vertex 42.635 -90.2 17.8
    endloop
  endfacet
  facet normal 0 0 1
    outer loop
      vertex 62.035 -90.4 18
      vertex 60.585 -91.85 18
      vertex 62.035 -91.85 18
    endloop
  endfacet
  facet normal -0.707107 -1.25117e-14 0.707107
    outer loop
      vertex 42.435 -90.4 17.6
      vertex 42.835 -90.4 18
      vertex 42.635 -90.2 17.8
    endloop
  endfacet
  facet normal -0.707107 0 0.707107
    outer loop
      vertex 42.435 -95.85 17.6
      vertex 42.835 -90.4 18
      vertex 42.435 -90.4 17.6
    endloop
  endfacet
  facet normal -0.707107 0 0.707107
    outer loop
      vertex 42.835 -90.4 18
      vertex 42.435 -95.85 17.6
      vertex 42.835 -95.85 18
    endloop
  endfacet
  facet normal 0.707107 0 0.707107
    outer loop
      vertex 62.035 -90.4 18
      vertex 62.435 -90.4 17.6
      vertex 62.235 -90.2 17.8
    endloop
  endfacet
  facet normal 0.707107 0 0.707107
    outer loop
      vertex 62.435 -90.4 17.6
      vertex 62.035 -90.4 18
      vertex 62.435 -91.85 17.6
    endloop
  endfacet
  facet normal 0.707107 0 0.707107
    outer loop
      vertex 62.435 -91.85 17.6
      vertex 62.035 -90.4 18
      vertex 62.035 -91.85 18
    endloop
  endfacet
  facet normal -1 0 0
    outer loop
      vertex 54.32 -90.7218 11.591
      vertex 54.32 -90 15.3791
      vertex 54.32 -90 12.2409
    endloop
  endfacet
  facet normal -1 -0 0
    outer loop
      vertex 54.32 -90 15.3791
      vertex 54.32 -90.7218 11.591
      vertex 54.32 -90.7218 16.029
    endloop
  endfacet
  facet normal 1 -0 0
    outer loop
      vertex 51.2 -91.85 16.14
      vertex 51.2 -90 15.3791
      vertex 51.2 -90.845 16.14
    endloop
  endfacet
  facet normal 1 0 0
    outer loop
      vertex 51.2 -90 15.3791
      vertex 51.2 -91.85 16.14
      vertex 51.2 -90 12.2409
    endloop
  endfacet
  facet normal 1 0 0
    outer loop
      vertex 51.2 -91.85 11.48
      vertex 51.2 -90 12.2409
      vertex 51.2 -91.85 16.14
    endloop
  endfacet
  facet normal 1 0 0
    outer loop
      vertex 51.2 -90 12.2409
      vertex 51.2 -91.85 11.48
      vertex 51.2 -90.845 11.48
    endloop
  endfacet
  facet normal 0 -0.669124 0.743151
    outer loop
      vertex 54.32 -90 12.2409
      vertex 54.31 -90.7218 11.591
      vertex 54.32 -90.7218 11.591
    endloop
  endfacet
  facet normal 0 -0.669124 0.743151
    outer loop
      vertex 51.2 -90 12.2409
      vertex 54.31 -90.7218 11.591
      vertex 54.32 -90 12.2409
    endloop
  endfacet
  facet normal -1.47382e-05 -0.669159 0.743119
    outer loop
      vertex 51.2 -90.845 11.48
      vertex 54.31 -90.7218 11.591
      vertex 51.2 -90 12.2409
    endloop
  endfacet
  facet normal 0 -0.669364 0.742934
    outer loop
      vertex 54.31 -90.7218 11.591
      vertex 51.2 -90.845 11.48
      vertex 54.31 -90.845 11.48
    endloop
  endfacet
  facet normal 0 0 1
    outer loop
      vertex 54.31 -90.845 11.48
      vertex 62.435 -90.7218 11.48
      vertex 54.31 -90.7218 11.48
    endloop
  endfacet
  facet normal 0 0 1
    outer loop
      vertex 62.435 -90.7218 11.48
      vertex 54.31 -90.845 11.48
      vertex 62.435 -91.85 11.48
    endloop
  endfacet
  facet normal 0 0 1
    outer loop
      vertex 51.2 -91.85 11.48
      vertex 54.31 -90.845 11.48
      vertex 51.2 -90.845 11.48
    endloop
  endfacet
  facet normal 0 0 1
    outer loop
      vertex 54.31 -90.845 11.48
      vertex 51.2 -91.85 11.48
      vertex 62.435 -91.85 11.48
    endloop
  endfacet
  facet normal 0 0 -1
    outer loop
      vertex 62.435 -91.85 16.14
      vertex 54.31 -90.845 16.14
      vertex 62.435 -90.7218 16.14
    endloop
  endfacet
  facet normal 0 0 -1
    outer loop
      vertex 51.2 -91.85 16.14
      vertex 54.31 -90.845 16.14
      vertex 62.435 -91.85 16.14
    endloop
  endfacet
  facet normal -0 0 -1
    outer loop
      vertex 54.31 -90.845 16.14
      vertex 51.2 -91.85 16.14
      vertex 51.2 -90.845 16.14
    endloop
  endfacet
  facet normal -0 0 -1
    outer loop
      vertex 62.435 -90.7218 16.14
      vertex 54.31 -90.845 16.14
      vertex 54.31 -90.7218 16.14
    endloop
  endfacet
  facet normal -0 -0.669364 -0.742934
    outer loop
      vertex 54.31 -90.845 16.14
      vertex 51.2 -90.845 16.14
      vertex 54.31 -90.7218 16.029
    endloop
  endfacet
  facet normal 0 -0.669124 -0.743151
    outer loop
      vertex 54.31 -90.7218 16.029
      vertex 54.32 -90 15.3791
      vertex 54.32 -90.7218 16.029
    endloop
  endfacet
  facet normal -1.47382e-05 -0.669159 -0.743119
    outer loop
      vertex 51.2 -90 15.3791
      vertex 54.31 -90.7218 16.029
      vertex 51.2 -90.845 16.14
    endloop
  endfacet
  facet normal 0 -0.669124 -0.743151
    outer loop
      vertex 54.31 -90.7218 16.029
      vertex 51.2 -90 15.3791
      vertex 54.32 -90 15.3791
    endloop
  endfacet
  facet normal 0 -1 0
    outer loop
      vertex 54.31 -90.7218 11.591
      vertex 54.31 -90.7218 11.48
      vertex 54.32 -90.7218 11.591
    endloop
  endfacet
  facet normal 0 -1 0
    outer loop
      vertex 54.32 -90.7218 16.029
      vertex 54.31 -90.7218 16.14
      vertex 54.31 -90.7218 16.029
    endloop
  endfacet
  facet normal 0 -1 0
    outer loop
      vertex 54.31 -90.7218 16.14
      vertex 54.32 -90.7218 16.029
      vertex 62.435 -90.7218 16.14
    endloop
  endfacet
  facet normal 0 -1 0
    outer loop
      vertex 54.32 -90.7218 11.591
      vertex 62.435 -90.7218 16.14
      vertex 54.32 -90.7218 16.029
    endloop
  endfacet
  facet normal 0 -1 0
    outer loop
      vertex 62.435 -90.7218 11.48
      vertex 54.32 -90.7218 11.591
      vertex 54.31 -90.7218 11.48
    endloop
  endfacet
  facet normal 0 -1 0
    outer loop
      vertex 54.32 -90.7218 11.591
      vertex 62.435 -90.7218 11.48
      vertex 62.435 -90.7218 16.14
    endloop
  endfacet
  facet normal 1 0 -0
    outer loop
      vertex 54.31 -90.7218 16.029
      vertex 54.31 -90.7218 16.14
      vertex 54.31 -90.845 16.14
    endloop
  endfacet
  facet normal 1 0 -0
    outer loop
      vertex 54.31 -90.7218 11.48
      vertex 54.31 -90.7218 11.591
      vertex 54.31 -90.845 11.48
    endloop
  endfacet
  facet normal -0.890979 0 -0.454044
    outer loop
      vertex 48.0518 -95.85 14.5253
      vertex 47.8103 -94.4 14.9992
      vertex 48.0518 -94.4 14.5253
    endloop
  endfacet
  facet normal -0.890979 -0 -0.454044
    outer loop
      vertex 47.8103 -94.4 14.9992
      vertex 48.0518 -95.85 14.5253
      vertex 47.8103 -95.85 14.9992
    endloop
  endfacet
  facet normal -0.987688 0 -0.156436
    outer loop
      vertex 48.135 -95.85 14
      vertex 48.0518 -94.4 14.5253
      vertex 48.135 -94.4 14
    endloop
  endfacet
  facet normal -0.987688 -0 -0.156436
    outer loop
      vertex 48.0518 -94.4 14.5253
      vertex 48.135 -95.85 14
      vertex 48.0518 -95.85 14.5253
    endloop
  endfacet
  facet normal -0.707107 0 -0.707107
    outer loop
      vertex 47.4342 -95.85 15.3753
      vertex 47.8103 -94.4 14.9992
      vertex 47.8103 -95.85 14.9992
    endloop
  endfacet
  facet normal -0.707107 0 -0.707107
    outer loop
      vertex 47.8103 -94.4 14.9992
      vertex 47.4342 -95.85 15.3753
      vertex 47.4342 -94.4 15.3753
    endloop
  endfacet
  facet normal -0.156436 0 0.987688
    outer loop
      vertex 46.435 -94.4 12.3
      vertex 46.9603 -95.85 12.3832
      vertex 46.9603 -94.4 12.3832
    endloop
  endfacet
  facet normal -0.156436 0 0.987688
    outer loop
      vertex 46.9603 -95.85 12.3832
      vertex 46.435 -94.4 12.3
      vertex 46.435 -95.85 12.3
    endloop
  endfacet
  facet normal 0.454044 0 -0.890979
    outer loop
      vertex 45.4358 -95.85 15.3753
      vertex 45.9097 -94.4 15.6168
      vertex 45.9097 -95.85 15.6168
    endloop
  endfacet
  facet normal 0.454044 0 -0.890979
    outer loop
      vertex 45.9097 -94.4 15.6168
      vertex 45.4358 -95.85 15.3753
      vertex 45.4358 -94.4 15.3753
    endloop
  endfacet
  facet normal -0.454044 0 0.890979
    outer loop
      vertex 46.9603 -94.4 12.3832
      vertex 47.4342 -95.85 12.6247
      vertex 47.4342 -94.4 12.6247
    endloop
  endfacet
  facet normal -0.454044 0 0.890979
    outer loop
      vertex 47.4342 -95.85 12.6247
      vertex 46.9603 -94.4 12.3832
      vertex 46.9603 -95.85 12.3832
    endloop
  endfacet
  facet normal -0.707107 0 0.707107
    outer loop
      vertex 47.4342 -94.4 12.6247
      vertex 47.8103 -95.85 13.0008
      vertex 47.8103 -94.4 13.0008
    endloop
  endfacet
  facet normal -0.707107 0 0.707107
    outer loop
      vertex 47.8103 -95.85 13.0008
      vertex 47.4342 -94.4 12.6247
      vertex 47.4342 -95.85 12.6247
    endloop
  endfacet
  facet normal 0.156436 0 0.987688
    outer loop
      vertex 45.9097 -94.4 12.3832
      vertex 46.435 -95.85 12.3
      vertex 46.435 -94.4 12.3
    endloop
  endfacet
  facet normal 0.156436 0 0.987688
    outer loop
      vertex 46.435 -95.85 12.3
      vertex 45.9097 -94.4 12.3832
      vertex 45.9097 -95.85 12.3832
    endloop
  endfacet
  facet normal 0.890979 0 -0.454044
    outer loop
      vertex 45.0597 -95.85 14.9992
      vertex 44.8182 -94.4 14.5253
      vertex 45.0597 -94.4 14.9992
    endloop
  endfacet
  facet normal 0.890979 0 -0.454044
    outer loop
      vertex 44.8182 -94.4 14.5253
      vertex 45.0597 -95.85 14.9992
      vertex 44.8182 -95.85 14.5253
    endloop
  endfacet
  facet normal -0.987688 0 0.156436
    outer loop
      vertex 48.0518 -95.85 13.4747
      vertex 48.135 -94.4 14
      vertex 48.0518 -94.4 13.4747
    endloop
  endfacet
  facet normal -0.987688 0 0.156436
    outer loop
      vertex 48.135 -94.4 14
      vertex 48.0518 -95.85 13.4747
      vertex 48.135 -95.85 14
    endloop
  endfacet
  facet normal 0.987688 0 -0.156436
    outer loop
      vertex 44.8182 -95.85 14.5253
      vertex 44.735 -94.4 14
      vertex 44.8182 -94.4 14.5253
    endloop
  endfacet
  facet normal 0.987688 0 -0.156436
    outer loop
      vertex 44.735 -94.4 14
      vertex 44.8182 -95.85 14.5253
      vertex 44.735 -95.85 14
    endloop
  endfacet
  facet normal -0.890979 0 0.454044
    outer loop
      vertex 47.8103 -95.85 13.0008
      vertex 48.0518 -94.4 13.4747
      vertex 47.8103 -94.4 13.0008
    endloop
  endfacet
  facet normal -0.890979 0 0.454044
    outer loop
      vertex 48.0518 -94.4 13.4747
      vertex 47.8103 -95.85 13.0008
      vertex 48.0518 -95.85 13.4747
    endloop
  endfacet
  facet normal -0.156436 0 -0.987688
    outer loop
      vertex 46.435 -95.85 15.7
      vertex 46.9603 -94.4 15.6168
      vertex 46.9603 -95.85 15.6168
    endloop
  endfacet
  facet normal -0.156436 0 -0.987688
    outer loop
      vertex 46.9603 -94.4 15.6168
      vertex 46.435 -95.85 15.7
      vertex 46.435 -94.4 15.7
    endloop
  endfacet
  facet normal -0.454044 0 -0.890979
    outer loop
      vertex 46.9603 -95.85 15.6168
      vertex 47.4342 -94.4 15.3753
      vertex 47.4342 -95.85 15.3753
    endloop
  endfacet
  facet normal -0.454044 0 -0.890979
    outer loop
      vertex 47.4342 -94.4 15.3753
      vertex 46.9603 -95.85 15.6168
      vertex 46.9603 -94.4 15.6168
    endloop
  endfacet
  facet normal 0.890979 -0 0.454044
    outer loop
      vertex 44.8182 -95.85 13.4747
      vertex 45.0597 -94.4 13.0008
      vertex 44.8182 -94.4 13.4747
    endloop
  endfacet
  facet normal 0.890979 0 0.454044
    outer loop
      vertex 45.0597 -94.4 13.0008
      vertex 44.8182 -95.85 13.4747
      vertex 45.0597 -95.85 13.0008
    endloop
  endfacet
  facet normal 0.156436 0 -0.987688
    outer loop
      vertex 45.9097 -95.85 15.6168
      vertex 46.435 -94.4 15.7
      vertex 46.435 -95.85 15.7
    endloop
  endfacet
  facet normal 0.156436 0 -0.987688
    outer loop
      vertex 46.435 -94.4 15.7
      vertex 45.9097 -95.85 15.6168
      vertex 45.9097 -94.4 15.6168
    endloop
  endfacet
  facet normal 0.707107 -0 0.707107
    outer loop
      vertex 45.0597 -95.85 13.0008
      vertex 45.4358 -94.4 12.6247
      vertex 45.0597 -94.4 13.0008
    endloop
  endfacet
  facet normal 0.707107 0 0.707107
    outer loop
      vertex 45.4358 -94.4 12.6247
      vertex 45.0597 -95.85 13.0008
      vertex 45.4358 -95.85 12.6247
    endloop
  endfacet
  facet normal 0.707107 0 -0.707107
    outer loop
      vertex 45.4358 -95.85 15.3753
      vertex 45.0597 -94.4 14.9992
      vertex 45.4358 -94.4 15.3753
    endloop
  endfacet
  facet normal 0.707107 0 -0.707107
    outer loop
      vertex 45.0597 -94.4 14.9992
      vertex 45.4358 -95.85 15.3753
      vertex 45.0597 -95.85 14.9992
    endloop
  endfacet
  facet normal 0.987688 -0 0.156436
    outer loop
      vertex 44.735 -95.85 14
      vertex 44.8182 -94.4 13.4747
      vertex 44.735 -94.4 14
    endloop
  endfacet
  facet normal 0.987688 0 0.156436
    outer loop
      vertex 44.8182 -94.4 13.4747
      vertex 44.735 -95.85 14
      vertex 44.8182 -95.85 13.4747
    endloop
  endfacet
  facet normal 0.454044 0 0.890979
    outer loop
      vertex 45.4358 -94.4 12.6247
      vertex 45.9097 -95.85 12.3832
      vertex 45.9097 -94.4 12.3832
    endloop
  endfacet
  facet normal 0.454044 0 0.890979
    outer loop
      vertex 45.9097 -95.85 12.3832
      vertex 45.4358 -94.4 12.6247
      vertex 45.4358 -95.85 12.6247
    endloop
  endfacet
  facet normal 0.406775 0 0.913529
    outer loop
      vertex 44.935 -90 11.4019
      vertex 45.5079 -94 11.1468
      vertex 45.5079 -90 11.1468
    endloop
  endfacet
  facet normal 0.406775 0 0.913529
    outer loop
      vertex 45.5079 -94 11.1468
      vertex 44.935 -90 11.4019
      vertex 44.935 -94 11.4019
    endloop
  endfacet
  facet normal -0.951063 0 -0.308996
    outer loop
      vertex 49.3694 -94 14.6237
      vertex 49.1756 -90 15.2202
      vertex 49.3694 -90 14.6237
    endloop
  endfacet
  facet normal -0.951063 -0 -0.308996
    outer loop
      vertex 49.1756 -90 15.2202
      vertex 49.3694 -94 14.6237
      vertex 49.1756 -94 15.2202
    endloop
  endfacet
  facet normal -0.994514 0 -0.104602
    outer loop
      vertex 49.435 -94 14
      vertex 49.3694 -90 14.6237
      vertex 49.435 -90 14
    endloop
  endfacet
  facet normal -0.994514 -0 -0.104602
    outer loop
      vertex 49.3694 -90 14.6237
      vertex 49.435 -94 14
      vertex 49.3694 -94 14.6237
    endloop
  endfacet
  facet normal -0.866037 0 -0.49998
    outer loop
      vertex 49.1756 -94 15.2202
      vertex 48.862 -90 15.7634
      vertex 49.1756 -90 15.2202
    endloop
  endfacet
  facet normal -0.866037 -0 -0.49998
    outer loop
      vertex 48.862 -90 15.7634
      vertex 49.1756 -94 15.2202
      vertex 48.862 -94 15.7634
    endloop
  endfacet
  facet normal 0.743056 -0 0.669229
    outer loop
      vertex 44.0079 -94 12.2366
      vertex 44.4276 -90 11.7706
      vertex 44.0079 -90 12.2366
    endloop
  endfacet
  facet normal 0.743056 0 0.669229
    outer loop
      vertex 44.4276 -90 11.7706
      vertex 44.0079 -94 12.2366
      vertex 44.4276 -94 11.7706
    endloop
  endfacet
  facet normal -0.994514 0 0.104602
    outer loop
      vertex 49.3694 -94 13.3763
      vertex 49.435 -90 14
      vertex 49.3694 -90 13.3763
    endloop
  endfacet
  facet normal -0.994514 0 0.104602
    outer loop
      vertex 49.435 -90 14
      vertex 49.3694 -94 13.3763
      vertex 49.435 -94 14
    endloop
  endfacet
  facet normal -0.866037 0 0.49998
    outer loop
      vertex 48.862 -94 12.2366
      vertex 49.1756 -90 12.7798
      vertex 48.862 -90 12.2366
    endloop
  endfacet
  facet normal -0.866037 0 0.49998
    outer loop
      vertex 49.1756 -90 12.7798
      vertex 48.862 -94 12.2366
      vertex 49.1756 -94 12.7798
    endloop
  endfacet
  facet normal 0 1 0
    outer loop
      vertex 47.362 -94 16.8532
      vertex 46.1214 -94 16.9836
      vertex 46.7486 -94 16.9836
    endloop
  endfacet
  facet normal 0 1 0
    outer loop
      vertex 47.362 -94 16.8532
      vertex 45.5079 -94 16.8532
      vertex 46.1214 -94 16.9836
    endloop
  endfacet
  facet normal 0 1 0
    outer loop
      vertex 47.935 -94 16.5981
      vertex 45.5079 -94 16.8532
      vertex 47.362 -94 16.8532
    endloop
  endfacet
  facet normal 0 1 0
    outer loop
      vertex 47.935 -94 16.5981
      vertex 44.935 -94 16.5981
      vertex 45.5079 -94 16.8532
    endloop
  endfacet
  facet normal 0 1 0
    outer loop
      vertex 48.4424 -94 16.2294
      vertex 44.935 -94 16.5981
      vertex 47.935 -94 16.5981
    endloop
  endfacet
  facet normal 0 1 0
    outer loop
      vertex 48.4424 -94 16.2294
      vertex 44.4276 -94 16.2294
      vertex 44.935 -94 16.5981
    endloop
  endfacet
  facet normal 0 1 0
    outer loop
      vertex 48.862 -94 15.7634
      vertex 44.4276 -94 16.2294
      vertex 48.4424 -94 16.2294
    endloop
  endfacet
  facet normal 0 1 0
    outer loop
      vertex 48.862 -94 15.7634
      vertex 44.0079 -94 15.7634
      vertex 44.4276 -94 16.2294
    endloop
  endfacet
  facet normal 0 1 0
    outer loop
      vertex 49.1756 -94 15.2202
      vertex 44.0079 -94 15.7634
      vertex 48.862 -94 15.7634
    endloop
  endfacet
  facet normal 0 1 0
    outer loop
      vertex 49.1756 -94 15.2202
      vertex 43.6944 -94 15.2202
      vertex 44.0079 -94 15.7634
    endloop
  endfacet
  facet normal 0 1 0
    outer loop
      vertex 49.3694 -94 14.6237
      vertex 43.6944 -94 15.2202
      vertex 49.1756 -94 15.2202
    endloop
  endfacet
  facet normal 0 1 0
    outer loop
      vertex 49.3694 -94 14.6237
      vertex 43.5006 -94 14.6237
      vertex 43.6944 -94 15.2202
    endloop
  endfacet
  facet normal 0 1 0
    outer loop
      vertex 49.435 -94 14
      vertex 43.5006 -94 14.6237
      vertex 49.3694 -94 14.6237
    endloop
  endfacet
  facet normal 0 1 0
    outer loop
      vertex 49.435 -94 14
      vertex 43.435 -94 14
      vertex 43.5006 -94 14.6237
    endloop
  endfacet
  facet normal 0 1 -0
    outer loop
      vertex 49.3694 -94 13.3763
      vertex 43.435 -94 14
      vertex 49.435 -94 14
    endloop
  endfacet
  facet normal 0 1 0
    outer loop
      vertex 49.3694 -94 13.3763
      vertex 43.5006 -94 13.3763
      vertex 43.435 -94 14
    endloop
  endfacet
  facet normal 0 1 -0
    outer loop
      vertex 49.1756 -94 12.7798
      vertex 43.5006 -94 13.3763
      vertex 49.3694 -94 13.3763
    endloop
  endfacet
  facet normal 0 1 0
    outer loop
      vertex 49.1756 -94 12.7798
      vertex 43.6944 -94 12.7798
      vertex 43.5006 -94 13.3763
    endloop
  endfacet
  facet normal 0 1 -0
    outer loop
      vertex 48.862 -94 12.2366
      vertex 43.6944 -94 12.7798
      vertex 49.1756 -94 12.7798
    endloop
  endfacet
  facet normal 0 1 0
    outer loop
      vertex 48.862 -94 12.2366
      vertex 44.0079 -94 12.2366
      vertex 43.6944 -94 12.7798
    endloop
  endfacet
  facet normal 0 1 -0
    outer loop
      vertex 48.4424 -94 11.7706
      vertex 44.0079 -94 12.2366
      vertex 48.862 -94 12.2366
    endloop
  endfacet
  facet normal 0 1 0
    outer loop
      vertex 48.4424 -94 11.7706
      vertex 44.4276 -94 11.7706
      vertex 44.0079 -94 12.2366
    endloop
  endfacet
  facet normal 0 1 -0
    outer loop
      vertex 47.935 -94 11.4019
      vertex 44.4276 -94 11.7706
      vertex 48.4424 -94 11.7706
    endloop
  endfacet
  facet normal 0 1 0
    outer loop
      vertex 47.935 -94 11.4019
      vertex 44.935 -94 11.4019
      vertex 44.4276 -94 11.7706
    endloop
  endfacet
  facet normal 0 1 -0
    outer loop
      vertex 47.362 -94 11.1468
      vertex 44.935 -94 11.4019
      vertex 47.935 -94 11.4019
    endloop
  endfacet
  facet normal 0 1 0
    outer loop
      vertex 47.362 -94 11.1468
      vertex 45.5079 -94 11.1468
      vertex 44.935 -94 11.4019
    endloop
  endfacet
  facet normal 0 1 -0
    outer loop
      vertex 46.7486 -94 11.0164
      vertex 45.5079 -94 11.1468
      vertex 47.362 -94 11.1468
    endloop
  endfacet
  facet normal 0 1 0
    outer loop
      vertex 45.5079 -94 11.1468
      vertex 46.7486 -94 11.0164
      vertex 46.1214 -94 11.0164
    endloop
  endfacet
  facet normal -0.406715 0 -0.913555
    outer loop
      vertex 47.362 -94 16.8532
      vertex 47.935 -90 16.5981
      vertex 47.935 -94 16.5981
    endloop
  endfacet
  facet normal -0.406715 0 -0.913555
    outer loop
      vertex 47.935 -90 16.5981
      vertex 47.362 -94 16.8532
      vertex 47.362 -90 16.8532
    endloop
  endfacet
  facet normal 0.951063 -0 0.308996
    outer loop
      vertex 43.5006 -94 13.3763
      vertex 43.6944 -90 12.7798
      vertex 43.5006 -90 13.3763
    endloop
  endfacet
  facet normal 0.951063 0 0.308996
    outer loop
      vertex 43.6944 -90 12.7798
      vertex 43.5006 -94 13.3763
      vertex 43.6944 -94 12.7798
    endloop
  endfacet
  facet normal 0.58784 0 -0.808977
    outer loop
      vertex 44.4276 -94 16.2294
      vertex 44.935 -90 16.5981
      vertex 44.935 -94 16.5981
    endloop
  endfacet
  facet normal 0.58784 0 -0.808977
    outer loop
      vertex 44.935 -90 16.5981
      vertex 44.4276 -94 16.2294
      vertex 44.4276 -90 16.2294
    endloop
  endfacet
  facet normal -0.58784 0 -0.808977
    outer loop
      vertex 47.935 -94 16.5981
      vertex 48.4424 -90 16.2294
      vertex 48.4424 -94 16.2294
    endloop
  endfacet
  facet normal -0.58784 0 -0.808977
    outer loop
      vertex 48.4424 -90 16.2294
      vertex 47.935 -94 16.5981
      vertex 47.935 -90 16.5981
    endloop
  endfacet
  facet normal 0.994514 0 -0.104602
    outer loop
      vertex 43.5006 -94 14.6237
      vertex 43.435 -90 14
      vertex 43.5006 -90 14.6237
    endloop
  endfacet
  facet normal 0.994514 0 -0.104602
    outer loop
      vertex 43.435 -90 14
      vertex 43.5006 -94 14.6237
      vertex 43.435 -94 14
    endloop
  endfacet
  facet normal -0.207939 0 0.978142
    outer loop
      vertex 46.7486 -90 11.0164
      vertex 47.362 -94 11.1468
      vertex 47.362 -90 11.1468
    endloop
  endfacet
  facet normal -0.207939 0 0.978142
    outer loop
      vertex 47.362 -94 11.1468
      vertex 46.7486 -90 11.0164
      vertex 46.7486 -94 11.0164
    endloop
  endfacet
  facet normal 0.994514 -0 0.104602
    outer loop
      vertex 43.435 -94 14
      vertex 43.5006 -90 13.3763
      vertex 43.435 -90 14
    endloop
  endfacet
  facet normal 0.994514 0 0.104602
    outer loop
      vertex 43.5006 -90 13.3763
      vertex 43.435 -94 14
      vertex 43.5006 -94 13.3763
    endloop
  endfacet
  facet normal -0.743136 0 0.669141
    outer loop
      vertex 48.4424 -94 11.7706
      vertex 48.862 -90 12.2366
      vertex 48.4424 -90 11.7706
    endloop
  endfacet
  facet normal -0.743136 0 0.669141
    outer loop
      vertex 48.862 -90 12.2366
      vertex 48.4424 -94 11.7706
      vertex 48.862 -94 12.2366
    endloop
  endfacet
  facet normal -0 0 1
    outer loop
      vertex 46.1214 -90 11.0164
      vertex 46.7486 -94 11.0164
      vertex 46.7486 -90 11.0164
    endloop
  endfacet
  facet normal 0 0 1
    outer loop
      vertex 46.7486 -94 11.0164
      vertex 46.1214 -90 11.0164
      vertex 46.1214 -94 11.0164
    endloop
  endfacet
  facet normal 0.951063 0 -0.308996
    outer loop
      vertex 43.6944 -94 15.2202
      vertex 43.5006 -90 14.6237
      vertex 43.6944 -90 15.2202
    endloop
  endfacet
  facet normal 0.951063 0 -0.308996
    outer loop
      vertex 43.5006 -90 14.6237
      vertex 43.6944 -94 15.2202
      vertex 43.5006 -94 14.6237
    endloop
  endfacet
  facet normal 0.207906 0 -0.978149
    outer loop
      vertex 45.5079 -94 16.8532
      vertex 46.1214 -90 16.9836
      vertex 46.1214 -94 16.9836
    endloop
  endfacet
  facet normal 0.207906 0 -0.978149
    outer loop
      vertex 46.1214 -90 16.9836
      vertex 45.5079 -94 16.8532
      vertex 45.5079 -90 16.8532
    endloop
  endfacet
  facet normal -0.207939 0 -0.978142
    outer loop
      vertex 46.7486 -94 16.9836
      vertex 47.362 -90 16.8532
      vertex 47.362 -94 16.8532
    endloop
  endfacet
  facet normal -0.207939 0 -0.978142
    outer loop
      vertex 47.362 -90 16.8532
      vertex 46.7486 -94 16.9836
      vertex 46.7486 -90 16.9836
    endloop
  endfacet
  facet normal 0.406775 0 -0.913529
    outer loop
      vertex 44.935 -94 16.5981
      vertex 45.5079 -90 16.8532
      vertex 45.5079 -94 16.8532
    endloop
  endfacet
  facet normal 0.406775 0 -0.913529
    outer loop
      vertex 45.5079 -90 16.8532
      vertex 44.935 -94 16.5981
      vertex 44.935 -90 16.5981
    endloop
  endfacet
  facet normal -0.406715 0 0.913555
    outer loop
      vertex 47.362 -90 11.1468
      vertex 47.935 -94 11.4019
      vertex 47.935 -90 11.4019
    endloop
  endfacet
  facet normal -0.406715 0 0.913555
    outer loop
      vertex 47.935 -94 11.4019
      vertex 47.362 -90 11.1468
      vertex 47.362 -94 11.1468
    endloop
  endfacet
  facet normal -0.951063 0 0.308996
    outer loop
      vertex 49.1756 -94 12.7798
      vertex 49.3694 -90 13.3763
      vertex 49.1756 -90 12.7798
    endloop
  endfacet
  facet normal -0.951063 0 0.308996
    outer loop
      vertex 49.3694 -90 13.3763
      vertex 49.1756 -94 12.7798
      vertex 49.3694 -94 13.3763
    endloop
  endfacet
  facet normal 0.743056 0 -0.669229
    outer loop
      vertex 44.4276 -94 16.2294
      vertex 44.0079 -90 15.7634
      vertex 44.4276 -90 16.2294
    endloop
  endfacet
  facet normal 0.743056 0 -0.669229
    outer loop
      vertex 44.0079 -90 15.7634
      vertex 44.4276 -94 16.2294
      vertex 44.0079 -94 15.7634
    endloop
  endfacet
  facet normal 0.207906 0 0.978149
    outer loop
      vertex 45.5079 -90 11.1468
      vertex 46.1214 -94 11.0164
      vertex 46.1214 -90 11.0164
    endloop
  endfacet
  facet normal 0.207906 0 0.978149
    outer loop
      vertex 46.1214 -94 11.0164
      vertex 45.5079 -90 11.1468
      vertex 45.5079 -94 11.1468
    endloop
  endfacet
  facet normal 0.866106 -0 0.49986
    outer loop
      vertex 43.6944 -94 12.7798
      vertex 44.0079 -90 12.2366
      vertex 43.6944 -90 12.7798
    endloop
  endfacet
  facet normal 0.866106 0 0.49986
    outer loop
      vertex 44.0079 -90 12.2366
      vertex 43.6944 -94 12.7798
      vertex 44.0079 -94 12.2366
    endloop
  endfacet
  facet normal -0.743136 0 -0.669141
    outer loop
      vertex 48.862 -94 15.7634
      vertex 48.4424 -90 16.2294
      vertex 48.862 -90 15.7634
    endloop
  endfacet
  facet normal -0.743136 -0 -0.669141
    outer loop
      vertex 48.4424 -90 16.2294
      vertex 48.862 -94 15.7634
      vertex 48.4424 -94 16.2294
    endloop
  endfacet
  facet normal 0.866106 0 -0.49986
    outer loop
      vertex 44.0079 -94 15.7634
      vertex 43.6944 -90 15.2202
      vertex 44.0079 -90 15.7634
    endloop
  endfacet
  facet normal 0.866106 0 -0.49986
    outer loop
      vertex 43.6944 -90 15.2202
      vertex 44.0079 -94 15.7634
      vertex 43.6944 -94 15.2202
    endloop
  endfacet
  facet normal -0.58784 0 0.808977
    outer loop
      vertex 47.935 -90 11.4019
      vertex 48.4424 -94 11.7706
      vertex 48.4424 -90 11.7706
    endloop
  endfacet
  facet normal -0.58784 0 0.808977
    outer loop
      vertex 48.4424 -94 11.7706
      vertex 47.935 -90 11.4019
      vertex 47.935 -94 11.4019
    endloop
  endfacet
  facet normal 0 0 -1
    outer loop
      vertex 46.1214 -94 16.9836
      vertex 46.7486 -90 16.9836
      vertex 46.7486 -94 16.9836
    endloop
  endfacet
  facet normal -0 0 -1
    outer loop
      vertex 46.7486 -90 16.9836
      vertex 46.1214 -94 16.9836
      vertex 46.1214 -90 16.9836
    endloop
  endfacet
  facet normal 0.58784 0 0.808977
    outer loop
      vertex 44.4276 -90 11.7706
      vertex 44.935 -94 11.4019
      vertex 44.935 -90 11.4019
    endloop
  endfacet
  facet normal 0.58784 0 0.808977
    outer loop
      vertex 44.935 -94 11.4019
      vertex 44.4276 -90 11.7706
      vertex 44.4276 -94 11.7706
    endloop
  endfacet
  facet normal 0 -1 0
    outer loop
      vertex 45.9097 -94.4 15.6168
      vertex 46.9603 -94.4 15.6168
      vertex 46.435 -94.4 15.7
    endloop
  endfacet
  facet normal 0 -1 0
    outer loop
      vertex 45.4358 -94.4 15.3753
      vertex 46.9603 -94.4 15.6168
      vertex 45.9097 -94.4 15.6168
    endloop
  endfacet
  facet normal 0 -1 0
    outer loop
      vertex 45.4358 -94.4 15.3753
      vertex 47.4342 -94.4 15.3753
      vertex 46.9603 -94.4 15.6168
    endloop
  endfacet
  facet normal 0 -1 0
    outer loop
      vertex 45.0597 -94.4 14.9992
      vertex 47.4342 -94.4 15.3753
      vertex 45.4358 -94.4 15.3753
    endloop
  endfacet
  facet normal 0 -1 0
    outer loop
      vertex 45.0597 -94.4 14.9992
      vertex 47.8103 -94.4 14.9992
      vertex 47.4342 -94.4 15.3753
    endloop
  endfacet
  facet normal 0 -1 0
    outer loop
      vertex 44.8182 -94.4 14.5253
      vertex 47.8103 -94.4 14.9992
      vertex 45.0597 -94.4 14.9992
    endloop
  endfacet
  facet normal 0 -1 0
    outer loop
      vertex 44.8182 -94.4 14.5253
      vertex 48.0518 -94.4 14.5253
      vertex 47.8103 -94.4 14.9992
    endloop
  endfacet
  facet normal 0 -1 0
    outer loop
      vertex 44.735 -94.4 14
      vertex 48.0518 -94.4 14.5253
      vertex 44.8182 -94.4 14.5253
    endloop
  endfacet
  facet normal 0 -1 0
    outer loop
      vertex 44.735 -94.4 14
      vertex 48.135 -94.4 14
      vertex 48.0518 -94.4 14.5253
    endloop
  endfacet
  facet normal 0 -1 0
    outer loop
      vertex 44.8182 -94.4 13.4747
      vertex 48.135 -94.4 14
      vertex 44.735 -94.4 14
    endloop
  endfacet
  facet normal 0 -1 0
    outer loop
      vertex 44.8182 -94.4 13.4747
      vertex 48.0518 -94.4 13.4747
      vertex 48.135 -94.4 14
    endloop
  endfacet
  facet normal 0 -1 0
    outer loop
      vertex 45.0597 -94.4 13.0008
      vertex 48.0518 -94.4 13.4747
      vertex 44.8182 -94.4 13.4747
    endloop
  endfacet
  facet normal 0 -1 0
    outer loop
      vertex 45.0597 -94.4 13.0008
      vertex 47.8103 -94.4 13.0008
      vertex 48.0518 -94.4 13.4747
    endloop
  endfacet
  facet normal 0 -1 0
    outer loop
      vertex 45.4358 -94.4 12.6247
      vertex 47.8103 -94.4 13.0008
      vertex 45.0597 -94.4 13.0008
    endloop
  endfacet
  facet normal 0 -1 0
    outer loop
      vertex 45.4358 -94.4 12.6247
      vertex 47.4342 -94.4 12.6247
      vertex 47.8103 -94.4 13.0008
    endloop
  endfacet
  facet normal 0 -1 0
    outer loop
      vertex 45.9097 -94.4 12.3832
      vertex 47.4342 -94.4 12.6247
      vertex 45.4358 -94.4 12.6247
    endloop
  endfacet
  facet normal 0 -1 0
    outer loop
      vertex 45.9097 -94.4 12.3832
      vertex 46.9603 -94.4 12.3832
      vertex 47.4342 -94.4 12.6247
    endloop
  endfacet
  facet normal -0 -1 0
    outer loop
      vertex 46.9603 -94.4 12.3832
      vertex 45.9097 -94.4 12.3832
      vertex 46.435 -94.4 12.3
    endloop
  endfacet
  facet normal 0 -1 0
    outer loop
      vertex 51.2 -91.85 16.14
      vertex 60.585 -91.85 18
      vertex 50.655 -91.85 18
    endloop
  endfacet
  facet normal 0 -1 0
    outer loop
      vertex 62.435 -91.85 16.14
      vertex 60.585 -91.85 18
      vertex 51.2 -91.85 16.14
    endloop
  endfacet
  facet normal 0 -1 0
    outer loop
      vertex 60.585 -91.85 18
      vertex 62.435 -91.85 16.14
      vertex 62.035 -91.85 18
    endloop
  endfacet
  facet normal 0 -1 0
    outer loop
      vertex 50.655 -91.85 10.9
      vertex 51.2 -91.85 16.14
      vertex 50.655 -91.85 18
    endloop
  endfacet
  facet normal 0 -1 -0
    outer loop
      vertex 51.2 -91.85 16.14
      vertex 50.655 -91.85 10.9
      vertex 51.2 -91.85 11.48
    endloop
  endfacet
  facet normal 0 -1 0
    outer loop
      vertex 62.435 -91.85 10.9
      vertex 51.2 -91.85 11.48
      vertex 50.655 -91.85 10.9
    endloop
  endfacet
  facet normal 0 -1 0
    outer loop
      vertex 51.2 -91.85 11.48
      vertex 62.435 -91.85 10.9
      vertex 62.435 -91.85 11.48
    endloop
  endfacet
  facet normal 0 -1 0
    outer loop
      vertex 62.035 -91.85 18
      vertex 62.435 -91.85 16.14
      vertex 62.435 -91.85 17.6
    endloop
  endfacet
  facet normal 1 -0 0
    outer loop
      vertex 50.655 -95.85 18
      vertex 50.655 -91.85 10.9
      vertex 50.655 -91.85 18
    endloop
  endfacet
  facet normal 1 0 0
    outer loop
      vertex 50.655 -91.85 10.9
      vertex 50.655 -95.85 18
      vertex 50.655 -95.85 10.9
    endloop
  endfacet
  facet normal 0 -1 0
    outer loop
      vertex 42.835 -95.85 18
      vertex 45.9097 -95.85 15.6168
      vertex 46.435 -95.85 15.7
    endloop
  endfacet
  facet normal 0 -1 0
    outer loop
      vertex 42.835 -95.85 18
      vertex 45.4358 -95.85 15.3753
      vertex 45.9097 -95.85 15.6168
    endloop
  endfacet
  facet normal 0 -1 0
    outer loop
      vertex 42.435 -95.85 17.6
      vertex 45.0597 -95.85 14.9992
      vertex 45.4358 -95.85 15.3753
    endloop
  endfacet
  facet normal 0 -1 0
    outer loop
      vertex 42.435 -95.85 17.6
      vertex 44.8182 -95.85 14.5253
      vertex 45.0597 -95.85 14.9992
    endloop
  endfacet
  facet normal 0 -1 0
    outer loop
      vertex 42.435 -95.85 17.6
      vertex 44.735 -95.85 14
      vertex 44.8182 -95.85 14.5253
    endloop
  endfacet
  facet normal 0 -1 0
    outer loop
      vertex 42.435 -95.85 10
      vertex 44.735 -95.85 14
      vertex 42.435 -95.85 17.6
    endloop
  endfacet
  facet normal 0 -1 -0
    outer loop
      vertex 44.735 -95.85 14
      vertex 42.435 -95.85 10
      vertex 44.8182 -95.85 13.4747
    endloop
  endfacet
  facet normal 0 -1 0
    outer loop
      vertex 42.435 -95.85 10
      vertex 46.435 -95.85 12.3
      vertex 45.9097 -95.85 12.3832
    endloop
  endfacet
  facet normal 0 -1 -0
    outer loop
      vertex 44.8182 -95.85 13.4747
      vertex 42.435 -95.85 10
      vertex 45.0597 -95.85 13.0008
    endloop
  endfacet
  facet normal 0 -1 0
    outer loop
      vertex 42.435 -95.85 10
      vertex 45.4358 -95.85 12.6247
      vertex 45.0597 -95.85 13.0008
    endloop
  endfacet
  facet normal 0 -1 0
    outer loop
      vertex 42.435 -95.85 10
      vertex 45.9097 -95.85 12.3832
      vertex 45.4358 -95.85 12.6247
    endloop
  endfacet
  facet normal 0 -1 -0
    outer loop
      vertex 46.435 -95.85 12.3
      vertex 42.435 -95.85 10
      vertex 50.655 -95.85 10.9
    endloop
  endfacet
  facet normal 0 -1 0
    outer loop
      vertex 62.435 -95.85 10
      vertex 50.655 -95.85 10.9
      vertex 42.435 -95.85 10
    endloop
  endfacet
  facet normal 0 -1 0
    outer loop
      vertex 50.655 -95.85 10.9
      vertex 62.435 -95.85 10
      vertex 62.435 -95.85 10.9
    endloop
  endfacet
  facet normal 0 -1 0
    outer loop
      vertex 45.4358 -95.85 15.3753
      vertex 42.835 -95.85 18
      vertex 42.435 -95.85 17.6
    endloop
  endfacet
  facet normal 0 -1 0
    outer loop
      vertex 42.835 -95.85 18
      vertex 46.435 -95.85 15.7
      vertex 50.655 -95.85 18
    endloop
  endfacet
  facet normal 0 -1 0
    outer loop
      vertex 46.9603 -95.85 15.6168
      vertex 50.655 -95.85 18
      vertex 46.435 -95.85 15.7
    endloop
  endfacet
  facet normal 0 -1 0
    outer loop
      vertex 47.4342 -95.85 15.3753
      vertex 50.655 -95.85 18
      vertex 46.9603 -95.85 15.6168
    endloop
  endfacet
  facet normal 0 -1 0
    outer loop
      vertex 47.8103 -95.85 14.9992
      vertex 50.655 -95.85 18
      vertex 47.4342 -95.85 15.3753
    endloop
  endfacet
  facet normal 0 -1 0
    outer loop
      vertex 48.0518 -95.85 14.5253
      vertex 50.655 -95.85 18
      vertex 47.8103 -95.85 14.9992
    endloop
  endfacet
  facet normal 0 -1 0
    outer loop
      vertex 48.135 -95.85 14
      vertex 50.655 -95.85 18
      vertex 48.0518 -95.85 14.5253
    endloop
  endfacet
  facet normal 0 -1 0
    outer loop
      vertex 50.655 -95.85 10.9
      vertex 48.135 -95.85 14
      vertex 48.0518 -95.85 13.4747
    endloop
  endfacet
  facet normal 0 -1 0
    outer loop
      vertex 50.655 -95.85 10.9
      vertex 48.0518 -95.85 13.4747
      vertex 47.8103 -95.85 13.0008
    endloop
  endfacet
  facet normal 0 -1 0
    outer loop
      vertex 48.135 -95.85 14
      vertex 50.655 -95.85 10.9
      vertex 50.655 -95.85 18
    endloop
  endfacet
  facet normal 0 -1 0
    outer loop
      vertex 47.4342 -95.85 12.6247
      vertex 50.655 -95.85 10.9
      vertex 47.8103 -95.85 13.0008
    endloop
  endfacet
  facet normal 0 -1 0
    outer loop
      vertex 46.9603 -95.85 12.3832
      vertex 50.655 -95.85 10.9
      vertex 47.4342 -95.85 12.6247
    endloop
  endfacet
  facet normal 0 -1 0
    outer loop
      vertex 50.655 -95.85 10.9
      vertex 46.9603 -95.85 12.3832
      vertex 46.435 -95.85 12.3
    endloop
  endfacet
  facet normal -0 0 1
    outer loop
      vertex 50.655 -91.85 10.9
      vertex 62.435 -95.85 10.9
      vertex 62.435 -91.85 10.9
    endloop
  endfacet
  facet normal 0 0 1
    outer loop
      vertex 62.435 -95.85 10.9
      vertex 50.655 -91.85 10.9
      vertex 50.655 -95.85 10.9
    endloop
  endfacet
endsolid OpenSCAD_Model
