solid OpenSCAD_Model
  facet normal 0 0 -1
    outer loop
      vertex 75.535 10 102.5
      vertex 67.82 12.2409 102.5
      vertex 75.535 17.6 102.5
    endloop
  endfacet
  facet normal 0 0 -1
    outer loop
      vertex 60.862 11.1468 102.5
      vertex 67.82 12.2409 102.5
      vertex 75.535 10 102.5
    endloop
  endfacet
  facet normal 0 0 -1
    outer loop
      vertex 64.7 12.2409 102.5
      vertex 62.935 14 102.5
      vertex 64.7 15.3791 102.5
    endloop
  endfacet
  facet normal 0 0 -1
    outer loop
      vertex 64.7 12.2409 102.5
      vertex 62.8694 13.3763 102.5
      vertex 62.935 14 102.5
    endloop
  endfacet
  facet normal 0 0 -1
    outer loop
      vertex 64.7 12.2409 102.5
      vertex 62.6756 12.7798 102.5
      vertex 62.8694 13.3763 102.5
    endloop
  endfacet
  facet normal -0 0 -1
    outer loop
      vertex 64.7 12.2409 102.5
      vertex 62.362 12.2366 102.5
      vertex 62.6756 12.7798 102.5
    endloop
  endfacet
  facet normal -0 0 -1
    outer loop
      vertex 67.82 12.2409 102.5
      vertex 60.862 11.1468 102.5
      vertex 64.7 12.2409 102.5
    endloop
  endfacet
  facet normal 0 0 -1
    outer loop
      vertex 64.7 12.2409 102.5
      vertex 61.9424 11.7706 102.5
      vertex 62.362 12.2366 102.5
    endloop
  endfacet
  facet normal 0 0 -1
    outer loop
      vertex 64.7 12.2409 102.5
      vertex 61.435 11.4019 102.5
      vertex 61.9424 11.7706 102.5
    endloop
  endfacet
  facet normal 0 0 -1
    outer loop
      vertex 64.7 12.2409 102.5
      vertex 60.862 11.1468 102.5
      vertex 61.435 11.4019 102.5
    endloop
  endfacet
  facet normal 0 0 -1
    outer loop
      vertex 75.535 10 102.5
      vertex 60.2486 11.0164 102.5
      vertex 60.862 11.1468 102.5
    endloop
  endfacet
  facet normal 0 0 -1
    outer loop
      vertex 56.335 10 102.5
      vertex 60.2486 11.0164 102.5
      vertex 75.535 10 102.5
    endloop
  endfacet
  facet normal -0 0 -1
    outer loop
      vertex 57.0006 13.3763 102.5
      vertex 56.335 10 102.5
      vertex 56.935 14 102.5
    endloop
  endfacet
  facet normal -0 0 -1
    outer loop
      vertex 57.1944 12.7798 102.5
      vertex 56.335 10 102.5
      vertex 57.0006 13.3763 102.5
    endloop
  endfacet
  facet normal -0 0 -1
    outer loop
      vertex 57.5079 12.2366 102.5
      vertex 56.335 10 102.5
      vertex 57.1944 12.7798 102.5
    endloop
  endfacet
  facet normal -0 0 -1
    outer loop
      vertex 57.9276 11.7706 102.5
      vertex 56.335 10 102.5
      vertex 57.5079 12.2366 102.5
    endloop
  endfacet
  facet normal -0 0 -1
    outer loop
      vertex 58.435 11.4019 102.5
      vertex 56.335 10 102.5
      vertex 57.9276 11.7706 102.5
    endloop
  endfacet
  facet normal -0 0 -1
    outer loop
      vertex 59.0079 11.1468 102.5
      vertex 56.335 10 102.5
      vertex 58.435 11.4019 102.5
    endloop
  endfacet
  facet normal -0 0 -1
    outer loop
      vertex 59.6214 11.0164 102.5
      vertex 56.335 10 102.5
      vertex 59.0079 11.1468 102.5
    endloop
  endfacet
  facet normal -0 0 -1
    outer loop
      vertex 60.2486 11.0164 102.5
      vertex 56.335 10 102.5
      vertex 59.6214 11.0164 102.5
    endloop
  endfacet
  facet normal 0 0 -1
    outer loop
      vertex 67.82 15.3791 102.5
      vertex 75.535 17.6 102.5
      vertex 67.82 12.2409 102.5
    endloop
  endfacet
  facet normal 0 0 -1
    outer loop
      vertex 61.435 16.5981 102.5
      vertex 67.82 15.3791 102.5
      vertex 64.7 15.3791 102.5
    endloop
  endfacet
  facet normal 0 0 -1
    outer loop
      vertex 62.8694 14.6237 102.5
      vertex 64.7 15.3791 102.5
      vertex 62.935 14 102.5
    endloop
  endfacet
  facet normal 0 0 -1
    outer loop
      vertex 62.6756 15.2202 102.5
      vertex 64.7 15.3791 102.5
      vertex 62.8694 14.6237 102.5
    endloop
  endfacet
  facet normal 0 0 -1
    outer loop
      vertex 62.362 15.7634 102.5
      vertex 64.7 15.3791 102.5
      vertex 62.6756 15.2202 102.5
    endloop
  endfacet
  facet normal 0 0 -1
    outer loop
      vertex 61.9424 16.2294 102.5
      vertex 64.7 15.3791 102.5
      vertex 62.362 15.7634 102.5
    endloop
  endfacet
  facet normal 0 0 -1
    outer loop
      vertex 61.435 16.5981 102.5
      vertex 64.7 15.3791 102.5
      vertex 61.9424 16.2294 102.5
    endloop
  endfacet
  facet normal 0 0 -1
    outer loop
      vertex 67.82 15.3791 102.5
      vertex 61.435 16.5981 102.5
      vertex 75.535 17.6 102.5
    endloop
  endfacet
  facet normal 0 0 -1
    outer loop
      vertex 60.862 16.8532 102.5
      vertex 75.535 17.6 102.5
      vertex 61.435 16.5981 102.5
    endloop
  endfacet
  facet normal 0 0 -1
    outer loop
      vertex 60.2486 16.9836 102.5
      vertex 75.535 17.6 102.5
      vertex 60.862 16.8532 102.5
    endloop
  endfacet
  facet normal 0 0 -1
    outer loop
      vertex 56.335 17.6 102.5
      vertex 60.2486 16.9836 102.5
      vertex 59.6214 16.9836 102.5
    endloop
  endfacet
  facet normal 0 0 -1
    outer loop
      vertex 56.335 17.6 102.5
      vertex 56.935 14 102.5
      vertex 56.335 10 102.5
    endloop
  endfacet
  facet normal 0 0 -1
    outer loop
      vertex 60.2486 16.9836 102.5
      vertex 56.335 17.6 102.5
      vertex 75.535 17.6 102.5
    endloop
  endfacet
  facet normal 0 0 -1
    outer loop
      vertex 59.0079 16.8532 102.5
      vertex 56.335 17.6 102.5
      vertex 59.6214 16.9836 102.5
    endloop
  endfacet
  facet normal 0 0 -1
    outer loop
      vertex 58.435 16.5981 102.5
      vertex 56.335 17.6 102.5
      vertex 59.0079 16.8532 102.5
    endloop
  endfacet
  facet normal 0 0 -1
    outer loop
      vertex 57.9276 16.2294 102.5
      vertex 56.335 17.6 102.5
      vertex 58.435 16.5981 102.5
    endloop
  endfacet
  facet normal 0 0 -1
    outer loop
      vertex 57.5079 15.7634 102.5
      vertex 56.335 17.6 102.5
      vertex 57.9276 16.2294 102.5
    endloop
  endfacet
  facet normal 0 0 -1
    outer loop
      vertex 57.1944 15.2202 102.5
      vertex 56.335 17.6 102.5
      vertex 57.5079 15.7634 102.5
    endloop
  endfacet
  facet normal 0 0 -1
    outer loop
      vertex 57.0006 14.6237 102.5
      vertex 56.335 17.6 102.5
      vertex 57.1944 15.2202 102.5
    endloop
  endfacet
  facet normal 0 0 -1
    outer loop
      vertex 56.935 14 102.5
      vertex 56.335 17.6 102.5
      vertex 57.0006 14.6237 102.5
    endloop
  endfacet
  facet normal -1 0 0
    outer loop
      vertex 55.935 10 102.9
      vertex 55.935 17.6 108.35
      vertex 55.935 17.6 102.9
    endloop
  endfacet
  facet normal -1 -0 0
    outer loop
      vertex 55.935 17.6 108.35
      vertex 55.935 10 102.9
      vertex 55.935 10 108.35
    endloop
  endfacet
  facet normal 0 -1 0
    outer loop
      vertex 56.335 10 102.5
      vertex 55.935 10 108.35
      vertex 55.935 10 102.9
    endloop
  endfacet
  facet normal 0 -1 0
    outer loop
      vertex 55.935 10 108.35
      vertex 56.335 10 102.5
      vertex 75.935 10 108.35
    endloop
  endfacet
  facet normal 0 -1 0
    outer loop
      vertex 75.535 10 102.5
      vertex 75.935 10 108.35
      vertex 56.335 10 102.5
    endloop
  endfacet
  facet normal 0 -1 -0
    outer loop
      vertex 75.935 10 108.35
      vertex 75.535 10 102.5
      vertex 75.935 10 102.9
    endloop
  endfacet
  facet normal -0.707107 -1.26343e-14 -0.707107
    outer loop
      vertex 56.335 17.6 102.5
      vertex 55.935 17.6 102.9
      vertex 56.135 17.8 102.7
    endloop
  endfacet
  facet normal -0.707107 0 -0.707107
    outer loop
      vertex 56.335 10 102.5
      vertex 55.935 17.6 102.9
      vertex 56.335 17.6 102.5
    endloop
  endfacet
  facet normal -0.707107 -0 -0.707107
    outer loop
      vertex 55.935 17.6 102.9
      vertex 56.335 10 102.5
      vertex 55.935 10 102.9
    endloop
  endfacet
  facet normal 0.707107 0 -0.707107
    outer loop
      vertex 75.935 17.6 102.9
      vertex 75.535 17.6 102.5
      vertex 75.735 17.8 102.7
    endloop
  endfacet
  facet normal 0.707107 0 -0.707107
    outer loop
      vertex 75.935 10 102.9
      vertex 75.535 17.6 102.5
      vertex 75.935 17.6 102.9
    endloop
  endfacet
  facet normal 0.707107 0 -0.707107
    outer loop
      vertex 75.535 17.6 102.5
      vertex 75.935 10 102.9
      vertex 75.535 10 102.5
    endloop
  endfacet
  facet normal 1 0 0
    outer loop
      vertex 75.935 10.9 108.35
      vertex 75.935 10 108.35
      vertex 75.935 10.9 104.35
    endloop
  endfacet
  facet normal 1 0 0
    outer loop
      vertex 75.935 11.48 104.35
      vertex 75.935 10.9 104.35
      vertex 75.935 11.48 103.222
    endloop
  endfacet
  facet normal 1 0 0
    outer loop
      vertex 75.935 16.14 103.222
      vertex 75.935 17.6 104.35
      vertex 75.935 16.14 104.35
    endloop
  endfacet
  facet normal 1 0 0
    outer loop
      vertex 75.935 17.6 104.35
      vertex 75.935 16.14 103.222
      vertex 75.935 17.6 102.9
    endloop
  endfacet
  facet normal 1 -0 0
    outer loop
      vertex 75.935 11.48 103.222
      vertex 75.935 17.6 102.9
      vertex 75.935 16.14 103.222
    endloop
  endfacet
  facet normal 1 0 0
    outer loop
      vertex 75.935 11.48 103.222
      vertex 75.935 10 102.9
      vertex 75.935 17.6 102.9
    endloop
  endfacet
  facet normal 1 0 0
    outer loop
      vertex 75.935 10.9 104.35
      vertex 75.935 10 102.9
      vertex 75.935 11.48 103.222
    endloop
  endfacet
  facet normal 1 0 0
    outer loop
      vertex 75.935 10 102.9
      vertex 75.935 10.9 104.35
      vertex 75.935 10 108.35
    endloop
  endfacet
  facet normal 0 1 0
    outer loop
      vertex 74.085 18 104.35
      vertex 75.535 18 102.9
      vertex 64.155 18 104.35
    endloop
  endfacet
  facet normal 0 1 -0
    outer loop
      vertex 64.155 18 104.35
      vertex 56.335 18 108.35
      vertex 64.155 18 108.35
    endloop
  endfacet
  facet normal 0 1 0
    outer loop
      vertex 64.155 18 104.35
      vertex 56.335 18 102.9
      vertex 56.335 18 108.35
    endloop
  endfacet
  facet normal 0 1 0
    outer loop
      vertex 56.335 18 102.9
      vertex 64.155 18 104.35
      vertex 75.535 18 102.9
    endloop
  endfacet
  facet normal 0 0.707107 -0.707107
    outer loop
      vertex 56.335 17.6 102.5
      vertex 56.335 18 102.9
      vertex 75.535 18 102.9
    endloop
  endfacet
  facet normal 0 0.707107 -0.707107
    outer loop
      vertex 75.535 17.6 102.5
      vertex 75.535 18 102.9
      vertex 75.735 17.8 102.7
    endloop
  endfacet
  facet normal 0 0.707107 -0.707107
    outer loop
      vertex 56.335 17.6 102.5
      vertex 75.535 18 102.9
      vertex 75.535 17.6 102.5
    endloop
  endfacet
  facet normal 0 0.707107 -0.707107
    outer loop
      vertex 56.335 18 102.9
      vertex 56.335 17.6 102.5
      vertex 56.135 17.8 102.7
    endloop
  endfacet
  facet normal 0 1 -0
    outer loop
      vertex 75.535 18 102.9
      vertex 74.085 18 104.35
      vertex 75.535 18 104.35
    endloop
  endfacet
  facet normal -0.707107 0.707107 1.25117e-14
    outer loop
      vertex 55.935 17.6 102.9
      vertex 56.335 18 102.9
      vertex 56.135 17.8 102.7
    endloop
  endfacet
  facet normal -0.707107 0.707107 0
    outer loop
      vertex 56.335 18 102.9
      vertex 55.935 17.6 102.9
      vertex 56.335 18 108.35
    endloop
  endfacet
  facet normal -0.707107 0.707107 0
    outer loop
      vertex 56.335 18 108.35
      vertex 55.935 17.6 102.9
      vertex 55.935 17.6 108.35
    endloop
  endfacet
  facet normal 0.707107 0.707107 -0
    outer loop
      vertex 75.935 17.6 102.9
      vertex 75.535 18 104.35
      vertex 75.935 17.6 104.35
    endloop
  endfacet
  facet normal 0.707107 0.707107 0
    outer loop
      vertex 75.935 17.6 102.9
      vertex 75.535 18 102.9
      vertex 75.535 18 104.35
    endloop
  endfacet
  facet normal 0.707107 0.707107 0
    outer loop
      vertex 75.535 18 102.9
      vertex 75.935 17.6 102.9
      vertex 75.735 17.8 102.7
    endloop
  endfacet
  facet normal -1 0 0
    outer loop
      vertex 67.82 12.2409 102.5
      vertex 67.82 16.029 103.222
      vertex 67.82 15.3791 102.5
    endloop
  endfacet
  facet normal -1 -0 0
    outer loop
      vertex 67.82 16.029 103.222
      vertex 67.82 12.2409 102.5
      vertex 67.82 11.591 103.222
    endloop
  endfacet
  facet normal 1 0 0
    outer loop
      vertex 64.7 16.14 104.35
      vertex 64.7 15.3791 102.5
      vertex 64.7 16.14 103.345
    endloop
  endfacet
  facet normal 1 0 0
    outer loop
      vertex 64.7 16.14 104.35
      vertex 64.7 12.2409 102.5
      vertex 64.7 15.3791 102.5
    endloop
  endfacet
  facet normal 1 -0 0
    outer loop
      vertex 64.7 11.48 104.35
      vertex 64.7 12.2409 102.5
      vertex 64.7 16.14 104.35
    endloop
  endfacet
  facet normal 1 0 0
    outer loop
      vertex 64.7 12.2409 102.5
      vertex 64.7 11.48 104.35
      vertex 64.7 11.48 103.345
    endloop
  endfacet
  facet normal 0 0.743243 0.669022
    outer loop
      vertex 67.82 11.591 103.222
      vertex 67.82 12.2409 102.5
      vertex 67.81 11.591 103.222
    endloop
  endfacet
  facet normal 0 0.742393 0.669965
    outer loop
      vertex 67.81 11.591 103.222
      vertex 64.7 11.48 103.345
      vertex 67.81 11.48 103.345
    endloop
  endfacet
  facet normal -0 0.743243 0.669022
    outer loop
      vertex 64.7 12.2409 102.5
      vertex 67.81 11.591 103.222
      vertex 67.82 12.2409 102.5
    endloop
  endfacet
  facet normal -5.7771e-05 0.743119 0.669159
    outer loop
      vertex 67.81 11.591 103.222
      vertex 64.7 12.2409 102.5
      vertex 64.7 11.48 103.345
    endloop
  endfacet
  facet normal 0 1 0
    outer loop
      vertex 75.935 11.48 104.35
      vertex 67.81 11.48 103.345
      vertex 64.7 11.48 104.35
    endloop
  endfacet
  facet normal 0 1 -0
    outer loop
      vertex 75.935 11.48 103.222
      vertex 67.81 11.48 103.345
      vertex 75.935 11.48 104.35
    endloop
  endfacet
  facet normal 0 1 0
    outer loop
      vertex 67.81 11.48 103.345
      vertex 75.935 11.48 103.222
      vertex 67.81 11.48 103.222
    endloop
  endfacet
  facet normal 0 1 0
    outer loop
      vertex 64.7 11.48 104.35
      vertex 67.81 11.48 103.345
      vertex 64.7 11.48 103.345
    endloop
  endfacet
  facet normal 0 -1 0
    outer loop
      vertex 67.81 16.14 103.345
      vertex 64.7 16.14 104.35
      vertex 64.7 16.14 103.345
    endloop
  endfacet
  facet normal 0 -1 0
    outer loop
      vertex 64.7 16.14 104.35
      vertex 67.81 16.14 103.345
      vertex 75.935 16.14 104.35
    endloop
  endfacet
  facet normal 0 -1 0
    outer loop
      vertex 75.935 16.14 103.222
      vertex 67.81 16.14 103.345
      vertex 67.81 16.14 103.222
    endloop
  endfacet
  facet normal 0 -1 0
    outer loop
      vertex 67.81 16.14 103.345
      vertex 75.935 16.14 103.222
      vertex 75.935 16.14 104.35
    endloop
  endfacet
  facet normal 0 -0.742393 0.669965
    outer loop
      vertex 64.7 16.14 103.345
      vertex 67.81 16.029 103.222
      vertex 67.81 16.14 103.345
    endloop
  endfacet
  facet normal -5.7771e-05 -0.743119 0.669159
    outer loop
      vertex 64.7 15.3791 102.5
      vertex 67.81 16.029 103.222
      vertex 64.7 16.14 103.345
    endloop
  endfacet
  facet normal 0 -0.743243 0.669022
    outer loop
      vertex 67.82 15.3791 102.5
      vertex 67.81 16.029 103.222
      vertex 64.7 15.3791 102.5
    endloop
  endfacet
  facet normal 0 -0.743243 0.669022
    outer loop
      vertex 67.81 16.029 103.222
      vertex 67.82 15.3791 102.5
      vertex 67.82 16.029 103.222
    endloop
  endfacet
  facet normal 0 0 1
    outer loop
      vertex 75.935 16.14 103.222
      vertex 67.82 16.029 103.222
      vertex 75.935 11.48 103.222
    endloop
  endfacet
  facet normal -0 0 1
    outer loop
      vertex 67.81 16.14 103.222
      vertex 67.82 16.029 103.222
      vertex 75.935 16.14 103.222
    endloop
  endfacet
  facet normal 0 0 1
    outer loop
      vertex 67.82 16.029 103.222
      vertex 67.81 16.14 103.222
      vertex 67.81 16.029 103.222
    endloop
  endfacet
  facet normal -0 0 1
    outer loop
      vertex 67.82 11.591 103.222
      vertex 75.935 11.48 103.222
      vertex 67.82 16.029 103.222
    endloop
  endfacet
  facet normal 0 0 1
    outer loop
      vertex 67.81 11.48 103.222
      vertex 67.82 11.591 103.222
      vertex 67.81 11.591 103.222
    endloop
  endfacet
  facet normal 0 0 1
    outer loop
      vertex 67.82 11.591 103.222
      vertex 67.81 11.48 103.222
      vertex 75.935 11.48 103.222
    endloop
  endfacet
  facet normal 1 0 0
    outer loop
      vertex 67.81 16.029 103.222
      vertex 67.81 16.14 103.222
      vertex 67.81 16.14 103.345
    endloop
  endfacet
  facet normal 1 0 0
    outer loop
      vertex 67.81 11.48 103.222
      vertex 67.81 11.591 103.222
      vertex 67.81 11.48 103.345
    endloop
  endfacet
  facet normal -0.890979 -0.454044 0
    outer loop
      vertex 61.5518 14.5253 106.9
      vertex 61.3103 14.9992 108.35
      vertex 61.3103 14.9992 106.9
    endloop
  endfacet
  facet normal -0.890979 -0.454044 0
    outer loop
      vertex 61.3103 14.9992 108.35
      vertex 61.5518 14.5253 106.9
      vertex 61.5518 14.5253 108.35
    endloop
  endfacet
  facet normal -0.987688 -0.156436 0
    outer loop
      vertex 61.635 14 106.9
      vertex 61.5518 14.5253 108.35
      vertex 61.5518 14.5253 106.9
    endloop
  endfacet
  facet normal -0.987688 -0.156436 0
    outer loop
      vertex 61.5518 14.5253 108.35
      vertex 61.635 14 106.9
      vertex 61.635 14 108.35
    endloop
  endfacet
  facet normal -0.707107 -0.707107 0
    outer loop
      vertex 60.9342 15.3753 106.9
      vertex 61.3103 14.9992 108.35
      vertex 60.9342 15.3753 108.35
    endloop
  endfacet
  facet normal -0.707107 -0.707107 -0
    outer loop
      vertex 61.3103 14.9992 108.35
      vertex 60.9342 15.3753 106.9
      vertex 61.3103 14.9992 106.9
    endloop
  endfacet
  facet normal -0.156436 0.987688 0
    outer loop
      vertex 60.4603 12.3832 106.9
      vertex 59.935 12.3 108.35
      vertex 60.4603 12.3832 108.35
    endloop
  endfacet
  facet normal -0.156436 0.987688 0
    outer loop
      vertex 59.935 12.3 108.35
      vertex 60.4603 12.3832 106.9
      vertex 59.935 12.3 106.9
    endloop
  endfacet
  facet normal 0.454044 -0.890979 0
    outer loop
      vertex 58.9358 15.3753 106.9
      vertex 59.4097 15.6168 108.35
      vertex 58.9358 15.3753 108.35
    endloop
  endfacet
  facet normal 0.454044 -0.890979 0
    outer loop
      vertex 59.4097 15.6168 108.35
      vertex 58.9358 15.3753 106.9
      vertex 59.4097 15.6168 106.9
    endloop
  endfacet
  facet normal -0.454044 0.890979 0
    outer loop
      vertex 60.9342 12.6247 106.9
      vertex 60.4603 12.3832 108.35
      vertex 60.9342 12.6247 108.35
    endloop
  endfacet
  facet normal -0.454044 0.890979 0
    outer loop
      vertex 60.4603 12.3832 108.35
      vertex 60.9342 12.6247 106.9
      vertex 60.4603 12.3832 106.9
    endloop
  endfacet
  facet normal -0.707107 0.707107 0
    outer loop
      vertex 61.3103 13.0008 106.9
      vertex 60.9342 12.6247 108.35
      vertex 61.3103 13.0008 108.35
    endloop
  endfacet
  facet normal -0.707107 0.707107 0
    outer loop
      vertex 60.9342 12.6247 108.35
      vertex 61.3103 13.0008 106.9
      vertex 60.9342 12.6247 106.9
    endloop
  endfacet
  facet normal 0.156436 0.987688 -0
    outer loop
      vertex 59.935 12.3 106.9
      vertex 59.4097 12.3832 108.35
      vertex 59.935 12.3 108.35
    endloop
  endfacet
  facet normal 0.156436 0.987688 0
    outer loop
      vertex 59.4097 12.3832 108.35
      vertex 59.935 12.3 106.9
      vertex 59.4097 12.3832 106.9
    endloop
  endfacet
  facet normal 0.890979 -0.454044 0
    outer loop
      vertex 58.3182 14.5253 108.35
      vertex 58.5597 14.9992 106.9
      vertex 58.5597 14.9992 108.35
    endloop
  endfacet
  facet normal 0.890979 -0.454044 0
    outer loop
      vertex 58.5597 14.9992 106.9
      vertex 58.3182 14.5253 108.35
      vertex 58.3182 14.5253 106.9
    endloop
  endfacet
  facet normal -0.987688 0.156436 0
    outer loop
      vertex 61.5518 13.4747 106.9
      vertex 61.635 14 108.35
      vertex 61.635 14 106.9
    endloop
  endfacet
  facet normal -0.987688 0.156436 0
    outer loop
      vertex 61.635 14 108.35
      vertex 61.5518 13.4747 106.9
      vertex 61.5518 13.4747 108.35
    endloop
  endfacet
  facet normal 0.987688 -0.156436 0
    outer loop
      vertex 58.235 14 108.35
      vertex 58.3182 14.5253 106.9
      vertex 58.3182 14.5253 108.35
    endloop
  endfacet
  facet normal 0.987688 -0.156436 0
    outer loop
      vertex 58.3182 14.5253 106.9
      vertex 58.235 14 108.35
      vertex 58.235 14 106.9
    endloop
  endfacet
  facet normal -0.890979 0.454044 0
    outer loop
      vertex 61.3103 13.0008 106.9
      vertex 61.5518 13.4747 108.35
      vertex 61.5518 13.4747 106.9
    endloop
  endfacet
  facet normal -0.890979 0.454044 0
    outer loop
      vertex 61.5518 13.4747 108.35
      vertex 61.3103 13.0008 106.9
      vertex 61.3103 13.0008 108.35
    endloop
  endfacet
  facet normal -0.156436 -0.987688 0
    outer loop
      vertex 59.935 15.7 106.9
      vertex 60.4603 15.6168 108.35
      vertex 59.935 15.7 108.35
    endloop
  endfacet
  facet normal -0.156436 -0.987688 -0
    outer loop
      vertex 60.4603 15.6168 108.35
      vertex 59.935 15.7 106.9
      vertex 60.4603 15.6168 106.9
    endloop
  endfacet
  facet normal -0.454044 -0.890979 0
    outer loop
      vertex 60.4603 15.6168 106.9
      vertex 60.9342 15.3753 108.35
      vertex 60.4603 15.6168 108.35
    endloop
  endfacet
  facet normal -0.454044 -0.890979 -0
    outer loop
      vertex 60.9342 15.3753 108.35
      vertex 60.4603 15.6168 106.9
      vertex 60.9342 15.3753 106.9
    endloop
  endfacet
  facet normal 0.890979 0.454044 0
    outer loop
      vertex 58.5597 13.0008 108.35
      vertex 58.3182 13.4747 106.9
      vertex 58.3182 13.4747 108.35
    endloop
  endfacet
  facet normal 0.890979 0.454044 0
    outer loop
      vertex 58.3182 13.4747 106.9
      vertex 58.5597 13.0008 108.35
      vertex 58.5597 13.0008 106.9
    endloop
  endfacet
  facet normal 0.156436 -0.987688 0
    outer loop
      vertex 59.4097 15.6168 106.9
      vertex 59.935 15.7 108.35
      vertex 59.4097 15.6168 108.35
    endloop
  endfacet
  facet normal 0.156436 -0.987688 0
    outer loop
      vertex 59.935 15.7 108.35
      vertex 59.4097 15.6168 106.9
      vertex 59.935 15.7 106.9
    endloop
  endfacet
  facet normal 0.707107 0.707107 0
    outer loop
      vertex 58.9358 12.6247 108.35
      vertex 58.5597 13.0008 106.9
      vertex 58.5597 13.0008 108.35
    endloop
  endfacet
  facet normal 0.707107 0.707107 0
    outer loop
      vertex 58.5597 13.0008 106.9
      vertex 58.9358 12.6247 108.35
      vertex 58.9358 12.6247 106.9
    endloop
  endfacet
  facet normal 0.707107 -0.707107 0
    outer loop
      vertex 58.5597 14.9992 108.35
      vertex 58.9358 15.3753 106.9
      vertex 58.9358 15.3753 108.35
    endloop
  endfacet
  facet normal 0.707107 -0.707107 0
    outer loop
      vertex 58.9358 15.3753 106.9
      vertex 58.5597 14.9992 108.35
      vertex 58.5597 14.9992 106.9
    endloop
  endfacet
  facet normal 0.987688 0.156436 0
    outer loop
      vertex 58.3182 13.4747 108.35
      vertex 58.235 14 106.9
      vertex 58.235 14 108.35
    endloop
  endfacet
  facet normal 0.987688 0.156436 0
    outer loop
      vertex 58.235 14 106.9
      vertex 58.3182 13.4747 108.35
      vertex 58.3182 13.4747 106.9
    endloop
  endfacet
  facet normal 0.454044 0.890979 -0
    outer loop
      vertex 59.4097 12.3832 106.9
      vertex 58.9358 12.6247 108.35
      vertex 59.4097 12.3832 108.35
    endloop
  endfacet
  facet normal 0.454044 0.890979 0
    outer loop
      vertex 58.9358 12.6247 108.35
      vertex 59.4097 12.3832 106.9
      vertex 58.9358 12.6247 106.9
    endloop
  endfacet
  facet normal 0.866106 -0.49986 0
    outer loop
      vertex 57.1944 15.2202 106.5
      vertex 57.5079 15.7634 102.5
      vertex 57.5079 15.7634 106.5
    endloop
  endfacet
  facet normal 0.866106 -0.49986 0
    outer loop
      vertex 57.5079 15.7634 102.5
      vertex 57.1944 15.2202 106.5
      vertex 57.1944 15.2202 102.5
    endloop
  endfacet
  facet normal -0.743136 -0.669141 0
    outer loop
      vertex 62.362 15.7634 102.5
      vertex 61.9424 16.2294 106.5
      vertex 61.9424 16.2294 102.5
    endloop
  endfacet
  facet normal -0.743136 -0.669141 0
    outer loop
      vertex 61.9424 16.2294 106.5
      vertex 62.362 15.7634 102.5
      vertex 62.362 15.7634 106.5
    endloop
  endfacet
  facet normal 0.207906 0.978149 -0
    outer loop
      vertex 59.6214 11.0164 102.5
      vertex 59.0079 11.1468 106.5
      vertex 59.6214 11.0164 106.5
    endloop
  endfacet
  facet normal 0.207906 0.978149 0
    outer loop
      vertex 59.0079 11.1468 106.5
      vertex 59.6214 11.0164 102.5
      vertex 59.0079 11.1468 102.5
    endloop
  endfacet
  facet normal -0.406715 0.913555 0
    outer loop
      vertex 61.435 11.4019 102.5
      vertex 60.862 11.1468 106.5
      vertex 61.435 11.4019 106.5
    endloop
  endfacet
  facet normal -0.406715 0.913555 0
    outer loop
      vertex 60.862 11.1468 106.5
      vertex 61.435 11.4019 102.5
      vertex 60.862 11.1468 102.5
    endloop
  endfacet
  facet normal 0 -1 0
    outer loop
      vertex 59.6214 16.9836 102.5
      vertex 60.2486 16.9836 106.5
      vertex 59.6214 16.9836 106.5
    endloop
  endfacet
  facet normal 0 -1 -0
    outer loop
      vertex 60.2486 16.9836 106.5
      vertex 59.6214 16.9836 102.5
      vertex 60.2486 16.9836 102.5
    endloop
  endfacet
  facet normal 0.58784 -0.808977 0
    outer loop
      vertex 57.9276 16.2294 102.5
      vertex 58.435 16.5981 106.5
      vertex 57.9276 16.2294 106.5
    endloop
  endfacet
  facet normal 0.58784 -0.808977 0
    outer loop
      vertex 58.435 16.5981 106.5
      vertex 57.9276 16.2294 102.5
      vertex 58.435 16.5981 102.5
    endloop
  endfacet
  facet normal 0.743056 -0.669229 0
    outer loop
      vertex 57.5079 15.7634 106.5
      vertex 57.9276 16.2294 102.5
      vertex 57.9276 16.2294 106.5
    endloop
  endfacet
  facet normal 0.743056 -0.669229 0
    outer loop
      vertex 57.9276 16.2294 102.5
      vertex 57.5079 15.7634 106.5
      vertex 57.5079 15.7634 102.5
    endloop
  endfacet
  facet normal 0.951063 -0.308996 0
    outer loop
      vertex 57.0006 14.6237 106.5
      vertex 57.1944 15.2202 102.5
      vertex 57.1944 15.2202 106.5
    endloop
  endfacet
  facet normal 0.951063 -0.308996 0
    outer loop
      vertex 57.1944 15.2202 102.5
      vertex 57.0006 14.6237 106.5
      vertex 57.0006 14.6237 102.5
    endloop
  endfacet
  facet normal 0.866106 0.49986 0
    outer loop
      vertex 57.5079 12.2366 106.5
      vertex 57.1944 12.7798 102.5
      vertex 57.1944 12.7798 106.5
    endloop
  endfacet
  facet normal 0.866106 0.49986 0
    outer loop
      vertex 57.1944 12.7798 102.5
      vertex 57.5079 12.2366 106.5
      vertex 57.5079 12.2366 102.5
    endloop
  endfacet
  facet normal -0.207939 0.978142 0
    outer loop
      vertex 60.862 11.1468 102.5
      vertex 60.2486 11.0164 106.5
      vertex 60.862 11.1468 106.5
    endloop
  endfacet
  facet normal -0.207939 0.978142 0
    outer loop
      vertex 60.2486 11.0164 106.5
      vertex 60.862 11.1468 102.5
      vertex 60.2486 11.0164 102.5
    endloop
  endfacet
  facet normal -0.951063 0.308996 0
    outer loop
      vertex 62.6756 12.7798 102.5
      vertex 62.8694 13.3763 106.5
      vertex 62.8694 13.3763 102.5
    endloop
  endfacet
  facet normal -0.951063 0.308996 0
    outer loop
      vertex 62.8694 13.3763 106.5
      vertex 62.6756 12.7798 102.5
      vertex 62.6756 12.7798 106.5
    endloop
  endfacet
  facet normal 0.951063 0.308996 0
    outer loop
      vertex 57.1944 12.7798 106.5
      vertex 57.0006 13.3763 102.5
      vertex 57.0006 13.3763 106.5
    endloop
  endfacet
  facet normal 0.951063 0.308996 0
    outer loop
      vertex 57.0006 13.3763 102.5
      vertex 57.1944 12.7798 106.5
      vertex 57.1944 12.7798 102.5
    endloop
  endfacet
  facet normal 0 1 -0
    outer loop
      vertex 60.2486 11.0164 102.5
      vertex 59.6214 11.0164 106.5
      vertex 60.2486 11.0164 106.5
    endloop
  endfacet
  facet normal 0 1 0
    outer loop
      vertex 59.6214 11.0164 106.5
      vertex 60.2486 11.0164 102.5
      vertex 59.6214 11.0164 102.5
    endloop
  endfacet
  facet normal 0.406775 -0.913529 0
    outer loop
      vertex 58.435 16.5981 102.5
      vertex 59.0079 16.8532 106.5
      vertex 58.435 16.5981 106.5
    endloop
  endfacet
  facet normal 0.406775 -0.913529 0
    outer loop
      vertex 59.0079 16.8532 106.5
      vertex 58.435 16.5981 102.5
      vertex 59.0079 16.8532 102.5
    endloop
  endfacet
  facet normal -0.406715 -0.913555 0
    outer loop
      vertex 60.862 16.8532 102.5
      vertex 61.435 16.5981 106.5
      vertex 60.862 16.8532 106.5
    endloop
  endfacet
  facet normal -0.406715 -0.913555 -0
    outer loop
      vertex 61.435 16.5981 106.5
      vertex 60.862 16.8532 102.5
      vertex 61.435 16.5981 102.5
    endloop
  endfacet
  facet normal 0.743056 0.669229 0
    outer loop
      vertex 57.9276 11.7706 106.5
      vertex 57.5079 12.2366 102.5
      vertex 57.5079 12.2366 106.5
    endloop
  endfacet
  facet normal 0.743056 0.669229 0
    outer loop
      vertex 57.5079 12.2366 102.5
      vertex 57.9276 11.7706 106.5
      vertex 57.9276 11.7706 102.5
    endloop
  endfacet
  facet normal 0.994514 -0.104602 0
    outer loop
      vertex 56.935 14 106.5
      vertex 57.0006 14.6237 102.5
      vertex 57.0006 14.6237 106.5
    endloop
  endfacet
  facet normal 0.994514 -0.104602 0
    outer loop
      vertex 57.0006 14.6237 102.5
      vertex 56.935 14 106.5
      vertex 56.935 14 102.5
    endloop
  endfacet
  facet normal 0.406775 0.913529 -0
    outer loop
      vertex 59.0079 11.1468 102.5
      vertex 58.435 11.4019 106.5
      vertex 59.0079 11.1468 106.5
    endloop
  endfacet
  facet normal 0.406775 0.913529 0
    outer loop
      vertex 58.435 11.4019 106.5
      vertex 59.0079 11.1468 102.5
      vertex 58.435 11.4019 102.5
    endloop
  endfacet
  facet normal -0.866037 -0.49998 0
    outer loop
      vertex 62.6756 15.2202 102.5
      vertex 62.362 15.7634 106.5
      vertex 62.362 15.7634 102.5
    endloop
  endfacet
  facet normal -0.866037 -0.49998 0
    outer loop
      vertex 62.362 15.7634 106.5
      vertex 62.6756 15.2202 102.5
      vertex 62.6756 15.2202 106.5
    endloop
  endfacet
  facet normal -0.994514 -0.104602 0
    outer loop
      vertex 62.935 14 102.5
      vertex 62.8694 14.6237 106.5
      vertex 62.8694 14.6237 102.5
    endloop
  endfacet
  facet normal -0.994514 -0.104602 0
    outer loop
      vertex 62.8694 14.6237 106.5
      vertex 62.935 14 102.5
      vertex 62.935 14 106.5
    endloop
  endfacet
  facet normal 0.994514 0.104602 0
    outer loop
      vertex 57.0006 13.3763 106.5
      vertex 56.935 14 102.5
      vertex 56.935 14 106.5
    endloop
  endfacet
  facet normal 0.994514 0.104602 0
    outer loop
      vertex 56.935 14 102.5
      vertex 57.0006 13.3763 106.5
      vertex 57.0006 13.3763 102.5
    endloop
  endfacet
  facet normal -0.866037 0.49998 0
    outer loop
      vertex 62.362 12.2366 102.5
      vertex 62.6756 12.7798 106.5
      vertex 62.6756 12.7798 102.5
    endloop
  endfacet
  facet normal -0.866037 0.49998 0
    outer loop
      vertex 62.6756 12.7798 106.5
      vertex 62.362 12.2366 102.5
      vertex 62.362 12.2366 106.5
    endloop
  endfacet
  facet normal 0.58784 0.808977 -0
    outer loop
      vertex 58.435 11.4019 102.5
      vertex 57.9276 11.7706 106.5
      vertex 58.435 11.4019 106.5
    endloop
  endfacet
  facet normal 0.58784 0.808977 0
    outer loop
      vertex 57.9276 11.7706 106.5
      vertex 58.435 11.4019 102.5
      vertex 57.9276 11.7706 102.5
    endloop
  endfacet
  facet normal -0.58784 -0.808977 0
    outer loop
      vertex 61.435 16.5981 102.5
      vertex 61.9424 16.2294 106.5
      vertex 61.435 16.5981 106.5
    endloop
  endfacet
  facet normal -0.58784 -0.808977 -0
    outer loop
      vertex 61.9424 16.2294 106.5
      vertex 61.435 16.5981 102.5
      vertex 61.9424 16.2294 102.5
    endloop
  endfacet
  facet normal -0.994514 0.104602 0
    outer loop
      vertex 62.8694 13.3763 102.5
      vertex 62.935 14 106.5
      vertex 62.935 14 102.5
    endloop
  endfacet
  facet normal -0.994514 0.104602 0
    outer loop
      vertex 62.935 14 106.5
      vertex 62.8694 13.3763 102.5
      vertex 62.8694 13.3763 106.5
    endloop
  endfacet
  facet normal 0.207906 -0.978149 0
    outer loop
      vertex 59.0079 16.8532 102.5
      vertex 59.6214 16.9836 106.5
      vertex 59.0079 16.8532 106.5
    endloop
  endfacet
  facet normal 0.207906 -0.978149 0
    outer loop
      vertex 59.6214 16.9836 106.5
      vertex 59.0079 16.8532 102.5
      vertex 59.6214 16.9836 102.5
    endloop
  endfacet
  facet normal -0.951063 -0.308996 0
    outer loop
      vertex 62.8694 14.6237 102.5
      vertex 62.6756 15.2202 106.5
      vertex 62.6756 15.2202 102.5
    endloop
  endfacet
  facet normal -0.951063 -0.308996 0
    outer loop
      vertex 62.6756 15.2202 106.5
      vertex 62.8694 14.6237 102.5
      vertex 62.8694 14.6237 106.5
    endloop
  endfacet
  facet normal -0.207939 -0.978142 0
    outer loop
      vertex 60.2486 16.9836 102.5
      vertex 60.862 16.8532 106.5
      vertex 60.2486 16.9836 106.5
    endloop
  endfacet
  facet normal -0.207939 -0.978142 -0
    outer loop
      vertex 60.862 16.8532 106.5
      vertex 60.2486 16.9836 102.5
      vertex 60.862 16.8532 102.5
    endloop
  endfacet
  facet normal 0 0 -1
    outer loop
      vertex 62.8694 13.3763 106.5
      vertex 62.8694 14.6237 106.5
      vertex 62.935 14 106.5
    endloop
  endfacet
  facet normal 0 0 -1
    outer loop
      vertex 62.6756 12.7798 106.5
      vertex 62.8694 14.6237 106.5
      vertex 62.8694 13.3763 106.5
    endloop
  endfacet
  facet normal 0 0 -1
    outer loop
      vertex 62.6756 12.7798 106.5
      vertex 62.6756 15.2202 106.5
      vertex 62.8694 14.6237 106.5
    endloop
  endfacet
  facet normal 0 0 -1
    outer loop
      vertex 62.362 12.2366 106.5
      vertex 62.6756 15.2202 106.5
      vertex 62.6756 12.7798 106.5
    endloop
  endfacet
  facet normal 0 0 -1
    outer loop
      vertex 62.362 12.2366 106.5
      vertex 62.362 15.7634 106.5
      vertex 62.6756 15.2202 106.5
    endloop
  endfacet
  facet normal 0 0 -1
    outer loop
      vertex 61.9424 11.7706 106.5
      vertex 62.362 15.7634 106.5
      vertex 62.362 12.2366 106.5
    endloop
  endfacet
  facet normal 0 0 -1
    outer loop
      vertex 61.9424 11.7706 106.5
      vertex 61.9424 16.2294 106.5
      vertex 62.362 15.7634 106.5
    endloop
  endfacet
  facet normal 0 0 -1
    outer loop
      vertex 61.435 11.4019 106.5
      vertex 61.9424 16.2294 106.5
      vertex 61.9424 11.7706 106.5
    endloop
  endfacet
  facet normal 0 0 -1
    outer loop
      vertex 61.435 11.4019 106.5
      vertex 61.435 16.5981 106.5
      vertex 61.9424 16.2294 106.5
    endloop
  endfacet
  facet normal 0 0 -1
    outer loop
      vertex 60.862 11.1468 106.5
      vertex 61.435 16.5981 106.5
      vertex 61.435 11.4019 106.5
    endloop
  endfacet
  facet normal 0 0 -1
    outer loop
      vertex 60.862 11.1468 106.5
      vertex 60.862 16.8532 106.5
      vertex 61.435 16.5981 106.5
    endloop
  endfacet
  facet normal 0 0 -1
    outer loop
      vertex 60.2486 11.0164 106.5
      vertex 60.862 16.8532 106.5
      vertex 60.862 11.1468 106.5
    endloop
  endfacet
  facet normal 0 0 -1
    outer loop
      vertex 60.2486 11.0164 106.5
      vertex 60.2486 16.9836 106.5
      vertex 60.862 16.8532 106.5
    endloop
  endfacet
  facet normal 0 0 -1
    outer loop
      vertex 59.6214 11.0164 106.5
      vertex 60.2486 16.9836 106.5
      vertex 60.2486 11.0164 106.5
    endloop
  endfacet
  facet normal 0 0 -1
    outer loop
      vertex 59.6214 11.0164 106.5
      vertex 59.6214 16.9836 106.5
      vertex 60.2486 16.9836 106.5
    endloop
  endfacet
  facet normal 0 0 -1
    outer loop
      vertex 59.0079 11.1468 106.5
      vertex 59.6214 16.9836 106.5
      vertex 59.6214 11.0164 106.5
    endloop
  endfacet
  facet normal 0 0 -1
    outer loop
      vertex 59.0079 11.1468 106.5
      vertex 59.0079 16.8532 106.5
      vertex 59.6214 16.9836 106.5
    endloop
  endfacet
  facet normal 0 0 -1
    outer loop
      vertex 58.435 11.4019 106.5
      vertex 59.0079 16.8532 106.5
      vertex 59.0079 11.1468 106.5
    endloop
  endfacet
  facet normal 0 0 -1
    outer loop
      vertex 58.435 11.4019 106.5
      vertex 58.435 16.5981 106.5
      vertex 59.0079 16.8532 106.5
    endloop
  endfacet
  facet normal 0 0 -1
    outer loop
      vertex 57.9276 11.7706 106.5
      vertex 58.435 16.5981 106.5
      vertex 58.435 11.4019 106.5
    endloop
  endfacet
  facet normal 0 0 -1
    outer loop
      vertex 57.9276 11.7706 106.5
      vertex 57.9276 16.2294 106.5
      vertex 58.435 16.5981 106.5
    endloop
  endfacet
  facet normal 0 0 -1
    outer loop
      vertex 57.5079 12.2366 106.5
      vertex 57.9276 16.2294 106.5
      vertex 57.9276 11.7706 106.5
    endloop
  endfacet
  facet normal 0 0 -1
    outer loop
      vertex 57.5079 12.2366 106.5
      vertex 57.5079 15.7634 106.5
      vertex 57.9276 16.2294 106.5
    endloop
  endfacet
  facet normal 0 0 -1
    outer loop
      vertex 57.1944 12.7798 106.5
      vertex 57.5079 15.7634 106.5
      vertex 57.5079 12.2366 106.5
    endloop
  endfacet
  facet normal 0 0 -1
    outer loop
      vertex 57.1944 12.7798 106.5
      vertex 57.1944 15.2202 106.5
      vertex 57.5079 15.7634 106.5
    endloop
  endfacet
  facet normal 0 0 -1
    outer loop
      vertex 57.0006 13.3763 106.5
      vertex 57.1944 15.2202 106.5
      vertex 57.1944 12.7798 106.5
    endloop
  endfacet
  facet normal 0 0 -1
    outer loop
      vertex 57.0006 13.3763 106.5
      vertex 57.0006 14.6237 106.5
      vertex 57.1944 15.2202 106.5
    endloop
  endfacet
  facet normal 0 -0 -1
    outer loop
      vertex 57.0006 14.6237 106.5
      vertex 57.0006 13.3763 106.5
      vertex 56.935 14 106.5
    endloop
  endfacet
  facet normal -0.743136 0.669141 0
    outer loop
      vertex 61.9424 11.7706 102.5
      vertex 62.362 12.2366 106.5
      vertex 62.362 12.2366 102.5
    endloop
  endfacet
  facet normal -0.743136 0.669141 0
    outer loop
      vertex 62.362 12.2366 106.5
      vertex 61.9424 11.7706 102.5
      vertex 61.9424 11.7706 106.5
    endloop
  endfacet
  facet normal -0.58784 0.808977 0
    outer loop
      vertex 61.9424 11.7706 102.5
      vertex 61.435 11.4019 106.5
      vertex 61.9424 11.7706 106.5
    endloop
  endfacet
  facet normal -0.58784 0.808977 0
    outer loop
      vertex 61.435 11.4019 106.5
      vertex 61.9424 11.7706 102.5
      vertex 61.435 11.4019 102.5
    endloop
  endfacet
  facet normal 0 0 1
    outer loop
      vertex 61.5518 14.5253 106.9
      vertex 61.5518 13.4747 106.9
      vertex 61.635 14 106.9
    endloop
  endfacet
  facet normal 0 0 1
    outer loop
      vertex 61.3103 14.9992 106.9
      vertex 61.5518 13.4747 106.9
      vertex 61.5518 14.5253 106.9
    endloop
  endfacet
  facet normal 0 0 1
    outer loop
      vertex 61.3103 14.9992 106.9
      vertex 61.3103 13.0008 106.9
      vertex 61.5518 13.4747 106.9
    endloop
  endfacet
  facet normal 0 0 1
    outer loop
      vertex 60.9342 15.3753 106.9
      vertex 61.3103 13.0008 106.9
      vertex 61.3103 14.9992 106.9
    endloop
  endfacet
  facet normal 0 0 1
    outer loop
      vertex 60.9342 15.3753 106.9
      vertex 60.9342 12.6247 106.9
      vertex 61.3103 13.0008 106.9
    endloop
  endfacet
  facet normal 0 0 1
    outer loop
      vertex 60.4603 15.6168 106.9
      vertex 60.9342 12.6247 106.9
      vertex 60.9342 15.3753 106.9
    endloop
  endfacet
  facet normal 0 0 1
    outer loop
      vertex 60.4603 15.6168 106.9
      vertex 60.4603 12.3832 106.9
      vertex 60.9342 12.6247 106.9
    endloop
  endfacet
  facet normal 0 0 1
    outer loop
      vertex 59.935 15.7 106.9
      vertex 60.4603 12.3832 106.9
      vertex 60.4603 15.6168 106.9
    endloop
  endfacet
  facet normal 0 0 1
    outer loop
      vertex 59.935 15.7 106.9
      vertex 59.935 12.3 106.9
      vertex 60.4603 12.3832 106.9
    endloop
  endfacet
  facet normal -0 0 1
    outer loop
      vertex 59.4097 15.6168 106.9
      vertex 59.935 12.3 106.9
      vertex 59.935 15.7 106.9
    endloop
  endfacet
  facet normal 0 0 1
    outer loop
      vertex 59.4097 15.6168 106.9
      vertex 59.4097 12.3832 106.9
      vertex 59.935 12.3 106.9
    endloop
  endfacet
  facet normal -0 0 1
    outer loop
      vertex 58.9358 15.3753 106.9
      vertex 59.4097 12.3832 106.9
      vertex 59.4097 15.6168 106.9
    endloop
  endfacet
  facet normal 0 0 1
    outer loop
      vertex 58.9358 15.3753 106.9
      vertex 58.9358 12.6247 106.9
      vertex 59.4097 12.3832 106.9
    endloop
  endfacet
  facet normal -0 0 1
    outer loop
      vertex 58.5597 14.9992 106.9
      vertex 58.9358 12.6247 106.9
      vertex 58.9358 15.3753 106.9
    endloop
  endfacet
  facet normal 0 0 1
    outer loop
      vertex 58.5597 14.9992 106.9
      vertex 58.5597 13.0008 106.9
      vertex 58.9358 12.6247 106.9
    endloop
  endfacet
  facet normal -0 0 1
    outer loop
      vertex 58.3182 14.5253 106.9
      vertex 58.5597 13.0008 106.9
      vertex 58.5597 14.9992 106.9
    endloop
  endfacet
  facet normal 0 0 1
    outer loop
      vertex 58.3182 14.5253 106.9
      vertex 58.3182 13.4747 106.9
      vertex 58.5597 13.0008 106.9
    endloop
  endfacet
  facet normal 0 -0 1
    outer loop
      vertex 58.3182 13.4747 106.9
      vertex 58.3182 14.5253 106.9
      vertex 58.235 14 106.9
    endloop
  endfacet
  facet normal 0 0 1
    outer loop
      vertex 75.535 18 104.35
      vertex 75.935 16.14 104.35
      vertex 75.935 17.6 104.35
    endloop
  endfacet
  facet normal -0 0 1
    outer loop
      vertex 74.085 18 104.35
      vertex 75.935 16.14 104.35
      vertex 75.535 18 104.35
    endloop
  endfacet
  facet normal 0 0 1
    outer loop
      vertex 74.085 18 104.35
      vertex 64.7 16.14 104.35
      vertex 75.935 16.14 104.35
    endloop
  endfacet
  facet normal 0 0 1
    outer loop
      vertex 64.155 10.9 104.35
      vertex 64.7 16.14 104.35
      vertex 64.155 18 104.35
    endloop
  endfacet
  facet normal -0 0 1
    outer loop
      vertex 64.155 18 104.35
      vertex 64.7 16.14 104.35
      vertex 74.085 18 104.35
    endloop
  endfacet
  facet normal -0 0 1
    outer loop
      vertex 64.7 11.48 104.35
      vertex 75.935 10.9 104.35
      vertex 75.935 11.48 104.35
    endloop
  endfacet
  facet normal 0 0 1
    outer loop
      vertex 64.7 11.48 104.35
      vertex 64.155 10.9 104.35
      vertex 75.935 10.9 104.35
    endloop
  endfacet
  facet normal 0 0 1
    outer loop
      vertex 64.7 16.14 104.35
      vertex 64.155 10.9 104.35
      vertex 64.7 11.48 104.35
    endloop
  endfacet
  facet normal 1 -0 0
    outer loop
      vertex 64.155 10.9 108.35
      vertex 64.155 18 104.35
      vertex 64.155 18 108.35
    endloop
  endfacet
  facet normal 1 0 0
    outer loop
      vertex 64.155 18 104.35
      vertex 64.155 10.9 108.35
      vertex 64.155 10.9 104.35
    endloop
  endfacet
  facet normal 0 0 1
    outer loop
      vertex 64.155 18 108.35
      vertex 61.635 14 108.35
      vertex 64.155 10.9 108.35
    endloop
  endfacet
  facet normal 0 0 1
    outer loop
      vertex 64.155 18 108.35
      vertex 61.5518 14.5253 108.35
      vertex 61.635 14 108.35
    endloop
  endfacet
  facet normal 0 0 1
    outer loop
      vertex 64.155 18 108.35
      vertex 61.3103 14.9992 108.35
      vertex 61.5518 14.5253 108.35
    endloop
  endfacet
  facet normal 0 0 1
    outer loop
      vertex 64.155 18 108.35
      vertex 60.9342 15.3753 108.35
      vertex 61.3103 14.9992 108.35
    endloop
  endfacet
  facet normal 0 0 1
    outer loop
      vertex 64.155 18 108.35
      vertex 60.4603 15.6168 108.35
      vertex 60.9342 15.3753 108.35
    endloop
  endfacet
  facet normal 0 0 1
    outer loop
      vertex 64.155 18 108.35
      vertex 59.935 15.7 108.35
      vertex 60.4603 15.6168 108.35
    endloop
  endfacet
  facet normal -0 0 1
    outer loop
      vertex 56.335 18 108.35
      vertex 59.935 15.7 108.35
      vertex 64.155 18 108.35
    endloop
  endfacet
  facet normal 0 0 1
    outer loop
      vertex 58.5597 14.9992 108.35
      vertex 55.935 17.6 108.35
      vertex 58.3182 14.5253 108.35
    endloop
  endfacet
  facet normal -0 0 1
    outer loop
      vertex 55.935 17.6 108.35
      vertex 58.5597 14.9992 108.35
      vertex 56.335 18 108.35
    endloop
  endfacet
  facet normal 0 0 1
    outer loop
      vertex 58.9358 15.3753 108.35
      vertex 56.335 18 108.35
      vertex 58.5597 14.9992 108.35
    endloop
  endfacet
  facet normal 0 0 1
    outer loop
      vertex 59.4097 15.6168 108.35
      vertex 56.335 18 108.35
      vertex 58.9358 15.3753 108.35
    endloop
  endfacet
  facet normal 0 0 1
    outer loop
      vertex 59.935 15.7 108.35
      vertex 56.335 18 108.35
      vertex 59.4097 15.6168 108.35
    endloop
  endfacet
  facet normal -0 0 1
    outer loop
      vertex 64.155 10.9 108.35
      vertex 75.935 10 108.35
      vertex 75.935 10.9 108.35
    endloop
  endfacet
  facet normal -0 0 1
    outer loop
      vertex 61.5518 13.4747 108.35
      vertex 64.155 10.9 108.35
      vertex 61.635 14 108.35
    endloop
  endfacet
  facet normal -0 0 1
    outer loop
      vertex 61.3103 13.0008 108.35
      vertex 64.155 10.9 108.35
      vertex 61.5518 13.4747 108.35
    endloop
  endfacet
  facet normal -0 0 1
    outer loop
      vertex 60.9342 12.6247 108.35
      vertex 64.155 10.9 108.35
      vertex 61.3103 13.0008 108.35
    endloop
  endfacet
  facet normal -0 0 1
    outer loop
      vertex 60.4603 12.3832 108.35
      vertex 64.155 10.9 108.35
      vertex 60.9342 12.6247 108.35
    endloop
  endfacet
  facet normal -0 0 1
    outer loop
      vertex 59.935 12.3 108.35
      vertex 64.155 10.9 108.35
      vertex 60.4603 12.3832 108.35
    endloop
  endfacet
  facet normal 0 0 1
    outer loop
      vertex 55.935 10 108.35
      vertex 59.935 12.3 108.35
      vertex 59.4097 12.3832 108.35
    endloop
  endfacet
  facet normal 0 0 1
    outer loop
      vertex 58.3182 14.5253 108.35
      vertex 55.935 17.6 108.35
      vertex 58.235 14 108.35
    endloop
  endfacet
  facet normal 0 0 1
    outer loop
      vertex 55.935 10 108.35
      vertex 58.235 14 108.35
      vertex 55.935 17.6 108.35
    endloop
  endfacet
  facet normal 0 0 1
    outer loop
      vertex 58.235 14 108.35
      vertex 55.935 10 108.35
      vertex 58.3182 13.4747 108.35
    endloop
  endfacet
  facet normal 0 0 1
    outer loop
      vertex 64.155 10.9 108.35
      vertex 55.935 10 108.35
      vertex 75.935 10 108.35
    endloop
  endfacet
  facet normal 0 0 1
    outer loop
      vertex 59.935 12.3 108.35
      vertex 55.935 10 108.35
      vertex 64.155 10.9 108.35
    endloop
  endfacet
  facet normal 0 0 1
    outer loop
      vertex 58.9358 12.6247 108.35
      vertex 55.935 10 108.35
      vertex 59.4097 12.3832 108.35
    endloop
  endfacet
  facet normal 0 0 1
    outer loop
      vertex 58.5597 13.0008 108.35
      vertex 55.935 10 108.35
      vertex 58.9358 12.6247 108.35
    endloop
  endfacet
  facet normal 0 0 1
    outer loop
      vertex 58.3182 13.4747 108.35
      vertex 55.935 10 108.35
      vertex 58.5597 13.0008 108.35
    endloop
  endfacet
  facet normal 0 1 -0
    outer loop
      vertex 75.935 10.9 104.35
      vertex 64.155 10.9 108.35
      vertex 75.935 10.9 108.35
    endloop
  endfacet
  facet normal 0 1 0
    outer loop
      vertex 64.155 10.9 108.35
      vertex 75.935 10.9 104.35
      vertex 64.155 10.9 104.35
    endloop
  endfacet
endsolid OpenSCAD_Model
