solid OpenSCAD_Model
  facet normal -0.891009 0 -0.453985
    outer loop
      vertex 3.92658 -1.8 2.96352
      vertex 3.71352 0 3.38168
      vertex 3.92658 0 2.96352
    endloop
  endfacet
  facet normal -0.891009 -0 -0.453985
    outer loop
      vertex 3.71352 0 3.38168
      vertex 3.92658 -1.8 2.96352
      vertex 3.71352 -1.8 3.38168
    endloop
  endfacet
  facet normal -0.891009 0 -0.453985
    outer loop
      vertex 3.92658 -7.8 2.96352
      vertex 3.71352 -3.4 3.38168
      vertex 3.92658 -3.4 2.96352
    endloop
  endfacet
  facet normal -0.891009 -0 -0.453985
    outer loop
      vertex 3.71352 -3.4 3.38168
      vertex 3.92658 -7.8 2.96352
      vertex 3.71352 -7.8 3.38168
    endloop
  endfacet
  facet normal -0.987686 0 -0.156446
    outer loop
      vertex 4 -1.8 2.5
      vertex 3.92658 0 2.96352
      vertex 4 0 2.5
    endloop
  endfacet
  facet normal -0.987686 -0 -0.156446
    outer loop
      vertex 3.92658 0 2.96352
      vertex 4 -1.8 2.5
      vertex 3.92658 -1.8 2.96352
    endloop
  endfacet
  facet normal -0.987686 0 -0.156446
    outer loop
      vertex 4 -7.8 2.5
      vertex 3.92658 -3.4 2.96352
      vertex 4 -3.4 2.5
    endloop
  endfacet
  facet normal -0.987686 -0 -0.156446
    outer loop
      vertex 3.92658 -3.4 2.96352
      vertex 4 -7.8 2.5
      vertex 3.92658 -7.8 2.96352
    endloop
  endfacet
  facet normal -0.707107 0 -0.707107
    outer loop
      vertex 3.71352 -1.8 3.38168
      vertex 3.38168 0 3.71352
      vertex 3.71352 0 3.38168
    endloop
  endfacet
  facet normal -0.707107 -0 -0.707107
    outer loop
      vertex 3.38168 0 3.71352
      vertex 3.71352 -1.8 3.38168
      vertex 3.38168 -1.8 3.71352
    endloop
  endfacet
  facet normal -0.707107 0 -0.707107
    outer loop
      vertex 3.71352 -7.8 3.38168
      vertex 3.38168 -3.4 3.71352
      vertex 3.71352 -3.4 3.38168
    endloop
  endfacet
  facet normal -0.707107 -0 -0.707107
    outer loop
      vertex 3.38168 -3.4 3.71352
      vertex 3.71352 -7.8 3.38168
      vertex 3.38168 -7.8 3.71352
    endloop
  endfacet
  facet normal 0.156443 0 -0.987687
    outer loop
      vertex 2.03647 -1.8 3.92658
      vertex 2.5 0 4
      vertex 2.5 -1.8 4
    endloop
  endfacet
  facet normal 0.156443 0 -0.987687
    outer loop
      vertex 2.5 0 4
      vertex 2.03647 -1.8 3.92658
      vertex 2.03647 0 3.92658
    endloop
  endfacet
  facet normal 0.156443 0 -0.987687
    outer loop
      vertex 2.03647 -7.8 3.92658
      vertex 2.5 -3.4 4
      vertex 2.5 -7.8 4
    endloop
  endfacet
  facet normal 0.156443 0 -0.987687
    outer loop
      vertex 2.5 -3.4 4
      vertex 2.03647 -7.8 3.92658
      vertex 2.03647 -3.4 3.92658
    endloop
  endfacet
  facet normal 0.707096 0 -0.707117
    outer loop
      vertex 1.61832 -1.8 3.71352
      vertex 1.28647 0 3.38168
      vertex 1.61832 0 3.71352
    endloop
  endfacet
  facet normal 0.707096 0 -0.707117
    outer loop
      vertex 1.28647 0 3.38168
      vertex 1.61832 -1.8 3.71352
      vertex 1.28647 -1.8 3.38168
    endloop
  endfacet
  facet normal 0.707096 0 -0.707117
    outer loop
      vertex 1.61832 -7.8 3.71352
      vertex 1.28647 -3.4 3.38168
      vertex 1.61832 -3.4 3.71352
    endloop
  endfacet
  facet normal 0.707096 0 -0.707117
    outer loop
      vertex 1.28647 -3.4 3.38168
      vertex 1.61832 -7.8 3.71352
      vertex 1.28647 -7.8 3.38168
    endloop
  endfacet
  facet normal -0.453985 0 -0.891009
    outer loop
      vertex 2.96352 -1.8 3.92658
      vertex 3.38168 0 3.71352
      vertex 3.38168 -1.8 3.71352
    endloop
  endfacet
  facet normal -0.453985 0 -0.891009
    outer loop
      vertex 3.38168 0 3.71352
      vertex 2.96352 -1.8 3.92658
      vertex 2.96352 0 3.92658
    endloop
  endfacet
  facet normal -0.453985 0 -0.891009
    outer loop
      vertex 2.96352 -7.8 3.92658
      vertex 3.38168 -3.4 3.71352
      vertex 3.38168 -7.8 3.71352
    endloop
  endfacet
  facet normal -0.453985 0 -0.891009
    outer loop
      vertex 3.38168 -3.4 3.71352
      vertex 2.96352 -7.8 3.92658
      vertex 2.96352 -3.4 3.92658
    endloop
  endfacet
  facet normal -0.891005 0 0.453994
    outer loop
      vertex 3.71352 -1.8 1.61832
      vertex 3.92658 0 2.03647
      vertex 3.71352 0 1.61832
    endloop
  endfacet
  facet normal -0.891005 0 0.453994
    outer loop
      vertex 3.92658 0 2.03647
      vertex 3.71352 -1.8 1.61832
      vertex 3.92658 -1.8 2.03647
    endloop
  endfacet
  facet normal -0.891005 0 0.453994
    outer loop
      vertex 3.71352 -7.8 1.61832
      vertex 3.92658 -3.4 2.03647
      vertex 3.71352 -3.4 1.61832
    endloop
  endfacet
  facet normal -0.891005 0 0.453994
    outer loop
      vertex 3.92658 -3.4 2.03647
      vertex 3.71352 -7.8 1.61832
      vertex 3.92658 -7.8 2.03647
    endloop
  endfacet
  facet normal -0.156446 0 -0.987686
    outer loop
      vertex 2.5 -1.8 4
      vertex 2.96352 0 3.92658
      vertex 2.96352 -1.8 3.92658
    endloop
  endfacet
  facet normal -0.156446 0 -0.987686
    outer loop
      vertex 2.96352 0 3.92658
      vertex 2.5 -1.8 4
      vertex 2.5 0 4
    endloop
  endfacet
  facet normal -0.156446 0 -0.987686
    outer loop
      vertex 2.5 -7.8 4
      vertex 2.96352 -3.4 3.92658
      vertex 2.96352 -7.8 3.92658
    endloop
  endfacet
  facet normal -0.156446 0 -0.987686
    outer loop
      vertex 2.96352 -3.4 3.92658
      vertex 2.5 -7.8 4
      vertex 2.5 -3.4 4
    endloop
  endfacet
  facet normal 0.453994 0 0.891005
    outer loop
      vertex 1.61832 0 1.28647
      vertex 2.03647 -1.8 1.07341
      vertex 2.03647 0 1.07341
    endloop
  endfacet
  facet normal 0.453994 0 0.891005
    outer loop
      vertex 2.03647 -1.8 1.07341
      vertex 1.61832 0 1.28647
      vertex 1.61832 -1.8 1.28647
    endloop
  endfacet
  facet normal 0.453994 0 0.891005
    outer loop
      vertex 1.61832 -3.4 1.28647
      vertex 2.03647 -7.8 1.07341
      vertex 2.03647 -3.4 1.07341
    endloop
  endfacet
  facet normal 0.453994 0 0.891005
    outer loop
      vertex 2.03647 -7.8 1.07341
      vertex 1.61832 -3.4 1.28647
      vertex 1.61832 -7.8 1.28647
    endloop
  endfacet
  facet normal -0.453985 0 0.891009
    outer loop
      vertex 2.96352 0 1.07341
      vertex 3.38168 -1.8 1.28647
      vertex 3.38168 0 1.28647
    endloop
  endfacet
  facet normal -0.453985 0 0.891009
    outer loop
      vertex 3.38168 -1.8 1.28647
      vertex 2.96352 0 1.07341
      vertex 2.96352 -1.8 1.07341
    endloop
  endfacet
  facet normal -0.453985 0 0.891009
    outer loop
      vertex 2.96352 -3.4 1.07341
      vertex 3.38168 -7.8 1.28647
      vertex 3.38168 -3.4 1.28647
    endloop
  endfacet
  facet normal -0.453985 0 0.891009
    outer loop
      vertex 3.38168 -7.8 1.28647
      vertex 2.96352 -3.4 1.07341
      vertex 2.96352 -7.8 1.07341
    endloop
  endfacet
  facet normal -0.987687 0 0.156443
    outer loop
      vertex 3.92658 -1.8 2.03647
      vertex 4 0 2.5
      vertex 3.92658 0 2.03647
    endloop
  endfacet
  facet normal -0.987687 0 0.156443
    outer loop
      vertex 4 0 2.5
      vertex 3.92658 -1.8 2.03647
      vertex 4 -1.8 2.5
    endloop
  endfacet
  facet normal -0.987687 0 0.156443
    outer loop
      vertex 3.92658 -7.8 2.03647
      vertex 4 -3.4 2.5
      vertex 3.92658 -3.4 2.03647
    endloop
  endfacet
  facet normal -0.987687 0 0.156443
    outer loop
      vertex 4 -3.4 2.5
      vertex 3.92658 -7.8 2.03647
      vertex 4 -7.8 2.5
    endloop
  endfacet
  facet normal -0.707117 0 0.707096
    outer loop
      vertex 3.38168 -1.8 1.28647
      vertex 3.71352 0 1.61832
      vertex 3.38168 0 1.28647
    endloop
  endfacet
  facet normal -0.707117 0 0.707096
    outer loop
      vertex 3.71352 0 1.61832
      vertex 3.38168 -1.8 1.28647
      vertex 3.71352 -1.8 1.61832
    endloop
  endfacet
  facet normal -0.707117 0 0.707096
    outer loop
      vertex 3.38168 -7.8 1.28647
      vertex 3.71352 -3.4 1.61832
      vertex 3.38168 -3.4 1.28647
    endloop
  endfacet
  facet normal -0.707117 0 0.707096
    outer loop
      vertex 3.71352 -3.4 1.61832
      vertex 3.38168 -7.8 1.28647
      vertex 3.71352 -7.8 1.61832
    endloop
  endfacet
  facet normal 0.891005 -0 0.453994
    outer loop
      vertex 1.07341 -1.8 2.03647
      vertex 1.28647 0 1.61832
      vertex 1.07341 0 2.03647
    endloop
  endfacet
  facet normal 0.891005 0 0.453994
    outer loop
      vertex 1.28647 0 1.61832
      vertex 1.07341 -1.8 2.03647
      vertex 1.28647 -1.8 1.61832
    endloop
  endfacet
  facet normal 0.891005 -0 0.453994
    outer loop
      vertex 1.07341 -7.8 2.03647
      vertex 1.28647 -3.4 1.61832
      vertex 1.07341 -3.4 2.03647
    endloop
  endfacet
  facet normal 0.891005 0 0.453994
    outer loop
      vertex 1.28647 -3.4 1.61832
      vertex 1.07341 -7.8 2.03647
      vertex 1.28647 -7.8 1.61832
    endloop
  endfacet
  facet normal 0.453994 0 -0.891005
    outer loop
      vertex 1.61832 -1.8 3.71352
      vertex 2.03647 0 3.92658
      vertex 2.03647 -1.8 3.92658
    endloop
  endfacet
  facet normal 0.453994 0 -0.891005
    outer loop
      vertex 2.03647 0 3.92658
      vertex 1.61832 -1.8 3.71352
      vertex 1.61832 0 3.71352
    endloop
  endfacet
  facet normal 0.453994 0 -0.891005
    outer loop
      vertex 1.61832 -7.8 3.71352
      vertex 2.03647 -3.4 3.92658
      vertex 2.03647 -7.8 3.92658
    endloop
  endfacet
  facet normal 0.453994 0 -0.891005
    outer loop
      vertex 2.03647 -3.4 3.92658
      vertex 1.61832 -7.8 3.71352
      vertex 1.61832 -3.4 3.71352
    endloop
  endfacet
  facet normal 0.891009 0 -0.453985
    outer loop
      vertex 1.28647 -1.8 3.38168
      vertex 1.07341 0 2.96352
      vertex 1.28647 0 3.38168
    endloop
  endfacet
  facet normal 0.891009 0 -0.453985
    outer loop
      vertex 1.07341 0 2.96352
      vertex 1.28647 -1.8 3.38168
      vertex 1.07341 -1.8 2.96352
    endloop
  endfacet
  facet normal 0.891009 0 -0.453985
    outer loop
      vertex 1.28647 -7.8 3.38168
      vertex 1.07341 -3.4 2.96352
      vertex 1.28647 -3.4 3.38168
    endloop
  endfacet
  facet normal 0.891009 0 -0.453985
    outer loop
      vertex 1.07341 -3.4 2.96352
      vertex 1.28647 -7.8 3.38168
      vertex 1.07341 -7.8 2.96352
    endloop
  endfacet
  facet normal 0.156422 0 0.98769
    outer loop
      vertex 2.03647 0 1.07341
      vertex 2.5 -1.8 1
      vertex 2.5 0 1
    endloop
  endfacet
  facet normal 0.156422 0 0.98769
    outer loop
      vertex 2.5 -1.8 1
      vertex 2.03647 0 1.07341
      vertex 2.03647 -1.8 1.07341
    endloop
  endfacet
  facet normal 0.156422 0 0.98769
    outer loop
      vertex 2.03647 -3.4 1.07341
      vertex 2.5 -7.8 1
      vertex 2.5 -3.4 1
    endloop
  endfacet
  facet normal 0.156422 0 0.98769
    outer loop
      vertex 2.5 -7.8 1
      vertex 2.03647 -3.4 1.07341
      vertex 2.03647 -7.8 1.07341
    endloop
  endfacet
  facet normal 0.98769 -0 0.156422
    outer loop
      vertex 1 -1.8 2.5
      vertex 1.07341 0 2.03647
      vertex 1 0 2.5
    endloop
  endfacet
  facet normal 0.98769 0 0.156422
    outer loop
      vertex 1.07341 0 2.03647
      vertex 1 -1.8 2.5
      vertex 1.07341 -1.8 2.03647
    endloop
  endfacet
  facet normal 0.98769 -0 0.156422
    outer loop
      vertex 1 -7.8 2.5
      vertex 1.07341 -3.4 2.03647
      vertex 1 -3.4 2.5
    endloop
  endfacet
  facet normal 0.98769 0 0.156422
    outer loop
      vertex 1.07341 -3.4 2.03647
      vertex 1 -7.8 2.5
      vertex 1.07341 -7.8 2.03647
    endloop
  endfacet
  facet normal 0.98769 0 -0.156425
    outer loop
      vertex 1.07341 -1.8 2.96352
      vertex 1 0 2.5
      vertex 1.07341 0 2.96352
    endloop
  endfacet
  facet normal 0.98769 0 -0.156425
    outer loop
      vertex 1 0 2.5
      vertex 1.07341 -1.8 2.96352
      vertex 1 -1.8 2.5
    endloop
  endfacet
  facet normal 0.98769 0 -0.156425
    outer loop
      vertex 1.07341 -7.8 2.96352
      vertex 1 -3.4 2.5
      vertex 1.07341 -3.4 2.96352
    endloop
  endfacet
  facet normal 0.98769 0 -0.156425
    outer loop
      vertex 1 -3.4 2.5
      vertex 1.07341 -7.8 2.96352
      vertex 1 -7.8 2.5
    endloop
  endfacet
  facet normal 0.707107 -0 0.707107
    outer loop
      vertex 1.28647 -1.8 1.61832
      vertex 1.61832 0 1.28647
      vertex 1.28647 0 1.61832
    endloop
  endfacet
  facet normal 0.707107 0 0.707107
    outer loop
      vertex 1.61832 0 1.28647
      vertex 1.28647 -1.8 1.61832
      vertex 1.61832 -1.8 1.28647
    endloop
  endfacet
  facet normal 0.707107 -0 0.707107
    outer loop
      vertex 1.28647 -7.8 1.61832
      vertex 1.61832 -3.4 1.28647
      vertex 1.28647 -3.4 1.61832
    endloop
  endfacet
  facet normal 0.707107 0 0.707107
    outer loop
      vertex 1.61832 -3.4 1.28647
      vertex 1.28647 -7.8 1.61832
      vertex 1.61832 -7.8 1.28647
    endloop
  endfacet
  facet normal -0.156425 0 0.98769
    outer loop
      vertex 2.5 0 1
      vertex 2.96352 -1.8 1.07341
      vertex 2.96352 0 1.07341
    endloop
  endfacet
  facet normal -0.156425 0 0.98769
    outer loop
      vertex 2.96352 -1.8 1.07341
      vertex 2.5 0 1
      vertex 2.5 -1.8 1
    endloop
  endfacet
  facet normal -0.156425 0 0.98769
    outer loop
      vertex 2.5 -3.4 1
      vertex 2.96352 -7.8 1.07341
      vertex 2.96352 -3.4 1.07341
    endloop
  endfacet
  facet normal -0.156425 0 0.98769
    outer loop
      vertex 2.96352 -7.8 1.07341
      vertex 2.5 -3.4 1
      vertex 2.5 -7.8 1
    endloop
  endfacet
  facet normal 0 -1 0
    outer loop
      vertex 1.61832 -1.8 3.71352
      vertex 2.29999 -1.8 4.7
      vertex 0 -1.8 4.7
    endloop
  endfacet
  facet normal -0 -1 0
    outer loop
      vertex 2.03647 -1.8 3.92658
      vertex 2.29999 -1.8 4.7
      vertex 1.61832 -1.8 3.71352
    endloop
  endfacet
  facet normal 0 -1 0
    outer loop
      vertex 2.29999 -1.8 4.7
      vertex 2.5 -1.8 4
      vertex 2.4883 -1.8 4.6926
    endloop
  endfacet
  facet normal 0 -1 0
    outer loop
      vertex 2.4883 -1.8 4.6926
      vertex 2.5 -1.8 4
      vertex 2.67543 -1.8 4.67044
    endloop
  endfacet
  facet normal 0 -1 -0
    outer loop
      vertex 2.67543 -1.8 4.67044
      vertex 2.5 -1.8 4
      vertex 2.86026 -1.8 4.63368
    endloop
  endfacet
  facet normal 0 -1 0
    outer loop
      vertex 2.96352 -1.8 3.92658
      vertex 2.86026 -1.8 4.63368
      vertex 2.5 -1.8 4
    endloop
  endfacet
  facet normal 0 -1 0
    outer loop
      vertex 2.86026 -1.8 4.63368
      vertex 2.96352 -1.8 3.92658
      vertex 3.04163 -1.8 4.58253
    endloop
  endfacet
  facet normal 0 -1 -0
    outer loop
      vertex 3.21843 -1.8 4.5173
      vertex 2.96352 -1.8 3.92658
      vertex 3.38957 -1.8 4.43842
    endloop
  endfacet
  facet normal 0 -1 -0
    outer loop
      vertex 3.38957 -1.8 4.43842
      vertex 2.96352 -1.8 3.92658
      vertex 3.55399 -1.8 4.34633
    endloop
  endfacet
  facet normal 0 -1 0
    outer loop
      vertex 3.38168 -1.8 3.71352
      vertex 3.55399 -1.8 4.34633
      vertex 2.96352 -1.8 3.92658
    endloop
  endfacet
  facet normal 0 -1 -0
    outer loop
      vertex 3.04163 -1.8 4.58253
      vertex 2.96352 -1.8 3.92658
      vertex 3.21843 -1.8 4.5173
    endloop
  endfacet
  facet normal -0 -1 0
    outer loop
      vertex 2.5 -1.8 4
      vertex 2.29999 -1.8 4.7
      vertex 2.03647 -1.8 3.92658
    endloop
  endfacet
  facet normal 0 -1 0
    outer loop
      vertex 0 -1.8 4.7
      vertex 1.28647 -1.8 3.38168
      vertex 1.61832 -1.8 3.71352
    endloop
  endfacet
  facet normal 0 -1 0
    outer loop
      vertex 0 -1.8 4.7
      vertex 1.07341 -1.8 2.96352
      vertex 1.28647 -1.8 3.38168
    endloop
  endfacet
  facet normal 0 -1 0
    outer loop
      vertex 0 -1.8 4.7
      vertex 1 -1.8 2.5
      vertex 1.07341 -1.8 2.96352
    endloop
  endfacet
  facet normal 0 -1 0
    outer loop
      vertex 0 -1.8 0
      vertex 1 -1.8 2.5
      vertex 0 -1.8 4.7
    endloop
  endfacet
  facet normal 0 -1 -0
    outer loop
      vertex 2.03647 -1.8 1.07341
      vertex 0 -1.8 0
      vertex 2.5 -1.8 1
    endloop
  endfacet
  facet normal 0 -1 -0
    outer loop
      vertex 1.61832 -1.8 1.28647
      vertex 0 -1.8 0
      vertex 2.03647 -1.8 1.07341
    endloop
  endfacet
  facet normal 0 -1 -0
    outer loop
      vertex 1.28647 -1.8 1.61832
      vertex 0 -1.8 0
      vertex 1.61832 -1.8 1.28647
    endloop
  endfacet
  facet normal 0 -1 -0
    outer loop
      vertex 1.07341 -1.8 2.03647
      vertex 0 -1.8 0
      vertex 1.28647 -1.8 1.61832
    endloop
  endfacet
  facet normal 0 -1 -0
    outer loop
      vertex 1 -1.8 2.5
      vertex 0 -1.8 0
      vertex 1.07341 -1.8 2.03647
    endloop
  endfacet
  facet normal 0 -1 -0
    outer loop
      vertex 3.55399 -1.8 4.34633
      vertex 3.38168 -1.8 3.71352
      vertex 3.71068 -1.8 4.24164
    endloop
  endfacet
  facet normal 0 -1 -0
    outer loop
      vertex 3.71068 -1.8 4.24164
      vertex 3.38168 -1.8 3.71352
      vertex 3.85867 -1.8 4.12497
    endloop
  endfacet
  facet normal 0 -1 -0
    outer loop
      vertex 3.85867 -1.8 4.12497
      vertex 3.38168 -1.8 3.71352
      vertex 3.99706 -1.8 3.99706
    endloop
  endfacet
  facet normal 0 -1 0
    outer loop
      vertex 3.71352 -1.8 3.38168
      vertex 3.99706 -1.8 3.99706
      vertex 3.38168 -1.8 3.71352
    endloop
  endfacet
  facet normal 0 -1 -0
    outer loop
      vertex 3.99706 -1.8 3.99706
      vertex 3.71352 -1.8 3.38168
      vertex 4.12497 -1.8 3.85867
    endloop
  endfacet
  facet normal 0 -1 -0
    outer loop
      vertex 4.12497 -1.8 3.85867
      vertex 3.71352 -1.8 3.38168
      vertex 4.24164 -1.8 3.71068
    endloop
  endfacet
  facet normal 0 -1 -0
    outer loop
      vertex 4.24164 -1.8 3.71068
      vertex 3.71352 -1.8 3.38168
      vertex 4.34633 -1.8 3.55399
    endloop
  endfacet
  facet normal 0 -1 0
    outer loop
      vertex 3.92658 -1.8 2.96352
      vertex 4.34633 -1.8 3.55399
      vertex 3.71352 -1.8 3.38168
    endloop
  endfacet
  facet normal 0 -1 -0
    outer loop
      vertex 4.34633 -1.8 3.55399
      vertex 3.92658 -1.8 2.96352
      vertex 4.43842 -1.8 3.38957
    endloop
  endfacet
  facet normal 0 -1 -0
    outer loop
      vertex 4.43842 -1.8 3.38957
      vertex 3.92658 -1.8 2.96352
      vertex 4.5173 -1.8 3.21843
    endloop
  endfacet
  facet normal 0 -1 -0
    outer loop
      vertex 4.5173 -1.8 3.21843
      vertex 3.92658 -1.8 2.96352
      vertex 4.58253 -1.8 3.04163
    endloop
  endfacet
  facet normal 0 -1 0
    outer loop
      vertex 3.92658 -1.8 2.96352
      vertex 4.63368 -1.8 2.86026
      vertex 4.58253 -1.8 3.04163
    endloop
  endfacet
  facet normal 0 -1 0
    outer loop
      vertex 4 -1.8 2.5
      vertex 4.63368 -1.8 2.86026
      vertex 3.92658 -1.8 2.96352
    endloop
  endfacet
  facet normal 0 -1 -0
    outer loop
      vertex 4.63368 -1.8 2.86026
      vertex 4 -1.8 2.5
      vertex 4.67044 -1.8 2.67543
    endloop
  endfacet
  facet normal 0 -1 0
    outer loop
      vertex 4 -1.8 2.5
      vertex 4.6926 -1.8 2.4883
      vertex 4.67044 -1.8 2.67543
    endloop
  endfacet
  facet normal 0 -1 0
    outer loop
      vertex 4 -1.8 2.5
      vertex 4.7 -1.8 2.29999
      vertex 4.6926 -1.8 2.4883
    endloop
  endfacet
  facet normal 0 -1 0
    outer loop
      vertex 3.92658 -1.8 2.03647
      vertex 4.7 -1.8 2.29999
      vertex 4 -1.8 2.5
    endloop
  endfacet
  facet normal 0 -1 0
    outer loop
      vertex 3.71352 -1.8 1.61832
      vertex 4.7 -1.8 2.29999
      vertex 3.92658 -1.8 2.03647
    endloop
  endfacet
  facet normal 0 -1 0
    outer loop
      vertex 4.7 -1.8 0
      vertex 3.71352 -1.8 1.61832
      vertex 3.38168 -1.8 1.28647
    endloop
  endfacet
  facet normal 0 -1 0
    outer loop
      vertex 4.7 -1.8 0
      vertex 2.5 -1.8 1
      vertex 0 -1.8 0
    endloop
  endfacet
  facet normal 0 -1 0
    outer loop
      vertex 3.71352 -1.8 1.61832
      vertex 4.7 -1.8 0
      vertex 4.7 -1.8 2.29999
    endloop
  endfacet
  facet normal 0 -1 0
    outer loop
      vertex 2.96352 -1.8 1.07341
      vertex 4.7 -1.8 0
      vertex 3.38168 -1.8 1.28647
    endloop
  endfacet
  facet normal 0 -1 0
    outer loop
      vertex 2.5 -1.8 1
      vertex 4.7 -1.8 0
      vertex 2.96352 -1.8 1.07341
    endloop
  endfacet
  facet normal -0 0 1
    outer loop
      vertex 0 -1.8 0
      vertex 4.7 -3.4 0
      vertex 4.7 -1.8 0
    endloop
  endfacet
  facet normal 0 0 1
    outer loop
      vertex 4.7 -3.4 0
      vertex 0 -1.8 0
      vertex 0 -3.4 0
    endloop
  endfacet
  facet normal 0 1 0
    outer loop
      vertex 3.38168 -3.4 3.71352
      vertex 3.85867 -3.4 4.12497
      vertex 3.99706 -3.4 3.99706
    endloop
  endfacet
  facet normal 0 1 0
    outer loop
      vertex 3.85867 -3.4 4.12497
      vertex 2.96352 -3.4 3.92658
      vertex 2.5 -3.4 4
    endloop
  endfacet
  facet normal 0 1 0
    outer loop
      vertex 3.71352 -3.4 3.38168
      vertex 3.99706 -3.4 3.99706
      vertex 4.12497 -3.4 3.85867
    endloop
  endfacet
  facet normal 0 1 0
    outer loop
      vertex 3.85867 -3.4 4.12497
      vertex 3.38168 -3.4 3.71352
      vertex 2.96352 -3.4 3.92658
    endloop
  endfacet
  facet normal 0 1 0
    outer loop
      vertex 3.71352 -3.4 3.38168
      vertex 4.12497 -3.4 3.85867
      vertex 4.24164 -3.4 3.71068
    endloop
  endfacet
  facet normal 0 1 0
    outer loop
      vertex 3.71352 -3.4 3.38168
      vertex 4.24164 -3.4 3.71068
      vertex 4.34633 -3.4 3.55399
    endloop
  endfacet
  facet normal 0 1 0
    outer loop
      vertex 3.92658 -3.4 2.96352
      vertex 4.34633 -3.4 3.55399
      vertex 4.43842 -3.4 3.38957
    endloop
  endfacet
  facet normal 0 1 0
    outer loop
      vertex 3.99706 -3.4 3.99706
      vertex 3.71352 -3.4 3.38168
      vertex 3.38168 -3.4 3.71352
    endloop
  endfacet
  facet normal 0 1 0
    outer loop
      vertex 3.92658 -3.4 2.96352
      vertex 4.43842 -3.4 3.38957
      vertex 4.5173 -3.4 3.21843
    endloop
  endfacet
  facet normal 0 1 0
    outer loop
      vertex 3.92658 -3.4 2.96352
      vertex 4.5173 -3.4 3.21843
      vertex 4.58253 -3.4 3.04163
    endloop
  endfacet
  facet normal 0 1 0
    outer loop
      vertex 4.34633 -3.4 3.55399
      vertex 3.92658 -3.4 2.96352
      vertex 3.71352 -3.4 3.38168
    endloop
  endfacet
  facet normal 0 1 0
    outer loop
      vertex 4.63368 -3.4 2.86026
      vertex 3.92658 -3.4 2.96352
      vertex 4.58253 -3.4 3.04163
    endloop
  endfacet
  facet normal 0 1 0
    outer loop
      vertex 4 -3.4 2.5
      vertex 4.63368 -3.4 2.86026
      vertex 4.67044 -3.4 2.67543
    endloop
  endfacet
  facet normal 0 1 0
    outer loop
      vertex 4.63368 -3.4 2.86026
      vertex 4 -3.4 2.5
      vertex 3.92658 -3.4 2.96352
    endloop
  endfacet
  facet normal 0 1 0
    outer loop
      vertex 4.6926 -3.4 2.4883
      vertex 4 -3.4 2.5
      vertex 4.67044 -3.4 2.67543
    endloop
  endfacet
  facet normal 0 1 0
    outer loop
      vertex 4.7 -3.4 2.29999
      vertex 4 -3.4 2.5
      vertex 4.6926 -3.4 2.4883
    endloop
  endfacet
  facet normal 0 1 0
    outer loop
      vertex 4.7 -3.4 2.29999
      vertex 3.92658 -3.4 2.03647
      vertex 4 -3.4 2.5
    endloop
  endfacet
  facet normal 0 1 0
    outer loop
      vertex 4.7 -3.4 2.29999
      vertex 3.71352 -3.4 1.61832
      vertex 3.92658 -3.4 2.03647
    endloop
  endfacet
  facet normal 0 1 -0
    outer loop
      vertex 4.7 -3.4 0
      vertex 3.71352 -3.4 1.61832
      vertex 4.7 -3.4 2.29999
    endloop
  endfacet
  facet normal 0 1 0
    outer loop
      vertex 2.96352 -3.4 1.07341
      vertex 4.7 -3.4 0
      vertex 2.5 -3.4 1
    endloop
  endfacet
  facet normal 0 1 0
    outer loop
      vertex 3.38168 -3.4 1.28647
      vertex 4.7 -3.4 0
      vertex 2.96352 -3.4 1.07341
    endloop
  endfacet
  facet normal 0 1 0
    outer loop
      vertex 3.71352 -3.4 1.61832
      vertex 4.7 -3.4 0
      vertex 3.38168 -3.4 1.28647
    endloop
  endfacet
  facet normal 0 1 0
    outer loop
      vertex 2.5 -3.4 4
      vertex 2.29999 -3.4 4.7
      vertex 2.4883 -3.4 4.6926
    endloop
  endfacet
  facet normal 0 1 -0
    outer loop
      vertex 2.5 -3.4 4
      vertex 2.4883 -3.4 4.6926
      vertex 2.67543 -3.4 4.67044
    endloop
  endfacet
  facet normal 0 1 0
    outer loop
      vertex 2.5 -3.4 4
      vertex 2.67543 -3.4 4.67044
      vertex 2.86026 -3.4 4.63368
    endloop
  endfacet
  facet normal 0 1 0
    outer loop
      vertex 2.5 -3.4 4
      vertex 2.86026 -3.4 4.63368
      vertex 3.04163 -3.4 4.58253
    endloop
  endfacet
  facet normal 0 1 0
    outer loop
      vertex 2.5 -3.4 4
      vertex 3.04163 -3.4 4.58253
      vertex 3.21843 -3.4 4.5173
    endloop
  endfacet
  facet normal 0 1 0
    outer loop
      vertex 2.5 -3.4 4
      vertex 3.21843 -3.4 4.5173
      vertex 3.38957 -3.4 4.43842
    endloop
  endfacet
  facet normal 0 1 0
    outer loop
      vertex 2.5 -3.4 4
      vertex 3.38957 -3.4 4.43842
      vertex 3.55399 -3.4 4.34633
    endloop
  endfacet
  facet normal 0 1 0
    outer loop
      vertex 2.5 -3.4 4
      vertex 3.55399 -3.4 4.34633
      vertex 3.71068 -3.4 4.24164
    endloop
  endfacet
  facet normal 0 1 0
    outer loop
      vertex 2.5 -3.4 4
      vertex 3.71068 -3.4 4.24164
      vertex 3.85867 -3.4 4.12497
    endloop
  endfacet
  facet normal 0 1 0
    outer loop
      vertex 2.29999 -3.4 4.7
      vertex 2.5 -3.4 4
      vertex 2.03647 -3.4 3.92658
    endloop
  endfacet
  facet normal 0 1 0
    outer loop
      vertex 2.29999 -3.4 4.7
      vertex 2.03647 -3.4 3.92658
      vertex 1.61832 -3.4 3.71352
    endloop
  endfacet
  facet normal 0 1 0
    outer loop
      vertex 2.29999 -3.4 4.7
      vertex 1.61832 -3.4 3.71352
      vertex 0 -3.4 4.7
    endloop
  endfacet
  facet normal 0 1 -0
    outer loop
      vertex 1.28647 -3.4 3.38168
      vertex 0 -3.4 4.7
      vertex 1.61832 -3.4 3.71352
    endloop
  endfacet
  facet normal 0 1 -0
    outer loop
      vertex 1.07341 -3.4 2.96352
      vertex 0 -3.4 4.7
      vertex 1.28647 -3.4 3.38168
    endloop
  endfacet
  facet normal 0 1 -0
    outer loop
      vertex 1 -3.4 2.5
      vertex 0 -3.4 4.7
      vertex 1.07341 -3.4 2.96352
    endloop
  endfacet
  facet normal 0 1 0
    outer loop
      vertex 0 -3.4 0
      vertex 1 -3.4 2.5
      vertex 1.07341 -3.4 2.03647
    endloop
  endfacet
  facet normal 0 1 0
    outer loop
      vertex 0 -3.4 0
      vertex 2.5 -3.4 1
      vertex 4.7 -3.4 0
    endloop
  endfacet
  facet normal 0 1 0
    outer loop
      vertex 1 -3.4 2.5
      vertex 0 -3.4 0
      vertex 0 -3.4 4.7
    endloop
  endfacet
  facet normal 0 1 0
    outer loop
      vertex 1.28647 -3.4 1.61832
      vertex 0 -3.4 0
      vertex 1.07341 -3.4 2.03647
    endloop
  endfacet
  facet normal 0 1 0
    outer loop
      vertex 1.61832 -3.4 1.28647
      vertex 0 -3.4 0
      vertex 1.28647 -3.4 1.61832
    endloop
  endfacet
  facet normal 0 1 0
    outer loop
      vertex 2.03647 -3.4 1.07341
      vertex 0 -3.4 0
      vertex 1.61832 -3.4 1.28647
    endloop
  endfacet
  facet normal 0 1 0
    outer loop
      vertex 2.5 -3.4 1
      vertex 0 -3.4 0
      vertex 2.03647 -3.4 1.07341
    endloop
  endfacet
  facet normal -1 0 0
    outer loop
      vertex 0 0 -2
      vertex 0 -1.8 0
      vertex 0 0 4.7
    endloop
  endfacet
  facet normal -1 0 0
    outer loop
      vertex 0 0 -2
      vertex 0 -3.4 0
      vertex 0 -1.8 0
    endloop
  endfacet
  facet normal -1 0 0
    outer loop
      vertex 0 -7.8 -2
      vertex 0 -3.4 0
      vertex 0 0 -2
    endloop
  endfacet
  facet normal -1 0 0
    outer loop
      vertex 0 -7.8 4.7
      vertex 0 -3.4 0
      vertex 0 -7.8 -2
    endloop
  endfacet
  facet normal -1 0 0
    outer loop
      vertex 0 -3.4 0
      vertex 0 -7.8 4.7
      vertex 0 -3.4 4.7
    endloop
  endfacet
  facet normal -1 -0 0
    outer loop
      vertex 0 0 4.7
      vertex 0 -1.8 0
      vertex 0 -1.8 4.7
    endloop
  endfacet
  facet normal -0 0 1
    outer loop
      vertex 0 0 4.7
      vertex 2.29999 -1.8 4.7
      vertex 2.29999 0 4.7
    endloop
  endfacet
  facet normal 0 0 1
    outer loop
      vertex 2.29999 -1.8 4.7
      vertex 0 0 4.7
      vertex 0 -1.8 4.7
    endloop
  endfacet
  facet normal -0 0 1
    outer loop
      vertex 0 -3.4 4.7
      vertex 2.29999 -7.8 4.7
      vertex 2.29999 -3.4 4.7
    endloop
  endfacet
  facet normal 0 0 1
    outer loop
      vertex 2.29999 -7.8 4.7
      vertex 0 -3.4 4.7
      vertex 0 -7.8 4.7
    endloop
  endfacet
  facet normal 0.0392666 0 0.999229
    outer loop
      vertex 2.29999 0 4.7
      vertex 2.4883 -1.8 4.6926
      vertex 2.4883 0 4.6926
    endloop
  endfacet
  facet normal 0.0392666 0 0.999229
    outer loop
      vertex 2.4883 -1.8 4.6926
      vertex 2.29999 0 4.7
      vertex 2.29999 -1.8 4.7
    endloop
  endfacet
  facet normal 0.0392666 0 0.999229
    outer loop
      vertex 2.29999 -3.4 4.7
      vertex 2.4883 -7.8 4.6926
      vertex 2.4883 -3.4 4.6926
    endloop
  endfacet
  facet normal 0.0392666 0 0.999229
    outer loop
      vertex 2.4883 -7.8 4.6926
      vertex 2.29999 -3.4 4.7
      vertex 2.29999 -7.8 4.7
    endloop
  endfacet
  facet normal 0.117599 0 0.993061
    outer loop
      vertex 2.4883 0 4.6926
      vertex 2.67543 -1.8 4.67044
      vertex 2.67543 0 4.67044
    endloop
  endfacet
  facet normal 0.117599 0 0.993061
    outer loop
      vertex 2.67543 -1.8 4.67044
      vertex 2.4883 0 4.6926
      vertex 2.4883 -1.8 4.6926
    endloop
  endfacet
  facet normal 0.117599 0 0.993061
    outer loop
      vertex 2.4883 -3.4 4.6926
      vertex 2.67543 -7.8 4.67044
      vertex 2.67543 -3.4 4.67044
    endloop
  endfacet
  facet normal 0.117599 0 0.993061
    outer loop
      vertex 2.67543 -7.8 4.67044
      vertex 2.4883 -3.4 4.6926
      vertex 2.4883 -7.8 4.6926
    endloop
  endfacet
  facet normal 0.195065 0 0.98079
    outer loop
      vertex 2.67543 0 4.67044
      vertex 2.86026 -1.8 4.63368
      vertex 2.86026 0 4.63368
    endloop
  endfacet
  facet normal 0.195065 0 0.98079
    outer loop
      vertex 2.86026 -1.8 4.63368
      vertex 2.67543 0 4.67044
      vertex 2.67543 -1.8 4.67044
    endloop
  endfacet
  facet normal 0.195065 0 0.98079
    outer loop
      vertex 2.67543 -3.4 4.67044
      vertex 2.86026 -7.8 4.63368
      vertex 2.86026 -3.4 4.63368
    endloop
  endfacet
  facet normal 0.195065 0 0.98079
    outer loop
      vertex 2.86026 -7.8 4.63368
      vertex 2.67543 -3.4 4.67044
      vertex 2.67543 -7.8 4.67044
    endloop
  endfacet
  facet normal 0.271432 0 0.962457
    outer loop
      vertex 2.86026 0 4.63368
      vertex 3.04163 -1.8 4.58253
      vertex 3.04163 0 4.58253
    endloop
  endfacet
  facet normal 0.271432 0 0.962457
    outer loop
      vertex 3.04163 -1.8 4.58253
      vertex 2.86026 0 4.63368
      vertex 2.86026 -1.8 4.63368
    endloop
  endfacet
  facet normal 0.271432 0 0.962457
    outer loop
      vertex 2.86026 -3.4 4.63368
      vertex 3.04163 -7.8 4.58253
      vertex 3.04163 -3.4 4.58253
    endloop
  endfacet
  facet normal 0.271432 0 0.962457
    outer loop
      vertex 3.04163 -7.8 4.58253
      vertex 2.86026 -3.4 4.63368
      vertex 2.86026 -7.8 4.63368
    endloop
  endfacet
  facet normal 0.346141 0 0.938183
    outer loop
      vertex 3.04163 0 4.58253
      vertex 3.21843 -1.8 4.5173
      vertex 3.21843 0 4.5173
    endloop
  endfacet
  facet normal 0.346141 0 0.938183
    outer loop
      vertex 3.21843 -1.8 4.5173
      vertex 3.04163 0 4.58253
      vertex 3.04163 -1.8 4.58253
    endloop
  endfacet
  facet normal 0.346141 0 0.938183
    outer loop
      vertex 3.04163 -3.4 4.58253
      vertex 3.21843 -7.8 4.5173
      vertex 3.21843 -3.4 4.5173
    endloop
  endfacet
  facet normal 0.346141 0 0.938183
    outer loop
      vertex 3.21843 -7.8 4.5173
      vertex 3.04163 -3.4 4.58253
      vertex 3.04163 -7.8 4.58253
    endloop
  endfacet
  facet normal 0.418587 0 0.908177
    outer loop
      vertex 3.21843 0 4.5173
      vertex 3.38957 -1.8 4.43842
      vertex 3.38957 0 4.43842
    endloop
  endfacet
  facet normal 0.418587 0 0.908177
    outer loop
      vertex 3.38957 -1.8 4.43842
      vertex 3.21843 0 4.5173
      vertex 3.21843 -1.8 4.5173
    endloop
  endfacet
  facet normal 0.418587 0 0.908177
    outer loop
      vertex 3.21843 -3.4 4.5173
      vertex 3.38957 -7.8 4.43842
      vertex 3.38957 -3.4 4.43842
    endloop
  endfacet
  facet normal 0.418587 0 0.908177
    outer loop
      vertex 3.38957 -7.8 4.43842
      vertex 3.21843 -3.4 4.5173
      vertex 3.21843 -7.8 4.5173
    endloop
  endfacet
  facet normal 0.488663 0 0.872473
    outer loop
      vertex 3.38957 0 4.43842
      vertex 3.55399 -1.8 4.34633
      vertex 3.55399 0 4.34633
    endloop
  endfacet
  facet normal 0.488663 0 0.872473
    outer loop
      vertex 3.55399 -1.8 4.34633
      vertex 3.38957 0 4.43842
      vertex 3.38957 -1.8 4.43842
    endloop
  endfacet
  facet normal 0.488663 0 0.872473
    outer loop
      vertex 3.38957 -3.4 4.43842
      vertex 3.55399 -7.8 4.34633
      vertex 3.55399 -3.4 4.34633
    endloop
  endfacet
  facet normal 0.488663 0 0.872473
    outer loop
      vertex 3.55399 -7.8 4.34633
      vertex 3.38957 -3.4 4.43842
      vertex 3.38957 -7.8 4.43842
    endloop
  endfacet
  facet normal 0.555545 0 0.831487
    outer loop
      vertex 3.55399 0 4.34633
      vertex 3.71068 -1.8 4.24164
      vertex 3.71068 0 4.24164
    endloop
  endfacet
  facet normal 0.555545 0 0.831487
    outer loop
      vertex 3.71068 -1.8 4.24164
      vertex 3.55399 0 4.34633
      vertex 3.55399 -1.8 4.34633
    endloop
  endfacet
  facet normal 0.555545 0 0.831487
    outer loop
      vertex 3.55399 -3.4 4.34633
      vertex 3.71068 -7.8 4.24164
      vertex 3.71068 -3.4 4.24164
    endloop
  endfacet
  facet normal 0.555545 0 0.831487
    outer loop
      vertex 3.71068 -7.8 4.24164
      vertex 3.55399 -3.4 4.34633
      vertex 3.55399 -7.8 4.34633
    endloop
  endfacet
  facet normal 0.619107 0 0.785306
    outer loop
      vertex 3.71068 0 4.24164
      vertex 3.85867 -1.8 4.12497
      vertex 3.85867 0 4.12497
    endloop
  endfacet
  facet normal 0.619107 0 0.785306
    outer loop
      vertex 3.85867 -1.8 4.12497
      vertex 3.71068 0 4.24164
      vertex 3.71068 -1.8 4.24164
    endloop
  endfacet
  facet normal 0.619107 0 0.785306
    outer loop
      vertex 3.71068 -3.4 4.24164
      vertex 3.85867 -7.8 4.12497
      vertex 3.85867 -3.4 4.12497
    endloop
  endfacet
  facet normal 0.619107 0 0.785306
    outer loop
      vertex 3.85867 -7.8 4.12497
      vertex 3.71068 -3.4 4.24164
      vertex 3.71068 -7.8 4.24164
    endloop
  endfacet
  facet normal 0.678754 0 0.734366
    outer loop
      vertex 3.85867 0 4.12497
      vertex 3.99706 -1.8 3.99706
      vertex 3.99706 0 3.99706
    endloop
  endfacet
  facet normal 0.678754 0 0.734366
    outer loop
      vertex 3.99706 -1.8 3.99706
      vertex 3.85867 0 4.12497
      vertex 3.85867 -1.8 4.12497
    endloop
  endfacet
  facet normal 0.678754 0 0.734366
    outer loop
      vertex 3.85867 -3.4 4.12497
      vertex 3.99706 -7.8 3.99706
      vertex 3.99706 -3.4 3.99706
    endloop
  endfacet
  facet normal 0.678754 0 0.734366
    outer loop
      vertex 3.99706 -7.8 3.99706
      vertex 3.85867 -3.4 4.12497
      vertex 3.85867 -7.8 4.12497
    endloop
  endfacet
  facet normal 0.734366 -0 0.678754
    outer loop
      vertex 3.99706 -1.8 3.99706
      vertex 4.12497 0 3.85867
      vertex 3.99706 0 3.99706
    endloop
  endfacet
  facet normal 0.734366 0 0.678754
    outer loop
      vertex 4.12497 0 3.85867
      vertex 3.99706 -1.8 3.99706
      vertex 4.12497 -1.8 3.85867
    endloop
  endfacet
  facet normal 0.734366 -0 0.678754
    outer loop
      vertex 3.99706 -7.8 3.99706
      vertex 4.12497 -3.4 3.85867
      vertex 3.99706 -3.4 3.99706
    endloop
  endfacet
  facet normal 0.734366 0 0.678754
    outer loop
      vertex 4.12497 -3.4 3.85867
      vertex 3.99706 -7.8 3.99706
      vertex 4.12497 -7.8 3.85867
    endloop
  endfacet
  facet normal 0.785306 -0 0.619107
    outer loop
      vertex 4.12497 -1.8 3.85867
      vertex 4.24164 0 3.71068
      vertex 4.12497 0 3.85867
    endloop
  endfacet
  facet normal 0.785306 0 0.619107
    outer loop
      vertex 4.24164 0 3.71068
      vertex 4.12497 -1.8 3.85867
      vertex 4.24164 -1.8 3.71068
    endloop
  endfacet
  facet normal 0.785306 -0 0.619107
    outer loop
      vertex 4.12497 -7.8 3.85867
      vertex 4.24164 -3.4 3.71068
      vertex 4.12497 -3.4 3.85867
    endloop
  endfacet
  facet normal 0.785306 0 0.619107
    outer loop
      vertex 4.24164 -3.4 3.71068
      vertex 4.12497 -7.8 3.85867
      vertex 4.24164 -7.8 3.71068
    endloop
  endfacet
  facet normal 0.831487 -0 0.555545
    outer loop
      vertex 4.24164 -1.8 3.71068
      vertex 4.34633 0 3.55399
      vertex 4.24164 0 3.71068
    endloop
  endfacet
  facet normal 0.831487 0 0.555545
    outer loop
      vertex 4.34633 0 3.55399
      vertex 4.24164 -1.8 3.71068
      vertex 4.34633 -1.8 3.55399
    endloop
  endfacet
  facet normal 0.831487 -0 0.555545
    outer loop
      vertex 4.24164 -7.8 3.71068
      vertex 4.34633 -3.4 3.55399
      vertex 4.24164 -3.4 3.71068
    endloop
  endfacet
  facet normal 0.831487 0 0.555545
    outer loop
      vertex 4.34633 -3.4 3.55399
      vertex 4.24164 -7.8 3.71068
      vertex 4.34633 -7.8 3.55399
    endloop
  endfacet
  facet normal 0.872473 -0 0.488663
    outer loop
      vertex 4.34633 -1.8 3.55399
      vertex 4.43842 0 3.38957
      vertex 4.34633 0 3.55399
    endloop
  endfacet
  facet normal 0.872473 0 0.488663
    outer loop
      vertex 4.43842 0 3.38957
      vertex 4.34633 -1.8 3.55399
      vertex 4.43842 -1.8 3.38957
    endloop
  endfacet
  facet normal 0.872473 -0 0.488663
    outer loop
      vertex 4.34633 -7.8 3.55399
      vertex 4.43842 -3.4 3.38957
      vertex 4.34633 -3.4 3.55399
    endloop
  endfacet
  facet normal 0.872473 0 0.488663
    outer loop
      vertex 4.43842 -3.4 3.38957
      vertex 4.34633 -7.8 3.55399
      vertex 4.43842 -7.8 3.38957
    endloop
  endfacet
  facet normal 0.908177 -0 0.418587
    outer loop
      vertex 4.43842 -1.8 3.38957
      vertex 4.5173 0 3.21843
      vertex 4.43842 0 3.38957
    endloop
  endfacet
  facet normal 0.908177 0 0.418587
    outer loop
      vertex 4.5173 0 3.21843
      vertex 4.43842 -1.8 3.38957
      vertex 4.5173 -1.8 3.21843
    endloop
  endfacet
  facet normal 0.908177 -0 0.418587
    outer loop
      vertex 4.43842 -7.8 3.38957
      vertex 4.5173 -3.4 3.21843
      vertex 4.43842 -3.4 3.38957
    endloop
  endfacet
  facet normal 0.908177 0 0.418587
    outer loop
      vertex 4.5173 -3.4 3.21843
      vertex 4.43842 -7.8 3.38957
      vertex 4.5173 -7.8 3.21843
    endloop
  endfacet
  facet normal 0.938183 -0 0.346141
    outer loop
      vertex 4.5173 -1.8 3.21843
      vertex 4.58253 0 3.04163
      vertex 4.5173 0 3.21843
    endloop
  endfacet
  facet normal 0.938183 0 0.346141
    outer loop
      vertex 4.58253 0 3.04163
      vertex 4.5173 -1.8 3.21843
      vertex 4.58253 -1.8 3.04163
    endloop
  endfacet
  facet normal 0.938183 -0 0.346141
    outer loop
      vertex 4.5173 -7.8 3.21843
      vertex 4.58253 -3.4 3.04163
      vertex 4.5173 -3.4 3.21843
    endloop
  endfacet
  facet normal 0.938183 0 0.346141
    outer loop
      vertex 4.58253 -3.4 3.04163
      vertex 4.5173 -7.8 3.21843
      vertex 4.58253 -7.8 3.04163
    endloop
  endfacet
  facet normal 0.962457 -0 0.271432
    outer loop
      vertex 4.58253 -1.8 3.04163
      vertex 4.63368 0 2.86026
      vertex 4.58253 0 3.04163
    endloop
  endfacet
  facet normal 0.962457 0 0.271432
    outer loop
      vertex 4.63368 0 2.86026
      vertex 4.58253 -1.8 3.04163
      vertex 4.63368 -1.8 2.86026
    endloop
  endfacet
  facet normal 0.962457 -0 0.271432
    outer loop
      vertex 4.58253 -7.8 3.04163
      vertex 4.63368 -3.4 2.86026
      vertex 4.58253 -3.4 3.04163
    endloop
  endfacet
  facet normal 0.962457 0 0.271432
    outer loop
      vertex 4.63368 -3.4 2.86026
      vertex 4.58253 -7.8 3.04163
      vertex 4.63368 -7.8 2.86026
    endloop
  endfacet
  facet normal 0.98079 -0 0.195065
    outer loop
      vertex 4.63368 -1.8 2.86026
      vertex 4.67044 0 2.67543
      vertex 4.63368 0 2.86026
    endloop
  endfacet
  facet normal 0.98079 0 0.195065
    outer loop
      vertex 4.67044 0 2.67543
      vertex 4.63368 -1.8 2.86026
      vertex 4.67044 -1.8 2.67543
    endloop
  endfacet
  facet normal 0.98079 -0 0.195065
    outer loop
      vertex 4.63368 -7.8 2.86026
      vertex 4.67044 -3.4 2.67543
      vertex 4.63368 -3.4 2.86026
    endloop
  endfacet
  facet normal 0.98079 0 0.195065
    outer loop
      vertex 4.67044 -3.4 2.67543
      vertex 4.63368 -7.8 2.86026
      vertex 4.67044 -7.8 2.67543
    endloop
  endfacet
  facet normal 0.993061 -0 0.117599
    outer loop
      vertex 4.67044 -1.8 2.67543
      vertex 4.6926 0 2.4883
      vertex 4.67044 0 2.67543
    endloop
  endfacet
  facet normal 0.993061 0 0.117599
    outer loop
      vertex 4.6926 0 2.4883
      vertex 4.67044 -1.8 2.67543
      vertex 4.6926 -1.8 2.4883
    endloop
  endfacet
  facet normal 0.993061 -0 0.117599
    outer loop
      vertex 4.67044 -7.8 2.67543
      vertex 4.6926 -3.4 2.4883
      vertex 4.67044 -3.4 2.67543
    endloop
  endfacet
  facet normal 0.993061 0 0.117599
    outer loop
      vertex 4.6926 -3.4 2.4883
      vertex 4.67044 -7.8 2.67543
      vertex 4.6926 -7.8 2.4883
    endloop
  endfacet
  facet normal 0.999229 -0 0.0392666
    outer loop
      vertex 4.6926 -1.8 2.4883
      vertex 4.7 0 2.29999
      vertex 4.6926 0 2.4883
    endloop
  endfacet
  facet normal 0.999229 0 0.0392666
    outer loop
      vertex 4.7 0 2.29999
      vertex 4.6926 -1.8 2.4883
      vertex 4.7 -1.8 2.29999
    endloop
  endfacet
  facet normal 0.999229 -0 0.0392666
    outer loop
      vertex 4.6926 -7.8 2.4883
      vertex 4.7 -3.4 2.29999
      vertex 4.6926 -3.4 2.4883
    endloop
  endfacet
  facet normal 0.999229 0 0.0392666
    outer loop
      vertex 4.7 -3.4 2.29999
      vertex 4.6926 -7.8 2.4883
      vertex 4.7 -7.8 2.29999
    endloop
  endfacet
  facet normal 1 0 0
    outer loop
      vertex 4.7 -3.4 2.29999
      vertex 4.7 -7.8 2.29999
      vertex 4.7 -3.4 0
    endloop
  endfacet
  facet normal 1 0 0
    outer loop
      vertex 4.7 -1.8 0
      vertex 4.7 0 2.29999
      vertex 4.7 -1.8 2.29999
    endloop
  endfacet
  facet normal 1 0 0
    outer loop
      vertex 4.7 0 2.29999
      vertex 4.7 -1.8 0
      vertex 4.7 0 -0.199997
    endloop
  endfacet
  facet normal 1 -0 0
    outer loop
      vertex 4.7 -3.4 0
      vertex 4.7 0 -0.199997
      vertex 4.7 -1.8 0
    endloop
  endfacet
  facet normal 1 0 0
    outer loop
      vertex 4.7 -3.4 0
      vertex 4.7 -7.8 -0.199997
      vertex 4.7 0 -0.199997
    endloop
  endfacet
  facet normal 1 0 0
    outer loop
      vertex 4.7 -7.8 -0.199997
      vertex 4.7 -3.4 0
      vertex 4.7 -7.8 2.29999
    endloop
  endfacet
  facet normal -0 0 1
    outer loop
      vertex 4.7 0 -0.199997
      vertex 5.7 -7.8 -0.199997
      vertex 5.7 0 -0.199997
    endloop
  endfacet
  facet normal 0 0 1
    outer loop
      vertex 5.7 -7.8 -0.199997
      vertex 4.7 0 -0.199997
      vertex 4.7 -7.8 -0.199997
    endloop
  endfacet
  facet normal 0 1 0
    outer loop
      vertex 5.7 0 -0.199997
      vertex 5.7 0 -2
      vertex 4.7 0 -0.199997
    endloop
  endfacet
  facet normal 0 1 0
    outer loop
      vertex 3.38168 0 3.71352
      vertex 3.85867 0 4.12497
      vertex 3.99706 0 3.99706
    endloop
  endfacet
  facet normal 0 1 0
    outer loop
      vertex 3.85867 0 4.12497
      vertex 2.96352 0 3.92658
      vertex 2.5 0 4
    endloop
  endfacet
  facet normal 0 1 0
    outer loop
      vertex 3.71352 0 3.38168
      vertex 3.99706 0 3.99706
      vertex 4.12497 0 3.85867
    endloop
  endfacet
  facet normal 0 1 0
    outer loop
      vertex 3.85867 0 4.12497
      vertex 3.38168 0 3.71352
      vertex 2.96352 0 3.92658
    endloop
  endfacet
  facet normal 0 1 0
    outer loop
      vertex 3.71352 0 3.38168
      vertex 4.12497 0 3.85867
      vertex 4.24164 0 3.71068
    endloop
  endfacet
  facet normal 0 1 0
    outer loop
      vertex 3.71352 0 3.38168
      vertex 4.24164 0 3.71068
      vertex 4.34633 0 3.55399
    endloop
  endfacet
  facet normal 0 1 0
    outer loop
      vertex 3.92658 0 2.96352
      vertex 4.34633 0 3.55399
      vertex 4.43842 0 3.38957
    endloop
  endfacet
  facet normal 0 1 0
    outer loop
      vertex 3.99706 0 3.99706
      vertex 3.71352 0 3.38168
      vertex 3.38168 0 3.71352
    endloop
  endfacet
  facet normal 0 1 0
    outer loop
      vertex 3.92658 0 2.96352
      vertex 4.43842 0 3.38957
      vertex 4.5173 0 3.21843
    endloop
  endfacet
  facet normal 0 1 0
    outer loop
      vertex 3.92658 0 2.96352
      vertex 4.5173 0 3.21843
      vertex 4.58253 0 3.04163
    endloop
  endfacet
  facet normal 0 1 0
    outer loop
      vertex 4.34633 0 3.55399
      vertex 3.92658 0 2.96352
      vertex 3.71352 0 3.38168
    endloop
  endfacet
  facet normal 0 1 0
    outer loop
      vertex 4.63368 0 2.86026
      vertex 3.92658 0 2.96352
      vertex 4.58253 0 3.04163
    endloop
  endfacet
  facet normal 0 1 0
    outer loop
      vertex 4 0 2.5
      vertex 4.63368 0 2.86026
      vertex 4.67044 0 2.67543
    endloop
  endfacet
  facet normal 0 1 0
    outer loop
      vertex 4.63368 0 2.86026
      vertex 4 0 2.5
      vertex 3.92658 0 2.96352
    endloop
  endfacet
  facet normal 0 1 0
    outer loop
      vertex 4.6926 0 2.4883
      vertex 4 0 2.5
      vertex 4.67044 0 2.67543
    endloop
  endfacet
  facet normal 0 1 0
    outer loop
      vertex 4.7 0 2.29999
      vertex 4 0 2.5
      vertex 4.6926 0 2.4883
    endloop
  endfacet
  facet normal 0 1 0
    outer loop
      vertex 4.7 0 2.29999
      vertex 3.92658 0 2.03647
      vertex 4 0 2.5
    endloop
  endfacet
  facet normal 0 1 0
    outer loop
      vertex 4.7 0 2.29999
      vertex 3.71352 0 1.61832
      vertex 3.92658 0 2.03647
    endloop
  endfacet
  facet normal 0 1 -0
    outer loop
      vertex 4.7 0 -0.199997
      vertex 3.71352 0 1.61832
      vertex 4.7 0 2.29999
    endloop
  endfacet
  facet normal 0 1 0
    outer loop
      vertex 2.96352 0 1.07341
      vertex 4.7 0 -0.199997
      vertex 2.5 0 1
    endloop
  endfacet
  facet normal 0 1 0
    outer loop
      vertex 3.38168 0 1.28647
      vertex 4.7 0 -0.199997
      vertex 2.96352 0 1.07341
    endloop
  endfacet
  facet normal 0 1 0
    outer loop
      vertex 3.71352 0 1.61832
      vertex 4.7 0 -0.199997
      vertex 3.38168 0 1.28647
    endloop
  endfacet
  facet normal 0 1 0
    outer loop
      vertex 2.5 0 4
      vertex 2.29999 0 4.7
      vertex 2.4883 0 4.6926
    endloop
  endfacet
  facet normal 0 1 -0
    outer loop
      vertex 2.5 0 4
      vertex 2.4883 0 4.6926
      vertex 2.67543 0 4.67044
    endloop
  endfacet
  facet normal 0 1 0
    outer loop
      vertex 2.5 0 4
      vertex 2.67543 0 4.67044
      vertex 2.86026 0 4.63368
    endloop
  endfacet
  facet normal 0 1 0
    outer loop
      vertex 2.5 0 4
      vertex 2.86026 0 4.63368
      vertex 3.04163 0 4.58253
    endloop
  endfacet
  facet normal 0 1 0
    outer loop
      vertex 2.5 0 4
      vertex 3.04163 0 4.58253
      vertex 3.21843 0 4.5173
    endloop
  endfacet
  facet normal 0 1 0
    outer loop
      vertex 2.5 0 4
      vertex 3.21843 0 4.5173
      vertex 3.38957 0 4.43842
    endloop
  endfacet
  facet normal 0 1 0
    outer loop
      vertex 2.5 0 4
      vertex 3.38957 0 4.43842
      vertex 3.55399 0 4.34633
    endloop
  endfacet
  facet normal 0 1 0
    outer loop
      vertex 2.5 0 4
      vertex 3.55399 0 4.34633
      vertex 3.71068 0 4.24164
    endloop
  endfacet
  facet normal 0 1 0
    outer loop
      vertex 2.5 0 4
      vertex 3.71068 0 4.24164
      vertex 3.85867 0 4.12497
    endloop
  endfacet
  facet normal 0 1 0
    outer loop
      vertex 2.29999 0 4.7
      vertex 2.5 0 4
      vertex 2.03647 0 3.92658
    endloop
  endfacet
  facet normal 0 1 0
    outer loop
      vertex 2.29999 0 4.7
      vertex 2.03647 0 3.92658
      vertex 1.61832 0 3.71352
    endloop
  endfacet
  facet normal 0 1 0
    outer loop
      vertex 2.29999 0 4.7
      vertex 1.61832 0 3.71352
      vertex 0 0 4.7
    endloop
  endfacet
  facet normal 0 1 -0
    outer loop
      vertex 1.28647 0 3.38168
      vertex 0 0 4.7
      vertex 1.61832 0 3.71352
    endloop
  endfacet
  facet normal 0 1 -0
    outer loop
      vertex 1.07341 0 2.96352
      vertex 0 0 4.7
      vertex 1.28647 0 3.38168
    endloop
  endfacet
  facet normal 0 1 -0
    outer loop
      vertex 1 0 2.5
      vertex 0 0 4.7
      vertex 1.07341 0 2.96352
    endloop
  endfacet
  facet normal 0 1 0
    outer loop
      vertex 1.07341 0 2.03647
      vertex 0 0 4.7
      vertex 1 0 2.5
    endloop
  endfacet
  facet normal 0 1 0
    outer loop
      vertex 0 0 -2
      vertex 2.5 0 1
      vertex 4.7 0 -0.199997
    endloop
  endfacet
  facet normal 0 1 0
    outer loop
      vertex 0 0 -2
      vertex 4.7 0 -0.199997
      vertex 5.7 0 -2
    endloop
  endfacet
  facet normal 0 1 0
    outer loop
      vertex 2.5 0 1
      vertex 0 0 -2
      vertex 2.03647 0 1.07341
    endloop
  endfacet
  facet normal 0 1 0
    outer loop
      vertex 1.07341 0 2.03647
      vertex 0 0 -2
      vertex 0 0 4.7
    endloop
  endfacet
  facet normal 0 1 0
    outer loop
      vertex 1.28647 0 1.61832
      vertex 0 0 -2
      vertex 1.07341 0 2.03647
    endloop
  endfacet
  facet normal 0 1 0
    outer loop
      vertex 1.61832 0 1.28647
      vertex 0 0 -2
      vertex 1.28647 0 1.61832
    endloop
  endfacet
  facet normal 0 1 0
    outer loop
      vertex 2.03647 0 1.07341
      vertex 0 0 -2
      vertex 1.61832 0 1.28647
    endloop
  endfacet
  facet normal 0 -1 0
    outer loop
      vertex 1.61832 -7.8 3.71352
      vertex 2.29999 -7.8 4.7
      vertex 0 -7.8 4.7
    endloop
  endfacet
  facet normal -0 -1 0
    outer loop
      vertex 2.03647 -7.8 3.92658
      vertex 2.29999 -7.8 4.7
      vertex 1.61832 -7.8 3.71352
    endloop
  endfacet
  facet normal 0 -1 0
    outer loop
      vertex 2.29999 -7.8 4.7
      vertex 2.5 -7.8 4
      vertex 2.4883 -7.8 4.6926
    endloop
  endfacet
  facet normal 0 -1 0
    outer loop
      vertex 2.4883 -7.8 4.6926
      vertex 2.5 -7.8 4
      vertex 2.67543 -7.8 4.67044
    endloop
  endfacet
  facet normal 0 -1 -0
    outer loop
      vertex 2.67543 -7.8 4.67044
      vertex 2.5 -7.8 4
      vertex 2.86026 -7.8 4.63368
    endloop
  endfacet
  facet normal 0 -1 0
    outer loop
      vertex 2.96352 -7.8 3.92658
      vertex 2.86026 -7.8 4.63368
      vertex 2.5 -7.8 4
    endloop
  endfacet
  facet normal 0 -1 0
    outer loop
      vertex 2.86026 -7.8 4.63368
      vertex 2.96352 -7.8 3.92658
      vertex 3.04163 -7.8 4.58253
    endloop
  endfacet
  facet normal 0 -1 -0
    outer loop
      vertex 3.21843 -7.8 4.5173
      vertex 2.96352 -7.8 3.92658
      vertex 3.38957 -7.8 4.43842
    endloop
  endfacet
  facet normal 0 -1 -0
    outer loop
      vertex 3.38957 -7.8 4.43842
      vertex 2.96352 -7.8 3.92658
      vertex 3.55399 -7.8 4.34633
    endloop
  endfacet
  facet normal 0 -1 0
    outer loop
      vertex 3.38168 -7.8 3.71352
      vertex 3.55399 -7.8 4.34633
      vertex 2.96352 -7.8 3.92658
    endloop
  endfacet
  facet normal 0 -1 -0
    outer loop
      vertex 3.04163 -7.8 4.58253
      vertex 2.96352 -7.8 3.92658
      vertex 3.21843 -7.8 4.5173
    endloop
  endfacet
  facet normal -0 -1 0
    outer loop
      vertex 2.5 -7.8 4
      vertex 2.29999 -7.8 4.7
      vertex 2.03647 -7.8 3.92658
    endloop
  endfacet
  facet normal 0 -1 0
    outer loop
      vertex 0 -7.8 4.7
      vertex 1.28647 -7.8 3.38168
      vertex 1.61832 -7.8 3.71352
    endloop
  endfacet
  facet normal 0 -1 0
    outer loop
      vertex 0 -7.8 4.7
      vertex 1.07341 -7.8 2.96352
      vertex 1.28647 -7.8 3.38168
    endloop
  endfacet
  facet normal 0 -1 0
    outer loop
      vertex 0 -7.8 4.7
      vertex 1 -7.8 2.5
      vertex 1.07341 -7.8 2.96352
    endloop
  endfacet
  facet normal 0 -1 0
    outer loop
      vertex 0 -7.8 4.7
      vertex 1.07341 -7.8 2.03647
      vertex 1 -7.8 2.5
    endloop
  endfacet
  facet normal 0 -1 0
    outer loop
      vertex 0 -7.8 -2
      vertex 2.5 -7.8 1
      vertex 2.03647 -7.8 1.07341
    endloop
  endfacet
  facet normal 0 -1 0
    outer loop
      vertex 0 -7.8 -2
      vertex 1.07341 -7.8 2.03647
      vertex 0 -7.8 4.7
    endloop
  endfacet
  facet normal 0 -1 0
    outer loop
      vertex 0 -7.8 -2
      vertex 1.28647 -7.8 1.61832
      vertex 1.07341 -7.8 2.03647
    endloop
  endfacet
  facet normal 0 -1 0
    outer loop
      vertex 0 -7.8 -2
      vertex 1.61832 -7.8 1.28647
      vertex 1.28647 -7.8 1.61832
    endloop
  endfacet
  facet normal 0 -1 0
    outer loop
      vertex 0 -7.8 -2
      vertex 2.03647 -7.8 1.07341
      vertex 1.61832 -7.8 1.28647
    endloop
  endfacet
  facet normal 0 -1 -0
    outer loop
      vertex 2.5 -7.8 1
      vertex 0 -7.8 -2
      vertex 4.7 -7.8 -0.199997
    endloop
  endfacet
  facet normal 0 -1 0
    outer loop
      vertex 5.7 -7.8 -2
      vertex 4.7 -7.8 -0.199997
      vertex 0 -7.8 -2
    endloop
  endfacet
  facet normal 0 -1 0
    outer loop
      vertex 4.7 -7.8 -0.199997
      vertex 5.7 -7.8 -2
      vertex 5.7 -7.8 -0.199997
    endloop
  endfacet
  facet normal 0 -1 -0
    outer loop
      vertex 3.55399 -7.8 4.34633
      vertex 3.38168 -7.8 3.71352
      vertex 3.71068 -7.8 4.24164
    endloop
  endfacet
  facet normal 0 -1 -0
    outer loop
      vertex 3.71068 -7.8 4.24164
      vertex 3.38168 -7.8 3.71352
      vertex 3.85867 -7.8 4.12497
    endloop
  endfacet
  facet normal 0 -1 -0
    outer loop
      vertex 3.85867 -7.8 4.12497
      vertex 3.38168 -7.8 3.71352
      vertex 3.99706 -7.8 3.99706
    endloop
  endfacet
  facet normal 0 -1 0
    outer loop
      vertex 3.71352 -7.8 3.38168
      vertex 3.99706 -7.8 3.99706
      vertex 3.38168 -7.8 3.71352
    endloop
  endfacet
  facet normal 0 -1 -0
    outer loop
      vertex 3.99706 -7.8 3.99706
      vertex 3.71352 -7.8 3.38168
      vertex 4.12497 -7.8 3.85867
    endloop
  endfacet
  facet normal 0 -1 -0
    outer loop
      vertex 4.12497 -7.8 3.85867
      vertex 3.71352 -7.8 3.38168
      vertex 4.24164 -7.8 3.71068
    endloop
  endfacet
  facet normal 0 -1 -0
    outer loop
      vertex 4.24164 -7.8 3.71068
      vertex 3.71352 -7.8 3.38168
      vertex 4.34633 -7.8 3.55399
    endloop
  endfacet
  facet normal 0 -1 0
    outer loop
      vertex 3.92658 -7.8 2.96352
      vertex 4.34633 -7.8 3.55399
      vertex 3.71352 -7.8 3.38168
    endloop
  endfacet
  facet normal 0 -1 -0
    outer loop
      vertex 4.34633 -7.8 3.55399
      vertex 3.92658 -7.8 2.96352
      vertex 4.43842 -7.8 3.38957
    endloop
  endfacet
  facet normal 0 -1 -0
    outer loop
      vertex 4.43842 -7.8 3.38957
      vertex 3.92658 -7.8 2.96352
      vertex 4.5173 -7.8 3.21843
    endloop
  endfacet
  facet normal 0 -1 -0
    outer loop
      vertex 4.5173 -7.8 3.21843
      vertex 3.92658 -7.8 2.96352
      vertex 4.58253 -7.8 3.04163
    endloop
  endfacet
  facet normal 0 -1 0
    outer loop
      vertex 3.92658 -7.8 2.96352
      vertex 4.63368 -7.8 2.86026
      vertex 4.58253 -7.8 3.04163
    endloop
  endfacet
  facet normal 0 -1 0
    outer loop
      vertex 4 -7.8 2.5
      vertex 4.63368 -7.8 2.86026
      vertex 3.92658 -7.8 2.96352
    endloop
  endfacet
  facet normal 0 -1 -0
    outer loop
      vertex 4.63368 -7.8 2.86026
      vertex 4 -7.8 2.5
      vertex 4.67044 -7.8 2.67543
    endloop
  endfacet
  facet normal 0 -1 0
    outer loop
      vertex 4 -7.8 2.5
      vertex 4.6926 -7.8 2.4883
      vertex 4.67044 -7.8 2.67543
    endloop
  endfacet
  facet normal 0 -1 0
    outer loop
      vertex 4 -7.8 2.5
      vertex 4.7 -7.8 2.29999
      vertex 4.6926 -7.8 2.4883
    endloop
  endfacet
  facet normal 0 -1 0
    outer loop
      vertex 3.92658 -7.8 2.03647
      vertex 4.7 -7.8 2.29999
      vertex 4 -7.8 2.5
    endloop
  endfacet
  facet normal 0 -1 0
    outer loop
      vertex 3.71352 -7.8 1.61832
      vertex 4.7 -7.8 2.29999
      vertex 3.92658 -7.8 2.03647
    endloop
  endfacet
  facet normal 0 -1 0
    outer loop
      vertex 4.7 -7.8 -0.199997
      vertex 3.71352 -7.8 1.61832
      vertex 3.38168 -7.8 1.28647
    endloop
  endfacet
  facet normal 0 -1 0
    outer loop
      vertex 3.71352 -7.8 1.61832
      vertex 4.7 -7.8 -0.199997
      vertex 4.7 -7.8 2.29999
    endloop
  endfacet
  facet normal 0 -1 0
    outer loop
      vertex 2.96352 -7.8 1.07341
      vertex 4.7 -7.8 -0.199997
      vertex 3.38168 -7.8 1.28647
    endloop
  endfacet
  facet normal 0 -1 0
    outer loop
      vertex 4.7 -7.8 -0.199997
      vertex 2.96352 -7.8 1.07341
      vertex 2.5 -7.8 1
    endloop
  endfacet
  facet normal 0 0 -1
    outer loop
      vertex 0 -7.8 -2
      vertex 5.7 0 -2
      vertex 5.7 -7.8 -2
    endloop
  endfacet
  facet normal -0 0 -1
    outer loop
      vertex 5.7 0 -2
      vertex 0 -7.8 -2
      vertex 0 0 -2
    endloop
  endfacet
  facet normal 1 -0 0
    outer loop
      vertex 5.7 -7.8 -0.199997
      vertex 5.7 0 -2
      vertex 5.7 0 -0.199997
    endloop
  endfacet
  facet normal 1 0 0
    outer loop
      vertex 5.7 0 -2
      vertex 5.7 -7.8 -0.199997
      vertex 5.7 -7.8 -2
    endloop
  endfacet
endsolid OpenSCAD_Model
