solid OpenSCAD_Model
  facet normal 0 0 -1
    outer loop
      vertex 2.17 0.899994 0
      vertex 3.7 0.839996 0
      vertex 3.7 0 0
    endloop
  endfacet
  facet normal 0 0 -1
    outer loop
      vertex 2.17 4 0
      vertex 3.29999 2.38499 0
      vertex 2.17 0.899994 0
    endloop
  endfacet
  facet normal 0 0 -1
    outer loop
      vertex 3.7 0.839996 0
      vertex 2.17 0.899994 0
      vertex 3.14 1.62999 0
    endloop
  endfacet
  facet normal 0 0 -1
    outer loop
      vertex 3.7 0 0
      vertex -2.17 0.899994 0
      vertex 2.17 0.899994 0
    endloop
  endfacet
  facet normal 0 0 -1
    outer loop
      vertex -3.29999 2.38499 0
      vertex -2.17 4 0
      vertex -2.17 0.899994 0
    endloop
  endfacet
  facet normal 0 0 -1
    outer loop
      vertex -3.29999 2.38499 0
      vertex -2.17 0.899994 0
      vertex -3.14 1.62999 0
    endloop
  endfacet
  facet normal 0 0 -1
    outer loop
      vertex -3.7 0 0
      vertex -2.17 0.899994 0
      vertex 3.7 0 0
    endloop
  endfacet
  facet normal 0 0 -1
    outer loop
      vertex -3.7 0.839996 0
      vertex -2.17 0.899994 0
      vertex -3.7 0 0
    endloop
  endfacet
  facet normal -0 0 -1
    outer loop
      vertex -2.17 0.899994 0
      vertex -3.7 0.839996 0
      vertex -3.14 1.62999 0
    endloop
  endfacet
  facet normal 0 0 -1
    outer loop
      vertex 2.17 0.899994 0
      vertex 3.29999 2.38499 0
      vertex 3.14 1.62999 0
    endloop
  endfacet
  facet normal 0 0 -1
    outer loop
      vertex 3.29999 2.38499 0
      vertex 2.17 4 0
      vertex 2.95 4 0
    endloop
  endfacet
  facet normal -0 0 -1
    outer loop
      vertex -2.17 4 0
      vertex -3.29999 2.38499 0
      vertex -2.95 4 0
    endloop
  endfacet
  facet normal 0 0 1
    outer loop
      vertex -3.29999 2.38499 230
      vertex -2.17 4 230
      vertex -2.95 4 230
    endloop
  endfacet
  facet normal -0 0 1
    outer loop
      vertex 2.17 4 230
      vertex 3.29999 2.38499 230
      vertex 2.95 4 230
    endloop
  endfacet
  facet normal -0 0 1
    outer loop
      vertex 2.17 0.899994 230
      vertex 3.7 0.839996 230
      vertex 3.14 1.62999 230
    endloop
  endfacet
  facet normal 0 0 1
    outer loop
      vertex 2.17 0.899994 230
      vertex 3.29999 2.38499 230
      vertex 2.17 4 230
    endloop
  endfacet
  facet normal 0 0 1
    outer loop
      vertex 3.29999 2.38499 230
      vertex 2.17 0.899994 230
      vertex 3.14 1.62999 230
    endloop
  endfacet
  facet normal 0 0 1
    outer loop
      vertex 3.7 0.839996 230
      vertex 2.17 0.899994 230
      vertex 3.7 0 230
    endloop
  endfacet
  facet normal -0 0 1
    outer loop
      vertex -2.17 0.899994 230
      vertex 3.7 0 230
      vertex 2.17 0.899994 230
    endloop
  endfacet
  facet normal 0 0 1
    outer loop
      vertex -2.17 4 230
      vertex -3.29999 2.38499 230
      vertex -2.17 0.899994 230
    endloop
  endfacet
  facet normal 0 0 1
    outer loop
      vertex -3.7 0.839996 230
      vertex -2.17 0.899994 230
      vertex -3.14 1.62999 230
    endloop
  endfacet
  facet normal 0 0 1
    outer loop
      vertex -3.7 0 230
      vertex -2.17 0.899994 230
      vertex -3.7 0.839996 230
    endloop
  endfacet
  facet normal 0 0 1
    outer loop
      vertex -2.17 0.899994 230
      vertex -3.7 0 230
      vertex 3.7 0 230
    endloop
  endfacet
  facet normal 0 0 1
    outer loop
      vertex -2.17 0.899994 230
      vertex -3.29999 2.38499 230
      vertex -3.14 1.62999 230
    endloop
  endfacet
  facet normal 0.815819 0.578307 0
    outer loop
      vertex 3.7 0.839996 230
      vertex 3.14 1.62999 0
      vertex 3.14 1.62999 230
    endloop
  endfacet
  facet normal 0.815819 0.578307 0
    outer loop
      vertex 3.14 1.62999 0
      vertex 3.7 0.839996 230
      vertex 3.7 0.839996 0
    endloop
  endfacet
  facet normal 0.978277 -0.207304 0
    outer loop
      vertex 3.14 1.62999 230
      vertex 3.29999 2.38499 0
      vertex 3.29999 2.38499 230
    endloop
  endfacet
  facet normal 0.978277 -0.207304 0
    outer loop
      vertex 3.29999 2.38499 0
      vertex 3.14 1.62999 230
      vertex 3.14 1.62999 0
    endloop
  endfacet
  facet normal 0.977314 0.211794 0
    outer loop
      vertex 3.29999 2.38499 230
      vertex 2.95 4 0
      vertex 2.95 4 230
    endloop
  endfacet
  facet normal 0.977314 0.211794 0
    outer loop
      vertex 2.95 4 0
      vertex 3.29999 2.38499 230
      vertex 3.29999 2.38499 0
    endloop
  endfacet
  facet normal 0 1 -0
    outer loop
      vertex 2.95 4 0
      vertex 2.17 4 230
      vertex 2.95 4 230
    endloop
  endfacet
  facet normal 0 1 0
    outer loop
      vertex 2.17 4 230
      vertex 2.95 4 0
      vertex 2.17 4 0
    endloop
  endfacet
  facet normal -1 0 0
    outer loop
      vertex 2.17 0.899994 0
      vertex 2.17 4 230
      vertex 2.17 4 0
    endloop
  endfacet
  facet normal -1 -0 0
    outer loop
      vertex 2.17 4 230
      vertex 2.17 0.899994 0
      vertex 2.17 0.899994 230
    endloop
  endfacet
  facet normal 0 1 -0
    outer loop
      vertex 2.17 0.899994 0
      vertex -2.17 0.899994 230
      vertex 2.17 0.899994 230
    endloop
  endfacet
  facet normal 0 1 0
    outer loop
      vertex -2.17 0.899994 230
      vertex 2.17 0.899994 0
      vertex -2.17 0.899994 0
    endloop
  endfacet
  facet normal 0 -1 0
    outer loop
      vertex -3.7 0 0
      vertex 3.7 0 230
      vertex -3.7 0 230
    endloop
  endfacet
  facet normal 0 -1 -0
    outer loop
      vertex 3.7 0 230
      vertex -3.7 0 0
      vertex 3.7 0 0
    endloop
  endfacet
  facet normal 1 -0 0
    outer loop
      vertex 3.7 0 230
      vertex 3.7 0.839996 0
      vertex 3.7 0.839996 230
    endloop
  endfacet
  facet normal 1 0 0
    outer loop
      vertex 3.7 0.839996 0
      vertex 3.7 0 230
      vertex 3.7 0 0
    endloop
  endfacet
  facet normal -0.815819 0.578307 0
    outer loop
      vertex -3.7 0.839996 0
      vertex -3.14 1.62999 230
      vertex -3.14 1.62999 0
    endloop
  endfacet
  facet normal -0.815819 0.578307 0
    outer loop
      vertex -3.14 1.62999 230
      vertex -3.7 0.839996 0
      vertex -3.7 0.839996 230
    endloop
  endfacet
  facet normal -0.978277 -0.207304 0
    outer loop
      vertex -3.14 1.62999 0
      vertex -3.29999 2.38499 230
      vertex -3.29999 2.38499 0
    endloop
  endfacet
  facet normal -0.978277 -0.207304 0
    outer loop
      vertex -3.29999 2.38499 230
      vertex -3.14 1.62999 0
      vertex -3.14 1.62999 230
    endloop
  endfacet
  facet normal -0.977314 0.211794 0
    outer loop
      vertex -3.29999 2.38499 0
      vertex -2.95 4 230
      vertex -2.95 4 0
    endloop
  endfacet
  facet normal -0.977314 0.211794 0
    outer loop
      vertex -2.95 4 230
      vertex -3.29999 2.38499 0
      vertex -3.29999 2.38499 230
    endloop
  endfacet
  facet normal 0 1 -0
    outer loop
      vertex -2.17 4 0
      vertex -2.95 4 230
      vertex -2.17 4 230
    endloop
  endfacet
  facet normal 0 1 0
    outer loop
      vertex -2.95 4 230
      vertex -2.17 4 0
      vertex -2.95 4 0
    endloop
  endfacet
  facet normal 1 -0 0
    outer loop
      vertex -2.17 0.899994 230
      vertex -2.17 4 0
      vertex -2.17 4 230
    endloop
  endfacet
  facet normal 1 0 0
    outer loop
      vertex -2.17 4 0
      vertex -2.17 0.899994 230
      vertex -2.17 0.899994 0
    endloop
  endfacet
  facet normal -1 0 0
    outer loop
      vertex -3.7 0 0
      vertex -3.7 0.839996 230
      vertex -3.7 0.839996 0
    endloop
  endfacet
  facet normal -1 -0 0
    outer loop
      vertex -3.7 0.839996 230
      vertex -3.7 0 0
      vertex -3.7 0 230
    endloop
  endfacet
endsolid OpenSCAD_Model
