solid OpenSCAD_Model
  facet normal 0.0784577 0.996917 -0
    outer loop
      vertex 0 -3.5 0
      vertex -0.54752 -3.45691 5.35
      vertex 0 -3.5 5.35
    endloop
  endfacet
  facet normal 0.0784577 0.996917 0
    outer loop
      vertex -0.54752 -3.45691 5.35
      vertex 0 -3.5 0
      vertex -0.54752 -3.45691 0
    endloop
  endfacet
  facet normal 0.972371 -0.233443 0
    outer loop
      vertex -3.45691 0.54752 5.35
      vertex -3.3287 1.08156 0
      vertex -3.3287 1.08156 5.35
    endloop
  endfacet
  facet normal 0.972371 -0.233443 0
    outer loop
      vertex -3.3287 1.08156 0
      vertex -3.45691 0.54752 5.35
      vertex -3.45691 0.54752 0
    endloop
  endfacet
  facet normal 0.996917 -0.0784577 0
    outer loop
      vertex -3.5 0 5.35
      vertex -3.45691 0.54752 0
      vertex -3.45691 0.54752 5.35
    endloop
  endfacet
  facet normal 0.996917 -0.0784577 0
    outer loop
      vertex -3.45691 0.54752 0
      vertex -3.5 0 5.35
      vertex -3.5 0 0
    endloop
  endfacet
  facet normal 0.923877 -0.382689 0
    outer loop
      vertex -3.3287 1.08156 5.35
      vertex -3.11852 1.58897 0
      vertex -3.11852 1.58897 5.35
    endloop
  endfacet
  facet normal 0.923877 -0.382689 0
    outer loop
      vertex -3.11852 1.58897 0
      vertex -3.3287 1.08156 5.35
      vertex -3.3287 1.08156 0
    endloop
  endfacet
  facet normal 0.852642 -0.522495 0
    outer loop
      vertex -3.11852 1.58897 5.35
      vertex -2.83156 2.05725 0
      vertex -2.83156 2.05725 5.35
    endloop
  endfacet
  facet normal 0.852642 -0.522495 0
    outer loop
      vertex -2.83156 2.05725 0
      vertex -3.11852 1.58897 5.35
      vertex -3.11852 1.58897 0
    endloop
  endfacet
  facet normal -0.522495 0.852642 0
    outer loop
      vertex 2.05725 -2.83156 0
      vertex 1.58897 -3.11852 5.35
      vertex 2.05725 -2.83156 5.35
    endloop
  endfacet
  facet normal -0.522495 0.852642 0
    outer loop
      vertex 1.58897 -3.11852 5.35
      vertex 2.05725 -2.83156 0
      vertex 1.58897 -3.11852 0
    endloop
  endfacet
  facet normal 0.923877 0.382689 0
    outer loop
      vertex -3.11852 -1.58897 5.35
      vertex -3.3287 -1.08156 0
      vertex -3.3287 -1.08156 5.35
    endloop
  endfacet
  facet normal 0.923877 0.382689 0
    outer loop
      vertex -3.3287 -1.08156 0
      vertex -3.11852 -1.58897 5.35
      vertex -3.11852 -1.58897 0
    endloop
  endfacet
  facet normal 0.760398 -0.649457 0
    outer loop
      vertex -2.83156 2.05725 5.35
      vertex -2.47487 2.47487 0
      vertex -2.47487 2.47487 5.35
    endloop
  endfacet
  facet normal 0.760398 -0.649457 0
    outer loop
      vertex -2.47487 2.47487 0
      vertex -2.83156 2.05725 5.35
      vertex -2.83156 2.05725 0
    endloop
  endfacet
  facet normal 0.233443 -0.972371 0
    outer loop
      vertex -1.08156 3.3287 0
      vertex -0.54752 3.45691 5.35
      vertex -1.08156 3.3287 5.35
    endloop
  endfacet
  facet normal 0.233443 -0.972371 0
    outer loop
      vertex -0.54752 3.45691 5.35
      vertex -1.08156 3.3287 0
      vertex -0.54752 3.45691 0
    endloop
  endfacet
  facet normal 0.0784577 -0.996917 0
    outer loop
      vertex -0.54752 3.45691 0
      vertex 0 3.5 5.35
      vertex -0.54752 3.45691 5.35
    endloop
  endfacet
  facet normal 0.0784577 -0.996917 0
    outer loop
      vertex 0 3.5 5.35
      vertex -0.54752 3.45691 0
      vertex 0 3.5 0
    endloop
  endfacet
  facet normal -0.972371 0.233443 0
    outer loop
      vertex 3.3287 -1.08156 0
      vertex 3.45691 -0.54752 5.35
      vertex 3.45691 -0.54752 0
    endloop
  endfacet
  facet normal -0.972371 0.233443 0
    outer loop
      vertex 3.45691 -0.54752 5.35
      vertex 3.3287 -1.08156 0
      vertex 3.3287 -1.08156 5.35
    endloop
  endfacet
  facet normal 0.852642 0.522495 0
    outer loop
      vertex -2.83156 -2.05725 5.35
      vertex -3.11852 -1.58897 0
      vertex -3.11852 -1.58897 5.35
    endloop
  endfacet
  facet normal 0.852642 0.522495 0
    outer loop
      vertex -3.11852 -1.58897 0
      vertex -2.83156 -2.05725 5.35
      vertex -2.83156 -2.05725 0
    endloop
  endfacet
  facet normal -0.923877 0.382689 0
    outer loop
      vertex 3.11852 -1.58897 0
      vertex 3.3287 -1.08156 5.35
      vertex 3.3287 -1.08156 0
    endloop
  endfacet
  facet normal -0.923877 0.382689 0
    outer loop
      vertex 3.3287 -1.08156 5.35
      vertex 3.11852 -1.58897 0
      vertex 3.11852 -1.58897 5.35
    endloop
  endfacet
  facet normal 0.649457 -0.760398 0
    outer loop
      vertex -2.47487 2.47487 0
      vertex -2.05725 2.83156 5.35
      vertex -2.47487 2.47487 5.35
    endloop
  endfacet
  facet normal 0.649457 -0.760398 0
    outer loop
      vertex -2.05725 2.83156 5.35
      vertex -2.47487 2.47487 0
      vertex -2.05725 2.83156 0
    endloop
  endfacet
  facet normal 0.522495 -0.852642 0
    outer loop
      vertex -2.05725 2.83156 0
      vertex -1.58897 3.11852 5.35
      vertex -2.05725 2.83156 5.35
    endloop
  endfacet
  facet normal 0.522495 -0.852642 0
    outer loop
      vertex -1.58897 3.11852 5.35
      vertex -2.05725 2.83156 0
      vertex -1.58897 3.11852 0
    endloop
  endfacet
  facet normal -0.760398 0.649457 0
    outer loop
      vertex 2.47487 -2.47487 0
      vertex 2.83156 -2.05725 5.35
      vertex 2.83156 -2.05725 0
    endloop
  endfacet
  facet normal -0.760398 0.649457 0
    outer loop
      vertex 2.83156 -2.05725 5.35
      vertex 2.47487 -2.47487 0
      vertex 2.47487 -2.47487 5.35
    endloop
  endfacet
  facet normal 0.382689 -0.923877 0
    outer loop
      vertex -1.58897 3.11852 0
      vertex -1.08156 3.3287 5.35
      vertex -1.58897 3.11852 5.35
    endloop
  endfacet
  facet normal 0.382689 -0.923877 0
    outer loop
      vertex -1.08156 3.3287 5.35
      vertex -1.58897 3.11852 0
      vertex -1.08156 3.3287 0
    endloop
  endfacet
  facet normal -0.0784577 0.996917 0
    outer loop
      vertex 0.54752 -3.45691 0
      vertex 0 -3.5 5.35
      vertex 0.54752 -3.45691 5.35
    endloop
  endfacet
  facet normal -0.0784577 0.996917 0
    outer loop
      vertex 0 -3.5 5.35
      vertex 0.54752 -3.45691 0
      vertex 0 -3.5 0
    endloop
  endfacet
  facet normal 0.649457 0.760398 -0
    outer loop
      vertex -2.05725 -2.83156 0
      vertex -2.47487 -2.47487 5.35
      vertex -2.05725 -2.83156 5.35
    endloop
  endfacet
  facet normal 0.649457 0.760398 0
    outer loop
      vertex -2.47487 -2.47487 5.35
      vertex -2.05725 -2.83156 0
      vertex -2.47487 -2.47487 0
    endloop
  endfacet
  facet normal 0.996917 0.0784577 0
    outer loop
      vertex -3.45691 -0.54752 5.35
      vertex -3.5 0 0
      vertex -3.5 0 5.35
    endloop
  endfacet
  facet normal 0.996917 0.0784577 0
    outer loop
      vertex -3.5 0 0
      vertex -3.45691 -0.54752 5.35
      vertex -3.45691 -0.54752 0
    endloop
  endfacet
  facet normal -0.972371 -0.233443 0
    outer loop
      vertex 3.45691 0.54752 0
      vertex 3.3287 1.08156 5.35
      vertex 3.3287 1.08156 0
    endloop
  endfacet
  facet normal -0.972371 -0.233443 0
    outer loop
      vertex 3.3287 1.08156 5.35
      vertex 3.45691 0.54752 0
      vertex 3.45691 0.54752 5.35
    endloop
  endfacet
  facet normal -0.649457 -0.760398 0
    outer loop
      vertex 2.05725 2.83156 0
      vertex 2.47487 2.47487 5.35
      vertex 2.05725 2.83156 5.35
    endloop
  endfacet
  facet normal -0.649457 -0.760398 -0
    outer loop
      vertex 2.47487 2.47487 5.35
      vertex 2.05725 2.83156 0
      vertex 2.47487 2.47487 0
    endloop
  endfacet
  facet normal 0.522495 0.852642 -0
    outer loop
      vertex -1.58897 -3.11852 0
      vertex -2.05725 -2.83156 5.35
      vertex -1.58897 -3.11852 5.35
    endloop
  endfacet
  facet normal 0.522495 0.852642 0
    outer loop
      vertex -2.05725 -2.83156 5.35
      vertex -1.58897 -3.11852 0
      vertex -2.05725 -2.83156 0
    endloop
  endfacet
  facet normal -0.522495 -0.852642 0
    outer loop
      vertex 1.58897 3.11852 0
      vertex 2.05725 2.83156 5.35
      vertex 1.58897 3.11852 5.35
    endloop
  endfacet
  facet normal -0.522495 -0.852642 -0
    outer loop
      vertex 2.05725 2.83156 5.35
      vertex 1.58897 3.11852 0
      vertex 2.05725 2.83156 0
    endloop
  endfacet
  facet normal -0.923877 -0.382689 0
    outer loop
      vertex 3.3287 1.08156 0
      vertex 3.11852 1.58897 5.35
      vertex 3.11852 1.58897 0
    endloop
  endfacet
  facet normal -0.923877 -0.382689 0
    outer loop
      vertex 3.11852 1.58897 5.35
      vertex 3.3287 1.08156 0
      vertex 3.3287 1.08156 5.35
    endloop
  endfacet
  facet normal -0.233443 -0.972371 0
    outer loop
      vertex 0.54752 3.45691 0
      vertex 1.08156 3.3287 5.35
      vertex 0.54752 3.45691 5.35
    endloop
  endfacet
  facet normal -0.233443 -0.972371 -0
    outer loop
      vertex 1.08156 3.3287 5.35
      vertex 0.54752 3.45691 0
      vertex 1.08156 3.3287 0
    endloop
  endfacet
  facet normal 0.233443 0.972371 -0
    outer loop
      vertex -0.54752 -3.45691 0
      vertex -1.08156 -3.3287 5.35
      vertex -0.54752 -3.45691 5.35
    endloop
  endfacet
  facet normal 0.233443 0.972371 0
    outer loop
      vertex -1.08156 -3.3287 5.35
      vertex -0.54752 -3.45691 0
      vertex -1.08156 -3.3287 0
    endloop
  endfacet
  facet normal -0.0784577 -0.996917 0
    outer loop
      vertex 0 3.5 0
      vertex 0.54752 3.45691 5.35
      vertex 0 3.5 5.35
    endloop
  endfacet
  facet normal -0.0784577 -0.996917 -0
    outer loop
      vertex 0.54752 3.45691 5.35
      vertex 0 3.5 0
      vertex 0.54752 3.45691 0
    endloop
  endfacet
  facet normal -0.852642 0.522495 0
    outer loop
      vertex 2.83156 -2.05725 0
      vertex 3.11852 -1.58897 5.35
      vertex 3.11852 -1.58897 0
    endloop
  endfacet
  facet normal -0.852642 0.522495 0
    outer loop
      vertex 3.11852 -1.58897 5.35
      vertex 2.83156 -2.05725 0
      vertex 2.83156 -2.05725 5.35
    endloop
  endfacet
  facet normal -0.852642 -0.522495 0
    outer loop
      vertex 3.11852 1.58897 0
      vertex 2.83156 2.05725 5.35
      vertex 2.83156 2.05725 0
    endloop
  endfacet
  facet normal -0.852642 -0.522495 0
    outer loop
      vertex 2.83156 2.05725 5.35
      vertex 3.11852 1.58897 0
      vertex 3.11852 1.58897 5.35
    endloop
  endfacet
  facet normal -0.996917 0.0784577 0
    outer loop
      vertex 3.45691 -0.54752 0
      vertex 3.5 0 5.35
      vertex 3.5 0 0
    endloop
  endfacet
  facet normal -0.996917 0.0784577 0
    outer loop
      vertex 3.5 0 5.35
      vertex 3.45691 -0.54752 0
      vertex 3.45691 -0.54752 5.35
    endloop
  endfacet
  facet normal -0.382689 -0.923877 0
    outer loop
      vertex 1.08156 3.3287 0
      vertex 1.58897 3.11852 5.35
      vertex 1.08156 3.3287 5.35
    endloop
  endfacet
  facet normal -0.382689 -0.923877 -0
    outer loop
      vertex 1.58897 3.11852 5.35
      vertex 1.08156 3.3287 0
      vertex 1.58897 3.11852 0
    endloop
  endfacet
  facet normal 0.382689 0.923877 -0
    outer loop
      vertex -1.08156 -3.3287 0
      vertex -1.58897 -3.11852 5.35
      vertex -1.08156 -3.3287 5.35
    endloop
  endfacet
  facet normal 0.382689 0.923877 0
    outer loop
      vertex -1.58897 -3.11852 5.35
      vertex -1.08156 -3.3287 0
      vertex -1.58897 -3.11852 0
    endloop
  endfacet
  facet normal 0.760398 0.649457 0
    outer loop
      vertex -2.47487 -2.47487 5.35
      vertex -2.83156 -2.05725 0
      vertex -2.83156 -2.05725 5.35
    endloop
  endfacet
  facet normal 0.760398 0.649457 0
    outer loop
      vertex -2.83156 -2.05725 0
      vertex -2.47487 -2.47487 5.35
      vertex -2.47487 -2.47487 0
    endloop
  endfacet
  facet normal -0.996917 -0.0784577 0
    outer loop
      vertex 3.5 0 0
      vertex 3.45691 0.54752 5.35
      vertex 3.45691 0.54752 0
    endloop
  endfacet
  facet normal -0.996917 -0.0784577 0
    outer loop
      vertex 3.45691 0.54752 5.35
      vertex 3.5 0 0
      vertex 3.5 0 5.35
    endloop
  endfacet
  facet normal 0.972371 0.233443 0
    outer loop
      vertex -3.3287 -1.08156 5.35
      vertex -3.45691 -0.54752 0
      vertex -3.45691 -0.54752 5.35
    endloop
  endfacet
  facet normal 0.972371 0.233443 0
    outer loop
      vertex -3.45691 -0.54752 0
      vertex -3.3287 -1.08156 5.35
      vertex -3.3287 -1.08156 0
    endloop
  endfacet
  facet normal -0.649457 0.760398 0
    outer loop
      vertex 2.47487 -2.47487 0
      vertex 2.05725 -2.83156 5.35
      vertex 2.47487 -2.47487 5.35
    endloop
  endfacet
  facet normal -0.649457 0.760398 0
    outer loop
      vertex 2.05725 -2.83156 5.35
      vertex 2.47487 -2.47487 0
      vertex 2.05725 -2.83156 0
    endloop
  endfacet
  facet normal -0.382689 0.923877 0
    outer loop
      vertex 1.58897 -3.11852 0
      vertex 1.08156 -3.3287 5.35
      vertex 1.58897 -3.11852 5.35
    endloop
  endfacet
  facet normal -0.382689 0.923877 0
    outer loop
      vertex 1.08156 -3.3287 5.35
      vertex 1.58897 -3.11852 0
      vertex 1.08156 -3.3287 0
    endloop
  endfacet
  facet normal -0.233443 0.972371 0
    outer loop
      vertex 1.08156 -3.3287 0
      vertex 0.54752 -3.45691 5.35
      vertex 1.08156 -3.3287 5.35
    endloop
  endfacet
  facet normal -0.233443 0.972371 0
    outer loop
      vertex 0.54752 -3.45691 5.35
      vertex 1.08156 -3.3287 0
      vertex 0.54752 -3.45691 0
    endloop
  endfacet
  facet normal -0.760398 -0.649457 0
    outer loop
      vertex 2.83156 2.05725 0
      vertex 2.47487 2.47487 5.35
      vertex 2.47487 2.47487 0
    endloop
  endfacet
  facet normal -0.760398 -0.649457 0
    outer loop
      vertex 2.47487 2.47487 5.35
      vertex 2.83156 2.05725 0
      vertex 2.83156 2.05725 5.35
    endloop
  endfacet
  facet normal 0.0784568 0.996918 -0
    outer loop
      vertex 0 -6.2 5.35
      vertex -0.969893 -6.12367 12
      vertex 0 -6.2 12
    endloop
  endfacet
  facet normal 0.0784568 0.996918 0
    outer loop
      vertex -0.969893 -6.12367 12
      vertex 0 -6.2 5.35
      vertex -0.969893 -6.12367 5.35
    endloop
  endfacet
  facet normal 0.972369 -0.233449 0
    outer loop
      vertex -6.12367 0.969893 12
      vertex -5.89655 1.9159 5.35
      vertex -5.89655 1.9159 12
    endloop
  endfacet
  facet normal 0.972369 -0.233449 0
    outer loop
      vertex -5.89655 1.9159 5.35
      vertex -6.12367 0.969893 12
      vertex -6.12367 0.969893 5.35
    endloop
  endfacet
  facet normal 0.996918 -0.0784568 0
    outer loop
      vertex -6.2 0 12
      vertex -6.12367 0.969893 5.35
      vertex -6.12367 0.969893 12
    endloop
  endfacet
  facet normal 0.996918 -0.0784568 0
    outer loop
      vertex -6.12367 0.969893 5.35
      vertex -6.2 0 12
      vertex -6.2 0 5.35
    endloop
  endfacet
  facet normal 0.92388 -0.382682 0
    outer loop
      vertex -5.89655 1.9159 12
      vertex -5.52424 2.81474 5.35
      vertex -5.52424 2.81474 12
    endloop
  endfacet
  facet normal 0.92388 -0.382682 0
    outer loop
      vertex -5.52424 2.81474 5.35
      vertex -5.89655 1.9159 12
      vertex -5.89655 1.9159 5.35
    endloop
  endfacet
  facet normal 0.522501 0.852639 -0
    outer loop
      vertex -2.81474 -5.52424 5.35
      vertex -3.64427 -5.0159 12
      vertex -2.81474 -5.52424 12
    endloop
  endfacet
  facet normal 0.522501 0.852639 0
    outer loop
      vertex -3.64427 -5.0159 12
      vertex -2.81474 -5.52424 5.35
      vertex -3.64427 -5.0159 5.35
    endloop
  endfacet
  facet normal 0.852639 -0.522501 0
    outer loop
      vertex -5.52424 2.81474 12
      vertex -5.0159 3.64427 5.35
      vertex -5.0159 3.64427 12
    endloop
  endfacet
  facet normal 0.852639 -0.522501 0
    outer loop
      vertex -5.0159 3.64427 5.35
      vertex -5.52424 2.81474 12
      vertex -5.52424 2.81474 5.35
    endloop
  endfacet
  facet normal 0.760406 -0.649448 0
    outer loop
      vertex -5.0159 3.64427 12
      vertex -4.38406 4.38406 5.35
      vertex -4.38406 4.38406 12
    endloop
  endfacet
  facet normal 0.760406 -0.649448 0
    outer loop
      vertex -4.38406 4.38406 5.35
      vertex -5.0159 3.64427 12
      vertex -5.0159 3.64427 5.35
    endloop
  endfacet
  facet normal -0.996918 -0.0784568 0
    outer loop
      vertex 6.2 0 5.35
      vertex 6.12367 0.969893 12
      vertex 6.12367 0.969893 5.35
    endloop
  endfacet
  facet normal -0.996918 -0.0784568 0
    outer loop
      vertex 6.12367 0.969893 12
      vertex 6.2 0 5.35
      vertex 6.2 0 12
    endloop
  endfacet
  facet normal 0.233449 0.972369 -0
    outer loop
      vertex -0.969893 -6.12367 5.35
      vertex -1.9159 -5.89655 12
      vertex -0.969893 -6.12367 12
    endloop
  endfacet
  facet normal 0.233449 0.972369 0
    outer loop
      vertex -1.9159 -5.89655 12
      vertex -0.969893 -6.12367 5.35
      vertex -1.9159 -5.89655 5.35
    endloop
  endfacet
  facet normal -0.852639 0.522501 0
    outer loop
      vertex 5.0159 -3.64427 5.35
      vertex 5.52424 -2.81474 12
      vertex 5.52424 -2.81474 5.35
    endloop
  endfacet
  facet normal -0.852639 0.522501 0
    outer loop
      vertex 5.52424 -2.81474 12
      vertex 5.0159 -3.64427 5.35
      vertex 5.0159 -3.64427 12
    endloop
  endfacet
  facet normal -0.92388 0.382682 0
    outer loop
      vertex 5.52424 -2.81474 5.35
      vertex 5.89655 -1.9159 12
      vertex 5.89655 -1.9159 5.35
    endloop
  endfacet
  facet normal -0.92388 0.382682 0
    outer loop
      vertex 5.89655 -1.9159 12
      vertex 5.52424 -2.81474 5.35
      vertex 5.52424 -2.81474 12
    endloop
  endfacet
  facet normal 0.522501 -0.852639 0
    outer loop
      vertex -3.64427 5.0159 5.35
      vertex -2.81474 5.52424 12
      vertex -3.64427 5.0159 12
    endloop
  endfacet
  facet normal 0.522501 -0.852639 0
    outer loop
      vertex -2.81474 5.52424 12
      vertex -3.64427 5.0159 5.35
      vertex -2.81474 5.52424 5.35
    endloop
  endfacet
  facet normal -0.522501 -0.852639 0
    outer loop
      vertex 2.81474 5.52424 5.35
      vertex 3.64427 5.0159 12
      vertex 2.81474 5.52424 12
    endloop
  endfacet
  facet normal -0.522501 -0.852639 -0
    outer loop
      vertex 3.64427 5.0159 12
      vertex 2.81474 5.52424 5.35
      vertex 3.64427 5.0159 5.35
    endloop
  endfacet
  facet normal -0.760406 -0.649448 0
    outer loop
      vertex 5.0159 3.64427 5.35
      vertex 4.38406 4.38406 12
      vertex 4.38406 4.38406 5.35
    endloop
  endfacet
  facet normal -0.760406 -0.649448 0
    outer loop
      vertex 4.38406 4.38406 12
      vertex 5.0159 3.64427 5.35
      vertex 5.0159 3.64427 12
    endloop
  endfacet
  facet normal -0.996918 0.0784568 0
    outer loop
      vertex 6.12367 -0.969893 5.35
      vertex 6.2 0 12
      vertex 6.2 0 5.35
    endloop
  endfacet
  facet normal -0.996918 0.0784568 0
    outer loop
      vertex 6.2 0 12
      vertex 6.12367 -0.969893 5.35
      vertex 6.12367 -0.969893 12
    endloop
  endfacet
  facet normal 0.760406 0.649448 0
    outer loop
      vertex -4.38406 -4.38406 12
      vertex -5.0159 -3.64427 5.35
      vertex -5.0159 -3.64427 12
    endloop
  endfacet
  facet normal 0.760406 0.649448 0
    outer loop
      vertex -5.0159 -3.64427 5.35
      vertex -4.38406 -4.38406 12
      vertex -4.38406 -4.38406 5.35
    endloop
  endfacet
  facet normal 0.852639 0.522501 0
    outer loop
      vertex -5.0159 -3.64427 12
      vertex -5.52424 -2.81474 5.35
      vertex -5.52424 -2.81474 12
    endloop
  endfacet
  facet normal 0.852639 0.522501 0
    outer loop
      vertex -5.52424 -2.81474 5.35
      vertex -5.0159 -3.64427 12
      vertex -5.0159 -3.64427 5.35
    endloop
  endfacet
  facet normal -0.233449 0.972369 0
    outer loop
      vertex 1.9159 -5.89655 5.35
      vertex 0.969893 -6.12367 12
      vertex 1.9159 -5.89655 12
    endloop
  endfacet
  facet normal -0.233449 0.972369 0
    outer loop
      vertex 0.969893 -6.12367 12
      vertex 1.9159 -5.89655 5.35
      vertex 0.969893 -6.12367 5.35
    endloop
  endfacet
  facet normal 0 0 1
    outer loop
      vertex 3.5 0 5.35
      vertex 6.2 0 5.35
      vertex 6.12367 0.969893 5.35
    endloop
  endfacet
  facet normal 0 0 1
    outer loop
      vertex 3.45691 0.54752 5.35
      vertex 6.12367 0.969893 5.35
      vertex 5.89655 1.9159 5.35
    endloop
  endfacet
  facet normal 0 0 1
    outer loop
      vertex 6.2 0 5.35
      vertex 3.5 0 5.35
      vertex 6.12367 -0.969893 5.35
    endloop
  endfacet
  facet normal 0 0 1
    outer loop
      vertex 3.3287 1.08156 5.35
      vertex 5.89655 1.9159 5.35
      vertex 5.52424 2.81474 5.35
    endloop
  endfacet
  facet normal -0 0 1
    outer loop
      vertex 3.45691 -0.54752 5.35
      vertex 6.12367 -0.969893 5.35
      vertex 3.5 0 5.35
    endloop
  endfacet
  facet normal 0 0 1
    outer loop
      vertex 3.11852 1.58897 5.35
      vertex 5.52424 2.81474 5.35
      vertex 5.0159 3.64427 5.35
    endloop
  endfacet
  facet normal 0 0 1
    outer loop
      vertex 6.12367 -0.969893 5.35
      vertex 3.45691 -0.54752 5.35
      vertex 5.89655 -1.9159 5.35
    endloop
  endfacet
  facet normal 0 0 1
    outer loop
      vertex 2.83156 2.05725 5.35
      vertex 5.0159 3.64427 5.35
      vertex 4.38406 4.38406 5.35
    endloop
  endfacet
  facet normal -0 0 1
    outer loop
      vertex 3.3287 -1.08156 5.35
      vertex 5.89655 -1.9159 5.35
      vertex 3.45691 -0.54752 5.35
    endloop
  endfacet
  facet normal 0 0 1
    outer loop
      vertex 2.47487 2.47487 5.35
      vertex 4.38406 4.38406 5.35
      vertex 3.64427 5.0159 5.35
    endloop
  endfacet
  facet normal 0 0 1
    outer loop
      vertex 5.89655 -1.9159 5.35
      vertex 3.3287 -1.08156 5.35
      vertex 5.52424 -2.81474 5.35
    endloop
  endfacet
  facet normal -0 0 1
    outer loop
      vertex 3.11852 -1.58897 5.35
      vertex 5.52424 -2.81474 5.35
      vertex 3.3287 -1.08156 5.35
    endloop
  endfacet
  facet normal 0 0 1
    outer loop
      vertex 6.12367 0.969893 5.35
      vertex 3.45691 0.54752 5.35
      vertex 3.5 0 5.35
    endloop
  endfacet
  facet normal 0 0 1
    outer loop
      vertex 5.89655 1.9159 5.35
      vertex 3.3287 1.08156 5.35
      vertex 3.45691 0.54752 5.35
    endloop
  endfacet
  facet normal 0 0 1
    outer loop
      vertex 5.52424 2.81474 5.35
      vertex 3.11852 1.58897 5.35
      vertex 3.3287 1.08156 5.35
    endloop
  endfacet
  facet normal 0 0 1
    outer loop
      vertex 5.0159 3.64427 5.35
      vertex 2.83156 2.05725 5.35
      vertex 3.11852 1.58897 5.35
    endloop
  endfacet
  facet normal 0 0 1
    outer loop
      vertex 2.05725 2.83156 5.35
      vertex 3.64427 5.0159 5.35
      vertex 2.81474 5.52424 5.35
    endloop
  endfacet
  facet normal 0 0 1
    outer loop
      vertex 4.38406 4.38406 5.35
      vertex 2.47487 2.47487 5.35
      vertex 2.83156 2.05725 5.35
    endloop
  endfacet
  facet normal 0 0 1
    outer loop
      vertex 3.64427 5.0159 5.35
      vertex 2.05725 2.83156 5.35
      vertex 2.47487 2.47487 5.35
    endloop
  endfacet
  facet normal 0 0 1
    outer loop
      vertex 1.58897 3.11852 5.35
      vertex 2.81474 5.52424 5.35
      vertex 1.9159 5.89655 5.35
    endloop
  endfacet
  facet normal 0 0 1
    outer loop
      vertex 2.81474 5.52424 5.35
      vertex 1.58897 3.11852 5.35
      vertex 2.05725 2.83156 5.35
    endloop
  endfacet
  facet normal 0 0 1
    outer loop
      vertex 1.9159 5.89655 5.35
      vertex 1.08156 3.3287 5.35
      vertex 1.58897 3.11852 5.35
    endloop
  endfacet
  facet normal 0 0 1
    outer loop
      vertex 0.969893 6.12367 5.35
      vertex 1.08156 3.3287 5.35
      vertex 1.9159 5.89655 5.35
    endloop
  endfacet
  facet normal 0 0 1
    outer loop
      vertex 0.969893 6.12367 5.35
      vertex 0.54752 3.45691 5.35
      vertex 1.08156 3.3287 5.35
    endloop
  endfacet
  facet normal 0 0 1
    outer loop
      vertex 0 6.2 5.35
      vertex 0.54752 3.45691 5.35
      vertex 0.969893 6.12367 5.35
    endloop
  endfacet
  facet normal 0 0 1
    outer loop
      vertex 0 6.2 5.35
      vertex 0 3.5 5.35
      vertex 0.54752 3.45691 5.35
    endloop
  endfacet
  facet normal 0 0 1
    outer loop
      vertex 0 6.2 5.35
      vertex -0.54752 3.45691 5.35
      vertex 0 3.5 5.35
    endloop
  endfacet
  facet normal -0 0 1
    outer loop
      vertex -0.969893 6.12367 5.35
      vertex -0.54752 3.45691 5.35
      vertex 0 6.2 5.35
    endloop
  endfacet
  facet normal 0 0 1
    outer loop
      vertex -0.969893 6.12367 5.35
      vertex -1.08156 3.3287 5.35
      vertex -0.54752 3.45691 5.35
    endloop
  endfacet
  facet normal -0 0 1
    outer loop
      vertex -1.9159 5.89655 5.35
      vertex -1.08156 3.3287 5.35
      vertex -0.969893 6.12367 5.35
    endloop
  endfacet
  facet normal 0 0 1
    outer loop
      vertex -1.08156 3.3287 5.35
      vertex -1.9159 5.89655 5.35
      vertex -1.58897 3.11852 5.35
    endloop
  endfacet
  facet normal -0 0 1
    outer loop
      vertex -2.81474 5.52424 5.35
      vertex -1.58897 3.11852 5.35
      vertex -1.9159 5.89655 5.35
    endloop
  endfacet
  facet normal 0 0 1
    outer loop
      vertex -1.58897 3.11852 5.35
      vertex -2.81474 5.52424 5.35
      vertex -2.05725 2.83156 5.35
    endloop
  endfacet
  facet normal -0 0 1
    outer loop
      vertex -3.64427 5.0159 5.35
      vertex -2.05725 2.83156 5.35
      vertex -2.81474 5.52424 5.35
    endloop
  endfacet
  facet normal 0 0 1
    outer loop
      vertex -2.05725 2.83156 5.35
      vertex -3.64427 5.0159 5.35
      vertex -2.47487 2.47487 5.35
    endloop
  endfacet
  facet normal -0 0 1
    outer loop
      vertex -4.38406 4.38406 5.35
      vertex -2.47487 2.47487 5.35
      vertex -3.64427 5.0159 5.35
    endloop
  endfacet
  facet normal 0 0 1
    outer loop
      vertex -2.47487 2.47487 5.35
      vertex -4.38406 4.38406 5.35
      vertex -2.83156 2.05725 5.35
    endloop
  endfacet
  facet normal -0 0 1
    outer loop
      vertex -5.0159 3.64427 5.35
      vertex -2.83156 2.05725 5.35
      vertex -4.38406 4.38406 5.35
    endloop
  endfacet
  facet normal -0 0 1
    outer loop
      vertex -5.52424 2.81474 5.35
      vertex -3.11852 1.58897 5.35
      vertex -5.0159 3.64427 5.35
    endloop
  endfacet
  facet normal 0 0 1
    outer loop
      vertex -2.83156 2.05725 5.35
      vertex -5.0159 3.64427 5.35
      vertex -3.11852 1.58897 5.35
    endloop
  endfacet
  facet normal 0 0 1
    outer loop
      vertex 5.52424 -2.81474 5.35
      vertex 3.11852 -1.58897 5.35
      vertex 5.0159 -3.64427 5.35
    endloop
  endfacet
  facet normal -0 0 1
    outer loop
      vertex 2.83156 -2.05725 5.35
      vertex 5.0159 -3.64427 5.35
      vertex 3.11852 -1.58897 5.35
    endloop
  endfacet
  facet normal 0 0 1
    outer loop
      vertex 5.0159 -3.64427 5.35
      vertex 2.83156 -2.05725 5.35
      vertex 4.38406 -4.38406 5.35
    endloop
  endfacet
  facet normal -0 0 1
    outer loop
      vertex 2.47487 -2.47487 5.35
      vertex 4.38406 -4.38406 5.35
      vertex 2.83156 -2.05725 5.35
    endloop
  endfacet
  facet normal 0 0 1
    outer loop
      vertex 4.38406 -4.38406 5.35
      vertex 2.47487 -2.47487 5.35
      vertex 3.64427 -5.0159 5.35
    endloop
  endfacet
  facet normal -0 0 1
    outer loop
      vertex 2.05725 -2.83156 5.35
      vertex 3.64427 -5.0159 5.35
      vertex 2.47487 -2.47487 5.35
    endloop
  endfacet
  facet normal 0 0 1
    outer loop
      vertex 3.64427 -5.0159 5.35
      vertex 2.05725 -2.83156 5.35
      vertex 2.81474 -5.52424 5.35
    endloop
  endfacet
  facet normal -0 0 1
    outer loop
      vertex 1.58897 -3.11852 5.35
      vertex 2.81474 -5.52424 5.35
      vertex 2.05725 -2.83156 5.35
    endloop
  endfacet
  facet normal 0 0 1
    outer loop
      vertex 2.81474 -5.52424 5.35
      vertex 1.58897 -3.11852 5.35
      vertex 1.9159 -5.89655 5.35
    endloop
  endfacet
  facet normal -0 0 1
    outer loop
      vertex 1.08156 -3.3287 5.35
      vertex 1.9159 -5.89655 5.35
      vertex 1.58897 -3.11852 5.35
    endloop
  endfacet
  facet normal 0 0 1
    outer loop
      vertex 1.08156 -3.3287 5.35
      vertex 0.969893 -6.12367 5.35
      vertex 1.9159 -5.89655 5.35
    endloop
  endfacet
  facet normal -0 0 1
    outer loop
      vertex 0.54752 -3.45691 5.35
      vertex 0.969893 -6.12367 5.35
      vertex 1.08156 -3.3287 5.35
    endloop
  endfacet
  facet normal -0 0 1
    outer loop
      vertex 0 -3.5 5.35
      vertex 0.969893 -6.12367 5.35
      vertex 0.54752 -3.45691 5.35
    endloop
  endfacet
  facet normal 0 0 1
    outer loop
      vertex 0 -3.5 5.35
      vertex 0 -6.2 5.35
      vertex 0.969893 -6.12367 5.35
    endloop
  endfacet
  facet normal 0 0 1
    outer loop
      vertex -0.54752 -3.45691 5.35
      vertex 0 -6.2 5.35
      vertex 0 -3.5 5.35
    endloop
  endfacet
  facet normal 0 0 1
    outer loop
      vertex -0.54752 -3.45691 5.35
      vertex -0.969893 -6.12367 5.35
      vertex 0 -6.2 5.35
    endloop
  endfacet
  facet normal 0 0 1
    outer loop
      vertex -1.08156 -3.3287 5.35
      vertex -0.969893 -6.12367 5.35
      vertex -0.54752 -3.45691 5.35
    endloop
  endfacet
  facet normal 0 0 1
    outer loop
      vertex -1.9159 -5.89655 5.35
      vertex -1.08156 -3.3287 5.35
      vertex -1.58897 -3.11852 5.35
    endloop
  endfacet
  facet normal 0 0 1
    outer loop
      vertex -1.08156 -3.3287 5.35
      vertex -1.9159 -5.89655 5.35
      vertex -0.969893 -6.12367 5.35
    endloop
  endfacet
  facet normal 0 0 1
    outer loop
      vertex -2.81474 -5.52424 5.35
      vertex -1.58897 -3.11852 5.35
      vertex -2.05725 -2.83156 5.35
    endloop
  endfacet
  facet normal 0 0 1
    outer loop
      vertex -3.64427 -5.0159 5.35
      vertex -2.05725 -2.83156 5.35
      vertex -2.47487 -2.47487 5.35
    endloop
  endfacet
  facet normal 0 0 1
    outer loop
      vertex -1.58897 -3.11852 5.35
      vertex -2.81474 -5.52424 5.35
      vertex -1.9159 -5.89655 5.35
    endloop
  endfacet
  facet normal 0 0 1
    outer loop
      vertex -4.38406 -4.38406 5.35
      vertex -2.47487 -2.47487 5.35
      vertex -2.83156 -2.05725 5.35
    endloop
  endfacet
  facet normal 0 0 1
    outer loop
      vertex -5.0159 -3.64427 5.35
      vertex -2.83156 -2.05725 5.35
      vertex -3.11852 -1.58897 5.35
    endloop
  endfacet
  facet normal 0 0 1
    outer loop
      vertex -5.52424 -2.81474 5.35
      vertex -3.11852 -1.58897 5.35
      vertex -3.3287 -1.08156 5.35
    endloop
  endfacet
  facet normal 0 0 1
    outer loop
      vertex -5.89655 -1.9159 5.35
      vertex -3.3287 -1.08156 5.35
      vertex -3.45691 -0.54752 5.35
    endloop
  endfacet
  facet normal 0 0 1
    outer loop
      vertex -2.05725 -2.83156 5.35
      vertex -3.64427 -5.0159 5.35
      vertex -2.81474 -5.52424 5.35
    endloop
  endfacet
  facet normal 0 0 1
    outer loop
      vertex -6.12367 -0.969893 5.35
      vertex -3.45691 -0.54752 5.35
      vertex -3.5 0 5.35
    endloop
  endfacet
  facet normal 0 0 1
    outer loop
      vertex -3.11852 1.58897 5.35
      vertex -5.52424 2.81474 5.35
      vertex -3.3287 1.08156 5.35
    endloop
  endfacet
  facet normal -0 0 1
    outer loop
      vertex -5.89655 1.9159 5.35
      vertex -3.3287 1.08156 5.35
      vertex -5.52424 2.81474 5.35
    endloop
  endfacet
  facet normal 0 0 1
    outer loop
      vertex -2.47487 -2.47487 5.35
      vertex -4.38406 -4.38406 5.35
      vertex -3.64427 -5.0159 5.35
    endloop
  endfacet
  facet normal 0 0 1
    outer loop
      vertex -3.3287 1.08156 5.35
      vertex -5.89655 1.9159 5.35
      vertex -3.45691 0.54752 5.35
    endloop
  endfacet
  facet normal 0 0 1
    outer loop
      vertex -2.83156 -2.05725 5.35
      vertex -5.0159 -3.64427 5.35
      vertex -4.38406 -4.38406 5.35
    endloop
  endfacet
  facet normal -0 0 1
    outer loop
      vertex -6.12367 0.969893 5.35
      vertex -3.45691 0.54752 5.35
      vertex -5.89655 1.9159 5.35
    endloop
  endfacet
  facet normal 0 0 1
    outer loop
      vertex -3.11852 -1.58897 5.35
      vertex -5.52424 -2.81474 5.35
      vertex -5.0159 -3.64427 5.35
    endloop
  endfacet
  facet normal 0 0 1
    outer loop
      vertex -3.45691 0.54752 5.35
      vertex -6.12367 0.969893 5.35
      vertex -3.5 0 5.35
    endloop
  endfacet
  facet normal 0 0 1
    outer loop
      vertex -3.3287 -1.08156 5.35
      vertex -5.89655 -1.9159 5.35
      vertex -5.52424 -2.81474 5.35
    endloop
  endfacet
  facet normal 0 0 1
    outer loop
      vertex -6.2 0 5.35
      vertex -3.5 0 5.35
      vertex -6.12367 0.969893 5.35
    endloop
  endfacet
  facet normal 0 0 1
    outer loop
      vertex -3.45691 -0.54752 5.35
      vertex -6.12367 -0.969893 5.35
      vertex -5.89655 -1.9159 5.35
    endloop
  endfacet
  facet normal 0 0 1
    outer loop
      vertex -3.5 0 5.35
      vertex -6.2 0 5.35
      vertex -6.12367 -0.969893 5.35
    endloop
  endfacet
  facet normal -0.972369 0.233449 0
    outer loop
      vertex 5.89655 -1.9159 5.35
      vertex 6.12367 -0.969893 12
      vertex 6.12367 -0.969893 5.35
    endloop
  endfacet
  facet normal -0.972369 0.233449 0
    outer loop
      vertex 6.12367 -0.969893 12
      vertex 5.89655 -1.9159 5.35
      vertex 5.89655 -1.9159 12
    endloop
  endfacet
  facet normal -0.382682 0.92388 0
    outer loop
      vertex 2.81474 -5.52424 5.35
      vertex 1.9159 -5.89655 12
      vertex 2.81474 -5.52424 12
    endloop
  endfacet
  facet normal -0.382682 0.92388 0
    outer loop
      vertex 1.9159 -5.89655 12
      vertex 2.81474 -5.52424 5.35
      vertex 1.9159 -5.89655 5.35
    endloop
  endfacet
  facet normal 0.996918 0.0784568 0
    outer loop
      vertex -6.12367 -0.969893 12
      vertex -6.2 0 5.35
      vertex -6.2 0 12
    endloop
  endfacet
  facet normal 0.996918 0.0784568 0
    outer loop
      vertex -6.2 0 5.35
      vertex -6.12367 -0.969893 12
      vertex -6.12367 -0.969893 5.35
    endloop
  endfacet
  facet normal 0.972369 0.233449 0
    outer loop
      vertex -5.89655 -1.9159 12
      vertex -6.12367 -0.969893 5.35
      vertex -6.12367 -0.969893 12
    endloop
  endfacet
  facet normal 0.972369 0.233449 0
    outer loop
      vertex -6.12367 -0.969893 5.35
      vertex -5.89655 -1.9159 12
      vertex -5.89655 -1.9159 5.35
    endloop
  endfacet
  facet normal -0.649448 -0.760406 0
    outer loop
      vertex 3.64427 5.0159 5.35
      vertex 4.38406 4.38406 12
      vertex 3.64427 5.0159 12
    endloop
  endfacet
  facet normal -0.649448 -0.760406 -0
    outer loop
      vertex 4.38406 4.38406 12
      vertex 3.64427 5.0159 5.35
      vertex 4.38406 4.38406 5.35
    endloop
  endfacet
  facet normal -0.382682 -0.92388 0
    outer loop
      vertex 1.9159 5.89655 5.35
      vertex 2.81474 5.52424 12
      vertex 1.9159 5.89655 12
    endloop
  endfacet
  facet normal -0.382682 -0.92388 -0
    outer loop
      vertex 2.81474 5.52424 12
      vertex 1.9159 5.89655 5.35
      vertex 2.81474 5.52424 5.35
    endloop
  endfacet
  facet normal 0.649448 -0.760406 0
    outer loop
      vertex -4.38406 4.38406 5.35
      vertex -3.64427 5.0159 12
      vertex -4.38406 4.38406 12
    endloop
  endfacet
  facet normal 0.649448 -0.760406 0
    outer loop
      vertex -3.64427 5.0159 12
      vertex -4.38406 4.38406 5.35
      vertex -3.64427 5.0159 5.35
    endloop
  endfacet
  facet normal -0.852639 -0.522501 0
    outer loop
      vertex 5.52424 2.81474 5.35
      vertex 5.0159 3.64427 12
      vertex 5.0159 3.64427 5.35
    endloop
  endfacet
  facet normal -0.852639 -0.522501 0
    outer loop
      vertex 5.0159 3.64427 12
      vertex 5.52424 2.81474 5.35
      vertex 5.52424 2.81474 12
    endloop
  endfacet
  facet normal -0.92388 -0.382682 0
    outer loop
      vertex 5.89655 1.9159 5.35
      vertex 5.52424 2.81474 12
      vertex 5.52424 2.81474 5.35
    endloop
  endfacet
  facet normal -0.92388 -0.382682 0
    outer loop
      vertex 5.52424 2.81474 12
      vertex 5.89655 1.9159 5.35
      vertex 5.89655 1.9159 12
    endloop
  endfacet
  facet normal -0.233449 -0.972369 0
    outer loop
      vertex 0.969893 6.12367 5.35
      vertex 1.9159 5.89655 12
      vertex 0.969893 6.12367 12
    endloop
  endfacet
  facet normal -0.233449 -0.972369 -0
    outer loop
      vertex 1.9159 5.89655 12
      vertex 0.969893 6.12367 5.35
      vertex 1.9159 5.89655 5.35
    endloop
  endfacet
  facet normal -0.0784568 -0.996918 0
    outer loop
      vertex 0 6.2 5.35
      vertex 0.969893 6.12367 12
      vertex 0 6.2 12
    endloop
  endfacet
  facet normal -0.0784568 -0.996918 -0
    outer loop
      vertex 0.969893 6.12367 12
      vertex 0 6.2 5.35
      vertex 0.969893 6.12367 5.35
    endloop
  endfacet
  facet normal -0.649448 0.760406 0
    outer loop
      vertex 4.38406 -4.38406 5.35
      vertex 3.64427 -5.0159 12
      vertex 4.38406 -4.38406 12
    endloop
  endfacet
  facet normal -0.649448 0.760406 0
    outer loop
      vertex 3.64427 -5.0159 12
      vertex 4.38406 -4.38406 5.35
      vertex 3.64427 -5.0159 5.35
    endloop
  endfacet
  facet normal -0.760406 0.649448 0
    outer loop
      vertex 4.38406 -4.38406 5.35
      vertex 5.0159 -3.64427 12
      vertex 5.0159 -3.64427 5.35
    endloop
  endfacet
  facet normal -0.760406 0.649448 0
    outer loop
      vertex 5.0159 -3.64427 12
      vertex 4.38406 -4.38406 5.35
      vertex 4.38406 -4.38406 12
    endloop
  endfacet
  facet normal 0.649448 0.760406 -0
    outer loop
      vertex -3.64427 -5.0159 5.35
      vertex -4.38406 -4.38406 12
      vertex -3.64427 -5.0159 12
    endloop
  endfacet
  facet normal 0.649448 0.760406 0
    outer loop
      vertex -4.38406 -4.38406 12
      vertex -3.64427 -5.0159 5.35
      vertex -4.38406 -4.38406 5.35
    endloop
  endfacet
  facet normal 0.382682 -0.92388 0
    outer loop
      vertex -2.81474 5.52424 5.35
      vertex -1.9159 5.89655 12
      vertex -2.81474 5.52424 12
    endloop
  endfacet
  facet normal 0.382682 -0.92388 0
    outer loop
      vertex -1.9159 5.89655 12
      vertex -2.81474 5.52424 5.35
      vertex -1.9159 5.89655 5.35
    endloop
  endfacet
  facet normal -0.972369 -0.233449 0
    outer loop
      vertex 6.12367 0.969893 5.35
      vertex 5.89655 1.9159 12
      vertex 5.89655 1.9159 5.35
    endloop
  endfacet
  facet normal -0.972369 -0.233449 0
    outer loop
      vertex 5.89655 1.9159 12
      vertex 6.12367 0.969893 5.35
      vertex 6.12367 0.969893 12
    endloop
  endfacet
  facet normal 0.233449 -0.972369 0
    outer loop
      vertex -1.9159 5.89655 5.35
      vertex -0.969893 6.12367 12
      vertex -1.9159 5.89655 12
    endloop
  endfacet
  facet normal 0.233449 -0.972369 0
    outer loop
      vertex -0.969893 6.12367 12
      vertex -1.9159 5.89655 5.35
      vertex -0.969893 6.12367 5.35
    endloop
  endfacet
  facet normal 0.92388 0.382682 0
    outer loop
      vertex -5.52424 -2.81474 12
      vertex -5.89655 -1.9159 5.35
      vertex -5.89655 -1.9159 12
    endloop
  endfacet
  facet normal 0.92388 0.382682 0
    outer loop
      vertex -5.89655 -1.9159 5.35
      vertex -5.52424 -2.81474 12
      vertex -5.52424 -2.81474 5.35
    endloop
  endfacet
  facet normal 0.382682 0.92388 -0
    outer loop
      vertex -1.9159 -5.89655 5.35
      vertex -2.81474 -5.52424 12
      vertex -1.9159 -5.89655 12
    endloop
  endfacet
  facet normal 0.382682 0.92388 0
    outer loop
      vertex -2.81474 -5.52424 12
      vertex -1.9159 -5.89655 5.35
      vertex -2.81474 -5.52424 5.35
    endloop
  endfacet
  facet normal 0.0784568 -0.996918 0
    outer loop
      vertex -0.969893 6.12367 5.35
      vertex 0 6.2 12
      vertex -0.969893 6.12367 12
    endloop
  endfacet
  facet normal 0.0784568 -0.996918 0
    outer loop
      vertex 0 6.2 12
      vertex -0.969893 6.12367 5.35
      vertex 0 6.2 5.35
    endloop
  endfacet
  facet normal -0.0784568 0.996918 0
    outer loop
      vertex 0.969893 -6.12367 5.35
      vertex 0 -6.2 12
      vertex 0.969893 -6.12367 12
    endloop
  endfacet
  facet normal -0.0784568 0.996918 0
    outer loop
      vertex 0 -6.2 12
      vertex 0.969893 -6.12367 5.35
      vertex 0 -6.2 5.35
    endloop
  endfacet
  facet normal -0.522501 0.852639 0
    outer loop
      vertex 3.64427 -5.0159 5.35
      vertex 2.81474 -5.52424 12
      vertex 3.64427 -5.0159 12
    endloop
  endfacet
  facet normal -0.522501 0.852639 0
    outer loop
      vertex 2.81474 -5.52424 12
      vertex 3.64427 -5.0159 5.35
      vertex 2.81474 -5.52424 5.35
    endloop
  endfacet
  facet normal -1 0 0
    outer loop
      vertex -10 -10 0
      vertex -10 10 12
      vertex -10 10 0
    endloop
  endfacet
  facet normal -1 -0 0
    outer loop
      vertex -10 10 12
      vertex -10 -10 0
      vertex -10 -10 12
    endloop
  endfacet
  facet normal 0 0 -1
    outer loop
      vertex 10 -10 0
      vertex 3.5 0 0
      vertex 10 10 0
    endloop
  endfacet
  facet normal 0 0 -1
    outer loop
      vertex 10 -10 0
      vertex 3.45691 -0.54752 0
      vertex 3.5 0 0
    endloop
  endfacet
  facet normal 0 0 -1
    outer loop
      vertex 10 -10 0
      vertex 3.3287 -1.08156 0
      vertex 3.45691 -0.54752 0
    endloop
  endfacet
  facet normal 0 0 -1
    outer loop
      vertex 10 -10 0
      vertex 3.11852 -1.58897 0
      vertex 3.3287 -1.08156 0
    endloop
  endfacet
  facet normal 0 0 -1
    outer loop
      vertex 10 -10 0
      vertex 2.83156 -2.05725 0
      vertex 3.11852 -1.58897 0
    endloop
  endfacet
  facet normal 0 0 -1
    outer loop
      vertex 10 -10 0
      vertex 2.47487 -2.47487 0
      vertex 2.83156 -2.05725 0
    endloop
  endfacet
  facet normal 0 0 -1
    outer loop
      vertex 10 -10 0
      vertex 2.05725 -2.83156 0
      vertex 2.47487 -2.47487 0
    endloop
  endfacet
  facet normal 0 0 -1
    outer loop
      vertex 10 -10 0
      vertex 1.58897 -3.11852 0
      vertex 2.05725 -2.83156 0
    endloop
  endfacet
  facet normal 0 0 -1
    outer loop
      vertex 10 -10 0
      vertex 1.08156 -3.3287 0
      vertex 1.58897 -3.11852 0
    endloop
  endfacet
  facet normal 0 0 -1
    outer loop
      vertex 10 -10 0
      vertex 0.54752 -3.45691 0
      vertex 1.08156 -3.3287 0
    endloop
  endfacet
  facet normal 0 0 -1
    outer loop
      vertex 10 -10 0
      vertex 0 -3.5 0
      vertex 0.54752 -3.45691 0
    endloop
  endfacet
  facet normal 0 0 -1
    outer loop
      vertex -10 -10 0
      vertex 0 -3.5 0
      vertex 10 -10 0
    endloop
  endfacet
  facet normal -0 0 -1
    outer loop
      vertex 0 -3.5 0
      vertex -10 -10 0
      vertex -0.54752 -3.45691 0
    endloop
  endfacet
  facet normal -0 0 -1
    outer loop
      vertex -0.54752 -3.45691 0
      vertex -10 -10 0
      vertex -1.08156 -3.3287 0
    endloop
  endfacet
  facet normal -0 0 -1
    outer loop
      vertex -3.45691 -0.54752 0
      vertex -10 -10 0
      vertex -3.5 0 0
    endloop
  endfacet
  facet normal -0 0 -1
    outer loop
      vertex -3.3287 -1.08156 0
      vertex -10 -10 0
      vertex -3.45691 -0.54752 0
    endloop
  endfacet
  facet normal -0 0 -1
    outer loop
      vertex -3.11852 -1.58897 0
      vertex -10 -10 0
      vertex -3.3287 -1.08156 0
    endloop
  endfacet
  facet normal -0 0 -1
    outer loop
      vertex -2.83156 -2.05725 0
      vertex -10 -10 0
      vertex -3.11852 -1.58897 0
    endloop
  endfacet
  facet normal -0 0 -1
    outer loop
      vertex -2.47487 -2.47487 0
      vertex -10 -10 0
      vertex -2.83156 -2.05725 0
    endloop
  endfacet
  facet normal -0 0 -1
    outer loop
      vertex -2.05725 -2.83156 0
      vertex -10 -10 0
      vertex -2.47487 -2.47487 0
    endloop
  endfacet
  facet normal -0 0 -1
    outer loop
      vertex -1.58897 -3.11852 0
      vertex -10 -10 0
      vertex -2.05725 -2.83156 0
    endloop
  endfacet
  facet normal -0 0 -1
    outer loop
      vertex -1.08156 -3.3287 0
      vertex -10 -10 0
      vertex -1.58897 -3.11852 0
    endloop
  endfacet
  facet normal 0 0 -1
    outer loop
      vertex 3.45691 0.54752 0
      vertex 10 10 0
      vertex 3.5 0 0
    endloop
  endfacet
  facet normal 0 0 -1
    outer loop
      vertex 3.3287 1.08156 0
      vertex 10 10 0
      vertex 3.45691 0.54752 0
    endloop
  endfacet
  facet normal 0 0 -1
    outer loop
      vertex 3.11852 1.58897 0
      vertex 10 10 0
      vertex 3.3287 1.08156 0
    endloop
  endfacet
  facet normal 0 0 -1
    outer loop
      vertex 2.83156 2.05725 0
      vertex 10 10 0
      vertex 3.11852 1.58897 0
    endloop
  endfacet
  facet normal 0 0 -1
    outer loop
      vertex 2.47487 2.47487 0
      vertex 10 10 0
      vertex 2.83156 2.05725 0
    endloop
  endfacet
  facet normal 0 0 -1
    outer loop
      vertex 2.05725 2.83156 0
      vertex 10 10 0
      vertex 2.47487 2.47487 0
    endloop
  endfacet
  facet normal 0 0 -1
    outer loop
      vertex 1.58897 3.11852 0
      vertex 10 10 0
      vertex 2.05725 2.83156 0
    endloop
  endfacet
  facet normal 0 0 -1
    outer loop
      vertex 1.08156 3.3287 0
      vertex 10 10 0
      vertex 1.58897 3.11852 0
    endloop
  endfacet
  facet normal 0 0 -1
    outer loop
      vertex 0.54752 3.45691 0
      vertex 10 10 0
      vertex 1.08156 3.3287 0
    endloop
  endfacet
  facet normal 0 0 -1
    outer loop
      vertex 0 3.5 0
      vertex 10 10 0
      vertex 0.54752 3.45691 0
    endloop
  endfacet
  facet normal 0 0 -1
    outer loop
      vertex -10 10 0
      vertex 0 3.5 0
      vertex -0.54752 3.45691 0
    endloop
  endfacet
  facet normal 0 0 -1
    outer loop
      vertex -10 10 0
      vertex -0.54752 3.45691 0
      vertex -1.08156 3.3287 0
    endloop
  endfacet
  facet normal 0 0 -1
    outer loop
      vertex -10 10 0
      vertex -1.08156 3.3287 0
      vertex -1.58897 3.11852 0
    endloop
  endfacet
  facet normal 0 0 -1
    outer loop
      vertex -10 10 0
      vertex -3.5 0 0
      vertex -10 -10 0
    endloop
  endfacet
  facet normal 0 0 -1
    outer loop
      vertex -3.5 0 0
      vertex -10 10 0
      vertex -3.45691 0.54752 0
    endloop
  endfacet
  facet normal 0 0 -1
    outer loop
      vertex -3.45691 0.54752 0
      vertex -10 10 0
      vertex -3.3287 1.08156 0
    endloop
  endfacet
  facet normal 0 0 -1
    outer loop
      vertex 0 3.5 0
      vertex -10 10 0
      vertex 10 10 0
    endloop
  endfacet
  facet normal 0 0 -1
    outer loop
      vertex -2.05725 2.83156 0
      vertex -10 10 0
      vertex -1.58897 3.11852 0
    endloop
  endfacet
  facet normal 0 0 -1
    outer loop
      vertex -2.47487 2.47487 0
      vertex -10 10 0
      vertex -2.05725 2.83156 0
    endloop
  endfacet
  facet normal 0 0 -1
    outer loop
      vertex -2.83156 2.05725 0
      vertex -10 10 0
      vertex -2.47487 2.47487 0
    endloop
  endfacet
  facet normal 0 0 -1
    outer loop
      vertex -3.11852 1.58897 0
      vertex -10 10 0
      vertex -2.83156 2.05725 0
    endloop
  endfacet
  facet normal 0 0 -1
    outer loop
      vertex -3.3287 1.08156 0
      vertex -10 10 0
      vertex -3.11852 1.58897 0
    endloop
  endfacet
  facet normal 0 0 1
    outer loop
      vertex 10 10 12
      vertex 6.2 0 12
      vertex 10 -10 12
    endloop
  endfacet
  facet normal 0 0 1
    outer loop
      vertex 10 10 12
      vertex 6.12367 0.969893 12
      vertex 6.2 0 12
    endloop
  endfacet
  facet normal 0 0 1
    outer loop
      vertex 10 10 12
      vertex 5.89655 1.9159 12
      vertex 6.12367 0.969893 12
    endloop
  endfacet
  facet normal 0 0 1
    outer loop
      vertex 10 10 12
      vertex 5.52424 2.81474 12
      vertex 5.89655 1.9159 12
    endloop
  endfacet
  facet normal 0 0 1
    outer loop
      vertex 10 10 12
      vertex 5.0159 3.64427 12
      vertex 5.52424 2.81474 12
    endloop
  endfacet
  facet normal 0 0 1
    outer loop
      vertex 10 10 12
      vertex 4.38406 4.38406 12
      vertex 5.0159 3.64427 12
    endloop
  endfacet
  facet normal 0 0 1
    outer loop
      vertex 10 10 12
      vertex 3.64427 5.0159 12
      vertex 4.38406 4.38406 12
    endloop
  endfacet
  facet normal 0 0 1
    outer loop
      vertex 10 10 12
      vertex 2.81474 5.52424 12
      vertex 3.64427 5.0159 12
    endloop
  endfacet
  facet normal 0 0 1
    outer loop
      vertex 10 10 12
      vertex 1.9159 5.89655 12
      vertex 2.81474 5.52424 12
    endloop
  endfacet
  facet normal 0 0 1
    outer loop
      vertex 10 10 12
      vertex 0.969893 6.12367 12
      vertex 1.9159 5.89655 12
    endloop
  endfacet
  facet normal 0 0 1
    outer loop
      vertex 10 10 12
      vertex 0 6.2 12
      vertex 0.969893 6.12367 12
    endloop
  endfacet
  facet normal -0 0 1
    outer loop
      vertex -10 10 12
      vertex 0 6.2 12
      vertex 10 10 12
    endloop
  endfacet
  facet normal 0 0 1
    outer loop
      vertex 0 6.2 12
      vertex -10 10 12
      vertex -0.969893 6.12367 12
    endloop
  endfacet
  facet normal 0 0 1
    outer loop
      vertex -6.12367 0.969893 12
      vertex -10 10 12
      vertex -6.2 0 12
    endloop
  endfacet
  facet normal 0 0 1
    outer loop
      vertex -5.89655 1.9159 12
      vertex -10 10 12
      vertex -6.12367 0.969893 12
    endloop
  endfacet
  facet normal 0 0 1
    outer loop
      vertex -5.52424 2.81474 12
      vertex -10 10 12
      vertex -5.89655 1.9159 12
    endloop
  endfacet
  facet normal 0 0 1
    outer loop
      vertex -5.0159 3.64427 12
      vertex -10 10 12
      vertex -5.52424 2.81474 12
    endloop
  endfacet
  facet normal 0 0 1
    outer loop
      vertex -4.38406 4.38406 12
      vertex -10 10 12
      vertex -5.0159 3.64427 12
    endloop
  endfacet
  facet normal 0 0 1
    outer loop
      vertex -3.64427 5.0159 12
      vertex -10 10 12
      vertex -4.38406 4.38406 12
    endloop
  endfacet
  facet normal 0 0 1
    outer loop
      vertex -2.81474 5.52424 12
      vertex -10 10 12
      vertex -3.64427 5.0159 12
    endloop
  endfacet
  facet normal 0 0 1
    outer loop
      vertex -1.9159 5.89655 12
      vertex -10 10 12
      vertex -2.81474 5.52424 12
    endloop
  endfacet
  facet normal 0 0 1
    outer loop
      vertex -0.969893 6.12367 12
      vertex -10 10 12
      vertex -1.9159 5.89655 12
    endloop
  endfacet
  facet normal -0 0 1
    outer loop
      vertex 6.12367 -0.969893 12
      vertex 10 -10 12
      vertex 6.2 0 12
    endloop
  endfacet
  facet normal -0 0 1
    outer loop
      vertex 5.89655 -1.9159 12
      vertex 10 -10 12
      vertex 6.12367 -0.969893 12
    endloop
  endfacet
  facet normal -0 0 1
    outer loop
      vertex 5.52424 -2.81474 12
      vertex 10 -10 12
      vertex 5.89655 -1.9159 12
    endloop
  endfacet
  facet normal -0 0 1
    outer loop
      vertex 5.0159 -3.64427 12
      vertex 10 -10 12
      vertex 5.52424 -2.81474 12
    endloop
  endfacet
  facet normal -0 0 1
    outer loop
      vertex 4.38406 -4.38406 12
      vertex 10 -10 12
      vertex 5.0159 -3.64427 12
    endloop
  endfacet
  facet normal -0 0 1
    outer loop
      vertex 3.64427 -5.0159 12
      vertex 10 -10 12
      vertex 4.38406 -4.38406 12
    endloop
  endfacet
  facet normal -0 0 1
    outer loop
      vertex 2.81474 -5.52424 12
      vertex 10 -10 12
      vertex 3.64427 -5.0159 12
    endloop
  endfacet
  facet normal -0 0 1
    outer loop
      vertex 1.9159 -5.89655 12
      vertex 10 -10 12
      vertex 2.81474 -5.52424 12
    endloop
  endfacet
  facet normal -0 0 1
    outer loop
      vertex 0.969893 -6.12367 12
      vertex 10 -10 12
      vertex 1.9159 -5.89655 12
    endloop
  endfacet
  facet normal -0 0 1
    outer loop
      vertex 0 -6.2 12
      vertex 10 -10 12
      vertex 0.969893 -6.12367 12
    endloop
  endfacet
  facet normal 0 0 1
    outer loop
      vertex -10 -10 12
      vertex 0 -6.2 12
      vertex -0.969893 -6.12367 12
    endloop
  endfacet
  facet normal 0 0 1
    outer loop
      vertex -10 -10 12
      vertex -0.969893 -6.12367 12
      vertex -1.9159 -5.89655 12
    endloop
  endfacet
  facet normal 0 0 1
    outer loop
      vertex -10 -10 12
      vertex -6.2 0 12
      vertex -10 10 12
    endloop
  endfacet
  facet normal 0 0 1
    outer loop
      vertex -6.2 0 12
      vertex -10 -10 12
      vertex -6.12367 -0.969893 12
    endloop
  endfacet
  facet normal 0 0 1
    outer loop
      vertex 0 -6.2 12
      vertex -10 -10 12
      vertex 10 -10 12
    endloop
  endfacet
  facet normal 0 0 1
    outer loop
      vertex -2.81474 -5.52424 12
      vertex -10 -10 12
      vertex -1.9159 -5.89655 12
    endloop
  endfacet
  facet normal 0 0 1
    outer loop
      vertex -3.64427 -5.0159 12
      vertex -10 -10 12
      vertex -2.81474 -5.52424 12
    endloop
  endfacet
  facet normal 0 0 1
    outer loop
      vertex -4.38406 -4.38406 12
      vertex -10 -10 12
      vertex -3.64427 -5.0159 12
    endloop
  endfacet
  facet normal 0 0 1
    outer loop
      vertex -5.0159 -3.64427 12
      vertex -10 -10 12
      vertex -4.38406 -4.38406 12
    endloop
  endfacet
  facet normal 0 0 1
    outer loop
      vertex -5.52424 -2.81474 12
      vertex -10 -10 12
      vertex -5.0159 -3.64427 12
    endloop
  endfacet
  facet normal 0 0 1
    outer loop
      vertex -5.89655 -1.9159 12
      vertex -10 -10 12
      vertex -5.52424 -2.81474 12
    endloop
  endfacet
  facet normal 0 0 1
    outer loop
      vertex -6.12367 -0.969893 12
      vertex -10 -10 12
      vertex -5.89655 -1.9159 12
    endloop
  endfacet
  facet normal 1 -0 0
    outer loop
      vertex 10 -10 12
      vertex 10 10 0
      vertex 10 10 12
    endloop
  endfacet
  facet normal 1 0 0
    outer loop
      vertex 10 10 0
      vertex 10 -10 12
      vertex 10 -10 0
    endloop
  endfacet
  facet normal 0 1 -0
    outer loop
      vertex 10 10 0
      vertex -10 10 12
      vertex 10 10 12
    endloop
  endfacet
  facet normal 0 1 0
    outer loop
      vertex -10 10 12
      vertex 10 10 0
      vertex -10 10 0
    endloop
  endfacet
  facet normal 0 -1 0
    outer loop
      vertex -10 -10 0
      vertex 10 -10 12
      vertex -10 -10 12
    endloop
  endfacet
  facet normal 0 -1 -0
    outer loop
      vertex 10 -10 12
      vertex -10 -10 0
      vertex 10 -10 0
    endloop
  endfacet
endsolid OpenSCAD_Model
