solid OpenSCAD_Model
  facet normal -1 0 0
    outer loop
      vertex -25 20 -2
      vertex -25 12.9 0
      vertex -25 20 0
    endloop
  endfacet
  facet normal -1 0 0
    outer loop
      vertex -25 12.9 0
      vertex -25 7.1 0
      vertex -25 12.9 1
    endloop
  endfacet
  facet normal -1 0 0
    outer loop
      vertex -25 20 -2
      vertex -25 7.1 0
      vertex -25 12.9 0
    endloop
  endfacet
  facet normal -1 0 0
    outer loop
      vertex -25 0 -2
      vertex -25 7.1 0
      vertex -25 20 -2
    endloop
  endfacet
  facet normal -1 -0 0
    outer loop
      vertex -25 7.1 0
      vertex -25 0 -2
      vertex -25 0 0
    endloop
  endfacet
  facet normal -1 -0 0
    outer loop
      vertex -25 12.9 1
      vertex -25 7.1 0
      vertex -25 7.1 1
    endloop
  endfacet
  facet normal 0 0 1
    outer loop
      vertex 25 20 0
      vertex 22.55 17 0
      vertex 25 12.9 0
    endloop
  endfacet
  facet normal 0 0 1
    outer loop
      vertex 25 20 0
      vertex 10.55 17 0
      vertex 22.55 17 0
    endloop
  endfacet
  facet normal 0 0 1
    outer loop
      vertex 10.55 17 0
      vertex -10.55 17 0
      vertex 10.55 12.9 0
    endloop
  endfacet
  facet normal 0 0 1
    outer loop
      vertex 25 20 0
      vertex -10.55 17 0
      vertex 10.55 17 0
    endloop
  endfacet
  facet normal -0 0 1
    outer loop
      vertex -25 20 0
      vertex -10.55 17 0
      vertex 25 20 0
    endloop
  endfacet
  facet normal 0 0 1
    outer loop
      vertex -10.55 17 0
      vertex -25 20 0
      vertex -22.55 17 0
    endloop
  endfacet
  facet normal 0 0 1
    outer loop
      vertex -25 12.9 0
      vertex -22.55 17 0
      vertex -25 20 0
    endloop
  endfacet
  facet normal 0 0 1
    outer loop
      vertex -22.55 17 0
      vertex -25 12.9 0
      vertex -22.55 12.9 0
    endloop
  endfacet
  facet normal 0 0 1
    outer loop
      vertex 25 12.9 0
      vertex 22.55 17 0
      vertex 22.55 12.9 0
    endloop
  endfacet
  facet normal 0 0 1
    outer loop
      vertex 10.55 12.9 0
      vertex -10.55 17 0
      vertex -10.55 12.9 0
    endloop
  endfacet
  facet normal 0 0 1
    outer loop
      vertex -22.55 7.1 0
      vertex -25 7.1 0
      vertex -22.55 3 0
    endloop
  endfacet
  facet normal 0 0 1
    outer loop
      vertex 10.55 7.1 0
      vertex -10.55 7.1 0
      vertex 10.55 3 0
    endloop
  endfacet
  facet normal 0 0 1
    outer loop
      vertex 22.55 3 0
      vertex 25 7.1 0
      vertex 22.55 7.1 0
    endloop
  endfacet
  facet normal 0 0 1
    outer loop
      vertex 25 7.1 0
      vertex 22.55 3 0
      vertex 25 0 0
    endloop
  endfacet
  facet normal -0 0 1
    outer loop
      vertex 10.55 3 0
      vertex 25 0 0
      vertex 22.55 3 0
    endloop
  endfacet
  facet normal 0 0 1
    outer loop
      vertex -10.55 3 0
      vertex 10.55 3 0
      vertex -10.55 7.1 0
    endloop
  endfacet
  facet normal 0 0 1
    outer loop
      vertex 10.55 3 0
      vertex -10.55 3 0
      vertex 25 0 0
    endloop
  endfacet
  facet normal 0 0 1
    outer loop
      vertex -25 0 0
      vertex -10.55 3 0
      vertex -22.55 3 0
    endloop
  endfacet
  facet normal 0 0 1
    outer loop
      vertex -10.55 3 0
      vertex -25 0 0
      vertex 25 0 0
    endloop
  endfacet
  facet normal 0 0 1
    outer loop
      vertex -25 0 0
      vertex -22.55 3 0
      vertex -25 7.1 0
    endloop
  endfacet
  facet normal 0 0 1
    outer loop
      vertex -14.7866 12.4271 0
      vertex -10.55 12.9 0
      vertex -10.55 17 0
    endloop
  endfacet
  facet normal 0 -0 1
    outer loop
      vertex -13.5869 10.4693 0
      vertex -10.55 12.9 0
      vertex -13.6968 10.9271 0
    endloop
  endfacet
  facet normal -0 0 1
    outer loop
      vertex -13.5869 9.5307 0
      vertex -10.55 7.1 0
      vertex -13.55 10 0
    endloop
  endfacet
  facet normal 0 0 1
    outer loop
      vertex -10.55 12.9 0
      vertex -13.55 10 0
      vertex -10.55 7.1 0
    endloop
  endfacet
  facet normal 0 -0 1
    outer loop
      vertex -13.55 10 0
      vertex -10.55 12.9 0
      vertex -13.5869 10.4693 0
    endloop
  endfacet
  facet normal 0 0 1
    outer loop
      vertex -10.55 12.9 0
      vertex -13.877 11.362 0
      vertex -13.6968 10.9271 0
    endloop
  endfacet
  facet normal 0 0 1
    outer loop
      vertex -10.55 12.9 0
      vertex -14.1229 11.7634 0
      vertex -13.877 11.362 0
    endloop
  endfacet
  facet normal 0 0 1
    outer loop
      vertex -10.55 12.9 0
      vertex -14.4287 12.1213 0
      vertex -14.1229 11.7634 0
    endloop
  endfacet
  facet normal 0 0 1
    outer loop
      vertex -10.55 12.9 0
      vertex -14.7866 12.4271 0
      vertex -14.4287 12.1213 0
    endloop
  endfacet
  facet normal 0 0 1
    outer loop
      vertex -10.55 17 0
      vertex -15.188 12.673 0
      vertex -14.7866 12.4271 0
    endloop
  endfacet
  facet normal 0 0 1
    outer loop
      vertex -10.55 17 0
      vertex -15.6229 12.8532 0
      vertex -15.188 12.673 0
    endloop
  endfacet
  facet normal 0 0 1
    outer loop
      vertex -10.55 17 0
      vertex -16.0807 12.9631 0
      vertex -15.6229 12.8532 0
    endloop
  endfacet
  facet normal 0 0 1
    outer loop
      vertex -10.55 17 0
      vertex -16.55 13 0
      vertex -16.0807 12.9631 0
    endloop
  endfacet
  facet normal -0 0 1
    outer loop
      vertex -22.55 17 0
      vertex -16.55 13 0
      vertex -10.55 17 0
    endloop
  endfacet
  facet normal 0 0 1
    outer loop
      vertex -16.55 13 0
      vertex -22.55 17 0
      vertex -17.0193 12.9631 0
    endloop
  endfacet
  facet normal 0 0 1
    outer loop
      vertex -17.0193 12.9631 0
      vertex -22.55 17 0
      vertex -17.4771 12.8532 0
    endloop
  endfacet
  facet normal 0 0 1
    outer loop
      vertex -19.4032 10.9271 0
      vertex -22.55 12.9 0
      vertex -19.5131 10.4693 0
    endloop
  endfacet
  facet normal 0 0 1
    outer loop
      vertex -19.223 11.362 0
      vertex -22.55 12.9 0
      vertex -19.4032 10.9271 0
    endloop
  endfacet
  facet normal 0 0 1
    outer loop
      vertex -18.9771 11.7634 0
      vertex -22.55 12.9 0
      vertex -19.223 11.362 0
    endloop
  endfacet
  facet normal 0 0 1
    outer loop
      vertex -18.6713 12.1213 0
      vertex -22.55 12.9 0
      vertex -18.9771 11.7634 0
    endloop
  endfacet
  facet normal 0 0 1
    outer loop
      vertex -18.3134 12.4271 0
      vertex -22.55 12.9 0
      vertex -18.6713 12.1213 0
    endloop
  endfacet
  facet normal -0 0 1
    outer loop
      vertex -22.55 12.9 0
      vertex -18.3134 12.4271 0
      vertex -22.55 17 0
    endloop
  endfacet
  facet normal 0 0 1
    outer loop
      vertex -17.912 12.673 0
      vertex -22.55 17 0
      vertex -18.3134 12.4271 0
    endloop
  endfacet
  facet normal 0 0 1
    outer loop
      vertex -17.4771 12.8532 0
      vertex -22.55 17 0
      vertex -17.912 12.673 0
    endloop
  endfacet
  facet normal -0 0 1
    outer loop
      vertex -13.6968 9.07295 0
      vertex -10.55 7.1 0
      vertex -13.5869 9.5307 0
    endloop
  endfacet
  facet normal -0 0 1
    outer loop
      vertex -13.877 8.63803 0
      vertex -10.55 7.1 0
      vertex -13.6968 9.07295 0
    endloop
  endfacet
  facet normal -0 0 1
    outer loop
      vertex -14.1229 8.23664 0
      vertex -10.55 7.1 0
      vertex -13.877 8.63803 0
    endloop
  endfacet
  facet normal -0 0 1
    outer loop
      vertex -14.4287 7.87868 0
      vertex -10.55 7.1 0
      vertex -14.1229 8.23664 0
    endloop
  endfacet
  facet normal -0 0 1
    outer loop
      vertex -14.7866 7.57295 0
      vertex -10.55 7.1 0
      vertex -14.4287 7.87868 0
    endloop
  endfacet
  facet normal 0 0 1
    outer loop
      vertex -10.55 7.1 0
      vertex -14.7866 7.57295 0
      vertex -10.55 3 0
    endloop
  endfacet
  facet normal -0 0 1
    outer loop
      vertex -15.188 7.32698 0
      vertex -10.55 3 0
      vertex -14.7866 7.57295 0
    endloop
  endfacet
  facet normal -0 0 1
    outer loop
      vertex -15.6229 7.14683 0
      vertex -10.55 3 0
      vertex -15.188 7.32698 0
    endloop
  endfacet
  facet normal -0 0 1
    outer loop
      vertex -16.0807 7.03694 0
      vertex -10.55 3 0
      vertex -15.6229 7.14683 0
    endloop
  endfacet
  facet normal -0 0 1
    outer loop
      vertex -16.55 7 0
      vertex -10.55 3 0
      vertex -16.0807 7.03694 0
    endloop
  endfacet
  facet normal 0 0 1
    outer loop
      vertex -22.55 3 0
      vertex -16.55 7 0
      vertex -17.0193 7.03694 0
    endloop
  endfacet
  facet normal 0 0 1
    outer loop
      vertex -22.55 3 0
      vertex -17.0193 7.03694 0
      vertex -17.4771 7.14683 0
    endloop
  endfacet
  facet normal 0 0 1
    outer loop
      vertex -22.55 3 0
      vertex -17.4771 7.14683 0
      vertex -17.912 7.32698 0
    endloop
  endfacet
  facet normal 0 0 1
    outer loop
      vertex -19.5131 10.4693 0
      vertex -22.55 12.9 0
      vertex -19.55 10 0
    endloop
  endfacet
  facet normal 0 0 1
    outer loop
      vertex -22.55 7.1 0
      vertex -19.55 10 0
      vertex -22.55 12.9 0
    endloop
  endfacet
  facet normal 0 0 1
    outer loop
      vertex -19.55 10 0
      vertex -22.55 7.1 0
      vertex -19.5131 9.5307 0
    endloop
  endfacet
  facet normal 0 0 1
    outer loop
      vertex -19.5131 9.5307 0
      vertex -22.55 7.1 0
      vertex -19.4032 9.07295 0
    endloop
  endfacet
  facet normal 0 0 1
    outer loop
      vertex -19.4032 9.07295 0
      vertex -22.55 7.1 0
      vertex -19.223 8.63803 0
    endloop
  endfacet
  facet normal 0 0 1
    outer loop
      vertex -19.223 8.63803 0
      vertex -22.55 7.1 0
      vertex -18.9771 8.23664 0
    endloop
  endfacet
  facet normal 0 0 1
    outer loop
      vertex -22.55 7.1 0
      vertex -18.6713 7.87868 0
      vertex -18.9771 8.23664 0
    endloop
  endfacet
  facet normal 0 0 1
    outer loop
      vertex -22.55 7.1 0
      vertex -18.3134 7.57295 0
      vertex -18.6713 7.87868 0
    endloop
  endfacet
  facet normal 0 0 1
    outer loop
      vertex -22.55 3 0
      vertex -18.3134 7.57295 0
      vertex -22.55 7.1 0
    endloop
  endfacet
  facet normal 0 0 1
    outer loop
      vertex -18.3134 7.57295 0
      vertex -22.55 3 0
      vertex -17.912 7.32698 0
    endloop
  endfacet
  facet normal 0 0 1
    outer loop
      vertex -16.55 7 0
      vertex -22.55 3 0
      vertex -10.55 3 0
    endloop
  endfacet
  facet normal 0 0 1
    outer loop
      vertex 18.3134 12.4271 0
      vertex 22.55 12.9 0
      vertex 22.55 17 0
    endloop
  endfacet
  facet normal 0 -0 1
    outer loop
      vertex 19.5131 10.4693 0
      vertex 22.55 12.9 0
      vertex 19.4032 10.9271 0
    endloop
  endfacet
  facet normal -0 0 1
    outer loop
      vertex 19.5131 9.5307 0
      vertex 22.55 7.1 0
      vertex 19.55 10 0
    endloop
  endfacet
  facet normal 0 0 1
    outer loop
      vertex 22.55 12.9 0
      vertex 19.55 10 0
      vertex 22.55 7.1 0
    endloop
  endfacet
  facet normal 0 -0 1
    outer loop
      vertex 19.55 10 0
      vertex 22.55 12.9 0
      vertex 19.5131 10.4693 0
    endloop
  endfacet
  facet normal 0 0 1
    outer loop
      vertex 22.55 12.9 0
      vertex 19.223 11.362 0
      vertex 19.4032 10.9271 0
    endloop
  endfacet
  facet normal 0 0 1
    outer loop
      vertex 22.55 12.9 0
      vertex 18.9771 11.7634 0
      vertex 19.223 11.362 0
    endloop
  endfacet
  facet normal 0 0 1
    outer loop
      vertex 22.55 12.9 0
      vertex 18.6713 12.1213 0
      vertex 18.9771 11.7634 0
    endloop
  endfacet
  facet normal 0 0 1
    outer loop
      vertex 22.55 12.9 0
      vertex 18.3134 12.4271 0
      vertex 18.6713 12.1213 0
    endloop
  endfacet
  facet normal 0 0 1
    outer loop
      vertex 22.55 17 0
      vertex 17.912 12.673 0
      vertex 18.3134 12.4271 0
    endloop
  endfacet
  facet normal 0 0 1
    outer loop
      vertex 22.55 17 0
      vertex 17.4771 12.8532 0
      vertex 17.912 12.673 0
    endloop
  endfacet
  facet normal 0 0 1
    outer loop
      vertex 22.55 17 0
      vertex 17.0193 12.9631 0
      vertex 17.4771 12.8532 0
    endloop
  endfacet
  facet normal 0 0 1
    outer loop
      vertex 22.55 17 0
      vertex 16.55 13 0
      vertex 17.0193 12.9631 0
    endloop
  endfacet
  facet normal -0 0 1
    outer loop
      vertex 10.55 17 0
      vertex 16.55 13 0
      vertex 22.55 17 0
    endloop
  endfacet
  facet normal 0 0 1
    outer loop
      vertex 16.55 13 0
      vertex 10.55 17 0
      vertex 16.0807 12.9631 0
    endloop
  endfacet
  facet normal 0 0 1
    outer loop
      vertex 16.0807 12.9631 0
      vertex 10.55 17 0
      vertex 15.6229 12.8532 0
    endloop
  endfacet
  facet normal 0 0 1
    outer loop
      vertex 13.6968 10.9271 0
      vertex 10.55 12.9 0
      vertex 13.5869 10.4693 0
    endloop
  endfacet
  facet normal 0 0 1
    outer loop
      vertex 13.877 11.362 0
      vertex 10.55 12.9 0
      vertex 13.6968 10.9271 0
    endloop
  endfacet
  facet normal 0 0 1
    outer loop
      vertex 14.1229 11.7634 0
      vertex 10.55 12.9 0
      vertex 13.877 11.362 0
    endloop
  endfacet
  facet normal 0 0 1
    outer loop
      vertex 14.4287 12.1213 0
      vertex 10.55 12.9 0
      vertex 14.1229 11.7634 0
    endloop
  endfacet
  facet normal 0 0 1
    outer loop
      vertex 14.7866 12.4271 0
      vertex 10.55 12.9 0
      vertex 14.4287 12.1213 0
    endloop
  endfacet
  facet normal -0 0 1
    outer loop
      vertex 10.55 12.9 0
      vertex 14.7866 12.4271 0
      vertex 10.55 17 0
    endloop
  endfacet
  facet normal 0 0 1
    outer loop
      vertex 15.188 12.673 0
      vertex 10.55 17 0
      vertex 14.7866 12.4271 0
    endloop
  endfacet
  facet normal 0 0 1
    outer loop
      vertex 15.6229 12.8532 0
      vertex 10.55 17 0
      vertex 15.188 12.673 0
    endloop
  endfacet
  facet normal -0 0 1
    outer loop
      vertex 19.4032 9.07295 0
      vertex 22.55 7.1 0
      vertex 19.5131 9.5307 0
    endloop
  endfacet
  facet normal -0 0 1
    outer loop
      vertex 19.223 8.63803 0
      vertex 22.55 7.1 0
      vertex 19.4032 9.07295 0
    endloop
  endfacet
  facet normal -0 0 1
    outer loop
      vertex 18.9771 8.23664 0
      vertex 22.55 7.1 0
      vertex 19.223 8.63803 0
    endloop
  endfacet
  facet normal -0 0 1
    outer loop
      vertex 18.6713 7.87868 0
      vertex 22.55 7.1 0
      vertex 18.9771 8.23664 0
    endloop
  endfacet
  facet normal -0 0 1
    outer loop
      vertex 18.3134 7.57295 0
      vertex 22.55 7.1 0
      vertex 18.6713 7.87868 0
    endloop
  endfacet
  facet normal 0 0 1
    outer loop
      vertex 22.55 7.1 0
      vertex 18.3134 7.57295 0
      vertex 22.55 3 0
    endloop
  endfacet
  facet normal -0 0 1
    outer loop
      vertex 17.912 7.32698 0
      vertex 22.55 3 0
      vertex 18.3134 7.57295 0
    endloop
  endfacet
  facet normal -0 0 1
    outer loop
      vertex 17.4771 7.14683 0
      vertex 22.55 3 0
      vertex 17.912 7.32698 0
    endloop
  endfacet
  facet normal -0 0 1
    outer loop
      vertex 17.0193 7.03694 0
      vertex 22.55 3 0
      vertex 17.4771 7.14683 0
    endloop
  endfacet
  facet normal -0 0 1
    outer loop
      vertex 16.55 7 0
      vertex 22.55 3 0
      vertex 17.0193 7.03694 0
    endloop
  endfacet
  facet normal 0 0 1
    outer loop
      vertex 10.55 3 0
      vertex 16.55 7 0
      vertex 16.0807 7.03694 0
    endloop
  endfacet
  facet normal 0 0 1
    outer loop
      vertex 10.55 3 0
      vertex 16.0807 7.03694 0
      vertex 15.6229 7.14683 0
    endloop
  endfacet
  facet normal 0 0 1
    outer loop
      vertex 10.55 3 0
      vertex 15.6229 7.14683 0
      vertex 15.188 7.32698 0
    endloop
  endfacet
  facet normal 0 0 1
    outer loop
      vertex 13.5869 10.4693 0
      vertex 10.55 12.9 0
      vertex 13.55 10 0
    endloop
  endfacet
  facet normal 0 0 1
    outer loop
      vertex 10.55 7.1 0
      vertex 13.55 10 0
      vertex 10.55 12.9 0
    endloop
  endfacet
  facet normal 0 0 1
    outer loop
      vertex 13.55 10 0
      vertex 10.55 7.1 0
      vertex 13.5869 9.5307 0
    endloop
  endfacet
  facet normal 0 0 1
    outer loop
      vertex 13.5869 9.5307 0
      vertex 10.55 7.1 0
      vertex 13.6968 9.07295 0
    endloop
  endfacet
  facet normal 0 0 1
    outer loop
      vertex 13.6968 9.07295 0
      vertex 10.55 7.1 0
      vertex 13.877 8.63803 0
    endloop
  endfacet
  facet normal 0 0 1
    outer loop
      vertex 13.877 8.63803 0
      vertex 10.55 7.1 0
      vertex 14.1229 8.23664 0
    endloop
  endfacet
  facet normal 0 0 1
    outer loop
      vertex 10.55 7.1 0
      vertex 14.4287 7.87868 0
      vertex 14.1229 8.23664 0
    endloop
  endfacet
  facet normal 0 0 1
    outer loop
      vertex 10.55 7.1 0
      vertex 14.7866 7.57295 0
      vertex 14.4287 7.87868 0
    endloop
  endfacet
  facet normal 0 0 1
    outer loop
      vertex 10.55 3 0
      vertex 14.7866 7.57295 0
      vertex 10.55 7.1 0
    endloop
  endfacet
  facet normal 0 0 1
    outer loop
      vertex 14.7866 7.57295 0
      vertex 10.55 3 0
      vertex 15.188 7.32698 0
    endloop
  endfacet
  facet normal 0 0 1
    outer loop
      vertex 16.55 7 0
      vertex 10.55 3 0
      vertex 22.55 3 0
    endloop
  endfacet
  facet normal 1 0 0
    outer loop
      vertex 25 12.9 1
      vertex 25 7.1 1
      vertex 25 12.9 0
    endloop
  endfacet
  facet normal 1 -0 0
    outer loop
      vertex 25 12.9 0
      vertex 25 20 -2
      vertex 25 20 0
    endloop
  endfacet
  facet normal 1 0 0
    outer loop
      vertex 25 7.1 0
      vertex 25 12.9 0
      vertex 25 7.1 1
    endloop
  endfacet
  facet normal 1 0 0
    outer loop
      vertex 25 12.9 0
      vertex 25 7.1 0
      vertex 25 20 -2
    endloop
  endfacet
  facet normal 1 0 0
    outer loop
      vertex 25 0 -2
      vertex 25 7.1 0
      vertex 25 0 0
    endloop
  endfacet
  facet normal 1 0 0
    outer loop
      vertex 25 7.1 0
      vertex 25 0 -2
      vertex 25 20 -2
    endloop
  endfacet
  facet normal 0 1 0
    outer loop
      vertex 7.35 20 -2
      vertex 25 20 0
      vertex 25 20 -2
    endloop
  endfacet
  facet normal 0 1 0
    outer loop
      vertex 25 20 0
      vertex 7.35 20 -2
      vertex -25 20 0
    endloop
  endfacet
  facet normal 0 1 -0
    outer loop
      vertex -7.35 20 -2
      vertex -25 20 0
      vertex 7.35 20 -2
    endloop
  endfacet
  facet normal 0 1 0
    outer loop
      vertex -25 20 0
      vertex -7.35 20 -2
      vertex -25 20 -2
    endloop
  endfacet
  facet normal 0 -1 0
    outer loop
      vertex -8.35 0 -2
      vertex -25 0 0
      vertex -25 0 -2
    endloop
  endfacet
  facet normal 0 -1 0
    outer loop
      vertex -25 0 0
      vertex -8.35 0 -2
      vertex 25 0 0
    endloop
  endfacet
  facet normal 0 -1 0
    outer loop
      vertex 8.35 0 -2
      vertex 25 0 0
      vertex -8.35 0 -2
    endloop
  endfacet
  facet normal 0 -1 -0
    outer loop
      vertex 25 0 0
      vertex 8.35 0 -2
      vertex 25 0 -2
    endloop
  endfacet
  facet normal 0 1 -0
    outer loop
      vertex 25 12.9 0
      vertex 22.55 12.9 1
      vertex 25 12.9 1
    endloop
  endfacet
  facet normal 0 1 0
    outer loop
      vertex 22.55 12.9 1
      vertex 25 12.9 0
      vertex 22.55 12.9 0
    endloop
  endfacet
  facet normal 0 1 -0
    outer loop
      vertex -22.55 12.9 0
      vertex -25 12.9 1
      vertex -22.55 12.9 1
    endloop
  endfacet
  facet normal 0 1 0
    outer loop
      vertex -25 12.9 1
      vertex -22.55 12.9 0
      vertex -25 12.9 0
    endloop
  endfacet
  facet normal 0 1 -0
    outer loop
      vertex 10.55 12.9 0
      vertex -10.55 12.9 1
      vertex 10.55 12.9 1
    endloop
  endfacet
  facet normal 0 1 0
    outer loop
      vertex -10.55 12.9 1
      vertex 10.55 12.9 0
      vertex -10.55 12.9 0
    endloop
  endfacet
  facet normal -0 0 1
    outer loop
      vertex -25 12.9 1
      vertex -22.55 7.1 1
      vertex -22.55 12.9 1
    endloop
  endfacet
  facet normal 0 0 1
    outer loop
      vertex -22.55 7.1 1
      vertex -25 12.9 1
      vertex -25 7.1 1
    endloop
  endfacet
  facet normal -0 0 1
    outer loop
      vertex 22.55 12.9 1
      vertex 25 7.1 1
      vertex 25 12.9 1
    endloop
  endfacet
  facet normal 0 0 1
    outer loop
      vertex 25 7.1 1
      vertex 22.55 12.9 1
      vertex 22.55 7.1 1
    endloop
  endfacet
  facet normal -0 0 1
    outer loop
      vertex -10.55 12.9 1
      vertex 10.55 7.1 1
      vertex 10.55 12.9 1
    endloop
  endfacet
  facet normal 0 0 1
    outer loop
      vertex 10.55 7.1 1
      vertex -10.55 12.9 1
      vertex -10.55 7.1 1
    endloop
  endfacet
  facet normal 0 -1 0
    outer loop
      vertex -25 7.1 0
      vertex -22.55 7.1 1
      vertex -25 7.1 1
    endloop
  endfacet
  facet normal 0 -1 -0
    outer loop
      vertex -22.55 7.1 1
      vertex -25 7.1 0
      vertex -22.55 7.1 0
    endloop
  endfacet
  facet normal 0 -1 0
    outer loop
      vertex 22.55 7.1 0
      vertex 25 7.1 1
      vertex 22.55 7.1 1
    endloop
  endfacet
  facet normal 0 -1 -0
    outer loop
      vertex 25 7.1 1
      vertex 22.55 7.1 0
      vertex 25 7.1 0
    endloop
  endfacet
  facet normal 0 -1 0
    outer loop
      vertex -10.55 7.1 0
      vertex 10.55 7.1 1
      vertex -10.55 7.1 1
    endloop
  endfacet
  facet normal 0 -1 -0
    outer loop
      vertex 10.55 7.1 1
      vertex -10.55 7.1 0
      vertex 10.55 7.1 0
    endloop
  endfacet
  facet normal 0 0 -1
    outer loop
      vertex -8.35 0 -2
      vertex -8.42082 7.84873 -2
      vertex -8.35 7.83751 -2
    endloop
  endfacet
  facet normal 0 0 -1
    outer loop
      vertex -8.35 0 -2
      vertex -8.75534 8.01918 -2
      vertex -8.42082 7.84873 -2
    endloop
  endfacet
  facet normal 0 0 -1
    outer loop
      vertex -14.7866 7.57295 -2
      vertex -8.75534 8.01918 -2
      vertex -8.35 0 -2
    endloop
  endfacet
  facet normal -0 0 -1
    outer loop
      vertex -8.75534 8.01918 -2
      vertex -14.4287 7.87868 -2
      vertex -9.02082 8.28466 -2
    endloop
  endfacet
  facet normal 0 -0 -1
    outer loop
      vertex -14.1229 8.23664 -2
      vertex -9.02082 8.28466 -2
      vertex -14.4287 7.87868 -2
    endloop
  endfacet
  facet normal 0 -0 -1
    outer loop
      vertex -13.877 8.63803 -2
      vertex -9.02082 8.28466 -2
      vertex -14.1229 8.23664 -2
    endloop
  endfacet
  facet normal 0 0 -1
    outer loop
      vertex -9.25 8.99 -2
      vertex -13.5869 9.5307 -2
      vertex -13.55 10 -2
    endloop
  endfacet
  facet normal 0 0 -1
    outer loop
      vertex -9.25 8.99 -2
      vertex -13.6968 9.07295 -2
      vertex -13.5869 9.5307 -2
    endloop
  endfacet
  facet normal 0 0 -1
    outer loop
      vertex -9.19127 8.61918 -2
      vertex -13.6968 9.07295 -2
      vertex -9.25 8.99 -2
    endloop
  endfacet
  facet normal 0 -0 -1
    outer loop
      vertex -13.6968 9.07295 -2
      vertex -9.19127 8.61918 -2
      vertex -13.877 8.63803 -2
    endloop
  endfacet
  facet normal 0 0 -1
    outer loop
      vertex -9.02082 8.28466 -2
      vertex -13.877 8.63803 -2
      vertex -9.19127 8.61918 -2
    endloop
  endfacet
  facet normal 0 0 -1
    outer loop
      vertex -8.75534 8.01918 -2
      vertex -14.7866 7.57295 -2
      vertex -14.4287 7.87868 -2
    endloop
  endfacet
  facet normal 0 0 -1
    outer loop
      vertex -8.35 0 -2
      vertex -15.188 7.32698 -2
      vertex -14.7866 7.57295 -2
    endloop
  endfacet
  facet normal 0 0 -1
    outer loop
      vertex -8.35 0 -2
      vertex -15.6229 7.14683 -2
      vertex -15.188 7.32698 -2
    endloop
  endfacet
  facet normal 0 0 -1
    outer loop
      vertex -8.35 0 -2
      vertex -16.0807 7.03694 -2
      vertex -15.6229 7.14683 -2
    endloop
  endfacet
  facet normal 0 0 -1
    outer loop
      vertex -8.35 0 -2
      vertex -16.55 7 -2
      vertex -16.0807 7.03694 -2
    endloop
  endfacet
  facet normal 0 0 -1
    outer loop
      vertex -25 0 -2
      vertex -16.55 7 -2
      vertex -8.35 0 -2
    endloop
  endfacet
  facet normal -0 0 -1
    outer loop
      vertex -16.55 7 -2
      vertex -25 0 -2
      vertex -17.0193 7.03694 -2
    endloop
  endfacet
  facet normal -0 0 -1
    outer loop
      vertex -17.0193 7.03694 -2
      vertex -25 0 -2
      vertex -17.4771 7.14683 -2
    endloop
  endfacet
  facet normal -0 0 -1
    outer loop
      vertex -17.4771 7.14683 -2
      vertex -25 0 -2
      vertex -17.912 7.32698 -2
    endloop
  endfacet
  facet normal -0 0 -1
    outer loop
      vertex -19.5131 9.5307 -2
      vertex -25 0 -2
      vertex -19.55 10 -2
    endloop
  endfacet
  facet normal -0 0 -1
    outer loop
      vertex -19.4032 9.07295 -2
      vertex -25 0 -2
      vertex -19.5131 9.5307 -2
    endloop
  endfacet
  facet normal -0 0 -1
    outer loop
      vertex -19.223 8.63803 -2
      vertex -25 0 -2
      vertex -19.4032 9.07295 -2
    endloop
  endfacet
  facet normal -0 0 -1
    outer loop
      vertex -18.9771 8.23664 -2
      vertex -25 0 -2
      vertex -19.223 8.63803 -2
    endloop
  endfacet
  facet normal -0 0 -1
    outer loop
      vertex -18.6713 7.87868 -2
      vertex -25 0 -2
      vertex -18.9771 8.23664 -2
    endloop
  endfacet
  facet normal -0 0 -1
    outer loop
      vertex -18.3134 7.57295 -2
      vertex -25 0 -2
      vertex -18.6713 7.87868 -2
    endloop
  endfacet
  facet normal -0 0 -1
    outer loop
      vertex -17.912 7.32698 -2
      vertex -25 0 -2
      vertex -18.3134 7.57295 -2
    endloop
  endfacet
  facet normal 0 0 -1
    outer loop
      vertex -8.35 16.19 -2
      vertex -7.35 20 -2
      vertex -7.35 16.19 -2
    endloop
  endfacet
  facet normal 0 0 -1
    outer loop
      vertex -8.75534 9.96082 -2
      vertex -8.35 16.19 -2
      vertex -8.42082 10.1313 -2
    endloop
  endfacet
  facet normal 0 0 -1
    outer loop
      vertex -13.6968 10.9271 -2
      vertex -8.75534 9.96082 -2
      vertex -9.02082 9.69534 -2
    endloop
  endfacet
  facet normal 0 0 -1
    outer loop
      vertex -13.5869 10.4693 -2
      vertex -9.02082 9.69534 -2
      vertex -9.19127 9.36082 -2
    endloop
  endfacet
  facet normal 0 0 -1
    outer loop
      vertex -13.55 10 -2
      vertex -9.19127 9.36082 -2
      vertex -9.25 8.99 -2
    endloop
  endfacet
  facet normal 0 0 -1
    outer loop
      vertex -9.19127 9.36082 -2
      vertex -13.55 10 -2
      vertex -13.5869 10.4693 -2
    endloop
  endfacet
  facet normal 0 0 -1
    outer loop
      vertex -9.02082 9.69534 -2
      vertex -13.5869 10.4693 -2
      vertex -13.6968 10.9271 -2
    endloop
  endfacet
  facet normal 0 0 -1
    outer loop
      vertex -8.75534 9.96082 -2
      vertex -13.6968 10.9271 -2
      vertex -13.877 11.362 -2
    endloop
  endfacet
  facet normal 0 0 -1
    outer loop
      vertex -8.75534 9.96082 -2
      vertex -13.877 11.362 -2
      vertex -8.35 16.19 -2
    endloop
  endfacet
  facet normal 0 0 -1
    outer loop
      vertex -14.1229 11.7634 -2
      vertex -8.35 16.19 -2
      vertex -13.877 11.362 -2
    endloop
  endfacet
  facet normal 0 0 -1
    outer loop
      vertex -14.4287 12.1213 -2
      vertex -8.35 16.19 -2
      vertex -14.1229 11.7634 -2
    endloop
  endfacet
  facet normal 0 0 -1
    outer loop
      vertex -14.7866 12.4271 -2
      vertex -8.35 16.19 -2
      vertex -14.4287 12.1213 -2
    endloop
  endfacet
  facet normal 0 0 -1
    outer loop
      vertex -15.188 12.673 -2
      vertex -8.35 16.19 -2
      vertex -14.7866 12.4271 -2
    endloop
  endfacet
  facet normal 0 0 -1
    outer loop
      vertex -15.6229 12.8532 -2
      vertex -8.35 16.19 -2
      vertex -15.188 12.673 -2
    endloop
  endfacet
  facet normal 0 0 -1
    outer loop
      vertex -16.0807 12.9631 -2
      vertex -8.35 16.19 -2
      vertex -15.6229 12.8532 -2
    endloop
  endfacet
  facet normal -0 0 -1
    outer loop
      vertex -8.35 16.19 -2
      vertex -16.0807 12.9631 -2
      vertex -7.35 20 -2
    endloop
  endfacet
  facet normal 0 0 -1
    outer loop
      vertex -16.55 13 -2
      vertex -7.35 20 -2
      vertex -16.0807 12.9631 -2
    endloop
  endfacet
  facet normal 0 0 -1
    outer loop
      vertex -25 20 -2
      vertex -16.55 13 -2
      vertex -17.0193 12.9631 -2
    endloop
  endfacet
  facet normal 0 0 -1
    outer loop
      vertex -25 20 -2
      vertex -17.0193 12.9631 -2
      vertex -17.4771 12.8532 -2
    endloop
  endfacet
  facet normal 0 0 -1
    outer loop
      vertex -25 20 -2
      vertex -17.4771 12.8532 -2
      vertex -17.912 12.673 -2
    endloop
  endfacet
  facet normal 0 0 -1
    outer loop
      vertex -25 20 -2
      vertex -17.912 12.673 -2
      vertex -18.3134 12.4271 -2
    endloop
  endfacet
  facet normal 0 0 -1
    outer loop
      vertex -25 20 -2
      vertex -19.55 10 -2
      vertex -25 0 -2
    endloop
  endfacet
  facet normal 0 0 -1
    outer loop
      vertex -19.55 10 -2
      vertex -25 20 -2
      vertex -19.5131 10.4693 -2
    endloop
  endfacet
  facet normal 0 0 -1
    outer loop
      vertex -19.5131 10.4693 -2
      vertex -25 20 -2
      vertex -19.4032 10.9271 -2
    endloop
  endfacet
  facet normal 0 0 -1
    outer loop
      vertex -16.55 13 -2
      vertex -25 20 -2
      vertex -7.35 20 -2
    endloop
  endfacet
  facet normal 0 0 -1
    outer loop
      vertex -18.6713 12.1213 -2
      vertex -25 20 -2
      vertex -18.3134 12.4271 -2
    endloop
  endfacet
  facet normal 0 0 -1
    outer loop
      vertex -18.9771 11.7634 -2
      vertex -25 20 -2
      vertex -18.6713 12.1213 -2
    endloop
  endfacet
  facet normal 0 0 -1
    outer loop
      vertex -19.223 11.362 -2
      vertex -25 20 -2
      vertex -18.9771 11.7634 -2
    endloop
  endfacet
  facet normal 0 0 -1
    outer loop
      vertex -19.4032 10.9271 -2
      vertex -25 20 -2
      vertex -19.223 11.362 -2
    endloop
  endfacet
  facet normal -0 0 -1
    outer loop
      vertex -8.35 10.1425 -2
      vertex -8.42082 10.1313 -2
      vertex -8.35 16.19 -2
    endloop
  endfacet
  facet normal 0 0 -1
    outer loop
      vertex -8.75534 8.01918 -2
      vertex -8.35 7.83751 -2
      vertex -8.42082 7.84873 -2
    endloop
  endfacet
  facet normal 0 0 -1
    outer loop
      vertex -9.02082 8.28466 -2
      vertex -8.35 7.83751 -2
      vertex -8.75534 8.01918 -2
    endloop
  endfacet
  facet normal 0 0 -1
    outer loop
      vertex -8.35 7.83751 -2
      vertex -9.02082 8.28466 -2
      vertex -8.35 10.1425 -2
    endloop
  endfacet
  facet normal 0 0 -1
    outer loop
      vertex -8.35 10.1425 -2
      vertex -8.75534 9.96082 -2
      vertex -8.42082 10.1313 -2
    endloop
  endfacet
  facet normal 0 0 -1
    outer loop
      vertex -9.02082 9.69534 -2
      vertex -8.35 10.1425 -2
      vertex -9.02082 8.28466 -2
    endloop
  endfacet
  facet normal 0 0 -1
    outer loop
      vertex -8.35 10.1425 -2
      vertex -9.02082 9.69534 -2
      vertex -8.75534 9.96082 -2
    endloop
  endfacet
  facet normal 0 0 -1
    outer loop
      vertex -9.19127 8.61918 -2
      vertex -9.02082 9.69534 -2
      vertex -9.02082 8.28466 -2
    endloop
  endfacet
  facet normal 0 0 -1
    outer loop
      vertex -9.19127 8.61918 -2
      vertex -9.19127 9.36082 -2
      vertex -9.02082 9.69534 -2
    endloop
  endfacet
  facet normal 0 -0 -1
    outer loop
      vertex -9.19127 9.36082 -2
      vertex -9.19127 8.61918 -2
      vertex -9.25 8.99 -2
    endloop
  endfacet
  facet normal 0 0 -1
    outer loop
      vertex -8.35 7.83751 -2
      vertex 8.35 7.83751 -2
      vertex 8.35 0 -2
    endloop
  endfacet
  facet normal 0 0 -1
    outer loop
      vertex 8.35 7.83751 -2
      vertex -8.35 7.83751 -2
      vertex 8.35 10.1425 -2
    endloop
  endfacet
  facet normal 0 0 -1
    outer loop
      vertex 8.35 10.1425 -2
      vertex 7.35 16.19 -2
      vertex 8.35 16.19 -2
    endloop
  endfacet
  facet normal 0 0 -1
    outer loop
      vertex 7.35 16.19 -2
      vertex -7.35 16.19 -2
      vertex 7.35 20 -2
    endloop
  endfacet
  facet normal 0 0 -1
    outer loop
      vertex -8.35 10.1425 -2
      vertex 8.35 10.1425 -2
      vertex -8.35 7.83751 -2
    endloop
  endfacet
  facet normal 0 0 -1
    outer loop
      vertex -8.35 7.83751 -2
      vertex 8.35 0 -2
      vertex -8.35 0 -2
    endloop
  endfacet
  facet normal 0 0 -1
    outer loop
      vertex 8.35 10.1425 -2
      vertex -8.35 10.1425 -2
      vertex 7.35 16.19 -2
    endloop
  endfacet
  facet normal -0 0 -1
    outer loop
      vertex 7.35 16.19 -2
      vertex -8.35 10.1425 -2
      vertex -7.35 16.19 -2
    endloop
  endfacet
  facet normal -0 0 -1
    outer loop
      vertex -7.35 16.19 -2
      vertex -8.35 10.1425 -2
      vertex -8.35 16.19 -2
    endloop
  endfacet
  facet normal 0 0 -1
    outer loop
      vertex 9.19127 8.61918 -2
      vertex 9.19127 9.36082 -2
      vertex 9.25 8.99 -2
    endloop
  endfacet
  facet normal 0 0 -1
    outer loop
      vertex 9.02082 8.28466 -2
      vertex 9.19127 9.36082 -2
      vertex 9.19127 8.61918 -2
    endloop
  endfacet
  facet normal 0 0 -1
    outer loop
      vertex 9.02082 8.28466 -2
      vertex 9.02082 9.69534 -2
      vertex 9.19127 9.36082 -2
    endloop
  endfacet
  facet normal 0 0 -1
    outer loop
      vertex 8.35 7.83751 -2
      vertex 9.02082 8.28466 -2
      vertex 8.75534 8.01918 -2
    endloop
  endfacet
  facet normal -0 0 -1
    outer loop
      vertex 9.02082 8.28466 -2
      vertex 8.35 7.83751 -2
      vertex 9.02082 9.69534 -2
    endloop
  endfacet
  facet normal 0 0 -1
    outer loop
      vertex 8.35 7.83751 -2
      vertex 8.75534 8.01918 -2
      vertex 8.42082 7.84873 -2
    endloop
  endfacet
  facet normal 0 0 -1
    outer loop
      vertex 8.35 10.1425 -2
      vertex 9.02082 9.69534 -2
      vertex 8.35 7.83751 -2
    endloop
  endfacet
  facet normal 0 0 -1
    outer loop
      vertex 9.02082 9.69534 -2
      vertex 8.35 10.1425 -2
      vertex 8.75534 9.96082 -2
    endloop
  endfacet
  facet normal 0 0 -1
    outer loop
      vertex 8.75534 9.96082 -2
      vertex 8.35 10.1425 -2
      vertex 8.42082 10.1313 -2
    endloop
  endfacet
  facet normal -0 0 -1
    outer loop
      vertex 7.35 20 -2
      vertex -7.35 16.19 -2
      vertex -7.35 20 -2
    endloop
  endfacet
  facet normal 0 0 -1
    outer loop
      vertex 25 0 -2
      vertex 19.55 10 -2
      vertex 25 20 -2
    endloop
  endfacet
  facet normal 0 0 -1
    outer loop
      vertex 25 0 -2
      vertex 19.5131 9.5307 -2
      vertex 19.55 10 -2
    endloop
  endfacet
  facet normal 0 0 -1
    outer loop
      vertex 25 0 -2
      vertex 19.4032 9.07295 -2
      vertex 19.5131 9.5307 -2
    endloop
  endfacet
  facet normal 0 0 -1
    outer loop
      vertex 25 0 -2
      vertex 19.223 8.63803 -2
      vertex 19.4032 9.07295 -2
    endloop
  endfacet
  facet normal 0 0 -1
    outer loop
      vertex 25 0 -2
      vertex 18.9771 8.23664 -2
      vertex 19.223 8.63803 -2
    endloop
  endfacet
  facet normal 0 0 -1
    outer loop
      vertex 25 0 -2
      vertex 18.6713 7.87868 -2
      vertex 18.9771 8.23664 -2
    endloop
  endfacet
  facet normal 0 0 -1
    outer loop
      vertex 25 0 -2
      vertex 18.3134 7.57295 -2
      vertex 18.6713 7.87868 -2
    endloop
  endfacet
  facet normal 0 0 -1
    outer loop
      vertex 25 0 -2
      vertex 17.912 7.32698 -2
      vertex 18.3134 7.57295 -2
    endloop
  endfacet
  facet normal 0 0 -1
    outer loop
      vertex 25 0 -2
      vertex 17.4771 7.14683 -2
      vertex 17.912 7.32698 -2
    endloop
  endfacet
  facet normal 0 0 -1
    outer loop
      vertex 25 0 -2
      vertex 17.0193 7.03694 -2
      vertex 17.4771 7.14683 -2
    endloop
  endfacet
  facet normal 0 0 -1
    outer loop
      vertex 25 0 -2
      vertex 16.55 7 -2
      vertex 17.0193 7.03694 -2
    endloop
  endfacet
  facet normal 0 0 -1
    outer loop
      vertex 8.35 0 -2
      vertex 16.55 7 -2
      vertex 25 0 -2
    endloop
  endfacet
  facet normal -0 0 -1
    outer loop
      vertex 16.55 7 -2
      vertex 8.35 0 -2
      vertex 16.0807 7.03694 -2
    endloop
  endfacet
  facet normal -0 0 -1
    outer loop
      vertex 16.0807 7.03694 -2
      vertex 8.35 0 -2
      vertex 15.6229 7.14683 -2
    endloop
  endfacet
  facet normal -0 0 -1
    outer loop
      vertex 15.6229 7.14683 -2
      vertex 8.35 0 -2
      vertex 15.188 7.32698 -2
    endloop
  endfacet
  facet normal 0 0 -1
    outer loop
      vertex 9.19127 9.36082 -2
      vertex 13.5869 9.5307 -2
      vertex 9.25 8.99 -2
    endloop
  endfacet
  facet normal -0 0 -1
    outer loop
      vertex 13.6968 9.07295 -2
      vertex 9.25 8.99 -2
      vertex 13.5869 9.5307 -2
    endloop
  endfacet
  facet normal 0 0 -1
    outer loop
      vertex 9.19127 8.61918 -2
      vertex 13.6968 9.07295 -2
      vertex 13.877 8.63803 -2
    endloop
  endfacet
  facet normal 0 0 -1
    outer loop
      vertex 9.02082 8.28466 -2
      vertex 13.877 8.63803 -2
      vertex 14.1229 8.23664 -2
    endloop
  endfacet
  facet normal 0 0 -1
    outer loop
      vertex 9.02082 8.28466 -2
      vertex 14.1229 8.23664 -2
      vertex 14.4287 7.87868 -2
    endloop
  endfacet
  facet normal 0 0 -1
    outer loop
      vertex 8.75534 8.01918 -2
      vertex 14.4287 7.87868 -2
      vertex 14.7866 7.57295 -2
    endloop
  endfacet
  facet normal -0 0 -1
    outer loop
      vertex 15.188 7.32698 -2
      vertex 8.35 0 -2
      vertex 14.7866 7.57295 -2
    endloop
  endfacet
  facet normal 0 0 -1
    outer loop
      vertex 13.6968 9.07295 -2
      vertex 9.19127 8.61918 -2
      vertex 9.25 8.99 -2
    endloop
  endfacet
  facet normal 0 0 -1
    outer loop
      vertex 13.877 8.63803 -2
      vertex 9.02082 8.28466 -2
      vertex 9.19127 8.61918 -2
    endloop
  endfacet
  facet normal 0 -0 -1
    outer loop
      vertex 8.75534 8.01918 -2
      vertex 14.7866 7.57295 -2
      vertex 8.35 0 -2
    endloop
  endfacet
  facet normal 0 0 -1
    outer loop
      vertex 14.4287 7.87868 -2
      vertex 8.75534 8.01918 -2
      vertex 9.02082 8.28466 -2
    endloop
  endfacet
  facet normal 0 0 -1
    outer loop
      vertex 8.75534 8.01918 -2
      vertex 8.35 0 -2
      vertex 8.42082 7.84873 -2
    endloop
  endfacet
  facet normal 0 0 -1
    outer loop
      vertex 8.42082 7.84873 -2
      vertex 8.35 0 -2
      vertex 8.35 7.83751 -2
    endloop
  endfacet
  facet normal 0 0 -1
    outer loop
      vertex 19.5131 10.4693 -2
      vertex 25 20 -2
      vertex 19.55 10 -2
    endloop
  endfacet
  facet normal 0 0 -1
    outer loop
      vertex 19.4032 10.9271 -2
      vertex 25 20 -2
      vertex 19.5131 10.4693 -2
    endloop
  endfacet
  facet normal 0 0 -1
    outer loop
      vertex 19.223 11.362 -2
      vertex 25 20 -2
      vertex 19.4032 10.9271 -2
    endloop
  endfacet
  facet normal 0 0 -1
    outer loop
      vertex 18.9771 11.7634 -2
      vertex 25 20 -2
      vertex 19.223 11.362 -2
    endloop
  endfacet
  facet normal 0 0 -1
    outer loop
      vertex 18.6713 12.1213 -2
      vertex 25 20 -2
      vertex 18.9771 11.7634 -2
    endloop
  endfacet
  facet normal 0 0 -1
    outer loop
      vertex 18.3134 12.4271 -2
      vertex 25 20 -2
      vertex 18.6713 12.1213 -2
    endloop
  endfacet
  facet normal 0 0 -1
    outer loop
      vertex 17.912 12.673 -2
      vertex 25 20 -2
      vertex 18.3134 12.4271 -2
    endloop
  endfacet
  facet normal 0 0 -1
    outer loop
      vertex 17.4771 12.8532 -2
      vertex 25 20 -2
      vertex 17.912 12.673 -2
    endloop
  endfacet
  facet normal 0 0 -1
    outer loop
      vertex 17.0193 12.9631 -2
      vertex 25 20 -2
      vertex 17.4771 12.8532 -2
    endloop
  endfacet
  facet normal 0 0 -1
    outer loop
      vertex 16.55 13 -2
      vertex 25 20 -2
      vertex 17.0193 12.9631 -2
    endloop
  endfacet
  facet normal 0 0 -1
    outer loop
      vertex 7.35 20 -2
      vertex 16.55 13 -2
      vertex 16.0807 12.9631 -2
    endloop
  endfacet
  facet normal 0 0 -1
    outer loop
      vertex 8.35 16.19 -2
      vertex 16.0807 12.9631 -2
      vertex 15.6229 12.8532 -2
    endloop
  endfacet
  facet normal 0 0 -1
    outer loop
      vertex 8.35 16.19 -2
      vertex 15.6229 12.8532 -2
      vertex 15.188 12.673 -2
    endloop
  endfacet
  facet normal 0 0 -1
    outer loop
      vertex 8.35 16.19 -2
      vertex 15.188 12.673 -2
      vertex 14.7866 12.4271 -2
    endloop
  endfacet
  facet normal -0 0 -1
    outer loop
      vertex 13.5869 9.5307 -2
      vertex 9.19127 9.36082 -2
      vertex 13.55 10 -2
    endloop
  endfacet
  facet normal -0 0 -1
    outer loop
      vertex 13.55 10 -2
      vertex 9.19127 9.36082 -2
      vertex 13.5869 10.4693 -2
    endloop
  endfacet
  facet normal 0 0 -1
    outer loop
      vertex 9.02082 9.69534 -2
      vertex 13.5869 10.4693 -2
      vertex 9.19127 9.36082 -2
    endloop
  endfacet
  facet normal -0 0 -1
    outer loop
      vertex 13.5869 10.4693 -2
      vertex 9.02082 9.69534 -2
      vertex 13.6968 10.9271 -2
    endloop
  endfacet
  facet normal 0 0 -1
    outer loop
      vertex 8.75534 9.96082 -2
      vertex 13.6968 10.9271 -2
      vertex 9.02082 9.69534 -2
    endloop
  endfacet
  facet normal -0 0 -1
    outer loop
      vertex 13.6968 10.9271 -2
      vertex 8.75534 9.96082 -2
      vertex 13.877 11.362 -2
    endloop
  endfacet
  facet normal 0 0 -1
    outer loop
      vertex 8.35 16.19 -2
      vertex 13.877 11.362 -2
      vertex 8.75534 9.96082 -2
    endloop
  endfacet
  facet normal 0 0 -1
    outer loop
      vertex 13.877 11.362 -2
      vertex 8.35 16.19 -2
      vertex 14.1229 11.7634 -2
    endloop
  endfacet
  facet normal 0 0 -1
    outer loop
      vertex 14.1229 11.7634 -2
      vertex 8.35 16.19 -2
      vertex 14.4287 12.1213 -2
    endloop
  endfacet
  facet normal 0 0 -1
    outer loop
      vertex 14.4287 12.1213 -2
      vertex 8.35 16.19 -2
      vertex 14.7866 12.4271 -2
    endloop
  endfacet
  facet normal 0 0 -1
    outer loop
      vertex 8.35 16.19 -2
      vertex 8.75534 9.96082 -2
      vertex 8.42082 10.1313 -2
    endloop
  endfacet
  facet normal 0 0 -1
    outer loop
      vertex 8.35 16.19 -2
      vertex 8.42082 10.1313 -2
      vertex 8.35 10.1425 -2
    endloop
  endfacet
  facet normal 0 0 -1
    outer loop
      vertex 16.0807 12.9631 -2
      vertex 8.35 16.19 -2
      vertex 7.35 20 -2
    endloop
  endfacet
  facet normal 0 0 -1
    outer loop
      vertex 7.35 20 -2
      vertex 8.35 16.19 -2
      vertex 7.35 16.19 -2
    endloop
  endfacet
  facet normal 0 0 -1
    outer loop
      vertex 16.55 13 -2
      vertex 7.35 20 -2
      vertex 25 20 -2
    endloop
  endfacet
  facet normal 0.923836 -0.38279 0
    outer loop
      vertex 13.6968 10.9271 0
      vertex 13.877 11.362 -2
      vertex 13.877 11.362 0
    endloop
  endfacet
  facet normal 0.923836 -0.38279 0
    outer loop
      vertex 13.877 11.362 -2
      vertex 13.6968 10.9271 0
      vertex 13.6968 10.9271 -2
    endloop
  endfacet
  facet normal -0.972374 -0.233429 0
    outer loop
      vertex 19.5131 10.4693 -2
      vertex 19.4032 10.9271 0
      vertex 19.4032 10.9271 -2
    endloop
  endfacet
  facet normal -0.972374 -0.233429 0
    outer loop
      vertex 19.4032 10.9271 0
      vertex 19.5131 10.4693 -2
      vertex 19.5131 10.4693 0
    endloop
  endfacet
  facet normal -0.996923 -0.0783858 0
    outer loop
      vertex 19.55 10 -2
      vertex 19.5131 10.4693 0
      vertex 19.5131 10.4693 -2
    endloop
  endfacet
  facet normal -0.996923 -0.0783858 0
    outer loop
      vertex 19.5131 10.4693 0
      vertex 19.55 10 -2
      vertex 19.55 10 0
    endloop
  endfacet
  facet normal -0.923836 -0.38279 0
    outer loop
      vertex 19.4032 10.9271 -2
      vertex 19.223 11.362 0
      vertex 19.223 11.362 -2
    endloop
  endfacet
  facet normal -0.923836 -0.38279 0
    outer loop
      vertex 19.223 11.362 0
      vertex 19.4032 10.9271 -2
      vertex 19.4032 10.9271 0
    endloop
  endfacet
  facet normal -0.522486 0.852648 0
    outer loop
      vertex 18.3134 7.57295 -2
      vertex 17.912 7.32698 0
      vertex 18.3134 7.57295 0
    endloop
  endfacet
  facet normal -0.522486 0.852648 0
    outer loop
      vertex 17.912 7.32698 0
      vertex 18.3134 7.57295 -2
      vertex 17.912 7.32698 -2
    endloop
  endfacet
  facet normal -0.972368 0.233453 0
    outer loop
      vertex 19.4032 9.07295 -2
      vertex 19.5131 9.5307 0
      vertex 19.5131 9.5307 -2
    endloop
  endfacet
  facet normal -0.972368 0.233453 0
    outer loop
      vertex 19.5131 9.5307 0
      vertex 19.4032 9.07295 -2
      vertex 19.4032 9.07295 0
    endloop
  endfacet
  facet normal -0.382699 0.923873 0
    outer loop
      vertex 17.912 7.32698 -2
      vertex 17.4771 7.14683 0
      vertex 17.912 7.32698 0
    endloop
  endfacet
  facet normal -0.382699 0.923873 0
    outer loop
      vertex 17.4771 7.14683 0
      vertex 17.912 7.32698 -2
      vertex 17.4771 7.14683 -2
    endloop
  endfacet
  facet normal 0.38279 -0.923836 0
    outer loop
      vertex 15.188 12.673 -2
      vertex 15.6229 12.8532 0
      vertex 15.188 12.673 0
    endloop
  endfacet
  facet normal 0.38279 -0.923836 0
    outer loop
      vertex 15.6229 12.8532 0
      vertex 15.188 12.673 -2
      vertex 15.6229 12.8532 -2
    endloop
  endfacet
  facet normal 0.382699 0.923873 -0
    outer loop
      vertex 15.6229 7.14683 -2
      vertex 15.188 7.32698 0
      vertex 15.6229 7.14683 0
    endloop
  endfacet
  facet normal 0.382699 0.923873 0
    outer loop
      vertex 15.188 7.32698 0
      vertex 15.6229 7.14683 -2
      vertex 15.188 7.32698 -2
    endloop
  endfacet
  facet normal 0.522378 -0.852714 0
    outer loop
      vertex 14.7866 12.4271 -2
      vertex 15.188 12.673 0
      vertex 14.7866 12.4271 0
    endloop
  endfacet
  facet normal 0.522378 -0.852714 0
    outer loop
      vertex 15.188 12.673 0
      vertex 14.7866 12.4271 -2
      vertex 15.188 12.673 -2
    endloop
  endfacet
  facet normal -0.649601 -0.760275 0
    outer loop
      vertex 18.3134 12.4271 -2
      vertex 18.6713 12.1213 0
      vertex 18.3134 12.4271 0
    endloop
  endfacet
  facet normal -0.649601 -0.760275 -0
    outer loop
      vertex 18.6713 12.1213 0
      vertex 18.3134 12.4271 -2
      vertex 18.6713 12.1213 -2
    endloop
  endfacet
  facet normal 0.233429 -0.972374 0
    outer loop
      vertex 15.6229 12.8532 -2
      vertex 16.0807 12.9631 0
      vertex 15.6229 12.8532 0
    endloop
  endfacet
  facet normal 0.233429 -0.972374 0
    outer loop
      vertex 16.0807 12.9631 0
      vertex 15.6229 12.8532 -2
      vertex 16.0807 12.9631 -2
    endloop
  endfacet
  facet normal 0.923842 0.382775 0
    outer loop
      vertex 13.877 8.63803 0
      vertex 13.6968 9.07295 -2
      vertex 13.6968 9.07295 0
    endloop
  endfacet
  facet normal 0.923842 0.382775 0
    outer loop
      vertex 13.6968 9.07295 -2
      vertex 13.877 8.63803 0
      vertex 13.877 8.63803 -2
    endloop
  endfacet
  facet normal 0.0783858 -0.996923 0
    outer loop
      vertex 16.0807 12.9631 -2
      vertex 16.55 13 0
      vertex 16.0807 12.9631 0
    endloop
  endfacet
  facet normal 0.0783858 -0.996923 0
    outer loop
      vertex 16.55 13 0
      vertex 16.0807 12.9631 -2
      vertex 16.55 13 -2
    endloop
  endfacet
  facet normal 0.233409 0.972379 -0
    outer loop
      vertex 16.0807 7.03694 -2
      vertex 15.6229 7.14683 0
      vertex 16.0807 7.03694 0
    endloop
  endfacet
  facet normal 0.233409 0.972379 0
    outer loop
      vertex 15.6229 7.14683 0
      vertex 16.0807 7.03694 -2
      vertex 15.6229 7.14683 -2
    endloop
  endfacet
  facet normal -0.923842 0.382775 0
    outer loop
      vertex 19.223 8.63803 -2
      vertex 19.4032 9.07295 0
      vertex 19.4032 9.07295 -2
    endloop
  endfacet
  facet normal -0.923842 0.382775 0
    outer loop
      vertex 19.4032 9.07295 0
      vertex 19.223 8.63803 -2
      vertex 19.223 8.63803 0
    endloop
  endfacet
  facet normal 0.760329 0.649538 0
    outer loop
      vertex 14.4287 7.87868 0
      vertex 14.1229 8.23664 -2
      vertex 14.1229 8.23664 0
    endloop
  endfacet
  facet normal 0.760329 0.649538 0
    outer loop
      vertex 14.1229 8.23664 -2
      vertex 14.4287 7.87868 0
      vertex 14.4287 7.87868 -2
    endloop
  endfacet
  facet normal 0.649601 -0.760275 0
    outer loop
      vertex 14.4287 12.1213 -2
      vertex 14.7866 12.4271 0
      vertex 14.4287 12.1213 0
    endloop
  endfacet
  facet normal 0.649601 -0.760275 0
    outer loop
      vertex 14.7866 12.4271 0
      vertex 14.4287 12.1213 -2
      vertex 14.7866 12.4271 -2
    endloop
  endfacet
  facet normal -0.0784703 0.996916 0
    outer loop
      vertex 17.0193 7.03694 -2
      vertex 16.55 7 0
      vertex 17.0193 7.03694 0
    endloop
  endfacet
  facet normal -0.0784703 0.996916 0
    outer loop
      vertex 16.55 7 0
      vertex 17.0193 7.03694 -2
      vertex 16.55 7 -2
    endloop
  endfacet
  facet normal 0.649515 0.760349 -0
    outer loop
      vertex 14.7866 7.57295 -2
      vertex 14.4287 7.87868 0
      vertex 14.7866 7.57295 0
    endloop
  endfacet
  facet normal 0.649515 0.760349 0
    outer loop
      vertex 14.4287 7.87868 0
      vertex 14.7866 7.57295 -2
      vertex 14.4287 7.87868 -2
    endloop
  endfacet
  facet normal -0.852708 0.522387 0
    outer loop
      vertex 18.9771 8.23664 -2
      vertex 19.223 8.63803 0
      vertex 19.223 8.63803 -2
    endloop
  endfacet
  facet normal -0.852708 0.522387 0
    outer loop
      vertex 19.223 8.63803 0
      vertex 18.9771 8.23664 -2
      vertex 18.9771 8.23664 0
    endloop
  endfacet
  facet normal -0.852714 -0.522378 0
    outer loop
      vertex 19.223 11.362 -2
      vertex 18.9771 11.7634 0
      vertex 18.9771 11.7634 -2
    endloop
  endfacet
  facet normal -0.852714 -0.522378 0
    outer loop
      vertex 18.9771 11.7634 0
      vertex 19.223 11.362 -2
      vertex 19.223 11.362 0
    endloop
  endfacet
  facet normal -0.760275 -0.649601 0
    outer loop
      vertex 18.9771 11.7634 -2
      vertex 18.6713 12.1213 0
      vertex 18.6713 12.1213 -2
    endloop
  endfacet
  facet normal -0.760275 -0.649601 0
    outer loop
      vertex 18.6713 12.1213 0
      vertex 18.9771 11.7634 -2
      vertex 18.9771 11.7634 0
    endloop
  endfacet
  facet normal 0.760275 -0.649601 0
    outer loop
      vertex 14.1229 11.7634 0
      vertex 14.4287 12.1213 -2
      vertex 14.4287 12.1213 0
    endloop
  endfacet
  facet normal 0.760275 -0.649601 0
    outer loop
      vertex 14.4287 12.1213 -2
      vertex 14.1229 11.7634 0
      vertex 14.1229 11.7634 -2
    endloop
  endfacet
  facet normal -0.0783858 -0.996923 0
    outer loop
      vertex 16.55 13 -2
      vertex 17.0193 12.9631 0
      vertex 16.55 13 0
    endloop
  endfacet
  facet normal -0.0783858 -0.996923 -0
    outer loop
      vertex 17.0193 12.9631 0
      vertex 16.55 13 -2
      vertex 17.0193 12.9631 -2
    endloop
  endfacet
  facet normal -0.38279 -0.923836 0
    outer loop
      vertex 17.4771 12.8532 -2
      vertex 17.912 12.673 0
      vertex 17.4771 12.8532 0
    endloop
  endfacet
  facet normal -0.38279 -0.923836 -0
    outer loop
      vertex 17.912 12.673 0
      vertex 17.4771 12.8532 -2
      vertex 17.912 12.673 -2
    endloop
  endfacet
  facet normal 0.972374 -0.233429 0
    outer loop
      vertex 13.5869 10.4693 0
      vertex 13.6968 10.9271 -2
      vertex 13.6968 10.9271 0
    endloop
  endfacet
  facet normal 0.972374 -0.233429 0
    outer loop
      vertex 13.6968 10.9271 -2
      vertex 13.5869 10.4693 0
      vertex 13.5869 10.4693 -2
    endloop
  endfacet
  facet normal 0.972368 0.233453 0
    outer loop
      vertex 13.6968 9.07295 0
      vertex 13.5869 9.5307 -2
      vertex 13.5869 9.5307 0
    endloop
  endfacet
  facet normal 0.972368 0.233453 0
    outer loop
      vertex 13.5869 9.5307 -2
      vertex 13.6968 9.07295 0
      vertex 13.6968 9.07295 -2
    endloop
  endfacet
  facet normal -0.522378 -0.852714 0
    outer loop
      vertex 17.912 12.673 -2
      vertex 18.3134 12.4271 0
      vertex 17.912 12.673 0
    endloop
  endfacet
  facet normal -0.522378 -0.852714 -0
    outer loop
      vertex 18.3134 12.4271 0
      vertex 17.912 12.673 -2
      vertex 18.3134 12.4271 -2
    endloop
  endfacet
  facet normal -0.233409 0.972379 0
    outer loop
      vertex 17.4771 7.14683 -2
      vertex 17.0193 7.03694 0
      vertex 17.4771 7.14683 0
    endloop
  endfacet
  facet normal -0.233409 0.972379 0
    outer loop
      vertex 17.0193 7.03694 0
      vertex 17.4771 7.14683 -2
      vertex 17.0193 7.03694 -2
    endloop
  endfacet
  facet normal -0.996923 0.0783858 0
    outer loop
      vertex 19.5131 9.5307 -2
      vertex 19.55 10 0
      vertex 19.55 10 -2
    endloop
  endfacet
  facet normal -0.996923 0.0783858 0
    outer loop
      vertex 19.55 10 0
      vertex 19.5131 9.5307 -2
      vertex 19.5131 9.5307 0
    endloop
  endfacet
  facet normal -0.760329 0.649538 0
    outer loop
      vertex 18.6713 7.87868 -2
      vertex 18.9771 8.23664 0
      vertex 18.9771 8.23664 -2
    endloop
  endfacet
  facet normal -0.760329 0.649538 0
    outer loop
      vertex 18.9771 8.23664 0
      vertex 18.6713 7.87868 -2
      vertex 18.6713 7.87868 0
    endloop
  endfacet
  facet normal 0.852708 0.522387 0
    outer loop
      vertex 14.1229 8.23664 0
      vertex 13.877 8.63803 -2
      vertex 13.877 8.63803 0
    endloop
  endfacet
  facet normal 0.852708 0.522387 0
    outer loop
      vertex 13.877 8.63803 -2
      vertex 14.1229 8.23664 0
      vertex 14.1229 8.23664 -2
    endloop
  endfacet
  facet normal 0.996923 0.0783858 0
    outer loop
      vertex 13.5869 9.5307 0
      vertex 13.55 10 -2
      vertex 13.55 10 0
    endloop
  endfacet
  facet normal 0.996923 0.0783858 0
    outer loop
      vertex 13.55 10 -2
      vertex 13.5869 9.5307 0
      vertex 13.5869 9.5307 -2
    endloop
  endfacet
  facet normal 0.0784703 0.996916 -0
    outer loop
      vertex 16.55 7 -2
      vertex 16.0807 7.03694 0
      vertex 16.55 7 0
    endloop
  endfacet
  facet normal 0.0784703 0.996916 0
    outer loop
      vertex 16.0807 7.03694 0
      vertex 16.55 7 -2
      vertex 16.0807 7.03694 -2
    endloop
  endfacet
  facet normal -0.233429 -0.972374 0
    outer loop
      vertex 17.0193 12.9631 -2
      vertex 17.4771 12.8532 0
      vertex 17.0193 12.9631 0
    endloop
  endfacet
  facet normal -0.233429 -0.972374 -0
    outer loop
      vertex 17.4771 12.8532 0
      vertex 17.0193 12.9631 -2
      vertex 17.4771 12.8532 -2
    endloop
  endfacet
  facet normal 0.522486 0.852648 -0
    outer loop
      vertex 15.188 7.32698 -2
      vertex 14.7866 7.57295 0
      vertex 15.188 7.32698 0
    endloop
  endfacet
  facet normal 0.522486 0.852648 0
    outer loop
      vertex 14.7866 7.57295 0
      vertex 15.188 7.32698 -2
      vertex 14.7866 7.57295 -2
    endloop
  endfacet
  facet normal 0.996923 -0.0783858 0
    outer loop
      vertex 13.55 10 0
      vertex 13.5869 10.4693 -2
      vertex 13.5869 10.4693 0
    endloop
  endfacet
  facet normal 0.996923 -0.0783858 0
    outer loop
      vertex 13.5869 10.4693 -2
      vertex 13.55 10 0
      vertex 13.55 10 -2
    endloop
  endfacet
  facet normal 0.852714 -0.522378 0
    outer loop
      vertex 13.877 11.362 0
      vertex 14.1229 11.7634 -2
      vertex 14.1229 11.7634 0
    endloop
  endfacet
  facet normal 0.852714 -0.522378 0
    outer loop
      vertex 14.1229 11.7634 -2
      vertex 13.877 11.362 0
      vertex 13.877 11.362 -2
    endloop
  endfacet
  facet normal -0.649515 0.760349 0
    outer loop
      vertex 18.6713 7.87868 -2
      vertex 18.3134 7.57295 0
      vertex 18.6713 7.87868 0
    endloop
  endfacet
  facet normal -0.649515 0.760349 0
    outer loop
      vertex 18.3134 7.57295 0
      vertex 18.6713 7.87868 -2
      vertex 18.3134 7.57295 -2
    endloop
  endfacet
  facet normal -1 0 0
    outer loop
      vertex 22.55 7.1 0
      vertex 22.55 12.9 1
      vertex 22.55 12.9 0
    endloop
  endfacet
  facet normal -1 -0 0
    outer loop
      vertex 22.55 12.9 1
      vertex 22.55 7.1 0
      vertex 22.55 7.1 1
    endloop
  endfacet
  facet normal 1 -0 0
    outer loop
      vertex 10.55 7.1 1
      vertex 10.55 12.9 0
      vertex 10.55 12.9 1
    endloop
  endfacet
  facet normal 1 0 0
    outer loop
      vertex 10.55 12.9 0
      vertex 10.55 7.1 1
      vertex 10.55 7.1 0
    endloop
  endfacet
  facet normal 0.923836 -0.38279 0
    outer loop
      vertex -19.4032 10.9271 0
      vertex -19.223 11.362 -2
      vertex -19.223 11.362 0
    endloop
  endfacet
  facet normal 0.923836 -0.38279 0
    outer loop
      vertex -19.223 11.362 -2
      vertex -19.4032 10.9271 0
      vertex -19.4032 10.9271 -2
    endloop
  endfacet
  facet normal -0.972374 -0.233429 0
    outer loop
      vertex -13.5869 10.4693 -2
      vertex -13.6968 10.9271 0
      vertex -13.6968 10.9271 -2
    endloop
  endfacet
  facet normal -0.972374 -0.233429 0
    outer loop
      vertex -13.6968 10.9271 0
      vertex -13.5869 10.4693 -2
      vertex -13.5869 10.4693 0
    endloop
  endfacet
  facet normal -0.996923 -0.0783858 0
    outer loop
      vertex -13.55 10 -2
      vertex -13.5869 10.4693 0
      vertex -13.5869 10.4693 -2
    endloop
  endfacet
  facet normal -0.996923 -0.0783858 0
    outer loop
      vertex -13.5869 10.4693 0
      vertex -13.55 10 -2
      vertex -13.55 10 0
    endloop
  endfacet
  facet normal -0.923836 -0.38279 0
    outer loop
      vertex -13.6968 10.9271 -2
      vertex -13.877 11.362 0
      vertex -13.877 11.362 -2
    endloop
  endfacet
  facet normal -0.923836 -0.38279 0
    outer loop
      vertex -13.877 11.362 0
      vertex -13.6968 10.9271 -2
      vertex -13.6968 10.9271 0
    endloop
  endfacet
  facet normal -0.522486 0.852648 0
    outer loop
      vertex -14.7866 7.57295 -2
      vertex -15.188 7.32698 0
      vertex -14.7866 7.57295 0
    endloop
  endfacet
  facet normal -0.522486 0.852648 0
    outer loop
      vertex -15.188 7.32698 0
      vertex -14.7866 7.57295 -2
      vertex -15.188 7.32698 -2
    endloop
  endfacet
  facet normal -0.972368 0.233453 0
    outer loop
      vertex -13.6968 9.07295 -2
      vertex -13.5869 9.5307 0
      vertex -13.5869 9.5307 -2
    endloop
  endfacet
  facet normal -0.972368 0.233453 0
    outer loop
      vertex -13.5869 9.5307 0
      vertex -13.6968 9.07295 -2
      vertex -13.6968 9.07295 0
    endloop
  endfacet
  facet normal -0.382699 0.923873 0
    outer loop
      vertex -15.188 7.32698 -2
      vertex -15.6229 7.14683 0
      vertex -15.188 7.32698 0
    endloop
  endfacet
  facet normal -0.382699 0.923873 0
    outer loop
      vertex -15.6229 7.14683 0
      vertex -15.188 7.32698 -2
      vertex -15.6229 7.14683 -2
    endloop
  endfacet
  facet normal 0.38279 -0.923836 0
    outer loop
      vertex -17.912 12.673 -2
      vertex -17.4771 12.8532 0
      vertex -17.912 12.673 0
    endloop
  endfacet
  facet normal 0.38279 -0.923836 0
    outer loop
      vertex -17.4771 12.8532 0
      vertex -17.912 12.673 -2
      vertex -17.4771 12.8532 -2
    endloop
  endfacet
  facet normal 0.382699 0.923873 -0
    outer loop
      vertex -17.4771 7.14683 -2
      vertex -17.912 7.32698 0
      vertex -17.4771 7.14683 0
    endloop
  endfacet
  facet normal 0.382699 0.923873 0
    outer loop
      vertex -17.912 7.32698 0
      vertex -17.4771 7.14683 -2
      vertex -17.912 7.32698 -2
    endloop
  endfacet
  facet normal 0.522378 -0.852714 0
    outer loop
      vertex -18.3134 12.4271 -2
      vertex -17.912 12.673 0
      vertex -18.3134 12.4271 0
    endloop
  endfacet
  facet normal 0.522378 -0.852714 0
    outer loop
      vertex -17.912 12.673 0
      vertex -18.3134 12.4271 -2
      vertex -17.912 12.673 -2
    endloop
  endfacet
  facet normal -0.649601 -0.760275 0
    outer loop
      vertex -14.7866 12.4271 -2
      vertex -14.4287 12.1213 0
      vertex -14.7866 12.4271 0
    endloop
  endfacet
  facet normal -0.649601 -0.760275 -0
    outer loop
      vertex -14.4287 12.1213 0
      vertex -14.7866 12.4271 -2
      vertex -14.4287 12.1213 -2
    endloop
  endfacet
  facet normal 0.233429 -0.972374 0
    outer loop
      vertex -17.4771 12.8532 -2
      vertex -17.0193 12.9631 0
      vertex -17.4771 12.8532 0
    endloop
  endfacet
  facet normal 0.233429 -0.972374 0
    outer loop
      vertex -17.0193 12.9631 0
      vertex -17.4771 12.8532 -2
      vertex -17.0193 12.9631 -2
    endloop
  endfacet
  facet normal 0.923842 0.382775 0
    outer loop
      vertex -19.223 8.63803 0
      vertex -19.4032 9.07295 -2
      vertex -19.4032 9.07295 0
    endloop
  endfacet
  facet normal 0.923842 0.382775 0
    outer loop
      vertex -19.4032 9.07295 -2
      vertex -19.223 8.63803 0
      vertex -19.223 8.63803 -2
    endloop
  endfacet
  facet normal 0.0783858 -0.996923 0
    outer loop
      vertex -17.0193 12.9631 -2
      vertex -16.55 13 0
      vertex -17.0193 12.9631 0
    endloop
  endfacet
  facet normal 0.0783858 -0.996923 0
    outer loop
      vertex -16.55 13 0
      vertex -17.0193 12.9631 -2
      vertex -16.55 13 -2
    endloop
  endfacet
  facet normal 0.233409 0.972379 -0
    outer loop
      vertex -17.0193 7.03694 -2
      vertex -17.4771 7.14683 0
      vertex -17.0193 7.03694 0
    endloop
  endfacet
  facet normal 0.233409 0.972379 0
    outer loop
      vertex -17.4771 7.14683 0
      vertex -17.0193 7.03694 -2
      vertex -17.4771 7.14683 -2
    endloop
  endfacet
  facet normal -0.923842 0.382775 0
    outer loop
      vertex -13.877 8.63803 -2
      vertex -13.6968 9.07295 0
      vertex -13.6968 9.07295 -2
    endloop
  endfacet
  facet normal -0.923842 0.382775 0
    outer loop
      vertex -13.6968 9.07295 0
      vertex -13.877 8.63803 -2
      vertex -13.877 8.63803 0
    endloop
  endfacet
  facet normal 0.760329 0.649538 0
    outer loop
      vertex -18.6713 7.87868 0
      vertex -18.9771 8.23664 -2
      vertex -18.9771 8.23664 0
    endloop
  endfacet
  facet normal 0.760329 0.649538 0
    outer loop
      vertex -18.9771 8.23664 -2
      vertex -18.6713 7.87868 0
      vertex -18.6713 7.87868 -2
    endloop
  endfacet
  facet normal 0.649601 -0.760275 0
    outer loop
      vertex -18.6713 12.1213 -2
      vertex -18.3134 12.4271 0
      vertex -18.6713 12.1213 0
    endloop
  endfacet
  facet normal 0.649601 -0.760275 0
    outer loop
      vertex -18.3134 12.4271 0
      vertex -18.6713 12.1213 -2
      vertex -18.3134 12.4271 -2
    endloop
  endfacet
  facet normal -0.0784703 0.996916 0
    outer loop
      vertex -16.0807 7.03694 -2
      vertex -16.55 7 0
      vertex -16.0807 7.03694 0
    endloop
  endfacet
  facet normal -0.0784703 0.996916 0
    outer loop
      vertex -16.55 7 0
      vertex -16.0807 7.03694 -2
      vertex -16.55 7 -2
    endloop
  endfacet
  facet normal 0.649515 0.760349 -0
    outer loop
      vertex -18.3134 7.57295 -2
      vertex -18.6713 7.87868 0
      vertex -18.3134 7.57295 0
    endloop
  endfacet
  facet normal 0.649515 0.760349 0
    outer loop
      vertex -18.6713 7.87868 0
      vertex -18.3134 7.57295 -2
      vertex -18.6713 7.87868 -2
    endloop
  endfacet
  facet normal -0.852708 0.522387 0
    outer loop
      vertex -14.1229 8.23664 -2
      vertex -13.877 8.63803 0
      vertex -13.877 8.63803 -2
    endloop
  endfacet
  facet normal -0.852708 0.522387 0
    outer loop
      vertex -13.877 8.63803 0
      vertex -14.1229 8.23664 -2
      vertex -14.1229 8.23664 0
    endloop
  endfacet
  facet normal -0.852714 -0.522378 0
    outer loop
      vertex -13.877 11.362 -2
      vertex -14.1229 11.7634 0
      vertex -14.1229 11.7634 -2
    endloop
  endfacet
  facet normal -0.852714 -0.522378 0
    outer loop
      vertex -14.1229 11.7634 0
      vertex -13.877 11.362 -2
      vertex -13.877 11.362 0
    endloop
  endfacet
  facet normal -0.760275 -0.649601 0
    outer loop
      vertex -14.1229 11.7634 -2
      vertex -14.4287 12.1213 0
      vertex -14.4287 12.1213 -2
    endloop
  endfacet
  facet normal -0.760275 -0.649601 0
    outer loop
      vertex -14.4287 12.1213 0
      vertex -14.1229 11.7634 -2
      vertex -14.1229 11.7634 0
    endloop
  endfacet
  facet normal 0.760275 -0.649601 0
    outer loop
      vertex -18.9771 11.7634 0
      vertex -18.6713 12.1213 -2
      vertex -18.6713 12.1213 0
    endloop
  endfacet
  facet normal 0.760275 -0.649601 0
    outer loop
      vertex -18.6713 12.1213 -2
      vertex -18.9771 11.7634 0
      vertex -18.9771 11.7634 -2
    endloop
  endfacet
  facet normal -0.0783858 -0.996923 0
    outer loop
      vertex -16.55 13 -2
      vertex -16.0807 12.9631 0
      vertex -16.55 13 0
    endloop
  endfacet
  facet normal -0.0783858 -0.996923 -0
    outer loop
      vertex -16.0807 12.9631 0
      vertex -16.55 13 -2
      vertex -16.0807 12.9631 -2
    endloop
  endfacet
  facet normal -0.38279 -0.923836 0
    outer loop
      vertex -15.6229 12.8532 -2
      vertex -15.188 12.673 0
      vertex -15.6229 12.8532 0
    endloop
  endfacet
  facet normal -0.38279 -0.923836 -0
    outer loop
      vertex -15.188 12.673 0
      vertex -15.6229 12.8532 -2
      vertex -15.188 12.673 -2
    endloop
  endfacet
  facet normal 0.972374 -0.233429 0
    outer loop
      vertex -19.5131 10.4693 0
      vertex -19.4032 10.9271 -2
      vertex -19.4032 10.9271 0
    endloop
  endfacet
  facet normal 0.972374 -0.233429 0
    outer loop
      vertex -19.4032 10.9271 -2
      vertex -19.5131 10.4693 0
      vertex -19.5131 10.4693 -2
    endloop
  endfacet
  facet normal 0.972368 0.233453 0
    outer loop
      vertex -19.4032 9.07295 0
      vertex -19.5131 9.5307 -2
      vertex -19.5131 9.5307 0
    endloop
  endfacet
  facet normal 0.972368 0.233453 0
    outer loop
      vertex -19.5131 9.5307 -2
      vertex -19.4032 9.07295 0
      vertex -19.4032 9.07295 -2
    endloop
  endfacet
  facet normal -0.522378 -0.852714 0
    outer loop
      vertex -15.188 12.673 -2
      vertex -14.7866 12.4271 0
      vertex -15.188 12.673 0
    endloop
  endfacet
  facet normal -0.522378 -0.852714 -0
    outer loop
      vertex -14.7866 12.4271 0
      vertex -15.188 12.673 -2
      vertex -14.7866 12.4271 -2
    endloop
  endfacet
  facet normal -0.233409 0.972379 0
    outer loop
      vertex -15.6229 7.14683 -2
      vertex -16.0807 7.03694 0
      vertex -15.6229 7.14683 0
    endloop
  endfacet
  facet normal -0.233409 0.972379 0
    outer loop
      vertex -16.0807 7.03694 0
      vertex -15.6229 7.14683 -2
      vertex -16.0807 7.03694 -2
    endloop
  endfacet
  facet normal -0.996923 0.0783858 0
    outer loop
      vertex -13.5869 9.5307 -2
      vertex -13.55 10 0
      vertex -13.55 10 -2
    endloop
  endfacet
  facet normal -0.996923 0.0783858 0
    outer loop
      vertex -13.55 10 0
      vertex -13.5869 9.5307 -2
      vertex -13.5869 9.5307 0
    endloop
  endfacet
  facet normal -0.760329 0.649538 0
    outer loop
      vertex -14.4287 7.87868 -2
      vertex -14.1229 8.23664 0
      vertex -14.1229 8.23664 -2
    endloop
  endfacet
  facet normal -0.760329 0.649538 0
    outer loop
      vertex -14.1229 8.23664 0
      vertex -14.4287 7.87868 -2
      vertex -14.4287 7.87868 0
    endloop
  endfacet
  facet normal 0.852708 0.522387 0
    outer loop
      vertex -18.9771 8.23664 0
      vertex -19.223 8.63803 -2
      vertex -19.223 8.63803 0
    endloop
  endfacet
  facet normal 0.852708 0.522387 0
    outer loop
      vertex -19.223 8.63803 -2
      vertex -18.9771 8.23664 0
      vertex -18.9771 8.23664 -2
    endloop
  endfacet
  facet normal 0.996923 0.0783858 0
    outer loop
      vertex -19.5131 9.5307 0
      vertex -19.55 10 -2
      vertex -19.55 10 0
    endloop
  endfacet
  facet normal 0.996923 0.0783858 0
    outer loop
      vertex -19.55 10 -2
      vertex -19.5131 9.5307 0
      vertex -19.5131 9.5307 -2
    endloop
  endfacet
  facet normal 0.0784703 0.996916 -0
    outer loop
      vertex -16.55 7 -2
      vertex -17.0193 7.03694 0
      vertex -16.55 7 0
    endloop
  endfacet
  facet normal 0.0784703 0.996916 0
    outer loop
      vertex -17.0193 7.03694 0
      vertex -16.55 7 -2
      vertex -17.0193 7.03694 -2
    endloop
  endfacet
  facet normal -0.233429 -0.972374 0
    outer loop
      vertex -16.0807 12.9631 -2
      vertex -15.6229 12.8532 0
      vertex -16.0807 12.9631 0
    endloop
  endfacet
  facet normal -0.233429 -0.972374 -0
    outer loop
      vertex -15.6229 12.8532 0
      vertex -16.0807 12.9631 -2
      vertex -15.6229 12.8532 -2
    endloop
  endfacet
  facet normal 0.522486 0.852648 -0
    outer loop
      vertex -17.912 7.32698 -2
      vertex -18.3134 7.57295 0
      vertex -17.912 7.32698 0
    endloop
  endfacet
  facet normal 0.522486 0.852648 0
    outer loop
      vertex -18.3134 7.57295 0
      vertex -17.912 7.32698 -2
      vertex -18.3134 7.57295 -2
    endloop
  endfacet
  facet normal 0.996923 -0.0783858 0
    outer loop
      vertex -19.55 10 0
      vertex -19.5131 10.4693 -2
      vertex -19.5131 10.4693 0
    endloop
  endfacet
  facet normal 0.996923 -0.0783858 0
    outer loop
      vertex -19.5131 10.4693 -2
      vertex -19.55 10 0
      vertex -19.55 10 -2
    endloop
  endfacet
  facet normal 0.852714 -0.522378 0
    outer loop
      vertex -19.223 11.362 0
      vertex -18.9771 11.7634 -2
      vertex -18.9771 11.7634 0
    endloop
  endfacet
  facet normal 0.852714 -0.522378 0
    outer loop
      vertex -18.9771 11.7634 -2
      vertex -19.223 11.362 0
      vertex -19.223 11.362 -2
    endloop
  endfacet
  facet normal -0.649515 0.760349 0
    outer loop
      vertex -14.4287 7.87868 -2
      vertex -14.7866 7.57295 0
      vertex -14.4287 7.87868 0
    endloop
  endfacet
  facet normal -0.649515 0.760349 0
    outer loop
      vertex -14.7866 7.57295 0
      vertex -14.4287 7.87868 -2
      vertex -14.7866 7.57295 -2
    endloop
  endfacet
  facet normal -1 0 0
    outer loop
      vertex -10.55 7.1 0
      vertex -10.55 12.9 1
      vertex -10.55 12.9 0
    endloop
  endfacet
  facet normal -1 -0 0
    outer loop
      vertex -10.55 12.9 1
      vertex -10.55 7.1 0
      vertex -10.55 7.1 1
    endloop
  endfacet
  facet normal 1 -0 0
    outer loop
      vertex -22.55 7.1 1
      vertex -22.55 12.9 0
      vertex -22.55 12.9 1
    endloop
  endfacet
  facet normal 1 0 0
    outer loop
      vertex -22.55 12.9 0
      vertex -22.55 7.1 1
      vertex -22.55 7.1 0
    endloop
  endfacet
endsolid OpenSCAD_Model
