solid OpenSCAD_Model
  facet normal -1 0 0
    outer loop
      vertex -23 20 -2
      vertex -23 12.9 0
      vertex -23 20 0
    endloop
  endfacet
  facet normal -1 0 0
    outer loop
      vertex -23 12.9 0
      vertex -23 7.1 0
      vertex -23 12.9 1
    endloop
  endfacet
  facet normal -1 0 0
    outer loop
      vertex -23 20 -2
      vertex -23 7.1 0
      vertex -23 12.9 0
    endloop
  endfacet
  facet normal -1 0 0
    outer loop
      vertex -23 0 -2
      vertex -23 7.1 0
      vertex -23 20 -2
    endloop
  endfacet
  facet normal -1 -0 0
    outer loop
      vertex -23 7.1 0
      vertex -23 0 -2
      vertex -23 0 0
    endloop
  endfacet
  facet normal -1 -0 0
    outer loop
      vertex -23 12.9 1
      vertex -23 7.1 0
      vertex -23 7.1 1
    endloop
  endfacet
  facet normal 0 0 1
    outer loop
      vertex 23 20 0
      vertex 21.45 17 0
      vertex 23 12.9 0
    endloop
  endfacet
  facet normal 0 0 1
    outer loop
      vertex 23 20 0
      vertex 9.45 17 0
      vertex 21.45 17 0
    endloop
  endfacet
  facet normal 0 0 1
    outer loop
      vertex 9.45 17 0
      vertex -9.45 17 0
      vertex 9.45 12.9 0
    endloop
  endfacet
  facet normal 0 0 1
    outer loop
      vertex 23 20 0
      vertex -9.45 17 0
      vertex 9.45 17 0
    endloop
  endfacet
  facet normal -0 0 1
    outer loop
      vertex -23 20 0
      vertex -9.45 17 0
      vertex 23 20 0
    endloop
  endfacet
  facet normal 0 0 1
    outer loop
      vertex -9.45 17 0
      vertex -23 20 0
      vertex -21.45 17 0
    endloop
  endfacet
  facet normal 0 0 1
    outer loop
      vertex -23 12.9 0
      vertex -21.45 17 0
      vertex -23 20 0
    endloop
  endfacet
  facet normal 0 0 1
    outer loop
      vertex -21.45 17 0
      vertex -23 12.9 0
      vertex -21.45 12.9 0
    endloop
  endfacet
  facet normal 0 0 1
    outer loop
      vertex 23 12.9 0
      vertex 21.45 17 0
      vertex 21.45 12.9 0
    endloop
  endfacet
  facet normal 0 0 1
    outer loop
      vertex 9.45 12.9 0
      vertex -9.45 17 0
      vertex -9.45 12.9 0
    endloop
  endfacet
  facet normal 0 0 1
    outer loop
      vertex -21.45 7.1 0
      vertex -23 7.1 0
      vertex -21.45 3 0
    endloop
  endfacet
  facet normal 0 0 1
    outer loop
      vertex 9.45 7.1 0
      vertex -9.45 7.1 0
      vertex 9.45 3 0
    endloop
  endfacet
  facet normal 0 0 1
    outer loop
      vertex 21.45 3 0
      vertex 23 7.1 0
      vertex 21.45 7.1 0
    endloop
  endfacet
  facet normal 0 0 1
    outer loop
      vertex 23 7.1 0
      vertex 21.45 3 0
      vertex 23 0 0
    endloop
  endfacet
  facet normal -0 0 1
    outer loop
      vertex 9.45 3 0
      vertex 23 0 0
      vertex 21.45 3 0
    endloop
  endfacet
  facet normal 0 0 1
    outer loop
      vertex -9.45 3 0
      vertex 9.45 3 0
      vertex -9.45 7.1 0
    endloop
  endfacet
  facet normal 0 0 1
    outer loop
      vertex 9.45 3 0
      vertex -9.45 3 0
      vertex 23 0 0
    endloop
  endfacet
  facet normal 0 0 1
    outer loop
      vertex -23 0 0
      vertex -9.45 3 0
      vertex -21.45 3 0
    endloop
  endfacet
  facet normal 0 0 1
    outer loop
      vertex -9.45 3 0
      vertex -23 0 0
      vertex 23 0 0
    endloop
  endfacet
  facet normal 0 0 1
    outer loop
      vertex -23 0 0
      vertex -21.45 3 0
      vertex -23 7.1 0
    endloop
  endfacet
  facet normal 0 0 1
    outer loop
      vertex -13.6866 12.4271 0
      vertex -9.45 12.9 0
      vertex -9.45 17 0
    endloop
  endfacet
  facet normal 0 -0 1
    outer loop
      vertex -12.4869 10.4693 0
      vertex -9.45 12.9 0
      vertex -12.5968 10.9271 0
    endloop
  endfacet
  facet normal -0 0 1
    outer loop
      vertex -12.4869 9.5307 0
      vertex -9.45 7.1 0
      vertex -12.45 10 0
    endloop
  endfacet
  facet normal 0 0 1
    outer loop
      vertex -9.45 12.9 0
      vertex -12.45 10 0
      vertex -9.45 7.1 0
    endloop
  endfacet
  facet normal 0 -0 1
    outer loop
      vertex -12.45 10 0
      vertex -9.45 12.9 0
      vertex -12.4869 10.4693 0
    endloop
  endfacet
  facet normal 0 0 1
    outer loop
      vertex -9.45 12.9 0
      vertex -12.777 11.362 0
      vertex -12.5968 10.9271 0
    endloop
  endfacet
  facet normal 0 0 1
    outer loop
      vertex -9.45 12.9 0
      vertex -13.0229 11.7634 0
      vertex -12.777 11.362 0
    endloop
  endfacet
  facet normal 0 0 1
    outer loop
      vertex -9.45 12.9 0
      vertex -13.3287 12.1213 0
      vertex -13.0229 11.7634 0
    endloop
  endfacet
  facet normal 0 0 1
    outer loop
      vertex -9.45 12.9 0
      vertex -13.6866 12.4271 0
      vertex -13.3287 12.1213 0
    endloop
  endfacet
  facet normal 0 0 1
    outer loop
      vertex -9.45 17 0
      vertex -14.088 12.673 0
      vertex -13.6866 12.4271 0
    endloop
  endfacet
  facet normal 0 0 1
    outer loop
      vertex -9.45 17 0
      vertex -14.5229 12.8532 0
      vertex -14.088 12.673 0
    endloop
  endfacet
  facet normal 0 0 1
    outer loop
      vertex -9.45 17 0
      vertex -14.9807 12.9631 0
      vertex -14.5229 12.8532 0
    endloop
  endfacet
  facet normal 0 0 1
    outer loop
      vertex -9.45 17 0
      vertex -15.45 13 0
      vertex -14.9807 12.9631 0
    endloop
  endfacet
  facet normal -0 0 1
    outer loop
      vertex -21.45 17 0
      vertex -15.45 13 0
      vertex -9.45 17 0
    endloop
  endfacet
  facet normal 0 0 1
    outer loop
      vertex -15.45 13 0
      vertex -21.45 17 0
      vertex -15.9193 12.9631 0
    endloop
  endfacet
  facet normal 0 0 1
    outer loop
      vertex -15.9193 12.9631 0
      vertex -21.45 17 0
      vertex -16.3771 12.8532 0
    endloop
  endfacet
  facet normal 0 0 1
    outer loop
      vertex -18.3032 10.9271 0
      vertex -21.45 12.9 0
      vertex -18.4131 10.4693 0
    endloop
  endfacet
  facet normal 0 0 1
    outer loop
      vertex -18.123 11.362 0
      vertex -21.45 12.9 0
      vertex -18.3032 10.9271 0
    endloop
  endfacet
  facet normal 0 0 1
    outer loop
      vertex -17.8771 11.7634 0
      vertex -21.45 12.9 0
      vertex -18.123 11.362 0
    endloop
  endfacet
  facet normal 0 0 1
    outer loop
      vertex -17.5713 12.1213 0
      vertex -21.45 12.9 0
      vertex -17.8771 11.7634 0
    endloop
  endfacet
  facet normal 0 0 1
    outer loop
      vertex -17.2134 12.4271 0
      vertex -21.45 12.9 0
      vertex -17.5713 12.1213 0
    endloop
  endfacet
  facet normal -0 0 1
    outer loop
      vertex -21.45 12.9 0
      vertex -17.2134 12.4271 0
      vertex -21.45 17 0
    endloop
  endfacet
  facet normal 0 0 1
    outer loop
      vertex -16.812 12.673 0
      vertex -21.45 17 0
      vertex -17.2134 12.4271 0
    endloop
  endfacet
  facet normal 0 0 1
    outer loop
      vertex -16.3771 12.8532 0
      vertex -21.45 17 0
      vertex -16.812 12.673 0
    endloop
  endfacet
  facet normal -0 0 1
    outer loop
      vertex -12.5968 9.07295 0
      vertex -9.45 7.1 0
      vertex -12.4869 9.5307 0
    endloop
  endfacet
  facet normal -0 0 1
    outer loop
      vertex -12.777 8.63803 0
      vertex -9.45 7.1 0
      vertex -12.5968 9.07295 0
    endloop
  endfacet
  facet normal -0 0 1
    outer loop
      vertex -13.0229 8.23664 0
      vertex -9.45 7.1 0
      vertex -12.777 8.63803 0
    endloop
  endfacet
  facet normal -0 0 1
    outer loop
      vertex -13.3287 7.87868 0
      vertex -9.45 7.1 0
      vertex -13.0229 8.23664 0
    endloop
  endfacet
  facet normal -0 0 1
    outer loop
      vertex -13.6866 7.57295 0
      vertex -9.45 7.1 0
      vertex -13.3287 7.87868 0
    endloop
  endfacet
  facet normal 0 0 1
    outer loop
      vertex -9.45 7.1 0
      vertex -13.6866 7.57295 0
      vertex -9.45 3 0
    endloop
  endfacet
  facet normal -0 0 1
    outer loop
      vertex -14.088 7.32698 0
      vertex -9.45 3 0
      vertex -13.6866 7.57295 0
    endloop
  endfacet
  facet normal -0 0 1
    outer loop
      vertex -14.5229 7.14683 0
      vertex -9.45 3 0
      vertex -14.088 7.32698 0
    endloop
  endfacet
  facet normal -0 0 1
    outer loop
      vertex -14.9807 7.03694 0
      vertex -9.45 3 0
      vertex -14.5229 7.14683 0
    endloop
  endfacet
  facet normal -0 0 1
    outer loop
      vertex -15.45 7 0
      vertex -9.45 3 0
      vertex -14.9807 7.03694 0
    endloop
  endfacet
  facet normal 0 0 1
    outer loop
      vertex -21.45 3 0
      vertex -15.45 7 0
      vertex -15.9193 7.03694 0
    endloop
  endfacet
  facet normal 0 0 1
    outer loop
      vertex -21.45 3 0
      vertex -15.9193 7.03694 0
      vertex -16.3771 7.14683 0
    endloop
  endfacet
  facet normal 0 0 1
    outer loop
      vertex -21.45 3 0
      vertex -16.3771 7.14683 0
      vertex -16.812 7.32698 0
    endloop
  endfacet
  facet normal 0 0 1
    outer loop
      vertex -18.4131 10.4693 0
      vertex -21.45 12.9 0
      vertex -18.45 10 0
    endloop
  endfacet
  facet normal 0 0 1
    outer loop
      vertex -21.45 7.1 0
      vertex -18.45 10 0
      vertex -21.45 12.9 0
    endloop
  endfacet
  facet normal 0 0 1
    outer loop
      vertex -18.45 10 0
      vertex -21.45 7.1 0
      vertex -18.4131 9.5307 0
    endloop
  endfacet
  facet normal 0 0 1
    outer loop
      vertex -18.4131 9.5307 0
      vertex -21.45 7.1 0
      vertex -18.3032 9.07295 0
    endloop
  endfacet
  facet normal 0 0 1
    outer loop
      vertex -18.3032 9.07295 0
      vertex -21.45 7.1 0
      vertex -18.123 8.63803 0
    endloop
  endfacet
  facet normal 0 0 1
    outer loop
      vertex -18.123 8.63803 0
      vertex -21.45 7.1 0
      vertex -17.8771 8.23664 0
    endloop
  endfacet
  facet normal 0 0 1
    outer loop
      vertex -21.45 7.1 0
      vertex -17.5713 7.87868 0
      vertex -17.8771 8.23664 0
    endloop
  endfacet
  facet normal 0 0 1
    outer loop
      vertex -21.45 7.1 0
      vertex -17.2134 7.57295 0
      vertex -17.5713 7.87868 0
    endloop
  endfacet
  facet normal 0 0 1
    outer loop
      vertex -21.45 3 0
      vertex -17.2134 7.57295 0
      vertex -21.45 7.1 0
    endloop
  endfacet
  facet normal 0 0 1
    outer loop
      vertex -17.2134 7.57295 0
      vertex -21.45 3 0
      vertex -16.812 7.32698 0
    endloop
  endfacet
  facet normal 0 0 1
    outer loop
      vertex -15.45 7 0
      vertex -21.45 3 0
      vertex -9.45 3 0
    endloop
  endfacet
  facet normal 0 0 1
    outer loop
      vertex 17.2134 12.4271 0
      vertex 21.45 12.9 0
      vertex 21.45 17 0
    endloop
  endfacet
  facet normal 0 -0 1
    outer loop
      vertex 18.4131 10.4693 0
      vertex 21.45 12.9 0
      vertex 18.3032 10.9271 0
    endloop
  endfacet
  facet normal -0 0 1
    outer loop
      vertex 18.4131 9.5307 0
      vertex 21.45 7.1 0
      vertex 18.45 10 0
    endloop
  endfacet
  facet normal 0 0 1
    outer loop
      vertex 21.45 12.9 0
      vertex 18.45 10 0
      vertex 21.45 7.1 0
    endloop
  endfacet
  facet normal 0 -0 1
    outer loop
      vertex 18.45 10 0
      vertex 21.45 12.9 0
      vertex 18.4131 10.4693 0
    endloop
  endfacet
  facet normal 0 0 1
    outer loop
      vertex 21.45 12.9 0
      vertex 18.123 11.362 0
      vertex 18.3032 10.9271 0
    endloop
  endfacet
  facet normal 0 0 1
    outer loop
      vertex 21.45 12.9 0
      vertex 17.8771 11.7634 0
      vertex 18.123 11.362 0
    endloop
  endfacet
  facet normal 0 0 1
    outer loop
      vertex 21.45 12.9 0
      vertex 17.5713 12.1213 0
      vertex 17.8771 11.7634 0
    endloop
  endfacet
  facet normal 0 0 1
    outer loop
      vertex 21.45 12.9 0
      vertex 17.2134 12.4271 0
      vertex 17.5713 12.1213 0
    endloop
  endfacet
  facet normal 0 0 1
    outer loop
      vertex 21.45 17 0
      vertex 16.812 12.673 0
      vertex 17.2134 12.4271 0
    endloop
  endfacet
  facet normal 0 0 1
    outer loop
      vertex 21.45 17 0
      vertex 16.3771 12.8532 0
      vertex 16.812 12.673 0
    endloop
  endfacet
  facet normal 0 0 1
    outer loop
      vertex 21.45 17 0
      vertex 15.9193 12.9631 0
      vertex 16.3771 12.8532 0
    endloop
  endfacet
  facet normal 0 0 1
    outer loop
      vertex 21.45 17 0
      vertex 15.45 13 0
      vertex 15.9193 12.9631 0
    endloop
  endfacet
  facet normal -0 0 1
    outer loop
      vertex 9.45 17 0
      vertex 15.45 13 0
      vertex 21.45 17 0
    endloop
  endfacet
  facet normal 0 0 1
    outer loop
      vertex 15.45 13 0
      vertex 9.45 17 0
      vertex 14.9807 12.9631 0
    endloop
  endfacet
  facet normal 0 0 1
    outer loop
      vertex 14.9807 12.9631 0
      vertex 9.45 17 0
      vertex 14.5229 12.8532 0
    endloop
  endfacet
  facet normal 0 0 1
    outer loop
      vertex 12.5968 10.9271 0
      vertex 9.45 12.9 0
      vertex 12.4869 10.4693 0
    endloop
  endfacet
  facet normal 0 0 1
    outer loop
      vertex 12.777 11.362 0
      vertex 9.45 12.9 0
      vertex 12.5968 10.9271 0
    endloop
  endfacet
  facet normal 0 0 1
    outer loop
      vertex 13.0229 11.7634 0
      vertex 9.45 12.9 0
      vertex 12.777 11.362 0
    endloop
  endfacet
  facet normal 0 0 1
    outer loop
      vertex 13.3287 12.1213 0
      vertex 9.45 12.9 0
      vertex 13.0229 11.7634 0
    endloop
  endfacet
  facet normal 0 0 1
    outer loop
      vertex 13.6866 12.4271 0
      vertex 9.45 12.9 0
      vertex 13.3287 12.1213 0
    endloop
  endfacet
  facet normal -0 0 1
    outer loop
      vertex 9.45 12.9 0
      vertex 13.6866 12.4271 0
      vertex 9.45 17 0
    endloop
  endfacet
  facet normal 0 0 1
    outer loop
      vertex 14.088 12.673 0
      vertex 9.45 17 0
      vertex 13.6866 12.4271 0
    endloop
  endfacet
  facet normal 0 0 1
    outer loop
      vertex 14.5229 12.8532 0
      vertex 9.45 17 0
      vertex 14.088 12.673 0
    endloop
  endfacet
  facet normal -0 0 1
    outer loop
      vertex 18.3032 9.07295 0
      vertex 21.45 7.1 0
      vertex 18.4131 9.5307 0
    endloop
  endfacet
  facet normal -0 0 1
    outer loop
      vertex 18.123 8.63803 0
      vertex 21.45 7.1 0
      vertex 18.3032 9.07295 0
    endloop
  endfacet
  facet normal -0 0 1
    outer loop
      vertex 17.8771 8.23664 0
      vertex 21.45 7.1 0
      vertex 18.123 8.63803 0
    endloop
  endfacet
  facet normal -0 0 1
    outer loop
      vertex 17.5713 7.87868 0
      vertex 21.45 7.1 0
      vertex 17.8771 8.23664 0
    endloop
  endfacet
  facet normal -0 0 1
    outer loop
      vertex 17.2134 7.57295 0
      vertex 21.45 7.1 0
      vertex 17.5713 7.87868 0
    endloop
  endfacet
  facet normal 0 0 1
    outer loop
      vertex 21.45 7.1 0
      vertex 17.2134 7.57295 0
      vertex 21.45 3 0
    endloop
  endfacet
  facet normal -0 0 1
    outer loop
      vertex 16.812 7.32698 0
      vertex 21.45 3 0
      vertex 17.2134 7.57295 0
    endloop
  endfacet
  facet normal -0 0 1
    outer loop
      vertex 16.3771 7.14683 0
      vertex 21.45 3 0
      vertex 16.812 7.32698 0
    endloop
  endfacet
  facet normal -0 0 1
    outer loop
      vertex 15.9193 7.03694 0
      vertex 21.45 3 0
      vertex 16.3771 7.14683 0
    endloop
  endfacet
  facet normal -0 0 1
    outer loop
      vertex 15.45 7 0
      vertex 21.45 3 0
      vertex 15.9193 7.03694 0
    endloop
  endfacet
  facet normal 0 0 1
    outer loop
      vertex 9.45 3 0
      vertex 15.45 7 0
      vertex 14.9807 7.03694 0
    endloop
  endfacet
  facet normal 0 0 1
    outer loop
      vertex 9.45 3 0
      vertex 14.9807 7.03694 0
      vertex 14.5229 7.14683 0
    endloop
  endfacet
  facet normal 0 0 1
    outer loop
      vertex 9.45 3 0
      vertex 14.5229 7.14683 0
      vertex 14.088 7.32698 0
    endloop
  endfacet
  facet normal 0 0 1
    outer loop
      vertex 12.4869 10.4693 0
      vertex 9.45 12.9 0
      vertex 12.45 10 0
    endloop
  endfacet
  facet normal 0 0 1
    outer loop
      vertex 9.45 7.1 0
      vertex 12.45 10 0
      vertex 9.45 12.9 0
    endloop
  endfacet
  facet normal 0 0 1
    outer loop
      vertex 12.45 10 0
      vertex 9.45 7.1 0
      vertex 12.4869 9.5307 0
    endloop
  endfacet
  facet normal 0 0 1
    outer loop
      vertex 12.4869 9.5307 0
      vertex 9.45 7.1 0
      vertex 12.5968 9.07295 0
    endloop
  endfacet
  facet normal 0 0 1
    outer loop
      vertex 12.5968 9.07295 0
      vertex 9.45 7.1 0
      vertex 12.777 8.63803 0
    endloop
  endfacet
  facet normal 0 0 1
    outer loop
      vertex 12.777 8.63803 0
      vertex 9.45 7.1 0
      vertex 13.0229 8.23664 0
    endloop
  endfacet
  facet normal 0 0 1
    outer loop
      vertex 9.45 7.1 0
      vertex 13.3287 7.87868 0
      vertex 13.0229 8.23664 0
    endloop
  endfacet
  facet normal 0 0 1
    outer loop
      vertex 9.45 7.1 0
      vertex 13.6866 7.57295 0
      vertex 13.3287 7.87868 0
    endloop
  endfacet
  facet normal 0 0 1
    outer loop
      vertex 9.45 3 0
      vertex 13.6866 7.57295 0
      vertex 9.45 7.1 0
    endloop
  endfacet
  facet normal 0 0 1
    outer loop
      vertex 13.6866 7.57295 0
      vertex 9.45 3 0
      vertex 14.088 7.32698 0
    endloop
  endfacet
  facet normal 0 0 1
    outer loop
      vertex 15.45 7 0
      vertex 9.45 3 0
      vertex 21.45 3 0
    endloop
  endfacet
  facet normal 1 0 0
    outer loop
      vertex 23 12.9 1
      vertex 23 7.1 1
      vertex 23 12.9 0
    endloop
  endfacet
  facet normal 1 -0 0
    outer loop
      vertex 23 12.9 0
      vertex 23 20 -2
      vertex 23 20 0
    endloop
  endfacet
  facet normal 1 0 0
    outer loop
      vertex 23 7.1 0
      vertex 23 12.9 0
      vertex 23 7.1 1
    endloop
  endfacet
  facet normal 1 0 0
    outer loop
      vertex 23 12.9 0
      vertex 23 7.1 0
      vertex 23 20 -2
    endloop
  endfacet
  facet normal 1 0 0
    outer loop
      vertex 23 0 -2
      vertex 23 7.1 0
      vertex 23 0 0
    endloop
  endfacet
  facet normal 1 0 0
    outer loop
      vertex 23 7.1 0
      vertex 23 0 -2
      vertex 23 20 -2
    endloop
  endfacet
  facet normal 0 1 -0
    outer loop
      vertex 23 20 -2
      vertex -23 20 0
      vertex 23 20 0
    endloop
  endfacet
  facet normal 0 1 0
    outer loop
      vertex -23 20 0
      vertex 23 20 -2
      vertex -23 20 -2
    endloop
  endfacet
  facet normal 0 -1 0
    outer loop
      vertex -8.25 0 -2
      vertex -23 0 0
      vertex -23 0 -2
    endloop
  endfacet
  facet normal 0 -1 0
    outer loop
      vertex -23 0 0
      vertex -8.25 0 -2
      vertex 23 0 0
    endloop
  endfacet
  facet normal 0 -1 0
    outer loop
      vertex 8.25 0 -2
      vertex 23 0 0
      vertex -8.25 0 -2
    endloop
  endfacet
  facet normal 0 -1 -0
    outer loop
      vertex 23 0 0
      vertex 8.25 0 -2
      vertex 23 0 -2
    endloop
  endfacet
  facet normal 0 1 -0
    outer loop
      vertex 23 12.9 0
      vertex 21.45 12.9 1
      vertex 23 12.9 1
    endloop
  endfacet
  facet normal 0 1 0
    outer loop
      vertex 21.45 12.9 1
      vertex 23 12.9 0
      vertex 21.45 12.9 0
    endloop
  endfacet
  facet normal 0 1 -0
    outer loop
      vertex -21.45 12.9 0
      vertex -23 12.9 1
      vertex -21.45 12.9 1
    endloop
  endfacet
  facet normal 0 1 0
    outer loop
      vertex -23 12.9 1
      vertex -21.45 12.9 0
      vertex -23 12.9 0
    endloop
  endfacet
  facet normal 0 1 -0
    outer loop
      vertex 9.45 12.9 0
      vertex -9.45 12.9 1
      vertex 9.45 12.9 1
    endloop
  endfacet
  facet normal 0 1 0
    outer loop
      vertex -9.45 12.9 1
      vertex 9.45 12.9 0
      vertex -9.45 12.9 0
    endloop
  endfacet
  facet normal -0 0 1
    outer loop
      vertex -23 12.9 1
      vertex -21.45 7.1 1
      vertex -21.45 12.9 1
    endloop
  endfacet
  facet normal 0 0 1
    outer loop
      vertex -21.45 7.1 1
      vertex -23 12.9 1
      vertex -23 7.1 1
    endloop
  endfacet
  facet normal -0 0 1
    outer loop
      vertex 21.45 12.9 1
      vertex 23 7.1 1
      vertex 23 12.9 1
    endloop
  endfacet
  facet normal 0 0 1
    outer loop
      vertex 23 7.1 1
      vertex 21.45 12.9 1
      vertex 21.45 7.1 1
    endloop
  endfacet
  facet normal -0 0 1
    outer loop
      vertex -9.45 12.9 1
      vertex 9.45 7.1 1
      vertex 9.45 12.9 1
    endloop
  endfacet
  facet normal 0 0 1
    outer loop
      vertex 9.45 7.1 1
      vertex -9.45 12.9 1
      vertex -9.45 7.1 1
    endloop
  endfacet
  facet normal 0 -1 0
    outer loop
      vertex -23 7.1 0
      vertex -21.45 7.1 1
      vertex -23 7.1 1
    endloop
  endfacet
  facet normal 0 -1 -0
    outer loop
      vertex -21.45 7.1 1
      vertex -23 7.1 0
      vertex -21.45 7.1 0
    endloop
  endfacet
  facet normal 0 -1 0
    outer loop
      vertex 21.45 7.1 0
      vertex 23 7.1 1
      vertex 21.45 7.1 1
    endloop
  endfacet
  facet normal 0 -1 -0
    outer loop
      vertex 23 7.1 1
      vertex 21.45 7.1 0
      vertex 23 7.1 0
    endloop
  endfacet
  facet normal 0 -1 0
    outer loop
      vertex -9.45 7.1 0
      vertex 9.45 7.1 1
      vertex -9.45 7.1 1
    endloop
  endfacet
  facet normal 0 -1 -0
    outer loop
      vertex 9.45 7.1 1
      vertex -9.45 7.1 0
      vertex 9.45 7.1 0
    endloop
  endfacet
  facet normal 0 0 -1
    outer loop
      vertex -8.51266 8.1916 -2
      vertex -8.25 9.85 -2
      vertex -8.25 8.15 -2
    endloop
  endfacet
  facet normal 0 0 -1
    outer loop
      vertex -8.51266 8.1916 -2
      vertex -8.51266 9.8084 -2
      vertex -8.25 9.85 -2
    endloop
  endfacet
  facet normal 0 0 -1
    outer loop
      vertex -8.74962 8.31234 -2
      vertex -8.51266 9.8084 -2
      vertex -8.51266 8.1916 -2
    endloop
  endfacet
  facet normal 0 0 -1
    outer loop
      vertex -8.74962 8.31234 -2
      vertex -8.74962 9.68766 -2
      vertex -8.51266 9.8084 -2
    endloop
  endfacet
  facet normal 0 0 -1
    outer loop
      vertex -8.93766 8.50038 -2
      vertex -8.74962 9.68766 -2
      vertex -8.74962 8.31234 -2
    endloop
  endfacet
  facet normal 0 0 -1
    outer loop
      vertex -8.93766 8.50038 -2
      vertex -8.93766 9.49962 -2
      vertex -8.74962 9.68766 -2
    endloop
  endfacet
  facet normal 0 0 -1
    outer loop
      vertex -9.0584 8.73734 -2
      vertex -8.93766 9.49962 -2
      vertex -8.93766 8.50038 -2
    endloop
  endfacet
  facet normal 0 0 -1
    outer loop
      vertex -9.0584 8.73734 -2
      vertex -9.0584 9.26266 -2
      vertex -8.93766 9.49962 -2
    endloop
  endfacet
  facet normal 0 -0 -1
    outer loop
      vertex -9.0584 9.26266 -2
      vertex -9.0584 8.73734 -2
      vertex -9.1 9 -2
    endloop
  endfacet
  facet normal 0 0 -1
    outer loop
      vertex -8.55172 4.23588 -2
      vertex -8.25 3.94108 -2
      vertex -8.26412 3.94828 -2
    endloop
  endfacet
  facet normal 0 0 -1
    outer loop
      vertex -8.25 3.94108 -2
      vertex -8.55172 4.23588 -2
      vertex -8.25 6.05892 -2
    endloop
  endfacet
  facet normal 0 0 -1
    outer loop
      vertex -8.55172 5.76412 -2
      vertex -8.25 6.05892 -2
      vertex -8.55172 4.23588 -2
    endloop
  endfacet
  facet normal 0 0 -1
    outer loop
      vertex -8.25 6.05892 -2
      vertex -8.55172 5.76412 -2
      vertex -8.26412 6.05172 -2
    endloop
  endfacet
  facet normal 0 0 -1
    outer loop
      vertex -8.73637 4.59828 -2
      vertex -8.55172 5.76412 -2
      vertex -8.55172 4.23588 -2
    endloop
  endfacet
  facet normal 0 0 -1
    outer loop
      vertex -8.73637 4.59828 -2
      vertex -8.73637 5.40172 -2
      vertex -8.55172 5.76412 -2
    endloop
  endfacet
  facet normal 0 -0 -1
    outer loop
      vertex -8.73637 5.40172 -2
      vertex -8.73637 4.59828 -2
      vertex -8.8 5 -2
    endloop
  endfacet
  facet normal 0 0 -1
    outer loop
      vertex -8.25 3.94108 -2
      vertex 8.25 3.94108 -2
      vertex 8.25 0 -2
    endloop
  endfacet
  facet normal 0 0 -1
    outer loop
      vertex 8.25 3.94108 -2
      vertex -8.25 3.94108 -2
      vertex 8.25 6.05892 -2
    endloop
  endfacet
  facet normal 0 0 -1
    outer loop
      vertex -8.25 6.05892 -2
      vertex 8.25 6.05892 -2
      vertex -8.25 3.94108 -2
    endloop
  endfacet
  facet normal 0 0 -1
    outer loop
      vertex -8.25 8.15 -2
      vertex 8.25 8.15 -2
      vertex -8.25 6.05892 -2
    endloop
  endfacet
  facet normal 0 0 -1
    outer loop
      vertex -8.25 3.94108 -2
      vertex 8.25 0 -2
      vertex -8.25 0 -2
    endloop
  endfacet
  facet normal 0 0 -1
    outer loop
      vertex 8.25 6.05892 -2
      vertex -8.25 6.05892 -2
      vertex 8.25 8.15 -2
    endloop
  endfacet
  facet normal 0 0 -1
    outer loop
      vertex 8.25 8.15 -2
      vertex -8.25 8.15 -2
      vertex 8.25 9.85 -2
    endloop
  endfacet
  facet normal 0 0 -1
    outer loop
      vertex -8.25 9.85 -2
      vertex 8.25 9.85 -2
      vertex -8.25 8.15 -2
    endloop
  endfacet
  facet normal 0 0 -1
    outer loop
      vertex 8.25 9.85 -2
      vertex -8.25 9.85 -2
      vertex 8.25 16.2 -2
    endloop
  endfacet
  facet normal -0 0 -1
    outer loop
      vertex 8.25 16.2 -2
      vertex -8.25 9.85 -2
      vertex -8.25 16.2 -2
    endloop
  endfacet
  facet normal 0 0 -1
    outer loop
      vertex 8.73637 4.59828 -2
      vertex 8.73637 5.40172 -2
      vertex 8.8 5 -2
    endloop
  endfacet
  facet normal 0 0 -1
    outer loop
      vertex 8.55172 4.23588 -2
      vertex 8.73637 5.40172 -2
      vertex 8.73637 4.59828 -2
    endloop
  endfacet
  facet normal 0 0 -1
    outer loop
      vertex 8.55172 4.23588 -2
      vertex 8.55172 5.76412 -2
      vertex 8.73637 5.40172 -2
    endloop
  endfacet
  facet normal 0 0 -1
    outer loop
      vertex 8.25 3.94108 -2
      vertex 8.55172 4.23588 -2
      vertex 8.26412 3.94828 -2
    endloop
  endfacet
  facet normal -0 0 -1
    outer loop
      vertex 8.55172 4.23588 -2
      vertex 8.25 3.94108 -2
      vertex 8.55172 5.76412 -2
    endloop
  endfacet
  facet normal 0 0 -1
    outer loop
      vertex 8.25 6.05892 -2
      vertex 8.55172 5.76412 -2
      vertex 8.25 3.94108 -2
    endloop
  endfacet
  facet normal 0 0 -1
    outer loop
      vertex 8.55172 5.76412 -2
      vertex 8.25 6.05892 -2
      vertex 8.26412 6.05172 -2
    endloop
  endfacet
  facet normal 0 0 -1
    outer loop
      vertex 9.0584 8.73734 -2
      vertex 9.0584 9.26266 -2
      vertex 9.1 9 -2
    endloop
  endfacet
  facet normal 0 0 -1
    outer loop
      vertex 8.93766 8.50038 -2
      vertex 9.0584 9.26266 -2
      vertex 9.0584 8.73734 -2
    endloop
  endfacet
  facet normal 0 0 -1
    outer loop
      vertex 8.93766 8.50038 -2
      vertex 8.93766 9.49962 -2
      vertex 9.0584 9.26266 -2
    endloop
  endfacet
  facet normal 0 0 -1
    outer loop
      vertex 8.74962 8.31234 -2
      vertex 8.93766 9.49962 -2
      vertex 8.93766 8.50038 -2
    endloop
  endfacet
  facet normal 0 0 -1
    outer loop
      vertex 8.74962 8.31234 -2
      vertex 8.74962 9.68766 -2
      vertex 8.93766 9.49962 -2
    endloop
  endfacet
  facet normal 0 0 -1
    outer loop
      vertex 8.51266 8.1916 -2
      vertex 8.74962 9.68766 -2
      vertex 8.74962 8.31234 -2
    endloop
  endfacet
  facet normal 0 0 -1
    outer loop
      vertex 8.51266 8.1916 -2
      vertex 8.51266 9.8084 -2
      vertex 8.74962 9.68766 -2
    endloop
  endfacet
  facet normal 0 0 -1
    outer loop
      vertex 8.25 8.15 -2
      vertex 8.51266 9.8084 -2
      vertex 8.51266 8.1916 -2
    endloop
  endfacet
  facet normal -0 0 -1
    outer loop
      vertex 8.51266 9.8084 -2
      vertex 8.25 8.15 -2
      vertex 8.25 9.85 -2
    endloop
  endfacet
  facet normal 0 0 -1
    outer loop
      vertex -8.25 0 -2
      vertex -8.26412 3.94828 -2
      vertex -8.25 3.94108 -2
    endloop
  endfacet
  facet normal 0 0 -1
    outer loop
      vertex -8.25 0 -2
      vertex -8.55172 4.23588 -2
      vertex -8.26412 3.94828 -2
    endloop
  endfacet
  facet normal 0 0 -1
    outer loop
      vertex -14.5229 7.14683 -2
      vertex -8.55172 4.23588 -2
      vertex -8.25 0 -2
    endloop
  endfacet
  facet normal 0 0 -1
    outer loop
      vertex -8.55172 4.23588 -2
      vertex -14.5229 7.14683 -2
      vertex -8.73637 4.59828 -2
    endloop
  endfacet
  facet normal 0 0 -1
    outer loop
      vertex -8.73637 5.40172 -2
      vertex -9.0584 8.73734 -2
      vertex -8.93766 8.50038 -2
    endloop
  endfacet
  facet normal 0 0 -1
    outer loop
      vertex -8.73637 5.40172 -2
      vertex -13.0229 8.23664 -2
      vertex -9.0584 8.73734 -2
    endloop
  endfacet
  facet normal 0 -0 -1
    outer loop
      vertex -12.777 8.63803 -2
      vertex -9.0584 8.73734 -2
      vertex -13.0229 8.23664 -2
    endloop
  endfacet
  facet normal 0 -0 -1
    outer loop
      vertex -14.088 7.32698 -2
      vertex -8.73637 4.59828 -2
      vertex -14.5229 7.14683 -2
    endloop
  endfacet
  facet normal 0 0 -1
    outer loop
      vertex -9.1 9 -2
      vertex -12.4869 9.5307 -2
      vertex -12.45 10 -2
    endloop
  endfacet
  facet normal 0 0 -1
    outer loop
      vertex -9.1 9 -2
      vertex -12.5968 9.07295 -2
      vertex -12.4869 9.5307 -2
    endloop
  endfacet
  facet normal 0 0 -1
    outer loop
      vertex -9.0584 8.73734 -2
      vertex -12.5968 9.07295 -2
      vertex -9.1 9 -2
    endloop
  endfacet
  facet normal 0 -0 -1
    outer loop
      vertex -12.5968 9.07295 -2
      vertex -9.0584 8.73734 -2
      vertex -12.777 8.63803 -2
    endloop
  endfacet
  facet normal 0 0 -1
    outer loop
      vertex -8.73637 5.40172 -2
      vertex -13.3287 7.87868 -2
      vertex -13.0229 8.23664 -2
    endloop
  endfacet
  facet normal 0 0 -1
    outer loop
      vertex -8.8 5 -2
      vertex -13.6866 7.57295 -2
      vertex -13.3287 7.87868 -2
    endloop
  endfacet
  facet normal 0 0 -1
    outer loop
      vertex -8.8 5 -2
      vertex -14.088 7.32698 -2
      vertex -13.6866 7.57295 -2
    endloop
  endfacet
  facet normal 0 0 -1
    outer loop
      vertex -8.73637 4.59828 -2
      vertex -14.088 7.32698 -2
      vertex -8.8 5 -2
    endloop
  endfacet
  facet normal 0 0 -1
    outer loop
      vertex -8.25 0 -2
      vertex -14.9807 7.03694 -2
      vertex -14.5229 7.14683 -2
    endloop
  endfacet
  facet normal 0 0 -1
    outer loop
      vertex -8.25 0 -2
      vertex -15.45 7 -2
      vertex -14.9807 7.03694 -2
    endloop
  endfacet
  facet normal 0 0 -1
    outer loop
      vertex -23 0 -2
      vertex -15.45 7 -2
      vertex -8.25 0 -2
    endloop
  endfacet
  facet normal -0 0 -1
    outer loop
      vertex -15.45 7 -2
      vertex -23 0 -2
      vertex -15.9193 7.03694 -2
    endloop
  endfacet
  facet normal -0 0 -1
    outer loop
      vertex -15.9193 7.03694 -2
      vertex -23 0 -2
      vertex -16.3771 7.14683 -2
    endloop
  endfacet
  facet normal -0 0 -1
    outer loop
      vertex -16.3771 7.14683 -2
      vertex -23 0 -2
      vertex -16.812 7.32698 -2
    endloop
  endfacet
  facet normal -0 0 -1
    outer loop
      vertex -18.4131 9.5307 -2
      vertex -23 0 -2
      vertex -18.45 10 -2
    endloop
  endfacet
  facet normal -0 0 -1
    outer loop
      vertex -18.3032 9.07295 -2
      vertex -23 0 -2
      vertex -18.4131 9.5307 -2
    endloop
  endfacet
  facet normal -0 0 -1
    outer loop
      vertex -18.123 8.63803 -2
      vertex -23 0 -2
      vertex -18.3032 9.07295 -2
    endloop
  endfacet
  facet normal -0 0 -1
    outer loop
      vertex -17.8771 8.23664 -2
      vertex -23 0 -2
      vertex -18.123 8.63803 -2
    endloop
  endfacet
  facet normal -0 0 -1
    outer loop
      vertex -17.5713 7.87868 -2
      vertex -23 0 -2
      vertex -17.8771 8.23664 -2
    endloop
  endfacet
  facet normal -0 0 -1
    outer loop
      vertex -17.2134 7.57295 -2
      vertex -23 0 -2
      vertex -17.5713 7.87868 -2
    endloop
  endfacet
  facet normal -0 0 -1
    outer loop
      vertex -16.812 7.32698 -2
      vertex -23 0 -2
      vertex -17.2134 7.57295 -2
    endloop
  endfacet
  facet normal 0 0 -1
    outer loop
      vertex -8.51266 8.1916 -2
      vertex -8.25 6.05892 -2
      vertex -8.26412 6.05172 -2
    endloop
  endfacet
  facet normal 0 0 -1
    outer loop
      vertex -8.25 6.05892 -2
      vertex -8.51266 8.1916 -2
      vertex -8.25 8.15 -2
    endloop
  endfacet
  facet normal 0 0 -1
    outer loop
      vertex -8.74962 8.31234 -2
      vertex -8.26412 6.05172 -2
      vertex -8.55172 5.76412 -2
    endloop
  endfacet
  facet normal 0 0 -1
    outer loop
      vertex -8.93766 8.50038 -2
      vertex -8.55172 5.76412 -2
      vertex -8.73637 5.40172 -2
    endloop
  endfacet
  facet normal 0 0 -1
    outer loop
      vertex -8.26412 6.05172 -2
      vertex -8.74962 8.31234 -2
      vertex -8.51266 8.1916 -2
    endloop
  endfacet
  facet normal 0 0 -1
    outer loop
      vertex -13.3287 7.87868 -2
      vertex -8.73637 5.40172 -2
      vertex -8.8 5 -2
    endloop
  endfacet
  facet normal 0 0 -1
    outer loop
      vertex -8.55172 5.76412 -2
      vertex -8.93766 8.50038 -2
      vertex -8.74962 8.31234 -2
    endloop
  endfacet
  facet normal -0 0 -1
    outer loop
      vertex -8.25 9.85 -2
      vertex -8.51266 9.8084 -2
      vertex -8.25 16.2 -2
    endloop
  endfacet
  facet normal 0 0 -1
    outer loop
      vertex 23 0 -2
      vertex 18.45 10 -2
      vertex 23 20 -2
    endloop
  endfacet
  facet normal 0 0 -1
    outer loop
      vertex 23 0 -2
      vertex 18.4131 9.5307 -2
      vertex 18.45 10 -2
    endloop
  endfacet
  facet normal 0 0 -1
    outer loop
      vertex 23 0 -2
      vertex 18.3032 9.07295 -2
      vertex 18.4131 9.5307 -2
    endloop
  endfacet
  facet normal 0 0 -1
    outer loop
      vertex 23 0 -2
      vertex 18.123 8.63803 -2
      vertex 18.3032 9.07295 -2
    endloop
  endfacet
  facet normal 0 0 -1
    outer loop
      vertex 23 0 -2
      vertex 17.8771 8.23664 -2
      vertex 18.123 8.63803 -2
    endloop
  endfacet
  facet normal 0 0 -1
    outer loop
      vertex 23 0 -2
      vertex 17.5713 7.87868 -2
      vertex 17.8771 8.23664 -2
    endloop
  endfacet
  facet normal 0 0 -1
    outer loop
      vertex 23 0 -2
      vertex 17.2134 7.57295 -2
      vertex 17.5713 7.87868 -2
    endloop
  endfacet
  facet normal 0 0 -1
    outer loop
      vertex 23 0 -2
      vertex 16.812 7.32698 -2
      vertex 17.2134 7.57295 -2
    endloop
  endfacet
  facet normal 0 0 -1
    outer loop
      vertex 23 0 -2
      vertex 16.3771 7.14683 -2
      vertex 16.812 7.32698 -2
    endloop
  endfacet
  facet normal 0 0 -1
    outer loop
      vertex 23 0 -2
      vertex 15.9193 7.03694 -2
      vertex 16.3771 7.14683 -2
    endloop
  endfacet
  facet normal 0 0 -1
    outer loop
      vertex 23 0 -2
      vertex 15.45 7 -2
      vertex 15.9193 7.03694 -2
    endloop
  endfacet
  facet normal 0 0 -1
    outer loop
      vertex 8.25 0 -2
      vertex 15.45 7 -2
      vertex 23 0 -2
    endloop
  endfacet
  facet normal -0 0 -1
    outer loop
      vertex 15.45 7 -2
      vertex 8.25 0 -2
      vertex 14.9807 7.03694 -2
    endloop
  endfacet
  facet normal -0 0 -1
    outer loop
      vertex 14.9807 7.03694 -2
      vertex 8.25 0 -2
      vertex 14.5229 7.14683 -2
    endloop
  endfacet
  facet normal 0 -0 -1
    outer loop
      vertex 8.55172 4.23588 -2
      vertex 14.5229 7.14683 -2
      vertex 8.25 0 -2
    endloop
  endfacet
  facet normal 0 0 -1
    outer loop
      vertex 9.0584 9.26266 -2
      vertex 12.4869 9.5307 -2
      vertex 9.1 9 -2
    endloop
  endfacet
  facet normal -0 0 -1
    outer loop
      vertex 12.5968 9.07295 -2
      vertex 9.1 9 -2
      vertex 12.4869 9.5307 -2
    endloop
  endfacet
  facet normal 0 0 -1
    outer loop
      vertex 9.0584 8.73734 -2
      vertex 12.5968 9.07295 -2
      vertex 12.777 8.63803 -2
    endloop
  endfacet
  facet normal 0 0 -1
    outer loop
      vertex 8.93766 8.50038 -2
      vertex 12.777 8.63803 -2
      vertex 13.0229 8.23664 -2
    endloop
  endfacet
  facet normal 0 0 -1
    outer loop
      vertex 8.73637 5.40172 -2
      vertex 13.0229 8.23664 -2
      vertex 13.3287 7.87868 -2
    endloop
  endfacet
  facet normal 0 0 -1
    outer loop
      vertex 8.8 5 -2
      vertex 13.3287 7.87868 -2
      vertex 13.6866 7.57295 -2
    endloop
  endfacet
  facet normal 0 -0 -1
    outer loop
      vertex 8.73637 4.59828 -2
      vertex 14.5229 7.14683 -2
      vertex 8.55172 4.23588 -2
    endloop
  endfacet
  facet normal 0 0 -1
    outer loop
      vertex 12.5968 9.07295 -2
      vertex 9.0584 8.73734 -2
      vertex 9.1 9 -2
    endloop
  endfacet
  facet normal 0 0 -1
    outer loop
      vertex 13.3287 7.87868 -2
      vertex 8.8 5 -2
      vertex 8.73637 5.40172 -2
    endloop
  endfacet
  facet normal 0 0 -1
    outer loop
      vertex 13.0229 8.23664 -2
      vertex 8.73637 5.40172 -2
      vertex 8.55172 5.76412 -2
    endloop
  endfacet
  facet normal -0 0 -1
    outer loop
      vertex 14.088 7.32698 -2
      vertex 8.8 5 -2
      vertex 13.6866 7.57295 -2
    endloop
  endfacet
  facet normal 0 -0 -1
    outer loop
      vertex 8.8 5 -2
      vertex 14.088 7.32698 -2
      vertex 8.73637 4.59828 -2
    endloop
  endfacet
  facet normal -0 0 -1
    outer loop
      vertex 14.5229 7.14683 -2
      vertex 8.73637 4.59828 -2
      vertex 14.088 7.32698 -2
    endloop
  endfacet
  facet normal 0 0 -1
    outer loop
      vertex 8.55172 4.23588 -2
      vertex 8.25 0 -2
      vertex 8.26412 3.94828 -2
    endloop
  endfacet
  facet normal 0 0 -1
    outer loop
      vertex 8.26412 3.94828 -2
      vertex 8.25 0 -2
      vertex 8.25 3.94108 -2
    endloop
  endfacet
  facet normal 0 0 -1
    outer loop
      vertex 18.4131 10.4693 -2
      vertex 23 20 -2
      vertex 18.45 10 -2
    endloop
  endfacet
  facet normal 0 0 -1
    outer loop
      vertex 18.3032 10.9271 -2
      vertex 23 20 -2
      vertex 18.4131 10.4693 -2
    endloop
  endfacet
  facet normal 0 0 -1
    outer loop
      vertex 18.123 11.362 -2
      vertex 23 20 -2
      vertex 18.3032 10.9271 -2
    endloop
  endfacet
  facet normal 0 0 -1
    outer loop
      vertex 17.8771 11.7634 -2
      vertex 23 20 -2
      vertex 18.123 11.362 -2
    endloop
  endfacet
  facet normal 0 0 -1
    outer loop
      vertex 17.5713 12.1213 -2
      vertex 23 20 -2
      vertex 17.8771 11.7634 -2
    endloop
  endfacet
  facet normal 0 0 -1
    outer loop
      vertex 17.2134 12.4271 -2
      vertex 23 20 -2
      vertex 17.5713 12.1213 -2
    endloop
  endfacet
  facet normal 0 0 -1
    outer loop
      vertex 16.812 12.673 -2
      vertex 23 20 -2
      vertex 17.2134 12.4271 -2
    endloop
  endfacet
  facet normal 0 0 -1
    outer loop
      vertex 16.3771 12.8532 -2
      vertex 23 20 -2
      vertex 16.812 12.673 -2
    endloop
  endfacet
  facet normal 0 0 -1
    outer loop
      vertex 15.9193 12.9631 -2
      vertex 23 20 -2
      vertex 16.3771 12.8532 -2
    endloop
  endfacet
  facet normal 0 0 -1
    outer loop
      vertex 15.45 13 -2
      vertex 23 20 -2
      vertex 15.9193 12.9631 -2
    endloop
  endfacet
  facet normal 0 0 -1
    outer loop
      vertex 8.25 16.2 -2
      vertex 15.45 13 -2
      vertex 14.9807 12.9631 -2
    endloop
  endfacet
  facet normal 0 0 -1
    outer loop
      vertex 8.25 16.2 -2
      vertex 14.9807 12.9631 -2
      vertex 14.5229 12.8532 -2
    endloop
  endfacet
  facet normal 0 0 -1
    outer loop
      vertex 8.25 16.2 -2
      vertex 14.5229 12.8532 -2
      vertex 14.088 12.673 -2
    endloop
  endfacet
  facet normal 0 0 -1
    outer loop
      vertex 8.25 16.2 -2
      vertex 14.088 12.673 -2
      vertex 13.6866 12.4271 -2
    endloop
  endfacet
  facet normal -0 0 -1
    outer loop
      vertex 12.4869 9.5307 -2
      vertex 9.0584 9.26266 -2
      vertex 12.45 10 -2
    endloop
  endfacet
  facet normal 0 0 -1
    outer loop
      vertex 8.93766 9.49962 -2
      vertex 12.45 10 -2
      vertex 9.0584 9.26266 -2
    endloop
  endfacet
  facet normal -0 0 -1
    outer loop
      vertex 12.45 10 -2
      vertex 8.93766 9.49962 -2
      vertex 12.4869 10.4693 -2
    endloop
  endfacet
  facet normal 0 0 -1
    outer loop
      vertex 8.74962 9.68766 -2
      vertex 12.4869 10.4693 -2
      vertex 8.93766 9.49962 -2
    endloop
  endfacet
  facet normal -0 0 -1
    outer loop
      vertex 12.4869 10.4693 -2
      vertex 8.74962 9.68766 -2
      vertex 12.5968 10.9271 -2
    endloop
  endfacet
  facet normal -0 0 -1
    outer loop
      vertex 12.5968 10.9271 -2
      vertex 8.74962 9.68766 -2
      vertex 12.777 11.362 -2
    endloop
  endfacet
  facet normal 0 0 -1
    outer loop
      vertex 8.51266 9.8084 -2
      vertex 12.777 11.362 -2
      vertex 8.74962 9.68766 -2
    endloop
  endfacet
  facet normal 0 0 -1
    outer loop
      vertex 8.25 16.2 -2
      vertex 12.777 11.362 -2
      vertex 8.51266 9.8084 -2
    endloop
  endfacet
  facet normal 0 0 -1
    outer loop
      vertex 12.777 11.362 -2
      vertex 8.25 16.2 -2
      vertex 13.0229 11.7634 -2
    endloop
  endfacet
  facet normal 0 0 -1
    outer loop
      vertex 13.0229 11.7634 -2
      vertex 8.25 16.2 -2
      vertex 13.3287 12.1213 -2
    endloop
  endfacet
  facet normal 0 0 -1
    outer loop
      vertex 13.3287 12.1213 -2
      vertex 8.25 16.2 -2
      vertex 13.6866 12.4271 -2
    endloop
  endfacet
  facet normal 0 0 -1
    outer loop
      vertex 8.25 16.2 -2
      vertex 8.51266 9.8084 -2
      vertex 8.25 9.85 -2
    endloop
  endfacet
  facet normal 0 0 -1
    outer loop
      vertex 15.45 13 -2
      vertex 8.25 16.2 -2
      vertex 23 20 -2
    endloop
  endfacet
  facet normal 0 0 -1
    outer loop
      vertex -8.25 16.2 -2
      vertex 23 20 -2
      vertex 8.25 16.2 -2
    endloop
  endfacet
  facet normal 0 0 -1
    outer loop
      vertex -12.777 11.362 -2
      vertex -8.51266 9.8084 -2
      vertex -8.74962 9.68766 -2
    endloop
  endfacet
  facet normal 0 0 -1
    outer loop
      vertex -12.4869 10.4693 -2
      vertex -8.74962 9.68766 -2
      vertex -8.93766 9.49962 -2
    endloop
  endfacet
  facet normal 0 0 -1
    outer loop
      vertex -12.45 10 -2
      vertex -8.93766 9.49962 -2
      vertex -9.0584 9.26266 -2
    endloop
  endfacet
  facet normal 0 0 -1
    outer loop
      vertex -12.45 10 -2
      vertex -9.0584 9.26266 -2
      vertex -9.1 9 -2
    endloop
  endfacet
  facet normal 0 0 -1
    outer loop
      vertex -8.93766 9.49962 -2
      vertex -12.45 10 -2
      vertex -12.4869 10.4693 -2
    endloop
  endfacet
  facet normal 0 0 -1
    outer loop
      vertex -8.74962 9.68766 -2
      vertex -12.4869 10.4693 -2
      vertex -12.5968 10.9271 -2
    endloop
  endfacet
  facet normal 0 0 -1
    outer loop
      vertex -8.74962 9.68766 -2
      vertex -12.5968 10.9271 -2
      vertex -12.777 11.362 -2
    endloop
  endfacet
  facet normal 0 0 -1
    outer loop
      vertex -8.51266 9.8084 -2
      vertex -12.777 11.362 -2
      vertex -8.25 16.2 -2
    endloop
  endfacet
  facet normal 0 0 -1
    outer loop
      vertex -13.0229 11.7634 -2
      vertex -8.25 16.2 -2
      vertex -12.777 11.362 -2
    endloop
  endfacet
  facet normal 0 0 -1
    outer loop
      vertex -13.3287 12.1213 -2
      vertex -8.25 16.2 -2
      vertex -13.0229 11.7634 -2
    endloop
  endfacet
  facet normal 0 0 -1
    outer loop
      vertex -13.6866 12.4271 -2
      vertex -8.25 16.2 -2
      vertex -13.3287 12.1213 -2
    endloop
  endfacet
  facet normal 0 0 -1
    outer loop
      vertex -14.088 12.673 -2
      vertex -8.25 16.2 -2
      vertex -13.6866 12.4271 -2
    endloop
  endfacet
  facet normal 0 0 -1
    outer loop
      vertex -14.5229 12.8532 -2
      vertex -8.25 16.2 -2
      vertex -14.088 12.673 -2
    endloop
  endfacet
  facet normal 0 0 -1
    outer loop
      vertex -14.9807 12.9631 -2
      vertex -8.25 16.2 -2
      vertex -14.5229 12.8532 -2
    endloop
  endfacet
  facet normal 0 0 -1
    outer loop
      vertex -15.45 13 -2
      vertex -8.25 16.2 -2
      vertex -14.9807 12.9631 -2
    endloop
  endfacet
  facet normal 0 0 -1
    outer loop
      vertex -23 20 -2
      vertex -15.45 13 -2
      vertex -15.9193 12.9631 -2
    endloop
  endfacet
  facet normal 0 0 -1
    outer loop
      vertex -23 20 -2
      vertex -15.9193 12.9631 -2
      vertex -16.3771 12.8532 -2
    endloop
  endfacet
  facet normal 0 0 -1
    outer loop
      vertex -23 20 -2
      vertex -18.45 10 -2
      vertex -23 0 -2
    endloop
  endfacet
  facet normal 0 0 -1
    outer loop
      vertex -18.45 10 -2
      vertex -23 20 -2
      vertex -18.4131 10.4693 -2
    endloop
  endfacet
  facet normal 0 0 -1
    outer loop
      vertex -18.4131 10.4693 -2
      vertex -23 20 -2
      vertex -18.3032 10.9271 -2
    endloop
  endfacet
  facet normal 0 0 -1
    outer loop
      vertex -8.25 16.2 -2
      vertex -23 20 -2
      vertex 23 20 -2
    endloop
  endfacet
  facet normal 0 0 -1
    outer loop
      vertex -15.45 13 -2
      vertex -23 20 -2
      vertex -8.25 16.2 -2
    endloop
  endfacet
  facet normal 0 0 -1
    outer loop
      vertex -16.812 12.673 -2
      vertex -23 20 -2
      vertex -16.3771 12.8532 -2
    endloop
  endfacet
  facet normal 0 0 -1
    outer loop
      vertex -17.2134 12.4271 -2
      vertex -23 20 -2
      vertex -16.812 12.673 -2
    endloop
  endfacet
  facet normal 0 0 -1
    outer loop
      vertex -17.5713 12.1213 -2
      vertex -23 20 -2
      vertex -17.2134 12.4271 -2
    endloop
  endfacet
  facet normal 0 0 -1
    outer loop
      vertex -17.8771 11.7634 -2
      vertex -23 20 -2
      vertex -17.5713 12.1213 -2
    endloop
  endfacet
  facet normal 0 0 -1
    outer loop
      vertex -18.123 11.362 -2
      vertex -23 20 -2
      vertex -17.8771 11.7634 -2
    endloop
  endfacet
  facet normal 0 0 -1
    outer loop
      vertex -18.3032 10.9271 -2
      vertex -23 20 -2
      vertex -18.123 11.362 -2
    endloop
  endfacet
  facet normal -0 0 -1
    outer loop
      vertex 12.777 8.63803 -2
      vertex 8.93766 8.50038 -2
      vertex 9.0584 8.73734 -2
    endloop
  endfacet
  facet normal -0 0 -1
    outer loop
      vertex 13.0229 8.23664 -2
      vertex 8.55172 5.76412 -2
      vertex 8.93766 8.50038 -2
    endloop
  endfacet
  facet normal 0 0 -1
    outer loop
      vertex 8.93766 8.50038 -2
      vertex 8.55172 5.76412 -2
      vertex 8.74962 8.31234 -2
    endloop
  endfacet
  facet normal 0 0 -1
    outer loop
      vertex 8.26412 6.05172 -2
      vertex 8.74962 8.31234 -2
      vertex 8.55172 5.76412 -2
    endloop
  endfacet
  facet normal 0 0 -1
    outer loop
      vertex 8.74962 8.31234 -2
      vertex 8.26412 6.05172 -2
      vertex 8.51266 8.1916 -2
    endloop
  endfacet
  facet normal 0 0 -1
    outer loop
      vertex 8.25 6.05892 -2
      vertex 8.51266 8.1916 -2
      vertex 8.26412 6.05172 -2
    endloop
  endfacet
  facet normal 0 0 -1
    outer loop
      vertex 8.51266 8.1916 -2
      vertex 8.25 6.05892 -2
      vertex 8.25 8.15 -2
    endloop
  endfacet
  facet normal 0.923836 -0.38279 0
    outer loop
      vertex 12.5968 10.9271 0
      vertex 12.777 11.362 -2
      vertex 12.777 11.362 0
    endloop
  endfacet
  facet normal 0.923836 -0.38279 0
    outer loop
      vertex 12.777 11.362 -2
      vertex 12.5968 10.9271 0
      vertex 12.5968 10.9271 -2
    endloop
  endfacet
  facet normal -0.972374 -0.233429 0
    outer loop
      vertex 18.4131 10.4693 -2
      vertex 18.3032 10.9271 0
      vertex 18.3032 10.9271 -2
    endloop
  endfacet
  facet normal -0.972374 -0.233429 0
    outer loop
      vertex 18.3032 10.9271 0
      vertex 18.4131 10.4693 -2
      vertex 18.4131 10.4693 0
    endloop
  endfacet
  facet normal -0.996923 -0.0783858 0
    outer loop
      vertex 18.45 10 -2
      vertex 18.4131 10.4693 0
      vertex 18.4131 10.4693 -2
    endloop
  endfacet
  facet normal -0.996923 -0.0783858 0
    outer loop
      vertex 18.4131 10.4693 0
      vertex 18.45 10 -2
      vertex 18.45 10 0
    endloop
  endfacet
  facet normal -0.923836 -0.38279 0
    outer loop
      vertex 18.3032 10.9271 -2
      vertex 18.123 11.362 0
      vertex 18.123 11.362 -2
    endloop
  endfacet
  facet normal -0.923836 -0.38279 0
    outer loop
      vertex 18.123 11.362 0
      vertex 18.3032 10.9271 -2
      vertex 18.3032 10.9271 0
    endloop
  endfacet
  facet normal -0.522486 0.852648 0
    outer loop
      vertex 17.2134 7.57295 -2
      vertex 16.812 7.32698 0
      vertex 17.2134 7.57295 0
    endloop
  endfacet
  facet normal -0.522486 0.852648 0
    outer loop
      vertex 16.812 7.32698 0
      vertex 17.2134 7.57295 -2
      vertex 16.812 7.32698 -2
    endloop
  endfacet
  facet normal -0.972368 0.233453 0
    outer loop
      vertex 18.3032 9.07295 -2
      vertex 18.4131 9.5307 0
      vertex 18.4131 9.5307 -2
    endloop
  endfacet
  facet normal -0.972368 0.233453 0
    outer loop
      vertex 18.4131 9.5307 0
      vertex 18.3032 9.07295 -2
      vertex 18.3032 9.07295 0
    endloop
  endfacet
  facet normal -0.382699 0.923873 0
    outer loop
      vertex 16.812 7.32698 -2
      vertex 16.3771 7.14683 0
      vertex 16.812 7.32698 0
    endloop
  endfacet
  facet normal -0.382699 0.923873 0
    outer loop
      vertex 16.3771 7.14683 0
      vertex 16.812 7.32698 -2
      vertex 16.3771 7.14683 -2
    endloop
  endfacet
  facet normal 0.38279 -0.923836 0
    outer loop
      vertex 14.088 12.673 -2
      vertex 14.5229 12.8532 0
      vertex 14.088 12.673 0
    endloop
  endfacet
  facet normal 0.38279 -0.923836 0
    outer loop
      vertex 14.5229 12.8532 0
      vertex 14.088 12.673 -2
      vertex 14.5229 12.8532 -2
    endloop
  endfacet
  facet normal 0.382699 0.923873 -0
    outer loop
      vertex 14.5229 7.14683 -2
      vertex 14.088 7.32698 0
      vertex 14.5229 7.14683 0
    endloop
  endfacet
  facet normal 0.382699 0.923873 0
    outer loop
      vertex 14.088 7.32698 0
      vertex 14.5229 7.14683 -2
      vertex 14.088 7.32698 -2
    endloop
  endfacet
  facet normal 0.522378 -0.852714 0
    outer loop
      vertex 13.6866 12.4271 -2
      vertex 14.088 12.673 0
      vertex 13.6866 12.4271 0
    endloop
  endfacet
  facet normal 0.522378 -0.852714 0
    outer loop
      vertex 14.088 12.673 0
      vertex 13.6866 12.4271 -2
      vertex 14.088 12.673 -2
    endloop
  endfacet
  facet normal -0.649601 -0.760275 0
    outer loop
      vertex 17.2134 12.4271 -2
      vertex 17.5713 12.1213 0
      vertex 17.2134 12.4271 0
    endloop
  endfacet
  facet normal -0.649601 -0.760275 -0
    outer loop
      vertex 17.5713 12.1213 0
      vertex 17.2134 12.4271 -2
      vertex 17.5713 12.1213 -2
    endloop
  endfacet
  facet normal 0.233429 -0.972374 0
    outer loop
      vertex 14.5229 12.8532 -2
      vertex 14.9807 12.9631 0
      vertex 14.5229 12.8532 0
    endloop
  endfacet
  facet normal 0.233429 -0.972374 0
    outer loop
      vertex 14.9807 12.9631 0
      vertex 14.5229 12.8532 -2
      vertex 14.9807 12.9631 -2
    endloop
  endfacet
  facet normal 0.923842 0.382775 0
    outer loop
      vertex 12.777 8.63803 0
      vertex 12.5968 9.07295 -2
      vertex 12.5968 9.07295 0
    endloop
  endfacet
  facet normal 0.923842 0.382775 0
    outer loop
      vertex 12.5968 9.07295 -2
      vertex 12.777 8.63803 0
      vertex 12.777 8.63803 -2
    endloop
  endfacet
  facet normal 0.0783858 -0.996923 0
    outer loop
      vertex 14.9807 12.9631 -2
      vertex 15.45 13 0
      vertex 14.9807 12.9631 0
    endloop
  endfacet
  facet normal 0.0783858 -0.996923 0
    outer loop
      vertex 15.45 13 0
      vertex 14.9807 12.9631 -2
      vertex 15.45 13 -2
    endloop
  endfacet
  facet normal 0.233409 0.972379 -0
    outer loop
      vertex 14.9807 7.03694 -2
      vertex 14.5229 7.14683 0
      vertex 14.9807 7.03694 0
    endloop
  endfacet
  facet normal 0.233409 0.972379 0
    outer loop
      vertex 14.5229 7.14683 0
      vertex 14.9807 7.03694 -2
      vertex 14.5229 7.14683 -2
    endloop
  endfacet
  facet normal -0.923842 0.382775 0
    outer loop
      vertex 18.123 8.63803 -2
      vertex 18.3032 9.07295 0
      vertex 18.3032 9.07295 -2
    endloop
  endfacet
  facet normal -0.923842 0.382775 0
    outer loop
      vertex 18.3032 9.07295 0
      vertex 18.123 8.63803 -2
      vertex 18.123 8.63803 0
    endloop
  endfacet
  facet normal 0.760329 0.649538 0
    outer loop
      vertex 13.3287 7.87868 0
      vertex 13.0229 8.23664 -2
      vertex 13.0229 8.23664 0
    endloop
  endfacet
  facet normal 0.760329 0.649538 0
    outer loop
      vertex 13.0229 8.23664 -2
      vertex 13.3287 7.87868 0
      vertex 13.3287 7.87868 -2
    endloop
  endfacet
  facet normal 0.649601 -0.760275 0
    outer loop
      vertex 13.3287 12.1213 -2
      vertex 13.6866 12.4271 0
      vertex 13.3287 12.1213 0
    endloop
  endfacet
  facet normal 0.649601 -0.760275 0
    outer loop
      vertex 13.6866 12.4271 0
      vertex 13.3287 12.1213 -2
      vertex 13.6866 12.4271 -2
    endloop
  endfacet
  facet normal -0.0784703 0.996916 0
    outer loop
      vertex 15.9193 7.03694 -2
      vertex 15.45 7 0
      vertex 15.9193 7.03694 0
    endloop
  endfacet
  facet normal -0.0784703 0.996916 0
    outer loop
      vertex 15.45 7 0
      vertex 15.9193 7.03694 -2
      vertex 15.45 7 -2
    endloop
  endfacet
  facet normal 0.649515 0.760349 -0
    outer loop
      vertex 13.6866 7.57295 -2
      vertex 13.3287 7.87868 0
      vertex 13.6866 7.57295 0
    endloop
  endfacet
  facet normal 0.649515 0.760349 0
    outer loop
      vertex 13.3287 7.87868 0
      vertex 13.6866 7.57295 -2
      vertex 13.3287 7.87868 -2
    endloop
  endfacet
  facet normal -0.852708 0.522387 0
    outer loop
      vertex 17.8771 8.23664 -2
      vertex 18.123 8.63803 0
      vertex 18.123 8.63803 -2
    endloop
  endfacet
  facet normal -0.852708 0.522387 0
    outer loop
      vertex 18.123 8.63803 0
      vertex 17.8771 8.23664 -2
      vertex 17.8771 8.23664 0
    endloop
  endfacet
  facet normal -0.852714 -0.522378 0
    outer loop
      vertex 18.123 11.362 -2
      vertex 17.8771 11.7634 0
      vertex 17.8771 11.7634 -2
    endloop
  endfacet
  facet normal -0.852714 -0.522378 0
    outer loop
      vertex 17.8771 11.7634 0
      vertex 18.123 11.362 -2
      vertex 18.123 11.362 0
    endloop
  endfacet
  facet normal -0.760275 -0.649601 0
    outer loop
      vertex 17.8771 11.7634 -2
      vertex 17.5713 12.1213 0
      vertex 17.5713 12.1213 -2
    endloop
  endfacet
  facet normal -0.760275 -0.649601 0
    outer loop
      vertex 17.5713 12.1213 0
      vertex 17.8771 11.7634 -2
      vertex 17.8771 11.7634 0
    endloop
  endfacet
  facet normal 0.760275 -0.649601 0
    outer loop
      vertex 13.0229 11.7634 0
      vertex 13.3287 12.1213 -2
      vertex 13.3287 12.1213 0
    endloop
  endfacet
  facet normal 0.760275 -0.649601 0
    outer loop
      vertex 13.3287 12.1213 -2
      vertex 13.0229 11.7634 0
      vertex 13.0229 11.7634 -2
    endloop
  endfacet
  facet normal -0.0783858 -0.996923 0
    outer loop
      vertex 15.45 13 -2
      vertex 15.9193 12.9631 0
      vertex 15.45 13 0
    endloop
  endfacet
  facet normal -0.0783858 -0.996923 -0
    outer loop
      vertex 15.9193 12.9631 0
      vertex 15.45 13 -2
      vertex 15.9193 12.9631 -2
    endloop
  endfacet
  facet normal -0.38279 -0.923836 0
    outer loop
      vertex 16.3771 12.8532 -2
      vertex 16.812 12.673 0
      vertex 16.3771 12.8532 0
    endloop
  endfacet
  facet normal -0.38279 -0.923836 -0
    outer loop
      vertex 16.812 12.673 0
      vertex 16.3771 12.8532 -2
      vertex 16.812 12.673 -2
    endloop
  endfacet
  facet normal 0.972374 -0.233429 0
    outer loop
      vertex 12.4869 10.4693 0
      vertex 12.5968 10.9271 -2
      vertex 12.5968 10.9271 0
    endloop
  endfacet
  facet normal 0.972374 -0.233429 0
    outer loop
      vertex 12.5968 10.9271 -2
      vertex 12.4869 10.4693 0
      vertex 12.4869 10.4693 -2
    endloop
  endfacet
  facet normal -0.522378 -0.852714 0
    outer loop
      vertex 16.812 12.673 -2
      vertex 17.2134 12.4271 0
      vertex 16.812 12.673 0
    endloop
  endfacet
  facet normal -0.522378 -0.852714 -0
    outer loop
      vertex 17.2134 12.4271 0
      vertex 16.812 12.673 -2
      vertex 17.2134 12.4271 -2
    endloop
  endfacet
  facet normal -0.233409 0.972379 0
    outer loop
      vertex 16.3771 7.14683 -2
      vertex 15.9193 7.03694 0
      vertex 16.3771 7.14683 0
    endloop
  endfacet
  facet normal -0.233409 0.972379 0
    outer loop
      vertex 15.9193 7.03694 0
      vertex 16.3771 7.14683 -2
      vertex 15.9193 7.03694 -2
    endloop
  endfacet
  facet normal -0.996923 0.0783858 0
    outer loop
      vertex 18.4131 9.5307 -2
      vertex 18.45 10 0
      vertex 18.45 10 -2
    endloop
  endfacet
  facet normal -0.996923 0.0783858 0
    outer loop
      vertex 18.45 10 0
      vertex 18.4131 9.5307 -2
      vertex 18.4131 9.5307 0
    endloop
  endfacet
  facet normal -0.760329 0.649538 0
    outer loop
      vertex 17.5713 7.87868 -2
      vertex 17.8771 8.23664 0
      vertex 17.8771 8.23664 -2
    endloop
  endfacet
  facet normal -0.760329 0.649538 0
    outer loop
      vertex 17.8771 8.23664 0
      vertex 17.5713 7.87868 -2
      vertex 17.5713 7.87868 0
    endloop
  endfacet
  facet normal 0.852708 0.522387 0
    outer loop
      vertex 13.0229 8.23664 0
      vertex 12.777 8.63803 -2
      vertex 12.777 8.63803 0
    endloop
  endfacet
  facet normal 0.852708 0.522387 0
    outer loop
      vertex 12.777 8.63803 -2
      vertex 13.0229 8.23664 0
      vertex 13.0229 8.23664 -2
    endloop
  endfacet
  facet normal 0.996923 0.0783858 0
    outer loop
      vertex 12.4869 9.5307 0
      vertex 12.45 10 -2
      vertex 12.45 10 0
    endloop
  endfacet
  facet normal 0.996923 0.0783858 0
    outer loop
      vertex 12.45 10 -2
      vertex 12.4869 9.5307 0
      vertex 12.4869 9.5307 -2
    endloop
  endfacet
  facet normal 0.0784703 0.996916 -0
    outer loop
      vertex 15.45 7 -2
      vertex 14.9807 7.03694 0
      vertex 15.45 7 0
    endloop
  endfacet
  facet normal 0.0784703 0.996916 0
    outer loop
      vertex 14.9807 7.03694 0
      vertex 15.45 7 -2
      vertex 14.9807 7.03694 -2
    endloop
  endfacet
  facet normal 0.972368 0.233453 0
    outer loop
      vertex 12.5968 9.07295 0
      vertex 12.4869 9.5307 -2
      vertex 12.4869 9.5307 0
    endloop
  endfacet
  facet normal 0.972368 0.233453 0
    outer loop
      vertex 12.4869 9.5307 -2
      vertex 12.5968 9.07295 0
      vertex 12.5968 9.07295 -2
    endloop
  endfacet
  facet normal -0.233429 -0.972374 0
    outer loop
      vertex 15.9193 12.9631 -2
      vertex 16.3771 12.8532 0
      vertex 15.9193 12.9631 0
    endloop
  endfacet
  facet normal -0.233429 -0.972374 -0
    outer loop
      vertex 16.3771 12.8532 0
      vertex 15.9193 12.9631 -2
      vertex 16.3771 12.8532 -2
    endloop
  endfacet
  facet normal 0.522486 0.852648 -0
    outer loop
      vertex 14.088 7.32698 -2
      vertex 13.6866 7.57295 0
      vertex 14.088 7.32698 0
    endloop
  endfacet
  facet normal 0.522486 0.852648 0
    outer loop
      vertex 13.6866 7.57295 0
      vertex 14.088 7.32698 -2
      vertex 13.6866 7.57295 -2
    endloop
  endfacet
  facet normal 0.996923 -0.0783858 0
    outer loop
      vertex 12.45 10 0
      vertex 12.4869 10.4693 -2
      vertex 12.4869 10.4693 0
    endloop
  endfacet
  facet normal 0.996923 -0.0783858 0
    outer loop
      vertex 12.4869 10.4693 -2
      vertex 12.45 10 0
      vertex 12.45 10 -2
    endloop
  endfacet
  facet normal 0.852714 -0.522378 0
    outer loop
      vertex 12.777 11.362 0
      vertex 13.0229 11.7634 -2
      vertex 13.0229 11.7634 0
    endloop
  endfacet
  facet normal 0.852714 -0.522378 0
    outer loop
      vertex 13.0229 11.7634 -2
      vertex 12.777 11.362 0
      vertex 12.777 11.362 -2
    endloop
  endfacet
  facet normal -0.649515 0.760349 0
    outer loop
      vertex 17.5713 7.87868 -2
      vertex 17.2134 7.57295 0
      vertex 17.5713 7.87868 0
    endloop
  endfacet
  facet normal -0.649515 0.760349 0
    outer loop
      vertex 17.2134 7.57295 0
      vertex 17.5713 7.87868 -2
      vertex 17.2134 7.57295 -2
    endloop
  endfacet
  facet normal -1 0 0
    outer loop
      vertex 21.45 7.1 0
      vertex 21.45 12.9 1
      vertex 21.45 12.9 0
    endloop
  endfacet
  facet normal -1 -0 0
    outer loop
      vertex 21.45 12.9 1
      vertex 21.45 7.1 0
      vertex 21.45 7.1 1
    endloop
  endfacet
  facet normal 1 -0 0
    outer loop
      vertex 9.45 7.1 1
      vertex 9.45 12.9 0
      vertex 9.45 12.9 1
    endloop
  endfacet
  facet normal 1 0 0
    outer loop
      vertex 9.45 12.9 0
      vertex 9.45 7.1 1
      vertex 9.45 7.1 0
    endloop
  endfacet
  facet normal 0.923836 -0.38279 0
    outer loop
      vertex -18.3032 10.9271 0
      vertex -18.123 11.362 -2
      vertex -18.123 11.362 0
    endloop
  endfacet
  facet normal 0.923836 -0.38279 0
    outer loop
      vertex -18.123 11.362 -2
      vertex -18.3032 10.9271 0
      vertex -18.3032 10.9271 -2
    endloop
  endfacet
  facet normal -0.972374 -0.233429 0
    outer loop
      vertex -12.4869 10.4693 -2
      vertex -12.5968 10.9271 0
      vertex -12.5968 10.9271 -2
    endloop
  endfacet
  facet normal -0.972374 -0.233429 0
    outer loop
      vertex -12.5968 10.9271 0
      vertex -12.4869 10.4693 -2
      vertex -12.4869 10.4693 0
    endloop
  endfacet
  facet normal -0.996923 -0.0783858 0
    outer loop
      vertex -12.45 10 -2
      vertex -12.4869 10.4693 0
      vertex -12.4869 10.4693 -2
    endloop
  endfacet
  facet normal -0.996923 -0.0783858 0
    outer loop
      vertex -12.4869 10.4693 0
      vertex -12.45 10 -2
      vertex -12.45 10 0
    endloop
  endfacet
  facet normal -0.923836 -0.38279 0
    outer loop
      vertex -12.5968 10.9271 -2
      vertex -12.777 11.362 0
      vertex -12.777 11.362 -2
    endloop
  endfacet
  facet normal -0.923836 -0.38279 0
    outer loop
      vertex -12.777 11.362 0
      vertex -12.5968 10.9271 -2
      vertex -12.5968 10.9271 0
    endloop
  endfacet
  facet normal -0.522486 0.852648 0
    outer loop
      vertex -13.6866 7.57295 -2
      vertex -14.088 7.32698 0
      vertex -13.6866 7.57295 0
    endloop
  endfacet
  facet normal -0.522486 0.852648 0
    outer loop
      vertex -14.088 7.32698 0
      vertex -13.6866 7.57295 -2
      vertex -14.088 7.32698 -2
    endloop
  endfacet
  facet normal -0.972368 0.233453 0
    outer loop
      vertex -12.5968 9.07295 -2
      vertex -12.4869 9.5307 0
      vertex -12.4869 9.5307 -2
    endloop
  endfacet
  facet normal -0.972368 0.233453 0
    outer loop
      vertex -12.4869 9.5307 0
      vertex -12.5968 9.07295 -2
      vertex -12.5968 9.07295 0
    endloop
  endfacet
  facet normal -0.382699 0.923873 0
    outer loop
      vertex -14.088 7.32698 -2
      vertex -14.5229 7.14683 0
      vertex -14.088 7.32698 0
    endloop
  endfacet
  facet normal -0.382699 0.923873 0
    outer loop
      vertex -14.5229 7.14683 0
      vertex -14.088 7.32698 -2
      vertex -14.5229 7.14683 -2
    endloop
  endfacet
  facet normal 0.38279 -0.923836 0
    outer loop
      vertex -16.812 12.673 -2
      vertex -16.3771 12.8532 0
      vertex -16.812 12.673 0
    endloop
  endfacet
  facet normal 0.38279 -0.923836 0
    outer loop
      vertex -16.3771 12.8532 0
      vertex -16.812 12.673 -2
      vertex -16.3771 12.8532 -2
    endloop
  endfacet
  facet normal 0.382699 0.923873 -0
    outer loop
      vertex -16.3771 7.14683 -2
      vertex -16.812 7.32698 0
      vertex -16.3771 7.14683 0
    endloop
  endfacet
  facet normal 0.382699 0.923873 0
    outer loop
      vertex -16.812 7.32698 0
      vertex -16.3771 7.14683 -2
      vertex -16.812 7.32698 -2
    endloop
  endfacet
  facet normal 0.522378 -0.852714 0
    outer loop
      vertex -17.2134 12.4271 -2
      vertex -16.812 12.673 0
      vertex -17.2134 12.4271 0
    endloop
  endfacet
  facet normal 0.522378 -0.852714 0
    outer loop
      vertex -16.812 12.673 0
      vertex -17.2134 12.4271 -2
      vertex -16.812 12.673 -2
    endloop
  endfacet
  facet normal -0.649601 -0.760275 0
    outer loop
      vertex -13.6866 12.4271 -2
      vertex -13.3287 12.1213 0
      vertex -13.6866 12.4271 0
    endloop
  endfacet
  facet normal -0.649601 -0.760275 -0
    outer loop
      vertex -13.3287 12.1213 0
      vertex -13.6866 12.4271 -2
      vertex -13.3287 12.1213 -2
    endloop
  endfacet
  facet normal 0.233429 -0.972374 0
    outer loop
      vertex -16.3771 12.8532 -2
      vertex -15.9193 12.9631 0
      vertex -16.3771 12.8532 0
    endloop
  endfacet
  facet normal 0.233429 -0.972374 0
    outer loop
      vertex -15.9193 12.9631 0
      vertex -16.3771 12.8532 -2
      vertex -15.9193 12.9631 -2
    endloop
  endfacet
  facet normal 0.923842 0.382775 0
    outer loop
      vertex -18.123 8.63803 0
      vertex -18.3032 9.07295 -2
      vertex -18.3032 9.07295 0
    endloop
  endfacet
  facet normal 0.923842 0.382775 0
    outer loop
      vertex -18.3032 9.07295 -2
      vertex -18.123 8.63803 0
      vertex -18.123 8.63803 -2
    endloop
  endfacet
  facet normal 0.0783858 -0.996923 0
    outer loop
      vertex -15.9193 12.9631 -2
      vertex -15.45 13 0
      vertex -15.9193 12.9631 0
    endloop
  endfacet
  facet normal 0.0783858 -0.996923 0
    outer loop
      vertex -15.45 13 0
      vertex -15.9193 12.9631 -2
      vertex -15.45 13 -2
    endloop
  endfacet
  facet normal 0.233409 0.972379 -0
    outer loop
      vertex -15.9193 7.03694 -2
      vertex -16.3771 7.14683 0
      vertex -15.9193 7.03694 0
    endloop
  endfacet
  facet normal 0.233409 0.972379 0
    outer loop
      vertex -16.3771 7.14683 0
      vertex -15.9193 7.03694 -2
      vertex -16.3771 7.14683 -2
    endloop
  endfacet
  facet normal -0.923842 0.382775 0
    outer loop
      vertex -12.777 8.63803 -2
      vertex -12.5968 9.07295 0
      vertex -12.5968 9.07295 -2
    endloop
  endfacet
  facet normal -0.923842 0.382775 0
    outer loop
      vertex -12.5968 9.07295 0
      vertex -12.777 8.63803 -2
      vertex -12.777 8.63803 0
    endloop
  endfacet
  facet normal 0.760329 0.649538 0
    outer loop
      vertex -17.5713 7.87868 0
      vertex -17.8771 8.23664 -2
      vertex -17.8771 8.23664 0
    endloop
  endfacet
  facet normal 0.760329 0.649538 0
    outer loop
      vertex -17.8771 8.23664 -2
      vertex -17.5713 7.87868 0
      vertex -17.5713 7.87868 -2
    endloop
  endfacet
  facet normal 0.649601 -0.760275 0
    outer loop
      vertex -17.5713 12.1213 -2
      vertex -17.2134 12.4271 0
      vertex -17.5713 12.1213 0
    endloop
  endfacet
  facet normal 0.649601 -0.760275 0
    outer loop
      vertex -17.2134 12.4271 0
      vertex -17.5713 12.1213 -2
      vertex -17.2134 12.4271 -2
    endloop
  endfacet
  facet normal -0.0784703 0.996916 0
    outer loop
      vertex -14.9807 7.03694 -2
      vertex -15.45 7 0
      vertex -14.9807 7.03694 0
    endloop
  endfacet
  facet normal -0.0784703 0.996916 0
    outer loop
      vertex -15.45 7 0
      vertex -14.9807 7.03694 -2
      vertex -15.45 7 -2
    endloop
  endfacet
  facet normal 0.649515 0.760349 -0
    outer loop
      vertex -17.2134 7.57295 -2
      vertex -17.5713 7.87868 0
      vertex -17.2134 7.57295 0
    endloop
  endfacet
  facet normal 0.649515 0.760349 0
    outer loop
      vertex -17.5713 7.87868 0
      vertex -17.2134 7.57295 -2
      vertex -17.5713 7.87868 -2
    endloop
  endfacet
  facet normal -0.852708 0.522387 0
    outer loop
      vertex -13.0229 8.23664 -2
      vertex -12.777 8.63803 0
      vertex -12.777 8.63803 -2
    endloop
  endfacet
  facet normal -0.852708 0.522387 0
    outer loop
      vertex -12.777 8.63803 0
      vertex -13.0229 8.23664 -2
      vertex -13.0229 8.23664 0
    endloop
  endfacet
  facet normal -0.852714 -0.522378 0
    outer loop
      vertex -12.777 11.362 -2
      vertex -13.0229 11.7634 0
      vertex -13.0229 11.7634 -2
    endloop
  endfacet
  facet normal -0.852714 -0.522378 0
    outer loop
      vertex -13.0229 11.7634 0
      vertex -12.777 11.362 -2
      vertex -12.777 11.362 0
    endloop
  endfacet
  facet normal -0.760275 -0.649601 0
    outer loop
      vertex -13.0229 11.7634 -2
      vertex -13.3287 12.1213 0
      vertex -13.3287 12.1213 -2
    endloop
  endfacet
  facet normal -0.760275 -0.649601 0
    outer loop
      vertex -13.3287 12.1213 0
      vertex -13.0229 11.7634 -2
      vertex -13.0229 11.7634 0
    endloop
  endfacet
  facet normal 0.760275 -0.649601 0
    outer loop
      vertex -17.8771 11.7634 0
      vertex -17.5713 12.1213 -2
      vertex -17.5713 12.1213 0
    endloop
  endfacet
  facet normal 0.760275 -0.649601 0
    outer loop
      vertex -17.5713 12.1213 -2
      vertex -17.8771 11.7634 0
      vertex -17.8771 11.7634 -2
    endloop
  endfacet
  facet normal -0.0783858 -0.996923 0
    outer loop
      vertex -15.45 13 -2
      vertex -14.9807 12.9631 0
      vertex -15.45 13 0
    endloop
  endfacet
  facet normal -0.0783858 -0.996923 -0
    outer loop
      vertex -14.9807 12.9631 0
      vertex -15.45 13 -2
      vertex -14.9807 12.9631 -2
    endloop
  endfacet
  facet normal -0.38279 -0.923836 0
    outer loop
      vertex -14.5229 12.8532 -2
      vertex -14.088 12.673 0
      vertex -14.5229 12.8532 0
    endloop
  endfacet
  facet normal -0.38279 -0.923836 -0
    outer loop
      vertex -14.088 12.673 0
      vertex -14.5229 12.8532 -2
      vertex -14.088 12.673 -2
    endloop
  endfacet
  facet normal 0.972374 -0.233429 0
    outer loop
      vertex -18.4131 10.4693 0
      vertex -18.3032 10.9271 -2
      vertex -18.3032 10.9271 0
    endloop
  endfacet
  facet normal 0.972374 -0.233429 0
    outer loop
      vertex -18.3032 10.9271 -2
      vertex -18.4131 10.4693 0
      vertex -18.4131 10.4693 -2
    endloop
  endfacet
  facet normal -0.522378 -0.852714 0
    outer loop
      vertex -14.088 12.673 -2
      vertex -13.6866 12.4271 0
      vertex -14.088 12.673 0
    endloop
  endfacet
  facet normal -0.522378 -0.852714 -0
    outer loop
      vertex -13.6866 12.4271 0
      vertex -14.088 12.673 -2
      vertex -13.6866 12.4271 -2
    endloop
  endfacet
  facet normal -0.233409 0.972379 0
    outer loop
      vertex -14.5229 7.14683 -2
      vertex -14.9807 7.03694 0
      vertex -14.5229 7.14683 0
    endloop
  endfacet
  facet normal -0.233409 0.972379 0
    outer loop
      vertex -14.9807 7.03694 0
      vertex -14.5229 7.14683 -2
      vertex -14.9807 7.03694 -2
    endloop
  endfacet
  facet normal -0.996923 0.0783858 0
    outer loop
      vertex -12.4869 9.5307 -2
      vertex -12.45 10 0
      vertex -12.45 10 -2
    endloop
  endfacet
  facet normal -0.996923 0.0783858 0
    outer loop
      vertex -12.45 10 0
      vertex -12.4869 9.5307 -2
      vertex -12.4869 9.5307 0
    endloop
  endfacet
  facet normal -0.760329 0.649538 0
    outer loop
      vertex -13.3287 7.87868 -2
      vertex -13.0229 8.23664 0
      vertex -13.0229 8.23664 -2
    endloop
  endfacet
  facet normal -0.760329 0.649538 0
    outer loop
      vertex -13.0229 8.23664 0
      vertex -13.3287 7.87868 -2
      vertex -13.3287 7.87868 0
    endloop
  endfacet
  facet normal 0.852708 0.522387 0
    outer loop
      vertex -17.8771 8.23664 0
      vertex -18.123 8.63803 -2
      vertex -18.123 8.63803 0
    endloop
  endfacet
  facet normal 0.852708 0.522387 0
    outer loop
      vertex -18.123 8.63803 -2
      vertex -17.8771 8.23664 0
      vertex -17.8771 8.23664 -2
    endloop
  endfacet
  facet normal 0.996923 0.0783858 0
    outer loop
      vertex -18.4131 9.5307 0
      vertex -18.45 10 -2
      vertex -18.45 10 0
    endloop
  endfacet
  facet normal 0.996923 0.0783858 0
    outer loop
      vertex -18.45 10 -2
      vertex -18.4131 9.5307 0
      vertex -18.4131 9.5307 -2
    endloop
  endfacet
  facet normal 0.0784703 0.996916 -0
    outer loop
      vertex -15.45 7 -2
      vertex -15.9193 7.03694 0
      vertex -15.45 7 0
    endloop
  endfacet
  facet normal 0.0784703 0.996916 0
    outer loop
      vertex -15.9193 7.03694 0
      vertex -15.45 7 -2
      vertex -15.9193 7.03694 -2
    endloop
  endfacet
  facet normal 0.972368 0.233453 0
    outer loop
      vertex -18.3032 9.07295 0
      vertex -18.4131 9.5307 -2
      vertex -18.4131 9.5307 0
    endloop
  endfacet
  facet normal 0.972368 0.233453 0
    outer loop
      vertex -18.4131 9.5307 -2
      vertex -18.3032 9.07295 0
      vertex -18.3032 9.07295 -2
    endloop
  endfacet
  facet normal -0.233429 -0.972374 0
    outer loop
      vertex -14.9807 12.9631 -2
      vertex -14.5229 12.8532 0
      vertex -14.9807 12.9631 0
    endloop
  endfacet
  facet normal -0.233429 -0.972374 -0
    outer loop
      vertex -14.5229 12.8532 0
      vertex -14.9807 12.9631 -2
      vertex -14.5229 12.8532 -2
    endloop
  endfacet
  facet normal 0.522486 0.852648 -0
    outer loop
      vertex -16.812 7.32698 -2
      vertex -17.2134 7.57295 0
      vertex -16.812 7.32698 0
    endloop
  endfacet
  facet normal 0.522486 0.852648 0
    outer loop
      vertex -17.2134 7.57295 0
      vertex -16.812 7.32698 -2
      vertex -17.2134 7.57295 -2
    endloop
  endfacet
  facet normal 0.996923 -0.0783858 0
    outer loop
      vertex -18.45 10 0
      vertex -18.4131 10.4693 -2
      vertex -18.4131 10.4693 0
    endloop
  endfacet
  facet normal 0.996923 -0.0783858 0
    outer loop
      vertex -18.4131 10.4693 -2
      vertex -18.45 10 0
      vertex -18.45 10 -2
    endloop
  endfacet
  facet normal 0.852714 -0.522378 0
    outer loop
      vertex -18.123 11.362 0
      vertex -17.8771 11.7634 -2
      vertex -17.8771 11.7634 0
    endloop
  endfacet
  facet normal 0.852714 -0.522378 0
    outer loop
      vertex -17.8771 11.7634 -2
      vertex -18.123 11.362 0
      vertex -18.123 11.362 -2
    endloop
  endfacet
  facet normal -0.649515 0.760349 0
    outer loop
      vertex -13.3287 7.87868 -2
      vertex -13.6866 7.57295 0
      vertex -13.3287 7.87868 0
    endloop
  endfacet
  facet normal -0.649515 0.760349 0
    outer loop
      vertex -13.6866 7.57295 0
      vertex -13.3287 7.87868 -2
      vertex -13.6866 7.57295 -2
    endloop
  endfacet
  facet normal -1 0 0
    outer loop
      vertex -9.45 7.1 0
      vertex -9.45 12.9 1
      vertex -9.45 12.9 0
    endloop
  endfacet
  facet normal -1 -0 0
    outer loop
      vertex -9.45 12.9 1
      vertex -9.45 7.1 0
      vertex -9.45 7.1 1
    endloop
  endfacet
  facet normal 1 -0 0
    outer loop
      vertex -21.45 7.1 1
      vertex -21.45 12.9 0
      vertex -21.45 12.9 1
    endloop
  endfacet
  facet normal 1 0 0
    outer loop
      vertex -21.45 12.9 0
      vertex -21.45 7.1 1
      vertex -21.45 7.1 0
    endloop
  endfacet
endsolid OpenSCAD_Model
